<?xml version="1.0" encoding="utf-8"?>
<!-- Generator: Adobe Illustrator 22.1.0, SVG Export Plug-In . SVG Version: 6.00 Build 0)  -->
<svg version="1.1" id="Layer_1" xmlns="http://www.w3.org/2000/svg" xmlns:xlink="http://www.w3.org/1999/xlink" x="0px" y="0px"
	 viewBox="0 0 97.6 31.5" style="enable-background:new 0 0 97.6 31.5;" xml:space="preserve">
<style type="text/css">
	.st0{fill:#EFEBEC;}
</style>
<path class="st0" d="M95.5,28.9h2.1v-1c-0.2,0.3-0.5,0.4-1,0.2c0.2-0.5,0.6-0.4,1-0.4V2.6h-2.1V0c-35,0-58.3,3.1-73.1,6.6
	c0.1,0.1,0.1,0.2,0.1,0.3c-0.2,0.4-0.4,0.4-0.5,0c0-0.1,0-0.1,0-0.2c-16.1,3.8-22,8-22,9c0,0.1,0.1,0.3,0.1,0.4c0,0,0,0.1,0.1,0.1
	c0.1,0.2,0.2,0.3,0.4,0.5l0,0c0.2,0.2,0.4,0.4,0.7,0.6c0.1,0,0.1,0.1,0.2,0.1c0.6,0.5,1.4,1,2.3,1.5c0.1,0.2,0.1,0.2,0.2,0.3
	c1,0.6,2.3,1.1,3.8,1.7C7.9,20.9,8,21,8.1,21c0.8,0.3,1.5,0.6,2.4,0.9l0,0l0,0c1.8,0.6,3.9,1.3,6.3,1.9c0,0,0.1-0.1,0.2-0.1
	c0,0,0.3,0.2,0.2,0.3c14.3,3.9,38.9,7.5,78.4,7.5L95.5,28.9L95.5,28.9z M9,20.3c-0.7,0.2-0.8-0.3-1-0.7c0.5-0.3,0.9-0.4,1.1,0
	C9.2,19.8,9.1,20.3,9,20.3z M90.1,6.1c0.7,0.4,0.5,1,0.6,1.5c0,0,0,0,0.1,0c0,0,0,0,0,0.1c0.6,0.2,0.9,0.5,0.5,1.1
	c-0.7-0.2-0.5-0.7-0.5-1.1c0,0,0,0-0.1,0c0,0,0,0,0-0.1c-0.6-0.1-1.1-0.1-1.5-0.6C89.1,6.2,89.5,6.1,90.1,6.1z M88.6,14.7
	c-0.3,0.4-0.6,0.4-1,0c0.2-0.3,0.4-0.5,0.6-0.8C88.8,14,88.8,14.3,88.6,14.7z M87.5,7.2c0.1,0.2,0.3,0.3,0.4,0.5
	c0,0.1-0.3,0.2-0.5,0.3l-0.2-0.2C87.3,7.6,87.4,7.4,87.5,7.2z M83.2,9.6L83,9.8l-0.1-0.2H83.2z M74.1,7.9L74.3,8l-0.2,0.1V7.9z
	 M72.4,6.4c0.1,0.1,0,0.4,0,0.7c-0.7,0.3-0.7-0.4-1.1-0.6C71.8,6,72.2,6,72.4,6.4z M70.6,8.8c-0.3,0.3-0.6,0.4-0.9,0
	C70,8.5,70.3,8.5,70.6,8.8z M69.6,6.2c0.4,0.2,0.5,0.6,0,1C69.3,7,69,6.8,68.7,6.6C68.8,6,69.2,6,69.6,6.2z M66.5,2.6
	C66.5,2.6,66.6,2.6,66.5,2.6C66.6,2.6,66.6,2.6,66.5,2.6c0.7,0.2,1,0.5,0.6,1.2C66.4,3.6,66.6,3,66.5,2.6
	C66.6,2.6,66.5,2.6,66.5,2.6L66.5,2.6c-0.5-0.1-1.1,0.2-1.3-0.5C65.9,1.7,66.3,2,66.5,2.6z M65.2,3.7c0.4,0.8,0.5,1.3,0.2,1.8
	c-0.8-0.1-1.6,0.3-2.3-0.3C63.3,4.2,64.4,4.2,65.2,3.7z M64.3,13c-0.1-0.2-0.2-0.4-0.2-0.7c0-0.1,0.3-0.3,0.3-0.2
	C64.7,12.4,64.7,12.7,64.3,13z M60.2,4.1c0.1-0.7,0.3-1.3,1.2-1.4c0.9,0.4,0.7,1,0.5,1.7c-0.6,0.5-1.1,0-1.6-0.1
	c-0.6,1.2-1.4,0.7-3.1,0.2C58.8,4.3,59.5,4.2,60.2,4.1z M61.2,8.4L61.2,8.4L61.2,8.4c-0.7-0.1-1.4-0.1-1.9-0.1
	c-0.5-0.9,0.2-1,0.5-1.3C60.5,7.3,61,7.7,61.2,8.4L61.2,8.4L61.2,8.4c0.6,0.2,0.9,0.5,0.6,1.1C61,9.4,61.3,8.9,61.2,8.4z M59.1,9.6
	L59,9.8l-0.1-0.2H59.1z M58.1,6.2v0.2l-0.2-0.1L58.1,6.2z M48.2,6.3c-0.3,0.4-0.6,0.4-0.9,0C47.6,5.9,47.9,5.9,48.2,6.3z M44.6,3.9
	C44.7,4.1,45,4.2,45,4.3c0,0.2-0.2,0.3-0.4,0.4c-0.1-0.1-0.3-0.2-0.3-0.2C44.3,4.3,44.5,4.1,44.6,3.9z M43,12.8
	c0.1-0.1,0.3-0.1,0.4-0.1c0.4,0.2,0.4,0.4,0,0.5c-0.1,0-0.3-0.1-0.4-0.1C43,13,43,12.9,43,12.8z M33.9,10.4l0.2,0.1l-0.2,0.1V10.4z
	 M15,10.6c0.3-0.1,0.4,0.1,0.3,0.5c0,0.1-0.2,0.1-0.3,0.2c-0.1-0.1-0.1-0.2-0.2-0.3C14.9,10.8,15,10.6,15,10.6z M47.4,28.9l-0.2-0.1
	l0.3-0.1L47.4,28.9z M67.1,30.4c-0.3,0.4-0.6,0.4-1,0.1c0-0.4,0.2-0.7,0.7-0.8C67.3,29.7,67.4,30.1,67.1,30.4z M92.8,28.7
	c-46.2-0.2-70.9-5.6-82.3-9.7v-3.3h82.3V28.7z M94.3,9.2C94.3,9.2,94.3,9.3,94.3,9.2C94.1,9.4,94,9.5,94,9.5S94.1,9.4,94.3,9.2
	L94.3,9.2c0-0.3,0-0.5,0-0.8c-0.2-0.1-0.4-0.2-0.6-0.3c0.1-0.1,0.2-0.2,0.4-0.3c0.1,0.2,0.2,0.4,0.3,0.6C95.1,8.7,95,9,94.3,9.2z"/>
</svg>
