<?xml version="1.0" encoding="utf-8"?>
<!-- Generator: Adobe Illustrator 22.1.0, SVG Export Plug-In . SVG Version: 6.00 Build 0)  -->
<svg version="1.1" id="Layer_1" xmlns="http://www.w3.org/2000/svg" xmlns:xlink="http://www.w3.org/1999/xlink" x="0px" y="0px"
	 viewBox="0 0 96.9 31.5" style="enable-background:new 0 0 96.9 31.5;" xml:space="preserve">
<style type="text/css">
	.st0{fill:#EFEBEC;}
</style>
<path class="st0" d="M2.1,2.6H0v1c0.2-0.3,0.5-0.4,1-0.2C0.8,3.9,0.4,3.8,0,3.8v25.1h2.1v2.6c35,0,58.3-3.1,73.1-6.6
	c-0.1-0.1-0.1-0.2-0.1-0.3c0.2-0.4,0.4-0.4,0.5,0c0,0.1,0,0.1,0,0.2c16.1-3.8,22-8,22-9c0-0.1-0.1-0.3-0.1-0.4c0,0,0-0.1-0.1-0.1
	c-0.1-0.2-0.2-0.3-0.4-0.5l0,0c-0.2-0.2-0.4-0.4-0.7-0.6c-0.1,0-0.1-0.1-0.2-0.1c-0.6-0.5-1.4-1-2.3-1.5c-0.1-0.2-0.1-0.2-0.2-0.3
	c-1-0.6-2.3-1.1-3.8-1.7c-0.1,0-0.2-0.1-0.3-0.1c-0.8-0.3-1.5-0.6-2.4-0.9l0,0l0,0c-1.8-0.6-3.9-1.3-6.3-1.9c0,0-0.1,0.1-0.2,0.1
	c0,0-0.3-0.2-0.2-0.3C66.1,3.6,41.5,0,2,0v2.6H2.1z M88.6,11.2c0.7-0.2,0.8,0.3,1,0.7c-0.5,0.3-0.9,0.4-1.1,0
	C88.4,11.7,88.5,11.2,88.6,11.2z M7.5,25.4c-0.7-0.4-0.5-1-0.6-1.5c0,0,0,0-0.1,0c0,0,0,0,0-0.1c-0.6-0.2-0.9-0.5-0.5-1.1
	c0.7,0.2,0.5,0.7,0.5,1.1c0,0,0,0,0.1,0c0,0,0,0,0,0.1C7.5,24,8,24,8.4,24.5C8.5,25.3,8.1,25.4,7.5,25.4z M9,16.8
	c0.3-0.4,0.6-0.4,1,0c-0.2,0.3-0.4,0.5-0.6,0.8C8.8,17.5,8.8,17.2,9,16.8z M10.1,24.3C10,24.1,9.8,24,9.7,23.8
	c0-0.1,0.3-0.2,0.5-0.3l0.2,0.2C10.3,23.9,10.2,24.1,10.1,24.3z M14.4,21.9l0.2-0.2l0.1,0.2H14.4z M23.5,23.6l-0.2-0.1l0.2-0.1V23.6
	z M25.2,25.1c-0.1-0.1,0-0.4,0-0.7c0.7-0.3,0.7,0.4,1.1,0.6C25.8,25.5,25.4,25.5,25.2,25.1z M27,22.7c0.3-0.3,0.6-0.4,0.9,0
	C27.6,23,27.3,23,27,22.7z M28,25.3c-0.4-0.2-0.5-0.6,0-1c0.3,0.2,0.6,0.4,0.9,0.6C28.8,25.5,28.4,25.5,28,25.3z M31.1,28.9
	C31.1,28.9,31,28.9,31.1,28.9C31,28.9,31,28.9,31.1,28.9c-0.7-0.2-1-0.5-0.6-1.2C31.2,27.9,31,28.5,31.1,28.9
	C31,28.9,31.1,28.9,31.1,28.9L31.1,28.9c0.5,0.1,1.1-0.2,1.3,0.5C31.7,29.8,31.3,29.5,31.1,28.9z M32.4,27.8
	C32,27,31.9,26.5,32.2,26c0.8,0.1,1.6-0.3,2.3,0.3C34.3,27.3,33.2,27.3,32.4,27.8z M33.3,18.5c0.1,0.2,0.2,0.4,0.2,0.7
	c0,0.1-0.3,0.3-0.3,0.2C32.9,19.1,32.9,18.8,33.3,18.5z M37.4,27.4c-0.1,0.7-0.3,1.3-1.2,1.4c-0.9-0.4-0.7-1-0.5-1.7
	c0.6-0.5,1.1,0,1.6,0.1c0.6-1.2,1.4-0.7,3.1-0.2C38.8,27.2,38.1,27.3,37.4,27.4z M36.4,23.1L36.4,23.1L36.4,23.1
	c0.7,0.1,1.4,0.1,1.9,0.1c0.5,0.9-0.2,1-0.5,1.3C37.1,24.2,36.6,23.8,36.4,23.1L36.4,23.1L36.4,23.1c-0.6-0.2-0.9-0.5-0.6-1.1
	C36.6,22.1,36.3,22.6,36.4,23.1z M38.5,21.9l0.1-0.2l0.1,0.2H38.5z M39.5,25.3v-0.2l0.2,0.1L39.5,25.3z M49.4,25.2
	c0.3-0.4,0.6-0.4,0.9,0C50,25.6,49.7,25.6,49.4,25.2z M53,27.6c-0.1-0.2-0.4-0.3-0.4-0.4c0-0.2,0.2-0.3,0.4-0.4
	c0.1,0.1,0.3,0.2,0.3,0.2C53.3,27.2,53.1,27.4,53,27.6z M54.6,18.7c-0.1,0.1-0.3,0.1-0.4,0.1c-0.4-0.2-0.4-0.4,0-0.5
	c0.1,0,0.3,0.1,0.4,0.1C54.6,18.5,54.6,18.6,54.6,18.7z M63.7,21.1L63.5,21l0.2-0.1V21.1z M82.6,20.9c-0.3,0.1-0.4-0.1-0.3-0.5
	c0-0.1,0.2-0.1,0.3-0.2c0.1,0.1,0.1,0.2,0.2,0.3C82.7,20.7,82.6,20.9,82.6,20.9z M50.2,2.6l0.2,0.1l-0.3,0.1L50.2,2.6z M30.5,1.1
	c0.3-0.4,0.6-0.4,1-0.1c0,0.4-0.2,0.7-0.7,0.8C30.3,1.8,30.2,1.4,30.5,1.1z M4.8,2.8C51,3,75.7,8.4,87.1,12.5v3.3H4.8V2.8z
	 M3.3,22.3C3.3,22.3,3.3,22.2,3.3,22.3C3.5,22.1,3.6,22,3.6,22C3.6,22,3.5,22.1,3.3,22.3L3.3,22.3c0,0.3,0,0.5,0,0.8
	c0.2,0.1,0.4,0.2,0.6,0.3c-0.1,0.1-0.2,0.2-0.4,0.3c-0.1-0.2-0.2-0.4-0.3-0.6C2.5,22.8,2.6,22.5,3.3,22.3z"/>
</svg>
