<?xml version="1.0" encoding="utf-8"?>
<!-- Generator: Adobe Illustrator 22.1.0, SVG Export Plug-In . SVG Version: 6.00 Build 0)  -->
<svg version="1.1" id="Layer_1" xmlns="http://www.w3.org/2000/svg" xmlns:xlink="http://www.w3.org/1999/xlink" x="0px" y="0px"
	 viewBox="0 0 74 97.6" style="enable-background:new 0 0 74 97.6;" xml:space="preserve">
<style type="text/css">
	.st0{fill:#17242E;}
</style>
<path class="st0" d="M24.2,95.5v2.1h1c-0.3-0.2-0.4-0.5-0.2-1c0.5,0.2,0.4,0.6,0.4,1h25.1v-2.1h2.6c0-35-3.1-58.3-6.6-73.1
	c-0.1,0.1-0.2,0.1-0.3,0.1c-0.4-0.2-0.4-0.4,0-0.5c0.1,0,0.1,0,0.2,0C42.6,5.9,38.4,0,37.4,0c-0.1,0-0.3,0.1-0.4,0.1
	c0,0-0.1,0-0.1,0.1c-0.2,0.1-0.3,0.2-0.5,0.4c0,0,0,0,0,0c-0.2,0.2-0.4,0.4-0.6,0.7c0,0.1-0.1,0.1-0.1,0.2c-0.5,0.6-1,1.4-1.5,2.3
	C34,3.9,34,3.9,33.9,4c-0.6,1-1.1,2.3-1.7,3.8c0,0.1-0.1,0.2-0.1,0.3c-0.3,0.8-0.6,1.5-0.9,2.4c0,0,0,0,0,0h0
	c-0.6,1.8-1.3,3.9-1.9,6.3c0,0,0.1,0.1,0.1,0.2c0,0-0.2,0.3-0.3,0.2c-3.9,14.3-7.5,38.9-7.5,78.4H24.2z M32.8,9
	c-0.2-0.7,0.3-0.8,0.7-1c0.3,0.5,0.4,0.9,0,1.1C33.3,9.2,32.8,9.1,32.8,9z M47,90.1c-0.4,0.7-1,0.5-1.5,0.6c0,0,0,0,0,0.1
	c0,0,0,0-0.1,0c-0.2,0.6-0.5,0.9-1.1,0.5c0.2-0.7,0.7-0.5,1.1-0.5c0,0,0,0,0-0.1c0,0,0,0,0.1,0c0.1-0.6,0.1-1.1,0.6-1.5
	C46.9,89.1,47,89.5,47,90.1z M38.4,88.6c-0.4-0.3-0.4-0.6,0-1c0.3,0.2,0.5,0.4,0.8,0.6C39.1,88.8,38.8,88.8,38.4,88.6z M45.9,87.5
	c-0.2,0.1-0.3,0.3-0.5,0.4c-0.1,0-0.2-0.3-0.3-0.5c0,0,0.2-0.2,0.2-0.2C45.5,87.3,45.7,87.4,45.9,87.5z M43.5,83.2l-0.2-0.2l0.2-0.1
	L43.5,83.2z M45.2,74.1l-0.1,0.2L45,74.1L45.2,74.1z M46.7,72.4c-0.1,0.1-0.4,0-0.7,0c-0.3-0.7,0.4-0.7,0.6-1.1
	C47.1,71.8,47.1,72.2,46.7,72.4z M44.3,70.6c-0.3-0.3-0.4-0.6,0-0.9C44.6,70,44.6,70.3,44.3,70.6z M46.9,69.6c-0.2,0.4-0.6,0.5-1,0
	c0.2-0.3,0.4-0.6,0.6-0.9C47.1,68.8,47.1,69.2,46.9,69.6z M50.5,66.5C50.5,66.5,50.5,66.6,50.5,66.5C50.5,66.6,50.5,66.6,50.5,66.5
	c-0.2,0.7-0.5,1-1.2,0.6C49.5,66.4,50.1,66.6,50.5,66.5C50.5,66.6,50.5,66.5,50.5,66.5C50.5,66.5,50.5,66.5,50.5,66.5
	c0.1-0.5-0.2-1.1,0.5-1.3C51.4,65.9,51.1,66.3,50.5,66.5z M49.4,65.2c-0.8,0.4-1.3,0.5-1.8,0.2c0.1-0.8-0.3-1.6,0.3-2.3
	C48.9,63.3,48.9,64.4,49.4,65.2z M40.1,64.3c0.2-0.1,0.4-0.2,0.7-0.2c0.1,0,0.3,0.3,0.2,0.3C40.7,64.7,40.4,64.7,40.1,64.3z
	 M49,60.2c0.7,0.1,1.3,0.3,1.4,1.2c-0.4,0.9-1,0.7-1.7,0.5c-0.5-0.6,0-1.1,0.1-1.6c-1.2-0.6-0.7-1.4-0.2-3.1
	C48.8,58.8,48.9,59.5,49,60.2z M44.7,61.2C44.7,61.2,44.7,61.2,44.7,61.2C44.7,61.2,44.7,61.2,44.7,61.2c0.1-0.7,0.1-1.4,0.1-1.9
	c0.9-0.5,1,0.2,1.3,0.5C45.8,60.5,45.4,61,44.7,61.2C44.7,61.2,44.7,61.2,44.7,61.2C44.7,61.2,44.7,61.2,44.7,61.2
	c-0.2,0.6-0.5,0.9-1.1,0.6C43.7,61,44.2,61.3,44.7,61.2z M43.5,59.1l-0.2-0.1l0.2-0.1L43.5,59.1z M46.9,58.1l-0.2,0l0.1-0.2
	L46.9,58.1z M46.8,48.2c-0.4-0.3-0.4-0.6,0-0.9C47.2,47.6,47.2,47.9,46.8,48.2z M49.2,44.6c-0.2,0.1-0.3,0.4-0.4,0.4
	c-0.2,0-0.3-0.2-0.4-0.4c0.1-0.1,0.2-0.3,0.2-0.3C48.8,44.3,49,44.5,49.2,44.6z M40.3,43c0.1,0.1,0.1,0.3,0.1,0.4
	c-0.2,0.4-0.4,0.4-0.5,0c0-0.1,0.1-0.3,0.1-0.4C40.1,43,40.2,43,40.3,43z M42.7,33.9l-0.1,0.2l-0.1-0.2L42.7,33.9z M42.5,15
	c0.1,0.3-0.1,0.4-0.5,0.3c-0.1,0-0.1-0.2-0.2-0.3c0.1-0.1,0.2-0.1,0.3-0.2C42.3,14.9,42.5,15,42.5,15z M24.2,47.4l0.1-0.2l0.1,0.3
	L24.2,47.4z M22.7,67.1c-0.4-0.3-0.4-0.6-0.1-1c0.4,0,0.7,0.2,0.8,0.7C23.4,67.3,23,67.4,22.7,67.1z M24.4,92.8
	c0.2-46.2,5.6-70.9,9.7-82.3h3.3v82.3H24.4z M43.9,94.3C43.9,94.3,43.8,94.3,43.9,94.3c-0.2-0.2-0.3-0.3-0.3-0.3
	C43.6,94,43.7,94.1,43.9,94.3C43.9,94.3,43.9,94.3,43.9,94.3c0.3,0,0.5,0,0.8,0c0.1-0.2,0.2-0.4,0.3-0.6c0.1,0.1,0.2,0.2,0.3,0.4
	c-0.2,0.1-0.4,0.2-0.6,0.3C44.4,95.1,44.1,95,43.9,94.3z"/>
</svg>
