<?xml version="1.0" encoding="utf-8"?>
<!-- Generator: Adobe Illustrator 22.1.0, SVG Export Plug-In . SVG Version: 6.00 Build 0)  -->
<svg version="1.1" id="Layer_1" xmlns="http://www.w3.org/2000/svg" xmlns:xlink="http://www.w3.org/1999/xlink" x="0px" y="0px"
	 viewBox="0 0 10.1 145.2" style="enable-background:new 0 0 10.1 145.2;" xml:space="preserve">
<style type="text/css">
	.st0{fill:#EFEBEC;}
</style>
<g>
	<path class="st0" d="M1.1,2.8c0,0,0.1-0.1,0.2-0.1c0,0,0,0,0-0.1c0.1-0.1,0.2-0.2,0.2-0.1c0,0-0.1,0.1-0.1,0.2l0,0
		c0,0.3-0.1,0.5-0.2,0.9C1.1,3.5,1.1,3.3,1.1,3.2C1,3.5,1,3.9,1,4.3c0,2.3,1.9,4.2,4.2,4.2s4.2-1.9,4.2-4.2S7.5,0.1,5.2,0.1
		C3.2,0.2,1.7,1.3,1.1,2.8z M7.6,6.9c-0.2,0.2-0.4,0.2-0.5,0C7.3,6.7,7.5,6.6,7.6,6.9z M6.9,6.8L6.9,6.8V6.7V6.8z M2.1,4.7
		c-0.2-0.2-0.3-0.4,0-0.6C2.3,4.3,2.4,4.5,2.1,4.7z"/>
	<path class="st0" d="M5,12.9l-5,8.5L0.1,23c0.3,0,0.2,0.3,0.1,0.4l-0.1,0.1L1,46.1l0.1,0.1l0,0c0,0,0,0,0,0.1
		c0.1,0.1,0.2,0.1,0.3,0.2c-0.3,0.3-0.3,0-0.3-0.2c0,0,0,0-0.1,0l0,0H0.9l0.8,17.1c0.1,0,0.2-0.1,0.3-0.1c-0.1,0.3-0.2,0.4-0.2,0.6
		l0.6,15.6c0.1-0.1,0.3-0.1,0.5-0.2c0.3,0.3,0.2,0.7,0.1,1c-0.2,0.2-0.4,0.3-0.5,0.3L3.7,112c0-0.2,0.1-0.3,0.2-0.5
		c0.3,0,0.4,0.1,0.6,0.4c-0.1,0.3-0.2,0.6-0.3,0.9l0,0c0,0,0,0,0,0.1c0.4,0.2,0.5,0.6,0.5,1.1l0,0l0,0c0.1,0,0.3,0,0.4,0
		c0.3,0.1,0.6,0.3,0.3,0.7c-0.4,0-0.6-0.4-0.8-0.8l0,0l0,0c-0.5-0.2-0.4-0.6-0.5-1.1l0,0l0,0c-0.3-0.2-0.4-0.4-0.5-0.6l0.8,17l0,0
		l0,0l0.6,16l0.4-10.4H5.3l0.1-0.1l0.7-16.2c0,0.1-0.1,0.1-0.2,0.2c0-0.2-0.1-0.3-0.1-0.5c0,0,0.2-0.2,0.2-0.1
		c0.1,0.1,0.1,0.1,0.1,0.2l0.1-2.6l0,0c-0.1,0.3-0.3,0.5-0.7,0.3c0.1-0.4,0.4-0.3,0.7-0.3l0,0l0,0l2.5-62.6c-0.2,0.4-0.6,0.5-1,0.5
		c-0.2,0.9-0.9,1.3-1.3,1.9C6.1,55,5.8,54.6,5.7,54c0.2-0.6,0.6-0.9,1.1-1.2c0.3,0.3,0.6,0.5,0.9,0.8c0.2-0.5,0.6-0.5,1-0.5l0.1-2.5
		l-0.1,0.1c-0.3-0.4-0.1-0.8,0.2-1.1L9.1,45l0,0c-0.2-0.2-0.2-0.4,0-0.6l0,0l0.1-2.2c-0.3-0.1-0.4-0.3-0.3-0.5C9,41.4,9,41.1,9.2,41
		l0.1-0.1l0.8-19.4L5,12.9z M4.2,117.2c0.1,0.1,0.1,0.2,0.1,0.2C4.3,117.4,4.2,117.3,4.2,117.2c-0.1,0-0.2-0.1-0.2-0.1
		S4.1,117.1,4.2,117.2z M5.7,111.7c0.1,0.1,0.1,0.2,0.1,0.2C5.9,111.9,5.8,111.8,5.7,111.7c-0.1-0.1-0.2-0.2-0.2-0.1
		C5.5,111.5,5.6,111.6,5.7,111.7z M3.8,95.3l0.1-0.1v0.1H3.8z M6.3,108c0,0,0,0.1,0.1,0.2c-0.1,0-0.1,0-0.2,0
		c-0.2,0-0.3-0.2-0.1-0.3C6.2,107.9,6.3,107.9,6.3,108z M6.5,95.3c-0.1,0.2-0.3,0.3-0.5,0.1c-0.2-0.2-0.2-0.4,0-0.6
		C6.2,94.8,6.4,94.9,6.5,95.3z M5.7,92.8L5.7,92.8L5.7,92.8C6,93,6.2,93.2,6,93.6C5.7,93.4,5.8,93.1,5.7,92.8
		C5.7,92.9,5.7,92.8,5.7,92.8L5.7,92.8c-0.3-0.1-0.5-0.3-0.3-0.7C5.7,92.2,5.6,92.5,5.7,92.8z M4.4,90.9c0-0.1-0.1-0.3-0.1-0.4
		c0,0,0.1-0.2,0.1-0.1C4.6,90.5,4.6,90.7,4.4,90.9z M5.6,65.2c0,0-0.1,0.2-0.2,0.2c-0.2-0.2-0.2-0.4,0-0.6C5.5,64.9,5.6,65,5.6,65.2
		z M6.1,63.8c-0.4-0.5-0.4-0.8-0.2-1.2C6.3,63,6.1,63.3,6.1,63.8z M6.5,60.3c0.3,0.3,0.6,0.5,0.6,1c-0.1,0.1-0.3,0.3-0.3,0.3
		c-0.6-0.4-1.4,0.3-1.8-0.4c-0.2-0.4,0-0.6,0.4-1C5.8,60.6,6.2,60.4,6.5,60.3z M5.5,59.2L5.5,59.2L5.5,59.2L5.5,59.2z M2.6,58.4
		L2.6,58.4c-0.1,0.1-0.2,0.2-0.2,0.2C2.4,58.6,2.5,58.5,2.6,58.4L2.6,58.4c0.1-0.1,0.1-0.2,0.2-0.3C3.1,58.4,2.8,58.3,2.6,58.4z
		 M7,58.2c-0.2-0.2-0.2-0.4,0-0.6C7.2,57.8,7.2,58,7,58.2z M2.4,57.1L2.4,57.1L2.4,57.1L2.4,57.1z M1.2,47l0.2-0.1v0.2L1.2,47z
		 M3.1,49.5c0.1,0.1,0.1,0.1,0.1,0.2l0,0l0,0l0,0l0,0C3.2,49.6,3.2,49.6,3.1,49.5L3.1,49.5c-0.3,0-0.6,0.1-0.9-0.5
		c0.1-0.1,0.3-0.3,0.4-0.4C3.1,48.8,3.1,49.2,3.1,49.5L3.1,49.5z M4.5,48.8c0,0.1,0,0.2,0,0.2c0,0.1-0.1,0.1-0.2,0.1
		c0-0.1-0.1-0.1-0.1-0.2C4.3,48.7,4.4,48.7,4.5,48.8z M6,48.7H5.8H6L6,48.7z M7.1,48.1L7.1,48.1L6.9,48L7.1,48.1z M6.1,47
		C6,47.1,6,47.1,5.9,47.2c0-0.1-0.1-0.1-0.1-0.2s0.1-0.1,0.1-0.1C6,46.9,6.1,47,6.1,47z M7.1,45.9L7,46L7.1,45.9L7.1,45.9z
		 M6.5,42.5c-0.6,0.3-0.6,0.3-0.7-0.9C6.2,42.1,6.3,42.3,6.5,42.5z M7.7,40C7.7,40,7.8,40.1,7.7,40c0.1,0.1,0.2,0.2,0.2,0.2l0,0l0,0
		l0,0l0,0C7.9,40.2,7.8,40.1,7.7,40C7.7,40.1,7.7,40.1,7.7,40c-0.1-0.1-0.2-0.1-0.3-0.2C7.7,39.6,7.7,39.9,7.7,40z M3.3,40.5
		c-1.4-0.7-1.5-1.2-0.5-2.3C3.5,39.6,3.4,39.6,3.3,40.5z M3.3,30.7c-0.1,0.1-0.1,0.2-0.2,0.2c-0.1,0-0.3-0.1-0.4-0.2
		c0.1-0.1,0.2-0.2,0.3-0.2C3.1,30.4,3.2,30.6,3.3,30.7z M8,28.8c0,0.2-0.1,0.3-0.3,0.3v-0.2C7.8,28.9,7.8,28.8,8,28.8
		c0-0.2,0.1-0.3,0.2-0.4C8.5,28.8,8.2,28.8,8,28.8z M2.9,28.4C3,28.4,3,28.5,3,28.6c-0.1,0-0.1,0.1-0.2,0.1c-0.2,0-0.3-0.1-0.1-0.3
		C2.7,28.4,2.8,28.4,2.9,28.4z M2.1,28.3c0,0.1,0,0.2,0,0.2c-0.1,0-0.2,0.1-0.2,0c-0.3-0.1-0.2-0.2,0-0.3C1.9,28.2,2,28.3,2.1,28.3z
		 M4.1,28.1L4.1,28.1v-0.2V28.1z M4.7,25.7L4.7,25.7l-0.2-0.1L4.7,25.7z M4.6,17.7c0-0.1,0.1-0.3,0.1-0.4c0.1,0.1,0.2,0.2,0.2,0.3
		c0,0.1-0.1,0.2-0.2,0.3C4.7,17.9,4.6,17.8,4.6,17.7z M6.6,18.4c0.1,1.2,0.1,1.2-1,1.3C5.8,19.1,6.3,18.9,6.6,18.4z M3.5,19.6
		L3.5,19.6L3.5,19.6L3.5,19.6z M7.2,20.3c0-0.1,0.1-0.1,0.2-0.2c0,0.1,0.1,0.1,0.1,0.2s0,0.2-0.1,0.2C7.2,20.6,7.2,20.5,7.2,20.3z
		 M1.9,21c0-0.1,0.1-0.1,0.2-0.1c0,0.1,0.1,0.1,0.1,0.2s0,0.2-0.1,0.2C1.9,21.3,1.8,21.2,1.9,21z M0.6,22.6c-0.2-0.1-0.2-0.2,0-0.3
		c0.1,0,0.1,0,0.2,0.1c0,0.1,0,0.2,0,0.2C0.8,22.6,0.7,22.6,0.6,22.6z M8.3,22.8c-0.5,0.2-0.7-0.1-1.2-0.4C7.8,22.2,8.2,22,8.3,22.8
		z M4,22c-0.2,0.2-0.4,0-0.6-0.2c0-0.4,0.2-0.6,0.6-0.6C4.3,21.5,4.3,21.8,4,22z"/>
</g>
</svg>
