<?xml version="1.0" encoding="utf-8"?>
<!-- Generator: Adobe Illustrator 22.1.0, SVG Export Plug-In . SVG Version: 6.00 Build 0)  -->
<svg version="1.1" id="Layer_1" xmlns="http://www.w3.org/2000/svg" xmlns:xlink="http://www.w3.org/1999/xlink" x="0px" y="0px"
	 viewBox="0 0 10.1 145.2" style="enable-background:new 0 0 10.1 145.2;" xml:space="preserve">
<style type="text/css">
	.st0{fill:#EFEBEC;}
</style>
<g>
	<path class="st0" d="M9,142.5c0,0-0.1,0.1-0.2,0.1c0,0,0,0,0,0.1c-0.1,0.1-0.2,0.2-0.2,0.1c0,0,0.1-0.1,0.1-0.2l0,0
		c0-0.3,0.1-0.5,0.2-0.9C9,141.8,9,142,9,142.1c0.1-0.3,0.1-0.7,0.1-1.1c0-2.3-1.9-4.2-4.2-4.2s-4.2,1.9-4.2,4.2s1.9,4.2,4.2,4.2
		C6.9,145.1,8.4,144,9,142.5z M2.5,138.4c0.2-0.2,0.4-0.2,0.5,0C2.8,138.6,2.6,138.7,2.5,138.4z M3.2,138.5L3.2,138.5v0.1V138.5z
		 M8,140.6c0.2,0.2,0.3,0.4,0,0.6C7.8,141,7.7,140.8,8,140.6z"/>
	<path class="st0" d="M5.1,132.4l5-8.5l-0.1-1.6c-0.3,0-0.2-0.3-0.1-0.4l0.1-0.1L9.1,99.2L9,99.1l0,0c0,0,0,0,0-0.1
		c-0.1-0.1-0.2-0.1-0.3-0.2C9,98.5,9,98.8,9,99c0,0,0,0,0.1,0l0,0h0.1L8.4,81.9c-0.1,0-0.2,0.1-0.3,0.1c0.1-0.3,0.2-0.4,0.2-0.6
		L7.7,65.8c-0.1,0.1-0.3,0.1-0.5,0.2c-0.3-0.3-0.2-0.7-0.1-1c0.2-0.2,0.4-0.3,0.5-0.3L6.4,33.3c0,0.2-0.1,0.3-0.2,0.5
		c-0.3,0-0.4-0.1-0.6-0.4c0.1-0.3,0.2-0.6,0.3-0.9l0,0c0,0,0,0,0-0.1c-0.4-0.2-0.5-0.6-0.5-1.1l0,0l0,0c-0.1,0-0.3,0-0.4,0
		c-0.3-0.1-0.6-0.3-0.3-0.7c0.4,0,0.6,0.4,0.8,0.8l0,0l0,0C6,31.6,5.9,32,6,32.5l0,0l0,0c0.3,0.2,0.4,0.4,0.5,0.6l-0.8-17l0,0l0,0
		l-0.6-16L4.7,10.5h0.1l-0.1,0.1L4,26.8c0-0.1,0.1-0.1,0.2-0.2c0,0.2,0.1,0.3,0.1,0.5c0,0-0.2,0.2-0.2,0.1C4,27.1,4,27.1,4,27
		l-0.1,2.6l0,0c0.1-0.3,0.3-0.5,0.7-0.3c-0.1,0.4-0.4,0.3-0.7,0.3l0,0l0,0L1.4,92.2c0.2-0.4,0.6-0.5,1-0.5c0.2-0.9,0.9-1.3,1.3-1.9
		c0.3,0.5,0.6,0.9,0.7,1.5c-0.2,0.6-0.6,0.9-1.1,1.2C3,92.2,2.7,92,2.4,91.7c-0.2,0.5-0.6,0.5-1,0.5l-0.1,2.5l0.1-0.1
		c0.3,0.4,0.1,0.8-0.2,1.1L1,100.3l0,0c0.2,0.2,0.2,0.4,0,0.6l0,0l-0.1,2.2c0.3,0.1,0.4,0.3,0.3,0.5c-0.1,0.3-0.1,0.6-0.3,0.7
		l-0.1,0.1L0,123.8L5.1,132.4z M5.9,28.1c-0.1-0.1-0.1-0.2-0.1-0.2C5.8,27.9,5.9,28,5.9,28.1c0.1,0,0.2,0.1,0.2,0.1S6,28.2,5.9,28.1
		z M4.4,33.6c-0.1-0.1-0.1-0.2-0.1-0.2C4.2,33.4,4.3,33.5,4.4,33.6c0.1,0.1,0.2,0.2,0.2,0.1C4.6,33.8,4.5,33.7,4.4,33.6z M6.3,50
		L6.3,50L6.3,50L6.3,50z M3.8,37.3c0,0,0-0.1-0.1-0.2c0.1,0,0.1,0,0.2,0c0.2,0,0.3,0.2,0.1,0.3C3.9,37.4,3.8,37.4,3.8,37.3z M3.6,50
		c0.1-0.2,0.3-0.3,0.5-0.1c0.2,0.2,0.2,0.4,0,0.6C3.9,50.5,3.7,50.4,3.6,50z M4.4,52.5L4.4,52.5L4.4,52.5c-0.3-0.2-0.5-0.4-0.3-0.8
		C4.4,51.9,4.3,52.2,4.4,52.5C4.4,52.4,4.4,52.5,4.4,52.5L4.4,52.5c0.3,0.1,0.5,0.3,0.3,0.7C4.4,53.1,4.5,52.8,4.4,52.5z M5.7,54.4
		c0,0.1,0.1,0.3,0.1,0.4c0,0-0.1,0.2-0.1,0.1C5.5,54.8,5.5,54.6,5.7,54.4z M4.5,80.1c0,0,0.1-0.2,0.2-0.2c0.2,0.2,0.2,0.4,0,0.6
		C4.6,80.4,4.5,80.3,4.5,80.1z M4,81.5c0.4,0.5,0.4,0.8,0.2,1.2C3.8,82.3,4,82,4,81.5z M3.6,85C3.3,84.7,3,84.5,3,84
		c0.1-0.1,0.3-0.3,0.3-0.3c0.6,0.4,1.4-0.3,1.8,0.4c0.2,0.4,0,0.6-0.4,1C4.3,84.7,3.9,84.9,3.6,85z M4.6,86.1L4.6,86.1L4.6,86.1
		L4.6,86.1z M7.5,86.9L7.5,86.9c0.1-0.1,0.2-0.2,0.2-0.2C7.7,86.7,7.6,86.8,7.5,86.9L7.5,86.9c-0.1,0.1-0.1,0.2-0.2,0.3
		C7,86.9,7.3,87,7.5,86.9z M3.1,87.1c0.2,0.2,0.2,0.4,0,0.6C2.9,87.5,2.9,87.3,3.1,87.1z M7.7,88.2L7.7,88.2L7.7,88.2L7.7,88.2z
		 M8.9,98.3l-0.2,0.1v-0.2L8.9,98.3z M7,95.8c-0.1-0.1-0.1-0.1-0.1-0.2l0,0l0,0l0,0l0,0C6.9,95.7,6.9,95.7,7,95.8L7,95.8
		c0.3,0,0.6-0.1,0.9,0.5c-0.1,0.1-0.3,0.3-0.4,0.4C7,96.5,7,96.1,7,95.8L7,95.8z M5.6,96.5c0-0.1,0-0.2,0-0.2c0-0.1,0.1-0.1,0.2-0.1
		c0,0.1,0.1,0.1,0.1,0.2C5.8,96.6,5.7,96.6,5.6,96.5z M4.1,96.6h0.2H4.1L4.1,96.6z M3,97.2L3,97.2l0.2,0.1L3,97.2z M4,98.3
		c0.1-0.1,0.1-0.1,0.2-0.2c0,0.1,0.1,0.1,0.1,0.2s-0.1,0.1-0.1,0.1C4.1,98.4,4,98.3,4,98.3z M3,99.4l0.1-0.1L3,99.4L3,99.4z
		 M3.6,102.8c0.6-0.3,0.6-0.3,0.7,0.9C3.9,103.2,3.8,103,3.6,102.8z M2.4,105.3C2.4,105.3,2.3,105.2,2.4,105.3
		c-0.1-0.1-0.2-0.2-0.2-0.2l0,0l0,0l0,0l0,0C2.2,105.1,2.3,105.2,2.4,105.3C2.4,105.2,2.4,105.2,2.4,105.3c0.1,0.1,0.2,0.1,0.3,0.2
		C2.4,105.7,2.4,105.4,2.4,105.3z M6.8,104.8c1.4,0.7,1.5,1.2,0.5,2.3C6.6,105.7,6.7,105.7,6.8,104.8z M6.8,114.6
		c0.1-0.1,0.1-0.2,0.2-0.2s0.3,0.1,0.4,0.2c-0.1,0.1-0.2,0.2-0.3,0.2C7,114.9,6.9,114.7,6.8,114.6z M2.1,116.5
		c0-0.2,0.1-0.3,0.3-0.3v0.2C2.3,116.4,2.3,116.5,2.1,116.5c0,0.2-0.1,0.3-0.2,0.4C1.6,116.5,1.9,116.5,2.1,116.5z M7.2,116.9
		c-0.1,0-0.1-0.1-0.1-0.2c0.1,0,0.1-0.1,0.2-0.1c0.2,0,0.3,0.1,0.1,0.3C7.4,116.9,7.3,116.9,7.2,116.9z M8,117c0-0.1,0-0.2,0-0.2
		c0.1,0,0.2-0.1,0.2,0c0.3,0.1,0.2,0.2,0,0.3C8.2,117.1,8.1,117,8,117z M6,117.2L6,117.2v0.2V117.2z M5.4,119.6L5.4,119.6l0.2,0.1
		L5.4,119.6z M5.5,127.6c0,0.1-0.1,0.3-0.1,0.4c-0.1-0.1-0.2-0.2-0.2-0.3c0-0.1,0.1-0.2,0.2-0.3C5.4,127.4,5.5,127.5,5.5,127.6z
		 M3.5,126.9c-0.1-1.2-0.1-1.2,1-1.3C4.3,126.2,3.8,126.4,3.5,126.9z M6.6,125.7L6.6,125.7L6.6,125.7L6.6,125.7z M2.9,125
		c0,0.1-0.1,0.1-0.2,0.2c0-0.1-0.1-0.1-0.1-0.2s0-0.2,0.1-0.2C2.9,124.7,2.9,124.8,2.9,125z M8.2,124.3c0,0.1-0.1,0.1-0.2,0.1
		c0-0.1-0.1-0.1-0.1-0.2s0-0.2,0.1-0.2C8.2,124,8.3,124.1,8.2,124.3z M9.5,122.7c0.2,0.1,0.2,0.2,0,0.3c-0.1,0-0.1,0-0.2-0.1
		c0-0.1,0-0.2,0-0.2C9.3,122.7,9.4,122.7,9.5,122.7z M1.8,122.5c0.5-0.2,0.7,0.1,1.2,0.4C2.3,123.1,1.9,123.3,1.8,122.5z M6.1,123.3
		c0.2-0.2,0.4,0,0.6,0.2c0,0.4-0.2,0.6-0.6,0.6C5.8,123.8,5.8,123.5,6.1,123.3z"/>
</g>
</svg>
