<?xml version="1.0" encoding="utf-8"?>
<!-- Generator: Adobe Illustrator 22.1.0, SVG Export Plug-In . SVG Version: 6.00 Build 0)  -->
<svg version="1.1" id="Layer_1" xmlns="http://www.w3.org/2000/svg" xmlns:xlink="http://www.w3.org/1999/xlink" x="0px" y="0px"
	 viewBox="0 0 145 10" style="enable-background:new 0 0 145 10;" xml:space="preserve">
<style type="text/css">
	.st0{fill:#F83B3F;}
</style>
<g>
	<path class="st0" d="M142.4,1.1c0,0,0.1,0.1,0.1,0.2c0,0,0,0,0.1,0c0.1,0.1,0.2,0.2,0.1,0.2c0,0-0.1-0.1-0.2-0.1c0,0,0,0,0,0
		c-0.3,0-0.5-0.1-0.9-0.2c0.1-0.1,0.3-0.1,0.4-0.1c-0.3-0.1-0.7-0.1-1.1-0.1c-2.3,0-4.2,1.9-4.2,4.2s1.9,4.2,4.2,4.2
		c2.3,0,4.2-1.9,4.2-4.2C145,3.2,143.9,1.7,142.4,1.1z M138.3,7.6c-0.2-0.2-0.2-0.4,0-0.5C138.5,7.3,138.6,7.5,138.3,7.6z
		 M138.4,6.9l0-0.1l0.1,0.1L138.4,6.9z M140.5,2.1c0.2-0.2,0.4-0.3,0.6,0C140.9,2.3,140.7,2.4,140.5,2.1z"/>
	<path class="st0" d="M132.3,5l-8.5-5l-1.6,0.1c0,0.3-0.3,0.2-0.4,0.1c0,0-0.1-0.1-0.1-0.1L99.1,1C99.1,1,99,1.1,99,1.1c0,0,0,0,0,0
		c0,0,0,0-0.1,0c-0.1,0.1-0.1,0.2-0.2,0.3c-0.3-0.3,0-0.3,0.2-0.3c0,0,0,0,0-0.1c0,0,0,0,0,0c0,0,0-0.1,0-0.1L81.8,1.7
		c0,0.1,0.1,0.2,0.1,0.3c-0.3-0.1-0.4-0.2-0.6-0.2L65.7,2.4c0.1,0.1,0.1,0.3,0.2,0.5c-0.3,0.3-0.7,0.2-1,0.1
		c-0.2-0.2-0.3-0.4-0.3-0.5L33.2,3.7c0.2,0,0.3,0.1,0.5,0.2c0,0.3-0.1,0.4-0.4,0.6c-0.3-0.1-0.6-0.2-0.9-0.3c0,0,0,0,0,0
		c0,0,0,0-0.1,0c-0.2,0.4-0.6,0.5-1.1,0.5c0,0,0,0,0,0c0,0,0,0,0,0c0,0.1,0,0.3,0,0.4c-0.1,0.3-0.3,0.6-0.7,0.3
		c0-0.4,0.4-0.6,0.8-0.8c0,0,0,0,0,0c0,0,0,0,0,0c0.2-0.5,0.6-0.4,1.1-0.5c0,0,0,0,0,0c0,0,0,0,0,0c0.2-0.3,0.4-0.4,0.6-0.5L16,4.4
		c0,0,0,0,0,0c0,0,0,0,0,0L0,5l10.4,0.4l0-0.1l0.1,0.1l16.2,0.7c-0.1,0-0.1-0.1-0.2-0.2c0.2,0,0.3-0.1,0.5-0.1c0,0,0.2,0.2,0.1,0.2
		c-0.1,0.1-0.1,0.1-0.2,0.1l2.6,0.1c0,0,0,0,0,0c-0.3-0.1-0.5-0.3-0.3-0.7c0.4,0.1,0.3,0.4,0.3,0.7c0,0,0,0,0,0c0,0,0,0,0,0
		l62.6,2.5c-0.4-0.2-0.5-0.6-0.5-1c-0.9-0.2-1.3-0.9-1.9-1.3c0.5-0.3,0.9-0.6,1.5-0.7c0.6,0.2,0.9,0.6,1.2,1.1
		c-0.3,0.3-0.5,0.6-0.8,0.9c0.5,0.2,0.5,0.6,0.5,1l2.5,0.1c0,0-0.1-0.1-0.1-0.1c0.4-0.3,0.8-0.1,1.1,0.2l4.6,0.2c0,0,0,0,0,0
		c0.2-0.2,0.4-0.2,0.6,0c0,0,0,0,0,0l2.2,0.1c0.1-0.3,0.3-0.4,0.5-0.3c0.3,0.1,0.6,0.1,0.7,0.3c0,0,0.1,0.1,0.1,0.1l19.4,0.8
		L132.3,5z M28,4.2c-0.1,0.1-0.2,0.1-0.2,0.1C27.8,4.3,27.9,4.2,28,4.2C28,4.1,28.1,4,28.1,4C28.1,4,28.1,4.1,28,4.2z M33.5,5.7
		c-0.1,0.1-0.2,0.1-0.2,0.1C33.3,5.9,33.4,5.8,33.5,5.7c0.1-0.1,0.2-0.2,0.1-0.2C33.7,5.5,33.6,5.6,33.5,5.7z M49.9,3.8L50,3.9
		l-0.1,0L49.9,3.8z M37.2,6.3c0,0-0.1,0-0.2,0.1C37,6.3,37,6.3,37,6.2C37,6,37.2,5.9,37.3,6.1C37.3,6.2,37.3,6.3,37.2,6.3z
		 M49.9,6.5c-0.2-0.1-0.3-0.3-0.1-0.5c0.2-0.2,0.4-0.2,0.6,0C50.4,6.2,50.3,6.4,49.9,6.5z M52.4,5.7C52.4,5.7,52.4,5.7,52.4,5.7
		C52.4,5.7,52.4,5.7,52.4,5.7C52.2,6,52,6.2,51.6,6C51.8,5.7,52.1,5.8,52.4,5.7C52.3,5.7,52.4,5.7,52.4,5.7
		C52.4,5.7,52.4,5.7,52.4,5.7c0.1-0.3,0.3-0.5,0.7-0.3C53,5.7,52.7,5.6,52.4,5.7z M54.3,4.4c0.1,0,0.3-0.1,0.4-0.1
		c0,0,0.2,0.1,0.1,0.1C54.7,4.6,54.5,4.6,54.3,4.4z M80,5.6c0,0-0.2-0.1-0.2-0.2c0.2-0.2,0.4-0.2,0.6,0C80.3,5.5,80.2,5.6,80,5.6z
		 M81.4,6.1c0.5-0.4,0.8-0.4,1.2-0.2C82.2,6.3,81.9,6.1,81.4,6.1z M84.9,6.5c-0.3,0.3-0.5,0.6-1,0.6c-0.1-0.1-0.3-0.3-0.3-0.3
		C84,6.2,83.3,5.4,84,5c0.4-0.2,0.6,0,1,0.4C84.6,5.8,84.8,6.2,84.9,6.5z M86,5.5l-0.1-0.1L86,5.4L86,5.5z M86.8,2.6
		C86.8,2.6,86.8,2.6,86.8,2.6c-0.1-0.1-0.2-0.2-0.2-0.2C86.6,2.4,86.7,2.5,86.8,2.6C86.8,2.6,86.8,2.6,86.8,2.6
		c0.1,0.1,0.2,0.1,0.3,0.2C86.8,3.1,86.9,2.8,86.8,2.6z M87,7c0.2-0.2,0.4-0.2,0.6,0C87.4,7.2,87.2,7.2,87,7z M88.1,2.4l0-0.1
		l0.1,0.1L88.1,2.4z M98.2,1.2l0.1,0.2l-0.2,0L98.2,1.2z M95.7,3.1c-0.1,0.1-0.1,0.1-0.2,0.1c0,0,0,0,0,0c0,0,0,0,0,0c0,0,0,0,0,0
		c0,0,0,0,0,0C95.6,3.2,95.6,3.2,95.7,3.1C95.7,3.1,95.7,3.1,95.7,3.1c0-0.3-0.1-0.6,0.5-0.9c0.1,0.1,0.3,0.3,0.4,0.4
		C96.4,3.1,96,3.1,95.7,3.1C95.7,3.1,95.7,3.1,95.7,3.1z M96.4,4.5c-0.1,0-0.2,0-0.2,0c-0.1,0-0.1-0.1-0.1-0.2
		c0.1,0,0.1-0.1,0.2-0.1C96.5,4.3,96.5,4.4,96.4,4.5z M96.5,6l0-0.2L96.6,6L96.5,6z M97.1,7.1L97,7l0.2-0.1L97.1,7.1z M98.2,6.1
		C98.1,6,98.1,6,98,5.9c0.1,0,0.1-0.1,0.2-0.1c0.1,0,0.1,0.1,0.1,0.1C98.3,6,98.2,6.1,98.2,6.1z M99.3,7.1L99.2,7l0.1,0L99.3,7.1z
		 M102.7,6.5c-0.3-0.6-0.3-0.6,0.9-0.7C103.1,6.2,102.9,6.3,102.7,6.5z M105.2,7.7C105.2,7.7,105.1,7.8,105.2,7.7
		c-0.1,0.1-0.2,0.2-0.2,0.2c0,0,0,0,0,0c0,0,0,0,0,0c0,0,0,0,0,0c0,0,0,0,0,0C105,7.9,105.1,7.8,105.2,7.7
		C105.1,7.7,105.1,7.7,105.2,7.7c0.1-0.1,0.1-0.2,0.2-0.3C105.6,7.7,105.3,7.7,105.2,7.7z M104.7,3.3c0.7-1.4,1.2-1.5,2.3-0.5
		C105.6,3.5,105.6,3.4,104.7,3.3z M114.5,3.3c-0.1-0.1-0.2-0.1-0.2-0.2c0-0.1,0.1-0.3,0.2-0.4c0.1,0.1,0.2,0.2,0.2,0.3
		C114.8,3.1,114.6,3.2,114.5,3.3z M116.4,8c-0.2,0-0.3-0.1-0.3-0.3c0,0,0.2,0,0.2,0C116.3,7.8,116.4,7.8,116.4,8
		c0.2,0,0.3,0.1,0.4,0.2C116.4,8.5,116.4,8.2,116.4,8z M116.8,2.9c0,0.1-0.1,0.1-0.2,0.1c0-0.1-0.1-0.1-0.1-0.2
		c0-0.2,0.1-0.3,0.3-0.1C116.8,2.7,116.8,2.8,116.8,2.9z M116.9,2.1c-0.1,0-0.2,0-0.2,0c0-0.1-0.1-0.2,0-0.2c0.1-0.3,0.2-0.2,0.3,0
		C117,1.9,116.9,2,116.9,2.1z M117.1,4.1l0.1-0.1l0.1,0.1L117.1,4.1z M119.5,4.7l-0.1-0.1l0.2-0.1L119.5,4.7z M127.5,4.6
		c0.1,0,0.3,0.1,0.4,0.1c-0.1,0.1-0.2,0.2-0.3,0.2c-0.1,0-0.2-0.1-0.3-0.2C127.3,4.7,127.4,4.6,127.5,4.6z M126.8,6.6
		c-1.2,0.1-1.2,0.1-1.3-1C126.1,5.8,126.3,6.3,126.8,6.6z M125.6,3.5l0,0.1l-0.1-0.1L125.6,3.5z M124.9,7.2c0.1,0,0.1,0.1,0.2,0.2
		c-0.1,0-0.1,0.1-0.2,0.1c-0.1,0-0.2,0-0.2-0.1C124.6,7.2,124.7,7.2,124.9,7.2z M124.2,1.9c0.1,0,0.1,0.1,0.1,0.2
		c-0.1,0-0.1,0.1-0.2,0.1c-0.1,0-0.2,0-0.2-0.1C123.9,1.9,124,1.8,124.2,1.9z M122.6,0.6c0.1-0.2,0.2-0.2,0.3,0c0,0.1,0,0.1-0.1,0.2
		c-0.1,0-0.2,0-0.2,0C122.6,0.8,122.6,0.7,122.6,0.6z M122.4,8.3c-0.2-0.5,0.1-0.7,0.4-1.2C123,7.8,123.2,8.2,122.4,8.3z M123.2,4
		c-0.2-0.2,0-0.4,0.2-0.6c0.4,0,0.6,0.2,0.6,0.6C123.7,4.3,123.4,4.3,123.2,4z"/>
</g>
</svg>
