<?xml version="1.0" encoding="utf-8"?>
<!-- Generator: Adobe Illustrator 22.1.0, SVG Export Plug-In . SVG Version: 6.00 Build 0)  -->
<svg version="1.1" id="Layer_1" xmlns="http://www.w3.org/2000/svg" xmlns:xlink="http://www.w3.org/1999/xlink" x="0px" y="0px"
	 viewBox="0 0 145 10" style="enable-background:new 0 0 145 10;" xml:space="preserve">
<style type="text/css">
	.st0{fill:#F83B3F;}
</style>
<g>
	<path class="st0" d="M2.6,8.9c0,0-0.1-0.1-0.1-0.2c0,0,0,0-0.1,0C2.4,8.6,2.3,8.5,2.3,8.6c0,0,0.1,0.1,0.2,0.1c0,0,0,0,0,0
		c0.3,0,0.5,0.1,0.9,0.2C3.3,9,3.2,9,3.1,9c0.3,0.1,0.7,0.1,1.1,0.1c2.3,0,4.2-1.9,4.2-4.2S6.5,0.8,4.2,0.8C1.9,0.8,0,2.7,0,5
		C0,6.8,1.1,8.3,2.6,8.9z M6.7,2.4c0.2,0.2,0.2,0.4,0,0.5C6.5,2.7,6.4,2.5,6.7,2.4z M6.6,3.1l0,0.1L6.5,3.2L6.6,3.1z M4.5,7.9
		c-0.2,0.2-0.4,0.3-0.6,0C4.1,7.7,4.3,7.7,4.5,7.9z"/>
	<path class="st0" d="M12.7,5l8.5,5l1.6-0.1c0-0.3,0.3-0.2,0.4-0.1c0,0,0.1,0.1,0.1,0.1L45.9,9C45.9,9,46,9,46,8.9c0,0,0,0,0,0
		c0,0,0,0,0.1,0c0.1-0.1,0.1-0.2,0.2-0.3c0.3,0.3,0,0.3-0.2,0.3c0,0,0,0,0,0.1c0,0,0,0,0,0C46,9,46,9,46,9l17.1-0.7
		c0-0.1-0.1-0.2-0.1-0.3c0.3,0.1,0.4,0.2,0.6,0.2l15.6-0.6c-0.1-0.1-0.1-0.3-0.2-0.5c0.3-0.3,0.7-0.2,1-0.1c0.2,0.2,0.3,0.4,0.3,0.5
		l31.4-1.3c-0.2,0-0.3-0.1-0.5-0.2c0-0.3,0.1-0.4,0.4-0.6c0.3,0.1,0.6,0.2,0.9,0.3c0,0,0,0,0,0c0,0,0,0,0.1,0
		c0.2-0.4,0.6-0.5,1.1-0.5c0,0,0,0,0,0c0,0,0,0,0,0c0-0.1,0-0.3,0-0.4c0.1-0.3,0.3-0.6,0.7-0.3c0,0.4-0.4,0.6-0.8,0.8c0,0,0,0,0,0
		c0,0,0,0,0,0c-0.2,0.5-0.6,0.4-1.1,0.5c0,0,0,0,0,0c0,0,0,0,0,0c-0.2,0.3-0.4,0.4-0.6,0.5l17-0.7c0,0,0,0,0,0c0,0,0,0,0,0L145,5
		l-10.4-0.4l0,0.1l-0.1-0.1l-16.2-0.7c0.1,0,0.1,0.1,0.2,0.2c-0.2,0-0.3,0.1-0.5,0.1c0,0-0.2-0.2-0.1-0.2c0.1-0.1,0.1-0.1,0.2-0.1
		l-2.6-0.1c0,0,0,0,0,0c0.3,0.1,0.5,0.3,0.3,0.7c-0.4-0.1-0.3-0.4-0.3-0.7c0,0,0,0,0,0c0,0,0,0,0,0L52.7,1.3c0.4,0.2,0.5,0.6,0.5,1
		c0.9,0.2,1.3,0.9,1.9,1.3c-0.5,0.3-0.9,0.6-1.5,0.7c-0.6-0.2-0.9-0.6-1.2-1.1c0.3-0.3,0.5-0.6,0.8-0.9c-0.5-0.2-0.5-0.6-0.5-1
		l-2.5-0.1c0,0,0.1,0.1,0.1,0.1c-0.4,0.3-0.8,0.1-1.1-0.2l-4.6-0.2c0,0,0,0,0,0c-0.2,0.2-0.4,0.2-0.6,0c0,0,0,0,0,0l-2.2-0.1
		c-0.1,0.3-0.3,0.4-0.5,0.3c-0.3-0.1-0.6-0.1-0.7-0.3c0,0-0.1-0.1-0.1-0.1L21.2,0L12.7,5z M117,5.9c0.1-0.1,0.2-0.1,0.2-0.1
		C117.2,5.7,117.1,5.8,117,5.9C117,6,116.9,6,116.9,6C116.9,6,116.9,5.9,117,5.9z M111.5,4.3c0.1-0.1,0.2-0.1,0.2-0.1
		C111.7,4.2,111.6,4.3,111.5,4.3c-0.1,0.1-0.2,0.2-0.1,0.2C111.3,4.5,111.4,4.4,111.5,4.3z M95.1,6.2L95,6.1l0.1,0L95.1,6.2z
		 M107.8,3.7c0,0,0.1,0,0.2-0.1c0,0.1,0.1,0.1,0.1,0.2c-0.1,0.2-0.2,0.3-0.3,0.1C107.7,3.8,107.7,3.7,107.8,3.7z M95.1,3.6
		c0.2,0.1,0.3,0.3,0.1,0.5c-0.2,0.2-0.4,0.2-0.6,0C94.6,3.8,94.7,3.6,95.1,3.6z M92.6,4.3C92.6,4.3,92.6,4.3,92.6,4.3
		C92.6,4.3,92.6,4.3,92.6,4.3C92.8,4,93,3.8,93.4,4C93.2,4.4,92.9,4.2,92.6,4.3C92.7,4.3,92.6,4.3,92.6,4.3
		C92.6,4.3,92.6,4.3,92.6,4.3c-0.1,0.3-0.3,0.5-0.7,0.3C92,4.3,92.3,4.4,92.6,4.3z M90.7,5.6c-0.1,0-0.3,0.1-0.4,0.1
		c0,0-0.2-0.1-0.1-0.1C90.3,5.4,90.5,5.4,90.7,5.6z M65,4.4c0,0,0.2,0.1,0.2,0.2c-0.2,0.2-0.4,0.2-0.6,0C64.7,4.5,64.8,4.5,65,4.4z
		 M63.6,3.9c-0.5,0.4-0.8,0.4-1.2,0.2C62.8,3.7,63.1,3.9,63.6,3.9z M60.1,3.5c0.3-0.3,0.5-0.6,1-0.6c0.1,0.1,0.3,0.3,0.3,0.3
		C61,3.8,61.7,4.6,61,5c-0.4,0.2-0.6,0-1-0.4C60.4,4.2,60.2,3.8,60.1,3.5z M59,4.5l0.1,0.1L59,4.6L59,4.5z M58.2,7.4
		C58.2,7.4,58.2,7.4,58.2,7.4c0.1,0.1,0.2,0.2,0.2,0.2C58.4,7.6,58.3,7.5,58.2,7.4C58.2,7.4,58.2,7.4,58.2,7.4
		c-0.1-0.1-0.2-0.1-0.3-0.2C58.2,7,58.1,7.2,58.2,7.4z M58,3c-0.2,0.2-0.4,0.2-0.6,0C57.6,2.8,57.8,2.8,58,3z M56.9,7.6l0,0.1
		l-0.1-0.1L56.9,7.6z M46.8,8.8l-0.1-0.2l0.2,0L46.8,8.8z M49.3,6.9c0.1-0.1,0.1-0.1,0.2-0.1c0,0,0,0,0,0c0,0,0,0,0,0c0,0,0,0,0,0
		c0,0,0,0,0,0C49.4,6.8,49.4,6.9,49.3,6.9C49.3,6.9,49.3,6.9,49.3,6.9c0,0.3,0.1,0.6-0.5,0.9c-0.1-0.1-0.3-0.3-0.4-0.4
		C48.6,6.9,49,6.9,49.3,6.9C49.3,6.9,49.3,6.9,49.3,6.9z M48.6,5.5c0.1,0,0.2,0,0.2,0c0.1,0,0.1,0.1,0.1,0.2c-0.1,0-0.1,0.1-0.2,0.1
		C48.5,5.7,48.5,5.6,48.6,5.5z M48.5,4l0,0.2l-0.2-0.1L48.5,4z M47.9,2.9L48,3l-0.2,0.1L47.9,2.9z M46.8,3.9C46.9,4,46.9,4,47,4.1
		c-0.1,0-0.1,0.1-0.2,0.1c-0.1,0-0.1-0.1-0.1-0.1C46.7,4,46.8,4,46.8,3.9z M45.7,3L45.8,3l-0.1,0L45.7,3z M42.3,3.5
		c0.3,0.6,0.3,0.6-0.9,0.7C41.9,3.8,42.1,3.7,42.3,3.5z M39.8,2.3C39.8,2.3,39.9,2.3,39.8,2.3C39.9,2.2,40,2.1,40,2.1c0,0,0,0,0,0
		c0,0,0,0,0,0c0,0,0,0,0,0c0,0,0,0,0,0C40,2.1,39.9,2.2,39.8,2.3C39.9,2.3,39.9,2.3,39.8,2.3c-0.1,0.1-0.1,0.2-0.2,0.3
		C39.4,2.3,39.7,2.3,39.8,2.3z M40.3,6.8c-0.7,1.4-1.2,1.5-2.3,0.5C39.4,6.5,39.4,6.6,40.3,6.8z M30.5,6.8c0.1,0.1,0.2,0.1,0.2,0.2
		c0,0.1-0.1,0.3-0.2,0.4c-0.1-0.1-0.2-0.2-0.2-0.3C30.2,7,30.4,6.9,30.5,6.8z M28.6,2.1c0.2,0,0.3,0.1,0.3,0.3c0,0-0.2,0-0.2,0
		C28.7,2.3,28.6,2.2,28.6,2.1c-0.2,0-0.3-0.1-0.4-0.2C28.6,1.5,28.6,1.9,28.6,2.1z M28.2,7.1c0-0.1,0.1-0.1,0.2-0.1
		c0,0.1,0.1,0.1,0.1,0.2c0,0.2-0.1,0.3-0.3,0.1C28.2,7.3,28.2,7.2,28.2,7.1z M28.1,7.9c0.1,0,0.2,0,0.2,0c0,0.1,0.1,0.2,0,0.2
		c-0.1,0.3-0.2,0.2-0.3,0C28,8.1,28.1,8,28.1,7.9z M27.9,5.9L27.8,6l-0.1-0.1L27.9,5.9z M25.5,5.4l0.1,0.1l-0.2,0.1L25.5,5.4z
		 M17.5,5.5c-0.1,0-0.3-0.1-0.4-0.1c0.1-0.1,0.2-0.2,0.3-0.2c0.1,0,0.2,0.1,0.3,0.2C17.7,5.4,17.6,5.5,17.5,5.5z M18.2,3.4
		c1.2-0.1,1.2-0.1,1.3,1C18.9,4.3,18.7,3.7,18.2,3.4z M19.4,6.5l0-0.1l0.1,0.1L19.4,6.5z M20.1,2.8c-0.1,0-0.1-0.1-0.2-0.2
		c0.1,0,0.1-0.1,0.2-0.1c0.1,0,0.2,0,0.2,0.1C20.4,2.8,20.3,2.9,20.1,2.8z M20.8,8.2c-0.1,0-0.1-0.1-0.1-0.2c0.1,0,0.1-0.1,0.2-0.1
		c0.1,0,0.2,0,0.2,0.1C21.1,8.1,21,8.2,20.8,8.2z M22.4,9.4c-0.1,0.2-0.2,0.2-0.3,0c0-0.1,0-0.1,0.1-0.2c0.1,0,0.2,0,0.2,0
		C22.4,9.2,22.4,9.3,22.4,9.4z M22.6,1.7c0.2,0.5-0.1,0.7-0.4,1.2C22,2.3,21.8,1.8,22.6,1.7z M21.8,6.1c0.2,0.2,0,0.4-0.2,0.6
		c-0.4,0-0.6-0.2-0.6-0.6C21.3,5.8,21.6,5.7,21.8,6.1z"/>
</g>
</svg>
