<?xml version="1.0" encoding="utf-8"?>
<!-- Generator: Adobe Illustrator 22.1.0, SVG Export Plug-In . SVG Version: 6.00 Build 0)  -->
<svg version="1.1" id="Layer_1" xmlns="http://www.w3.org/2000/svg" xmlns:xlink="http://www.w3.org/1999/xlink" x="0px" y="0px"
	 viewBox="0 0 941.3 76.9" style="enable-background:new 0 0 941.3 76.9;" xml:space="preserve">
<style type="text/css">
	.st0{fill:#FCB744;}
</style>
<g>
	<path class="st0" d="M-158,50.6C-166.9,50.5-160.3,51.3-158,50.6L-158,50.6z"/>
	<path class="st0" d="M-140.3,78.3c3-0.3,7.6,0.3,9.4-0.3C-135,77.7-138.4,77.4-140.3,78.3z"/>
	<path class="st0" d="M-85.3,79c2.4,0,2.4-0.2,4.4,0C-80.5,78.3-85.1,78.8-85.3,79z"/>
	<path class="st0" d="M-60.4,82.1c-3,0.3-4.6-0.6-5.7-0.3C-65.3,82.1-61.8,82.6-60.4,82.1z"/>
	<path class="st0" d="M-56.6,81.8c-0.2,0.3-2.4,0.2-2.5,0.5c1.4,0,2.4,0,3.1,0.2C-56,82.1-55.7,81.8-56.6,81.8z"/>
	<path class="st0" d="M-58.7,78c1.3,1.3,7.9,0.8,10.2,0.3C-52.5,78.3-56.3,78.7-58.7,78z"/>
	<path class="st0" d="M-50.8,113c-0.5-0.2-3.1-0.3-2.5,0.2C-53,113.4-45,113-50.8,113z"/>
	<path class="st0" d="M199.9,19.3c1.7,0,4.4,0.2,4.4-0.3C202.9,19.2,199.4,18.7,199.9,19.3z"/>
	<path class="st0" d="M454.2,103c1.6-0.2,4.6,0.2,5-0.2C457.5,102.7,455,102.6,454.2,103z"/>
	<path class="st0" d="M469.3,103.2c1.4,0.5,2.5,0.2,3.8-0.2C472.3,102.4,471.2,103,469.3,103.2z"/>
	<path class="st0" d="M474.5,103.8c1.3,0,1.4,0.2,2.5,0.2c0.3-0.5-1.6-0.5-2.5-0.6C474.5,103.5,474.5,103.7,474.5,103.8z"/>
	<path class="st0" d="M487.7,102.7c1.9-0.2,1.9,0.3,3.8,0.2c0-0.2,0-0.3,0-0.5C489.9,102.9,487.9,102.1,487.7,102.7z"/>
	<path class="st0" d="M493.9,100.4c1.4,0.8-5,0.3-3.1,0.6C493.7,101.2,497,100.7,493.9,100.4z"/>
	<path class="st0" d="M499.2,103.2C499.5,103.2,500,103.4,499.2,103.2c-0.5,0.2-1.3,0.2-1.3,0.3c1.9,0,4.2,0,3.8-0.5
		C500.8,103,499.4,103,499.2,103.2z"/>
	<path class="st0" d="M506.6,100.2c0,0.2,0,0.5,0,0.6c1.6-0.2,4.4,0,4.4-0.5C509.3,100.4,507.4,100.4,506.6,100.2z"/>
	<path class="st0" d="M529,103.5c-2.2,0.2-4.2,0.5-6.3,0.6C525.8,104.3,528.2,104.1,529,103.5z"/>
	<path class="st0" d="M587.8,103.4c1.9,0.5-2,0.3-1.9-0.2c0,0.2,0,0.5,0,0.6c2.2,0,4.1,0,5-0.3C589.4,103.7,588.8,102.9,587.8,103.4
		z"/>
	<path class="st0" d="M620.2,103.7c2,0.2,2.7-0.2,4.4-0.3C622.6,103.4,620.9,103.4,620.2,103.7z"/>
	<path class="st0" d="M622.7,21.5c0.8-0.5-1.4-1.1-2.5-0.6c0.8,0,1.4,0.2,1.9,0.3c-0.3,0.3-3,0-3.1,0.3
		C620.1,21.8,620.5,21.4,622.7,21.5z"/>
	<path class="st0" d="M633.4,101.8c0.9,0.2,5.5,0.3,6.3,0C638.8,101.5,634.2,101.5,633.4,101.8z"/>
	<path class="st0" d="M672.9,105.6c-1.9,0.5-4.2-0.3-5.7,0.2C669.3,105.7,672.9,106.5,672.9,105.6z"/>
	<path class="st0" d="M670.3,104c-1.3,0-0.5-0.5-1.9-0.5c0.8,0.5-2,0.2-1.3,0.6C669.2,104,669.8,104.5,670.3,104z"/>
	<path class="st0" d="M672.9,107c-0.8-0.2-3-0.2-3.8-0.3C669.2,107.3,671.7,107.3,672.9,107z"/>
	<path class="st0" d="M678.5,104.1c2-0.2,0.9,0.5,2.5,0.5c-1.7-0.8,6.3-0.6,3.8-0.2c1.4,0,2.7-0.2,3.1-0.5
		C686.6,103.5,680.3,103.7,678.5,104.1z"/>
	<path class="st0" d="M704.4,103c-2.2,0.2-0.8-0.6-3.1-0.5c0,0.2,0,0.3,0,0.5C701.6,103.2,704.3,103.4,704.4,103z"/>
	<path class="st0" d="M712.8,104.6c1.4-0.3,5.4,0,5.7-0.5C716.4,104.5,713.2,103.7,712.8,104.6z"/>
	<path class="st0" d="M714.8,107.6c0,0.2,0,0.3,0,0.5c1.3,0,2.5,0,3.8,0C719.2,107.5,715.3,107.9,714.8,107.6z"/>
	<path class="st0" d="M750.7,21.8c-0.8,0-1.6,0-1.3-0.3c-2.8,0.2-5.5,0.2-5.7,0.5C746.1,21.7,749.3,22,750.7,21.8z"/>
	<path class="st0" d="M759.3,110.9c-1.1,0.2-4.2,0-5,0.3C755.9,111.4,759,111.4,759.3,110.9z"/>
	<path class="st0" d="M812.1,21.2c-1.4,0-2.7,0.2-3.1,0.5C810.6,21.7,813,21.8,812.1,21.2z"/>
	<path class="st0" d="M868.4,20.1c4.7-0.2,7.1-0.2,10.7-0.3c-3.1-0.3-7.4-0.5-10.1,0C870.1,19.8,868.9,20,868.4,20.1z"/>
	<path class="st0" d="M874.8,21.2c-1.4,0.5-3.8,0.5-5,0.9C872.8,22,874.4,22,874.8,21.2z"/>
	<path class="st0" d="M879.9,20.9c-1.3,0.5-2.7-0.5-4.4,0c-0.2,0.5,0.3,0.6,1.3,0.8c1.7-0.2,3.3-0.5,5.7-0.5
		c-0.6-0.6-0.2-0.3-0.6-0.9c1.1,0,1.7-0.2,0.6-0.3c-0.8,0.5-3.6,0.3-4.4,0.8C878.8,20.9,879.7,20.7,879.9,20.9z"/>
	<path class="st0" d="M887.4,19.2c-1.4,0.2-3.6-0.3-4.4,0.3c2.8-0.2,4.4,0,6.9-0.3C886.7,18.2,889.8,19,887.4,19.2z"/>
	<path class="st0" d="M893.1,111.5c1.6-0.2,5.5,0.3,5-0.3C895.9,111.7,893.6,110.4,893.1,111.5z"/>
	<path class="st0" d="M909.6,19.2c-2,0-7.6,0.2-6.9,0.3C905.5,19.5,908.1,19.5,909.6,19.2z"/>
	<path class="st0" d="M918.6,20.4c-1.6,0-1.9,0.3-3.1,0C914.8,21.2,919.2,21.1,918.6,20.4z"/>
	<path class="st0" d="M921.9,23.1c0.5,0.2,4.4,0.5,3.8-0.2C923.5,23.3,923,22.9,921.9,23.1z"/>
	<path class="st0" d="M940.2,114.2c0.2,0.9,4.9,0.3,5-0.2C943,114.1,942.4,114.5,940.2,114.2z"/>
	<path class="st0" d="M977.3,28.3c-0.8,0-0.9-0.2-1.3-0.3c-2.7,0.3-3.6,0.3-5.7,0.6c2.8,0.2,3.1,0,5,0.2
		C974.5,28.3,977.6,28.8,977.3,28.3z"/>
	<path class="st0" d="M1006.7,44.2c-2.2,0-3.6,0-5-0.2c0.3,1.4-5.5-0.5-6.3,0.8c1.4-0.2,4.7-0.5,4.4,0.3c-2,0.5-6.6-0.3-6.3,0.5
		c4.1-0.2,6.8-0.2,10.1,0.2c-2.8-0.8,1.7-0.6-0.8-1.3C1004.4,44.5,1007.5,44.8,1006.7,44.2z"/>
	<path class="st0" d="M1011.8,113.4c-0.5,0.8-4.2-0.3-3.8,0.6c1.9,0,2.4,1.3,4.4,0.6C1009.7,114.2,1013,113.7,1011.8,113.4z"/>
	<path class="st0" d="M1029.9,110.6c-5.7,0.2-0.5,0.6-3.8,0.9c2.2,0.3,1.6-0.2,3.8-0.2C1030,111.2,1030,110.9,1029.9,110.6z"/>
	<path class="st0" d="M1039.5,110.8c-4.6,0.2-6.5-1.7-9.6-0.9c4.2,0.2,2.2,1.1,2.7,1.6c1.4-0.2,3.6-0.3,5-0.5c0,0.2,0.8,0.2,0.6,0.5
		c-4.2,0.2-5.2,1.1-8.8,1.4c2.7,0,3,0.2,4.4-0.2c0.6,0.3,1.6,0.6,3.8,0.6c1.7-0.3,3-0.8,4.4-1.1
		C1040.6,111.9,1039.5,111.4,1039.5,110.8z"/>
	<path class="st0" d="M1041.2,108.9c-4.2,0,0-1.1-4.6-0.9c-0.3,0.6,1.9,0.6,1.4,1.4C1039.5,109.3,1040.1,109,1041.2,108.9z"/>
	<path class="st0" d="M1052,38.1c3.1,0.2,1.4-0.8,2.5-1.1c-1.3,0-1.4,0.2-2.5,0.2C1052.5,37.6,1053.8,37.6,1052,38.1z"/>
	<path class="st0" d="M1060.4,29.2c0.5-0.8-2-0.6-3.1-0.3C1059.1,28.9,1058.3,29.4,1060.4,29.2z"/>
	<path class="st0" d="M1081.6,25.6c-1.6,0.5,4.6,0.6,5.7,0.3c-1.1-0.5-1.6-1.1-3.3-1.4c-0.5,0.3-0.3,0.8-1.9,0.9
		c-0.6-0.2-6.8-0.3-6.3,0.2C1077.9,25.8,1079.6,25.6,1081.6,25.6z"/>
	<path class="st0" d="M1086.5,42.6c1.6,0,4.2,0.5,5,0.2c-0.3-0.2-0.8-0.2-1.6-0.3c1.4,0,1.9,0.2,2,0.5c0.2-0.2,0.9-0.3,1.3-0.5
		c-0.8-0.2-3.8-0.3-4.7,0C1087.8,42.5,1087,42.5,1086.5,42.6z"/>
	<path class="st0" d="M-154.6,83.5c3.1-0.3,0.3-0.8,5.7-0.5C-149.5,82.4-155.1,82.6-154.6,83.5z"/>
	<path class="st0" d="M981.4,42.1C981.2,42.1,981.2,42.1,981.4,42.1C981.2,42.1,981.2,42.1,981.4,42.1L981.4,42.1z"/>
	<path class="st0" d="M845.4,27.7C845.4,27.5,845.4,27.5,845.4,27.7c-1.1-0.2-2.2,0-3.1,0C843.4,27.7,844.5,27.7,845.4,27.7z"/>
	<path class="st0" d="M812.5,110.6L812.5,110.6L812.5,110.6L812.5,110.6z"/>
	<path class="st0" d="M938.3,113c-0.2,0-0.3,0-0.6,0C937.8,113,938,113,938.3,113z"/>
	<path class="st0" d="M812.1,110.8c0.2,0,0.3-0.2,0.5-0.2C812.1,110.6,811.9,110.6,812.1,110.8z"/>
	<path class="st0" d="M-65.6,78.7c2.8,0,3-0.2,5.7,0C-60.1,77.9-64.8,78.5-65.6,78.7z"/>
	<path class="st0" d="M364.2,21.2c-0.2,0.5-2.5,0.5-3.1,0.9c2.4-0.3,1.3,0.5,3.1,0.3C361.2,21.8,365.9,21.7,364.2,21.2z"/>
	<path class="st0" d="M430.1,102.7c2.2,0.2,6.5,0.5,8.2,0.2C435.8,102.7,431.2,102.6,430.1,102.7z"/>
	<path class="st0" d="M470.6,102.4c-2.4-0.2-4.6-0.5-6.3,0C466.6,102.3,469.8,102.7,470.6,102.4z"/>
	<path class="st0" d="M537.8,102.6c-2.2,0.2-3.3,0.5-5,0.6c0.3,0,0.8,0,0.6,0.2c0.5,0,0.8,0,1.3,0
		C535.1,102.7,537.9,103,537.8,102.6z"/>
	<path class="st0" d="M580.9,103c-1.1,0.5-3.9,0.2-5.7,0c-1.6,0.3,1.4,0.8-1.3,0.9c-4.1-0.5-10.7,0.5-12.7-0.5
		c2.2-0.5,9.1,0.5,10.7-0.6c-3.6,0-8,0.5-10.9-0.3c-0.6,0.2-1.3,0.3-1.9,0.5c-2.4-0.3,0.5-0.3-0.6-0.5c-1.1,0.5-6.1-0.3-3.1,0.3
		c-5.4-0.5-10.1-0.6-15.3-0.3c4.2,0,4.6,0.3,7.1,0.6c-4.2,0.5-6.8-0.6-9.4,0c0.9,0,0.5,0.3,0,0.5c1.7,0,3.8-0.2,3.8,0.3
		c-0.6,0.3-5.2-0.3-5.7,0.3c15.9-0.3,28.5-0.2,44.4-0.2c-0.9-0.2-3-0.2-3.8-0.5c0.5,0,1.3,0,1.3-0.2c-0.5,0-1.3,0-1.3-0.2
		C578.8,103.7,582.5,103.4,580.9,103z M548,103.4c-0.2-0.5,2.7-0.6,3.8-0.3C551.1,103.4,549.7,103.4,548,103.4z"/>
	<path class="st0" d="M579.5,99.6c2.5-0.2,6.1,0,8.2-0.3C584.8,98.8,581.4,99.3,579.5,99.6z"/>
	<path class="st0" d="M583.2,99.9c0.2,0.3-0.2,0.6,0.6,0.6c0-0.9,2.4-0.5,4.4-0.3C588.8,99.3,585,99.9,583.2,99.9z"/>
	<path class="st0" d="M607.5,103.7c0.5,0,0.8,0.2,0.6,0.3c2.4-0.3,4.9,0.2,6.3-0.2C612.4,103.5,609.7,103.2,607.5,103.7z"/>
	<path class="st0" d="M610.6,21.7c-1.3-0.3-1.9-1.1-1.9-0.8C607,21.2,609.1,21.8,610.6,21.7z"/>
	<path class="st0" d="M620.5,99.1c-2.7,0.2-3.6-0.2-5,0.5c1.3,0,1.4,0.2,2.5,0.2C617.2,99.3,622.1,99.3,620.5,99.1z"/>
	<path class="st0" d="M646.8,21.5c2.5,0,4.6,0.3,5.7-0.2c-1.3-0.2-4.2-0.3-2.5-0.8c-1.4,0.5-6.6-0.3-5.7,0
		C645.7,20.9,649.7,21.2,646.8,21.5z"/>
	<path class="st0" d="M651.5,5.2C652,5,652,5,654.1,4.2c-2.8,0.2-5.4,0.3-5.7,1.1C649.2,5.3,651.5,5.6,651.5,5.2z"/>
	<path class="st0" d="M670.9,104.1c2.2-0.2,4.4,0.3,5,0C674,104.1,671.7,103.5,670.9,104.1z"/>
	<path class="st0" d="M727.1,19.5c1.1,0,1.6,0.2,1.9,0c-2.2-0.3,2.4-0.2,2.5-0.5c-1.4-0.2-5.5-0.2-5,0.2
		C729.1,19.2,728,19.3,727.1,19.5z"/>
	<path class="st0" d="M800.1,20.3c3-0.3,4.6,0.5,5.7,0.2c-0.8-0.2-2.4-0.2-2.5-0.5c3,0,7.6,0.8,6.3,0c-1.1,0.3-3.8-0.2-4.4-0.5
		C804.3,19.8,798.2,20.4,800.1,20.3z"/>
	<path class="st0" d="M820.4,21.8c0.3-0.8,3-1.4,0.5-1.9c0.2,0.3-0.8,0.3-1.3,0.5c1.9,0.3,1.3,1.3-2.5,1.1
		C816.6,22,819.1,21.7,820.4,21.8z"/>
	<path class="st0" d="M831.7,21.2c1.3-0.2-1.3-0.6-0.6-1.1c0.8,0,1.7,0,2.5,0c0,0.3,0,0.5,0,0.8c2-0.5,5.8-0.3,4.4-0.9
		c0.9,0.3,2.7,0.2,3.1-0.2c-4.9-0.2-6.1,0.3-10.1,0c0,0.2-0.2,0.3-1.3,0.3C831.6,20.4,829.5,21.1,831.7,21.2z"/>
	<path class="st0" d="M859.7,13.7c-1.1-0.2-4.2,0-3.1-0.8C852,12.9,858.3,14.1,859.7,13.7z"/>
	<path class="st0" d="M885.7,22c-0.8,0-1.4-0.2-1.9-0.3C876.7,22,884.3,22.2,885.7,22z"/>
	<path class="st0" d="M889.5,21.2c-0.6-0.5-3.5-0.6-5-0.5c0.5,0.3,2.8,0.6,1.3,0.9c3.5,0.2,5.4-0.2,7.6-0.3
		c-1.9-0.5,1.7-0.6,0.6-0.8c-0.8,0.2-3,0.2-3.8,0C889.2,21.1,890.4,21.1,889.5,21.2z"/>
	<path class="st0" d="M898.3,22.5c-0.2-0.5,0.9-0.5,1.9-0.6c0.2,0.3,2.8,0,3.1,0.3c0.6-0.2,0.2-0.6,1.9-0.5c22,0,32.7,0.2,51.9,0.2
		c-0.3-1.1,2.2,0.2,3.1-0.3c-1.3-0.8-2.7-0.6-5.8-0.9c-0.5,0.5,1.7,0.3,1.9,0.6c-0.9,0-1.4,0.2-1.9,0.2c0.8-0.6-3.3-0.5-1.3-0.9
		c-9.1,0.3-20,0.9-33.5,0.6c0,0.3-0.5,0.5-1.3,0.5c-1.6-0.3-1.7-0.2-4.4-0.2c0.6-0.5,0.3-0.6-1.3-0.8c-0.2,0.2,0.2,0.5-0.6,0.5
		c-6.1,0-15.9,0.8-19,1.6C894.4,22.3,896.9,22.6,898.3,22.5z"/>
	<path class="st0" d="M893.1,22.5c-0.2,0-0.3,0-0.5,0.2C892.8,22.6,892.9,22.6,893.1,22.5z"/>
	<path class="st0" d="M961.4,118.9c0,0.3-0.2,0.5-0.6,0.6c1.7,0,3.5,0,3.1,0.5c2.2-0.2,3.3,0.5,3.8-0.2c-0.9,0-0.8-0.3-1.3-0.5
		C964.1,119.7,962.2,119.6,961.4,118.9z"/>
	<path class="st0" d="M961.4,28.1c0,0.2,0.3,0.3,0.6,0.5c-1.1,0-1.6,0.2-1.9,0.3c3.8-0.2,5.8-0.2,9.4-0.3c-4.1,0,0.3-0.5,1.3-0.6
		C967.9,28.3,965,28.6,961.4,28.1z"/>
	<path class="st0" d="M977.9,28.6c1.1,0,2,0,2.5,0.2c0.6-0.5-3.1-1.1-1.9-0.6C980.4,28.3,977.6,28.5,977.9,28.6z"/>
	<path class="st0" d="M982.2,24.4c-0.3,0-0.8,0-0.6,0.2c1.6,0.2,3.6,0,6.3,0.2c0,0.3,0,0.5,1.3,0.5c0.6-1.1-6.1-0.3-7.1-1.1
		C982.2,24.2,982.2,24.2,982.2,24.4z"/>
	<path class="st0" d="M998.7,15.4c1.1-0.5,2.2-0.2,3.1-0.6c-1.1,0-1.6-0.2-1.9-0.3c2-0.2,2,0,4.4,0c0.2-0.3-0.8-0.3-0.6-0.6
		c2.2,0.2,3.6-0.3,5-0.5c-1.9,0-2-0.3-3.8-0.3c-1.7,0.6-3.5,0.5-7.6,0.6c0.2,0.3-0.8,0.3-1.3,0.5c1.6,0,2.2,0.3,3.1,0.5
		C998.7,14.8,997.3,15.4,998.7,15.4z"/>
	<path class="st0" d="M1000.6,46.6c-0.3-0.3,4.9,0.5,3.1,0c-1.7-0.2-2.5-0.5-4.4-0.6c-0.2,0.3,0.9,0.3,1.3,0.5
		C1000.3,46.4,1000,46.6,1000.6,46.6z"/>
	<path class="st0" d="M1050.5,43.2c-2.7,0.6-0.9-0.6-1.9-0.6c-2.5,0.2-5.8-0.6-8.8-0.2c-0.9-0.2-0.2-0.6-1.3-0.6
		c-1.1,0.9-4.4-0.3-5.7,0.6c-3.8-0.6-12.4-0.6-15.9-0.8c0.9,0,2-0.2,3.5-0.3c-4.6,0-9.9-0.2-12,0.5c4.7-0.2,6.3,0,8.2-0.2
		c0.2,0.2-0.5,0.5-0.9,0.6c-2-0.5-8,0.6-5.7-0.2c-2.4,0-2.8,0.3-3.8,0.6c5.2-0.3,10.1,0,13.2-0.6c3.3,1.3,13.2-0.5,12.1,1.3
		c3.1-0.5,3.3-0.2,6.9,0c-0.2-0.3,0.2-0.6,1.3-0.6c2.5,0.3,4.2,0.5,6.9,0.3C1047,43.6,1051.6,43.9,1050.5,43.2z"/>
	<path class="st0" d="M1063.8,34.3c-2-0.9-9.1-1.3-12.1-2.4c-2.7,0-4.6-0.3-5.8-0.8c-1.1,0-2,0-2.5,0.2c-1.1-1.3-15.6-0.9-14-1.9
		c-2.4,0.3-4.1,0.6-7.6,0.6c-0.2,0.3,1.3,0.3,0.6,0.8c-1.9,0-3.1,0-3.8,0.3c3.9,0,4.4-0.8,7.6-0.8c-0.5,0.6,1.4,0.8,2.5,0.5
		c0.9-0.6-2.2-0.2-1.9-0.5c0.9,0,0.5-0.5,1.9-0.3c-1.3,0.9,5.4,0,7.1,0.6c0,0.3-0.3,0.5-1.3,0.6c-4.6-0.2-2.4,0.3-4.4,0.6
		c-2,0.2-1.7-0.5-3.1-0.5c-0.3,0.8-3.8,0.8-6.3,0.6c-5.4,0.5-9.8,2-14.5,2.2c4.9,0.2,9.3-0.5,12.1,0.6c-1.7,0.5-3.3-0.2-5.7,0
		c0.5,0.5-1.3,0.3-1.3,0.6c2-0.2,11-0.3,8.3,0.8c2.4-0.2,3.5,0.3,4.4,0c0.9-0.6-3.3,0-3.1-0.5c4.4-0.5,4.9-1.1,8.2-1.6
		c-4.4-0.3-6.1,0.8-8.2,0.5c8.5-2,27.5,0,38.6-0.5C1058.3,34.6,1062,34.1,1063.8,34.3z"/>
	<path class="st0" d="M1013.8,44c2.8,0,1.9,0.5,2.5,0.8c0.9-0.3,1.3-0.3,0.6-0.8C1015.4,44.2,1013.8,43.7,1013.8,44z"/>
	<path class="st0" d="M1048.6,43.9c-3-0.3-5.8-0.2-8.2-0.3C1040.9,44.2,1048,43.9,1048.6,43.9z"/>
	<path class="st0" d="M1039.9,36.6c3.3,0.2,10.4,1.6,10.9,0.3C1048.3,36.5,1043.9,36.6,1039.9,36.6z"/>
	<path class="st0" d="M1063.8,74.1c-0.8,0.6,5.2,0.9,3.8,0.8C1065.7,74.7,1066.4,74.1,1063.8,74.1z"/>
	<path class="st0" d="M966.6,19.3c-0.8-1.3,1.6-1.7,4.9-2c-0.2,0.8,3.6,0.6,4.6,1.1c-0.3-0.6,2.2-0.5,1.9-0.8
		c0.3,0.2,0.9,0.3,1.9,0.5c-0.2-0.8,3.9-0.5,6.3-0.6c-0.2-0.6-0.8-0.5,0-0.9c-3-0.5-9.3-0.5-11.5-0.8c-5.7,0.9-14-1.3-21.6-0.9
		c-5,0.3-7.7,1.7-5.5,3.6C951.3,19.5,960,20.4,966.6,19.3z"/>
	<path class="st0" d="M1100,69.5C1109,69.7,1102.4,68.9,1100,69.5L1100,69.5z"/>
	<path class="st0" d="M1082.4,41.8c-3,0.3-7.6-0.3-9.4,0.3C1077.1,42.5,1080.5,42.8,1082.4,41.8z"/>
	<path class="st0" d="M1027.3,41.2c-2.4,0-2.4,0.2-4.4,0C1022.6,41.8,1027.2,41.4,1027.3,41.2z"/>
	<path class="st0" d="M1002.5,38.1c3-0.3,4.6,0.6,5.7,0.3C1007.4,38.1,1003.9,37.6,1002.5,38.1z"/>
	<path class="st0" d="M998.7,38.4c0.2-0.3,2.4-0.2,2.5-0.5c-1.4,0-2.4,0-3.1-0.2C998.1,38.1,997.8,38.4,998.7,38.4z"/>
	<path class="st0" d="M1000.7,42.1c-1.3-1.3-7.9-0.8-10.2-0.3C994.6,41.8,998.4,41.5,1000.7,42.1z"/>
	<path class="st0" d="M992.9,7.2c0.5,0.2,3.1,0.3,2.5-0.2C995.1,6.7,987.1,7.2,992.9,7.2z"/>
	<path class="st0" d="M742.2,100.8c-1.7,0-4.4-0.2-4.4,0.3C739.2,101,742.7,101.5,742.2,100.8z"/>
	<path class="st0" d="M487.9,17.1c-1.6,0.2-4.6-0.2-5,0.2C484.6,17.4,487.1,17.6,487.9,17.1z"/>
	<path class="st0" d="M472.8,17c-1.4-0.5-2.5-0.2-3.8,0.2C469.8,17.8,470.9,17.1,472.8,17z"/>
	<path class="st0" d="M467.6,16.3c-1.3,0-1.4-0.2-2.5-0.2c-0.3,0.5,1.6,0.5,2.5,0.6C467.6,16.7,467.6,16.5,467.6,16.3z"/>
	<path class="st0" d="M454.4,17.4c-1.9,0.2-1.9-0.3-3.8-0.2c0,0.2,0,0.3,0,0.5C452.2,17.3,454.2,18.1,454.4,17.4z"/>
	<path class="st0" d="M448.2,19.8c-1.4-0.8,5-0.3,3.1-0.6C448.4,19,445.1,19.5,448.2,19.8z"/>
	<path class="st0" d="M442.9,17C442.6,17,442.1,16.8,442.9,17c0.5-0.2,1.3-0.2,1.3-0.3c-1.9,0-4.2,0-3.8,0.5
		C441.3,17.1,442.7,17.1,442.9,17z"/>
	<path class="st0" d="M435.5,20c0-0.2,0-0.5,0-0.6c-1.6,0.2-4.4,0-4.4,0.5C432.8,19.8,434.7,19.8,435.5,20z"/>
	<path class="st0" d="M413.1,16.7c2.2-0.2,4.2-0.5,6.3-0.6C416.3,15.9,413.9,16,413.1,16.7z"/>
	<path class="st0" d="M354.3,16.8c-1.9-0.5,2-0.3,1.9,0.2c0-0.2,0-0.5,0-0.6c-2.2,0-4.1,0-5,0.3C352.7,16.5,353.3,17.3,354.3,16.8z"
		/>
	<path class="st0" d="M321.9,16.5c-2-0.2-2.7,0.2-4.4,0.3C319.5,16.8,321.2,16.8,321.9,16.5z"/>
	<path class="st0" d="M319.3,98.6c-0.8,0.5,1.4,1.1,2.5,0.6c-0.8,0-1.4-0.2-1.9-0.3c0.3-0.3,3,0,3.1-0.3
		C322,98.3,321.5,98.8,319.3,98.6z"/>
	<path class="st0" d="M308.6,18.4c-0.9-0.2-5.5-0.3-6.3,0C303.3,18.7,307.9,18.7,308.6,18.4z"/>
	<path class="st0" d="M269.1,14.6c1.9-0.5,4.2,0.3,5.7-0.2C272.8,14.4,269.1,13.7,269.1,14.6z"/>
	<path class="st0" d="M271.8,16.2c1.3,0,0.5,0.5,1.9,0.5c-0.8-0.5,2-0.2,1.3-0.6C272.9,16.2,272.3,15.7,271.8,16.2z"/>
	<path class="st0" d="M269.1,13.2c0.8,0.2,3,0.2,3.8,0.3C272.9,12.9,270.4,12.9,269.1,13.2z"/>
	<path class="st0" d="M263.6,16c-2,0.2-0.9-0.5-2.5-0.5c1.7,0.8-6.3,0.6-3.8,0.2c-1.4,0-2.7,0.2-3.1,0.5
		C255.5,16.7,261.7,16.5,263.6,16z"/>
	<path class="st0" d="M237.7,17.1c2.2-0.2,0.8,0.6,3.1,0.5c0-0.2,0-0.3,0-0.5C240.5,17,237.8,16.8,237.7,17.1z"/>
	<path class="st0" d="M229.3,15.6c-1.4,0.3-5.4,0-5.7,0.5C225.7,15.7,228.9,16.5,229.3,15.6z"/>
	<path class="st0" d="M227.3,12.6c0-0.2,0-0.3,0-0.5c-1.3,0-2.5,0-3.8,0C222.9,12.7,226.8,12.2,227.3,12.6z"/>
	<path class="st0" d="M191.4,98.3c0.8,0,1.6,0,1.3,0.3c2.8-0.2,5.5-0.2,5.7-0.5C196,98.5,192.8,98.2,191.4,98.3z"/>
	<path class="st0" d="M182.7,9.3c1.1-0.2,4.2,0,5-0.3C186.2,8.8,183.1,8.8,182.7,9.3z"/>
	<path class="st0" d="M130,99c1.4,0,2.7-0.2,3.1-0.5C131.4,98.5,129.1,98.3,130,99z"/>
	<path class="st0" d="M73.7,100.1c-4.7,0.2-7.1,0.2-10.7,0.3c3.1,0.3,7.4,0.5,10.1,0C72,100.4,73.2,100.2,73.7,100.1z"/>
	<path class="st0" d="M67.2,99c1.4-0.5,3.8-0.5,5-0.9C69.3,98.2,67.7,98.2,67.2,99z"/>
	<path class="st0" d="M62.2,99.3c1.3-0.5,2.7,0.5,4.4,0c0.2-0.5-0.3-0.6-1.3-0.8C63.6,98.6,62,99,59.7,99c0.6,0.6,0.2,0.3,0.6,0.9
		c-1.1,0-1.7,0.2-0.6,0.3c0.8-0.5,3.6-0.3,4.4-0.8C63.3,99.3,62.4,99.4,62.2,99.3z"/>
	<path class="st0" d="M54.6,101c1.4-0.2,3.6,0.3,4.4-0.3c-2.8,0.2-4.4,0-6.9,0.3C55.4,101.9,52.3,101.2,54.6,101z"/>
	<path class="st0" d="M49,8.6c-1.6,0.2-5.5-0.3-5,0.3C46.2,8.5,48.5,9.7,49,8.6z"/>
	<path class="st0" d="M32.5,101c2,0,7.6-0.2,6.9-0.3C36.6,100.7,34,100.7,32.5,101z"/>
	<path class="st0" d="M23.5,99.7c1.6,0,1.9-0.3,3.1,0C27.3,99,22.9,99.1,23.5,99.7z"/>
	<path class="st0" d="M20.2,97.1c-0.5-0.2-4.4-0.5-3.8,0.2C18.6,96.9,19.1,97.2,20.2,97.1z"/>
	<path class="st0" d="M1.9,6C1.8,5-2.9,5.6-3.1,6.1C-0.9,6.1-0.3,5.6,1.9,6z"/>
	<path class="st0" d="M-35.2,91.9c0.8,0,0.9,0.2,1.3,0.3c2.7-0.3,3.6-0.3,5.7-0.6c-2.8-0.2-3.1,0-5-0.2
		C-32.4,91.9-35.5,91.4-35.2,91.9z"/>
	<path class="st0" d="M-64.6,76c2.2,0,3.6,0,5,0.2c-0.3-1.4,5.5,0.5,6.3-0.8c-1.4,0.2-4.7,0.5-4.4-0.3c2-0.5,6.6,0.3,6.3-0.5
		c-4.1,0.2-6.8,0.2-10.1-0.2c2.8,0.8-1.7,0.6,0.8,1.3C-62.3,75.7-65.4,75.4-64.6,76z"/>
	<path class="st0" d="M-69.7,6.7c0.5-0.8,4.2,0.3,3.8-0.6c-1.9,0-2.4-1.3-4.4-0.6C-67.6,6-70.9,6.4-69.7,6.7z"/>
	<path class="st0" d="M-87.8,9.6c5.7-0.2,0.5-0.6,3.8-0.9c-2.2-0.3-1.6,0.2-3.8,0.2C-87.9,8.9-87.9,9.3-87.8,9.6z"/>
	<path class="st0" d="M-97.4,9.4c4.6-0.2,6.5,1.7,9.6,0.9c-4.2-0.2-2.2-1.1-2.7-1.6c-1.4,0.2-3.6,0.3-5,0.5c0-0.2-0.8-0.2-0.6-0.5
		c4.2-0.2,5.2-1.1,8.8-1.4c-2.7,0-3-0.2-4.4,0.2c-0.6-0.3-1.6-0.6-3.8-0.6c-1.7,0.3-3,0.8-4.4,1.1C-98.5,8.3-97.4,8.8-97.4,9.4z"/>
	<path class="st0" d="M-99.1,11.3c4.2,0,0,1.1,4.6,0.9c0.3-0.6-1.9-0.6-1.4-1.4C-97.4,10.8-98,11.1-99.1,11.3z"/>
	<path class="st0" d="M-110,82.1c-3.1-0.2-1.4,0.8-2.5,1.1c1.3,0,1.4-0.2,2.5-0.2C-110.4,82.6-111.7,82.6-110,82.1z"/>
	<path class="st0" d="M-118.3,90.9c-0.5,0.8,2,0.6,3.1,0.3C-117,91.2-116.3,90.8-118.3,90.9z"/>
	<path class="st0" d="M-139.5,94.5c1.6-0.5-4.6-0.6-5.7-0.3c1.1,0.5,1.6,1.1,3.3,1.4c0.5-0.3,0.3-0.8,1.9-0.9
		c0.6,0.2,6.8,0.3,6.3-0.2C-135.8,94.4-137.5,94.5-139.5,94.5z"/>
	<path class="st0" d="M-144.4,77.6c-1.6,0-4.2-0.5-5-0.2c0.3,0.2,0.8,0.2,1.6,0.3c-1.4,0-1.9-0.2-2-0.5c-0.2,0.2-0.9,0.3-1.3,0.5
		c0.8,0.2,3.8,0.3,4.7,0C-145.7,77.7-144.9,77.7-144.4,77.6z"/>
	<path class="st0" d="M1096.7,36.6c-3.1,0.3-0.3,0.8-5.7,0.5C1091.5,37.7,1097.2,37.6,1096.7,36.6z"/>
	<path class="st0" d="M130,9.4c-0.2,0-0.3,0.2-0.5,0.2C130,9.6,130.2,9.6,130,9.4z"/>
	<path class="st0" d="M3.8,7.2c0.2,0,0.3,0,0.6,0C4.3,7.2,4.1,7.2,3.8,7.2z"/>
	<path class="st0" d="M-39.3,78C-39.1,78-39.1,78-39.3,78C-39.1,78-39.1,78-39.3,78L-39.3,78z"/>
	<path class="st0" d="M129.6,9.6h0.2l0,0C129.6,9.6,129.6,9.6,129.6,9.6z"/>
	<path class="st0" d="M-265.8,22.5c4.2,1.3,9.8,2.4,15.4,3.3c-0.2,0.2-0.9,0.3-0.6,0.6c2.2-0.2,3.3-0.5,5.7-0.5
		c0.9,0.3,1.7,0.6,4.4,0.5c-2.5,0.8,2,0.6,2,1.3c-2,0.3-1.7,0.3-1.3,0.9c-1.3,0-0.8,0.5-2.5,0.3c-5.7-0.3-12.3-0.8-19.7-0.9
		c2.8,1.1,9,1.3,13.4,1.9c-0.8,1.4,1.6,1.9,5.2,2.8c2,0.2,0.5-0.5,2.5-0.3c1.9,1.6,8,2.8,6.6,4.7c-7.9-0.2-7.7,1.7-15.7,1.6
		c-0.2,0.6-2.5,0.8-3.1,1.4c0.2,0.3,1.3,0.5,1.9,0.6c-0.5,0.5-1.9,0.6-3.1,0.8c-1.9,2,6.3,1.6,6.6,3.1c-5.5,0.5-13.7,0.2-17.6,0.9
		c2.5,0.2,3.5,1.3,1.4,1.6c3.5,0.5,3.9,1.7,7.7,2.2c6.3-0.8,5.8-2.7,13.1-3.3c4.2,2.5,22.8,2,28.6,2.5c-0.8,0-1.3-0.2-1.3-0.5
		c3-0.2,4.6,0.2,6.3,0.3c-0.5-0.6,3.1-0.3,3.8-0.6c-0.9-0.2-2-0.2-1.9-0.6c9.9,0,15.3-0.9,25.3-1.3c0.2-0.2-0.2-0.5,0.6-0.5
		c13.5,0.2,22.5-0.6,34.9-1.1c0.2-0.2-0.2-0.5,0.6-0.5c2.7,0.3,6,0.3,7.6,0.3c-0.5,0-0.8-0.2-0.6-0.3c9.8,0.2,22.7-0.6,24.9,1.6
		c-0.9-0.2-1.6-0.2-1.9,0.2c1.9,0.2,5,0.8,3.3,1.4c3.3-0.2,5.4,0.8,3.9,1.3c0.2,0.2,0.9,0.3,0.6,0.6c2,0.2,1.3,0.2,2.5-0.2
		c0,0.2,0.3,0.3,0.6,0.5c-0.9,0-2.2,0-1.9,0.3c4.2-0.2,0.9,0.6,2.7,1.1c2.4-0.2,1.6-0.9,5-0.8c-1.4,0.3,0.3,0.6,0,1.1
		c-0.3,0-2.5-0.3-2.5,0c1.6,0,1.1,0.6,1.9,0.8c1.1,0,2,0,2.5-0.2c-2.2,0.6,3.3,0,1.9,0.8c-4.2-0.5-7.7-0.2-12,0.2
		c-1.7-1.1-9.1-0.6-10.9-1.7c0.8-0.2,1.4-0.2,1.9-0.3c-1.4-0.2-1.6-0.5-2.5-0.8c-6.9,0.2-7.9-2.4-15.4-2.5c-0.2,0.8-3.3,0.9-6.3,0.6
		c0,0.8-2,0.6-4.4,0.5c1.4,1.4-5.4,1.7-3,2.8c-0.8-0.2-2.4-0.2-2.5,0.2c0.5,0.3,3.1,0,2.5,0.5c-0.2,0.5-1.6,0.5-2.5,0.5
		c0.5,1.7,7.7,1.6,10.2,2.7c-9.9,0.9-14.8-1.4-22.8-0.8c0-0.2,0-0.5,0-0.6c-7.7-0.5-7.4,2-13.8,1.7c-3.3,0.9-7.6,1.7-13.2,2
		c0.6,0.2-3.9,0.5-4.4,0.9c-10.5,0,0,3-1.6,3.9c2,0.6,4.9,0.9,5.8,1.9c-2.4,0-1.9,0.3-0.6,0.5c-0.8,0-1.7,0-2.5,0
		c0.2,0.9-2,1.1,0.8,1.6c6.1-0.5,12,0.2,14.6,1.6c-0.9,0-0.5,0.5-1.9,0.3c-0.5,0.8,3.1,0.3,3.3,0.9c-4.4-0.2-4.9-1.4-9-1.7
		c0.5,0.5-0.9,0.5-0.6,0.8c1.3,0,1.4-0.2,2.5-0.2c-1.3,0.3,1.3,0.5,1.3,0.9c2.7,0,2.4,0.3,5,0.5c0.3-0.3,3.6-0.5,4.4-0.2
		c-3.9,0,1.1,0.5-1.9,0.6c5.5,0.2,7.1,0.6,10.2,0.6c-2,0.2-3.6,0.6-3.8,1.3c1.7-0.2,1.3,0.3,1.9,0.5c8.2,0.3,11.5,1.9,21.1,2.2
		c-2.5,0.9-8.3,0.3-14.5,0.6c-0.9,0.5-2.7,0.8-2.4,1.6c6.8-0.2,15.4,1.1,22.8,0c4.2,0.9,14.2-0.6,21.6-0.3c2.8,0.2,9.8,0,11.3-0.9
		c9,0,18.4-0.5,29.7-0.6c0.8,0.5-1.9,0.6,0.6,0.6c3.1-0.8,10.7-0.3,13.8-0.8c-10.7-0.2-20.3-0.5-31-0.3c-0.2-0.2-1.1-0.3-1.3-0.5
		c6.8,0.3,15.7-2,14.5-0.8c0.6-0.2,3.3,0.5,5.7,0.3c1.4-1.4,6.6,0,10.7-0.2c-0.2-0.5,2.5-0.2,1.9-0.6c-0.2-0.5-2.5-0.5-2.5-0.9
		c3.8-1.1,8-0.3,13.8-0.5c0.3,0.2,0.8,0.3,0,0.5c1.6-0.2,6-0.5,5.7,0.3c-3.1,0.3-1.1,0-3.1-0.2c-1.3,0.6,0.2,0.9,1.9,1.1
		c-1.9,0.3-1.7,1.1-4.4,1.3c1.3,0,2.2,0.2,2.5,0.3c-0.5,0.3-2.4,0.3-2.5,0.8c2.4-0.2,5.4-0.2,8.2,0.3c-0.2-0.8,3.9-0.6,5-0.5
		c-0.8,0.5-2.5,0.5-4.4,0.3c1.3,0.8-2.5,0.2-1.9,0.8c2.5,0.2,9.3-1.7,12.6-0.3c-5.7-0.3-6.8,0.6-10.1,0.9c-0.8,0.9,0.2,1.3,2,1.6
		c0-0.2,0-0.3,0-0.5c1.3,0,1.7,0.2,2.5,0.2c-0.3,0.2-0.8,0.3,0,0.3c-0.2,0.5-1.1-0.2-2.4,0c1.1,0.2,2.4,0.2,3.8,0.3
		c-1.1,0.5-2.5,0.8-5.5,0.8c0.2-0.2,0.9-0.3,1.3-0.5c-3.3,0.2-6.9,0.5-7.6,0.8c-3-0.3-2.4,0-4.4,0.2c-3.3,0.2-8.5-0.3-10.1,0.5h0.2
		c-1.6-0.2-3.6-0.5-4.9-0.2c-0.3-0.2-0.8-0.3,0-0.5c-4.7,0.9-8.2-0.9-14-0.5c2.7,0.2-2.4,0.9,2.5,0.8c0.8-0.3-1.7-0.6,0-0.6
		c-0.2,0.9,5.2,0.8,7.1,1.6c3.3-0.8,6.8-0.2,11.2,0c-0.2,0-0.2,0.2-0.3,0.2c0.3,0.2,0.9,0.2,1.6,0.2c0.6,0.3,1.6,0.8,2.7,0.5
		c-1.7,0-0.9-0.2-0.2-0.5c2,0,4.1,0,4.2,0.5c-1.3,0-2.5,0-3.8,0c0,0.5,3.3,0.5,1.3,0.9c0.9-0.2,3.3,0.2,3.1-0.2
		c-1.4,0-2-0.2-1.9-0.5c0.9,0,2.7,0,4.2,0c0.6,0.2,0.8,0.2,0.6,0.3c-5.2,0.5-12.9,0.5-17.2,0.5c-0.5,0.3-0.8,0.6-1.9,0.8
		c3,0,5.8,0,2.5-0.3c2.4,0,2.8,0.3,3.8,0.6c-4.6,0.8-3.6-0.2-7.6,0c2.2,0.2,3.1,0.3,1.3,0.8c5.7,0.3,13.1,0.5,17.2,0.3
		c1.4,0.8,5.8,0.5,9.3,0.5c0,0.2-0.2,0.3-0.6,0.5c1.1,0,1.7-0.2,2.4-0.3c1.4,0.2,2.5,0.3,2.8,0.8c2.5,0,0.9-0.9,3.8-0.8
		c2,0.2,3.6,0.6,5.8,0.8c1.1-0.3,2.8-0.3,4.2-0.2l0,0c0.5,0,0.8,0.2,0.6,0.3c0.5,0,0.8,0,1.1,0c0.2,0,0.3,0.2,0.3,0.2
		c-0.8,0-0.6,0.2-1.1,0.3c-0.3,0-0.5-0.2-0.5-0.3c-0.9,0-2,0-2.8,0c-2.8-0.2-6.6,0-8.3,0.3c2.2,0,4.9,0.2,7.4,0.2l0,0l0,0
		c2.5,0,5,0,7.1-0.2c-0.8,0-1.7,0-1.9-0.2c1.9,0,1.9-0.3,3.8-0.3c0.3,0.3-1.1,0.5-0.2,0.5c-0.5,0-0.9,0-1.3,0c0.8,0,0.6,0.3,0.6,0.5
		c-4.7,0-6.3,0-8.8,0.3c0-0.2,0.5-0.2,0.6-0.3c-7.1,0.2-13.2,0.3-17.8,0c-0.6,0.2-0.9,0.5-1.9,0.6c-1.6-0.5-2-0.2-3.1,0.2
		c-1.3-0.3-0.8-0.9-2.5-0.6c2.2,0.5-2.5,0.5-3.8,0.6c0-0.3-1.7-0.2-1.3-0.6c-0.2-0.3,1.9-0.2,1.9-0.5c-4.2,0-4.1,0.5-4.4,1.3
		c1.6,0.3,4.1,0.3,5.7,0.5c1.1-0.9,8-0.3,9.4,0c-0.8,0-0.6,0.3-1.3,0.3c-0.2-0.2,0.2-0.5-0.6-0.5C-49.1,89.7-53,89.2-58,89
		c1.6,0.6-1.1,0.5-1.3,1.1c5,0,10.1-0.2,14.6,0c-2-0.3,1.9-0.5,2.5-0.6c1.3,0.2,4.9,0.6,5.7,0.5c-0.8,0-0.6-0.3-0.6-0.5
		c2.7,0.6,6.6,0.3,10.2,0.6c-3.9,0-2,0.3-5,0.5c2.8,0.2,4.4,0.5,6.3-0.2c0,0.2,0,0.3,0,0.5c6-0.5,15.3,0.5,22.8-0.2
		c0.2,0.2,0,0.5,0.6,0.5c6.6-0.6,16.4,0.5,19.7-0.2c0.3,0.6-2.8,0.8-4.4,0.5c0.5,1.1,4.1,0.3,5.7,0.2c-0.2,0,0.2,0.3,0,0.3
		c2.5-0.2,3.6-0.9,6.3-0.9c3.5-0.2,4.4,0.8,9,0.5c-1.4-0.8,4.7,0,6.3-0.5c-6.8,0,7.6-0.8,7.6,0.3c-2,0-2.4,0.3-3.8,0.5
		c3.5,0,1.9,0.2,2.5,0.8c2.8-0.2,3.1,0.3,5,0.3c-0.3-0.5-2.8-0.5-3.8-0.8c0.9,0,1.4-0.2,1.9-0.2c1.4,0.2,2.5,0.9,3.8,0.3
		c0,0.3,0.2,0.5,0.6,0.6c-10.2,0.5-13.8,0.6-23.4,0.2c-5.7,0.5-11.8-0.5-17.8,0.3c-0.2-0.3-2-0.2-1.9-0.5
		c-7.9,0.5-16.4-1.1-22.8,0.2c1.7,0,4.4-0.2,4.4,0.3c-2,0-10.9,0.5-9-0.6c-1.6,0.2-2.8,0.3-5,0.2c-0.9,0.6,3.3,0,3.1,0.5
		c-2.8,0.2-9.3,0.5-11.5-0.5c-11.5,0-20.3,0.3-27.9-0.5c-0.3,0.8-1.3-0.3-2.5-0.3c-1.6,0.2,0.6,0.8-0.6,0.8c-0.6,0-0.8,0.2-1.3,0.2
		c-2.4,0.2-2.2-0.3-3.8-0.5c-0.8,0.5-3.9,0.3-6.3,0.3c-0.6-1.3-5-0.5-7.6-0.5C-90,92.3-103.7,91.9-112,92c6.5,0.5,8.7,0,14,0.8
		c7.6-0.6,17.2,0.2,25.3,0c0,0.5,1.1,0.5,1.3,0.8c-0.8,0.3-2.4,0.3-3.1,0.5c2.5,0.3,9.1-0.6,13.4,0.3c0.3-0.5,2.4-0.3,3.8-0.2
		c2-1.1,11.5-1.1,15.1-0.8c-0.2,0.3-5.8,0-3.8,0.3c1.9,0,3.9,0,3.8,0.5c-1.1,0.2-3.8-0.2-3.8,0.2c2,0.2,6.1-0.2,5.2,0.9
		c2.7,0.2-0.9-0.6,1.9-0.6c0.2,0.2,0.5,0.2,1.3,0.2c0.8,0.8-1.1,0.8-1.9,1.1c2.8,0.5,3-0.3,3.1-0.5c2,0.5-1.6,0.6,0,0.9
		c2.7,0.3,5.7,0.3,6.9,0.3c-0.8,0-0.9-0.2-1.3-0.3c1.1,0.2,2.7-0.5,3.1,0c-0.8,0-1.7,0-1.9,0.2c3.6,0.5,9.3,0,11.5,0.8
		c1.6-0.2-1.1-0.5,0.6-0.6c3.6-0.3,3.3,0.5,5.7,0.6c0.3-0.2-0.8-0.8,0.6-0.8c2.2,0,6.1-0.3,5.7,0.5c-0.6,0.2-4.9,0.2-3.1,0.3
		c3.6-0.3,6,0,7.6-0.6c2.5,0.2-0.5,0.8,1.9,0.9c0.9-0.2,0-0.6,1.3-0.6c0.8,0.3,7.6,0.9,4.4,0.3c2.7,0.2,3.1,0.2,6.9,0.2
		c0.2-0.2-0.3-0.6,0.6-0.6c10.7,0.5,19.8-0.2,29.1,0.2c0.2-0.3-0.9-0.5,0-0.5c3.6,0.3,6.5,0.5,8.8-0.2c0,0.2-0.3,0.3-0.6,0.5
		c2.5-0.3,6,0,8.2,0.3c-1.7,0.6-5,0.2-5.7,1.1c4.4-0.2,6.3-1.4,11.3-1.1c0.8-0.3-1.7-0.6,0-0.6c1.9,0.2,2.5,0.2,3.8-0.2
		c0,0.5,1.9,0.6,3.1,0.8c5-0.6,9.9,0.5,14.5-0.5c10.1,0.5,24.9,0.2,32.9-0.5c0.6,0.3,3.6,0.2,3.1,0.8c3.6-0.6,5.7,0.3,8.2-0.3
		c-0.8,0-1.6,0-1.3-0.3c1.6-0.2,1.7-0.2,4.4-0.2c0.2,0.3,0,0.5,1.3,0.5c2-1.1,7.1,0,10.1,0.2c0.2-0.3-0.9-0.3-1.3-0.5
		c2.5-0.2,7.1-0.2,7.7,0.6c-1.6,0.2-2.2-0.6-3.1-0.2c0.9,0,0.8,0.3,1.3,0.5c6.8-0.9,16.4-0.6,20.9-0.6c1.6,0,2.4-0.5,3.1-0.5
		c2,0,3.6,0.8,6.9,0.5c-0.6,0,0.9,0,2.5,0c0.6,0,7.2-0.3,8.8,0.3c0.3,0.5-4.9,0.3-3.1,0.5c2.2,0,3-0.3,5,0c-0.5-0.8,3.3-0.6,4.4-0.3
		c-2,0.3-4.9,0.3-5.7,0.8c3.9-0.3,11.2-0.9,10.9,0.5c0-0.2,1.1-0.2,1.3,0c-2.5,0.5-1.6,0.8-3.8,1.1c8-1.4,14.8,0.8,22-1.3
		c0.2,0.3-0.6,0.3-0.6,0.6c2,0,1.7-0.5,4.4-0.3c-0.2,0.3,0.8,0.3,0.6,0.6c1.6,0,3.5-0.2,4.4-0.3c-2.8,0.2-4.1-0.3-4.6-0.8
		c4.2,0.2,6.3-0.5,10.2,0.3c-2.5-0.2-1.9,0.5-4.4,0.3c0.6,0.3,0.3,0.9,2.5,0.9c0.2-0.2-0.3-0.6,0.6-0.6c-0.3,0.8,7.9,0.9,11.5,0.9
		c0.6-0.6-1.6-0.5-1.3-0.9c0.2,0,0.5,0.2,0.9,0.2v0.2c1.1,0,1.6,0,2.2,0.2c-0.3,0.2,0,0.3,0.2,0.6c2,0.2,0.8-0.5,2.5-0.5
		c0,0.6,3.3,0.3,3.8,0.8c2.7-0.5,3.6-0.2,3.1,0.3c2.4-0.5,3.3-0.3,5-0.8c1.1,0.3,0,0.2,0,0.6c2.7-0.2,2.4-0.2,4.4,0.2
		c0.9-0.2,1.6-0.5,2.5-0.6c1.1,0.3,2.5,0.2,0.6,0.5c6.9,0.3,9.3-1.6,12.6-1.1c0.2-0.6,1.1-0.8,2.2-0.8c0.9,0.5,4.7,0.6,8.2,0.6
		c-0.2,0-0.2,0.2-0.3,0.2c1.4-0.3,3.5,0,3.8-0.2c-0.2,0-0.5,0-0.6,0c0.9,0,1.7-0.2,2.5-0.2l0,0c3.5-0.6,7.7-0.5,11-0.5
		c-0.5,0.2-1.4,0.3-1.3,0.3c1.3,0.3,3.1-0.2,5,0.5c0.2-0.3-0.8-0.3-0.6-0.6c1.3,0,1.3,0.5,2.5,0.5c1.9-0.3,3.9-0.6,6.1-0.6
		c0.3,0,0.5,0,0.3,0c0.5,0,0.9,0,1.4,0c1.3,0.2,2,0.3,3.1,0.2c-0.5,0-0.8,0-0.9-0.2c0.2,0,0.5,0,0.6,0c0.2,0.2,0.8,0.2,1.6,0.2
		c0.2,0,0.3-0.2,0.5-0.2c6.8,0,13.8,0.3,20-0.3l0,0c0.2,0.2,0.3,0.2,0.5,0.3c-5-0.6-8.3,1.4-11.3,0.2c0,0.9-2.2,0.3-5,0.6
		c0.8,0.5-0.9,0.3-1.3,0.6c3,0.2,1.7-0.2,2.5-0.3c0.6,0.2,2.4,0,1.9,0.5c-0.8,0-1.7,0-1.9,0.2c2.7-0.2,3.9,0,4.4,0.5
		c3.3-0.3,5.7,0,12.6-0.2c1.1-0.3-0.9-0.5,1.3-0.6c8.3,0.6,15.7-0.8,22.2-0.5c0.8-0.3,0.2-0.5,0.2-0.8c0.8,0,1.6,0,2.4,0
		c0.5,0.2,0.2,0.5-0.2,0.8c5.8-0.6,9.6,0.3,15.9,0.2c2.5-1.4,11.3-0.2,15.1-1.1c-0.5,0-0.8,0-1.3,0.2c0.6-0.2,1.3-0.2,1.9-0.3v0.2
		c0.8-0.2,1.4-0.2,2.2-0.2c0.6,0.2,1.6,0.2,2.7,0.2c0.8,0,1.4,0.2,1.9,0c0.5,0,0.9,0,1.4,0c1.9,0.6,7.9,0.6,11.5,0.3
		c-0.6,0,0.9,0.2,2.5,0.2c8.3-0.2,18.7,0,26.6-0.8c0.2,0.3,0,0.6,1.3,0.5c0-0.5,0-0.8,1.9-0.8c0.5,0.3-1.7,0.5,0.6,0.5
		c0.6-0.3,1.9-0.5,3.1-0.2c1.4-0.2-0.8-0.3,0.6-0.5c1.3,0,2,0.2,2.5,0.3c0,0.3-1.6,0.2-1.3,0.5c2.4-0.3,2.8-0.2,5.7-0.5
		c0-0.3-0.8-0.3-1.4-0.3c0.6-0.3,2-0.3,2.8-0.5c0,0.2,0.2,0.2,0.3,0.2c-0.3,0.2,0,0.3,0.6,0.5c0,0-0.2,0-0.2,0.2c0.2,0,0.3,0,0.5,0
		c1.6,0.3,4.7,0.6,6.3,0.8c-1.3,0-0.8,0.5-2.5,0.3c-2.7-0.3-6.3-0.3-8.2,0.3c-1.3-0.2-1.4-0.3-0.6-0.5c-7.4,0.5-12.9,0.2-19.5,1.1
		c1.6-0.6-6.3-0.3-4.4,0.2c-8.7-0.5-22-0.2-29.7,0.9c3.1-0.3,8.8,0.3,11.3-0.3c-1.4,0.6,2.8,0.2,3.1-0.2c0,0.2,0,0.3,0,0.5
		c27.2-0.2,57.4-0.6,81-0.5c2.5-0.6,11.3,0.2,13.8-0.9c3.5,0.3,4.7,0.5,8.2,0.2c-1.4,0.9,3.9,0,3.1,0.8c2.8-0.3,6.3,0.5,7.6-0.2
		c-3.9-0.2-6.5,0.3-7.6-0.5c3.8,0.2,7.7-0.3,10.2,0.5c2.8-0.2,8.3-0.8,10.7-0.2c0.3-0.8,3.5,0.2,5-0.3c0.2-0.3-0.9-0.5,0-0.5
		c2.5-0.3,5.5,0.3,7.6,0c-0.8,0-1.6,0-1.3-0.3c1.9-0.2,1.9,0.3,3.8,0.2c0.2-0.5-2.8-0.3-3.8-0.5c-1.3,0.5-8.5,0.6-9.4,0.2
		c2.2-0.3,2.8-0.6,5-0.2c0.5-0.5-1.3-0.3-1.3-0.6c-2,0-2.2,0.5-4.4,0.5c0.3-0.5,1.7-0.6,2.5-0.9c-2.4,0-1.7,0.6-3.8,0.6
		c-0.5-0.2,0.6-0.3,0.6-0.5c1.6-0.2,3.1-0.3,4.6-0.3c0.6,0.2,1.1,0.5,1.9,0.6c2.8-0.6,5.2-0.3,7.7,0c-0.9,0-1.9,0-2.8,0
		c-0.9,0.5,3.8,0.5,3.3,0c1.4,0.2,2.8,0.3,4.6,0.2c0.2,0.5-2.5,0.2-1.9,0.6c6.5-1.3,17.5-0.3,26.6-0.8c0.2,0.5-3.6-0.2-2.5,0.5
		c6.6-0.5,18.9,0,27.2-0.5c-1.9,0.5,2.4,0.2,2.5,0.6c-5.5,1.1-11.5,0.2-18.9,1.1c0.3,0.2-0.6,0.8,0.6,0.8c1.9-1.4,9.9-0.6,15.1-1.1
		c0.3,0.3,2,0.2,1.3,0.6c0.6-0.2,1.3-0.2,1.9-0.3c0,0.2,0.2,0.2,0.3,0.3c0.6,0,1.3,0,1.9,0c0.2-0.2-0.3-0.3-0.6-0.5
		c0.8,0,1.6-0.2,2.5-0.2c0.3,0.3,0.3,0.3,0,0.8c3.9-0.5,9.8-0.2,11.2,0.5c0,0,0.2,0,0.2,0.2l0,0c0,0-0.2,0-0.2-0.2
		c-0.5,0-1.1,0.9-2.7,0.5c0.2,0,0.5-0.2,0.6-0.2c-0.8,0.2-1.7,0.3-2.8,0.3c-0.5-0.2-0.8-0.2-1.1-0.3c-1.4,0-2.7,0.2-3.8,0.3
		c0-0.2,0-0.2-0.2-0.3c1.7,0,3.9,0,4.7-0.2c-3,0-5-0.2-6.9,0c0.5,0,0.8,0.2,0.6,0.3c0.3,0,0.6-0.2,1.1-0.2c-0.2,0.5-1.9,0.3-3.3,0.2
		c0.5,0,0.8-0.2,0.9-0.3c-2.7,0.3-2.4-0.3-3.8,0c0.8,0,0.5,0.2,0,0.3c0.8,0,1.4,0,2.2,0c0.6,0.2,1.6,0.3,2.4,0.3
		c-0.3,0-0.5,0-0.8,0.2c0.5,0,0.9,0,1.4,0c0.9,0.2,1.7,0.3,2.2,0.5c0.5-0.5,1.1-0.2,3.1-0.2c0.2,0.2,0,0.3,0.5,0.5
		c-0.8,0.2-1.6,0.5-1.4,0.6c0.8,0.2,2.4,0.2,2.5-0.2c-0.8,0-1.6,0-1.3-0.3c0.5,0,0.8,0,1.3,0c0-0.2,0-0.2,0-0.2
		c0.9,0,2.5,0.2,3.6-0.2c-1.3-0.2-1.4-0.3-0.6-0.5c3.1,0.2,6.8-0.3,10.2,0.5c0.3-0.9,2.7-0.5,5-0.3c0.2-0.2-0.2-0.6,0.5-0.6
		c0.2,0,0.3,0,0.5,0c0.8,0.2,0.9,0.3,1.3,0.5c-3.6,0.2-6,0.6-9.6,0.6c3,0.5,4.7,0.2,7.6,0.3c0,0.2-0.3,0.3-0.6,0.5
		c9.1,0,15.3-0.2,22.2,0.8c0.2-0.2-0.2-0.5,0.6-0.5c4.1,0.6,11.6,0.3,15.9,0.3c-0.8,0-1.6,0-1.3-0.3c2.8,0,6.1-0.2,6.3,0.5
		c1.4,0,0.6-0.6,2.5-0.6c2,0.3,2.8,0.9,5.2,1.3c-2-0.6,8.5-0.9,5.7,0.2c3.9,0.2,6.1-0.3,9,0.5c1.1-0.3,2-0.6,3.8-0.8
		c-0.3-0.8,0-1.1,0.2-1.6c2.4-0.2,4.7-0.2,5.2-0.6c-1.6,0.3-4.1,0.2-4.9-0.2c0-0.2,0-0.3,0-0.6c-3.3,0.3-5.8,0.5-6.9-0.5
		c-0.6,0.5-5.8,0.5-6.9,0c-4.2,0.9-10.2-0.3-17.2-0.2c0.3-0.8-2-0.2-3.1-0.8c2.4,0,4.2-0.2,6.3-0.3c-0.9,0.5,0.2,0.6,1.3,0.9
		c0.8-0.5,4.1-0.3,5,0c0.8-0.6-2.7-0.3-3.1-0.6c2.4-0.3,5.4-0.3,7.6-0.6c1.3,0.9,6,0.8,9,0.5c1.3,0.3,1.3,0.5,0,0.8
		c5.8-0.8,13.1-0.5,17.2,0.2c1.6-1.1,6.8,0.3,8.8,0c-0.9-0.2-1.6-0.3-1.9-0.5c1.9,0.2,1.9-0.3,3.8-0.2c-0.2,0.6,2.4,0.6,3.8,0.8
		c0.6-0.3-1.9-0.5,0-0.6c5.4,0.2,7.4,0.3,11.3-0.2c0.6,0.5,0,0.9,3.9,0.9c0-0.3,0.2-0.5,0.6-0.6l0,0c2,0.2,3.8,0.3,5.8-0.2l0,0l0,0
		c0.2,0,0.5-0.2,0.6-0.2c0.9,0.2,2.5,0.2,1.9,0.6c-1.3,0-0.5-0.6-2.5-0.5l0,0c0.8,0.8-2.4,0.8-4.4,0.8c4.1,0,6.6,1.7,8.3,0.6
		c6.3,0.3,10.5,0.9,17.2,1.6c-0.2,0.2-0.9,0.3-1.3,0.5c3.3,0.3,5.4-0.8,5.7,0.2c-3.1,0-6.8-0.2-8.2,0.3c1.3,0,2,0.2,2.5,0.3
		c-2.8-0.3-0.6,0.6-5.7,0.3c0.5,0.6-1.9,0.5-1.9,0.9c1.6,0.3,4.2,0.2,5,0.6c-4.9,0.5-7.9,0.3-10.9-0.3c0.9-0.2,3.3,0.2,3.1-0.2
		c-3.5,0.2,2.2-0.6-1.3-0.5c-1.9,0.6-4.1,0.6-6.3,0.9c1.3-0.6-2.8,0.5-3.8-0.5c-1.1,0.2-1.3,0.5-2.5,0.6c-5-0.9-14.6-0.8-19.7-1.1
		c0.9,0.2,2.8,0.2,2.5,0.6c-0.6,0-0.8,0.2-1.3,0.2c-2-0.6-6.1,0.2-7.1-0.8c-3.3,0-3.1,0.2-5-0.2c-0.5,0.3,0.3,0.8-3.1,0.6
		c0.2-0.3,1.7-0.3,1.9-0.6c-5,0-14,0.6-17.2-0.3c-8,2.5-21.2-0.9-27.9,0.9c0-0.2-1.1-0.2-1.3-0.3c1.6,0.2,2.2,0,1.9-0.5
		c-3.1,0-3.1,0-7.6-0.3c0.9,0.9,6,0.8,7.7,1.4c-1.4,0.3-4.6,0.2-6.9,0.2c3.1-1.4,8.8-1.4,10.5-1.4c0.2,0,0.3-0.5,1.3-0.5
		s1.7,0.5,2.5,0.5c4.2,0.2,10.4-0.6,12.7,0.3c-2.2-0.2-3.3,0.2-3.8,0.5c10.5-0.3,17.2,0,29.1-0.2c0,0.2-0.5,0.2-0.6,0.3
		c4.1-0.3,8.7,0.2,13.2-0.5c-0.2,0.2-1.1,0.3-1.3,0.5c2.7-0.2,4.7-0.5,6.9-0.6c-1.3,0.3,2.2,0.5,2.5,0.9c-0.2-0.3,0.5-0.5,1.9-0.5
		c1.4,0.2-0.8,0.3,0.6,0.5c3.3-0.2,6.9-0.3,9.4-0.6c0,0.3-3.1,0.5-1.3,0.8c3.9-0.8,14.6,0.3,18.4,0.5c-1.9-0.2,1.9-0.5,2.5-0.2
		c0.8-0.5-2.5-0.5-0.6-0.6c0.9,0.6,5,0.2,5.7,0.5c0.9,0.6-2.2,0.2-1.9,0.5c2.5,0.3,5.5,0.6,9,0.8c-6,0.8-17.6-0.5-26,0.8
		c0.6,0.3,2.8-0.2,3.8-0.2c0.5,1.1,2.2,0.2,3.8,0.5c-1.6,1.3-6.8,0-9.4,0.3c0.8,0,1.6,0,1.3,0.3c-0.6,0-0.8,0.2-1.3,0.2
		c-3.9-0.2-11-0.6-11.3,0.2c-3.1,0-5.5-1.1-8.3-0.8c3.3,0.3,6.3,0.6,7.7,1.4c0,0.2-4.6,0.2-2.5,0.3c4.6-0.5,6.3-0.5,10.7-0.5
		c-0.5-0.3-3.1,0-2.5-0.5c1.9,0,4.9-0.2,5,0.3c-1.9,0.3,0.9,0.8,1.3,0.5c-1.7-0.2,0.5-0.6,1.3-0.6c0.2,0.2,1.6,0.2,2.5,0.2
		c0,0.3,0.2,0.5,0.6,0.6c1.9,0,3-0.2,4.4-0.3c8,0.8,19.4-0.9,27.1-0.5c1.6-0.5,4.7,0,4.6-0.5c0.8,0.2,4.2,0.5,4.4,0.2
		c-0.5-0.3-3,0-3.1-0.3c0.2-0.2,0.6-0.3,1.3-0.3c1.7,0.5,1.9,0.2,3.8,0c0.6,0.2,1.3,0.3,1.9,0.5c3.9-0.3,5.7-0.2,9.4-0.3
		c0,0.2-0.3,0.3-0.6,0.5c1.7-0.2,3.1-0.2,4.4,0.2c-1.9,0.2-3.1,0.5-4.4,0.8c2.8-0.3,7.2-0.2,8.2-0.8c-1.1-0.2-2.7,0.5-3.1,0
		c1.9-0.2,3.6-0.3,5-0.6c0,0.3,0.6,0.3,1.9,0.3c-1.4,0.5,0.8,0.9,2,1.1c0.3-0.6-1.4-0.6-1.4-1.1c3,0.2,0.6-0.3,1.9-0.3
		c3.3-0.2,3.6,0.6,6.3,0.6c-0.8,0.5-3.3,0.6-4.4,0.9c3.6,0.2,3.9-0.6,6.9-0.6c0,0.5-1.1,0.5,0.6,0.6c3.9-0.9,12.1-0.6,17-0.8
		c-0.9-0.3-1.9,0.3-2.5-0.2c0.2-0.2,1.4-0.2,1.9-0.3c0.3,0.3,2.5,0.3,1.9,0.9c3.5-0.6,7.4-0.2,12-0.3c0.6,0.2,1.6,1.1,3.1,0.6
		c-0.8,0-1.6,0-1.3-0.3c2.7-0.2,4.6-0.2,8.8-0.2c0.5,1.1,5.7,0.9,8.3,1.6c1.4-0.2-0.8-0.3,0.6-0.5c6.6,0.8,10.5,0.6,19,1.1
		c-4.1,0.3,3.9,0.2,1.3,0.6c2.5-0.3,6.9-0.6,9-0.5c-0.5-0.2-0.3-0.6,0.5-0.6c1.3,0.3,0.2,0.6,2.5,0.3c-0.3,0.6,0.3,0.9,1.9,0.9
		c0.9-0.2,0-0.6,1.3-0.6c2,0.3,2.5,0.2,3.8,0.3c-0.9,0.2-1.6,0.3-1.9,0.5c2-0.2,1.1,0.3,0.6,0.5c1.9,0.2,3.9,0.3,5,0.6
		c0-0.8-1.7-1.1-0.2-1.7c-2,0-1.7-0.8-2.5-1.1c9.3-0.2,21.7,0.5,29.9,1.6c-1.3,0.5-1.1,0.9,0.8,1.4c3.6-3,15.9,0.5,24.1-0.9
		c0.8-0.9-0.6-0.9-0.8-1.9c5,0.2,6.1-0.8,8.2-1.3c3.8-0.3,5.4-0.2,9.4-0.3c0.2,0.2,0.2,0.3,1.3,0.3c1.7-0.2-1.7-0.3-0.6-0.8
		c4.2-0.2,5.4-1.6,9.4-1.3c-1.3-0.8,0-1.4,0.5-1.7c0,0.2,1.7,0.2,1.9,0c-0.9,0,0-0.2,1.3-0.2c-1.4,0.3,3.3,1.3,3.8,0.5
		c-2.2-0.3-6.3-0.6-4.6-1.4c-2.2,0.2-3.3-0.2-3.8-0.5c0.8-0.3,1.6-0.5,2.5-0.6c-0.6-0.3-1.7-0.5-2.5-0.8c2.8-0.5,10.1-0.9,13.4,0.2
		c2.5-0.2,5.2-1.6,7.6-0.5c-0.9,0-2.8,0.3-3.8,0.8c2.5,0,5.7-0.9,7.6-0.2c-5.2,1.1-13.4,1.7-20.8,1.4c4.7,0.8,13.4,0.2,19.7-0.6
		c2.7,0.3,8.7,0.2,12-0.3c1.4,0.2,1.7,0.5,3.1,0.6c4.7,0,15.6-1.6,15.3,0.3c2.2,0.3,0.3-0.5,1.9-0.5c1.1,0.2,2.2,0.3,1.9,0.8
		c-6.1,1.4-14.8,2.2-21.2,3.6c1.7,0.5,4.4,0.6,4.6,1.4c14,0,19-3.8,33.4-3.8c-2.2-1.4,3.8-2.2,0.5-3.5c1.1,0,2,0,2.5-0.2
		c-0.8-1.3-1.9-2.2,1.1-3c0-0.3-1.7-0.2-1.9-0.3c2.2,0,1.7-0.6,2.5-0.9c-0.5-0.2-2.4,0-2.5-0.3c-2.8-3.5-6.8-5.2-12.6-9
		c-5-0.8-7.2-2.2-12.3-3c1.6-0.6-3.1-1.4-1.4-2c-1.4,0-2.4,0-2.5-0.3c1.4,0,2.4,0,2.5-0.3c-3.1,0.2-1.3-0.8-1.3-0.8
		c-1.9-1.3-7.1-2.2-8.5-3.6c6.8-0.6,13.4,1.4,19,0.6c2.2,0.5,6,0.5,6.5,1.4c-2,0-3.8,0.2-3.8,0.6c4.4,0.6,9,1.1,15.3,1.3
		c0.9,1.4,9.3,0.9,14,1.4c0,0.3-1.7,0.2-1.3,0.6c6.8-0.3,15.3,0,22.2,0.5c2.7,1.9,16.8,1.4,17.3,3.3c3,0.2,6.3,0.3,7.7,0.9
		c-0.8,0.8-3.1,1.3-2.4,2.4c1.7,0.8,6.9,0.8,9.6,1.4c0.2-0.6,3.9-1.1,6.3-0.6c-0.5,0.3-1.9,0.3-2.5,0.6c2.5,0.9,2,1.7,3.9,2.7
		c2,0,5.4-0.3,5.7,0.5c-1.1,0.2-2.7-0.5-3.1,0c2,0,1.9,0.6,3.8,0.6c0-1.1,2.5,0,3.8,0c1.7-0.3-0.3-0.8,1.3-1.3
		c7.9-0.2,13.7,2.8,19,1.4c-0.8-0.2-2.8-0.2-4.4-0.2c-4.2-1.3-9.8-2.4-15.4-3.3c0.2-0.2,0.9-0.3,0.6-0.6c-2.2,0.2-3.3,0.5-5.7,0.5
		c-0.9-0.3-1.7-0.6-4.4-0.5c2.5-0.8-2-0.6-2-1.3c2-0.3,1.7-0.3,1.3-0.9c1.3,0,0.8-0.5,2.5-0.3c5.7,0.3,12.3,0.8,19.7,0.9
		c-2.8-1.1-9-1.3-13.4-1.9c0.8-1.4-1.6-1.9-5.2-2.8c-2-0.2-0.5,0.5-2.5,0.3c-1.9-1.6-8-2.8-6.6-4.7c7.9,0.2,7.7-1.7,15.7-1.6
		c0.2-0.6,2.5-0.8,3.1-1.4c-0.2-0.3-1.3-0.5-1.9-0.6c0.5-0.5,1.9-0.6,3.1-0.8c1.9-2-6.3-1.6-6.6-3.1c5.5-0.5,13.7-0.2,17.6-0.9
		c-2.5-0.2-3.5-1.3-1.4-1.6c-3.5-0.5-3.9-1.7-7.7-2.2c-6.3,0.8-5.8,2.7-13.1,3.3c-4.2-2.5-22.8-2-28.6-2.5c0.8,0,1.3,0.2,1.3,0.5
		c-3,0.2-4.6-0.2-6.3-0.3c0.5,0.6-3.1,0.3-3.8,0.6c0.9,0.2,2,0.2,1.9,0.6c-9.9,0-15.3,0.9-25.3,1.3c-0.2,0.2,0.2,0.5-0.6,0.5
		c-13.5-0.2-22.3,0.8-34.8,1.1c-0.2,0.2,0.2,0.5-0.6,0.5c-2.7-0.3-6-0.3-7.6-0.3c0.5,0,0.8,0.2,0.6,0.3c-9.8-0.2-22.7,0.6-24.9-1.6
		c0.9,0.2,1.6,0.2,1.9-0.2c-1.9-0.2-5.2-0.8-3.3-1.4c-3.3,0.2-5.4-0.8-3.9-1.3c-0.2-0.2-0.9-0.3-0.6-0.6c-2-0.2-1.3-0.2-2.5,0.2
		c0-0.2-0.3-0.3-0.6-0.5c0.9,0,2.2,0,1.9-0.3c-4.2,0.2-0.9-0.6-2.7-1.1c-2.4,0.2-1.6,0.9-5,0.8c1.4-0.3-0.3-0.6,0-1.1
		c0.3,0,2.5,0.3,2.5,0c-1.6,0-1.1-0.6-1.9-0.8c-1.1,0-2,0-2.5,0.2c2.2-0.6-3.3,0-1.9-0.8c4.2,0.5,7.7,0.2,12-0.2
		c1.7,1.1,9.1,0.6,10.9,1.7c-0.8,0.2-1.4,0.2-1.9,0.3c1.4,0.2,1.6,0.5,2.5,0.8c6.9-0.2,7.9,2.4,15.4,2.5c0.2-0.8,3.3-0.9,6.3-0.6
		c0-0.8,2-0.6,4.4-0.5c-1.4-1.4,5.4-1.7,3-2.8c0.8,0.2,2.4,0.2,2.5-0.2c-0.5-0.3-3.1,0-2.5-0.5c0.2-0.2,1.6-0.2,2.5-0.2
		c-0.5-1.7-7.7-1.6-10.2-2.7c9.9-0.9,14.8,1.4,22.8,0.8c0,0.2,0,0.5,0,0.6c7.7,0.5,7.4-2,13.8-1.7c3.3-0.9,7.6-1.7,13.2-2
		c-0.6-0.2,3.9-0.5,4.4-0.9c10.5,0,0-3,1.6-3.9c-2-0.6-4.9-0.9-5.8-1.9c2.4,0,1.9-0.3,0.6-0.5c0.8,0,1.7,0,2.5,0
		c-0.2-0.9,2-1.1-0.8-1.6c-6.1,0.5-12-0.2-14.6-1.6c0.9,0,0.5-0.5,1.9-0.3c0.5-0.8-3.1-0.3-3.3-0.9c4.4,0.2,4.9,1.4,9,1.7
		c-0.5-0.5,0.9-0.5,0.6-0.8c-1.3,0-1.4,0.2-2.5,0.2c1.3-0.3-1.3-0.5-1.3-0.9c-2.7,0-2.4-0.3-5-0.5c-0.3,0.3-3.6,0.5-4.4,0.2
		c3.9,0-1.1-0.5,1.9-0.6c-5.5-0.2-7.1-0.6-10.2-0.6c2-0.2,3.6-0.6,3.8-1.3c-1.7,0.2-1.3-0.3-1.9-0.5c-8-0.3-11.5-1.9-21.1-2.2
		c2.5-0.9,8.3-0.3,14.5-0.6c0.9-0.5,2.7-0.8,2.4-1.6c-6.8,0.2-15.4-1.1-22.8,0c-4.2-0.9-14.2,0.6-21.6,0.3c-2.8-0.2-9.8,0-11.3,0.9
		c-9,0-18.4,0.5-29.7,0.6c-0.8-0.5,1.9-0.6-0.6-0.6c-3.1,0.8-10.7,0.3-13.8,0.8c10.7,0.2,20.3,0.5,31,0.3c0.2,0.2,1.1,0.3,1.3,0.5
		c-6.8-0.3-15.7,2-14.5,0.8c-0.6,0.2-3.3-0.5-5.7-0.3c-1.4,1.4-6.6,0-10.7,0.2c0.2,0.5-2.5,0.2-1.9,0.6c0.2,0.5,2.5,0.5,2.5,0.9
		c-3.8,1.1-8,0.3-13.8,0.5c-0.3-0.2-0.8-0.3,0-0.5c-1.6,0.2-6,0.5-5.7-0.3c3.1-0.3,1.1,0,3.1,0.2c1.3-0.6-0.2-0.9-1.9-1.1
		c1.9-0.3,1.7-1.1,4.4-1.3c-1.3,0-2.2-0.2-2.5-0.3c0.5-0.3,2.4-0.3,2.5-0.8c-2.4,0.2-5.4,0.2-8.2-0.3c0.2,0.8-3.9,0.6-5,0.5
		c0.8-0.5,2.5-0.5,4.4-0.3c-1.3-0.8,2.5-0.2,1.9-0.8c-2.5-0.2-9.3,1.7-12.6,0.3c5.7,0.3,6.8-0.6,10.1-0.9c0.8-0.9-0.2-1.3-2-1.6
		c0,0.2,0,0.3,0,0.5c-1.3,0-1.7-0.2-2.5-0.2c0.3-0.2,0.8-0.3,0-0.3c0.2-0.5,1.1,0.2,2.4,0c-1.1-0.2-2.4-0.2-3.8-0.3
		c1.1-0.5,2.5-0.8,5.5-0.8c-0.2,0.2-0.9,0.3-1.3,0.5c3.3-0.2,6.9-0.5,7.6-0.8c3,0.3,2.4,0,4.4-0.2c3.3-0.2,8.5,0.3,10.1-0.5h-0.2
		c1.6,0.2,3.6,0.5,4.9,0.2c0.3,0.2,0.8,0.3,0,0.5c4.7-0.9,8.2,0.9,14,0.5c-2.7-0.2,2.4-0.9-2.5-0.8c-0.8,0.3,1.7,0.6,0,0.6
		c0.2-0.9-5.2-0.8-7.1-1.6c-3.3,0.8-6.8,0.2-11.2,0c0.2,0,0.2-0.2,0.3-0.2c-0.3-0.2-0.9-0.2-1.6-0.2c-0.6-0.3-1.6-0.8-2.7-0.5
		c1.7,0,0.9,0.2,0.2,0.5c-2,0-4.1,0-4.2-0.5c1.3,0,2.5,0,3.8,0c0-0.5-3.3-0.5-1.3-0.9c-0.9,0.2-3.3-0.2-3.1,0.2c1.4,0,2,0.2,1.9,0.5
		c-0.9,0-2.7,0-4.2,0c-0.2-0.3-0.5-0.3-0.2-0.5c5.2-0.5,12.9-0.5,17.2-0.5c0.5-0.3,0.8-0.6,1.9-0.8c-3,0-5.8,0-2.5,0.3
		c-2.4,0-2.8-0.3-3.8-0.6c4.6-0.8,3.6,0.2,7.6,0c-2.2-0.2-3.1-0.3-1.3-0.8c-5.7-0.3-13.1-0.5-17.2-0.3c-1.4-0.8-5.8-0.5-9.3-0.5
		c0-0.2,0.2-0.3,0.6-0.5c-1.1,0-1.7,0.2-2.4,0.3c-1.4-0.2-2.5-0.3-2.8-0.8c-2.5,0-0.9,0.9-3.8,0.8c-2-0.2-3.6-0.6-5.8-0.8
		c-1.1,0.3-2.8,0.3-4.2,0.2l0,0c-0.5,0-0.8-0.2-0.6-0.3c-0.5,0-0.8,0-1.1,0c-0.2,0-0.3-0.2-0.3-0.2c0.8,0,0.6-0.2,1.1-0.3
		c0.3,0,0.5,0.2,0.5,0.3c0.9,0,2,0,2.8,0c2.8,0.2,6.6,0,8.3-0.3c-2.2,0-4.9-0.2-7.4-0.2l0,0l0,0c-2.5,0-5,0-7.1,0.2
		c0.8,0,1.7,0,1.9,0.2c-1.9,0-1.9,0.3-3.8,0.3c-0.3-0.3,1.1-0.5,0.2-0.5c0.5,0,0.9,0,1.3,0c-0.8,0-0.6-0.3-0.6-0.5
		c4.7,0,6.3,0,8.8-0.3c0,0.2-0.5,0.2-0.6,0.3c7.1-0.2,13.2-0.3,17.8,0c0.6-0.2,0.9-0.5,1.9-0.6c1.6,0.5,2,0.2,3.1-0.2
		c1.3,0.3,0.8,0.9,2.5,0.6c-2.2-0.5,2.5-0.5,3.8-0.6c0,0.3,1.7,0.2,1.3,0.6c0.2,0.3-1.9,0.2-1.9,0.5c4.2,0,4.1-0.5,4.4-1.3
		c-1.6-0.3-4.1-0.3-5.7-0.5c-1.1,0.9-8,0.3-9.4,0c0.8,0,0.6-0.3,1.3-0.3c0.2,0.2-0.2,0.5,0.6,0.5c3.6-0.9,7.6-0.5,12.6-0.3
		c-1.6-0.6,1.1-0.5,1.3-1.1c-5,0-10.1,0.2-14.6,0c2,0.3-1.9,0.5-2.5,0.6c-1.3-0.2-4.9-0.6-5.7-0.5c0.8,0,0.6,0.3,0.6,0.5
		c-2.7-0.6-6.6-0.3-10.2-0.6c3.9,0,2-0.3,5-0.5c-2.8-0.2-4.4-0.5-6.3,0.2c0-0.2,0-0.3,0-0.5c-6,0.5-15.3-0.5-22.8,0.2
		c-0.2-0.2,0-0.5-0.6-0.5c-6.6,0.6-16.4-0.5-19.7,0.2c-0.3-0.6,2.8-0.8,4.4-0.5c-0.5-1.1-4.1-0.3-5.7-0.2c0.2,0-0.2-0.3,0-0.3
		c-2.5,0.2-3.6,0.9-6.3,0.9c-3.5,0.2-4.4-0.8-9-0.5c1.4,0.8-4.7,0-6.3,0.5c6.8,0-7.6,0.8-7.6-0.3c2,0,2.4-0.3,3.8-0.5
		c-3.5,0-1.9-0.2-2.5-0.8c-2.8,0.2-3.1-0.3-5-0.3c0.3,0.5,2.8,0.5,3.8,0.8c-0.9,0-1.4,0.2-1.9,0.2c-1.4-0.2-2.5-0.9-3.8-0.3
		c0-0.3-0.2-0.5-0.6-0.6c10.2-0.5,13.8-0.6,23.4-0.2c5.7-0.5,11.8,0.5,17.8-0.3c0.2,0.3,2,0.2,1.9,0.5c7.9-0.5,16.4,1.1,22.8-0.2
		c-1.7,0-4.4,0.2-4.4-0.3c2,0,10.9-0.5,9,0.6c1.6-0.2,2.8-0.3,5-0.2c0.9-0.6-3.3,0-3.1-0.5c2.8-0.2,9.3-0.5,11.5,0.5
		c11.5,0,20.3-0.3,27.9,0.5c0.3-0.8,1.3,0.3,2.5,0.3c1.6-0.2-0.6-0.8,0.6-0.8c0.6,0,0.8-0.2,1.3-0.2c2.4-0.2,2.2,0.3,3.8,0.5
		c0.8-0.5,3.9-0.3,6.3-0.3c0.6,1.3,5,0.5,7.6,0.5c10.4,0.2,24.1,0.6,32.4,0.5c-6.5-0.5-8.7,0-14-0.8c-7.6,0.6-17.2-0.2-25.3,0
		c0-0.5-1.1-0.5-1.3-0.8c0.8-0.3,2.4-0.3,3.1-0.5c-2.5-0.3-9.1,0.6-13.4-0.3c-0.3,0.5-2.4,0.3-3.8,0.2c-2,1.1-11.5,1.1-15.1,0.8
		c0.2-0.3,5.8,0,3.8-0.3c-1.9,0-3.9,0-3.8-0.5c1.1-0.2,3.8,0.2,3.8-0.2c-2-0.2-6.1,0.2-5.2-0.9c-2.7-0.2,0.9,0.6-1.9,0.6
		c-0.2-0.2-0.5-0.2-1.3-0.2c-0.8-0.8,1.1-0.8,1.9-1.1c-2.8-0.5-3,0.3-3.1,0.5c-2-0.5,1.6-0.6,0-0.9c-2.7-0.3-5.7-0.3-6.9-0.3
		c0.8,0,0.9,0.2,1.3,0.3c-1.1-0.2-2.7,0.5-3.1,0c0.8,0,1.7,0,1.9-0.2c-3.6-0.5-9.3,0-11.5-0.8c-1.6,0.2,1.1,0.5-0.6,0.6
		c-3.6,0.3-3.3-0.5-5.7-0.6c-0.3,0.2,0.8,0.8-0.6,0.8c-2.2,0-6.1,0.3-5.7-0.5c0.6-0.2,4.9-0.2,3.1-0.3c-3.6,0.3-6,0-7.6,0.6
		c-2.5-0.2,0.5-0.8-1.9-0.9c-0.9,0.2,0,0.6-1.3,0.6c-0.8-0.3-7.6-0.9-4.4-0.3c-2.7-0.2-3.1-0.2-6.9-0.2c-0.2,0.2,0.3,0.6-0.6,0.6
		c-10.7-0.5-19.8,0.2-29.1-0.2c-0.2,0.3,0.9,0.5,0,0.5c-3.6-0.3-6.5-0.5-8.8,0.2c0-0.2,0.3-0.3,0.6-0.5c-2.5,0.3-6,0-8.2-0.3
		c1.7-0.6,5-0.2,5.7-1.1c-4.4,0.2-6.3,1.4-11.3,1.1c-0.8,0.3,1.7,0.6,0,0.6c-1.9-0.2-2.5-0.2-3.8,0.2c0-0.5-1.9-0.6-3.1-0.8
		c-5,0.6-9.9-0.5-14.5,0.5c-10.1-0.5-24.9-0.2-32.9,0.5c-0.6-0.3-3.6-0.2-3.1-0.8c-3.6,0.6-5.7-0.3-8.2,0.3c0.8,0,1.6,0,1.3,0.3
		c-1.6,0.2-1.7,0.2-4.4,0.2c-0.2-0.3,0-0.5-1.3-0.5c-2,1.1-7.1,0-10.1-0.2c-0.2,0.3,0.9,0.3,1.3,0.5c-2.5,0.2-7.1,0.2-7.7-0.6
		c1.6-0.2,2.2,0.6,3.1,0.2c-0.9,0-0.8-0.3-1.3-0.5c-6.8,0.9-16.4,0.6-20.9,0.6c-1.6,0-2.4,0.5-3.1,0.5c-2,0-3.6-0.8-6.9-0.5
		c0.6,0-0.9,0-2.5,0c-0.6,0-7.2,0.3-8.8-0.3c-0.3-0.5,4.9-0.3,3.1-0.5c-2.2,0-3,0.3-5,0c0.5,0.8-3.3,0.6-4.4,0.3
		c2-0.3,4.9-0.3,5.7-0.8c-3.9,0.3-11.2,0.9-10.9-0.5c0,0.2-1.1,0.2-1.3,0c2.5-0.5,1.6-0.8,3.8-1.1c-8,1.4-14.8-0.8-22,1.3
		c-0.2-0.3,0.6-0.3,0.6-0.6c-2,0-1.7,0.5-4.4,0.3c0.2-0.3-0.8-0.3-0.6-0.6c-1.6,0-3.5,0.2-4.4,0.3c2.8-0.2,4.1,0.3,4.6,0.8
		c-4.2-0.2-6.3,0.5-10.2-0.3c2.5,0.2,1.9-0.5,4.4-0.3c-0.6-0.3-0.3-0.9-2.5-0.9c-0.2,0.2,0.3,0.6-0.6,0.6c0.3-0.8-7.9-0.9-11.5-0.9
		c-0.6,0.6,1.6,0.5,1.3,0.9c-0.2,0-0.5-0.2-0.9-0.2v-0.2c-1.1,0-1.6,0-2.2-0.2c0.3-0.2,0-0.3-0.2-0.6c-2-0.2-0.8,0.5-2.5,0.5
		c0-0.6-3.3-0.3-3.8-0.8c-2.7,0.5-3.6,0.2-3.1-0.3c-2.4,0.5-3.3,0.3-5,0.8c-1.1-0.3,0-0.2,0-0.6c-2.7,0.2-2.4,0.2-4.4-0.2
		c-0.9,0.2-1.6,0.5-2.5,0.6c-1.1-0.3-2.5-0.2-0.6-0.5c-6.9-0.3-9.3,1.6-12.6,1.1c-0.2,0.6-1.1,0.8-2.2,0.8c-0.9-0.5-4.7-0.6-8.2-0.6
		c0.2,0,0.2-0.2,0.3-0.2c-1.4,0.3-3.5,0-3.8,0.2c0.2,0,0.5,0,0.6,0c-0.9,0-1.7,0.2-2.5,0.2l0,0c-3.5,0.6-7.7,0.5-11,0.5
		c0.5-0.2,1.4-0.3,1.3-0.3c-1.3-0.3-3.1,0.2-5-0.5c-0.2,0.3,0.8,0.3,0.6,0.6c-1.3,0-1.3-0.5-2.5-0.5c-1.9,0.3-3.9,0.6-6.1,0.6
		c-0.3,0-0.5,0-0.3,0c-0.5,0-0.9,0-1.4,0c-1.3-0.2-2-0.3-3.1-0.2c0.5,0,0.8,0,0.9,0.2c-0.2,0-0.5,0-0.6,0c-0.2-0.2-0.8-0.2-1.6-0.2
		c-0.2,0-0.3,0.2-0.5,0.2c-6.8,0-13.8-0.3-20,0.3l0,0c-0.2-0.2-0.3-0.2-0.5-0.3c5,0.6,8.3-1.4,11.3-0.2c0-0.9,2.2-0.3,5-0.6
		c-0.8-0.5,0.9-0.3,1.3-0.6c-3-0.2-1.7,0.2-2.5,0.3c-0.6-0.2-2.4,0-1.9-0.5c0.8,0,1.7,0,1.9-0.2c-2.7,0.2-3.9,0-4.4-0.5
		c-3.3,0.3-5.7,0-12.6,0.2c-1.1,0.3,0.9,0.5-1.3,0.6c-8.3-0.6-15.7,0.8-22.2,0.5c-0.8,0.3-0.2,0.5-0.2,0.8c-0.8,0-1.6,0-2.4,0
		c-0.5-0.2-0.2-0.5,0.2-0.8c-5.8,0.6-9.6-0.3-15.9-0.2c-2.5,1.4-11.3,0.2-15.1,1.1c0.5,0,0.8,0,1.3-0.2c-0.6,0.2-1.3,0.2-1.9,0.3
		v-0.2c-0.8,0.2-1.4,0.2-2.2,0.2c-0.6-0.2-1.6-0.2-2.7-0.2c-0.8,0-1.4-0.2-1.9,0c-0.5,0-0.9,0-1.4,0c-1.9-0.6-7.9-0.6-11.5-0.3
		c0.6,0-0.9-0.2-2.5-0.2c-8.3,0.2-18.7,0-26.6,0.8c-0.2-0.3,0-0.6-1.3-0.5c0,0.5,0,0.8-1.9,0.8c-0.5-0.3,1.7-0.5-0.6-0.5
		c-0.6,0.3-1.9,0.5-3.1,0.2c-1.4,0.2,0.8,0.3-0.6,0.5c-1.3,0-2-0.2-2.5-0.3c0-0.3,1.6-0.2,1.3-0.5c-2.4,0.3-2.8,0.2-5.7,0.5
		c0,0.3,0.8,0.3,1.4,0.3c-0.6,0.3-2,0.3-2.8,0.5c0-0.2-0.2-0.2-0.3-0.2c0.3-0.2,0-0.3-0.6-0.5c0,0,0.2,0,0.2-0.2c-0.2,0-0.3,0-0.5,0
		c-1.6-0.3-4.7-0.6-6.3-0.8c1.3,0,0.8-0.5,2.5-0.3c2.7,0.3,6.3,0.3,8.2-0.3c1.3,0.2,1.4,0.3,0.6,0.5c7.4-0.5,12.9-0.2,19.5-1.1
		c-1.6,0.6,6.3,0.3,4.4-0.2c8.7,0.5,22,0.2,29.7-0.9c-3.1,0.3-8.8-0.3-11.3,0.3c1.4-0.6-2.8-0.2-3.1,0.2c0-0.2,0-0.3,0-0.5
		c-27.2,0.2-57.4,0.6-81,0.5c-2.5,0.6-11.3-0.2-13.8,0.9c-3.5-0.3-4.7-0.5-8.2-0.2c1.4-0.9-3.9,0-3.1-0.8c-2.8,0.3-6.3-0.5-7.6,0.2
		c3.9,0.2,6.5-0.3,7.6,0.5c-3.8-0.2-7.7,0.3-10.2-0.5c-2.8,0.2-8.3,0.8-10.7,0.2c-0.3,0.8-3.5-0.2-5,0.3c-0.2,0.3,0.9,0.5,0,0.5
		c-2.5,0.3-5.5-0.3-7.6,0c0.8,0,1.6,0,1.3,0.3c-1.9,0.2-1.9-0.3-3.8-0.2c-0.2,0.5,2.8,0.3,3.8,0.5c1.3-0.5,8.5-0.6,9.4-0.2
		c-2.2,0.3-2.8,0.6-5,0.2c-0.5,0.5,1.3,0.3,1.3,0.6c2,0,2.2-0.5,4.4-0.5c-0.3,0.5-1.7,0.6-2.5,0.9c2.4,0,1.7-0.6,3.8-0.6
		c0.5,0.2-0.6,0.3-0.6,0.5c-1.6,0.2-3.1,0.3-4.6,0.3c-0.6-0.2-1.1-0.5-1.9-0.6c-2.8,0.6-5.2,0.3-7.7,0c0.9,0,1.9,0,2.8,0
		c0.9-0.5-3.8-0.5-3.3,0c-1.4-0.2-2.8-0.3-4.6-0.2c-0.2-0.5,2.5-0.2,1.9-0.6c-6.5,1.3-17.5,0.3-26.6,0.8c-0.2-0.5,3.6,0.2,2.5-0.5
		c-6.6,0.5-18.9,0-27.2,0.5c1.9-0.5-2.4-0.2-2.5-0.6c5.5-1.1,11.5-0.2,18.9-1.1c-0.3-0.2,0.6-0.8-0.6-0.8c-1.9,1.4-9.9,0.6-15.1,1.1
		c-0.3-0.3-2-0.2-1.3-0.6c-0.6,0.2-1.3,0.2-1.9,0.3c0-0.2-0.2-0.2-0.3-0.3c-0.6,0-1.3,0-1.9,0c-0.2,0.2,0.3,0.3,0.6,0.5
		c-0.8,0-1.6,0.2-2.5,0.2c-0.3-0.3-0.3-0.3,0-0.8c-3.9,0.5-9.8,0.2-11.2-0.5c0,0-0.2,0-0.2-0.2l0,0c0,0,0.2,0,0.2,0.2
		c0.5,0,1.1-0.9,2.7-0.5c-0.2,0-0.5,0.2-0.6,0.2c0.8-0.2,1.7-0.3,2.8-0.3c0.5,0.2,0.8,0.2,1.1,0.3c1.4,0,2.7-0.2,3.8-0.3
		c0,0.2,0,0.2,0.2,0.3c-1.7,0-3.9,0-4.7,0.2c3,0,5,0.2,6.9,0c-0.5,0-0.8-0.2-0.6-0.3c-0.3,0-0.6,0.2-1.1,0.2
		c0.2-0.5,1.9-0.3,3.3-0.2c-0.5,0-0.8,0.2-0.9,0.3c2.7-0.3,2.4,0.3,3.8,0c-0.8,0-0.5-0.2,0-0.3c-0.8,0-1.4,0-2.2,0
		c-0.6-0.2-1.6-0.3-2.4-0.3c0.3,0,0.5,0,0.8-0.2c-0.5,0-0.9,0-1.4,0c-0.9-0.2-1.7-0.3-2.2-0.5c-0.5,0.5-1.1,0.2-3.1,0.2
		c-0.2-0.2,0-0.3-0.5-0.5c0.8-0.2,1.6-0.5,1.4-0.6c-0.8-0.2-2.4-0.2-2.5,0.2c0.8,0,1.6,0,1.3,0.3c-0.5,0-0.8,0-1.3,0
		c0,0.2,0,0.2,0,0.2c-0.9,0-2.5-0.2-3.6,0.2c1.3,0.2,1.4,0.3,0.6,0.5c-3.1-0.2-6.8,0.3-10.2-0.5c-0.3,0.9-2.7,0.5-5,0.3
		c-0.2,0.2,0.2,0.6-0.5,0.6c-0.2,0-0.3,0-0.5,0c-0.8-0.2-0.9-0.3-1.3-0.5c3.6-0.2,6-0.6,9.6-0.6c-3-0.5-4.7-0.2-7.6-0.3
		c0-0.2,0.3-0.3,0.6-0.5c-9.1,0-15.3,0.2-22.2-0.8c-0.2,0.2,0.2,0.5-0.6,0.5c-4.1-0.6-11.6-0.3-15.9-0.3c0.8,0,1.6,0,1.3,0.3
		c-2.8,0-6.1,0.2-6.3-0.5c-1.4,0-0.6,0.6-2.5,0.6c-2-0.3-2.8-0.9-5.2-1.3c2,0.6-8.5,0.9-5.7-0.2c-3.9-0.2-6.1,0.3-9-0.5
		c-1.1,0.3-2,0.6-3.8,0.8c0.3,0.8,0,1.1-0.2,1.6c-2.4,0.2-4.7,0.2-5.2,0.6c1.6-0.3,4.1-0.2,4.9,0.2c0,0.2,0,0.3,0,0.6
		c3.3-0.3,5.8-0.5,6.9,0.5c0.6-0.5,5.8-0.5,6.9,0c4.2-0.9,10.2,0.3,17.2,0.2c-0.3,0.8,2,0.2,3.1,0.8c-2.4,0-4.2,0.2-6.3,0.3
		c0.9-0.5-0.2-0.6-1.3-0.9c-0.8,0.5-4.1,0.3-5,0c-0.8,0.6,2.7,0.3,3.1,0.6c-2.4,0.3-5.4,0.3-7.6,0.6c-1.3-0.9-6-0.8-9-0.5
		c-1.3-0.3-1.3-0.5,0-0.8c-5.8,0.8-13.1,0.5-17.2-0.2c-1.6,1.1-6.8-0.3-8.8,0c0.9,0.2,1.6,0.3,1.9,0.5c-1.9-0.2-1.9,0.3-3.8,0.2
		c0.2-0.6-2.4-0.6-3.8-0.8c-0.6,0.3,1.9,0.5,0,0.6c-5.4-0.2-7.4-0.3-11.3,0.2c-0.6-0.5,0-0.9-3.9-0.9c0,0.3-0.2,0.5-0.6,0.6l0,0
		c-2-0.2-3.8-0.3-5.8,0.2l0,0l0,0c-0.2,0-0.5,0.2-0.6,0.2c-0.9-0.2-2.5-0.2-1.9-0.6c1.3,0,0.5,0.6,2.5,0.5l0,0
		c-0.8-0.8,2.4-0.8,4.4-0.8c-4.1,0-6.6-1.7-8.3-0.6c-6.3-0.3-10.5-0.9-17.2-1.6c0.2-0.2,0.9-0.3,1.3-0.5c-3.3-0.3-5.4,0.8-5.7-0.2
		c3.1,0,6.8,0.2,8.2-0.3c-1.3,0-2-0.2-2.5-0.3c2.8,0.3,0.6-0.6,5.7-0.3c-0.5-0.6,1.9-0.5,1.9-0.9c-1.6-0.3-4.2-0.2-5-0.6
		c4.9-0.5,7.9-0.3,10.9,0.3c-0.9,0.2-3.3-0.2-3.1,0.2c3.5-0.2-2.2,0.6,1.3,0.5c1.9-0.6,4.1-0.6,6.3-0.9c-1.3,0.6,2.8-0.5,3.8,0.5
		c1.1-0.2,1.3-0.5,2.5-0.6c5,0.9,14.6,0.8,19.7,1.1c-0.9-0.2-2.8-0.2-2.5-0.6c0.6,0,0.8-0.2,1.3-0.2c2,0.6,6.1-0.2,7.1,0.8
		c3.3,0,3.1-0.2,5,0.2c0.5-0.3-0.3-0.8,3.1-0.6c-0.2,0.3-1.7,0.3-1.9,0.6c5,0,14-0.6,17.2,0.3c8-2.5,21.2,0.9,27.9-0.9
		c0,0.2,1.1,0.2,1.3,0.3c-1.6-0.2-2.2,0-1.9,0.5c3.1,0,3.1,0,7.6,0.3c-0.9-0.9-6-0.8-7.7-1.4c1.4-0.3,4.6-0.2,6.9-0.2
		c-0.8-0.5-6.6-0.5-8.3-0.5c-0.2,0-0.3,0.5-1.3,0.5c-0.9,0-1.7-0.5-2.5-0.5c-4.2-0.2-10.4,0.6-12.7-0.3c2.2,0.2,3.3-0.2,3.8-0.5
		c-10.5,0.3-17.2,0-29.1,0.2c0-0.2,0.5-0.2,0.6-0.3c-4.1,0.3-8.7-0.2-13.2,0.5c0.2-0.2,1.1-0.3,1.3-0.5c-2.7,0.2-4.7,0.5-6.9,0.6
		c1.3-0.3-2.2-0.5-2.5-0.9c0.2,0.3-0.5,0.5-1.9,0.5c-1.4-0.2,0.8-0.3-0.6-0.5c-3.3,0.2-6.9,0.3-9.4,0.6c0-0.3,3.1-0.5,1.3-0.8
		c-3.9,0.8-14.6-0.3-18.4-0.5c1.9,0.2-1.9,0.5-2.5,0.2c-0.8,0.5,2.5,0.5,0.6,0.6c-0.9-0.6-5-0.2-5.7-0.5c-0.9-0.6,2.2-0.2,1.9-0.5
		c-2.5-0.3-5.5-0.6-9-0.8c6-0.8,17.6,0.5,26-0.8c-0.6-0.3-2.8,0.2-3.8,0.2c-0.5-1.1-2.2-0.2-3.8-0.5c1.6-1.3,6.8,0,9.4-0.3
		c-0.8,0-1.6,0-1.3-0.3c0.6,0,0.8-0.2,1.3-0.2c3.9,0.2,11,0.6,11.3-0.2c3.1,0,5.5,1.1,8.3,0.8c-3.3-0.3-6.3-0.6-7.7-1.4
		c0-0.2,4.6-0.2,2.5-0.3c-4.6,0.5-6.3,0.5-10.7,0.5c0.5,0.3,3.1,0,2.5,0.5c-1.9,0-4.9,0.2-5-0.3c1.9-0.3-0.9-0.8-1.3-0.5
		c1.7,0.2-0.5,0.6-1.3,0.6c-0.2-0.2-1.6-0.2-2.5-0.2c0-0.3-0.2-0.5-0.6-0.6c-1.9,0-3,0.2-4.4,0.3c-8-0.8-19.4,0.9-27.1,0.5
		c-1.6,0.5-4.7,0-4.6,0.5c-0.8-0.2-4.2-0.5-4.4-0.2c0.5,0.3,3,0,3.1,0.3c-0.2,0.2-0.6,0.3-1.3,0.3c-1.7-0.5-1.9-0.2-3.8,0
		c-0.6-0.2-1.3-0.3-1.9-0.5c-3.9,0.3-5.7,0.2-9.4,0.3c0-0.2,0.3-0.3,0.6-0.5c-1.7,0.2-3.1,0.2-4.4-0.2c1.9-0.2,3.1-0.5,4.4-0.8
		c-2.8,0.3-7.2,0.2-8.2,0.8c1.1,0.2,2.7-0.5,3.1,0c-1.9,0.2-3.6,0.3-5,0.6c0-0.3-0.6-0.3-1.9-0.3c1.4-0.5-0.8-0.9-2-1.1
		c-0.3,0.6,1.4,0.6,1.4,1.1c-3-0.2-0.6,0.3-1.9,0.3c-3.3,0.2-3.6-0.6-6.3-0.6c0.8-0.5,3.3-0.6,4.4-0.9c-3.6-0.2-3.9,0.6-6.9,0.6
		c0-0.5,1.1-0.5-0.6-0.6c-3.9,0.9-12.1,0.6-17,0.8c0.9,0.3,1.9-0.3,2.5,0.2c-0.2,0.2-1.4,0.2-1.9,0.3c-0.3-0.3-2.5-0.3-1.9-0.9
		c-3.5,0.6-7.4,0.2-12,0.3c-0.6-0.2-1.6-1.1-3.1-0.6c0.8,0,1.6,0,1.3,0.3c-2.7,0.2-4.6,0.2-8.8,0.2c-0.5-1.1-5.7-0.9-8.3-1.6
		c-1.4,0.2,0.8,0.3-0.6,0.5c-6.6-0.8-10.5-0.6-19-1.1c4.1-0.3-3.9-0.2-1.3-0.6c-2.5,0.3-6.9,0.6-9,0.5c0.5,0.2,0.3,0.6-0.5,0.6
		C5.6,6.6,6.7,6.3,4.3,6.6C4.6,6,4,5.6,2.4,5.6c-0.9,0.2,0,0.6-1.3,0.6C-0.9,6-1.4,6.1-2.6,6c0.9-0.2,1.6-0.3,1.9-0.5
		c-2,0.2-1.1-0.3-0.6-0.5c-1.9-0.2-3.9-0.3-5-0.6c0,0.8,1.7,1.1,0.2,1.7c2,0,1.7,0.8,2.5,1.1C-13,7.4-25.5,6.7-33.6,5.6
		c1.3-0.5,1.1-0.9-0.8-1.4c-3.6,3-15.9-0.5-24.1,0.9c-0.8,0.9,0.6,0.9,0.8,1.9c-5-0.2-6.1,0.8-8.2,1.3c-3.8,0.3-5.4,0.2-9.4,0.3
		c-0.2-0.2-0.2-0.3-1.3-0.3c-1.7,0.2,1.7,0.3,0.6,0.8c-4.2,0.2-5.4,1.6-9.4,1.3c1.3,0.8,0,1.4-0.5,1.7c0-0.2-1.7-0.2-1.9,0
		c0.9,0,0,0.2-1.3,0.2c1.4-0.3-3.3-1.3-3.8-0.5c2.2,0.3,6.3,0.6,4.6,1.4c2.2-0.2,3.3,0.2,3.8,0.5c-0.8,0.3-1.6,0.5-2.5,0.6
		c0.6,0.3,1.7,0.5,2.5,0.8c-2.8,0.5-10.1,0.9-13.4-0.2c-2.5,0.2-5.2,1.6-7.6,0.5c0.9,0,2.8-0.3,3.8-0.8c-2.5,0-5.7,0.9-7.6,0.2
		c5.2-1.1,13.4-1.7,20.8-1.4c-4.7-0.8-13.4-0.2-19.7,0.6c-2.7-0.3-8.7-0.2-12,0.3c-1.4-0.2-1.7-0.5-3.1-0.6
		c-4.7,0-15.6,1.6-15.3-0.3c-2.2-0.3-0.3,0.5-1.9,0.5c-1.1-0.2-2.2-0.3-1.9-0.8c6.1-1.4,14.8-2.2,21.2-3.6c-1.7-0.5-4.4-0.6-4.6-1.4
		c-14,0-19,3.8-33.4,3.8c2.2,1.4-3.8,2.2-0.5,3.5c-1.1,0-2,0-2.5,0.2c0.8,1.3,1.9,2.2-1.1,3c0,0.3,1.7,0.2,1.9,0.3
		c-2.2,0-1.7,0.6-2.5,0.9c0.5,0.2,2.4,0,2.5,0.3c2.8,3.5,6.8,5.2,12.6,9c5,0.8,7.2,2.2,12.3,3c-1.6,0.6,3.1,1.4,1.4,2
		c1.4,0,2.4,0,2.5,0.3c-1.4,0-2.4,0-2.5,0.3c3.1-0.2,1.3,0.8,1.3,0.8c1.9,1.3,7.1,2.2,8.5,3.6c-6.8,0.6-13.4-1.4-19-0.6
		c-2.2-0.5-6-0.5-6.5-1.4c2,0,3.8-0.2,3.8-0.6c-7.1,0.9-11.6,0.3-17.9,0.3c-0.9-1.4-9.3-0.9-14-1.4c0-0.3,1.7-0.2,1.3-0.6
		c-6.8,0.3-15.3,0-22.2-0.5c-2.7-1.9-16.8-1.4-17.3-3.3c-3-0.2-6.3-0.3-7.7-0.9c0.8-0.8,3.1-1.3,2.4-2.4c-1.7-0.8-6.9-0.8-9.6-1.4
		c-0.2,0.6-3.9,1.1-6.3,0.6c0.5-0.3,1.9-0.3,2.5-0.6c-2.5-0.9-2-1.7-3.9-2.7c-2,0-5.4,0.3-5.7-0.5c1.1-0.2,2.7,0.5,3.1,0
		c-2,0-1.9-0.6-3.8-0.6c0,1.1-2.5,0-3.8,0c-1.7,0.3,0.3,0.8-1.3,1.3c-7.9,0.2-13.7-2.8-19-1.4C-269.4,22.5-267.3,22.5-265.8,22.5z
		 M-165.7,71.7c-0.5,0-0.8,0-1.3,0c0.2-0.5-1.6-0.8,1.3-0.8C-166.1,71.4-164.6,71.4-165.7,71.7z M-143.3,74.1c1.3-0.3,2.5,0,3.8,0.2
		C-139.1,74.7-144.4,74.6-143.3,74.1z M-134.7,51.9c0.5-0.2,1.3-0.3,2.5-0.3c-0.2,0.3,0.5,0.3,1.3,0.3
		C-131,52.2-134.2,51.9-134.7,51.9z M-42.4,88.9c-0.6-0.8,3.1-0.3,3.1-0.5C-37.4,88.6-40.6,88.9-42.4,88.9z M645.1,100.5
		c-0.5-0.2-0.9-0.2-1.4-0.3c0.5,0,0.8-0.2,1.3-0.2C644.9,100.4,646.5,100.5,645.1,100.5z M764.8,106.2c0.9-0.3,3.3-0.5,4.4-0.2
		C768.9,106.4,766.1,106,764.8,106.2z M797,103.4c0.5-0.2,0.6-0.3,0.6-0.6c1.9-0.2,1.3,0.5,3.1,0.3
		C800.7,103.4,798.7,103.4,797,103.4z M1082.4,97.9c1.1,0,1.4,0.2,2.5,0.2c0.6,0.5-0.9,0.5-0.6,0.8
		C1083.5,98.5,1082.1,98.3,1082.4,97.9z M1074.2,98.8c0.2-1.3-2.2-1.6,0.5-2.4c2.4-0.2,3,0.3,4.4,0.5c0.6,1.4,0.3,1.4-1.1,2.5
		c-1.7,0.2-5,0-4.4,0.6c-0.8-0.2-2.4-0.2-3.1-0.3C1069.8,99,1072.8,99.1,1074.2,98.8z M1048.4,103c-1.6,0.3-7.1,0.6-7.6-0.2
		C1043.9,103.2,1047.6,102.3,1048.4,103z M1107.8,48.4c0.5,0,0.8,0,1.3,0c-0.2,0.5,1.6,0.8-1.3,0.8
		C1108.2,48.8,1106.7,48.8,1107.8,48.4z M1085.4,46.1c-1.3,0.3-2.5,0-3.8-0.2C1081.2,45.5,1086.5,45.6,1085.4,46.1z M1076.8,68.3
		c-0.5,0.2-1.3,0.3-2.5,0.3c0.2-0.3-0.5-0.3-1.3-0.3C1073.1,68,1076.3,68.3,1076.8,68.3z M1028.6,47.8c0,0.3,0.8,0.3,0.6,0.6
		c-1.6,0-3,0-3.8-0.2C1025.1,47.8,1026.7,47.8,1028.6,47.8z M1009.1,100.5c4.7-0.2,6.6,1.7,2.7,2.4c-2.5-0.5-6.3-0.5-6.5-1.6
		C1007.4,101.2,1010.2,101.2,1009.1,100.5z M984.5,31.3c0.6,0.8-3.1,0.3-3.1,0.5C979.5,31.6,982.6,31.3,984.5,31.3z M297,19.6
		c0.5,0.2,0.9,0.2,1.4,0.3c-0.5,0-0.8,0.2-1.3,0.2C297.2,19.8,295.6,19.6,297,19.6z M177.2,14c-0.9,0.3-3.3,0.5-4.4,0.2
		C173.1,13.8,176,14.1,177.2,14z M145.1,16.8c-0.5,0.2-0.6,0.3-0.6,0.6c-1.9,0.2-1.3-0.5-3.1-0.3C141.4,16.8,143.4,16.8,145.1,16.8z
		 M401.6,23.6L401.6,23.6C401.8,23.6,401.6,23.6,401.6,23.6L401.6,23.6z M402.4,23.9c0.2,0,0.3,0,0.6,0
		C402.7,23.9,402.6,23.9,402.4,23.9L402.4,23.9z M453.9,23.7c0.2,0,0.5,0.2,0.9,0.2c0,0,0,0,0-0.2c0.6,0,1.3,0,2.2,0
		c-0.2,0-0.3,0.2-0.5,0.2c-2,0.2-4.6,0.3-7.4,0c0.2-0.2,0.6-0.3,0.6-0.5C451.2,23.6,452.2,23.7,453.9,23.7z M532.6,22.9
		c1.4-0.2,3.8,0,5.8,0.2c-1.6,0.3-4.1,0.5-5.8,0.3C532.7,23.1,533.8,22.9,532.6,22.9z M587.2,23.7c0.9-0.2,1.9-0.2,3-0.2
		c0.6,0,1.1,0,1.7,0c0.5,0.5-1.1,0.5-0.6,0.9c-0.9-0.3-4.4,0-3.8-0.6c-0.9,0.6-4.1,0-6.3,0c2,0,3.8-0.2,5.5-0.2
		C586.7,23.7,587,23.7,587.2,23.7z M602.8,23.1c-0.9,0-1.9,0-2.7,0C601,23.1,601.8,23.1,602.8,23.1z M639.9,23.3
		c3.3,0.2,4.6,0.5,6.9,0c0,0.3,0,0.5,0,0.8c-3.5-0.2-8,0.2-12.1-0.2C636.4,23.4,639,24,639.9,23.3z M665.7,21.8
		c-0.6,0-1.4,0-2.4-0.2C664,21.7,664.9,21.8,665.7,21.8z M697.2,21.7c0.3,0,0.6,0,0.9,0c0.5,0.6,0.5,0.6-0.6,1.1
		C696.7,22.5,695.8,22,697.2,21.7z M826.5,29.4c0.3,0,0.6,0,0.9,0C827.2,29.4,826.9,29.4,826.5,29.4L826.5,29.4z M540.4,96.6
		L540.4,96.6C540.3,96.6,540.4,96.6,540.4,96.6L540.4,96.6z M539.7,96.3c-0.2,0-0.3,0-0.6,0C539.3,96.3,539.5,96.3,539.7,96.3
		L539.7,96.3z M488.2,96.4c-0.2,0-0.5-0.2-0.9-0.2c0,0,0,0,0,0.2c-0.6,0-1.3,0-2.2,0c0.2,0,0.3-0.2,0.5-0.2c2-0.2,4.6-0.3,7.4,0
		c-0.2,0.2-0.6,0.3-0.6,0.5C490.9,96.6,489.9,96.4,488.2,96.4z M409.5,97.2c-1.4,0.2-3.8,0-5.8-0.2c1.6-0.3,4.1-0.5,5.8-0.3
		C409.4,97.1,408.3,97.2,409.5,97.2z M354.9,96.4c-0.9,0.2-1.9,0.2-3,0.2c-0.6,0-1.1,0-1.7,0c-0.5-0.5,1.1-0.5,0.6-0.9
		c0.9,0.3,4.4,0,3.8,0.6c0.9-0.6,4.1,0,6.3,0c-2,0-3.8,0.2-5.5,0.2C355.4,96.4,355.1,96.4,354.9,96.4z M339.3,97.1
		c0.9,0,1.9,0,2.7,0C341.1,97.1,340.3,97.1,339.3,97.1z M302.2,96.9c-3.3-0.2-4.6-0.5-6.9,0c0-0.3,0-0.5,0-0.8
		c3.5,0.2,8-0.2,12.1,0.2C305.7,96.8,303.1,96.1,302.2,96.9z M276.4,98.3c0.6,0,1.4,0,2.4,0.2C278.1,98.5,277.2,98.3,276.4,98.3z
		 M244.9,98.5c-0.3,0-0.6,0-0.9,0c-0.5-0.6-0.5-0.6,0.6-1.1C245.4,97.7,246.3,98.2,244.9,98.5z M115.6,90.8c-0.3,0-0.6,0-0.9,0
		C114.9,90.8,115.2,90.8,115.6,90.8L115.6,90.8z M261.9,22.2c-0.3,0-0.8,0-1.1,0c-0.2-0.3,0.9-0.5,2-0.5
		C262.5,21.8,262.2,22,261.9,22.2z M582.3,24c1.1,0.3,0.6,0.9-1.9,0.8c1.9-0.9-2.8,0.2-3.1-0.8C579.8,24.2,579.5,24,582.3,24z
		 M649,25.6c0-0.5,3.6-0.3,4.4-0.2c-0.3,0.5-1.7,0.6-3.8,0.6C649.7,25.9,649.7,25.6,649,25.6z M680.2,98c0.3,0,0.8,0,1.1,0
		c0.2,0.3-0.9,0.5-2,0.5C679.6,98.3,679.9,98.2,680.2,98z M359.8,96.1c-1.1-0.3-0.6-0.9,1.9-0.8c-1.9,0.9,2.8-0.2,3.1,0.8
		C362.3,96,362.6,96.1,359.8,96.1z M293.1,94.5c0,0.5-3.6,0.3-4.4,0.2c0.3-0.5,1.7-0.6,3.8-0.6C292.4,94.2,292.4,94.5,293.1,94.5z
		 M89,89.7c-0.2-0.2,0.3-0.2,0.8-0.3c0.5,0,0.9,0,1.4,0C90.5,89.5,89.7,89.5,89,89.7z M96,89.2c-0.8,0-1.3,0-1.9,0
		c0.5-0.2,1.3-0.2,1.6-0.2C95.9,89,96,89.2,96,89.2z M384.6,94.1L384.6,94.1c-0.3,0.2-0.5,0.2-0.8,0.2
		C384,94.1,384.3,94.1,384.6,94.1z M557.4,26.1L557.4,26.1c0.3-0.2,0.5-0.2,0.8-0.2C558.1,26.1,557.8,26.1,557.4,26.1z M278.1,96.3
		c0,0.2,0,0.3,0,0.5c-1.1,0-2,0-3.1,0C274.6,96.3,277,96.4,278.1,96.3z M281.7,93.8c2,0.2,4.2,0.2,5.7,0.5c-0.5,0.6-2.5,0-5,0.2
		C282.4,94.1,281.6,94.1,281.7,93.8z M373.6,95c0.2,0.5-2.2,0.6-3.1,0.3C371,95,372.1,95,373.6,95z M853.1,30.5
		c0.2,0.2-0.3,0.2-0.8,0.3c-0.5,0-0.9,0-1.4,0C851.6,30.7,852.3,30.7,853.1,30.5z M846.1,31c0.8,0,1.3,0,1.9,0
		c-0.5,0.2-1.3,0.2-1.6,0.2C846.2,31.1,846.1,31,846.1,31z M664,23.9c0-0.2,0-0.3,0-0.5c1.1,0,2,0,3.1,0
		C667.4,23.9,665.1,23.7,664,23.9z M660.4,26.4c-2-0.2-4.2-0.2-5.7-0.5c0.5-0.6,2.5,0,5-0.2C659.7,26.1,660.5,26.1,660.4,26.4z
		 M568.5,25.2c-0.2-0.5,2.2-0.6,3.1-0.3C571.1,25.2,570,25.2,568.5,25.2z M55.9,90.5c3.6,0.2,4.4,0,8.2,0.2c-3.6-0.8,7.9-0.5,8.8,0
		c-6,0.6-14.2-0.2-18.3,0.6C54.2,90.8,55.8,90.8,55.9,90.5z M57.8,90c4.1-1.3,10.9-0.5,17.3-0.6c-0.8,0.2-2,0.2-1.9,0.5
		c0.5,0,0.9,0,1.6,0C70.1,90,63.5,89.8,57.8,90z M100.4,90.3c-0.2,0-0.2,0-0.3,0.2c-0.9,0-2.2,0-3.1-0.2
		C98.1,90.3,99.3,90.3,100.4,90.3z M257.3,98.3c0.2,0,0.3,0,0.6,0C257.8,98.3,257.7,98.3,257.3,98.3z M275.6,97.4
		c0.6-0.2,1.6-0.2,2.5-0.2c1.1,0.3,4.4,0,6.5-0.3C282.4,97.5,280,98,275.6,97.4z M281.9,96.8c0.3-0.2,0.5-0.3,0.6-0.5
		c5.4,0.2,9.6,0,12.1,0.3c-1.9,0.8-6.8,0.8-9.3,0.3c0.8-0.2,1.3-0.2,1.3-0.2C285.5,96.8,283.6,96.8,281.9,96.8z M484.7,95.5
		c-0.9,0-2,0-3.1,0.2C481,95.2,483.6,95.5,484.7,95.5L484.7,95.5z M643.8,97.5c2.4,0.3,3,0,5,0.2C648.7,98.2,643.5,98.2,643.8,97.5z
		 M658.3,98.8L658.3,98.8L658.3,98.8L658.3,98.8z M657.4,99.1c-0.5,0.2-1.1,0.2-1.6,0.2C655.6,99.1,656.6,99.1,657.4,99.1z
		 M684,98.6c0-0.2-0.3-0.2-0.6-0.2h-0.2c-0.2,0-0.3,0-0.5,0c-0.5,0-0.8-0.2-0.6-0.3c1.6,0,1.4-0.3,3.1-0.2c0.3,0.2,0.6,0.3,1.3,0.3
		c0,0.3-1.6,0.3-2.2,0.5C684.1,98.6,684,98.6,684,98.6z M689.8,98.6c0.5-0.2,1.6-0.2,1.7-0.5c0.8,0.2,1.1,0.3,1.3,0.5
		C691.8,98.6,690.9,98.6,689.8,98.6z M886.2,29.7c-3.6-0.2-4.4,0-8.2-0.2c3.6,0.8-7.9,0.5-8.8,0c6-0.6,14.2,0.2,18.3-0.6
		C887.9,29.4,886.3,29.4,886.2,29.7z M884.3,30.2c-4.1,1.3-10.9,0.5-17.3,0.6c0.8-0.2,2-0.2,1.9-0.5c-0.5,0-0.9,0-1.6,0
		C872,30.2,878.6,30.3,884.3,30.2z M841.6,29.9c0.2,0,0.2,0,0.3-0.2c0.9,0,2.2,0,3.1,0.2C844,29.9,842.7,29.9,841.6,29.9z
		 M684.7,21.8c-0.2,0-0.3,0-0.6,0C684.3,21.8,684.4,21.8,684.7,21.8z M666.5,22.8c-0.6,0.2-1.6,0.2-2.5,0.2c-1.1-0.3-4.4,0-6.5,0.3
		C659.7,22.6,662.1,22.2,666.5,22.8z M660.2,23.4c-0.3,0.2-0.5,0.3-0.6,0.5c-5.4-0.2-9.6,0-12.1-0.3c1.9-0.8,6.8-0.8,9.3-0.3
		c-0.8,0.2-1.3,0.2-1.3,0.2C656.6,23.4,658.5,23.4,660.2,23.4z M457.4,24.7c0.9,0,2,0,3.1-0.2C461.1,25,458.5,24.7,457.4,24.7
		L457.4,24.7z M298.3,22.6c-2.4-0.3-3,0-5-0.2C293.4,22,298.6,22,298.3,22.6z M283.8,21.4L283.8,21.4L283.8,21.4L283.8,21.4z
		 M284.7,21.1c0.5-0.2,1.1-0.2,1.6-0.2C286.5,21.1,285.5,21.1,284.7,21.1z M258.1,21.5c0,0.2,0.3,0.2,0.6,0.2h0.2c0.2,0,0.3,0,0.5,0
		c0.5,0,0.8,0.2,0.6,0.3c-1.6,0-1.4,0.3-3.1,0.2c-0.3-0.2-0.6-0.3-1.3-0.3c0-0.3,1.6-0.3,2.2-0.5C258,21.5,258.1,21.5,258.1,21.5z
		 M252.3,21.5c-0.5,0.2-1.6,0.2-1.7,0.5c-0.8-0.2-1.1-0.3-1.3-0.5C250.3,21.5,251.2,21.5,252.3,21.5z M-32.7,78.5L-32.7,78.5
		L-32.7,78.5L-32.7,78.5z M-60.2,83.7c0-0.3,1.7-0.2,1.3-0.6c2-0.2,2.2,0.3,4.4,0.2c-0.2,0.2-1.1,0.2-1.9,0.2
		c-0.2,0.2,0.2,0.3,0.6,0.3C-56.1,84-59.8,83.8-60.2,83.7z M-13.2,86.4c0.9,0.2,2,0.2,3.1,0.3c-2,0-3.9,0.2-5.7,0.2
		C-14.9,86.7-14.4,86.4-13.2,86.4z M-19.5,90.3c0.2-0.9,2,0,4.4-0.2C-15.2,90.5-18.2,90.3-19.5,90.3z M-16.5,87.3
		c0-0.5,3-0.3,3.8-0.2C-12.7,87.5-15.4,87.2-16.5,87.3z M29.9,90.5c0.6-0.2,1.4-0.2,2.5-0.2c0,0.2-0.2,0.5,0.6,0.5
		C32.6,91.1,29.2,90.9,29.9,90.5z M50.2,91.2c-0.5-0.5,1.3-0.3,1.3-0.6c-5-0.5-10.2,0-12.1-1.1c4.4,0.2,6.1-0.2,9.4-0.5
		c0.8,0.2,1.3,0.5,2.5,0.5c-0.9,0.3-1.6,0.3-3.1,0.2c0.6,0.6,2.4,0.9,5.2,0.9C53.9,91.1,52.4,91.2,50.2,91.2z M54.2,91.9
		c0.5-0.6,2.2-0.2,3.1,0C57.2,92.3,54.5,92,54.2,91.9z M96.7,93.3c0-0.2,0-0.3,0-0.5c-9.9,0.5-22.3,0.6-33.5,0
		c-0.6,0-0.5,0.3-1.3,0.3c-1.4,0-2.7-0.2-3.8-0.3c0.2-0.5,3.1-0.3,5-0.3c0-0.2,0-0.5-0.6-0.5c6.1-0.3,17.3,0,26.6-0.9
		c2,0.2,3.9,0.3,5,0.8c1.9-0.2-0.5-0.5,0-0.8c1.6-0.2,3,0.6,3.8,0.2c1.9,0.2,0.8,0.2,0.6,0.6c3.1-0.3,5.5-0.5,7.6-0.3
		c0.6-0.5-2-0.3-3.1-0.3c0.3-0.2,0.9-0.2,1.4-0.3c1.4,0,3,0,4.6,0c0.9,0,1.7,0.2,2.4,0.3c0.5,0.6-2.8,1.1,0.6,1.1
		c-2.8,0.6-10.1-0.5-11.3,0.2c4.9,0.3,13.4-0.2,15.9,0.8C109.6,93.9,103.9,93,96.7,93.3z M117.1,90.6c0.3,0,0.8,0,1.1-0.2
		c-1.9,0.6,1.6,0.2,1.9,0.2c0,0,0,0,0,0.2c-1.4,0.3-1.4,0.5-0.8,1.1C117.1,91.2,116.5,90.8,117.1,90.6z M126.4,91.7
		c0-0.3-0.6-0.3-0.6-0.6c0.6,0,1.1,0,1.7,0c0.8,0.2,1.1,0.3,2.7,0.3C129.6,91.6,127.5,91.6,126.4,91.7z M142.5,90.8
		c0.8,0,1.7,0,2.5,0c-0.3,0-0.6,0-0.8,0.2C143.4,90.8,142.9,90.8,142.5,90.8z M154.1,90.5c0.9-0.3,3.1-0.5,4.7,0l0,0
		C157.4,90.5,155.7,90.5,154.1,90.5z M201.3,94.5c0.8-0.8,3-0.2,5-0.5C206.2,94.5,202.9,94.4,201.3,94.5z M218,97.4
		c-2.2,0.8-0.5-0.5-2.5-0.3c0.2-0.2,1.6-0.2,2.5-0.2c0,0.2-0.2,0.5,0.6,0.5C218.5,97.5,218,97.4,218,97.4z M219.1,94.9
		c0.8,0,1.7,0,2.5,0c0,0.2,0,0.3,0,0.5C220.4,95.2,218.9,95.2,219.1,94.9z M222.2,94.5c0-0.5,2-0.3,3.8-0.3c0,0.2,0,0.3,0,0.5
		C224.4,94.9,222.9,94.9,222.2,94.5z M212,94.1c1.7-0.9,14.3-0.6,20.9-0.9C228.1,93.9,216.6,93.8,212,94.1z M247.7,98.3
		c-0.8,0-1.6-0.3-0.6-0.3c-0.5-0.2-1.4-0.2-1.3-0.5c0.6,0.2,1.1,0.2,1.3,0c0.6,0,0.5,0.3,1.3,0.3C248.1,98,247.7,98.2,247.7,98.3z
		 M256.7,99.3c0.2-0.2,1.6-0.2,2.5-0.2c-0.2-0.2-1.1-0.2-1.9-0.2c-0.5-0.2,0.5-0.3,0.6-0.5c0.3,0,0.5,0,0.6,0
		c0.8,0.2,1.6,0.5,1.9,0.6C258.3,99.1,258.9,99.6,256.7,99.3z M275.6,98.5L275.6,98.5L275.6,98.5L275.6,98.5z M277.6,98.8
		c0.2,0,0.3-0.2,0.5-0.2c0.6,0,1.3,0.2,2.4,0.2c0.2,0,0.3-0.2,0.5-0.2c0.2,0,0.5,0,0.6,0C281.3,99,278.7,98.8,277.6,98.8z
		 M292.9,98.3c-0.2,0-0.5,0-0.6-0.2c0.2-0.3-1.7-0.5-0.2-0.5c1.7,0.3,3.3,0.3,5.7,0.2l0.2,0.2C295.1,98,292.9,98,292.9,98.3z
		 M298.4,98L298.4,98c1.4,0,1.9-0.3,3.8-0.2V98C300.9,98,299.7,98,298.4,98z M315.6,97.7c0.6,0,1.1-0.2,1.4-0.2c0.8,0,1.6,0,1.9,0.2
		C317.6,97.9,316.5,97.9,315.6,97.7z M345.5,99.6c-0.8-0.2-2.8-0.2-4.4-0.2c0-0.3-0.5-0.5-1.3-0.5c0-0.3,1.6-0.3,3.1-0.3
		c-1.1,0.3,0.5,0.3-0.6,0.6C343.4,99.3,346.1,99,345.5,99.6z M348.6,99.3c1.7-0.5,2.5-0.2,4.4,0C351.3,99.6,350.5,99.3,348.6,99.3z
		 M386.5,97.5c0.6,0,1.4,0,2,0c1.1,0.2,2,0.3,2.4,0.8C389.1,98.2,387.2,98,386.5,97.5z M405.1,97.5c1.3,0,2.4,0,3.6,0
		C407.5,97.7,406.2,97.7,405.1,97.5z M472.6,96.3h0.2v0.2C472.8,96.4,472.6,96.4,472.6,96.3z M477.7,96.4L477.7,96.4
		c0.5-0.2,0.8-0.2,0.8,0c-0.3,0-0.5,0-0.5,0.2C477.8,96.6,477.7,96.6,477.7,96.4z M480,96.8c-0.6-0.2-1.4-0.2-0.9-0.5
		c1.6,0,1.9-0.2,3-0.3h0.2c0.6,0.2,1.4,0.2,2.2,0.2C483.9,96.4,481.9,96.9,480,96.8z M491,97.5c0.8-0.6,3.6-0.5,5-0.2
		C497,97.5,493.4,97.4,491,97.5z M494.6,96.3c0.2,0,0.3-0.2,0.5-0.2c0.2,0,0.5,0.2,0.6,0.2c-0.2,0-0.2,0-0.2,0.2
		c0.2,0,0.2,0,0.3-0.2c1.7,0.3,3.6,0.5,5.8,0.3C500.8,97.5,495.4,96.9,494.6,96.3z M502.4,97.1c-0.6-0.6,2.8-0.6,3.8-0.3
		C505.3,96.9,503.9,97.1,502.4,97.1z M507.4,96.8c2.5,0,6.1-0.2,7.6,0.2C513.7,97.2,508.2,97.4,507.4,96.8z M517.6,96.4
		c-0.5,0-0.6-0.2-0.8-0.2c0.3,0,0.8,0,1.1,0C517.6,96.4,517.5,96.4,517.6,96.4z M521.1,96.3c0.2,0,0.3,0,0.5,0
		C521.4,96.3,521.4,96.3,521.1,96.3C521.2,96.3,521.2,96.3,521.1,96.3z M532.7,96.4c-4.1-0.2-4.6-0.2-8.2,0.2
		c0.2-0.2-0.3-0.3-0.5-0.5c2.8,0,5.5-0.2,8.3-0.2C532.7,96.1,533,96.3,532.7,96.4z M533.7,96.1c0.8,0,1.6,0,2.4,0
		c0,0.2-0.8,0.3-0.2,0.3l0,0C534.8,96.4,534.1,96.3,533.7,96.1z M537.3,97.2c0-0.2,0-0.5,0-0.6c0.3,0,0.6,0,1.1,0
		c-0.2,0-0.2,0-0.2,0.2c0.6,0,1.6,0,2.2,0.2c-0.3,0-0.5,0.2-0.5,0.2c0.6,0.2,1.1,0,1.7,0c0.2,0,0.3,0,0.3-0.2
		c0.8-0.2,1.9-0.5,3.6-0.3C543.4,97.1,540.6,97.9,537.3,97.2z M548,97.4c0.2-0.2,1.6-0.2,2.5-0.2c0,0.2,0,0.3,0,0.5
		C548.6,97.9,548.9,97.4,548,97.4z M551.8,96.8c1.9-0.2,3.6,0.5,1.9,0.6c-1.4-0.5-2.7-0.2-5-0.5c0-0.2-0.5-0.2-0.6-0.3
		c3,0,2.5-0.9,0.6-0.2c-2.4-0.2-4.9-0.2-7.1-0.3c7.7-0.5,19.8-1.3,16.8,0.2c0.5,0,1.3,0,1.3,0.2c-0.5,0-0.9,0-1.4,0
		c-0.8-0.2-1.6-0.3-2-0.3C556.7,97.1,553,96.1,551.8,96.8z M560.1,96.1c0.3-0.2,0.5-0.2,0.5-0.2c1.4-0.2,1.7,0,3.1,0.2
		c0-0.3-1.7-0.5-3.1-0.6h0.2c2.4,0.2,3.6,0.3,5,0.3c0.3,0.2,0.6,0.3,1.1,0.3c0.2-0.2,0.3-0.2,0.5-0.3c0.6,0,1.3,0,2,0l0,0l0,0h0.2
		C568.3,96.4,563.4,96.1,560.1,96.1z M571,96c-0.2-0.2,0-0.3,0.3-0.3c0.8,0.2,1.6,0.2,1.9,0c0.8,0,1.4,0.2,1.6,0.2
		C574.3,96.1,571.9,96.3,571,96z M633.1,97.9c-0.2-0.3,0.6-0.3,0.6-0.5c2,0,2.7,0.3,5,0.2C638.6,98,634.5,98,633.1,97.9z
		 M636.9,98.3c1.7,0,3.6-0.2,5.5,0C640.4,98.5,638.2,98.8,636.9,98.3z M645.2,98.3c0.8,0,1.6,0,2.4,0.2c-0.5,0-0.9,0.2-1.3,0.2
		C645.9,98.5,645.6,98.3,645.2,98.3z M664.8,100.4c1.1,0.3,1.3,0,2.4-0.2c0.6,0,1.3,0.2,1.7,0.3c-1.6,0-2.8,0-3.9,0
		C664.8,100.5,664.8,100.4,664.8,100.4z M665.1,101.2c0.3,0,0.6-0.2,0.9-0.2c0.2,0,0.5,0,0.6,0c0.9,0,1.9,0,3,0
		C668.9,101.6,667.3,101,665.1,101.2z M670.7,101.5c0.6-0.3,1.9-0.3,3.8-0.3C674.2,101.5,672.2,101.8,670.7,101.5z M672.8,99.1
		c0.3,0,0.5-0.2,0.8-0.2c0.8,0,1.7,0.2,2.2,0.2C675.1,99.7,673.6,99.4,672.8,99.1z M692.3,102.3c-0.8,0.2-2.4,0.2-3.1,0
		C689,101.8,692.6,101.6,692.3,102.3z M690.9,99c0.5-0.2,1.1-0.2,1.9-0.2l0,0C692.3,99,691.7,99,690.9,99z M709.3,100.4
		c-0.2,0.3,0.5,0.3,1.3,0.3c-1.3,0.5-2.4-0.5-4.4,0c0.2-0.2-0.2-0.3-0.6-0.3C706.9,100.1,706.8,100.7,709.3,100.4z M767.5,99.1
		c0.9,0,1.7,0,2.5,0C768.8,99.1,768,99.6,767.5,99.1z M794.7,99.7c-2-0.5-3.6-0.3-5.7-0.5C790.2,99,796,98.8,794.7,99.7z
		 M787.8,109.8c0.5-0.3,3-0.5,3.8-0.3C791.1,109.8,789.7,109.8,787.8,109.8z M792.4,110.9c-0.8,0-1.7,0-2.5,0
		C789.2,110.3,792.9,110.3,792.4,110.9z M803.1,110.3c-3.1,0-5.7-0.6-8.2-0.3c-0.6-0.2-0.5-0.6-2.5-0.5c3.5-0.8,9.3,0,12.6-0.2
		C803.9,109.5,803.2,109.8,803.1,110.3z M798.7,101.9c0-0.2,0-0.3,0-0.5c3.1-0.3,4.7,0.2,8.2,0.3
		C804.5,102.1,801.8,101.6,798.7,101.9z M822.3,102.4c-3-0.5-9.1-0.8-10.1-0.2c-1.1,0-1.4-0.3-1.3-0.6c-1.9,0.2-0.6,0.3-0.6,0.6
		c-1.9,0-1.6-0.6-3.1-0.8c5.4-0.5,9.6,0.5,15.9,0C822.1,101.9,822.6,101.8,822.3,102.4z M828.6,102.3c-1.4-0.3-2.5,0-4.4,0
		c0-0.6,2.7-0.6,5-0.6C829.2,101.9,828.4,101.9,828.6,102.3z M930.6,112.6c-1.7,0-0.5-0.6-2.5-0.5c1.6-0.6,3.3,0.2,5.7,0.2
		C934,112.8,930.2,112.2,930.6,112.6z M962.8,111.1c-3.1,0.5-5.4,0.5-8.8,0.5c-0.8-0.2-0.8-0.6,0-0.8c-2-0.2-4.4-0.3-5.7-0.6
		c3.6-0.3,7.2,0.3,10.7-0.3c2.2,0,1.3,0.8,3.8,0.6C963.4,110.8,960.9,110.9,962.8,111.1z M974.8,41.7L974.8,41.7L974.8,41.7
		L974.8,41.7z M1002.3,36.5c0,0.3-1.7,0.2-1.3,0.6c-2,0.2-2.2-0.3-4.4-0.2c0.2-0.2,1.1-0.2,1.9-0.2c0.2-0.2-0.2-0.3-0.6-0.3
		C998.2,36.2,1001.8,36.3,1002.3,36.5z M955.3,33.8c-0.9-0.2-2-0.2-3.1-0.3c2-0.2,3.9-0.2,5.7-0.2C957,33.5,956.5,33.8,955.3,33.8z
		 M961.6,29.9c-0.2,0.9-2,0-4.4,0.2C957.3,29.7,960.3,29.9,961.6,29.9z M958.6,32.9c0,0.5-3,0.3-3.8,0.2
		C954.8,32.7,957.5,33,958.6,32.9z M912.1,29.7c-0.6,0.2-1.4,0.2-2.5,0.2c0-0.2,0.2-0.5-0.6-0.5C909.5,29.1,912.9,29.2,912.1,29.7z
		 M891.8,28.9c0.5,0.5-1.3,0.3-1.3,0.6c5,0.5,10.2,0,12.1,1.1c-4.4-0.2-6.1,0.2-9.4,0.5c-0.8-0.2-1.3-0.5-2.5-0.5
		c0.9-0.3,1.6-0.3,3.1-0.2c-0.6-0.6-2.4-0.9-5.2-0.9C888.2,29.1,889.6,28.9,891.8,28.9z M887.9,28.3c-0.5,0.6-2.2,0.2-3.1,0
		C884.9,27.8,887.6,28.1,887.9,28.3z M845.4,26.9c0,0.2,0,0.3,0,0.5c9.9-0.5,22.3-0.6,33.5,0c0.6,0,0.5-0.3,1.3-0.3
		c1.4,0,2.7,0.2,3.8,0.3c-0.2,0.5-3.1,0.3-5,0.3c0,0.2,0,0.5,0.6,0.5c-6.1,0.3-17.3,0-26.6,0.9c-2-0.2-3.9-0.3-5-0.8
		c-1.9,0.2,0.5,0.5,0,0.8c-1.6,0.2-3-0.6-3.8-0.2c-1.9-0.2-0.8-0.2-0.6-0.6c-3.1,0.3-5.5,0.5-7.6,0.3c-0.6,0.5,2,0.3,3.1,0.3
		c-0.3,0.2-0.9,0.2-1.4,0.3c-1.4,0-3,0-4.6,0c-0.9,0-1.7-0.2-2.4-0.3c-0.5-0.6,2.8-1.1-0.6-1.1c2.8-0.6,10.1,0.5,11.3-0.2
		c-4.9-0.3-13.4,0.2-15.9-0.8C832.5,26.3,838.2,27.2,845.4,26.9z M825,29.6c-0.3,0-0.8,0-1.1,0.2c1.9-0.6-1.6-0.2-1.9-0.2
		c0,0,0,0,0-0.2c1.4-0.3,1.4-0.5,0.8-1.1C825,28.9,825.6,29.4,825,29.6z M815.7,28.5c0,0.3,0.6,0.3,0.6,0.6c-0.6,0-1.1,0-1.7,0
		c-0.8-0.2-1.1-0.3-2.7-0.3C812.5,28.6,814.6,28.6,815.7,28.5z M799.6,29.4c-0.8,0-1.7,0-2.5,0c0.3,0,0.6,0,0.8-0.2
		C798.7,29.4,799.2,29.4,799.6,29.4z M788,29.7c-0.9,0.3-3.1,0.5-4.7,0l0,0C784.7,29.7,786.4,29.7,788,29.7z M740.8,25.6
		c-0.8,0.8-3,0.2-5,0.5C735.9,25.6,739.2,25.8,740.8,25.6z M724.1,22.8c2.2-0.8,0.5,0.5,2.5,0.3c-0.2,0.2-1.6,0.2-2.5,0.2
		c0-0.2,0.2-0.5-0.6-0.5C723.6,22.6,724.1,22.8,724.1,22.8z M723,25.3c-0.8,0-1.7,0-2.5,0c0-0.2,0-0.3,0-0.5
		C721.7,25,723.1,25,723,25.3z M719.8,25.6c0,0.5-2,0.3-3.8,0.3c0-0.2,0-0.3,0-0.5C717.6,25.3,719.2,25.3,719.8,25.6z M730.1,26.1
		c-1.9,0.9-14.3,0.6-20.9,0.9C714,26.3,725.5,26.4,730.1,26.1z M694.3,21.8c0.8,0,1.6,0.3,0.6,0.3c0.5,0.2,1.4,0.2,1.3,0.5
		c-0.6-0.2-1.1-0.2-1.3,0c-0.6,0-0.5-0.3-1.3-0.3C694,22.2,694.3,22,694.3,21.8z M685.4,20.9c-0.2,0.2-1.6,0.2-2.5,0.2
		c0.2,0.2,1.1,0.2,1.9,0.2c0.5,0.2-0.5,0.3-0.6,0.5c-0.3,0-0.5,0-0.6,0c-0.8-0.2-1.6-0.5-1.9-0.6C683.8,21.1,683.2,20.6,685.4,20.9z
		 M666.5,21.7L666.5,21.7L666.5,21.7L666.5,21.7z M664.4,21.4c-0.2,0-0.3,0.2-0.5,0.2c-0.6,0-1.3-0.2-2.4-0.2
		c-0.2,0-0.3,0.2-0.5,0.2c-0.2,0-0.5,0-0.6,0C660.8,21.2,663.3,21.4,664.4,21.4z M649.2,21.8c0.2,0,0.5,0,0.6,0.2
		c-0.2,0.3,1.7,0.5,0.2,0.5c-1.7-0.3-3.3-0.3-5.7-0.2l-0.2-0.2C647,22.2,649.2,22.2,649.2,21.8z M643.7,22.2L643.7,22.2
		c-1.4,0-1.9,0.3-3.8,0.2v-0.2C641.2,22.2,642.4,22.2,643.7,22.2z M626.5,22.5c-0.6,0-1.1,0.2-1.4,0.2c-0.8,0-1.6,0-1.9-0.2
		C624.5,22.3,625.6,22.3,626.5,22.5z M596.6,20.6c0.8,0.2,2.8,0.2,4.4,0.2c0,0.3,0.5,0.5,1.3,0.5c0,0.3-1.6,0.3-3.1,0.3
		c1.1-0.3-0.5-0.3,0.6-0.6C598.7,20.9,596,21.2,596.6,20.6z M593.5,20.9c-1.7,0.5-2.5,0.2-4.4,0C590.8,20.6,591.6,20.9,593.5,20.9z
		 M555.5,22.6c-0.6,0-1.4,0-2,0c-1.1-0.2-2-0.3-2.4-0.8C553,22,554.9,22.2,555.5,22.6z M537,22.6c-1.3,0-2.4,0-3.6,0
		C534.6,22.5,535.9,22.5,537,22.6z M469.5,23.9h-0.2v-0.2C469.3,23.7,469.5,23.7,469.5,23.9z M464.4,23.7L464.4,23.7
		c-0.5,0.2-0.8,0.2-0.8,0c0.3,0,0.5,0,0.5-0.2C464.3,23.6,464.4,23.6,464.4,23.7z M462.1,23.4c0.6,0.2,1.4,0.2,0.9,0.5
		c-1.6,0-1.9,0.2-3,0.3h-0.2c-0.6-0.2-1.4-0.2-2.2-0.2C458.1,23.7,460.2,23.3,462.1,23.4z M451.1,22.6c-0.8,0.6-3.6,0.5-5,0.2
		C445.1,22.6,448.7,22.8,451.1,22.6z M447.4,23.9c-0.2,0-0.3,0.2-0.5,0.2c-0.2,0-0.5-0.2-0.6-0.2c0.2,0,0.2,0,0.2-0.2
		c-0.2,0-0.2,0-0.3,0.2c-1.7-0.3-3.6-0.5-5.8-0.3C441.3,22.6,446.7,23.3,447.4,23.9z M439.7,23.1c0.6,0.6-2.8,0.6-3.8,0.3
		C436.7,23.3,438.2,23.1,439.7,23.1z M434.7,23.4c-2.5,0-6.1,0.2-7.6-0.2C428.4,22.9,433.9,22.8,434.7,23.4z M424.5,23.7
		c0.5,0,0.6,0.2,0.8,0.2c-0.3,0-0.8,0-1.1,0C424.5,23.7,424.6,23.7,424.5,23.7z M421,23.9c-0.2,0-0.3,0-0.5,0
		C420.7,23.9,420.7,23.9,421,23.9C420.8,23.9,420.8,23.9,421,23.9z M409.4,23.7c4.1,0.2,4.6,0.2,8.2-0.2c-0.2,0.2,0.3,0.3,0.5,0.5
		c-2.8,0-5.5,0.2-8.3,0.2C409.4,24,409,23.9,409.4,23.7z M408.4,24c-0.8,0-1.6,0-2.4,0c0-0.2,0.8-0.3,0.2-0.3l0,0
		C407.3,23.7,407.9,23.9,408.4,24z M404.8,22.9c0,0.2,0,0.5,0,0.6c-0.3,0-0.6,0-1.1,0c0.2,0,0.2,0,0.2-0.2c-0.6,0-1.6,0-2.2-0.2
		c0.3,0,0.5-0.2,0.5-0.2c-0.6-0.2-1.1,0-1.7,0c-0.2,0-0.3,0-0.3,0.2c-0.8,0.2-1.9,0.5-3.6,0.3C398.7,23.1,401.5,22.3,404.8,22.9z
		 M394.1,22.8c-0.2,0.2-1.6,0.2-2.5,0.2c0-0.2,0-0.3,0-0.5C393.5,22.3,393.1,22.8,394.1,22.8z M390.3,23.4c-1.9,0.2-3.6-0.5-1.9-0.6
		c1.4,0.5,2.7,0.2,5,0.5c0,0.2,0.5,0.2,0.6,0.3c-3,0-2.5,0.9-0.6,0.2c2.4,0.2,4.9,0.2,7.1,0.3c-7.7,0.5-19.8,1.3-16.8-0.2
		c-0.5,0-1.3,0-1.3-0.2c0.5,0,0.9,0,1.4,0c0.8,0.2,1.6,0.3,2,0.3C385.4,23.1,389.1,24,390.3,23.4z M382,24c-0.3,0.2-0.5,0.2-0.5,0.2
		c-1.4,0.2-1.7,0-3.1-0.2c0,0.3,1.7,0.5,3.1,0.6h-0.2c-2.4-0.2-3.6-0.3-5-0.3c-0.3-0.2-0.6-0.3-1.1-0.3c-0.2,0.2-0.3,0.2-0.5,0.3
		c-0.6,0-1.3,0-2,0l0,0l0,0h-0.2C373.8,23.7,378.7,24,382,24z M371.1,24.2c0.2,0.2,0,0.3-0.3,0.3c-0.8-0.2-1.6-0.2-1.9,0
		c-0.8,0-1.4-0.2-1.6-0.2C367.8,24,370.2,23.9,371.1,24.2z M309,22.3c0.2,0.3-0.6,0.3-0.6,0.5c-2,0-2.7-0.3-5-0.2
		C303.4,22.2,307.5,22.2,309,22.3z M305.2,21.8c-1.7,0-3.6,0.2-5.5,0C301.7,21.7,303.9,21.4,305.2,21.8z M296.8,21.8
		c-0.8,0-1.6,0-2.4-0.2c0.5,0,0.9-0.2,1.3-0.2C296.2,21.7,296.5,21.8,296.8,21.8z M277.3,19.8c-1.1-0.3-1.3,0-2.4,0.2
		c-0.6,0-1.3-0.2-1.7-0.3c1.6,0,2.8,0,3.9,0C277.3,19.6,277.3,19.8,277.3,19.8z M277,19c-0.3,0-0.6,0.2-0.9,0.2c-0.2,0-0.5,0-0.6,0
		c-0.9,0-1.9,0-3,0C273.2,18.5,274.8,19.2,277,19z M271.3,18.7c-0.6,0.3-1.9,0.3-3.8,0.3C267.9,18.7,269.9,18.4,271.3,18.7z
		 M269.3,21.1c-0.3,0-0.5,0.2-0.8,0.2c-0.8,0-1.7-0.2-2.2-0.2C266.9,20.4,268.5,20.7,269.3,21.1z M249.8,17.9c0.8-0.2,2.4-0.2,3.1,0
		C253.1,18.4,249.5,18.5,249.8,17.9z M251.2,21.2c-0.5,0.2-1.1,0.2-1.9,0.2l0,0C249.8,21.2,250.4,21.2,251.2,21.2z M232.8,19.8
		c0.2-0.3-0.5-0.3-1.3-0.3c1.3-0.5,2.4,0.5,4.4,0c-0.2,0.2,0.2,0.3,0.6,0.3C235.1,20.1,235.3,19.5,232.8,19.8z M174.6,21.1
		c-0.9,0-1.7,0-2.5,0C173.3,21.1,174.1,20.6,174.6,21.1z M147.3,20.4c2,0.5,3.6,0.3,5.7,0.5C151.9,21.2,146.1,21.4,147.3,20.4z
		 M154.3,10.4c-0.5,0.3-3,0.5-3.8,0.3C151,10.4,152.4,10.4,154.3,10.4z M149.7,9.3c0.8,0,1.7,0,2.5,0C152.8,9.9,149.2,9.9,149.7,9.3
		z M139,9.9c3.1,0,5.7,0.6,8.2,0.3c0.6,0.2,0.5,0.6,2.5,0.5c-3.5,0.8-9.3,0-12.6,0.2C138.2,10.7,138.8,10.4,139,9.9z M143.4,18.2
		c0,0.2,0,0.3,0,0.5c-3.1,0.3-4.7-0.2-8.2-0.3C137.6,18.1,140.3,18.5,143.4,18.2z M119.8,17.8c3,0.5,9.1,0.8,10.1,0.2
		c1.1,0,1.4,0.3,1.3,0.6c1.9-0.2,0.6-0.3,0.6-0.6c1.9,0,1.6,0.6,3.1,0.8c-5.4,0.5-9.6-0.5-15.9,0C120,18.2,119.5,18.4,119.8,17.8z
		 M113.5,17.9c1.4,0.3,2.5,0,4.4,0c0,0.6-2.7,0.6-5,0.6C112.9,18.2,113.7,18.2,113.5,17.9z M11.5,7.5C13.3,7.5,12,8.2,14,8
		c-1.6,0.6-3.3-0.2-5.7-0.2C8.1,7.4,11.8,8,11.5,7.5z M-20.7,9.1c3.1-0.5,5.4-0.5,8.8-0.5c0.8,0.2,0.8,0.6,0,0.8
		c2,0.2,4.4,0.3,5.7,0.6c-3.6,0.3-7.2-0.3-10.7,0.3c-2.2,0-1.3-0.8-3.8-0.6C-21.4,9.4-18.8,9.3-20.7,9.1z M-69.7,17.3
		c2.5,0.5,6.3,0.5,6.5,1.6c-2,0.2-4.9,0.2-3.8,0.8C-71.7,19.8-73.6,17.9-69.7,17.3z M-86.5,72.4c0-0.3-0.8-0.3-0.6-0.6
		c1.6,0,3,0,3.8,0.2C-83,72.4-84.6,72.4-86.5,72.4z M-98.8,17.3c-3-0.3-6.8,0.6-7.6-0.2C-104.8,17-99.3,16.5-98.8,17.3z
		 M-140.3,22.3c-1.1,0-1.4-0.2-2.5-0.2c-0.6-0.5,0.9-0.5,0.6-0.8C-141.4,21.7-140,21.8-140.3,22.3z M-132.1,21.4
		c-0.2,1.3,2.2,1.6-0.5,2.4c-2.4,0.2-3-0.3-4.4-0.5c-0.6-1.4-0.3-1.4,1.1-2.5c1.7-0.2,5,0,4.4-0.6c0.8,0.2,2.4,0.2,3.1,0.3
		C-127.7,21.2-130.7,21.1-132.1,21.4z"/>
	<path class="st0" d="M96.7,92.5C96.7,92.7,96.7,92.7,96.7,92.5c1.1,0.2,2.2,0,3.1,0C98.7,92.5,97.6,92.5,96.7,92.5z"/>
	<path class="st0" d="M1007.7,41.5c-2.8,0-3,0.2-5.7,0C1002.2,42.3,1006.9,41.7,1007.7,41.5z"/>
	<path class="st0" d="M577.9,99c0.2-0.5,2.5-0.5,3.1-0.9c-2.4,0.3-1.3-0.5-3.1-0.3C580.9,98.3,576.2,98.5,577.9,99z"/>
	<path class="st0" d="M512,17.4c-2.2-0.2-6.5-0.5-8.2-0.2C506.3,17.4,510.9,17.6,512,17.4z"/>
	<path class="st0" d="M471.5,17.8c2.4,0.2,4.6,0.5,6.3,0C475.4,17.9,472.3,17.4,471.5,17.8z"/>
	<path class="st0" d="M404.3,17.6c2.2-0.2,3.3-0.5,5-0.6c-0.3,0-0.8,0-0.6-0.2c-0.5,0-0.8,0-1.3,0C407,17.4,404.2,17.1,404.3,17.6z"
		/>
	<path class="st0" d="M361.2,17.1c1.1-0.5,3.9-0.2,5.7,0c1.6-0.3-1.4-0.8,1.3-0.9c4.1,0.5,10.7-0.5,12.7,0.5
		c-2.2,0.5-9.1-0.5-10.7,0.6c3.6,0,8-0.5,10.9,0.3c0.6-0.2,1.3-0.3,1.9-0.5c2.4,0.3-0.5,0.3,0.6,0.5c1.1-0.5,6.1,0.3,3.1-0.3
		c5.4,0.5,10.1,0.6,15.3,0.3c-4.2,0-4.6-0.3-7.1-0.6c4.2-0.5,6.8,0.6,9.4,0c-0.9,0-0.5-0.3,0-0.5c-1.7,0-3.8,0.2-3.8-0.3
		c0.6-0.3,5.2,0.3,5.7-0.3c-15.9,0.3-28.5,0.2-44.4,0.2c0.9,0.2,3,0.2,3.8,0.5c-0.5,0-1.3,0-1.3,0.2c0.5,0,1.3,0,1.3,0.2
		C363.2,16.5,359.6,16.8,361.2,17.1z M394.1,16.8c0.2,0.5-2.7,0.6-3.8,0.3C390.9,16.8,392.4,16.8,394.1,16.8z"/>
	<path class="st0" d="M362.6,20.6c-2.5,0.2-6.1,0-8.2,0.3C357.3,21.4,360.7,20.9,362.6,20.6z"/>
	<path class="st0" d="M358.8,20.3c-0.2-0.3,0.2-0.6-0.6-0.6c0,0.9-2.4,0.5-4.4,0.3C353.3,20.9,357.1,20.3,358.8,20.3z"/>
	<path class="st0" d="M334.6,16.5c-0.5,0-0.8-0.2-0.6-0.3c-2.4,0.3-4.9-0.2-6.3,0.2C329.7,16.7,332.4,17,334.6,16.5z"/>
	<path class="st0" d="M331.5,98.5c1.3,0.3,1.9,1.1,1.9,0.8C335.1,99,333,98.3,331.5,98.5z"/>
	<path class="st0" d="M321.5,21.1c2.7-0.2,3.6,0.2,5-0.5c-1.3,0-1.4-0.2-2.5-0.2C324.8,20.9,320,20.9,321.5,21.1z"/>
	<path class="st0" d="M295.3,98.6c-2.5,0-4.6-0.3-5.7,0.2c1.3,0.2,4.2,0.3,2.5,0.8c1.4-0.5,6.6,0.3,5.7,0
		C296.4,99.3,292.4,99,295.3,98.6z"/>
	<path class="st0" d="M290.5,115c-0.5,0.2-0.5,0.2-2.4,0.9c2.8-0.2,5.4-0.3,5.7-1.1C292.9,114.8,290.5,114.5,290.5,115z"/>
	<path class="st0" d="M271.2,16c-2.2,0.2-4.4-0.3-5,0C268,16,270.4,16.7,271.2,16z"/>
	<path class="st0" d="M215,100.7c-1.1,0-1.6-0.2-1.9,0c2.2,0.3-2.4,0.2-2.5,0.5c1.4,0.2,5.5,0.2,5-0.2
		C213,101,214.1,100.8,215,100.7z"/>
	<path class="st0" d="M142,99.9c-3,0.3-4.6-0.5-5.7-0.2c0.8,0.2,2.4,0.2,2.5,0.5c-3,0-7.6-0.8-6.3,0c1.1-0.3,3.8,0.2,4.4,0.5
		C137.7,100.4,143.9,99.7,142,99.9z"/>
	<path class="st0" d="M121.7,98.3c-0.3,0.8-3,1.4-0.5,1.9c-0.2-0.3,0.8-0.3,1.3-0.5c-1.9-0.3-1.3-1.3,2.5-1.1
		C125.5,98.2,122.9,98.5,121.7,98.3z"/>
	<path class="st0" d="M110.4,99c-1.3,0.2,1.3,0.6,0.6,1.1c-0.8,0-1.7,0-2.5,0c0-0.3,0-0.5,0-0.8c-2,0.5-5.8,0.3-4.4,0.9
		c-0.9-0.3-2.7-0.2-3.1,0.2c4.9,0.2,6.1-0.3,10.1,0c0-0.2,0.2-0.3,1.3-0.3C110.5,99.7,112.6,99.1,110.4,99z"/>
	<path class="st0" d="M82.3,106.5c1.1,0.2,4.2,0,3.1,0.8C90.1,107.3,83.8,106,82.3,106.5z"/>
	<path class="st0" d="M56.4,98.2c0.8,0,1.4,0.2,1.9,0.3C65.4,98.2,57.8,98,56.4,98.2z"/>
	<path class="st0" d="M52.6,99c0.6,0.5,3.5,0.6,5,0.5c-0.5-0.3-2.8-0.6-1.3-0.9c-3.5-0.2-5.4,0.2-7.6,0.3c1.9,0.5-1.7,0.6-0.6,0.8
		c0.8-0.2,3-0.2,3.8,0C52.9,99.1,51.7,99.1,52.6,99z"/>
	<path class="st0" d="M49,97.7c0.2,0,0.3,0,0.5-0.2C49.3,97.5,49.1,97.5,49,97.7z"/>
	<path class="st0" d="M43.8,97.7c0.2,0.5-0.9,0.5-1.9,0.6c-0.2-0.3-2.8,0-3.1-0.3c-0.6,0.2-0.2,0.6-1.9,0.5c-22,0-32.7-0.2-51.9-0.2
		c0.3,1.1-2.2-0.2-3.1,0.3c1.3,0.8,2.7,0.6,5.8,0.9c0.5-0.5-1.7-0.3-1.9-0.6c0.9,0,1.4-0.2,1.9-0.2c-0.8,0.6,3.3,0.5,1.3,0.9
		c9.1-0.3,20-0.9,33.5-0.6c0-0.3,0.5-0.5,1.3-0.5c1.6,0.3,1.7,0.2,4.4,0.2c-0.6,0.5-0.3,0.6,1.3,0.8c0.2-0.2-0.2-0.5,0.6-0.5
		c6.1,0,15.9-0.8,19-1.6C47.7,97.9,45.2,97.5,43.8,97.7z"/>
	<path class="st0" d="M-19.3,1.2c0-0.3,0.2-0.5,0.6-0.6c-1.7,0-3.5,0-3.1-0.5c-2.2,0.2-3.3-0.5-3.8,0.2c0.9,0,0.8,0.3,1.3,0.5
		C-22,0.4-20.1,0.6-19.3,1.2z"/>
	<path class="st0" d="M-19.3,92c0-0.2-0.3-0.3-0.6-0.5c1.1,0,1.6-0.2,1.9-0.3c-3.8,0.2-5.8,0.2-9.4,0.3c4.1,0-0.3,0.5-1.3,0.6
		C-25.8,91.9-22.9,91.6-19.3,92z"/>
	<path class="st0" d="M-35.8,91.6c-1.1,0-2,0-2.5-0.2c-0.6,0.5,3.1,1.1,1.9,0.6C-38.4,91.9-35.5,91.7-35.8,91.6z"/>
	<path class="st0" d="M-40.1,95.8c0.3,0,0.8,0,0.6-0.2c-1.6-0.2-3.6,0-6.3-0.2c0-0.3,0-0.5-1.3-0.5c-0.6,1.1,6.1,0.3,7.1,1.1
		C-40.1,96-40.1,96-40.1,95.8z"/>
	<path class="st0" d="M-56.6,104.8c-1.1,0.5-2.2,0.2-3.1,0.6c1.1,0,1.6,0.2,1.9,0.3c-2,0.2-2,0-4.4,0c-0.2,0.3,0.8,0.3,0.6,0.6
		c-2.2-0.2-3.6,0.3-5,0.5c1.9,0,2,0.3,3.8,0.3c1.7-0.6,3.5-0.5,7.6-0.6c-0.2-0.3,0.8-0.3,1.3-0.5c-1.6,0-2.2-0.3-3.1-0.5
		C-56.6,105.4-55.2,104.8-56.6,104.8z"/>
	<path class="st0" d="M-58.5,73.6c0.3,0.3-4.9-0.5-3.1,0c1.7,0.2,2.5,0.5,4.4,0.6c0.2-0.3-0.9-0.3-1.3-0.5
		C-58.2,73.8-57.9,73.6-58.5,73.6z"/>
	<path class="st0" d="M-108.4,76.9c2.7-0.6,0.9,0.6,1.9,0.6c2.5-0.2,5.8,0.6,8.8,0.2c0.9,0.2,0.2,0.6,1.3,0.6
		c1.1-0.9,4.4,0.3,5.7-0.6c3.8,0.6,12.4,0.6,15.9,0.8c-0.9,0-2,0.2-3.5,0.3c4.6,0,9.9,0.2,12-0.5c-4.7,0.2-6.3,0-8.2,0.2
		c-0.2-0.2,0.5-0.5,0.9-0.6c2,0.5,8-0.6,5.7,0.2c2.4,0,2.8-0.3,3.8-0.6c-5.2,0.3-10.1,0-13.2,0.6c-3.3-1.3-13.2,0.5-12.1-1.3
		c-3.1,0.5-3.3,0.2-6.9,0c0.2,0.3-0.2,0.6-1.3,0.6c-2.5-0.3-4.2-0.5-6.9-0.3C-104.9,76.6-109.5,76.3-108.4,76.9z"/>
	<path class="st0" d="M-121.8,85.9c2,0.9,9.1,1.3,12.1,2.4c2.7,0,4.6,0.3,5.8,0.8c1.1,0,2,0,2.5-0.2c1.1,1.3,15.6,0.9,14,1.9
		c2.4-0.3,4.1-0.6,7.6-0.6c0.2-0.3-1.3-0.3-0.6-0.8c1.9,0,3.1,0,3.8-0.3c-3.9,0-4.4,0.8-7.6,0.8c0.5-0.6-1.4-0.8-2.5-0.5
		c-0.9,0.6,2.2,0.2,1.9,0.5c-0.9,0-0.5,0.5-1.9,0.3c1.3-0.9-5.4,0-7.1-0.6c0-0.3,0.3-0.5,1.3-0.6c4.6,0.2,2.4-0.3,4.4-0.6
		c2-0.2,1.7,0.5,3.1,0.5c0.3-0.8,3.8-0.8,6.3-0.6c5.4-0.5,9.8-2,14.5-2.2c-4.9-0.2-9.3,0.5-12.1-0.6c1.7-0.5,3.3,0.2,5.7,0
		c-0.5-0.5,1.3-0.3,1.3-0.6c-2,0.2-11,0.3-8.3-0.8c-2.4,0.2-3.5-0.3-4.4,0c-0.9,0.6,3.3,0,3.1,0.5c-4.4,0.5-4.9,1.1-8.2,1.6
		c4.4,0.3,6.1-0.8,8.2-0.5c-8.5,2-27.5,0-38.6,0.5C-116.3,85.6-119.9,86.1-121.8,85.9z"/>
	<path class="st0" d="M-71.7,76.1c-2.8,0-1.9-0.5-2.5-0.8c-0.9,0.3-1.3,0.3-0.6,0.8C-73.3,76-71.7,76.5-71.7,76.1z"/>
	<path class="st0" d="M-106.5,76.3c3,0.3,5.8,0.2,8.2,0.3C-98.8,76-105.9,76.3-106.5,76.3z"/>
	<path class="st0" d="M-97.8,83.5c-3.3-0.2-10.4-1.6-10.9-0.3C-106.2,83.7-101.8,83.5-97.8,83.5z"/>
	<path class="st0" d="M-121.8,46.1c0.8-0.6-5.2-0.9-3.8-0.8C-123.6,45.5-124.3,46.1-121.8,46.1z"/>
	<path class="st0" d="M-24.5,100.8c0.8,1.3-1.6,1.7-4.9,2c0.2-0.8-3.6-0.6-4.6-1.1c0.3,0.6-2.2,0.5-1.9,0.8
		c-0.3-0.2-0.9-0.3-1.9-0.5c0.2,0.8-3.9,0.5-6.3,0.6c0.2,0.6,0.8,0.5,0,0.9c3,0.5,9.3,0.5,11.5,0.8c5.7-0.9,14,1.3,21.6,0.9
		c5-0.3,7.7-1.7,5.5-3.6C-9.2,100.7-17.9,99.7-24.5,100.8z"/>
</g>
</svg>
