<?xml version="1.0" encoding="utf-8"?>
<!-- Generator: Adobe Illustrator 22.1.0, SVG Export Plug-In . SVG Version: 6.00 Build 0)  -->
<svg version="1.1" id="Layer_1" xmlns="http://www.w3.org/2000/svg" xmlns:xlink="http://www.w3.org/1999/xlink" x="0px" y="0px"
	 viewBox="0 0 1280 800" style="enable-background:new 0 0 1280 800;" xml:space="preserve">
<style type="text/css">
	.st0{fill:none;}
	.st1{fill-rule:evenodd;clip-rule:evenodd;}
</style>
<g>
	<g>
		<rect x="-346" y="0" class="st0" width="2970" height="212.5"/>
		<path class="st1" d="M1266.9,102.1c1.4,0,1,0.5,1.2,0.9c-3.7,0.3-3.6-0.4-5.8-0.6C1262.5,101.4,1267.5,102.9,1266.9,102.1z"/>
		<path class="st1" d="M1263.8,164.2c2.1,1.5-21.2,1.4-17.5-0.5c1.4,0,1,0.5,1.2,0.9C1252.1,164,1259,165.1,1263.8,164.2z"/>
		<path class="st1" d="M1244.7,99c-1.9,0.3-3.6,1.2-5.8,0.6c0-0.3,0-0.6,0-0.9C1241.5,98.6,1243.3,98.7,1244.7,99z"/>
		<path class="st1" d="M1232.2,103.4c1,0.4-8.4,0.6-12.7,0.6C1221.7,103.3,1227.1,103.4,1232.2,103.4z"/>
		<path class="st1" d="M1216.8,42.5c-3.5,0-4-0.7-7-0.8C1210.9,41.1,1216.8,41.8,1216.8,42.5z"/>
		<path class="st1" d="M1209.8,99.4c-1.7,0.7-2.8,1.6-8,1.5C1204,100.3,1205.7,99.5,1209.8,99.4z"/>
		<path class="st1" d="M1201.3,166.8c-0.5,0.7-5.7,0.1-8.1,0.3C1194.4,166.4,1197.8,166.5,1201.3,166.8z"/>
		<path class="st1" d="M1193.7,101.5c-0.3,0.6-4.3,0.3-4.6,0.9c-1,0.1-1.1-0.1-1.2-0.3c0.2-0.2-0.5-0.3-1.2-0.3
			C1187.7,101.3,1191.8,101,1193.7,101.5z"/>
		<path class="st1" d="M1169.1,41.8c0,0.3,0,0.6,0.1,0.9c-2.9-0.3-23.6,0.2-8.1-0.3C1163.5,42.2,1164.9,41.7,1169.1,41.8z"/>
		<path class="st1" d="M1163.8,31.4c-1.5,0.8-6.3,0.6-9.3,0.3C1155.4,31,1161.1,31.6,1163.8,31.4z"/>
		<path class="st1" d="M1145,102.9c-0.2,1.1-11.7,0.6-13.9,0.3C1133,102.8,1141.5,103.6,1145,102.9z"/>
		<path class="st1" d="M1135.9,31.2c-3.2,0.2-5.4,1.2-7,0.3C1131.4,30.9,1133.3,30.4,1135.9,31.2z"/>
		<path class="st1" d="M1126.6,30.1c0,0.3,0,0.6,0.1,0.9c-1.7-0.3-5.2-0.2-4.7-1.1C1124,29.8,1124.4,30.1,1126.6,30.1z"/>
		<path class="st1" d="M1117.7,168.3c-0.9,0.6-2.8,1-6.9,0.9C1111.5,168.5,1115.2,168.5,1117.7,168.3z"/>
		<path class="st1" d="M1106.5,42.6c4.5,0.7-4.3,0.4-3.4,1.2c-2-0.1-2.7-0.5-2.4-1.1C1103.5,42.3,1105.5,43.5,1106.5,42.6z"/>
		<path class="st1" d="M1102.3,31.9c-0.2,1.2-4.1-0.1-6.9,0.6c0-0.3,0-0.6-0.1-0.9C1098.9,31.4,1098.8,32.1,1102.3,31.9z"/>
		<path class="st1" d="M1096.7,35.1c3.5,0.6-8.4-0.1-5.7,1.2C1085.3,35.8,1091.5,34.7,1096.7,35.1z"/>
		<path class="st1" d="M1083.6,30.5c0,0.3-1.4,0.2-2.3,0.3c-1.3,0.1-0.6,0.3,0,0.3c-0.3,0.4-2.9,0.3-4.6,0.3
			C1076,30.4,1080.1,30.5,1083.6,30.5z"/>
		<path class="st1" d="M1067.7,35.5c0,0.4,0,0.8,0.1,1.2c-1.5-0.4-5.1-0.3-8.2-0.3C1059.7,35.5,1064.8,35.8,1067.7,35.5z"/>
		<path class="st1" d="M1038.3,29.3c-3.8,0.4-7.4,0.9-11.5,1.2C1028.3,29.5,1032.5,29.2,1038.3,29.3z"/>
		<path class="st1" d="M1047,169.4c-1.5,1.1-9.9-0.1-15.1,0.1c-0.4-0.8,6.5,0.2,4.6-0.9C1039.5,169.6,1041.5,169.1,1047,169.4z"/>
		<path class="st1" d="M922.2,30c0,0.4,0,0.8,0.1,1.2c0.4-0.8-7-1.2-3.5-0.3c-1.7,1-2.9-0.6-5.8-0.3C914.8,30.1,918.1,30,922.2,30z"
			/>
		<path class="st1" d="M859.5,30.2c-1.1,0.6-4.4,0.6-8.1,0.6C854.5,30.4,855.9,29.8,859.5,30.2z"/>
		<path class="st1" d="M861.9,180.9c-0.3,0.6-5.1,0.1-5.8,0.6c0.9,0.3,2.1,0.4,3.5,0.6c-2,0.9-6.2-0.1-4.7-1.1
			C859,181.1,859.8,180.3,861.9,180.9z"/>
		<path class="st1" d="M839,37c-0.7,0.3-1.4,0.5,0,0.6c-2.6,0.6-2.2-0.6-7,0C832.2,36.9,836,37,839,37z"/>
		<path class="st1" d="M835.4,33.8c-1.6,0.6-9.8,0.4-11.6,0C825.3,33.3,833.6,33.5,835.4,33.8z"/>
		<path class="st1" d="M830.9,37.6c-3.5,0.3-7.4,0-12.8,0c2.1-0.6,9.1-0.1,11.6-0.6C829.6,37.4,830,37.5,830.9,37.6z"/>
		<path class="st1" d="M773.4,26.5c-2.7,0.8-7.1-0.4-10.4,0.3C762.9,25.2,769.6,26.5,773.4,26.5z"/>
		<path class="st1" d="M773.5,29.4c1.5,0.9-3.8,0.2-2.3,1.2c-2.7,0.1-1.3-0.8-3.5-0.9C768.8,28.7,769.9,29.6,773.5,29.4z"/>
		<path class="st1" d="M769.8,24.8c-1.5-0.4-5.5-0.2-7-0.6C765.2,23.5,769.7,23.6,769.8,24.8z"/>
		<path class="st1" d="M752.6,29.5c-3.3,0.8-14.9,1.1-17.4,0.4c0.8-0.6,3.1-0.8,5.7-0.9c-4.7,0.8,10,1.1,7-0.3
			C751,28.5,748.9,29.8,752.6,29.5z"/>
		<path class="st1" d="M711,31.4c0,0.3,0,0.6,0,0.9c-4.3,0.3-1.9-1.1-5.8-0.9C705.4,30.7,710.2,31.2,711,31.4z"/>
		<path class="st1" d="M689.9,28.6c-0.9,1.6-6.5,0.2-10.4,0.9C680.1,28.5,687.3,29.1,689.9,28.6z"/>
		<path class="st1" d="M686,22.2c0,0.3,0,0.6,0.1,0.9c-0.9-0.7-8,0.3-7-0.8C681.4,22.2,683.7,22.2,686,22.2z"/>
		<path class="st1" d="M633.1,180c-0.4,0.8-5.3,0.6-10.4,0.9c0.4-0.5-0.9-0.5-2.4-0.6C623.1,179.8,628.7,180.6,633.1,180z"/>
		<path class="st1" d="M613.6,16.4c-1.5,0.6-7.1,0.2-9.2,0.6C605.2,16,610.8,16.2,613.6,16.4z"/>
		<path class="st1" d="M513.5,180.5c-0.8,0.6-3.1,0.8-5.8,0.9C506.2,180.2,510.4,180.5,513.5,180.5z"/>
		<path class="st1" d="M404.6,183.5c-0.6,0.3-3.2,0.5-1.1,0.6c-5,0.8-12.9,0.5-18.6,0.1C391.7,183.8,396,183.8,404.6,183.5z"/>
		<path class="st1" d="M402,179.8c-2.3,0.8-6.7,1-9.2,1.8C393.8,179.9,396.6,179.9,402,179.8z"/>
		<path class="st1" d="M383.6,181.9c0.2,0.3,2.1,0.2,3.5,0.3c-1.3,0.8-6.6,0.7-8,1.5c-2-0.2-0.8-0.7,1.1-0.6c-1.1-1-0.2-0.7-1.3-1.7
			c4.2-0.1,7.2-0.5,10.4-0.9c1.7,0.2,2.5,0.7,2.4,1.4C388.4,182.8,385.9,181.1,383.6,181.9z"/>
		<path class="st1" d="M377.9,184.5c-1.5,1.1-5.4,0.4-8.1,0.6c-4.3,0.4,1.3,1.6-4.6,0C370,184.4,372.6,184.9,377.9,184.5z"/>
		<path class="st1" d="M359.3,15.9c-0.9,1.9-5.3-0.3-9.3,0.6C349.3,15.4,356.4,16.2,359.3,15.9z"/>
		<path class="st1" d="M341.9,184.6c1.1,0.4-8.9,0.5-12.7,0.6C332,184.7,336.7,184.6,341.9,184.6z"/>
		<path class="st1" d="M318.6,182.7c-2.2-0.5-2.9,0-5.8,0C311.6,181.5,319.6,181.5,318.6,182.7z"/>
		<path class="st1" d="M306.7,177.8c-2,0.5-3,0-6.9,0.3C298.6,177.1,305.8,177.6,306.7,177.8z"/>
		<path class="st1" d="M273.1,11c-4.1-0.5-5.2,0.2-9.3,0.3C264.2,10.5,272.7,9.3,273.1,11z"/>
		<path class="st1" d="M279.2,147.1c0,0.3,0,0.6,0.1,0.9c-2.8,0.7-6.8,0-10.5,0C272.5,147.8,274.5,147.1,279.2,147.1z"/>
		<path class="st1" d="M234.6,157.8c-0.2,0.5-2,0.7-4.6,0.6c0.2-0.3-0.3-0.5-1.2-0.6C229,157.1,233.9,157.6,234.6,157.8z"/>
		<path class="st1" d="M231.2,159.2c-2,0.5-4.2-0.1-8.1,0.3c-0.7-1,3.4-0.9,6.9-0.9C229.8,159,230.3,159.2,231.2,159.2z"/>
		<path class="st1" d="M217.8,167.7c-3.6,0.6-5.4,0.6-10.4,1.2c-0.5-0.3-1-0.5-2.4-0.6c-0.5-0.7,5.3,0.1,3.4-0.9
			C212,167.8,212.5,167.5,217.8,167.7z"/>
		<path class="st1" d="M175.2,136.5c0.5,1.6-7.7,0-11.5,0.9c-0.5,1.3,5.5,0.8,8.2,0.5c-1.3,2.2-12.1-1-11.5,1.5
			c-2.8-0.2-5.3-0.4-9.3-0.3c-1.2-1,4.5-0.4,6.9-0.6c-4.4-1.1,3.8-1-1.3-2.3C162.8,136.8,167.7,136.9,175.2,136.5z"/>
		<path class="st1" d="M148.8,11.2c0.8,1.7-6-0.2-6.9,1.2c-2.3-0.5,3.6-1.6-1.3-2.3C144.6,9,145.3,11.2,148.8,11.2z"/>
		<path class="st1" d="M115.5,15.7c-5.9,0.6,3.5,1.4-6.9,1.8c0-0.5-0.1-1-0.1-1.5C112.6,15.9,111.3,15.2,115.5,15.7z"/>
		<path class="st1" d="M109.5,13.4c-6.7,0.6-8.2,2.4-16.1,2.7c-0.3,0.5,1.1,0.5,1.2,0.9c2.7-0.4,6.5-0.5,9.2-0.9
			c0.7,0.8-3.1,2.7,4.8,2.9c-5.7,1.6-9-2-17.5-1.7c-0.1-1.3-2.1-2-4.8-2.6c2.4-0.7,4.7-1.5,8-2.1c4.3-0.1,6,0.4,7,1.1
			C104.1,13,104.5,13.4,109.5,13.4z"/>
		<path class="st1" d="M96.1,22.5c-8.2,0.2-0.6-1.8-8.2-1.7c2.1-0.3,3.2-0.8,5.7-0.9C92.7,21.2,96.6,21.2,96.1,22.5z"/>
		<path class="st1" d="M68.1,150.6c-3.2,0.8-0.9,0.7,0.1,1.7c-2.1,0-2.4,0.4-4.6,0.3C65.5,152.1,62.4,150.2,68.1,150.6z"/>
		<path class="st1" d="M58.7,167.2c-2.1,0.6-6.8,0.9-5.8-0.6C56.4,166.4,55.1,167.4,58.7,167.2z"/>
		<path class="st1" d="M24.2,173.4c0.7,1-10.4,0.7-11.6,0.3c-2.8,0.2-2.5,1.1-3.4,1.8c-3.1-0.6-4-1.7-6-2.6
			c2.1-0.5,13.4-0.2,10.5,0.5C17.5,173.3,20.7,173.1,24.2,173.4z"/>
		<path class="st1" d="M4.9,142.1c-1.9,0.8-8.1,0.2-9.3-0.3C-3,141.2,1.8,142.2,4.9,142.1z"/>
		<path class="st1" d="M2119.2,65.1c-10.3-0.5-24-0.9-31.4-0.5c-4.2-2.1-23.6,0.7-25.7-2.5c-4.7-0.1-1.7,1.7-6.9,1.5
			c-3.7-0.4-6.5-1.1-10.5-1.4c-3.2,1-10.2,0.5-11.7-0.5c1.5,0,1-0.5,2.3-0.6c4.4,0.9,16.2,0.6,20.9-0.1c-8.4,0-19.2-0.6-26.7,0.1
			c1.4,0,3.3-0.1,3.5,0.3c-3.4-0.1-3.5,0.7-6.9,0.6c-0.8-0.6,3.2-0.9-1.2-0.9c-1.5,0.3-2.2,0.8-4.6,0.9c-7.6-0.8-19.3-1.3-26.7-0.5
			c-10.6-2.4-32.9,0.8-35-3.1c-9.3,0.7-18.9,0.8-27.9-0.5c-2.2,0-0.7,1-3.4,0.9c-9.4-1.7-23.5,0.9-34.8,0.1
			c0.7-1.2,11.6,0.2,8.1-1.2c-16.5,1.2-30.1-1.1-43-1c0.4-0.7,5.1-0.3,4.6-1.2c-3.6,0.1-11.5-0.4-16.3,0.1c-0.4-0.4-1.7-0.5-1.2-1.2
			c-8.6,0.7-16-0.5-25.6-1.1c-1.6,0.7,3.1,1.1,0.1,1.2c-2.3,0-4.6,0-7,0c1.5-0.4,1.5-1.1-1.2-1.2c-9.9,0.5-22.2-0.2-31.3,1
			c3.4-1.1-3-0.3-3.5-0.3c-0.2,0,0.2-0.6,0-0.6c-17.7-1.3-53.3,1.6-61.5-0.1c2,0.7-5,1.9-9.2,0.9c-0.9-0.8,2.3-0.6,2.3-1.2
			c-28.1,0.6-58.9,0.1-91.7,0.4c0.9,0.1,2.3,0,2.3,0.3c-15.4-0.3-21.9-1.1-34.9-0.4c-11.6-0.4-33.3,0-39.5-0.1
			c1,0.2,6.7,0.6,3.5,0.9c-12.5-1.8-23.3-1.7-40.7-1.6c-1.4-1.4-13.9-1.4-13.9,0.1c3.8,0.2,5.8-0.1,6.9-0.6c1.5,0.4,6.1,0,4.7,1.1
			c-5.9,0-24.4,0.4-15.2-0.8c-17.9,1.1-23.5-1-39.5-0.1c-3-2.8-24.7-0.4-23.3-1.9c-4.2,0.7-10.8,0.6-15.1-0.5c10-0.8,17-0.3,23.2-1
			c-3.8,0.1-7.1,0.1-8.2-0.5c-5.1,1-10.3,0.8-15.1,0.1c0.3,1.3-4.7,0.2-5.8,0c-1.4,0.9,3.8,0.2,2.4,1.2c-7.6,0.5-16.8,0.1-24.4-0.8
			c2.2,0,3.9-0.2,4.6-0.6c-6.5,0.5-13.8-1.1-15.1,0.6c2.4,0.2,7.6-0.4,8.1,0.3c-8.4,0.5-14.5,0.2-19.8-0.5c1.5,0,8.4,0,4.6-0.3
			c-5.4-0.3-7,0.4-10.4,0.6c-11.8-2.1-20.2-1.3-32.6-1.9c-1.5,1.1-8.5,0.8-13.9,0.9c0-0.4-0.6-0.6-1.2-0.9c-0.4-0.8,4.5-0.2,3.4-1.2
			c-4.7-0.1-15.2,0.5-22.1-0.8c-2.9,0.6-16.9,1.3-18.6-0.5c8.1-0.3,15.2-0.6,19.7-0.1c1.2-1,24,0.5,22-1.2c1,0.4,1.8,0.9,4.7,0.9
			c1.7-0.5,5.2-0.9,8-1.8c-0.5,2.1,6.9-1,8.2,0.8c3.8,0.2,2.4-0.8,4.6-0.9c3.1,0.3,4.6,1,8.2,1.1c26.3-2.3,56.3,0.2,82.4-0.6
			c-5.9-0.3-13.2-0.1-16.3-1.1c2-0.1,5.8,0.8,7,0c-2.1-0.3-5.8-0.1-7-0.6c6.2-0.5,10.5,1,12.8,0.5c-6.7-0.1,0.2-1.1-0.1-1.2
			c-2.3-0.5-5.8,0.3-9.3-0.8c-0.2,0.5,1.3,0.6,1.2,1.2c-2.4-0.1-2.3-0.8-4.7-0.9c-16,3-41.3,0.4-60.3,2c-1.1-1.5-5.1-0.7-4.6,0
			c-5.3-0.4-6.1-1-8.2-1.7c-4.7,2-19-0.1-25.5,1.3c-7.2-1.7-23.4,0.3-31.3,0.1c0.9,0.1,1.4,0.2,1.2,0.6c-4.1,0.1-6.6,0.5-9.3-0.3
			c2.7-0.7,2.2,0.4,5.8,0.3c-8.5-2-21.7-0.4-33.7-1c-1.8,0.4-4.5,0.6-6.9,0.9c-2.2-0.8-8.7-0.5-14-0.5c-0.8,0.8-2.8,1.4-8.1,1.2
			c6.1,2,17,1.4,24.5,1.1c-4,1.1,2.4,1.3-2.2,2c-3.4-1.6-21.9-0.4-26.8-0.8c2.2,0.1,5,0.1,4.7,0.8c-3.5,0-9.9,0.8-12.8,0.1
			c5.8,0.2,4.5-1,8.1,0c-2.3-0.9-5.1-1.6-9.4-2c-0.8,0.9,4,0.3,2.4,1.4c-1.2,0-1.4,0.2-2.3,0.3c-1.6-0.8-12.7-0.3-9.4-1.4
			c-8.4,0.5-21,0.3-24.5-1.4c-14.1,0.7-25.1,1.6-39.4,1c-0.2-0.4,0.3-1.1-1.2-1.2c-0.9,0.6-4,0.7-5.7,1.2c-0.4-1-3.1,0-3.5-0.6
			c1.6-0.1,1.3-0.6,2.3-0.9c-2.7,0.1-4.5,0-5.8-0.3c-0.8,0.9,4,0.3,2.4,1.4c-2.9,0-3.6,0.5-5.8,0.6c-4.5-1.1-11.5,0.9-19.8-0.2
			c0.4-0.4,1.6-0.6,1.1-1.2c-4.3,0.1-4,1.3-8,1.5c0.3-0.4,1.9-0.5,2.3-0.9c-5.7,2.1-19.6-0.2-23.2-0.2c1.3,0.1,2.8,0.5,1.2,0.6
			c-18.8-0.5-34.8,0.2-52.3,0.2c-0.1-0.3,1.7-0.5,0-0.6c-7.9,0.3-48,3.7-40.6,0.2c-0.9-0.1-2.3,0-2.3-0.3c1.4-0.1,3.3,0,3.5-0.3
			c-3.6-0.4-10.2,0.5-15.1,0.6c-1.2-0.4-2-0.9-3.6-1.1c-8.5,2.1-14.5-1.1-23.2-0.2c-0.4-0.8,4.5-0.2,3.4-1.2
			c-11.8,2.4-32,0.5-48.7,1.4c-0.4-0.8,6.5,0.2,4.6-0.9c-12,0.9-34.7-0.1-49.9,0.8c3.5-0.9-4.3-0.4-4.7-1.1
			c10.1-2,21.1-0.3,34.7-1.9c-0.7-0.4,1.3-1.5-1.3-1.4c-3.6,2.7-18.1,1.1-27.7,2.1c-0.5-0.5-3.7-0.2-2.4-1.2
			c-8.9,1.7-26.8,1.4-40.6,0.4c-3.4,1.3-11.4-0.2-17.4,0.6c2.5-0.4,1.8-1.7,5.7-1.8c1.4,0.8-3.5,1.3,1.2,1.2
			c1.4-2.1,16.5-0.8,19.6-1.5c-3-0.1,1.6-0.5-0.1-1.2c-4.9,0.8-9.5,0-13.9,0.9c-2.6-0.9-12.3-1.7-7,0c-4.1-1.7-13.3-0.3-17.5-1.7
			c12.7,0.2,17.2-1.2,26.6-1.3c-5.5-1-8.6-0.4-14-0.5c-0.1-0.4,0.5-0.6,1.1-0.9c-16.8-0.1-28,0.2-40.7-1.6c-0.2,0.3,0.3,0.8-1.1,0.9
			c-7.5-1.2-21.4-0.6-29.1-0.5c1.4,0,2.8,0.1,2.4,0.6c-5.1,0-11.1,0.3-11.7-0.8c-2.7,0.1-1,1.3-4.6,1.2c-3.6-0.6-5.3-1.8-9.4-2.3
			c3.7,1.1-15.6,1.8-10.5-0.2c-7.3-0.2-11.2,0.7-16.3-0.8c-2.1,0.5-3.8,1.2-6.9,1.5c0.9,2.8-1.5,3.1-0.8,5.2
			c6.2-0.6,10.7-1,12.8,0.8c1.2-0.8,10.6-0.8,12.8,0c7.8-1.9,18.8,0.6,31.4,0.2c-0.6,1.4,3.9,0.3,5.9,1.4c-4.2,0.1-7.8,0.4-11.6,0.6
			c1.6-0.9-0.3-1.1-2.4-1.7c-1.6,0.9-7.5,0.7-9.3,0c-1.3,1.2,4.9,0.5,5.9,1.1c-4.5,0.4-9.9,0.7-13.9,1.2c-2.3-1.6-10.9-1.5-16.3-0.8
			c-2.3-0.7-2.3-0.8-0.1-1.4c-10.7,1.3-23.9,1-31.4-0.2c-3,2.1-12.5-0.6-16.3,0.1c1.7,0.2,2.9,0.4,3.5,0.9c-3.6-0.2-3.4,0.5-6.9,0.3
			c0.2-1.1-4.4-1-7.1-1.4c-1.1,0.5,3.5,1,0.1,1.2c-9.8-0.3-13.5-0.5-20.9,0.4c-1.1-0.9-0.1-1.8-7.1-1.7c0.1,0.5-0.2,0.9-1.1,1.2
			c2.9,0.4,4.8-0.9,5.8,0c-6.7,0.6-11.7-1.3-17.4,0.6c-1.7-0.2-4.5-0.2-3.6-1.1c2.2,0.1,1,1.1,4.7,0.9c-1.5-1.3,4.4-1.4,8-1.5
			c-7.6-0.1-12.2-3.2-15.2-1.1c-11.5-0.7-19.4-1.8-31.5-2.8c0.2-0.4,1.9-0.5,2.3-0.9c-6.2-0.6-9.7,1.5-10.5-0.2
			c5.7-0.1,12.5,0.2,15.1-0.6c-2.2,0-3.9-0.2-4.7-0.6c5.2,0.7,1-1.1,10.4-0.6c-1-1.1,3.3-0.9,3.4-1.8c-2.8-0.5-7.7-0.4-9.4-1.1
			c9-0.9,14.5-0.7,19.8,0.5c-1.7,0.2-6-0.3-5.8,0.3c6.4-0.2-4,1,2.4,0.9c3.4-1.2,7.5-1.3,11.5-1.8c-2.3,1.2,5.2-0.8,7,0.8
			c2-0.3,2.3-1,4.6-1.2c9.1,1.8,26.7,1.5,36.1,1.9c-1.7-0.3-5.2-0.2-4.7-1.1c1.2,0,1.4-0.2,2.3-0.3c3.7,1.3,11.3-0.2,12.9,1.4
			c6,0,5.7-0.3,9.3,0.3c1-0.6-0.7-1.4,5.7-1.2c-0.3,0.6-3.1,0.6-3.4,1.2c9.2,0.1,25.7-1.1,31.4,0.5c14.9-4.5,38.9,1.6,51-1.7
			c0,0.4,2.1,0.3,2.4,0.6c-3-0.2-4.2,0.1-3.4,0.9c5.9-0.1,5.7,0,14,0.5c-1.8-1.6-10.8-1.3-14.1-2.6c2.5-0.5,8.5-0.2,12.8-0.3
			c-1.5-0.8-12-0.8-15.1-0.8c-0.2,0-0.6,0.9-2.3,0.9c-1.6-0.1-3-0.8-4.7-0.9c-7.8-0.2-19,1.3-23.2-0.5c4.1,0.1,6-0.3,6.9-0.9
			c-19.4,0.7-31.4-0.1-53.4,0.2c0-0.3,0.9-0.4,1.1-0.6c-7.5,0.7-15.9-0.4-24.3,1c0.3-0.4,1.9-0.5,2.3-0.9c-4.8,0.3-8.8,0.7-12.7,1.2
			c2.4-0.7-3.9-0.9-4.7-1.7c0.2,0.6-0.9,0.9-3.4,0.9c-2.6-0.4,1.4-0.7-1.2-0.9c-6,0.4-12.7,0.5-17.3,1.2c-0.1-0.5,5.9-1,2.2-1.5
			c-7.2,1.5-26.8-0.5-33.7-0.7c3.4,0.3-3.6,0.9-4.6,0.3c-1.5,0.7,4.6,0.9,1.2,1.2c-1.6-1.1-9.2-0.3-10.5-0.8c-1.9-1,3.9-0.2,3.4-0.9
			c-4.8-0.6-10.2-1.1-16.3-1.4c10.8-1.3,32.4,0.9,47.5-1.3c-1-0.7-5.1,0.3-6.9,0.3c-0.9-1.9-4-0.1-7-0.8c2.8-2.4,12.5,0.1,17.4-0.6
			c-1.4,0-2.8-0.1-2.4-0.6c1.2,0,1.4-0.2,2.3-0.3c7.3,0.2,20.2,1.2,20.9-0.4c5.7,0.1,10.2,2.1,15.2,1.4c-6-0.5-11.7-1.1-14.1-2.6
			c0.1-0.4,8.3-0.2,4.6-0.6c-8.4,1-11.6,0.8-19.7,0.9c0.9,0.5,5.7-0.1,4.7,0.9c-3.5-0.1-9,0.4-9.3-0.5c3.3-0.5-1.8-1.5-2.4-0.9
			c3.2,0.2-0.9,1.1-2.3,1.2c-0.2-0.4-2.8-0.3-4.7-0.3c0.1-0.5-0.3-0.9-1.2-1.2c-3.6,0-5.5,0.4-8.1,0.6c-15-1.5-35.7,1.7-49.9,0.8
			c0.7,0,1.4,0,1.1-0.3c-2.4,1.3-9.6,0.3-9.2,1.2c-1.3-0.3-7.7-0.7-8.1-0.3c0.7,0.5,5.5,0,5.8,0.6c-0.2,0.3-1.3,0.5-2.3,0.6
			c-3.1-0.8-3.6-0.4-7,0c-1.2-0.3-2.3-0.6-3.5-0.9c-7.2,0.5-10.4,0.4-17.4,0.6c-0.1-0.4,0.5-0.6,1.1-0.9c-3.1,0.3-5.9,0.3-8.1-0.3
			c3.4-0.3,5.8-0.9,8-1.5c-5.1,0.5-13.3,0.2-15,1.5c2.1,0.2,4.8-0.9,5.8,0c-3.6,0.3-6.6,0.7-9.2,1.2c0.1-0.5-1.2-0.7-3.5-0.6
			c2.5-0.7-1.4-1.6-3.6-2c-0.7,1.1,2.6,1.1,2.5,2c-5.4-0.2-1.2,0.5-3.5,0.6c-5.9,0.2-6.7-1-11.7-1.1c1.3-0.9,6-1,8-1.8
			c-6.5-0.2-7.1,1.1-12.7,1.2c0.1-0.7,2.1-0.9-1.2-1.2c-7.2,1.8-22.1,1.3-31.3,1.6c1.6,0.7,3.5-0.5,4.7,0.3
			c-0.3,0.4-2.5,0.3-3.4,0.6c-0.7-0.7-4.5-0.6-3.6-1.7c-6.5,1.1-13.6,0.2-22,0.7c-1.1-0.4-2.9-2.2-5.9-1.1c1.4,0,2.8,0.1,2.4,0.6
			c-4.9,0.3-8.3,0.3-16.2,0.3c-0.9-2-10.4-1.8-15.3-2.8c-2.5,0.4,1.5,0.7-1.1,0.9c-12-1.4-19.2-1.2-35-1.9c7.6-0.5-7.3-0.4-2.4-1.2
			c-5.1,0.6-14.3,1.1-17.4,0.6c1.9-0.2,2,1.4,0.1,1.2c-2.4-0.5-0.4-1.1-4.7-0.6c0.6-1-0.5-1.6-3.6-1.7c-1.6,0.2-0.1,1.1-2.2,1.2
			c-3.6-0.5-4.5-0.2-7-0.6c1.7-0.2,2.8-0.5,3.4-0.9c-3.8,0.2-1.9-0.6-1.2-0.9c-3.6-0.3-7.1-0.5-9.4-1.1c0.1,1.4,3.1,2.1,0.2,3.2
			c3.7,0.1,3.3,1.3,4.8,2c-17.1,0.2-39.9-0.8-54.8-3c2.2-0.9,2.1-1.8-1.3-2.6c-6.6,5.5-29.3-0.7-44,1.6c-1.5,1.6,1.1,1.8,1.4,3.5
			c-9.1-0.2-11.1,1.3-14.9,2.4c-6.9,0.5-9.8,0.3-17.4,0.6c-0.2-0.4-0.4-0.7-2.4-0.6c-3.1,0.3,3.1,0.5,1.3,1.4
			c-7.9,0.2-9.7,3-17.3,2.4c2.4,1.6,0.1,2.5-1,3.2c0-0.4-3.2-0.4-3.5,0c1.9,0.1-0.1,0.4-2.3,0.3c2.5-0.5-5.9-2.2-7-0.8
			c4.2,0.6,11.5,1,8.3,2.6c4.1-0.2,6,0.2,7,0.8c-1.3,0.4-2.9,0.8-4.6,1.2c1.1,0.6,3.3,0.9,4.7,1.4c-5.2,0.9-18.3,1.8-24.4-0.2
			c-4.6,0.4-9.6,2.9-13.9,0.9c1.6-0.1,5.3-0.6,6.9-1.5c-4.6,0-10.5,1.8-13.9,0.3c9.5-1.9,24.6-3.1,38.2-2.5
			c-8.6-1.6-24.4-0.2-35.9,1c-4.9-0.7-15.8-0.3-22,0.7c-2.7-0.2-3.2-1-5.9-1.1c-8.8,0.1-28.5,2.9-27.9-0.5c-4.2-0.4-0.6,1-3.4,0.9
			C5,27.5,3,27.2,3.5,26.3c11.2-2.6,27.1-4.1,39.1-6.5c-3.2-0.7-8-1.1-8.3-2.6c-25.8,0-34.8,7-61.1,6.9c4,2.7-6.8,3.9-0.8,6.4
			c-2,0-3.6,0.1-4.6,0.3c1.4,2.3,3.5,3.9-2,5.5c0,0.5,3.2,0.2,3.5,0.6c-3.9,0-3.1,1.2-4.5,1.8c0.7,0.4,4.5,0,4.7,0.6
			c5.2,6.4,12.5,9.6,23.1,16.5c9.2,1.4,13.4,4,22.4,5.4c-2.8,1.2,5.7,2.5,2.6,3.8c2.6-0.1,4.4,0.1,4.7,0.6c-2.6-0.1-4.4,0.1-4.6,0.6
			c5.6-0.3,2.2,1.3,2.4,1.4c3.4,2.2,13,4,15.5,6.6c-12.4,1.1-24.6-2.6-34.9-1c-4.2-0.8-10.9-0.9-11.8-2.6c3.7-0.1,6.9-0.2,6.9-1.2
			c-8-1.1-16.5-2-28-2.2c-1.8-2.6-16.9-1.7-25.7-2.5c0-0.6,3.1-0.4,2.2-1.2c-12.4,0.5-28-0.1-40.7-1c-4.8-3.4-30.8-2.6-31.7-6
			c-5.6-0.3-11.7-0.5-14-1.7c1.5-1.4,5.6-2.3,4.4-4.4c-3.1-1.6-12.8-1.4-17.6-2.5c-0.3,1.1-7.3,2-11.5,1.2c0.8-0.6,3.5-0.7,4.6-1.2
			c-4.6-1.7-3.6-3.2-7.3-4.9c-3.8,0.1-9.7,0.5-10.5-0.8c2.1-0.2,4.9,0.8,5.8,0c-3.7,0-3.5-1.1-7-1.1c0.1,1.9-4.6,0.1-7,0
			c-3.3,0.7,0.6,1.4-2.2,2.3c-14.5,0.3-25.2-5.3-35-2.5c1.5,0.4,5.1,0.3,8.1,0.3c7.7,2.4,17.9,4.2,28.2,6c-0.3,0.4-1.6,0.6-1.1,1.2
			c4-0.2,6.1-0.8,10.4-0.9c1.6,0.6,3.3,1.1,8.2,0.8c-4.7,1.4,3.6,1.2,3.6,2.3c-3.7,0.4-3.2,0.6-2.2,1.7c-2.3,0-1.4,0.8-4.6,0.6
			c-10.4-0.7-22.5-1.6-36.1-1.6c5.1,1.9,16.5,2.2,24.6,3.4c-1.5,2.6,2.8,3.4,9.6,5.2c3.8,0.3,0.8-0.9,4.6-0.6
			c3.6,2.9,14.7,5.1,12.1,8.7c-14.4-0.2-14.1,3.3-28.8,3c-0.2,1.3-4.6,1.6-5.6,2.6c0.4,0.6,2.4,0.8,3.6,1.1
			c-0.7,0.8-3.4,1.1-5.7,1.5c-3.5,3.9,11.7,2.9,12,5.8c-10.1,0.8-25.1,0.4-32.4,1.9c4.5,0.2,6.4,2.2,2.5,2.9c6.4,0.9,7.3,3.2,14.2,4
			c11.4-1.5,10.7-4.8,24-6.2c7.8,4.6,41.9,3.9,52.6,4.7c-1.5-0.1-2.4-0.4-2.4-0.9c5.6-0.3,8.2,0.2,11.6,0.5
			c-0.9-1.2,5.7-0.5,6.9-1.2c-1.7-0.2-3.7-0.4-3.6-1.1c18.1,0.1,28.1-1.7,46.3-2.2c0.2-0.3-0.2-0.8,1.1-0.9c24.7,0.2,41-1.3,63.7-2
			c0.2-0.3-0.3-0.8,1.1-0.9c4.8,0.5,11,0.5,14,0.5c-0.9-0.1-1.3-0.2-1.2-0.6c18,0.4,41.6-1.3,45.5,3c-1.7-0.3-2.9-0.3-3.5,0.3
			c3.4,0.4,9.4,1.3,6,2.6c5.9-0.4,9.9,1.3,7.1,2.3c0.4,0.4,1.7,0.5,1.2,1.2c3.7,0.2,2.4,0.2,4.6-0.3c0,0.4,0.6,0.6,1.2,0.9
			c-1.8,0-4,0-3.4,0.6c7.8-0.3,1.7,1.3,4.8,2c4.4-0.2,2.7-1.8,9.2-1.5c-2.6,0.7,0.5,1.1,0.1,2c-0.7-0.1-4.5-0.7-4.6,0
			c3,0,1.9,1.1,3.6,1.4c2,0,3.6-0.1,4.6-0.3c-4.2,1.1,6-0.1,3.6,1.4c-7.7-0.7-14.2-0.2-22,0.4c-3.1-1.9-16.8-1.2-19.9-3.1
			c1.4-0.1,2.6-0.3,3.4-0.6c-2.6-0.2-3-1-4.7-1.4c-12.6,0.4-14.5-4.3-28.2-4.5c-0.2,1.6-6,1.6-11.5,1.2c0.1,1.5-3.7,1.1-8.1,0.9
			c2.7,2.7-9.9,3.1-5.5,5.2c-1.6-0.4-4.3-0.4-4.6,0.3c0.9,0.5,5.7-0.1,4.7,0.9c-0.2,0.4-2.8,0.3-4.6,0.3c0.8,3,14.2,2.8,18.9,4.9
			c-18.1,1.7-27-2.5-41.9-1.6c0-0.4,0-0.8-0.1-1.2c-14.1-1-13.6,3.8-25.3,3.3c-5.9,1.8-13.9,3.1-24.2,3.9c1.1,0.4-7.2,0.9-8,1.8
			c-19.3,0.1,0.1,5.5-3,7.3c3.8,1.1,8.8,1.9,10.7,3.4c-4.3,0-3.3,0.5-1.1,0.9c-1.5,0-3.1,0-4.6,0c0.4,1.8-3.8,1.9,1.3,2.9
			c11.4-0.9,21.9,0.3,26.9,2.8c-1.8,0-0.9,0.7-3.4,0.6c-0.9,1.3,5.8,0.7,5.9,1.7c-8-0.4-9-2.6-16.4-3.1c1,0.8-1.6,0.8-1.1,1.5
			c2.2,0.1,2.5-0.3,4.6-0.3c-2.2,0.6,2.4,0.9,2.4,1.7c5-0.1,4.3,0.5,9.3,0.8c0.4-0.5,6.8-1,8.1-0.3c-7.3-0.1,2,0.8-3.4,1.2
			c10,0.4,12.9,1.2,18.7,1.1c-3.8,0.4-6.6,1.1-6.8,2.3c3.1-0.2,2.3,0.6,3.5,0.9c14.8,0.5,20.9,3.4,38.6,3.9
			c-4.5,1.6-15.2,0.7-26.6,1.3c-1.8,0.9-5,1.4-4.5,2.9c12.5-0.3,28.4,2,41.8,0.1c7.9,1.8,26-1,39.5-0.4c5.3,0.2,17.9,0.1,20.8-1.8
			c16.4,0.1,33.7-0.9,54.5-1.1c1.4,0.7-3.5,1.3,1.2,1.2c5.9-1.5,19.6-0.7,25.4-1.6c-19.7-0.2-37.2-0.7-56.9-0.7
			c-0.3-0.4-1.9-0.5-2.4-0.9c12.5,0.6,29-3.8,26.6-1.6c1.2-0.4,6.2,0.7,10.5,0.5c2.7-2.6,12.1,0,19.7-0.4c-0.4-0.8,4.5-0.2,3.4-1.2
			c-0.4-0.9-4.5-0.8-4.8-1.7c7-2,14.7-0.7,25.5-1c0.5,0.4,1.4,0.5,0.1,0.9c2.8-0.2,11-0.9,10.5,0.5c-5.7,0.6-2-0.1-5.8-0.3
			c-2.3,1.1,0.3,1.6,3.6,2c-3.5,0.6-3.2,2.1-8,2.4c2.2,0,3.9,0.2,4.7,0.6c-0.8,0.7-4.4,0.7-4.6,1.5c4.3-0.4,9.7-0.2,15.1,0.5
			c-0.2-1.5,7.2-1,9.2-0.9c-1.4,0.8-4.7,1-8.1,0.6c2.2,1.3-4.6,0.4-3.4,1.5c4.6,0.4,17.1-3.2,23.2-0.7c-10.4-0.4-12.3,1.2-18.5,1.8
			c-3.5,3.9,10.4,2.7,17.7,4c9.9-0.4,24.9,1.2,32.5,0.2c-3.6-0.3-11.6,0.2-12.9-1.4c2.4-1.5,6.9,0.7,8.1-0.6
			c-5.1-0.4-7.3,0.3-9.3-0.8c1.5,0,1-0.5,2.3-0.6c4.7,0.3,10.1,1.1,9.4,2c-0.4-0.9,3.4,0.7,3.5-0.3c-1.7-0.2-1.7-0.9-2.4-1.4
			c-5.7,0.1-9.4-0.3-10.5-1.4c8.4-1.6,15.4,0.1,22-1.8c1,0.6,8.4,1.2,10.5,0.5c-2.1,0-2.7-0.3-2.4-0.9c17,1.2,26.7,1,41.9,1.3
			c-4.2,0.9-6.6,0.4-11.6,0.9c2.4,0.5,6.1,0.6,7.1,1.4c-3.9,0.6-7.1,1.1-6.9,2.1c-6.4,0.2-10.4,1.3-17.4,0.6
			c2.6,1.3,7.9,0.6,11.6,0.2c0,0.3,1,0.3,1.2,0.6c-5.5,1.6-2.9,2.8-0.8,5.2c-23.8,1.6-43.6-1.8-67.3,0c-8.6-0.3-17.6-1.8-30.3-1.3
			c0.4-0.7-2.2-0.6-1.2-1.4c-10.2,0.7-19.8-0.1-26.8-1.1c-1,2-9.9-0.6-13.9,0.3c-0.5-0.4-1.4-0.5,0-0.9c-8.8,1.9-14.9-1.8-25.6-0.8
			c5,0.2-4.2,1.6,4.7,1.4c1.5-0.7-3.1-1.1-0.1-1.2c-0.2,1.8,9.4,1.4,13,2.9c6.4-1.6,13-0.1,22.1-0.1c0.9,0.6,3.1,2.3,5.9,1.4
			c-4.7,0.2,0.8-1,1.1-1.5c6.7,0,12.8,0.8,18.6,1.1c-2,1.4-1.8,0.9-6.9,0.6c0.2,1.1,1.4,0.8,0.1,1.7c5.4,0.3,5.6-0.6,8.1-0.9
			c-1.5,1.9,13.4,0.7,17.5,1.7c-0.3-0.6,0.9-0.9,3.4-0.9c-0.4,0.4-1.4,0.5,0.1,0.9c22.2-0.1,42.5-1.2,62.7-0.5
			c6.7-1,26.5-1.9,25.6,1.1c24.3,1.5,49.1,0.1,75.5,0.9c8.7-1.5,19.8-1.2,27.8-0.7c-1.2-0.1,2.4-0.7,4.6-0.3
			c8.3,1.4-5.8,2.1-12.7,2.1c6-0.1,0.2,1.9-1,2.6c-13,0.8-23.5,0.8-34.7,1.6c-3-0.1-3.6-0.9-7-0.8c-4.8,1.2-10.3-0.5-16.3-0.2
			c-3.4,0.2-5.8,1.4-9.2,1.5c-3.8,0.1-7.3-1.1-10.5-1.1c-1.9,0-5.3,0.5-6.9,0.6c0.2,0,0.8-0.6,1.1-0.6c-3.5,0-5.1,0.8-8.1,0.9
			c-0.5,0-0.9-0.8-1.2-0.9c-4.2-0.5-9.3,1.1-13.9,1.2c-3.4-0.8,3.8-1.3-1.3-1.4c-0.2,1-5.2,0.8-6.9,1.5c-3.4-1.6-13.1,0.2-11.7-1.4
			c-7.9,0.6-21.7,1.3-28.9,1.3c1.3,0,1.3,0.5,1.2,0.9c-8.7,0-11.6,0-16.2,0.6c0-0.3,0.9-0.4,1.1-0.6c-13.1,0.2-24.3,0.5-32.5,0.1
			c-1.1,0.4-1.9,0.9-3.4,1.2c-3-0.7-3.7-0.4-5.8,0.3c-2.4-0.5-1.5-1.7-4.7-1.1c4,0.8-4.5,1-6.9,1.2c-0.1-0.6-3.2-0.4-2.4-1.2
			c-0.4-0.7,3.3-0.3,3.4-0.9c-7.6,0.1-7.5,1-8,2.4c2.8,0.5,7.5,0.4,10.5,0.8c2.1-1.7,14.6-0.7,17.4-0.1c-1.5,0-1,0.5-2.3,0.6
			c-0.2-0.3,0.2-0.8-1.2-0.9c-6.7,1.8-13.9,0.8-23.2,0.7c2.8,1.1-2.1,0.9-2.2,2c9.2,0,18.4-0.2,26.7-0.1c-3.7-0.5,3.4-0.9,4.6-1.2
			c2.3,0.4,8.9,1.2,10.5,0.8c-1.4,0-1.3-0.5-1.2-0.9c4.9,1.3,12,0.7,18.6,1.1c-7.3-0.1-3.9,0.6-9.2,0.9c5.1,0.4,8,0.7,11.6-0.3
			c0,0.3,0,0.6,0.1,0.9c10.8-1,27.9,0.8,41.8-0.2c0.2,0.3-0.1,0.8,1.2,0.9c12.1-1.1,30,0.8,36-0.4c0.5,1.1-5.2,1.5-8.1,0.9
			c0.9,2,7.5,0.4,10.5,0.2c-0.2,0,0.2,0.6,0,0.6c4.6-0.3,6.6-1.6,11.5-1.8c6.3-0.2,8.1,1.3,16.3,0.8c-2.5-1.4,8.6-0.1,11.6-0.9
			c-12.5-0.1,13.9-1.4,14,0.5c-3.9-0.1-4.4,0.7-6.9,0.9c6.4-0.1,3.4,0.3,4.7,1.4c5.1-0.3,5.8,0.5,9.3,0.5c-0.6-0.9-5.3-0.8-7.1-1.4
			c1.6,0,2.5-0.1,3.5-0.3c2.7,0.3,4.6,1.8,7,0.6c-0.1,0.5,0.3,0.9,1.2,1.2c-18.7,0.8-25.5,1.2-43,0.2c-10.4,0.9-21.6-0.9-32.5,0.7
			c-0.2-0.5-3.8-0.2-3.5-0.9c-14.4,0.9-30.1-2.1-41.8,0.2c3.3,0,7.9-0.3,8.2,0.5c-3.6-0.1-19.9,1-16.3-1.1c-2.8,0.2-5.3,0.4-9.3,0.3
			c-1.7,1.2,6,0,5.8,0.8c-5.2,0.2-16.9,0.8-20.9-0.8c-21.2,0.1-37.2,0.6-51.1-1c-0.6,1.5-2.4-0.7-4.7-0.6c-2.9,0.4,1.2,1.4-1.1,1.5
			c-1.2,0-1.4,0.2-2.3,0.3c-4.5,0.3-4.2-0.7-7-0.8c-1.4,0.8-7.1,0.6-11.6,0.6c-1-2.2-9.3-0.8-14-0.8c-19-0.2-44.2-1.1-59.3-0.9
			c11.9,0.8,15.8,0.1,25.6,1.3c13.8-1.2,31.3,0.4,46.4,0.1c-0.1,0.7,1.9,0.9,2.4,1.4c-1.3,0.4-4.4,0.5-5.7,0.9
			c4.5,0.6,16.8-1.2,24.4,0.5c0.6-1,4.4-0.4,7-0.3c3.6-2,21.1-1.9,27.8-1.6c-0.2,0.5-10.6,0.1-6.9,0.6c3.5,0,7.1-0.1,7,0.8
			c-2,0.2-6.8-0.3-7,0.3c3.7,0.4,11.3-0.2,9.4,1.7c4.9,0.2-1.6-1.1,3.4-1.2c0.3,0.2,1,0.3,2.3,0.3c1.6,1.3-2,1.4-3.4,2
			c5.2,0.8,5.5-0.4,5.8-0.9c3.7,0.8-3,1.1,0.1,1.7c5,0.5,10.3,0.6,12.8,0.5c-1.3-0.1-1.8-0.3-2.4-0.6c2.1,0.2,4.8-0.9,5.8,0
			c-1.4,0-3.3,0-3.5,0.3c6.5,0.8,17,0,21,1.4c2.8-0.4-2.1-0.9,1.1-1.2c6.6-0.4,6.1,1,10.5,1.1c0.6-0.4-1.5-1.5,1.1-1.5
			c4.1,0.1,11.2-0.5,10.5,0.8c-1.2,0.2-8.8,0.3-5.8,0.6c6.5-0.6,11.1,0,13.9-1.2c4.7,0.3-0.7,1.6,3.6,1.7c1.6-0.2,0.1-1.1,2.2-1.2
			c1.6,0.5,13.9,1.7,8.2,0.5c4.9,0.2,5.9,0.2,12.8,0.2c0.2-0.4-0.5-1.1,1.1-1.2c19.5,1,36.2-0.4,53.4,0.4c0.4-0.5-1.8-0.7-0.1-0.9
			c6.5,0.4,11.9,0.8,16.2-0.4c0.1,0.4-0.5,0.6-1.1,0.9c4.7-0.5,10.9,0.1,15.1,0.5c-3.1,1.2-9.2,0.2-10.3,2.1
			c8-0.2,11.4-2.6,20.8-2.1c1.6-0.7-3.1-1.1-0.1-1.2c3.6,0.4,4.5,0.2,7-0.3c0,1,3.5,1.1,5.9,1.4c9.2-1.1,18.2,0.8,26.6-1
			c18.5,0.7,45.6,0.4,60.3-0.8c1.1,0.7,6.5,0.3,5.9,1.4c6.6-1.1,10.4,0.7,15.1-0.6c-1.4,0-2.8-0.1-2.4-0.6c2.8-0.3,3.1-0.2,8.1-0.3
			c0.1,0.5-0.1,1,2.4,0.9c3.6-1.9,13-0.1,18.6,0.2c0.3-0.6-1.6-0.6-2.4-0.9c4.5-0.2,12.9-0.4,14,1.1c-2.9,0.3-4.1-1.2-5.8-0.3
			c1.6,0.1,1.4,0.6,2.4,0.9c12.5-1.7,30.1-1.2,38.3-1c3,0.1,4.4-0.9,5.8-0.9c3.6,0.1,6.6,1.3,12.8,0.8c-1.2,0.1,1.6,0,4.6,0
			c1.2,0,13.3-0.7,16.3,0.5c0.5,0.7-9,0.4-5.7,0.9c4.2-0.1,5.6-0.5,9.3,0c-1-1.5,6-1.2,8.1-0.6c-3.7,0.4-8.9,0.5-10.4,1.5
			c7.2-0.5,20.6-1.8,19.8,0.8c0-0.3,2-0.4,2.3,0c-4.7,0.7-2.8,1.4-6.8,2.1c14.8-2.6,27.2,1.5,40.5-2.2c0.3,0.6-1.3,0.6-1.1,1.2
			c3.6,0,3.3-0.9,8.1-0.6c-0.2,0.5,1.3,0.6,1.2,1.2c3-0.1,6.4-0.2,8.1-0.6c-5.1,0.1-7.4-0.5-8.2-1.4c7.8,0.4,11.5-0.9,18.6,0.5
			c-4.7-0.3-3.4,0.9-8.1,0.6c1.2,0.7,0.5,1.8,4.8,1.7c0.2-0.4-0.5-1.1,1.1-1.2c-0.7,1.3,14.5,1.7,21,1.7c1.2-1.1-2.9-0.8-2.4-1.7
			c1.4,0.3,4.1,0.3,7,0.3c-2.4,0.7-1.6,0.6-1,1.7c3.7,0.2,1.5-1,4.6-0.9c-0.1,1.1,6.1,0.6,7,1.4c5-1,6.5-0.2,5.8,0.6
			c4.4-0.8,6.1-0.5,9.2-1.5c2,0.6-0.1,0.4,0.1,1.2c5-0.3,4.5-0.2,8.1,0.3c1.8-0.3,2.8-0.8,4.6-1.2c2.1,0.6,4.7,0.2,1.2,0.9
			c12.8,0.5,16.9-2.8,23.1-2.1c0.6-2.1,6-1.3,10.4-0.6c1.5-0.7-3.1-1.1-0.1-1.2c3.2,0.6,5.9,0.5,10.5,0.2c1,0.9-1.8,0.9-2.2,1.5
			c2.6-0.5,6.3,0,6.9-0.3c-1.7-0.2-2.9-0.4-3.5-0.9c2.7,0,3.4-0.5,7-0.3c0,0.3,0,0.6,0.1,0.9c9.7-1.6,23.5-0.2,27.8-1.6
			c3.7-0.3,2.5,0.7,4.7,0.9c0-0.4-0.6-0.6-1.2-0.9c2.8-0.7,16.6,1.5,9.3,0c5.5,0.1,7.2,1.2,10.5,0.5c-2.7-0.1-2.8-0.8-0.1-0.9
			c-1.6,0.4-0.8,0.9,2.4,0.9c1.1-0.5,3.6-0.6,5.8-0.9c-3.1,0.8,5.4,0.5,7,0.3c-0.9-0.1-2.3,0-2.3-0.3c2.3-0.1,8.6-0.8,10.4,0
			c-0.7,0.4-4.5,0.1-4.6,0.6c3.9,0.5,5.1-0.4,9.3-0.6c1.9,1.7,11.5-1.3,12.8,0.8c-9.4-1.1-15.2,2.7-20.9,0.4
			c-0.1,1.6-4.1,0.7-9.2,1.2c1.4,0.9-1.8,0.7-2.2,1.2c5.4,0.2,3.3-0.3,4.6-0.6c1.1,0.3,4.3,0.1,3.5,0.9c-1.4,0-3.3,0-3.5,0.3
			c4.8-0.3,7.2,0.1,8.2,0.8c6-0.7,10.4,0.1,23.2-0.4c2.1-0.5-1.6-0.9,2.2-1.2c15.2,1.3,28.8-1.3,40.6-0.7c2.3-0.9-2.2-1.7,3.4-1.8
			c2.9,0.4,2.1,1,1.3,1.7c10.6-1.2,17.6,0.5,29,0.2c4.7-2.5,20.7-0.1,27.7-2.1c-5.4,0.4-12.3,0.5-15.1-0.5
			c4.3-1.1,17.9-1.5,16.3,0.5c6.3-1.1,11.9,1.1,13.9-0.6c1.4,1.8,14.6,1.7,22.1,1.1c-1.1,0.1,1.7,0.3,4.7,0.3
			c15.4-0.3,34.3,0.1,48.7-1.4c0.2,0.5-0.1,1,2.4,0.9c0.1-0.7,0.1-1.5,3.4-1.5c0.8,0.6-3.2,0.9,1.2,0.9c1.1-0.5,3.6-0.9,5.8-0.3
			c2.5-0.4-1.5-0.7,1.1-0.9c2.2,0,3.9,0.2,4.7,0.6c-0.1,0.5-2.9,0.2-2.3,0.9c4.2-0.6,5.2-0.4,10.4-0.9c0.2-1-3.9,0-4.7-1.1
			c24.8-3.8,54.9-2.8,81.1-3.5c1.3,0.7-7.2,0.5-3.4,0.9c11.2-0.8,13.6-1.7,22-0.4c4.3,0,4.4-1,6.9-1.5c4.1,0.7,16.1-1.4,20.9,0.5
			c0.6-1.1,5.7,0.1,8.1-0.9c0.2,1.1,2.2,0.8,3.5,0.3c0.6,1.7,6.4,0.4,8.2,1.4c1.8-1,5.1-0.8,9.3-0.3c2.5-0.4-1.5-0.7,1.1-0.9
			c5.7,0.7,14.1-0.9,17.5,1.1c3.1-1.4,18.7-1,22.1,0.2c0.8-1.6,13.9-1.4,13.9-0.6c4.2-0.8,8.8-1.5,13.8-2.1
			c-0.6,0.4-1.7,0.7-2.2,1.2c21.4,0.2,38.3-1.5,65-0.3c-0.1-0.5,0.8-0.7,2.3-0.9c8,2.2,26.4-1.9,26.8,1.6c5.9,0,0.4-1,4.5-1.5
			c13.3,0.3,22.8-0.8,30.2,0.5c7.2-0.8,10.6-0.5,19.7-1.2c0.4,0.7-3.3,0.3-3.4,0.9c11.1-0.2,16.9-1,25.6,0.5c-0.5-1.4,6.1-1,6.8-2.1
			c-6.3-0.1-14.3-0.1-17.5-1.7c5-0.6,7.3,1,9.3,0.3c-11.4-1.9-17.9,0.3-31.4,0.1c-0.1-0.4,0.5-0.6,1.1-0.9
			c-4.6-0.5-9.7,0.2-13.9,0.6c-22.2-1.8-48.7,1.6-69.7-0.6c-6.8,1.3-19.3,1.3-30.1,1.6c1.8-1.4,13.3-0.4,15-1.8
			c-5.7,0-28.8,1-25.6-1.1c0,0.8,0.7,1.7-2.2,1.8c-3.1,0.2-2.4-0.6-4.7-0.6c-2,1.6-21.3,0.8-27.8,0.7c0.9,0.1,1.4,0.2,1.2,0.6
			c-2.2-0.5-9.8,1.1-13.9,0.1c2.6,0.1,4.4-0.1,4.6-0.6c-4.8-1-3.9,1.2-9.2,0.9c-0.4-0.7,3.3-0.3,3.4-0.9c-9.8,0.4-27.3-0.2-36,0.4
			c-1.4,0.9,3.8,0.2,2.4,1.2c-1.7-0.2-6,0.4-5.8-0.3c0.2-0.4,1.9-0.5,2.3-0.9c-17.9-0.1-35.2,0.5-56.9,0.2c-3-1.3-16.9,0.3-23.2,0.1
			c-8.3-0.3-21.9,0.4-33.6,0.7c-18.6,0.5-37.7-0.4-53.3,1.1c-0.1-0.5,0.1-1-2.4-0.9c-0.2,0.4,0.5,1.1-1.1,1.2
			c-5.4-0.2-9.3-0.7-11.7-1.7c-1.1,0.6-2.8,1-4.6,1.5c2.1,0.1,5.7-0.8,7,0c-2.2,0.1-2,0.8-5.8,0.6c-4.9-1.8-2.1-0.6-9.4-1.1
			c2,0,3-0.2,3.5-0.6c-5.3,0.9-13.5-0.6-18.6,0.4c6.1,0.5,8,0.2,12.8,0.8c-6,0.2-7.4,0-12.7,0.6c-1.1-0.5,3.4-1-0.1-1.2
			c-5.4,1.2-14.6-1.9-22.1-0.5c2.3-0.3,6.4,0.4,3.5,0.6c-2.9,0.1-3.6-0.4-5.8-0.6c-4.3,2-12.9,0.2-18.5,1.2
			c-2.9-0.4-2.8-0.8-3.6-1.1c-1.9,1-12.6,1.3-15,1.2c-0.6-0.9,5.3-0.2,5.7-0.9c-11.6,0.2-15.5,1.3-20.8,1.8
			c-2.7,0.1-1.3-0.8-3.5-0.9c2,1.3-6.8,1.6-12.7,1.8c0.3-1,0-1.5,1.1-1.7c1.3,0.3,5.3,0.1,6.9-0.3c-3.4-0.6,3.4-1.1,3.4-1.8
			c2.4,0.2,2.5,0.4,1.2,0.9c8.6-0.7,19.3,0,27.8-0.7c-0.2,0.3-2,0.7,0,0.9c-1.9-1,3.9-0.2,3.4-0.9c-3.4-0.6,2.6-1.2,4.5-1.5
			c-1.3,0.4-1.2,0.7,1.2,0.9c2.5-1.8,8.7,0.2,11.6-0.9c2.7,0.4-2.2,0.9,2.4,0.9c0-0.4-0.1-0.8-0.1-1.2c4.2-0.2,16.3-0.3,19.7-0.4
			c2.9,0.1-3.3-1.4,2.2-1.2c-0.7,1.3,12.8-0.6,14,1.4c10.7-1,15.2,0.4,24.3-1c0.5,0.5,6.9,0.9,8.1,0.3c-1.9,0.2-5.1-0.6-2.3-0.6
			c17.1,1.3,40,0.4,58.1,0.9c-1.3-0.1-1.8-0.3-2.3-0.6c1.5,0,3.1,0,4.6,0c0.1,0.4-0.5,0.6-1.1,0.9c4-0.7,10.1,1,12.8,0.5
			c-3.3-0.3,1.9-0.3,2.3,0c0.7-0.8,0.2-0.7,3.4-1.2c-1.7,0-4.3,0.1-4.7-0.3c9.9-1.2,24.4,0,34.9,0.2c3.6-0.5-4-1-0.1-1.5
			c3.7,1,8.9-1.4,10.4,0c-0.9,0.7-11.9,0.5-6.9,1.8c5.5-0.8,9.2-2.7,16.2-1.5c-1.2-2.9,14.6-1.6,19.5-3c2.8,0.6,10.5,1.4,15.1,0.5
			c-8.4-0.3-15.5-0.9-18.7-2.5c1.4-0.1,3.3,0,3.5-0.3c-6.6-0.4-4.1,1.3-10.4,0.9c-0.1,1.1,6.8,0.4,7.1,1.4
			c-9.3,0.2-17.7,0.4-24.4-0.2c3.8,0.2,1.5-1,4.6-0.9c1.1,0.3,6.6,0.8,7,0.3c1.5-1.5,14.6-2.6,22-1.2c3.4-1.7,10.2,0,11.6,0
			c-3.2-0.3,0.9-1.1,2.2-1.2c0,1.3,11.9,0.9,5.8-0.3c4.8,0,5.8,0.7,5.9,1.1c3.6-0.6,7.6-1.2,10.3-2.1c-0.1,0.7-2.2,0.9,1.2,1.2
			c2.8-0.4,0.7-0.6,2.3-0.9c0.9,0.1,1.4,0.2,1.2,0.6c4.1-2.1,14.1,0.9,16.3-0.1c-1.4,0-2.8-0.1-2.4-0.6c5.3,0.1,11,0.1,12.8,1.1
			c1.7-1.3,4,0.5,8.1,0.3c1.5-1.9,21.2-2.2,19.7-0.7c3.9-0.7,6.3-1.7,11.6-0.6c1.4-1.5-7.9-0.3-9.4-1.1c3.3-0.7,12.7,0,16.2-0.6
			c2.9,0.8,5.1,1.3,4.8,2.3c3.1-0.2,3.4-1.1,5.7-1.5c-1.4,0-3.3,0.1-3.5-0.3c4.1-1.1,13.2-0.7,12.8,1.1c-2.9-0.3-3.8,1.3-2.2,1.2
			c1.6-1.2,9.2-1,11.5-2.1c-5.2-0.4-3.5,0.9-8.1,0.6c-1.5-0.9,1.1-1.2-2.4-1.7c7,0.1,10.3,0.1,15.1-0.3c0,0.6-3.2,0.4-2.3,1.2
			c4.3,0.3,2.2-1,4.6-1.2c2.2,0.3,5.3,0.4,5.9,1.1c9.6-1.6,16.7-0.8,30.1-1c1.6-1.3-7,0-7-0.8c12.8-1.6,26.4-1.4,39.3-2.8
			c-0.2,0.4-1.9,0.5-2.3,0.9c6.9-1.3,12.1,0.1,13.9-1.2c17.1,1.3,54.4,0.1,69.8,1.8c8.9-0.1,20.4-1.9,26.7,0.2
			c4.5-1.2,15.8,0,19.7-0.9c-1.8-0.1-0.2-0.5,1.1-0.6c18.5,1.2,27.4-1.6,48.7-0.8c-0.7-1.5-14.8,0.5-12.9-1.7
			c-11.5-0.2-15-1.1-25.6-1.1c1.4-0.1,3.3,0,3.5-0.3c-0.9-0.1-2.3,0-2.3-0.3c5.3,0.2,8.9-0.1,10.4-0.9c-8.3,0.3-19.2,0.6-26.7-0.5
			c2.1-1.3,17.3,0.1,18.5-0.6c-7.2-0.5-13.7-1.2-22.1-1.4c3.7-0.9-3.5-0.1-2.4-1.2c5.1-0.8,8-0.1,11.6-0.3c-1.4,0.1-4.1-0.8-1.2-0.9
			c3.7,0.4,3.9,0.1,8.1,0c0.2,0.4-4.7,0.9-1.1,1.2c4.5-0.8,12.9-2.1,16.2-0.6c0.2-0.6-1.4-0.6-1.2-1.2c2.9,0,5.6,0,6.9-0.3
			c0,0.3,0,0.6,0.1,0.9c7-0.6,10.3-1.1,13.8-2.1c3.9,0.3,17.8,0.8,19.7-0.4c-6.1-0.4-14.4,1.1-18.6-0.8c-15.7,0.2-34.2-0.4-44.1,0.2
			c-6.3,0.3-15.4-0.4-20.9-0.2c-5.6,0.2-14.1,1-17.5-0.5c3.6,0.6,7.8-0.5,11.6,0.2c2.5-0.4-1.5-0.7,1.1-0.9
			c57.3,1.6,119.9-4.5,183.2-3.6c-0.6-2.6,17.3-1.6,23.2-1c2.9-1.6,10.4,0.1,11.5-1.2c-2.9-0.6-11,0.1-11.7-1.1
			c0.6-0.5-1.5-1.7,1.1-1.7c14.1-0.6,22.3,1.8,29.1,0.5c-7.3,0.1-13.2-2.1-24.5-1.9c1.6,0,1.5-2.4-0.1-1.5c1.3,2-5.4,0.4-8,1.5
			c-4-0.1-5.1-0.8-5.9-1.7c3.4-1.3,13-1,17.3-2.1c-0.3-1.2-4.2-1.7-8.2-1.1c-17.8-2.2-47.8,0.6-67.3,0c-2.3,0-1.5-0.8-4.7-0.6
			c-10.3,0.3-27,2-37.2-0.1c-7.2,0.5-13.2,0.2-20.9,0.1c-0.4,0.8-2.7,1.1-6.9,0.9c1.9-0.6-0.1-0.4-0.1-1.2c3-0.1,6.4-0.2,8.1-0.6
			c-1.5-0.4-6.1,0-4.7-1.1c7.8,0,10.4-1.3,17.3-1.5c-2.2-0.1-2.1-0.8-5.8-0.6c-4.9,1.7-17.1,1.6-19.5,3.8c-2.6-0.2-4.4-1.5-2.4-2
			c-9-1.5-22.4,0-31.4-1c-0.1-1.1,4.2-1.1,5.7-1.8c-8.4-0.1,1.2-0.8,1.1-1.5c-6.2,1-17,0.8-25.5,1.3c-58.4-3.3-125.5,0.5-181.2-1
			c-16.5,0.8-34,0.9-45.2,1.3c-6.7,1.3-20.4,2.1-26.6,1.3c-3.7,0.8-21,0.8-26.6,1c7.2,0-0.4-0.4-1.2-0.9c9.7-0.1,16.6,0.3,18.5-1.2
			c1.4,0.1,2.7,0.3,3.5,0.6c-0.9,0.1-2.3,0-2.3,0.3c7.7,0.4-1.7-1.9,4.5-2.1c0.9,1.5,8.1-0.3,7.1,1.7c-3.6,0.2-4.8-0.7-5.8,0.3
			c10.4,0.1,20.1-0.4,25.5-0.7c-4-1-12.1,0.4-17.4,0.1c-1.2-0.4-1.2-1.1-2.4-1.4c-6.2-0.7-11.8,0.3-15.2-1.1
			c15.9-1,12.7,0.9,23.3,0.8c-0.6,0-1.3-0.2,0-0.3c7.4-0.3,10.8,0.2,17.4-0.4c2.7,0.4,10.7,2.2,10.5,0c-4.5,0.3-10.1,0.4-11.7-0.8
			c-10-0.5-15.6,1.8-22,0.7c5-0.1,8.6-0.6,10.4-1.5c-5-0.2-3.7,1.2-9.2,0.9c0.2-0.4,1.9-0.5,2.3-0.9c-5.4,0.6-15.4,1.1-17.4-0.2
			c9.6-0.6,18.3-0.7,25.5-1.3c-0.1,0.4,0.3,1.1,1.2,0.6c0-0.2,0-0.4,0-0.6c-10.5-1.2-14.9,1.2-22.1-0.8c5.2,0.2,9.9-0.8,13.9-0.1
			c1.9-1.6,13.3-1.9,19.6-1.5c-16.1-2-28.5,1.5-42.8,1.9c-1.1-1,8.1-1.1,3.4-2c-15.9,1.7-37.7-0.8-52.3-0.7
			c13.8-1.1,25.8-1.6,37.1-1c3.6,0.1-3-0.8,1.1-0.9c9.4,1,28.4,0,42.9-0.7c-0.4,0.4-1.4,0.5,0.1,0.9c6.9-2.1,20.3-0.5,27.8-1.3
			c-0.9-0.1-2.3,0-2.3-0.3c17.3,0.6,40.5,0.5,56.8-1.1c0,0.4,0,0.8,0.1,1.2c17.9-1.2,44.4-2.5,65-1.1c-0.2-0.6,0.9-0.9,3.4-0.9
			c50.5,0.6,108.5-2.6,155.5-1.8c-1.8,0-4,0.1-3.5-0.6c21.8,1.5,40.6,0.8,60.4,0.6c2.5,0.4,3.6,1.2,5.9,1.7c-0.1-1.3-1.7-0.7-2.4-2
			c9.1,1.2,21.6,1.1,31.4,0.5c0,0.3,0,0.6,0.1,0.9c7.2-1.2,16.8-1.6,23.2-0.7c-1.4,0-1.3-0.5-1.2-0.9c6-0.3,11-0.4,11.7,0.5
			c3.1-0.3,7.2-0.1,9.3,0.8c4.4-0.3-0.2-1.4,2.2-1.7c44.1,1.2,104.6,0.5,153.3-0.3c-39.8-0.2-79.6-0.7-120.7,0.5
			c0.2-0.8-7.6,0.4-5.8-0.8c-22.4,1.1-51.8-1.2-73.1,0.3c-0.2-0.3,0.2-0.8-1.2-0.9c1,1.1-2.4,1.1-4.6,1.5
			c-2.5-1.3-10.8,0.1-16.3-1.4c-1.5,1.3-15.8,0-18.6-0.2c-1.2,0.4-1,1.1-3.4,1.2c-0.7-1.1-5.7,0.1-8.2-0.8c-3.3,1.3-9.5,0.5-15,0.9
			c-1.1-1.7-8-0.8-14-0.8c-2.5,0.4,1.5,0.7-1.1,0.9c-29.7-0.6-58.2,0.2-90.6-0.8c0.9-0.1,2.3,0,2.3-0.3c-3.6-0.2-2.2,0.8-5.8,0.6
			c0.1-0.8-2-0.6-0.1-1.2c-5.5,0.6-12.8,0-18.6-0.2c-1.3,0.9,1.9,0.7,2.4,1.2c-2.8-0.1-2.5,0.5-5.8,0.3c0-0.6,3.1-0.4,2.3-1.2
			c-5.4-0.4-3.8,1-9.3,0.6c0.6-1.4-5.9-0.3-9.4-1.1c-2.2,1.1-2.7,1.1-2.2,1.8c-3.2-0.3-5.5-0.4-6.9,0.3c0-0.3,0-0.6-0.1-0.9
			c-2.3,0.3-11.4,1.4-12.8,0.1c5.1,0.3,9.9-1.2,16.3-0.1c-0.6-2.4-22.9,0.5-26.8-1.6c25.7-0.5,45.4,0,72,0c0.4-0.5-1.8-0.7-0.1-0.9
			c2.1,0.2,6.8-0.4,7,0.3c-1.3,0.7-4.9-0.7-4.6,0.6c5.8,0.1,16.7-0.1,19.7-0.4c-2.3,0-7.5-0.8-3.6-1.4c20.6,1.3,45.5,0.2,63.9,0.3
			c26.6,0.1,53.4,0.8,82.5,1.1c0,0.2,0,0.4,0,0.6c10.8-1.4,20.4,0.6,29-1c3.2,0.3,6.4,0.5,7.1,1.4c2-0.2,6.8,0.3,6.9-0.3
			c-5.1,0.1-7.9-0.3-8.2-1.4c6.5-0.1,23.6,0,31.4,0.5c10.8-1.1,27.6-0.2,37.1-1.3c-6.8-0.8-22.1,1.2-23.3-1.7
			c7.4,0.7,12.9-1.3,20.9-0.4c-0.3-1,2.3-1,6.9-0.6c5.3-2.3,23.1,0,32.4-1.6c2.7,0.7,6.6,1.1,10.5,1.4c0.7-0.9-4.2-0.4-1.2-1.2
			c-2.1-0.2-6.8,0.4-7-0.3c25-0.6,43.1-1.4,64.9-1.7c-0.3-2.7,12.5-0.6,16.2-1.2c-5.3-1.3,9.6-0.3,13.9-0.3c10.5-0.1,22-1,27.8-1.6
			c-5.4-1.4-11.7,0.6-18.6-0.2c0.3-0.7,1.1-1.3,3.4-1.5c1,0.5,7.8,0,6.9-0.9c-6.4,0.4-9.7,0-15.1-0.5c6.7-0.9,15.5-2.7,23.2-1
			c5-1.3,13.3-0.7,23.1-1.3c-2.1-1.6,8.8-1.1,16.2-1.2c5.7-1.3,0.1-2,9.1-2.4c-3-0.6-5.3,0.3-7-0.3c2.2-1.4,4.3-2.8,12.6-2.7
			c-0.2,0.4-1.9,0.5-2.3,0.9c6-0.2,12.8-1,13.8-1.5c5.3,0.7,4.2-0.1,8.1-0.3c6.2-0.3,15.7,0.7,18.5-0.9c-4.3-0.6-10.1,0.5-11.7-1.1
			c4.4-0.8,7.7,0.8,8.1-0.3c-3.4-0.8-14.7,0.5-15.2-1.1c2.3,0,4.6,0,7,0c0.1-0.9-6.1-0.8-2.4-1.7c-1.7,0.2-6-0.3-5.8,0.3
			c2.5-0.1,3.7,0.2,3.5,0.9c-3,0-9.3-0.1-13.9-0.2c8.1-1.8,27.4-1.8,37.1-1.6c0.9-0.5,1.4-1.2,3.4-1.5c-5.4,0-10.7,0-4.6,0.6
			c-4.4,0.1-5.3-0.6-7-1.1c8.3-1.4,6.5,0.3,13.9-0.1C2117.5,66.4,2115.8,65.9,2119.2,65.1z M1523.1,169.3c-0.9,1-4,0.4-5.8,0
			C1517.5,168.7,1522.3,169.1,1523.1,169.3z M1340.9,171.8c-1.6,0.1-6.5,0.5-10.4,0.9c0.6-0.2,1.2-0.5,1.1-0.9
			c3.3,0.1,5.9-0.1,6.9-0.6C1339.8,171.3,1339.4,171.8,1340.9,171.8z M894.5,182.2c0-0.5-0.9-0.7-2.4-0.9c0.1-0.6,2.9-0.6,5.8-0.6
			c-2,0.6,0.9,0.6-1.1,1.2c2.2,0.1,7-0.4,5.8,0.6C901.1,182.1,897.6,182.2,894.5,182.2z M202.3,143.1c-0.2,0.8-2-0.4-4.7,0
			c0-0.3,0-0.6-0.1-0.9c2.4-0.1,3.1,0.2,4.7,0.3C201.6,142.8,200.9,143,202.3,143.1z M88.6,31.8c-5.5-0.5-12.5,1.1-13.9-0.2
			C77.6,31.1,87.7,30.3,88.6,31.8z M1201.9,45.7c-5.8,0.3-11.3,0.5-18.6,0.1C1189.3,45.1,1195.6,45.3,1201.9,45.7z M2106.6,66.9
			c0,0.6-3.2,0.4-2.3,1.2c-3.7,0.2-4.1-0.5-8.1-0.3c0.2-0.3,2.1-0.3,3.5-0.3c0.2-0.3-0.3-0.5-1.2-0.6
			C2099.1,66.3,2105.6,66.6,2106.6,66.9z M2057.3,77c-1.1,0.6-4.4,0.6-8.1,0.6c0.5-0.8,4.4-0.9,6.9-1.2
			C2055.9,76.7,2056.4,76.9,2057.3,77z M1997.5,85.9c-1.2,0.6-11.1,1.5-10.5,0C1991.8,86.2,1991.7,85.9,1997.5,85.9z M1863.3,57.4
			c4.5,0.4-9.4,1.3-8.1,0C1857,57.5,1861.7,57.7,1863.3,57.4z M1833,56.1c1,0.6-5.9,0.6-2.3,0.9c-0.9,0.4-11.3,0.8-10.5-0.2
			C1826.3,56.9,1829.1,56.4,1833,56.1z M1605.6,152.2c0,0.9-7.5,0.7-9.3,0.3C1598,151.4,1603.8,152.1,1605.6,152.2z M1554.7,99.8
			c0.5,1.2-5,0.3-6.9,0.3C1547.8,99.3,1553.2,99.4,1554.7,99.8z M1419,101.2c-1.1-1.1,6.1-0.2,6.9-0.9c-0.8-0.4-3.1,0.2-5.8-0.3
			c-11.7,3-34,1-51,1.4c-13.9,0.3-25.8,1.6-35.9,1.3c-0.8-0.3-2.7-0.3-2.4-0.9c-4,0.8-8.7-0.1-13.9,0.1c-1.6-0.9,1.3-0.7-4.7-0.6
			c2.1-0.6,0.1-0.7-0.1-1.4c3.1-0.2,2.3,0.6,3.5,0.9c1.7-0.5,3.8-0.8,4.6-1.5c2.3,0.2,2.7,0.9,4.7,1.1c2.4-0.1,2.2-0.8,4.6-0.9
			c-2.4-0.9-10.9-0.1-14-1.4c5.7-0.2,7.1,0.7,12.8,0.5c-2.8-0.5-7.1-0.5-10.5-0.8c-9.9,1.1-8.5,3.8-19.5,4.1c0.7,0.7,4.4,0.6,7,0.8
			c-8.5,1.5-17.2-0.2-23.1,1.2c-1.6-0.3-4.3-0.3-4.7-0.8c-3.3,0.2-10.3,1.4-11.6,0.3c-2.2,0-0.8,1-3.4,0.9
			c-7.8-1.9-23.4,0.9-31.4-0.5c-5.7,1.3-19.5,1.1-24.3,0.7c-6.1,2.2-27.5,1.4-36,0.1c-8.9,0.2-8,0.9-16.2,0.9c2.5,0.1,7.3,1,8.2,0.5
			c-0.1,1.1-5.7,0.9-13.9,0.9c0.2,0,1.2-0.3,2.3-0.3c-11.8-0.5-35.3,2.9-48.8-0.7c4.8,0,9-0.1,11.6-0.6c-2.7,0.5-15.9-0.8-17.4,0.9
			c-3.6,0.2-4.8-0.3-5.9-0.8c0.4-0.7,0.7-1.4,4.6-1.2c0.4-0.7-5.3,0.2-3.5-0.9c7.5-0.1,12,0.6,19.8,0.5c-2.6-0.6-7.6-0.8-15.2-0.8
			c16.8-1.6,27.7-1.9,46.4-1.3c-0.2-1.3-7.1-0.9-8.2-2c12.3,0.6,20.6-1.2,29-0.7c0,0.2,0,0.4,0,0.6c0.6,0.6-1.6,0.6-3.4,0.6
			c2.1,0.9,6.2-0.2,4.6-1.2c3.8,0,5.8-0.5,10.4-0.3c-0.1,0.6-2.9,0.6-5.8,0.6c3.5,1.2,11.6-0.3,17.4-0.9c4.1-0.5,0.8,1,3.5,0.9
			c4.5-0.6,29.5-0.9,34.8,0.2c3-0.4,3.6-0.6,2.2-1.5c4.2-0.2,6.5,0.1,7,0.8c4.4-1.5,11.6-0.3,17.4,0.2c4.1,0-2.5-0.9,1.1-0.9
			c3,0,1.4,0.2,1.2,0.6c4.3,0,3.4-1.3,9.2-0.9c-0.9,0.7-1.4,1.6-1,2.6c2.5,0,0.4-1.2,1-1.7c5-0.3,4.5,0.8,8.2,0.8
			c-1.8-1.3,5.8-3.3,9.2-1.2c-4,0.2-4.9-0.3-7-0.5c0.2,0.7,2.2,0.9,0.1,1.5c5.5-0.8,6-0.1,11.6,0.2c0.4-0.7,3.2-1.6-0.2-2.6
			c3.7,0.4,8.2,0.6,11.7,1.1c-0.1,0.7-3.9,0.6-6.9,0.6c-2,0.1,1.8,1.1,2.4,1.4c2.6-0.2-1.4-0.4,1.1-0.9c2.7,0.1,4.4,0.4,8.1,0.3
			c2,0.6-0.1,0.4,0.1,1.2c7.3-0.9,3.8-2.9,11.5-2.7c-0.5-0.4-1.5-0.6-3.5-0.6c12.7-2.5,31.7,0.9,41.7-1c3.7,0.6,1.5,0.9,5.8,0.3
			c2.3,1.5-2.6,2-6.8,2.6c-0.5-0.6,0.7-0.8,1.1-1.2c-5.6-0.2-14.6-1.4-22.1,0.1c10.4-0.1,17,1,25.6,1.1c-1.2,0.9-0.5,0.8,1.2,1.4
			c4-0.3-3.2-1.7,1-2c1.8,0.8,9.7-0.6,15.1,0.5c1.6-0.1,0.1-0.5-1.2-0.6c1.9-0.7,4.3,0.8,8.2,0.5c-0.9-0.3-2.1-0.4-3.5-0.6
			c0.7-0.9,2.5,0.3,4.6,0c-0.1-0.3-1.4-0.2-2.3-0.3c0.4-0.8,5.9-0.3,6.9-0.9c1.8,0.6,6.1,1.4,8.1,0.3c15.3,1.3,32,1.3,47.7,1.3
			c0,0.3,0,0.6,0,0.9c11.1-1.1,21.3-0.5,32.5-0.7c-8.1,2.2-22.3,0.6-34.8,1C1431.8,100.5,1426.2,101.7,1419,101.2z M1508.3,99.1
			c-7.7,2.2-23.3,0.4-34.8,1C1480.9,98.3,1499.1,99.3,1508.3,99.1z M1442.6,51.8c-3.7,1.2-8.3,0.5-15,0.9
			C1430.5,52,1437.8,51.1,1442.6,51.8z M1319.2,102.5c0.4,0.8-1.5,1-4.6,0.9c0-0.3,0-0.6-0.1-0.9
			C1316.1,102.5,1317.6,102.5,1319.2,102.5z M1307.4,42.7c-2.5,0.8-8.3,0-11.6,0C1297.8,42.1,1304.8,42.6,1307.4,42.7z M1306.2,98.7
			c-3.4,0-2.8-1.6-1.3-2C1309.3,97,1305.8,97.9,1306.2,98.7z M1302.7,98.5c-0.2,0.3-2.1,0.3-3.5,0.3c0.9-0.8-1.7-0.7-1.3-1.4
			C1301.1,97.3,1301,98.1,1302.7,98.5z M1298.4,48c-0.9,0.7-7.7,1-7-0.3C1294.9,47.5,1295.7,48,1298.4,48z M1262.2,44.9
			c-2.7-0.1-6-0.6-8.1,0C1251.2,44.6,1262.9,43.1,1262.2,44.9z M1263.8,108.2c-0.6,1-5.6,0.5-8.1,0.3
			C1256.7,107.4,1260.4,108.3,1263.8,108.2z M1257.4,42.3c0.2,1.2-9.1,0.1-10.4,0.9c-4.1-0.1,2-1.3-1.2-1.2
			C1248.6,41.9,1253.4,42.2,1257.4,42.3z M1244,162.8c-0.3,0.6-3.1,0.6-3.4,1.2c-1.8-0.1-1-0.9-4.7-0.6
			C1236,162.6,1240.7,162.9,1244,162.8z M1232.3,162.3c-5.1,0.1-9.3,0.7-15.1,0.4C1219,161.5,1228.4,162.2,1232.3,162.3z
			 M1229.3,169.6c-3-0.6-6.6,0.3-8.1-0.3C1220.4,168.3,1231.1,168.5,1229.3,169.6z M1227.7,163.2c-0.6,0.7-4.4,1.2-6.9,0.6
			C1222.5,163.4,1225.8,162.7,1227.7,163.2z M1209.1,163c-2.4,0.6-5.5,1.1-9.3,0.6c-0.2-0.6,4.1-0.1,5.8-0.3
			c0.2-0.6-4.1-0.1-5.8-0.3C1203,162.1,1205.1,162.8,1209.1,163z M1170.9,164.9c-1,1.4-9.4,0-11.6,0.6
			C1161.9,164.4,1166,165.3,1170.9,164.9z M1166.2,163.7c-1.3,0.6-8.9,0.4-10.4,0c-0.5-0.7,5.3,0.1,3.4-0.9
			C1161,163.3,1163.8,163.5,1166.2,163.7z M1159.3,107.7c-9.3,1.3-14,1.3-24.3,1.8c0.4-0.6,5.3,0,3.4-1.2
			C1146.8,108.5,1151.8,107.8,1159.3,107.7z M1158.2,164.9c-2.3,0.4-12.2,1.8-15.1,0.1C1147.2,165.7,1153.4,164.9,1158.2,164.9z
			 M1152.2,162.6c-0.4,0.7-3.9,1.3-5.8,0.9C1147.5,163,1148.6,162.5,1152.2,162.6z M1146.5,163.8c-4,0.5-11.3,0.2-17.4,0.4
			c2.3-1.5,11.7,0.3,11.5-1.5c2.4-0.1,3.1,0.2,4.7,0.3C1143.4,163.2,1141.3,164,1146.5,163.8z M1113.6,44.9c1.2,1-3.6,0.5-5.8,0.6
			C1106.9,44.5,1111.8,44.5,1113.6,44.9z M1117.4,163.6c-8.9,0.6-20.9,0.2-34.8,1c1,1.2,5.6-0.3,8.2,0.5c-0.3,1-6.7,0.5-10.4,0.6
			c-2.4-1,1.6-1.4-0.2-2.6C1094.5,163.3,1104.3,162.4,1117.4,163.6z M1090.5,103.9c-0.1,1.4-7,1.2-12.7,1.2
			C1078.6,103.7,1086.1,103.9,1090.5,103.9z M1075.6,106.3c0,1.4-18.2,0.1-4.6,0.3C1072,106.4,1073.5,106.3,1075.6,106.3z
			 M1065.3,165.3c1,1.1-5.5,0.4-8.1,0.6C1058.9,165.1,1060.3,165.6,1065.3,165.3z M1056,164.4c-0.4,0.8-3,1-5.7,1.2
			c0.9-0.3,1.2-0.7,1.1-1.2C1052.9,164.5,1054.4,164.5,1056,164.4z M1028.3,167.7c-0.3,0.3-4.3,1-4.6,0.3c-1.1,0-0.9,0.4-1.1,0.6
			c-3.4-0.2-1.3-0.4-1.2-1.2C1024.8,167.3,1024.8,168,1028.3,167.7z M1016.7,167.5c-0.7,0.3-1.4,0.5,0,0.6c0.2,0.6-4.1,0.1-5.8,0.3
			C1012,167.9,1013,167.4,1016.7,167.5z M989,170.2c-1,1-4.7-0.1-8.1,0.6C979.9,169.7,986.3,170.4,989,170.2z M986.1,180.1
			c-4.5-0.3-9-0.6-8.3-2.3C980.2,178.7,985.3,178.8,986.1,180.1z M983.2,171.7c-1.7,0.5-7.8,1-1.1,1.2c-1.5,1.3-7.4,0.2-11.6,0.3
			C974.4,172.2,976.6,172.3,983.2,171.7z M969.5,44c-2,0.6,0.9,0.6-1.1,1.2c-7.5-0.6-9.4-0.6-16.3-0.5
			C954.6,43.6,963.6,44.2,969.5,44z M975.5,178.1c1.4,1.2-9.4,1.3-8.1,0C971.6,178.4,973,177.5,975.5,178.1z M972.8,171.2
			c0,0.9-7.5,0.7-9.3,0.3C966.4,170.9,968,171.5,972.8,171.2z M949.8,44.4c1.1,1.1-6.1,0.6-6.9,0.3
			C943.8,44.2,947.9,43.9,949.8,44.4z M954.4,174.1c0.3,0.9-4.1,1-5.8,0.6C949.6,174.3,951.5,174.1,954.4,174.1z M931.3,176.5
			c-7.8-0.2-14,1.1-19.7,0.7c-0.9-0.9,1.9-0.9,1.1-1.7c1.8,0.5,8-0.1,7,1.1C921.3,175.5,927.2,176.5,931.3,176.5z M929,176.3
			c-2-0.5-1-1.7,3.4-1.5c-3.4,1.7,5.2-0.2,5.9,1.4C933.5,176,934.2,176.2,929,176.3z M916.5,181.8c-3.1,0.9-4.5,0.3-8.1,0
			C911.5,181,912.9,181.6,916.5,181.8z M835.8,41.1c0.4,0.5-1.1,0.5-1.1,0.9c-3.7,0.1-5-0.5-9.3-0.3
			C825.9,40.8,833.3,40.6,835.8,41.1z M832.6,176.3c-2.7,1-7.3-0.1-9.2,1.2c-6-0.2-8.2-0.8-12.8,0.1c0-0.5-0.1-1-0.1-1.5
			C816.9,176.5,825.2,175.8,832.6,176.3z M816.1,41.4c-4.2-0.5-5.6,0.1-9.3-0.3C807.2,40.2,816.7,40.4,816.1,41.4z M809.4,177
			c-3.7,1.5-13,1.4-17.4,0.4c-4.4,1.4-8.6,2.4-17.3,1.2c2.9-0.8,11.1,0.2,12.6-2.1C797,176.9,804.8,176.5,809.4,177z M806.8,173.3
			c0,0.8-6.5,0.7-8.1,0.3c0.7-0.8,3.1-1.1,6.9-1.2C805.6,172.8,805.5,173.2,806.8,173.3z M796.4,172.7c-0.7,1.1-4.6,0-9.3,0.3
			c0.1-0.5-1.5-0.6-1.2-1.2C789.6,172.1,793.6,172.3,796.4,172.7z M777.4,34.9c-2.5,0.5-5.3,0.5-8.1,0.3
			C770.4,34.1,773.2,35.2,777.4,34.9z M785.3,180.9c-0.1,0.6-4.9,0.1-7,0.3c2.5-0.6-0.3-0.6-3.5-0.6
			C776.1,179.5,781.9,180.8,785.3,180.9z M779.2,176.5c0,0.3,0,0.6,0.1,0.9c-1.9,0-3.9,0-5.8,0C773,176.6,777.2,176.8,779.2,176.5z
			 M766.9,34.4c-1,0.5-3.6,0.7-6.9,0.6C760.5,34.3,764.4,33.8,766.9,34.4z M763.7,38.7c-0.1,0.6-4.3-0.2-5.8-0.3
			C759.1,37.3,762.4,38.3,763.7,38.7z M754.4,39.9c-0.1,0.7-3.9,0.6-6.9,0.6C747.1,39.6,752.5,39.5,754.4,39.9z M742.8,39.1
			c1.3,0.1,0.7,0.3,0,0.3c-0.3,0.8,4.5,0.2,3.6,1.1c-2.8-0.1-2.5,0.5-5.8,0.3c-0.5-0.3-1-0.5-2.4-0.6
			C738.3,39.5,742.7,39.9,742.8,39.1z M744.7,181.6c-0.2-0.3-2.1-0.2-3.5-0.3c-1.1-0.5,3.4-1-0.1-1.2c1.1-0.5,4.8,0.9,5.9,1.4
			c-4.1,0.1-2.8,0.8-7,0.3C740.4,181.5,742.9,181.7,744.7,181.6z M733.1,32.8c0.3,1-6.3,1.3-5.8,0C728.8,32.4,731.6,32.4,733.1,32.8
			z M732.3,38.9c0.6,0.9-3.1,0.8-3.4,1.5c-1.6-0.2-2.2-0.6-2.4-1.2C727.9,38.9,729.6,38.8,732.3,38.9z M724.8,179.4
			c-0.6,0.2-1.2,0.5-1.1,0.9c-1.3-0.1-3-0.5-1.2-0.6c-0.8-0.3-2.7-0.3-2.4-0.9c1,0.2,2.1,0.3,2.3,0
			C723.7,178.9,723.3,179.4,724.8,179.4z M716.7,180.6c-0.8-1.1-1-1.2,1-2C719.6,179.1,721.5,180.5,716.7,180.6z M701.9,35.8
			c-0.2,0.3,0.3,0.5,1.2,0.6c-2.6,0.6-2.2-0.6-7,0c0.4-0.5-0.9-0.5-2.4-0.6C696.1,35.1,698.2,36.7,701.9,35.8z M696.4,170.8
			c-8.7,1.4-30,1-38.2,1.6C661.5,170.5,684.4,171.1,696.4,170.8z M683.7,172.9c0,0.3,0,0.6,0.1,0.9c-2.9,0-5.6,0.1-7-0.3
			C676.9,172.7,680.7,172.9,683.7,172.9z M675.7,173.8c0,0.3,0,0.6,0.1,0.9c-2.2-0.1-5-0.1-4.7-0.9
			C672.6,173.8,674.1,173.8,675.7,173.8z M670.2,178.4c-0.2,0.3-1.2,0.2-1.2,0c-3.9,1.3-0.9-0.8-4.7-0.6c0.3-0.4,2.9-0.3,4.6-0.3
			C668.9,178,668.8,178.4,670.2,178.4z M647.7,172.4c-0.2,1-6.4,0.6-9.2,0.9C639.9,172,644.1,173,647.7,172.4z M594.5,25.7
			c-1.6,0.4-5.9,0.8-8.1,0.3C586.8,25.4,592.1,25.9,594.5,25.7z M488.4,168.1c-9.6-2-3.2-3.3,10.3-2.9c-1-0.4-3.8-0.4-5.8-0.6
			c-0.6-0.9,5.3-0.2,5.7-0.9c1.6,0.1,1,0.7,1.2,1.2c11.3-0.3,12.1-0.5,24.3-0.7c1.6,1.1,5.9,0,8.2,1.1c3.1-0.3-3.6-0.6-0.1-1.2
			c8.2,0.2,7.4,1,16.3,0.5c0.1-0.8-7.6,0.4-5.9-0.8c5.4,0.4,9.6,0.2,13.9-0.3c0.4,0.7-0.1,1.1-1.1,1.5c3.1,0.1,3.8-0.4,3.4-1.2
			c5.9-0.3,7.2,0.5,9.4,1.1c-6,2.2-27,0-34.7,1.6c-13.9-0.7-26.3-0.4-40.7-0.7c0.2,0.5,3.9,0.2,4.7,0.6c-0.1,0.9-7.1,0.6-7-0.3
			C487.3,166.7,487.1,166.9,488.4,168.1z M552.3,18.9c-0.8,0.6-5.4,1-6.9,0.6C546.4,19,548.9,18.9,552.3,18.9z M548.7,16.9
			c1,1.1-5.5,1.1-4.6,0C545.6,16.9,547.1,16.9,548.7,16.9z M550,38.4c-2.1,0.5-12.7,0.7-10.5-0.8C543.2,38.3,546,38.2,550,38.4z
			 M544.2,19.6c-6.4,1.4-17-0.1-23.2,0.4c2-0.4,3.1-1,3.4-1.8c5.9,0,10.3,1.1,15.1,0.5C540.5,19.1,540.5,19.8,544.2,19.6z
			 M546,161.2c-0.8,0.7-6.5,0.1-9.3,0.3C538.7,160.1,541.2,161.1,546,161.2z M535.6,30.9c-0.9,0.3-1.2,0.7-1.1,1.2
			c-3.6,0.2-2.3-0.8-5.8-0.6C528.7,30.8,532.5,30.9,535.6,30.9z M532.3,33.5c0,0.3,0,0.6,0,0.9c-5.6,0.7-8.6-0.2-15.1-0.5
			C521.9,33.2,526.7,34.1,532.3,33.5z M517.2,34.2c-9.7,0.9-17.5-0.8-29,0.1c1.1-0.7,0.4-0.6,1.1-1.7c5.4,0.9,16.6,1.5,18.6,0.2
			c2.1,0.1,2.7,0.5,2.4,1.2c3.4-0.3,1.3-0.4,1.1-1.2C514.7,32.9,514.1,34,517.2,34.2z M521.5,158.7c0.2,1.3-3.5-0.1-7,0.3
			C516.1,158.3,518.5,158.5,521.5,158.7z M509.3,150.6c-12.9,1.3-33.4,0.5-46.4,0.5c-2.9,0.3,1,1.3,3.6,1.1c-1.1,0.8-4.9-0.1-7,0
			c-0.2-0.5,1.4-0.6,1.1-1.2c-0.5-0.6-5.7-0.1-8.1-0.3c15.6-2.9,31.8-0.8,55.7-1.1C508.1,150.1,508,150.6,509.3,150.6z M508.1,167.4
			c-1.1,0.5-4.9,0.3-6.9,0.6c0.1-0.5-1.5-0.6-1.2-1.2C504.5,166.6,503.4,167.7,508.1,167.4z M485.8,32.8c0,1.1-5,1.1-9.2,1.2
			c-0.2-0.5,1.4-0.6,1.1-1.2C480.3,33.5,482.2,32.8,485.8,32.8z M482.3,164.3c-0.3,0.7-1.8,1.1-1,2c-6.4-0.2-9.2-0.8-16.3-1.4
			C468.8,163.7,475.3,164.8,482.3,164.3z M446.7,169.7c1.9,0,3.9,0,5.8,0c-18.8,1-44.4,1.5-67.3,0.3c-1.3,0.1-0.8,0.6-2.3,0.6
			c-2.7-0.1-4.8-0.3-7-0.6c0.2-0.9,5.7-0.5,9.3-0.6c0.1-0.4,0.1-0.8-1.2-0.9c11.3-0.6,31.6,0.1,48.7-1.6c3.8,0.3,7.4,0.7,9.4,1.4
			c3.4-0.3-0.7-0.9-0.1-1.4c2.9-0.2,5.4,1.1,7,0.3c3.4,0.2,1.3,0.4,1.2,1.2c5.8-0.5,10.1-0.8,13.9-0.6c1.1-1-3.6-0.4-5.9-0.6
			c3.6-1,11.8-0.7,15.1-0.1c0.9,1.1-5.3,1.9,1.3,2c-5.1,1-18.5-0.9-20.9,0.4c8.8,0.7,24.4-0.4,29.1,1.3c-12.3,1.3-22.8-0.3-36,0.1
			C446.7,170.5,446.7,170.1,446.7,169.7z M478.5,158.6c0,0.8-2.6,1.4-4.6,0.9C473.5,158.7,476.3,158.7,478.5,158.6z M467,160.3
			c0.2-0.2,1.2-0.3,1.1-0.6c-14.8,0-16.3,0.4-29,1c-4.8-3,22.1-2.4,28.9-2.7C472.9,158.8,473.9,159.9,467,160.3z M460.3,164.7
			c-0.7,0.7-3.8,0.8-4.5,1.5c-1.6-0.9-10,0-10.5-1.1C450.3,165.9,454.3,164.1,460.3,164.7z M415.4,152.4c-0.1-0.3-1.4-0.2-2.3-0.3
			c0.2-0.4,3.5-0.1,3.4-0.6c-1.3-0.7-7.3-0.1-10.5-0.3c4.8-1.4,16.7-1,20.8-1.8c1.8,0.6,0.9,1.6,0.1,1.7c1.1,1,2.6,0,4.7,0.6
			c3.2-0.4-3.7-0.6-2.4-1.4c8.9-0.1,11,0.3,15.1-0.6c3.7,0.4-0.2,0.5,7,0.3c0.7,2-7.4,0.4-10.4,1.2c4,1.2,15-1.1,15.1,0.8
			c-14.5-0.3-32.6,2-48.8-0.1C409.7,151.3,411.1,152.6,415.4,152.4z M445.1,163c4.1,0.1-2.9,1.1,1.2,1.2c-1.1,0.9-3.9-0.1-4.7-0.3
			C441.3,163.3,445,163.6,445.1,163z M440.5,164.2c-8.5,0.7-28.1,0.3-23.3-1.1C423.1,164.4,431,163.1,440.5,164.2z M419.3,141.1
			c1.8,0.1-1,0.5,1.2,0.6c-2.2,1.3-9.9,0.1-13.9,0.1C407.9,140.2,417.1,142,419.3,141.1z M407.7,141.1c-1.9,0-3.9,0-5.8,0
			c0.7-0.3,1.4-0.5,0-0.6c0.2-0.4,3.5-0.1,3.4-0.6C407.4,140,408,140.5,407.7,141.1z M413.8,164.3c-7.6,0.8-24.7,0-38.3,0.7
			c7.9-2.3,21.3-0.7,33.6-1.3C408,164.6,411.7,164.3,413.8,164.3z M372.8,139.2c-2.7-0.5-9.9,0.5-11.7-0.8c-2.5,0.3-3.9,0.8-8.1,0.6
			c-0.7-0.6-3.4-0.9-1.3-1.4c2.7-0.1,1.4,0.8,3.5,0.9c2.7-0.1,2.7-0.8-0.1-0.9c11.8-0.6,17.5-0.7,27.9-0.1c-2.6,0.3-5.3,1.3-8.1,0.6
			c0,1.8,5.4,0.7,8.1,0.3c0.3,0.4,4.5,1.1,2.4,1.1c0.2,0.9-5.8,0-9.3,0.6c3.2,0.8,13.3-0.2,15.1,0.2c-0.8-0.7-2.4-1.5,2.2-1.5
			c-0.6,2,5.3,2.4,11.8,2.6c-0.9,0.3-1.2,0.7-1.1,1.2c-12.6-1-38.6,1.1-55.7,0.5c-0.2-0.5,1.4-0.6,1.1-1.2c-3.7,0.2-4,1.1-8,1.2
			c0-0.4,0-0.8-0.1-1.2c-2.1,0-2.4,0.4-4.6,0.3c-2.6,0.2,1.4,0.4-1.1,0.9c-1.9,0-3.9,0-5.8,0c0.2-0.3-0.3-0.5-1.2-0.6
			c2.2-0.6,3.1-1.5,8-1.5c-0.9-0.3-1.3-0.6-1.2-1.2c2.7,0.6,6.5-0.6,9.3,0.3c1.5-0.2,2.1-0.6,2.2-1.2
			C356.8,139.3,362.3,139.5,372.8,139.2z M369.9,167.4c-1-0.9,1.8-0.9,2.2-1.5c6.6,0.3,8.2,0.1,15.1,0.2c-6.6-1.4,14.5-1,16.2-0.1
			C392.5,167.4,377.5,165.9,369.9,167.4z M374.6,168.5c-0.3,0.7-5.1,0.2-5.8,0C369.6,167.5,372.8,168.2,374.6,168.5z M367.5,166
			c0.9,1.1-1.8,1.3-5.7,1.2c-0.9-0.8,2.3-0.6,2.3-1.2c-9.3-0.8-18.7,0.1-22.2-1.9c8.1,0.4,11.2-0.3,17.4-0.9
			c1.6,0.3,2.3,0.8,4.7,0.9c-1.7,0.7-2.8,0.5-5.8,0.3C359.1,165.4,362.3,165.9,367.5,166z M330.3,166.4c-0.9,0.7-7.2,0.3-5.8-0.6
			c1-0.2,2.6-0.3,4.6-0.3C329,165.9,329,166.3,330.3,166.4z M295.4,14.7c-2.8,1.2-6-0.2-10.5-0.2c-0.6-0.8,6.3,0.2,5.8-0.6
			C293.7,13.8,291.7,15,295.4,14.7z M258.4,18.3c-6.7,0.5-13.2-0.7-19.7,0.7c-4.1,0.1-2.4-1.4-7-1.1c-1.1-0.5,3.4-1-0.1-1.2
			c5.8-0.8,9.7-0.8,16.2-0.9c1.5,0.4,1.6,1.1,0.1,1.5C251.6,17.6,256,17.7,258.4,18.3z M246.3,159.7c-0.1,0.6-4.9,0.1-6.9,0.3
			C239.3,159.3,244.8,159.4,246.3,159.7z M242,165.3c-0.5,0.6-5.7,0.1-8.1,0.3C234.3,163.9,237.6,165.5,242,165.3z M197.7,162
			c3.4,0.5-2.6,1.1-5.8,0.9C190.7,161.4,197.6,162.4,197.7,162z M153.8,34.4c-3.7,0.4-9,0.4-6.9,1.5c-8.7,0.4-12.1-3.2-4.9-4.3
			C146.7,32.3,153.6,32.5,153.8,34.4z M116.9,131.8c0.6,0.9-2.4,0.9-5.8,0.9c0.1-0.5-1.5-0.6-1.2-1.2
			C112.7,131.5,115.5,131.5,116.9,131.8z M34.4,37.5c1,1.4-4.4,1.2-6.9,1.8c-0.4,2.3,4.2,2.9-0.9,4.4c-4.4,0.1-5.5-0.6-8.2-0.8
			c-1.2-2.5-0.7-2.5,2-4.7c3.1-0.3,9.1,0.1,8.1-1.2C30.1,37.2,32.8,37.2,34.4,37.5z M29.8,95c-0.5,0.6-6.2,0.3-7,0
			c0.7-0.4,2.4-0.6,4.6-0.6C27,94.9,28.4,95,29.8,95z M12.5,41.1c-2.1,0-2.5-0.3-4.6-0.3c-1-0.8,1.6-0.8,1.1-1.5
			C10.4,39.8,12.9,40.1,12.5,41.1z M13.8,136c0.9,1.1-8.7,0.7-7-0.3C9.1,135.1,11.4,135.8,13.8,136z M-34.1,131.5
			c-0.8,0-1.5,0-2.3,0c0.2-0.9-2.8-1.4,2.2-1.5C-34.8,131-32,131-34.1,131.5z"/>
		<path class="st1" d="M1177.3,42.1c5.4,0.6,12.3,0,18.6-0.4c-0.9,1.4,3-0.4,3.5,0.6c-2.6,1.1-17.9-0.2-22,1.2
			c0.4,0.4,2.9,0.2,4.7,0.3c1.4,0.7-9.9,0.1-9.3-0.8C1177.2,42.9,1179.4,43.1,1177.3,42.1z"/>
		<path class="st1" d="M1156.7,179.2c-2.3,0-1.4,0.8-4.6,0.6c-5-0.5-11.4-0.5-15.1,0.6c-2.4-0.2-2.5-0.4-1.2-0.9
			c-13.6,1-23.7,0.3-35.9,1.9c2.9-1.1-11.5-0.7-8.1,0.3c-15.8-0.8-40.4-0.4-54.5,1.7c5.7-0.4,16.1,0.6,20.9-0.7
			c-2.6,1.3,5.1,0.2,5.8-0.3c0,0.3,0,0.6,0.1,0.9c49.9-0.4,105.2-1.1,148.6-0.9c4.7-1,20.6,0.3,25.4-1.8c6.4,0.6,8.7,0.8,15.1,0.2
			c-2.5,1.6,7.1,0.1,5.9,1.4c5.3-0.6,11.6,0.7,13.9-0.3c-7.2-0.3-11.8,0.6-14-0.8c6.8,0.3,14-0.5,18.6,0.8
			c5.3-0.4,15.4-1.5,19.7-0.4c0.5-1.3,6.3,0.2,9.3-0.6c0.4-0.5-1.8-0.7-0.1-0.9c4.5-0.6,10.2,0.6,13.9-0.1c-1.4,0-2.7-0.1-2.4-0.6
			c3.5-0.2,3.4,0.5,7,0.3c0.4-1-5.1-0.5-7-0.8c-2.4,0.9-15.7,1-17.4,0.4c3.9-0.5,5.2-1.2,9.3-0.3c0.8-0.8-2.4-0.6-2.4-1.2
			c-3.9,0-3.9,1-8.1,0.9c0.7-0.8,3.3-1.1,4.5-1.8c-4.2-0.1-3.1,1.2-6.9,1.2c-1.2-0.5,3.4-1-0.1-1.2c-2.3,0.9-6.1-0.4-8.2-0.5
			c0.9,1.7-5.8-0.1-8.1,0.9c3.6-0.4,6.6,0.8,3.5,1.1c-2.7-1-4.9-0.3-9.3-0.8c0-0.3-1-0.3-1.2-0.6c5.4,0,4.5-1.6,1.1-0.3
			c-7.3-0.2-15.1-0.6-19.8-0.8c1.4,0.1,2.7,0.3,3.5,0.6c-7,0.1-5.8-1-6.9,0.3c-4.9,0.1-4.2-1.3-7.1-1.7c1.2,1-5.2,0.3-4.6,1.2
			c2.2,0.1,7-0.4,5.8,0.6c-7.6-0.2-8.5-0.2-15.1,0.4c0.2-0.6-1.4-0.6-1.2-1.2c3.5,0.4,8.4,0.4,9.3-0.6c-6.6-0.4-9.9,0.3-13.9,1.2
			c-3-1-7.2-0.2-7,0.3c-3.4-0.5-1.5-1.1-0.1-1.7c-6.7,0.3-9,0.3-14-0.5c1.6-0.1,1.3-0.6,2.3-0.9c-4.6,0.7-5.3,0.4-9.3-0.3
			c-4,1-19,1.8-26.7,0.7c-4.5,1.2-8.9,0.8-19.7,1.2c-1.6,1.3,6.9,0,7,0.8c-1.4,1-9.4,1.8-12.7,0.6c-0.5-0.7,5.3,0.1,3.4-0.9
			C1135.2,176.9,1150.9,178.8,1156.7,179.2z M1278.6,178.1c0,0.3,0,0.6,0.1,0.9c-3.6,0.3-2.9-0.4-4.7-0.6
			C1274.3,178,1276.9,178.2,1278.6,178.1z M1269.2,177c-3.8,1-8.9,2.4-15,1.2c0-0.4-0.1-0.8-0.1-1.2c2.1-0.2,4.9,0.8,5.8,0
			c3.9,0.3-1.3,0.6-1.1,0.9C1261.8,178.6,1263.3,176.5,1269.2,177z M1213.5,177.5c-2.6,0.8-12.5,0.9-13.9-0.2
			C1204.2,177.3,1210.7,176.9,1213.5,177.5z M1206.4,175.5c-1.2,0.7-6.2,0.6-10.4,0.6C1197.7,175,1202,175.2,1206.4,175.5z
			 M1197.3,177.3c-1.4,0.4-4,0.6-6.9,0.6C1189.3,176.8,1195.5,176.8,1197.3,177.3z M1192.5,174.9c0.4,0.8-1.5,1-4.6,0.9
			C1187.5,175.1,1189.4,174.9,1192.5,174.9z M1189.1,177.3c-2.1,1.9-15-0.2-12.8-1.1C1180.3,177,1184,177.4,1189.1,177.3z
			 M1178.8,178.5c1.7,0.3-4.9,0.1-9.3,0.3C1170.8,177.6,1176.1,178,1178.8,178.5z M1173.9,175.3c1.3,0.7-3.5,1.4,0.1,1.7
			c-5.4-0.1-6.6-0.3-15.1-0.5C1161,175.4,1166.7,175.2,1173.9,175.3z"/>
		<path class="st1" d="M1284.6,163c-3.4,1.1-6.2-0.6-7-1.1c-1.2,0.2-1.2,0.7-3.4,0.6C1276.6,160.5,1280.6,162.8,1284.6,163z"/>
		<path class="st1" d="M1208,32.1c-2.1,0.3-10.5-0.2-15.1-0.2C1196.2,31.2,1204,31.9,1208,32.1z"/>
		<path class="st1" d="M1194.9,101.5c2.2,0.1,4.2-0.2,2.3-0.3c6.1-0.2,7.2,0.5,1.3,1.4c-1.2,0-2.4-1.2-3.5-0.3
			C1193.2,102.3,1195.4,102,1194.9,101.5z"/>
		<path class="st1" d="M1155.4,101.7c-0.2,0.3-1.2,0.2-1.2,0c-1.4,0.3-2.1,0.8-5.8,0.6C1149.1,101.6,1152.9,101,1155.4,101.7z"/>
		<path class="st1" d="M1145.3,32.6c-3.2,1-7.2,0.3-11.6,0C1135.1,32.1,1140.9,33,1145.3,32.6z"/>
		<path class="st1" d="M1016.3,30.8c0.8,0,1.6,0,2.3,0c-0.2,0.2,0.5,0.3,1.2,0.3c-3.1,0.4-5.2,1-9.2,1.2
			C1010.2,31.3,1015.6,32,1016.3,30.8z"/>
		<path class="st1" d="M972.3,32.1c2.1-0.7,11.3,0.6,5.8-0.6c9.9,1,18.3,1.2,27.9,0.5c-7.8,0-8.4-0.7-12.8-1.1
			c7.9-0.9,12.4,1.2,17.4-0.1c-1.8-0.1-0.9-0.6-0.1-0.9c-3.1,0-6.8,0.2-7-0.6c1.3-0.5,9.6,0.7,10.4-0.6c-29.2,0.5-52.3,0.3-81.3,0.3
			c1.8,0.4,5.4,0.4,7,0.8c-0.9,0.1-2.3,0-2.3,0.3c0.9,0.1,2.3,0,2.3,0.3c-4.3-0.3-10.9,0.4-8.1,0.9c1.9-1,7.1-0.3,10.4,0
			c2.9-0.6-2.5-1.5,2.2-1.7c7.4,1,19.5-0.9,23.3,0.8c-4.1,0.8-16.7-0.9-19.7,1.2c6.6,0,14.6-0.7,19.8,0.5c1.1-0.3,2.3-0.6,3.4-0.9
			C975.4,31.7,970.1,31.8,972.3,32.1z M991.9,30.9c0.4,0.9-5,1.1-6.9,0.6C986,31,988.6,30.8,991.9,30.9z"/>
		<path class="st1" d="M1010.1,43c-0.1,0.6-4.9,0.1-7,0.3c0.7-0.3,1.4-0.5,0-0.6C1003.8,42.1,1007.5,43.1,1010.1,43z"/>
		<path class="st1" d="M934.3,37.8c-3.6,0.5-10,1.4-15.1,0.6C922.9,37.9,929.8,38.1,934.3,37.8z"/>
		<path class="st1" d="M926.1,36.1c1.6,0.1,1,0.7,1.2,1.2c-3.1-0.1-10.2,1.2-9.3-0.5C921.7,36.9,926.2,37.8,926.1,36.1z"/>
		<path class="st1" d="M881.5,29.6c-0.2,0.3,0.3,0.5,1.2,0.6c-4,0.9-8.8,0.3-12.8-0.2C872.7,29.3,877.1,30.1,881.5,29.6z"/>
		<path class="st1" d="M877,180.5c3-0.2,6.7,1,3.6,1.4C880.6,182.4,879.3,181,877,180.5z"/>
		<path class="st1" d="M863.5,37.5c2.1,0,2.5,0.3,4.7,0.3c-2.6,1.1-4.3,0.6-9.2,0.9C856,38.3,865,38.4,863.5,37.5z"/>
		<path class="st1" d="M832,36.1c-4.6,0.9-14.2,0-19.7,1.2C815.7,35.7,825.4,36.4,832,36.1z"/>
		<path class="st1" d="M819.1,34.5c0.4-0.5-0.9-0.5-2.3-0.6c0.3-0.7,3.1-0.7,4.6-0.3c0.4,0.6-4.8,2.1-4.6,0.9
			C817.6,34.5,818.4,34.5,819.1,34.5z"/>
		<path class="st1" d="M815.6,182.5c1.7,0.7-7.8-0.7-10.5,0c3.1-0.8-2.4-1.1-4.7-1.4c2.2-1,5.8-0.2,10.4-0.3
			C805.5,181.5,812.8,182.1,815.6,182.5z"/>
		<path class="st1" d="M802.2,210.7c-0.2-0.6,4.1-0.1,5.8-0.3c-0.4,1.4-5.2,1.8-10.3,2.1C801.2,211.1,801.2,211.1,802.2,210.7z"/>
		<path class="st1" d="M766.6,29.4c-1.3,1.2-5.8,0-9.3,0C758.4,28.8,762.6,29.8,766.6,29.4z"/>
		<path class="st1" d="M660.1,184.6c0.5-0.4,1.5,0.1,3.5,0c-1.6,0.4-3.7,0.6,1.2,0.6c0.9,0.5-6.6,0.7-9.3,0.3
			C655.7,185,664.1,185.1,660.1,184.6z"/>
		<path class="st1" d="M529.9,183c3.3-0.1-7.9,0.8-9.2,1.5c-1.1-0.5-6.2-1.5-8.2-0.8c-2.2-1.5,6.1,0.1,11.6,0
			c-0.4-0.6-3.1-0.6-4.7-0.9C521.5,182.1,524.6,183.6,529.9,183z"/>
		<path class="st1" d="M492.6,180.3c2.2,0.1,7-0.4,5.8,0.6c-6.8-0.3-8,1.3-4.5,2c-0.7,0.3-2.7,0.3-2.3,0.9
			C487.3,182.8,492.1,181.6,492.6,180.3z"/>
		<path class="st1" d="M473.1,183.5c1-0.9-3.7-1.8-1.3-2c4,0.2,0.4,1.2,3.6,2c-2-0.1-2.2,0.2-2.3,0.6c-7.2-0.6-9.8,0.4-18.6,0.1
			c1-0.5,4-0.8,5.8-0.3c-2.6-1.1,4.2-0.9,8-1.8c0,0.5,0.1,1,0.1,1.5C470,183.6,471.5,183.5,473.1,183.5z"/>
		<path class="st1" d="M426.3,196.8c1.9-1.5-3.7-1-5.9-1.4C423.2,194.4,434.7,196.6,426.3,196.8z"/>
		<path class="st1" d="M373,179.9c2.6-0.1,16.4,0,3.5,0.6C375.6,180.2,374.3,180,373,179.9z"/>
		<path class="st1" d="M359.1,181.1c4-0.4,7.6-0.8,13.9-0.6c-2.7,0.7,1.5,1.1,2.4,1.7c-3,0.2-8.2,0-9.3-0.8
			c-1.7,0.3,0.3,0.4-1.1,1.2c-1.5-0.4-5.5-0.4-7,0C355.9,182.2,362.7,182.1,359.1,181.1z"/>
		<path class="st1" d="M360.1,178.8c-4.5,1.4-23.8,3-35.8,3c-1.4,0.1-0.9,0.5-1.1,0.9c-3-0.4-3.7-0.6-2.4-1.4
			c-5.1,0-5.3,0.5-8.2-0.3c-1.4,0.1-2.4,0.4-2.3,0.9c-25-0.5-44.7,0.4-61.5,1.1c3.6-0.9-4-0.5-2.4-1.7c-0.9,0.2-1.9,0.3-3.5,0.3
			c0.5,0.6,4.5,0.2,3.5,1.1c-5.7-0.5-8.2-0.2-10.6-1.7c1.8-0.8,6.4,1.3,5.8-0.6c35.4-0.1,54.9,0.2,95.2,0.2c3.1,0.2,2.2-0.6,3.4-0.9
			c0.7,0.5,5.5,0,5.8,0.6c1.7-0.3,3.6-0.4,3.4-1.2C352.8,178.9,358.9,179.4,360.1,178.8z"/>
		<path class="st1" d="M265.7,154.7c0,0.9-5.5,0.4-6.9,0.9c0.9,0.3,2.1,0.4,3.5,0.6c-7,2-19.3,0.5-30.1,1c3.3-1.7-23.3-2.2-25.6-0.5
			c-3.7,0.3-2.5-0.7-4.7-0.9c-2.9,0.4-4.3,1.3-8,1.5c0.9-0.3,1.2-0.7,1.1-1.2c-5,0.5-7.4-1.4-11.7-2c-1.3,0.8-5.1,0.6-8.1,0.3
			c5-0.7-1-1-5.8-0.8c6.7-0.8,8.7-1.8,16.1-1.8c-0.4,0.4-2,0.5-2.3,0.9c3.7,0.8,10.3,1.1,15.1,0.8c1.5,0.4,1.6,1.1,0.1,1.4
			c3.5-0.9,14,0.3,16.2-1.5c2.6,0.2,4.6,0.6,8.2,0.5c-1.2,1.2-3.5-0.1-7,0c-1.1,0.2-1.7,0.5-2.3,0.9
			C227.4,154.9,249.2,155.2,265.7,154.7z"/>
		<path class="st1" d="M253.5,144c2.3,0.8,8.8,0.5,10.5,1.4c-4.8,0-11.3-0.9-14-0.5C247.3,144.8,252.8,144.3,253.5,144z"/>
		<path class="st1" d="M235.3,1c-0.9,0.3-1.2,0.7-1.1,1.2c-1.4-0.9-5-1.5-9.3-0.8c-1-0.2-0.7-0.8-2.4-0.9c0.9-1,2.8,0,6.9-0.3
			C229,1.1,232,1.1,235.3,1z"/>
		<path class="st1" d="M219,168c6.8-0.5,10.3-0.2,17.4-0.6c-0.5,0.4-1.4,0.6-3.4,0.6c0.6,0.2,1.2,0.5,1.2,0.9
			c-6.6-0.9-11.7-0.3-17.4,0.4C218.3,168.9,226.5,167.9,219,168z"/>
		<path class="st1" d="M202.7,168.6c2.2,0.7-4.8-0.3-3.6-1.1c1,0.2,2.6,0.3,4.7,0.3C204.5,168.2,199.4,168.5,202.7,168.6z"/>
		<path class="st1" d="M197.3,175.3c0.2,0.2-0.4,0.3-1.1,0.3c0,0.2,0,0.4,0,0.6c-1.7-1.3-13.9,0-12.9-2c2.5-0.1,2.2,0.4,2.4,0.9
			C190.7,175.3,194.5,175.2,197.3,175.3z"/>
		<path class="st1" d="M154.5,196.4c-3.4,0.1-3.6-0.6-7-0.6c2.6-0.3,5.2-1.3,9.2-0.9c0.1-0.5-1.5-0.6-1.2-1.2c4.2,0,4.5,0.4,8.1,0
			c-0.5-0.4-1.5-0.6-3.5-0.6c1.6-0.8,3.7-0.2,5.7-1.2c2.5,0.1-0.1,1.3-1.1,1.5c1.8,0.3,2.9,0.8,5.8,0.8c-0.7,0.3-2.6,0.3-2.3,0.9
			C161,195.5,157.7,195.2,154.5,196.4z"/>
		<path class="st1" d="M162.3,134.8c1.3,0.1,0.7,0.3,0,0.3c0.8,0.3,2.7,0.3,2.4,0.9c-3.6-0.1-5.1-0.8-8.2-1.1
			C153.3,134,162.8,135.5,162.3,134.8z"/>
		<path class="st1" d="M152.3,141.8c-1.7,0.6-2.5,1.3-6.9,1.2c4.4-1.5-6.7,0.5-10.5-0.3c-1.1,0.1-3,1.3-1.1,1.2
			c-5.1-0.5-23-0.3-30.3-1.6c-2.4,1.9-8.4-0.6-10.4,1.2c-2.1,0-0.8-1-2.4-1.2c-5.6,1-11.7-0.5-16.3-0.2c-1.7-0.1,1.4-2.3-3.6-1.1
			c-2-1.2,6.3-0.7,7,0.6c5.1-0.2,8.2,0.1,12.8,0.5c2-0.1,2.6-0.5,2.3-1.2c6.7,0.2,7.1,0.8,12.8-0.1c-2.2,3.1,16,0,22.2,2.2
			C133.9,142,142.8,142.5,152.3,141.8z"/>
		<path class="st1" d="M129.2,162.8c-1,0.5-3.6,0.7-6.9,0.6c-0.9,0.8,1.7,0.7,1.3,1.4c-6.4,0-9.7,0.7-13.9,1.2
			c2.9-1.7-23.9-1-25.8-3.4c-1,0.2-2.6,0.3-4.6,0.3c-2.1-0.8-5.5-1.3-10.5-1.4c-5.7-2-18.7-2.5-22.3-4.3c3.3,0.5,10.2-0.3,8.1-0.3
			c20.2-0.9,55.3,3,70.8-0.9c-3.8-0.4-7,1.4-15.1,0.9c6-0.9,6.8-2.2,14.9-3c0.2-0.8-7.6,0.4-5.9-0.9c1.9-0.5,3.9,0.2,8.1,0
			c-5,1.9,11.4,1.7,15.2,1.4c0,0.6-3.2,0.4-2.3,1.2c-4.3,0.2-7.4-0.7-10.5,0c5.2,2,13.3,0.7,22.1,1.1c-8.6,0.3-16.7,3.2-26.4,4.2
			c-4.7-0.2-10.9-0.3-11.5,1.2c-2.7-0.1-2.2-1-5.9-0.8c-3.6,0.6,0.4,1.6-8,1.2c-1.6,0.2-2.1,0.6-2.3,1.2c3.2,1.3,15.2-0.5,12.8,1.1
			c2.6,0.1,1.6-0.6,3.4-0.6c0.4-0.7-5.3,0.2-3.5-0.9c2.1-0.6,5.6-0.2,4.7,0.9C121.3,164.1,122.1,162.7,129.2,162.8z"/>
		<path class="st1" d="M138.2,139.6c-0.1,0.6-3-0.4-5.8,0c-1.4-0.9-0.6-0.8,1.1-1.5C134.8,138.7,133,139.5,138.2,139.6z"/>
		<path class="st1" d="M89.5,140.3c-4.5-0.1-9.7,0-15.1-0.5C75.6,139.8,88.6,139.3,89.5,140.3z"/>
		<path class="st1" d="M70.5,152.6c0.8-2.5,13.6,0.1,19.8,0.5C82.9,153.1,75.1,153.3,70.5,152.6z"/>
		<path class="st1" d="M46.6,84.5c-4.7,0.1-3.6-1.2-7.1-1.4C37.1,82.6,47.9,83.3,46.6,84.5z"/>
		<path class="st1" d="M204,188.1c-0.7-0.6,3.9-0.2,3.4-1.5c1.5,1,8.5,0.6,8.3,2c6.1-0.5,10.4-1.5,9.1-3.8c12-2,28-0.3,34.9,1.6
			c4,3.6-0.8,6.2-10,6.7c-13.8,0.8-29.1-3.2-39.6-1.6c-3.9-0.4-15.5-0.5-21-1.4c1.3-0.9,0.1-0.7-0.1-1.7c4.4-0.3,12,0.2,11.5-1.2
			C202.1,187.4,203.3,187.7,204,188.1z"/>
	</g>
	<rect y="126.2" width="1280" height="673.8"/>
</g>
</svg>
