<?xml version="1.0" encoding="utf-8"?>
<!-- Generator: Adobe Illustrator 22.1.0, SVG Export Plug-In . SVG Version: 6.00 Build 0)  -->
<svg version="1.1" id="Layer_1" xmlns="http://www.w3.org/2000/svg" xmlns:xlink="http://www.w3.org/1999/xlink" x="0px" y="0px"
	 viewBox="0 0 941.3 76.9" style="enable-background:new 0 0 941.3 76.9;" xml:space="preserve">
<style type="text/css">
	.st0{fill:#FCB744;}
</style>
<g>
	<path class="st0" d="M71.2,32.2C65.5,32.1,69.7,32.6,71.2,32.2L71.2,32.2z"/>
	<path class="st0" d="M82.4,49.8c1.9-0.2,4.8,0.2,6-0.2C85.8,49.4,83.6,49.2,82.4,49.8z"/>
	<path class="st0" d="M117.4,50.2c1.5,0,1.5-0.1,2.8,0C120.4,49.8,117.5,50.1,117.4,50.2z"/>
	<path class="st0" d="M133.2,52.2c-1.9,0.2-2.9-0.4-3.6-0.2C130.1,52.2,132.3,52.5,133.2,52.2z"/>
	<path class="st0" d="M135.6,52c-0.1,0.2-1.5,0.1-1.6,0.3c0.9,0,1.5,0,2,0.1C136,52.2,136.2,52,135.6,52z"/>
	<path class="st0" d="M134.3,49.6c0.8,0.8,5,0.5,6.5,0.2C138.2,49.8,135.8,50,134.3,49.6z"/>
	<path class="st0" d="M139.3,71.8c-0.3-0.1-2-0.2-1.6,0.1C137.9,72.1,143,71.8,139.3,71.8z"/>
	<path class="st0" d="M298.6,12.3c1.1,0,2.8,0.1,2.8-0.2C300.5,12.2,298.3,11.9,298.6,12.3z"/>
	<path class="st0" d="M460.2,65.5c1-0.1,2.9,0.1,3.2-0.1C462.3,65.3,460.7,65.2,460.2,65.5z"/>
	<path class="st0" d="M469.8,65.6c0.9,0.3,1.6,0.1,2.4-0.1C471.7,65.1,471,65.5,469.8,65.6z"/>
	<path class="st0" d="M473.1,66c0.8,0,0.9,0.1,1.6,0.1c0.2-0.3-1-0.3-1.6-0.4C473.1,65.8,473.1,65.9,473.1,66z"/>
	<path class="st0" d="M481.5,65.3c1.2-0.1,1.2,0.2,2.4,0.1c0-0.1,0-0.2,0-0.3C482.9,65.4,481.6,64.9,481.5,65.3z"/>
	<path class="st0" d="M485.4,63.8c0.9,0.5-3.2,0.2-2,0.4C485.3,64.3,487.4,64,485.4,63.8z"/>
	<path class="st0" d="M488.8,65.6C489,65.6,489.3,65.7,488.8,65.6c-0.3,0.1-0.8,0.1-0.8,0.2c1.2,0,2.7,0,2.4-0.3
		C489.8,65.5,488.9,65.5,488.8,65.6z"/>
	<path class="st0" d="M493.5,63.7c0,0.1,0,0.3,0,0.4c1-0.1,2.8,0,2.8-0.3C495.2,63.8,494,63.8,493.5,63.7z"/>
	<path class="st0" d="M507.7,65.8c-1.4,0.1-2.7,0.3-4,0.4C505.7,66.3,507.2,66.2,507.7,65.8z"/>
	<path class="st0" d="M545.1,65.7c1.2,0.3-1.3,0.2-1.2-0.1c0,0.1,0,0.3,0,0.4c1.4,0,2.6,0,3.2-0.2C546.1,65.9,545.7,65.4,545.1,65.7
		z"/>
	<path class="st0" d="M565.7,65.9c1.3,0.1,1.7-0.1,2.8-0.2C567.2,65.7,566.1,65.7,565.7,65.9z"/>
	<path class="st0" d="M567.3,13.7c0.5-0.3-0.9-0.7-1.6-0.4c0.5,0,0.9,0.1,1.2,0.2c-0.2,0.2-1.9,0-2,0.2
		C565.6,13.9,565.9,13.6,567.3,13.7z"/>
	<path class="st0" d="M574.1,64.7c0.6,0.1,3.5,0.2,4,0C577.5,64.5,574.6,64.5,574.1,64.7z"/>
	<path class="st0" d="M599.2,67.1c-1.2,0.3-2.7-0.2-3.6,0.1C596.9,67.2,599.2,67.7,599.2,67.1z"/>
	<path class="st0" d="M597.5,66.1c-0.8,0-0.3-0.3-1.2-0.3c0.5,0.3-1.3,0.1-0.8,0.4C596.8,66.1,597.2,66.4,597.5,66.1z"/>
	<path class="st0" d="M599.2,68c-0.5-0.1-1.9-0.1-2.4-0.2C596.8,68.2,598.4,68.2,599.2,68z"/>
	<path class="st0" d="M602.7,66.2c1.3-0.1,0.6,0.3,1.6,0.3c-1.1-0.5,4-0.4,2.4-0.1c0.9,0,1.7-0.1,2-0.3
		C607.9,65.8,603.9,65.9,602.7,66.2z"/>
	<path class="st0" d="M619.2,65.5c-1.4,0.1-0.5-0.4-2-0.3c0,0.1,0,0.2,0,0.3C617.4,65.6,619.1,65.7,619.2,65.5z"/>
	<path class="st0" d="M624.5,66.5c0.9-0.2,3.4,0,3.6-0.3C626.8,66.4,624.8,65.9,624.5,66.5z"/>
	<path class="st0" d="M625.8,68.4c0,0.1,0,0.2,0,0.3c0.8,0,1.6,0,2.4,0C628.6,68.3,626.1,68.6,625.8,68.4z"/>
	<path class="st0" d="M648.6,13.9c-0.5,0-1,0-0.8-0.2c-1.8,0.1-3.5,0.1-3.6,0.3C645.7,13.8,647.7,14,648.6,13.9z"/>
	<path class="st0" d="M654.1,70.5c-0.7,0.1-2.7,0-3.2,0.2C651.9,70.8,653.9,70.8,654.1,70.5z"/>
	<path class="st0" d="M687.6,13.5c-0.9,0-1.7,0.1-2,0.3C686.7,13.8,688.2,13.9,687.6,13.5z"/>
	<path class="st0" d="M723.4,12.8c3-0.1,4.5-0.1,6.8-0.2c-2-0.2-4.7-0.3-6.4,0C724.5,12.6,723.7,12.7,723.4,12.8z"/>
	<path class="st0" d="M727.5,13.5c-0.9,0.3-2.4,0.3-3.2,0.6C726.2,14,727.2,14,727.5,13.5z"/>
	<path class="st0" d="M730.7,13.3c-0.8,0.3-1.7-0.3-2.8,0c-0.1,0.3,0.2,0.4,0.8,0.5c1.1-0.1,2.1-0.3,3.6-0.3
		c-0.4-0.4-0.1-0.2-0.4-0.6c0.7,0,1.1-0.1,0.4-0.2c-0.5,0.3-2.3,0.2-2.8,0.5C730,13.3,730.6,13.2,730.7,13.3z"/>
	<path class="st0" d="M735.5,12.2c-0.9,0.1-2.3-0.2-2.8,0.2c1.8-0.1,2.8,0,4.4-0.2C735,11.6,737,12.1,735.5,12.2z"/>
	<path class="st0" d="M739.1,70.9c1-0.1,3.5,0.2,3.2-0.2C740.9,71,739.4,70.2,739.1,70.9z"/>
	<path class="st0" d="M749.6,12.2c-1.3,0-4.8,0.1-4.4,0.2C747,12.4,748.6,12.4,749.6,12.2z"/>
	<path class="st0" d="M755.3,13c-1,0-1.2,0.2-2,0C752.9,13.5,755.7,13.4,755.3,13z"/>
	<path class="st0" d="M757.4,14.7c0.3,0.1,2.8,0.3,2.4-0.1C758.4,14.8,758.1,14.6,757.4,14.7z"/>
	<path class="st0" d="M769,72.6c0.1,0.6,3.1,0.2,3.2-0.1C770.8,72.5,770.4,72.8,769,72.6z"/>
	<path class="st0" d="M792.6,18c-0.5,0-0.6-0.1-0.8-0.2c-1.7,0.2-2.3,0.2-3.6,0.4c1.8,0.1,2,0,3.2,0.1C790.8,18,792.8,18.3,792.6,18
		z"/>
	<path class="st0" d="M811.3,28.1c-1.4,0-2.3,0-3.2-0.1c0.2,0.9-3.5-0.3-4,0.5c0.9-0.1,3-0.3,2.8,0.2c-1.3,0.3-4.2-0.2-4,0.3
		c2.6-0.1,4.3-0.1,6.4,0.1c-1.8-0.5,1.1-0.4-0.5-0.8C809.8,28.3,811.8,28.5,811.3,28.1z"/>
	<path class="st0" d="M814.5,72.1c-0.3,0.5-2.7-0.2-2.4,0.4c1.2,0,1.5,0.8,2.8,0.4C813.2,72.6,815.3,72.3,814.5,72.1z"/>
	<path class="st0" d="M826,70.3c-3.6,0.1-0.3,0.4-2.4,0.6c1.4,0.2,1-0.1,2.4-0.1C826.1,70.7,826.1,70.5,826,70.3z"/>
	<path class="st0" d="M832.1,70.4c-2.9,0.1-4.1-1.1-6.1-0.6c2.7,0.1,1.4,0.7,1.7,1c0.9-0.1,2.3-0.2,3.2-0.3c0,0.1,0.5,0.1,0.4,0.3
		c-2.7,0.1-3.3,0.7-5.6,0.9c1.7,0,1.9,0.1,2.8-0.1c0.4,0.2,1,0.4,2.4,0.4c1.1-0.2,1.9-0.5,2.8-0.7C832.8,71.1,832.1,70.8,832.1,70.4
		z"/>
	<path class="st0" d="M833.2,69.2c-2.7,0,0-0.7-2.9-0.6c-0.2,0.4,1.2,0.4,0.9,0.9C832.1,69.5,832.5,69.3,833.2,69.2z"/>
	<path class="st0" d="M840.1,24.2c2,0.1,0.9-0.5,1.6-0.7c-0.8,0-0.9,0.1-1.6,0.1C840.4,23.9,841.2,23.9,840.1,24.2z"/>
	<path class="st0" d="M845.4,18.6c0.3-0.5-1.3-0.4-2-0.2C844.6,18.4,844.1,18.7,845.4,18.6z"/>
	<path class="st0" d="M858.9,16.3c-1,0.3,2.9,0.4,3.6,0.2c-0.7-0.3-1-0.7-2.1-0.9c-0.3,0.2-0.2,0.5-1.2,0.6c-0.4-0.1-4.3-0.2-4,0.1
		C856.5,16.4,857.6,16.3,858.9,16.3z"/>
	<path class="st0" d="M862,27.1c1,0,2.7,0.3,3.2,0.1c-0.2-0.1-0.5-0.1-1-0.2c0.9,0,1.2,0.1,1.3,0.3c0.1-0.1,0.6-0.2,0.8-0.3
		c-0.5-0.1-2.4-0.2-3,0C862.8,27,862.3,27,862,27.1z"/>
	<path class="st0" d="M73.3,53.1c2-0.2,0.2-0.5,3.6-0.3C76.6,52.4,73,52.5,73.3,53.1z"/>
	<path class="st0" d="M795.2,26.8C795.1,26.8,795.1,26.8,795.2,26.8C795.1,26.8,795.1,26.8,795.2,26.8L795.2,26.8z"/>
	<path class="st0" d="M708.8,17.6C708.8,17.5,708.8,17.5,708.8,17.6c-0.7-0.1-1.4,0-2,0C707.5,17.6,708.2,17.6,708.8,17.6z"/>
	<path class="st0" d="M687.9,70.3L687.9,70.3L687.9,70.3L687.9,70.3z"/>
	<path class="st0" d="M767.8,71.8c-0.1,0-0.2,0-0.4,0C767.5,71.8,767.6,71.8,767.8,71.8z"/>
	<path class="st0" d="M687.6,70.4c0.1,0,0.2-0.1,0.3-0.1C687.6,70.3,687.5,70.3,687.6,70.4z"/>
	<path class="st0" d="M129.9,50c1.8,0,1.9-0.1,3.6,0C133.4,49.5,130.4,49.9,129.9,50z"/>
	<path class="st0" d="M403,13.5c-0.1,0.3-1.6,0.3-2,0.6c1.5-0.2,0.8,0.3,2,0.2C401.1,13.9,404.1,13.8,403,13.5z"/>
	<path class="st0" d="M444.9,65.3c1.4,0.1,4.1,0.3,5.2,0.1C448.5,65.3,445.6,65.2,444.9,65.3z"/>
	<path class="st0" d="M470.6,65.1c-1.5-0.1-2.9-0.3-4,0C468.1,65,470.1,65.3,470.6,65.1z"/>
	<path class="st0" d="M513.3,65.2c-1.4,0.1-2.1,0.3-3.2,0.4c0.2,0,0.5,0,0.4,0.1c0.3,0,0.5,0,0.8,0
		C511.6,65.3,513.4,65.5,513.3,65.2z"/>
	<path class="st0" d="M540.7,65.5c-0.7,0.3-2.5,0.1-3.6,0c-1,0.2,0.9,0.5-0.8,0.6c-2.6-0.3-6.8,0.3-8.1-0.3c1.4-0.3,5.8,0.3,6.8-0.4
		c-2.3,0-5.1,0.3-6.9-0.2c-0.4,0.1-0.8,0.2-1.2,0.3c-1.5-0.2,0.3-0.2-0.4-0.3c-0.7,0.3-3.9-0.2-2,0.2c-3.4-0.3-6.4-0.4-9.7-0.2
		c2.7,0,2.9,0.2,4.5,0.4c-2.7,0.3-4.3-0.4-6,0c0.6,0,0.3,0.2,0,0.3c1.1,0,2.4-0.1,2.4,0.2c-0.4,0.2-3.3-0.2-3.6,0.2
		c10.1-0.2,18.1-0.1,28.2-0.1c-0.6-0.1-1.9-0.1-2.4-0.3c0.3,0,0.8,0,0.8-0.1c-0.3,0-0.8,0-0.8-0.1C539.4,65.9,541.7,65.7,540.7,65.5
		z M519.8,65.7c-0.1-0.3,1.7-0.4,2.4-0.2C521.8,65.7,520.9,65.7,519.8,65.7z"/>
	<path class="st0" d="M539.8,63.3c1.6-0.1,3.9,0,5.2-0.2C543.2,62.8,541,63.1,539.8,63.3z"/>
	<path class="st0" d="M542.2,63.5c0.1,0.2-0.1,0.4,0.4,0.4c0-0.6,1.5-0.3,2.8-0.2C545.7,63.1,543.3,63.5,542.2,63.5z"/>
	<path class="st0" d="M557.6,65.9c0.3,0,0.5,0.1,0.4,0.2c1.5-0.2,3.1,0.1,4-0.1C560.7,65.8,559,65.6,557.6,65.9z"/>
	<path class="st0" d="M559.6,13.8c-0.8-0.2-1.2-0.7-1.2-0.5C557.3,13.5,558.6,13.9,559.6,13.8z"/>
	<path class="st0" d="M565.9,63c-1.7,0.1-2.3-0.1-3.2,0.3c0.8,0,0.9,0.1,1.6,0.1C563.8,63.1,566.9,63.1,565.9,63z"/>
	<path class="st0" d="M582.6,13.7c1.6,0,2.9,0.2,3.6-0.1c-0.8-0.1-2.7-0.2-1.6-0.5c-0.9,0.3-4.2-0.2-3.6,0
		C581.9,13.3,584.4,13.5,582.6,13.7z"/>
	<path class="st0" d="M585.6,3.3c0.3-0.1,0.3-0.1,1.6-0.6c-1.8,0.1-3.4,0.2-3.6,0.7C584.1,3.4,585.6,3.6,585.6,3.3z"/>
	<path class="st0" d="M597.9,66.2c1.4-0.1,2.8,0.2,3.2,0C599.9,66.2,598.4,65.8,597.9,66.2z"/>
	<path class="st0" d="M633.6,12.4c0.7,0,1,0.1,1.2,0c-1.4-0.2,1.5-0.1,1.6-0.3c-0.9-0.1-3.5-0.1-3.2,0.1
		C634.9,12.2,634.2,12.3,633.6,12.4z"/>
	<path class="st0" d="M680,12.9c1.9-0.2,2.9,0.3,3.6,0.1c-0.5-0.1-1.5-0.1-1.6-0.3c1.9,0,4.8,0.5,4,0c-0.7,0.2-2.4-0.1-2.8-0.3
		C682.7,12.6,678.8,13,680,12.9z"/>
	<path class="st0" d="M692.9,13.9c0.2-0.5,1.9-0.9,0.3-1.2c0.1,0.2-0.5,0.2-0.8,0.3c1.2,0.2,0.8,0.8-1.6,0.7
		C690.5,14,692.1,13.8,692.9,13.9z"/>
	<path class="st0" d="M700.1,13.5c0.8-0.1-0.8-0.4-0.4-0.7c0.5,0,1.1,0,1.6,0c0,0.2,0,0.3,0,0.5c1.3-0.3,3.7-0.2,2.8-0.6
		c0.6,0.2,1.7,0.1,2-0.1c-3.1-0.1-3.9,0.2-6.4,0c0,0.1-0.1,0.2-0.8,0.2C700,13,698.7,13.4,700.1,13.5z"/>
	<path class="st0" d="M717.9,8.7c-0.7-0.1-2.7,0-2-0.5C713,8.2,717,9,717.9,8.7z"/>
	<path class="st0" d="M734.4,14c-0.5,0-0.9-0.1-1.2-0.2C728.7,14,733.5,14.1,734.4,14z"/>
	<path class="st0" d="M736.8,13.5c-0.4-0.3-2.2-0.4-3.2-0.3c0.3,0.2,1.8,0.4,0.8,0.6c2.2,0.1,3.4-0.1,4.8-0.2
		c-1.2-0.3,1.1-0.4,0.4-0.5c-0.5,0.1-1.9,0.1-2.4,0C736.6,13.4,737.4,13.4,736.8,13.5z"/>
	<path class="st0" d="M742.4,14.3c-0.1-0.3,0.6-0.3,1.2-0.4c0.1,0.2,1.8,0,2,0.2c0.4-0.1,0.1-0.4,1.2-0.3c14,0,20.8,0.1,33,0.1
		c-0.2-0.7,1.4,0.1,2-0.2c-0.8-0.5-1.7-0.4-3.7-0.6c-0.3,0.3,1.1,0.2,1.2,0.4c-0.6,0-0.9,0.1-1.2,0.1c0.5-0.4-2.1-0.3-0.8-0.6
		c-5.8,0.2-12.7,0.6-21.3,0.4c0,0.2-0.3,0.3-0.8,0.3c-1-0.2-1.1-0.1-2.8-0.1c0.4-0.3,0.2-0.4-0.8-0.5c-0.1,0.1,0.1,0.3-0.4,0.3
		c-3.9,0-10.1,0.5-12.1,1C739.9,14.2,741.5,14.4,742.4,14.3z"/>
	<path class="st0" d="M739.1,14.3c-0.1,0-0.2,0-0.3,0.1C738.9,14.4,739,14.4,739.1,14.3z"/>
	<path class="st0" d="M782.5,75.6c0,0.2-0.1,0.3-0.4,0.4c1.1,0,2.2,0,2,0.3c1.4-0.1,2.1,0.3,2.4-0.1c-0.6,0-0.5-0.2-0.8-0.3
		C784.2,76.1,783,76,782.5,75.6z"/>
	<path class="st0" d="M782.5,17.9c0,0.1,0.2,0.2,0.4,0.3c-0.7,0-1,0.1-1.2,0.2c2.4-0.1,3.7-0.1,6-0.2c-2.6,0,0.2-0.3,0.8-0.4
		C786.6,18,784.8,18.2,782.5,17.9z"/>
	<path class="st0" d="M793,18.2c0.7,0,1.3,0,1.6,0.1c0.4-0.3-2-0.7-1.2-0.4C794.6,18,792.8,18.1,793,18.2z"/>
	<path class="st0" d="M795.7,15.5c-0.2,0-0.5,0-0.4,0.1c1,0.1,2.3,0,4,0.1c0,0.2,0,0.3,0.8,0.3c0.4-0.7-3.9-0.2-4.5-0.7
		C795.7,15.4,795.7,15.4,795.7,15.5z"/>
	<path class="st0" d="M806.2,9.8c0.7-0.3,1.4-0.1,2-0.4c-0.7,0-1-0.1-1.2-0.2c1.3-0.1,1.3,0,2.8,0c0.1-0.2-0.5-0.2-0.4-0.4
		c1.4,0.1,2.3-0.2,3.2-0.3c-1.2,0-1.3-0.2-2.4-0.2c-1.1,0.4-2.2,0.3-4.8,0.4c0.1,0.2-0.5,0.2-0.8,0.3c1,0,1.4,0.2,2,0.3
		C806.2,9.4,805.3,9.8,806.2,9.8z"/>
	<path class="st0" d="M807.4,29.6c-0.2-0.2,3.1,0.3,2,0c-1.1-0.1-1.6-0.3-2.8-0.4c-0.1,0.2,0.6,0.2,0.8,0.3
		C807.2,29.5,807,29.6,807.4,29.6z"/>
	<path class="st0" d="M839.1,27.5c-1.7,0.4-0.6-0.4-1.2-0.4c-1.6,0.1-3.7-0.4-5.6-0.1c-0.6-0.1-0.1-0.4-0.8-0.4
		c-0.7,0.6-2.8-0.2-3.6,0.4c-2.4-0.4-7.9-0.4-10.1-0.5c0.6,0,1.3-0.1,2.2-0.2c-2.9,0-6.3-0.1-7.6,0.3c3-0.1,4,0,5.2-0.1
		c0.1,0.1-0.3,0.3-0.6,0.4c-1.3-0.3-5.1,0.4-3.6-0.1c-1.5,0-1.8,0.2-2.4,0.4c3.3-0.2,6.4,0,8.4-0.4c2.1,0.8,8.4-0.3,7.7,0.8
		c2-0.3,2.1-0.1,4.4,0c-0.1-0.2,0.1-0.4,0.8-0.4c1.6,0.2,2.7,0.3,4.4,0.2C836.9,27.7,839.8,27.9,839.1,27.5z"/>
	<path class="st0" d="M847.6,21.8c-1.3-0.6-5.8-0.8-7.7-1.5c-1.7,0-2.9-0.2-3.7-0.5c-0.7,0-1.3,0-1.6,0.1c-0.7-0.8-9.9-0.6-8.9-1.2
		c-1.5,0.2-2.6,0.4-4.8,0.4c-0.1,0.2,0.8,0.2,0.4,0.5c-1.2,0-2,0-2.4,0.2c2.5,0,2.8-0.5,4.8-0.5c-0.3,0.4,0.9,0.5,1.6,0.3
		c0.6-0.4-1.4-0.1-1.2-0.3c0.6,0,0.3-0.3,1.2-0.2c-0.8,0.6,3.4,0,4.5,0.4c0,0.2-0.2,0.3-0.8,0.4c-2.9-0.1-1.5,0.2-2.8,0.4
		c-1.3,0.1-1.1-0.3-2-0.3c-0.2,0.5-2.4,0.5-4,0.4c-3.4,0.3-6.2,1.3-9.2,1.4c3.1,0.1,5.9-0.3,7.7,0.4c-1.1,0.3-2.1-0.1-3.6,0
		c0.3,0.3-0.8,0.2-0.8,0.4c1.3-0.1,7-0.2,5.3,0.5c1.5-0.1,2.2,0.2,2.8,0c0.6-0.4-2.1,0-2-0.3c2.8-0.3,3.1-0.7,5.2-1
		c-2.8-0.2-3.9,0.5-5.2,0.3c5.4-1.3,17.5,0,24.5-0.3C844.1,22,846.4,21.7,847.6,21.8z"/>
	<path class="st0" d="M815.8,28c1.8,0,1.2,0.3,1.6,0.5c0.6-0.2,0.8-0.2,0.4-0.5C816.8,28.1,815.8,27.8,815.8,28z"/>
	<path class="st0" d="M837.9,27.9c-1.9-0.2-3.7-0.1-5.2-0.2C833,28.1,837.5,27.9,837.9,27.9z"/>
	<path class="st0" d="M832.4,23.3c2.1,0.1,6.6,1,6.9,0.2C837.7,23.2,834.9,23.3,832.4,23.3z"/>
	<path class="st0" d="M847.6,47.1c-0.5,0.4,3.3,0.6,2.4,0.5C848.8,47.5,849.2,47.1,847.6,47.1z"/>
	<path class="st0" d="M785.8,12.3c-0.5-0.8,1-1.1,3.1-1.3c-0.1,0.5,2.3,0.4,2.9,0.7c-0.2-0.4,1.4-0.3,1.2-0.5
		c0.2,0.1,0.6,0.2,1.2,0.3c-0.1-0.5,2.5-0.3,4-0.4c-0.1-0.4-0.5-0.3,0-0.6c-1.9-0.3-5.9-0.3-7.3-0.5c-3.6,0.6-8.9-0.8-13.7-0.6
		c-3.2,0.2-4.9,1.1-3.5,2.3C776.1,12.4,781.6,13,785.8,12.3z"/>
	<path class="st0" d="M870.6,44.2C876.3,44.3,872.1,43.8,870.6,44.2L870.6,44.2z"/>
	<path class="st0" d="M859.4,26.6c-1.9,0.2-4.8-0.2-6,0.2C856,27,858.2,27.2,859.4,26.6z"/>
	<path class="st0" d="M824.4,26.2c-1.5,0-1.5,0.1-2.8,0C821.4,26.6,824.3,26.3,824.4,26.2z"/>
	<path class="st0" d="M808.6,24.2c1.9-0.2,2.9,0.4,3.6,0.2C811.7,24.2,809.5,23.9,808.6,24.2z"/>
	<path class="st0" d="M806.2,24.4c0.1-0.2,1.5-0.1,1.6-0.3c-0.9,0-1.5,0-2-0.1C805.8,24.2,805.6,24.4,806.2,24.4z"/>
	<path class="st0" d="M807.5,26.8c-0.8-0.8-5-0.5-6.5-0.2C803.6,26.6,806,26.4,807.5,26.8z"/>
	<path class="st0" d="M802.5,4.6c0.3,0.1,2,0.2,1.6-0.1C803.9,4.3,798.8,4.6,802.5,4.6z"/>
	<path class="st0" d="M643.2,64.1c-1.1,0-2.8-0.1-2.8,0.2C641.3,64.2,643.5,64.5,643.2,64.1z"/>
	<path class="st0" d="M481.6,10.9c-1,0.1-2.9-0.1-3.2,0.1C479.5,11.1,481.1,11.2,481.6,10.9z"/>
	<path class="st0" d="M472,10.8c-0.9-0.3-1.6-0.1-2.4,0.1C470.1,11.3,470.8,10.9,472,10.8z"/>
	<path class="st0" d="M468.7,10.4c-0.8,0-0.9-0.1-1.6-0.1c-0.2,0.3,1,0.3,1.6,0.4C468.7,10.6,468.7,10.5,468.7,10.4z"/>
	<path class="st0" d="M460.3,11.1c-1.2,0.1-1.2-0.2-2.4-0.1c0,0.1,0,0.2,0,0.3C458.9,11,460.2,11.5,460.3,11.1z"/>
	<path class="st0" d="M456.4,12.6c-0.9-0.5,3.2-0.2,2-0.4C456.5,12.1,454.4,12.4,456.4,12.6z"/>
	<path class="st0" d="M453,10.8C452.8,10.8,452.5,10.7,453,10.8c0.3-0.1,0.8-0.1,0.8-0.2c-1.2,0-2.7,0-2.4,0.3
		C452,10.9,452.9,10.9,453,10.8z"/>
	<path class="st0" d="M448.3,12.7c0-0.1,0-0.3,0-0.4c-1,0.1-2.8,0-2.8,0.3C446.6,12.6,447.8,12.6,448.3,12.7z"/>
	<path class="st0" d="M434.1,10.6c1.4-0.1,2.7-0.3,4-0.4C436.1,10.1,434.6,10.2,434.1,10.6z"/>
	<path class="st0" d="M396.7,10.7c-1.2-0.3,1.3-0.2,1.2,0.1c0-0.1,0-0.3,0-0.4c-1.4,0-2.6,0-3.2,0.2C395.7,10.5,396.1,11,396.7,10.7
		z"/>
	<path class="st0" d="M376.1,10.5c-1.3-0.1-1.7,0.1-2.8,0.2C374.6,10.7,375.7,10.7,376.1,10.5z"/>
	<path class="st0" d="M374.5,62.7c-0.5,0.3,0.9,0.7,1.6,0.4c-0.5,0-0.9-0.1-1.2-0.2c0.2-0.2,1.9,0,2-0.2
		C376.2,62.5,375.9,62.8,374.5,62.7z"/>
	<path class="st0" d="M367.7,11.7c-0.6-0.1-3.5-0.2-4,0C364.3,11.9,367.2,11.9,367.7,11.7z"/>
	<path class="st0" d="M342.6,9.3c1.2-0.3,2.7,0.2,3.6-0.1C344.9,9.2,342.6,8.7,342.6,9.3z"/>
	<path class="st0" d="M344.3,10.3c0.8,0,0.3,0.3,1.2,0.3c-0.5-0.3,1.3-0.1,0.8-0.4C345,10.3,344.6,10,344.3,10.3z"/>
	<path class="st0" d="M342.6,8.4c0.5,0.1,1.9,0.1,2.4,0.2C345,8.2,343.4,8.2,342.6,8.4z"/>
	<path class="st0" d="M339.1,10.2c-1.3,0.1-0.6-0.3-1.6-0.3c1.1,0.5-4,0.4-2.4,0.1c-0.9,0-1.7,0.1-2,0.3
		C333.9,10.6,337.9,10.5,339.1,10.2z"/>
	<path class="st0" d="M322.6,10.9c1.4-0.1,0.5,0.4,2,0.3c0-0.1,0-0.2,0-0.3C324.4,10.8,322.7,10.7,322.6,10.9z"/>
	<path class="st0" d="M317.3,9.9c-0.9,0.2-3.4,0-3.6,0.3C315,10,317,10.5,317.3,9.9z"/>
	<path class="st0" d="M316,8c0-0.1,0-0.2,0-0.3c-0.8,0-1.6,0-2.4,0C313.2,8.1,315.7,7.8,316,8z"/>
	<path class="st0" d="M293.2,62.5c0.5,0,1,0,0.8,0.2c1.8-0.1,3.5-0.1,3.6-0.3C296.1,62.6,294.1,62.4,293.2,62.5z"/>
	<path class="st0" d="M287.7,5.9c0.7-0.1,2.7,0,3.2-0.2C289.9,5.6,287.9,5.6,287.7,5.9z"/>
	<path class="st0" d="M254.2,62.9c0.9,0,1.7-0.1,2-0.3C255.1,62.6,253.6,62.5,254.2,62.9z"/>
	<path class="st0" d="M218.4,63.6c-3,0.1-4.5,0.1-6.8,0.2c2,0.2,4.7,0.3,6.4,0C217.3,63.8,218.1,63.7,218.4,63.6z"/>
	<path class="st0" d="M214.3,62.9c0.9-0.3,2.4-0.3,3.2-0.6C215.6,62.4,214.6,62.4,214.3,62.9z"/>
	<path class="st0" d="M211.1,63.1c0.8-0.3,1.7,0.3,2.8,0c0.1-0.3-0.2-0.4-0.8-0.5c-1.1,0.1-2.1,0.3-3.6,0.3c0.4,0.4,0.1,0.2,0.4,0.6
		c-0.7,0-1.1,0.1-0.4,0.2c0.5-0.3,2.3-0.2,2.8-0.5C211.8,63.1,211.2,63.2,211.1,63.1z"/>
	<path class="st0" d="M206.3,64.2c0.9-0.1,2.3,0.2,2.8-0.2c-1.8,0.1-2.8,0-4.4,0.2C206.8,64.8,204.8,64.3,206.3,64.2z"/>
	<path class="st0" d="M202.7,5.5c-1,0.1-3.5-0.2-3.2,0.2C200.9,5.4,202.4,6.2,202.7,5.5z"/>
	<path class="st0" d="M192.2,64.2c1.3,0,4.8-0.1,4.4-0.2C194.8,64,193.2,64,192.2,64.2z"/>
	<path class="st0" d="M186.5,63.4c1,0,1.2-0.2,2,0C188.9,62.9,186.1,63,186.5,63.4z"/>
	<path class="st0" d="M184.4,61.7c-0.3-0.1-2.8-0.3-2.4,0.1C183.4,61.6,183.7,61.8,184.4,61.7z"/>
	<path class="st0" d="M172.8,3.8c-0.1-0.6-3.1-0.2-3.2,0.1C171,3.9,171.4,3.6,172.8,3.8z"/>
	<path class="st0" d="M149.2,58.4c0.5,0,0.6,0.1,0.8,0.2c1.7-0.2,2.3-0.2,3.6-0.4c-1.8-0.1-2,0-3.2-0.1
		C151,58.4,149,58.1,149.2,58.4z"/>
	<path class="st0" d="M130.5,48.3c1.4,0,2.3,0,3.2,0.1c-0.2-0.9,3.5,0.3,4-0.5c-0.9,0.1-3,0.3-2.8-0.2c1.3-0.3,4.2,0.2,4-0.3
		c-2.6,0.1-4.3,0.1-6.4-0.1c1.8,0.5-1.1,0.4,0.5,0.8C132,48.1,130,47.9,130.5,48.3z"/>
	<path class="st0" d="M127.3,4.3c0.3-0.5,2.7,0.2,2.4-0.4c-1.2,0-1.5-0.8-2.8-0.4C128.6,3.8,126.5,4.1,127.3,4.3z"/>
	<path class="st0" d="M115.8,6.1c3.6-0.1,0.3-0.4,2.4-0.6c-1.4-0.2-1,0.1-2.4,0.1C115.7,5.7,115.7,5.9,115.8,6.1z"/>
	<path class="st0" d="M109.7,6c2.9-0.1,4.1,1.1,6.1,0.6c-2.7-0.1-1.4-0.7-1.7-1c-0.9,0.1-2.3,0.2-3.2,0.3c0-0.1-0.5-0.1-0.4-0.3
		c2.7-0.1,3.3-0.7,5.6-0.9c-1.7,0-1.9-0.1-2.8,0.1c-0.4-0.2-1-0.4-2.4-0.4c-1.1,0.2-1.9,0.5-2.8,0.7C109,5.3,109.7,5.6,109.7,6z"/>
	<path class="st0" d="M108.6,7.2c2.7,0,0,0.7,2.9,0.6c0.2-0.4-1.2-0.4-0.9-0.9C109.7,6.9,109.3,7.1,108.6,7.2z"/>
	<path class="st0" d="M101.7,52.2c-2-0.1-0.9,0.5-1.6,0.7c0.8,0,0.9-0.1,1.6-0.1C101.4,52.5,100.6,52.5,101.7,52.2z"/>
	<path class="st0" d="M96.4,57.8c-0.3,0.5,1.3,0.4,2,0.2C97.2,58,97.7,57.7,96.4,57.8z"/>
	<path class="st0" d="M82.9,60.1c1-0.3-2.9-0.4-3.6-0.2c0.7,0.3,1,0.7,2.1,0.9c0.3-0.2,0.2-0.5,1.2-0.6c0.4,0.1,4.3,0.2,4-0.1
		C85.3,60,84.2,60.1,82.9,60.1z"/>
	<path class="st0" d="M79.8,49.3c-1,0-2.7-0.3-3.2-0.1c0.2,0.1,0.5,0.1,1,0.2c-0.9,0-1.2-0.1-1.3-0.3c-0.1,0.1-0.6,0.2-0.8,0.3
		c0.5,0.1,2.4,0.2,3,0C79,49.4,79.5,49.4,79.8,49.3z"/>
	<path class="st0" d="M868.5,23.3c-2,0.2-0.2,0.5-3.6,0.3C865.2,24,868.8,23.9,868.5,23.3z"/>
	<path class="st0" d="M254.2,6c-0.1,0-0.2,0.1-0.3,0.1C254.2,6.1,254.3,6.1,254.2,6z"/>
	<path class="st0" d="M174,4.6c0.1,0,0.2,0,0.4,0C174.3,4.6,174.2,4.6,174,4.6z"/>
	<path class="st0" d="M146.6,49.6C146.7,49.6,146.7,49.6,146.6,49.6C146.7,49.6,146.7,49.6,146.6,49.6L146.6,49.6z"/>
	<path class="st0" d="M253.9,6.1h0.1l0,0C253.9,6.1,253.9,6.1,253.9,6.1z"/>
	<path class="st0" d="M2.7,14.3c2.7,0.8,6.2,1.5,9.8,2.1c-0.1,0.1-0.6,0.2-0.4,0.4c1.4-0.1,2.1-0.3,3.6-0.3c0.6,0.2,1.1,0.4,2.8,0.3
		c-1.6,0.5,1.3,0.4,1.3,0.8c-1.3,0.2-1.1,0.2-0.8,0.6c-0.8,0-0.5,0.3-1.6,0.2c-3.6-0.2-7.8-0.5-12.5-0.6c1.8,0.7,5.7,0.8,8.5,1.2
		c-0.5,0.9,1,1.2,3.3,1.8c1.3,0.1,0.3-0.3,1.6-0.2c1.2,1,5.1,1.8,4.2,3c-5-0.1-4.9,1.1-10,1c-0.1,0.4-1.6,0.5-2,0.9
		c0.1,0.2,0.8,0.3,1.2,0.4c-0.3,0.3-1.2,0.4-2,0.5c-1.2,1.3,4,1,4.2,2c-3.5,0.3-8.7,0.1-11.2,0.6c1.6,0.1,2.2,0.8,0.9,1
		c2.2,0.3,2.5,1.1,4.9,1.4c4-0.5,3.7-1.7,8.3-2.1c2.7,1.6,14.5,1.3,18.2,1.6c-0.5,0-0.8-0.1-0.8-0.3c1.9-0.1,2.9,0.1,4,0.2
		c-0.3-0.4,2-0.2,2.4-0.4c-0.6-0.1-1.3-0.1-1.2-0.4c6.3,0,9.7-0.6,16.1-0.8c0.1-0.1-0.1-0.3,0.4-0.3c8.6,0.1,14.3-0.4,22.2-0.7
		c0.1-0.1-0.1-0.3,0.4-0.3c1.7,0.2,3.8,0.2,4.8,0.2c-0.3,0-0.5-0.1-0.4-0.2c6.2,0.1,14.4-0.4,15.8,1c-0.6-0.1-1-0.1-1.2,0.1
		c1.2,0.1,3.2,0.5,2.1,0.9c2.1-0.1,3.4,0.5,2.5,0.8c0.1,0.1,0.6,0.2,0.4,0.4c1.3,0.1,0.8,0.1,1.6-0.1c0,0.1,0.2,0.2,0.4,0.3
		c-0.6,0-1.4,0-1.2,0.2c2.7-0.1,0.6,0.4,1.7,0.7c1.5-0.1,1-0.6,3.2-0.5c-0.9,0.2,0.2,0.4,0,0.7c-0.2,0-1.6-0.2-1.6,0
		c1,0,0.7,0.4,1.2,0.5c0.7,0,1.3,0,1.6-0.1c-1.4,0.4,2.1,0,1.2,0.5c-2.7-0.3-4.9-0.1-7.6,0.1c-1.1-0.7-5.8-0.4-6.9-1.1
		c0.5-0.1,0.9-0.1,1.2-0.2c-0.9-0.1-1-0.3-1.6-0.5c-4.4,0.1-5-1.5-9.8-1.6c-0.1,0.5-2.1,0.6-4,0.4c0,0.5-1.3,0.4-2.8,0.3
		c0.9,0.9-3.4,1.1-1.9,1.8c-0.5-0.1-1.5-0.1-1.6,0.1c0.3,0.2,2,0,1.6,0.3c-0.1,0.3-1,0.3-1.6,0.3c0.3,1.1,4.9,1,6.5,1.7
		c-6.3,0.6-9.4-0.9-14.5-0.5c0-0.1,0-0.3,0-0.4c-4.9-0.3-4.7,1.3-8.8,1.1c-2.1,0.6-4.8,1.1-8.4,1.3c0.4,0.1-2.5,0.3-2.8,0.6
		c-6.7,0,0,1.9-1,2.5c1.3,0.4,3.1,0.6,3.7,1.2c-1.5,0-1.2,0.2-0.4,0.3c-0.5,0-1.1,0-1.6,0c0.1,0.6-1.3,0.7,0.5,1
		c3.9-0.3,7.6,0.1,9.3,1c-0.6,0-0.3,0.3-1.2,0.2c-0.3,0.5,2,0.2,2.1,0.6c-2.8-0.1-3.1-0.9-5.7-1.1c0.3,0.3-0.6,0.3-0.4,0.5
		c0.8,0,0.9-0.1,1.6-0.1c-0.8,0.2,0.8,0.3,0.8,0.6c1.7,0,1.5,0.2,3.2,0.3c0.2-0.2,2.3-0.3,2.8-0.1c-2.5,0,0.7,0.3-1.2,0.4
		c3.5,0.1,4.5,0.4,6.5,0.4c-1.3,0.1-2.3,0.4-2.4,0.8c1.1-0.1,0.8,0.2,1.2,0.3c5.2,0.2,7.3,1.2,13.4,1.4c-1.6,0.6-5.3,0.2-9.2,0.4
		c-0.6,0.3-1.7,0.5-1.5,1c4.3-0.1,9.8,0.7,14.5,0c2.7,0.6,9-0.4,13.7-0.2c1.8,0.1,6.2,0,7.2-0.6c5.7,0,11.7-0.3,18.9-0.4
		c0.5,0.3-1.2,0.4,0.4,0.4c2-0.5,6.8-0.2,8.8-0.5c-6.8-0.1-12.9-0.3-19.7-0.2c-0.1-0.1-0.7-0.2-0.8-0.3c4.3,0.2,10-1.3,9.2-0.5
		c0.4-0.1,2.1,0.3,3.6,0.2c0.9-0.9,4.2,0,6.8-0.1c-0.1-0.3,1.6-0.1,1.2-0.4c-0.1-0.3-1.6-0.3-1.6-0.6c2.4-0.7,5.1-0.2,8.8-0.3
		c0.2,0.1,0.5,0.2,0,0.3c1-0.1,3.8-0.3,3.6,0.2c-2,0.2-0.7,0-2-0.1c-0.8,0.4,0.1,0.6,1.2,0.7c-1.2,0.2-1.1,0.7-2.8,0.8
		c0.8,0,1.4,0.1,1.6,0.2c-0.3,0.2-1.5,0.2-1.6,0.5c1.5-0.1,3.4-0.1,5.2,0.2c-0.1-0.5,2.5-0.4,3.2-0.3c-0.5,0.3-1.6,0.3-2.8,0.2
		c0.8,0.5-1.6,0.1-1.2,0.5c1.6,0.1,5.9-1.1,8-0.2c-3.6-0.2-4.3,0.4-6.4,0.6c-0.5,0.6,0.1,0.8,1.3,1c0-0.1,0-0.2,0-0.3
		c0.8,0,1.1,0.1,1.6,0.1c-0.2,0.1-0.5,0.2,0,0.2c-0.1,0.3-0.7-0.1-1.5,0c0.7,0.1,1.5,0.1,2.4,0.2c-0.7,0.3-1.6,0.5-3.5,0.5
		c0.1-0.1,0.6-0.2,0.8-0.3c-2.1,0.1-4.4,0.3-4.8,0.5c-1.9-0.2-1.5,0-2.8,0.1c-2.1,0.1-5.4-0.2-6.4,0.3h0.1c-1-0.1-2.3-0.3-3.1-0.1
		c-0.2-0.1-0.5-0.2,0-0.3c-3,0.6-5.2-0.6-8.9-0.3c1.7,0.1-1.5,0.6,1.6,0.5c0.5-0.2-1.1-0.4,0-0.4c-0.1,0.6,3.3,0.5,4.5,1
		c2.1-0.5,4.3-0.1,7.1,0c-0.1,0-0.1,0.1-0.2,0.1c0.2,0.1,0.6,0.1,1,0.1c0.4,0.2,1,0.5,1.7,0.3c-1.1,0-0.6-0.1-0.1-0.3
		c1.3,0,2.6,0,2.7,0.3c-0.8,0-1.6,0-2.4,0c0,0.3,2.1,0.3,0.8,0.6c0.6-0.1,2.1,0.1,2-0.1c-0.9,0-1.3-0.1-1.2-0.3c0.6,0,1.7,0,2.7,0
		c0.4,0.1,0.5,0.1,0.4,0.2c-3.3,0.3-8.2,0.3-10.9,0.3c-0.3,0.2-0.5,0.4-1.2,0.5c1.9,0,3.7,0,1.6-0.2c1.5,0,1.8,0.2,2.4,0.4
		c-2.9,0.5-2.3-0.1-4.8,0c1.4,0.1,2,0.2,0.8,0.5c3.6,0.2,8.3,0.3,10.9,0.2c0.9,0.5,3.7,0.3,5.9,0.3c0,0.1-0.1,0.2-0.4,0.3
		c0.7,0,1.1-0.1,1.5-0.2c0.9,0.1,1.6,0.2,1.8,0.5c1.6,0,0.6-0.6,2.4-0.5c1.3,0.1,2.3,0.4,3.7,0.5c0.7-0.2,1.8-0.2,2.7-0.1l0,0
		c0.3,0,0.5,0.1,0.4,0.2c0.3,0,0.5,0,0.7,0c0.1,0,0.2,0.1,0.2,0.1c-0.5,0-0.4,0.1-0.7,0.2c-0.2,0-0.3-0.1-0.3-0.2
		c-0.6,0-1.3,0-1.8,0c-1.8-0.1-4.2,0-5.3,0.2c1.4,0,3.1,0.1,4.7,0.1l0,0l0,0c1.6,0,3.2,0,4.5-0.1c-0.5,0-1.1,0-1.2-0.1
		c1.2,0,1.2-0.2,2.4-0.2c0.2,0.2-0.7,0.3-0.1,0.3c-0.3,0-0.6,0-0.8,0c0.5,0,0.4,0.2,0.4,0.3c-3,0-4,0-5.6,0.2c0-0.1,0.3-0.1,0.4-0.2
		c-4.5,0.1-8.4,0.2-11.3,0c-0.4,0.1-0.6,0.3-1.2,0.4c-1-0.3-1.3-0.1-2,0.1c-0.8-0.2-0.5-0.6-1.6-0.4c1.4,0.3-1.6,0.3-2.4,0.4
		c0-0.2-1.1-0.1-0.8-0.4c-0.1-0.2,1.2-0.1,1.2-0.3c-2.7,0-2.6,0.3-2.8,0.8c1,0.2,2.6,0.2,3.6,0.3c0.7-0.6,5.1-0.2,6,0
		c-0.5,0-0.4,0.2-0.8,0.2c-0.1-0.1,0.1-0.3-0.4-0.3c-2.3,0.6-4.8,0.3-8,0.2c1,0.4-0.7,0.3-0.8,0.7c3.2,0,6.4-0.1,9.3,0
		c-1.3-0.2,1.2-0.3,1.6-0.4c0.8,0.1,3.1,0.4,3.6,0.3c-0.5,0-0.4-0.2-0.4-0.3c1.7,0.4,4.2,0.2,6.5,0.4c-2.5,0-1.3,0.2-3.2,0.3
		c1.8,0.1,2.8,0.3,4-0.1c0,0.1,0,0.2,0,0.3c3.8-0.3,9.7,0.3,14.5-0.1c0.1,0.1,0,0.3,0.4,0.3c4.2-0.4,10.4,0.3,12.5-0.1
		c0.2,0.4-1.8,0.5-2.8,0.3c0.3,0.7,2.6,0.2,3.6,0.1c-0.1,0,0.1,0.2,0,0.2c1.6-0.1,2.3-0.6,4-0.6c2.2-0.1,2.8,0.5,5.7,0.3
		c-0.9-0.5,3,0,4-0.3c-4.3,0,4.8-0.5,4.8,0.2c-1.3,0-1.5,0.2-2.4,0.3c2.2,0,1.2,0.1,1.6,0.5c1.8-0.1,2,0.2,3.2,0.2
		c-0.2-0.3-1.8-0.3-2.4-0.5c0.6,0,0.9-0.1,1.2-0.1c0.9,0.1,1.6,0.6,2.4,0.2c0,0.2,0.1,0.3,0.4,0.4c-6.5,0.3-8.8,0.4-14.9,0.1
		c-3.6,0.3-7.5-0.3-11.3,0.2c-0.1-0.2-1.3-0.1-1.2-0.3c-5,0.3-10.4-0.7-14.5,0.1c1.1,0,2.8-0.1,2.8,0.2c-1.3,0-6.9,0.3-5.7-0.4
		c-1,0.1-1.8,0.2-3.2,0.1c-0.6,0.4,2.1,0,2,0.3c-1.8,0.1-5.9,0.3-7.3-0.3c-7.3,0-12.9,0.2-17.7-0.3c-0.2,0.5-0.8-0.2-1.6-0.2
		c-1,0.1,0.4,0.5-0.4,0.5c-0.4,0-0.5,0.1-0.8,0.1c-1.5,0.1-1.4-0.2-2.4-0.3c-0.5,0.3-2.5,0.2-4,0.2c-0.4-0.8-3.2-0.3-4.8-0.3
		c-6.6-0.1-15.3-0.4-20.6-0.3c4.1,0.3,5.5,0,8.9,0.5c4.8-0.4,10.9,0.1,16.1,0c0,0.3,0.7,0.3,0.8,0.5c-0.5,0.2-1.5,0.2-2,0.3
		c1.6,0.2,5.8-0.4,8.5,0.2c0.2-0.3,1.5-0.2,2.4-0.1c1.3-0.7,7.3-0.7,9.6-0.5c-0.1,0.2-3.7,0-2.4,0.2c1.2,0,2.5,0,2.4,0.3
		c-0.7,0.1-2.4-0.1-2.4,0.1c1.3,0.1,3.9-0.1,3.3,0.6c1.7,0.1-0.6-0.4,1.2-0.4c0.1,0.1,0.3,0.1,0.8,0.1c0.5,0.5-0.7,0.5-1.2,0.7
		c1.8,0.3,1.9-0.2,2-0.3c1.3,0.3-1,0.4,0,0.6c1.7,0.2,3.6,0.2,4.4,0.2c-0.5,0-0.6-0.1-0.8-0.2c0.7,0.1,1.7-0.3,2,0
		c-0.5,0-1.1,0-1.2,0.1c2.3,0.3,5.9,0,7.3,0.5c1-0.1-0.7-0.3,0.4-0.4c2.3-0.2,2.1,0.3,3.6,0.4c0.2-0.1-0.5-0.5,0.4-0.5
		c1.4,0,3.9-0.2,3.6,0.3c-0.4,0.1-3.1,0.1-2,0.2c2.3-0.2,3.8,0,4.8-0.4c1.6,0.1-0.3,0.5,1.2,0.6c0.6-0.1,0-0.4,0.8-0.4
		c0.5,0.2,4.8,0.6,2.8,0.2c1.7,0.1,2,0.1,4.4,0.1c0.1-0.1-0.2-0.4,0.4-0.4c6.8,0.3,12.6-0.1,18.5,0.1c0.1-0.2-0.6-0.3,0-0.3
		c2.3,0.2,4.1,0.3,5.6-0.1c0,0.1-0.2,0.2-0.4,0.3c1.6-0.2,3.8,0,5.2,0.2c-1.1,0.4-3.2,0.1-3.6,0.7c2.8-0.1,4-0.9,7.2-0.7
		c0.5-0.2-1.1-0.4,0-0.4c1.2,0.1,1.6,0.1,2.4-0.1c0,0.3,1.2,0.4,2,0.5c3.2-0.4,6.3,0.3,9.2-0.3c6.4,0.3,15.8,0.1,20.9-0.3
		c0.4,0.2,2.3,0.1,2,0.5c2.3-0.4,3.6,0.2,5.2-0.2c-0.5,0-1,0-0.8-0.2c1-0.1,1.1-0.1,2.8-0.1c0.1,0.2,0,0.3,0.8,0.3
		c1.3-0.7,4.5,0,6.4,0.1c0.1-0.2-0.6-0.2-0.8-0.3c1.6-0.1,4.5-0.1,4.9,0.4c-1,0.1-1.4-0.4-2-0.1c0.6,0,0.5,0.2,0.8,0.3
		c4.3-0.6,10.4-0.4,13.3-0.4c1,0,1.5-0.3,2-0.3c1.3,0,2.3,0.5,4.4,0.3c-0.4,0,0.6,0,1.6,0c0.4,0,4.6-0.2,5.6,0.2
		c0.2,0.3-3.1,0.2-2,0.3c1.4,0,1.9-0.2,3.2,0c-0.3-0.5,2.1-0.4,2.8-0.2c-1.3,0.2-3.1,0.2-3.6,0.5c2.5-0.2,7.1-0.6,6.9,0.3
		c0-0.1,0.7-0.1,0.8,0c-1.6,0.3-1,0.5-2.4,0.7c5.1-0.9,9.4,0.5,14-0.8c0.1,0.2-0.4,0.2-0.4,0.4c1.3,0,1.1-0.3,2.8-0.2
		c-0.1,0.2,0.5,0.2,0.4,0.4c1,0,2.2-0.1,2.8-0.2c-1.8,0.1-2.6-0.2-2.9-0.5c2.7,0.1,4-0.3,6.5,0.2c-1.6-0.1-1.2,0.3-2.8,0.2
		c0.4,0.2,0.2,0.6,1.6,0.6c0.1-0.1-0.2-0.4,0.4-0.4c-0.2,0.5,5,0.6,7.3,0.6c0.4-0.4-1-0.3-0.8-0.6c0.1,0,0.3,0.1,0.6,0.1v0.1
		c0.7,0,1,0,1.4,0.1c-0.2,0.1,0,0.2,0.1,0.4c1.3,0.1,0.5-0.3,1.6-0.3c0,0.4,2.1,0.2,2.4,0.5c1.7-0.3,2.3-0.1,2,0.2
		c1.5-0.3,2.1-0.2,3.2-0.5c0.7,0.2,0,0.1,0,0.4c1.7-0.1,1.5-0.1,2.8,0.1c0.6-0.1,1-0.3,1.6-0.4c0.7,0.2,1.6,0.1,0.4,0.3
		c4.4,0.2,5.9-1,8-0.7c0.1-0.4,0.7-0.5,1.4-0.5c0.6,0.3,3,0.4,5.2,0.4c-0.1,0-0.1,0.1-0.2,0.1c0.9-0.2,2.2,0,2.4-0.1
		c-0.1,0-0.3,0-0.4,0c0.6,0,1.1-0.1,1.6-0.1l0,0c2.2-0.4,4.9-0.3,7-0.3c-0.3,0.1-0.9,0.2-0.8,0.2c0.8,0.2,2-0.1,3.2,0.3
		c0.1-0.2-0.5-0.2-0.4-0.4c0.8,0,0.8,0.3,1.6,0.3c1.2-0.2,2.5-0.4,3.9-0.4c0.2,0,0.3,0,0.2,0c0.3,0,0.6,0,0.9,0
		c0.8,0.1,1.3,0.2,2,0.1c-0.3,0-0.5,0-0.6-0.1c0.1,0,0.3,0,0.4,0c0.1,0.1,0.5,0.1,1,0.1c0.1,0,0.2-0.1,0.3-0.1
		c4.3,0,8.8,0.2,12.7-0.2l0,0c0.1,0.1,0.2,0.1,0.3,0.2c-3.2-0.4-5.3,0.9-7.2,0.1c0,0.6-1.4,0.2-3.2,0.4c0.5,0.3-0.6,0.2-0.8,0.4
		c1.9,0.1,1.1-0.1,1.6-0.2c0.4,0.1,1.5,0,1.2,0.3c-0.5,0-1.1,0-1.2,0.1c1.7-0.1,2.5,0,2.8,0.3c2.1-0.2,3.6,0,8-0.1
		c0.7-0.2-0.6-0.3,0.8-0.4c5.3,0.4,10-0.5,14.1-0.3c0.5-0.2,0.1-0.3,0.1-0.5c0.5,0,1,0,1.5,0c0.3,0.1,0.1,0.3-0.1,0.5
		c3.7-0.4,6.1,0.2,10.1,0.1c1.6-0.9,7.2-0.1,9.6-0.7c-0.3,0-0.5,0-0.8,0.1c0.4-0.1,0.8-0.1,1.2-0.2v0.1c0.5-0.1,0.9-0.1,1.4-0.1
		c0.4,0.1,1,0.1,1.7,0.1c0.5,0,0.9,0.1,1.2,0c0.3,0,0.6,0,0.9,0c1.2,0.4,5,0.4,7.3,0.2c-0.4,0,0.6,0.1,1.6,0.1
		c5.3-0.1,11.9,0,16.9-0.5c0.1,0.2,0,0.4,0.8,0.3c0-0.3,0-0.5,1.2-0.5c0.3,0.2-1.1,0.3,0.4,0.3c0.4-0.2,1.2-0.3,2-0.1
		c0.9-0.1-0.5-0.2,0.4-0.3c0.8,0,1.3,0.1,1.6,0.2c0,0.2-1,0.1-0.8,0.3c1.5-0.2,1.8-0.1,3.6-0.3c0-0.2-0.5-0.2-0.9-0.2
		c0.4-0.2,1.3-0.2,1.8-0.3c0,0.1,0.1,0.1,0.2,0.1c-0.2,0.1,0,0.2,0.4,0.3c0,0-0.1,0-0.1,0.1c0.1,0,0.2,0,0.3,0c1,0.2,3,0.4,4,0.5
		c-0.8,0-0.5,0.3-1.6,0.2c-1.7-0.2-4-0.2-5.2,0.2c-0.8-0.1-0.9-0.2-0.4-0.3c-4.7,0.3-8.2,0.1-12.4,0.7c1-0.4-4-0.2-2.8,0.1
		c-5.5-0.3-14-0.1-18.9,0.6c2-0.2,5.6,0.2,7.2-0.2c-0.9,0.4,1.8,0.1,2-0.1c0,0.1,0,0.2,0,0.3c17.3-0.1,36.5-0.4,51.5-0.3
		c1.6-0.4,7.2,0.1,8.8-0.6c2.2,0.2,3,0.3,5.2,0.1c-0.9,0.6,2.5,0,2,0.5c1.8-0.2,4,0.3,4.8-0.1c-2.5-0.1-4.1,0.2-4.8-0.3
		c2.4,0.1,4.9-0.2,6.5,0.3c1.8-0.1,5.3-0.5,6.8-0.1c0.2-0.5,2.2,0.1,3.2-0.2c0.1-0.2-0.6-0.3,0-0.3c1.6-0.2,3.5,0.2,4.8,0
		c-0.5,0-1,0-0.8-0.2c1.2-0.1,1.2,0.2,2.4,0.1c0.1-0.3-1.8-0.2-2.4-0.3c-0.8,0.3-5.4,0.4-6,0.1c1.4-0.2,1.8-0.4,3.2-0.1
		c0.3-0.3-0.8-0.2-0.8-0.4c-1.3,0-1.4,0.3-2.8,0.3c0.2-0.3,1.1-0.4,1.6-0.6c-1.5,0-1.1,0.4-2.4,0.4c-0.3-0.1,0.4-0.2,0.4-0.3
		c1-0.1,2-0.2,2.9-0.2c0.4,0.1,0.7,0.3,1.2,0.4c1.8-0.4,3.3-0.2,4.9,0c-0.6,0-1.2,0-1.8,0c-0.6,0.3,2.4,0.3,2.1,0
		c0.9,0.1,1.8,0.2,2.9,0.1c0.1,0.3-1.6,0.1-1.2,0.4c4.1-0.8,11.1-0.2,16.9-0.5c0.1,0.3-2.3-0.1-1.6,0.3c4.2-0.3,12,0,17.3-0.3
		c-1.2,0.3,1.5,0.1,1.6,0.4c-3.5,0.7-7.3,0.1-12,0.7c0.2,0.1-0.4,0.5,0.4,0.5c1.2-0.9,6.3-0.4,9.6-0.7c0.2,0.2,1.3,0.1,0.8,0.4
		c0.4-0.1,0.8-0.1,1.2-0.2c0,0.1,0.1,0.1,0.2,0.2c0.4,0,0.8,0,1.2,0c0.1-0.1-0.2-0.2-0.4-0.3c0.5,0,1-0.1,1.6-0.1
		c0.2,0.2,0.2,0.2,0,0.5c2.5-0.3,6.2-0.1,7.1,0.3c0,0,0.1,0,0.1,0.1l0,0c0,0-0.1,0-0.1-0.1c-0.3,0-0.7,0.6-1.7,0.3
		c0.1,0,0.3-0.1,0.4-0.1c-0.5,0.1-1.1,0.2-1.8,0.2c-0.3-0.1-0.5-0.1-0.7-0.2c-0.9,0-1.7,0.1-2.4,0.2c0-0.1,0-0.1-0.1-0.2
		c1.1,0,2.5,0,3-0.1c-1.9,0-3.2-0.1-4.4,0c0.3,0,0.5,0.1,0.4,0.2c0.2,0,0.4-0.1,0.7-0.1c-0.1,0.3-1.2,0.2-2.1,0.1
		c0.3,0,0.5-0.1,0.6-0.2c-1.7,0.2-1.5-0.2-2.4,0c0.5,0,0.3,0.1,0,0.2c0.5,0,0.9,0,1.4,0c0.4,0.1,1,0.2,1.5,0.2c-0.2,0-0.3,0-0.5,0.1
		c0.3,0,0.6,0,0.9,0c0.6,0.1,1.1,0.2,1.4,0.3c0.3-0.3,0.7-0.1,2-0.1c0.1,0.1,0,0.2,0.3,0.3c-0.5,0.1-1,0.3-0.9,0.4
		c0.5,0.1,1.5,0.1,1.6-0.1c-0.5,0-1,0-0.8-0.2c0.3,0,0.5,0,0.8,0c0-0.1,0-0.1,0-0.1c0.6,0,1.6,0.1,2.3-0.1c-0.8-0.1-0.9-0.2-0.4-0.3
		c2,0.1,4.3-0.2,6.5,0.3c0.2-0.6,1.7-0.3,3.2-0.2c0.1-0.1-0.1-0.4,0.3-0.4c0.1,0,0.2,0,0.3,0c0.5,0.1,0.6,0.2,0.8,0.3
		c-2.3,0.1-3.8,0.4-6.1,0.4c1.9,0.3,3,0.1,4.8,0.2c0,0.1-0.2,0.2-0.4,0.3c5.8,0,9.7-0.1,14.1,0.5c0.1-0.1-0.1-0.3,0.4-0.3
		c2.6,0.4,7.4,0.2,10.1,0.2c-0.5,0-1,0-0.8-0.2c1.8,0,3.9-0.1,4,0.3c0.9,0,0.4-0.4,1.6-0.4c1.3,0.2,1.8,0.6,3.3,0.8
		c-1.3-0.4,5.4-0.6,3.6,0.1c2.5,0.1,3.9-0.2,5.7,0.3c0.7-0.2,1.3-0.4,2.4-0.5c-0.2-0.5,0-0.7,0.1-1c1.5-0.1,3-0.1,3.3-0.4
		c-1,0.2-2.6,0.1-3.1-0.1c0-0.1,0-0.2,0-0.4c-2.1,0.2-3.7,0.3-4.4-0.3c-0.4,0.3-3.7,0.3-4.4,0c-2.7,0.6-6.5-0.2-10.9-0.1
		c0.2-0.5-1.3-0.1-2-0.5c1.5,0,2.7-0.1,4-0.2c-0.6,0.3,0.1,0.4,0.8,0.6c0.5-0.3,2.6-0.2,3.2,0c0.5-0.4-1.7-0.2-2-0.4
		c1.5-0.2,3.4-0.2,4.8-0.4c0.8,0.6,3.8,0.5,5.7,0.3c0.8,0.2,0.8,0.3,0,0.5c3.7-0.5,8.3-0.3,10.9,0.1c1-0.7,4.3,0.2,5.6,0
		c-0.6-0.1-1-0.2-1.2-0.3c1.2,0.1,1.2-0.2,2.4-0.1c-0.1,0.4,1.5,0.4,2.4,0.5c0.4-0.2-1.2-0.3,0-0.4c3.4,0.1,4.7,0.2,7.2-0.1
		c0.4,0.3,0,0.6,2.5,0.6c0-0.2,0.1-0.3,0.4-0.4l0,0c1.3,0.1,2.4,0.2,3.7-0.1l0,0l0,0c0.1,0,0.3-0.1,0.4-0.1c0.6,0.1,1.6,0.1,1.2,0.4
		c-0.8,0-0.3-0.4-1.6-0.3l0,0c0.5,0.5-1.5,0.5-2.8,0.5c2.6,0,4.2,1.1,5.3,0.4c4,0.2,6.7,0.6,10.9,1c-0.1,0.1-0.6,0.2-0.8,0.3
		c2.1,0.2,3.4-0.5,3.6,0.1c-2,0-4.3-0.1-5.2,0.2c0.8,0,1.3,0.1,1.6,0.2c-1.8-0.2-0.4,0.4-3.6,0.2c0.3,0.4-1.2,0.3-1.2,0.6
		c1,0.2,2.7,0.1,3.2,0.4c-3.1,0.3-5,0.2-6.9-0.2c0.6-0.1,2.1,0.1,2-0.1c-2.2,0.1,1.4-0.4-0.8-0.3c-1.2,0.4-2.6,0.4-4,0.6
		c0.8-0.4-1.8,0.3-2.4-0.3c-0.7,0.1-0.8,0.3-1.6,0.4c-3.2-0.6-9.3-0.5-12.5-0.7c0.6,0.1,1.8,0.1,1.6,0.4c-0.4,0-0.5,0.1-0.8,0.1
		c-1.3-0.4-3.9,0.1-4.5-0.5c-2.1,0-2,0.1-3.2-0.1c-0.3,0.2,0.2,0.5-2,0.4c0.1-0.2,1.1-0.2,1.2-0.4c-3.2,0-8.9,0.4-10.9-0.2
		c-5.1,1.6-13.5-0.6-17.7,0.6c0-0.1-0.7-0.1-0.8-0.2c1,0.1,1.4,0,1.2-0.3c-2,0-2,0-4.8-0.2c0.6,0.6,3.8,0.5,4.9,0.9
		c-0.9,0.2-2.9,0.1-4.4,0.1c2-0.9,5.6-0.9,6.7-0.9c0.1,0,0.2-0.3,0.8-0.3s1.1,0.3,1.6,0.3c2.7,0.1,6.6-0.4,8.1,0.2
		c-1.4-0.1-2.1,0.1-2.4,0.3c6.7-0.2,10.9,0,18.5-0.1c0,0.1-0.3,0.1-0.4,0.2c2.6-0.2,5.5,0.1,8.4-0.3c-0.1,0.1-0.7,0.2-0.8,0.3
		c1.7-0.1,3-0.3,4.4-0.4c-0.8,0.2,1.4,0.3,1.6,0.6c-0.1-0.2,0.3-0.3,1.2-0.3c0.9,0.1-0.5,0.2,0.4,0.3c2.1-0.1,4.4-0.2,6-0.4
		c0,0.2-2,0.3-0.8,0.5c2.5-0.5,9.3,0.2,11.7,0.3c-1.2-0.1,1.2-0.3,1.6-0.1c0.5-0.3-1.6-0.3-0.4-0.4c0.6,0.4,3.2,0.1,3.6,0.3
		c0.6,0.4-1.4,0.1-1.2,0.3c1.6,0.2,3.5,0.4,5.7,0.5c-3.8,0.5-11.2-0.3-16.5,0.5c0.4,0.2,1.8-0.1,2.4-0.1c0.3,0.7,1.4,0.1,2.4,0.3
		c-1,0.8-4.3,0-6,0.2c0.5,0,1,0,0.8,0.2c-0.4,0-0.5,0.1-0.8,0.1c-2.5-0.1-7-0.4-7.2,0.1c-2,0-3.5-0.7-5.3-0.5c2.1,0.2,4,0.4,4.9,0.9
		c0,0.1-2.9,0.1-1.6,0.2c2.9-0.3,4-0.3,6.8-0.3c-0.3-0.2-2,0-1.6-0.3c1.2,0,3.1-0.1,3.2,0.2c-1.2,0.2,0.6,0.5,0.8,0.3
		c-1.1-0.1,0.3-0.4,0.8-0.4c0.1,0.1,1,0.1,1.6,0.1c0,0.2,0.1,0.3,0.4,0.4c1.2,0,1.9-0.1,2.8-0.2c5.1,0.5,12.3-0.6,17.2-0.3
		c1-0.3,3,0,2.9-0.3c0.5,0.1,2.7,0.3,2.8,0.1c-0.3-0.2-1.9,0-2-0.2c0.1-0.1,0.4-0.2,0.8-0.2c1.1,0.3,1.2,0.1,2.4,0
		c0.4,0.1,0.8,0.2,1.2,0.3c2.5-0.2,3.6-0.1,6-0.2c0,0.1-0.2,0.2-0.4,0.3c1.1-0.1,2-0.1,2.8,0.1c-1.2,0.1-2,0.3-2.8,0.5
		c1.8-0.2,4.6-0.1,5.2-0.5c-0.7-0.1-1.7,0.3-2,0c1.2-0.1,2.3-0.2,3.2-0.4c0,0.2,0.4,0.2,1.2,0.2c-0.9,0.3,0.5,0.6,1.3,0.7
		c0.2-0.4-0.9-0.4-0.9-0.7c1.9,0.1,0.4-0.2,1.2-0.2c2.1-0.1,2.3,0.4,4,0.4c-0.5,0.3-2.1,0.4-2.8,0.6c2.3,0.1,2.5-0.4,4.4-0.4
		c0,0.3-0.7,0.3,0.4,0.4c2.5-0.6,7.7-0.4,10.8-0.5c-0.6-0.2-1.2,0.2-1.6-0.1c0.1-0.1,0.9-0.1,1.2-0.2c0.2,0.2,1.6,0.2,1.2,0.6
		c2.2-0.4,4.7-0.1,7.6-0.2c0.4,0.1,1,0.7,2,0.4c-0.5,0-1,0-0.8-0.2c1.7-0.1,2.9-0.1,5.6-0.1c0.3,0.7,3.6,0.6,5.3,1
		c0.9-0.1-0.5-0.2,0.4-0.3c4.2,0.5,6.7,0.4,12.1,0.7c-2.6,0.2,2.5,0.1,0.8,0.4c1.6-0.2,4.4-0.4,5.7-0.3c-0.3-0.1-0.2-0.4,0.3-0.4
		c0.8,0.2,0.1,0.4,1.6,0.2c-0.2,0.4,0.2,0.6,1.2,0.6c0.6-0.1,0-0.4,0.8-0.4c1.3,0.2,1.6,0.1,2.4,0.2c-0.6,0.1-1,0.2-1.2,0.3
		c1.3-0.1,0.7,0.2,0.4,0.3c1.2,0.1,2.5,0.2,3.2,0.4c0-0.5-1.1-0.7-0.1-1.1c-1.3,0-1.1-0.5-1.6-0.7c5.9-0.1,13.8,0.3,19,1
		c-0.8,0.3-0.7,0.6,0.5,0.9c2.3-1.9,10.1,0.3,15.3-0.6c0.5-0.6-0.4-0.6-0.5-1.2c3.2,0.1,3.9-0.5,5.2-0.8c2.4-0.2,3.4-0.1,6-0.2
		c0.1,0.1,0.1,0.2,0.8,0.2c1.1-0.1-1.1-0.2-0.4-0.5c2.7-0.1,3.4-1,6-0.8c-0.8-0.5,0-0.9,0.3-1.1c0,0.1,1.1,0.1,1.2,0
		c-0.6,0,0-0.1,0.8-0.1c-0.9,0.2,2.1,0.8,2.4,0.3c-1.4-0.2-4-0.4-2.9-0.9c-1.4,0.1-2.1-0.1-2.4-0.3c0.5-0.2,1-0.3,1.6-0.4
		c-0.4-0.2-1.1-0.3-1.6-0.5c1.8-0.3,6.4-0.6,8.5,0.1c1.6-0.1,3.3-1,4.8-0.3c-0.6,0-1.8,0.2-2.4,0.5c1.6,0,3.6-0.6,4.8-0.1
		c-3.3,0.7-8.5,1.1-13.2,0.9c3,0.5,8.5,0.1,12.5-0.4c1.7,0.2,5.5,0.1,7.6-0.2c0.9,0.1,1.1,0.3,2,0.4c3,0,9.9-1,9.7,0.2
		c1.4,0.2,0.2-0.3,1.2-0.3c0.7,0.1,1.4,0.2,1.2,0.5c-3.9,0.9-9.4,1.4-13.5,2.3c1.1,0.3,2.8,0.4,2.9,0.9c8.9,0,12.1-2.4,21.2-2.4
		c-1.4-0.9,2.4-1.4,0.3-2.2c0.7,0,1.3,0,1.6-0.1c-0.5-0.8-1.2-1.4,0.7-1.9c0-0.2-1.1-0.1-1.2-0.2c1.4,0,1.1-0.4,1.6-0.6
		c-0.3-0.1-1.5,0-1.6-0.2c-1.8-2.2-4.3-3.3-8-5.7c-3.2-0.5-4.6-1.4-7.8-1.9c1-0.4-2-0.9-0.9-1.3c-0.9,0-1.5,0-1.6-0.2
		c0.9,0,1.5,0,1.6-0.2c-2,0.1-0.8-0.5-0.8-0.5c-1.2-0.8-4.5-1.4-5.4-2.3c4.3-0.4,8.5,0.9,12.1,0.4c1.4,0.3,3.8,0.3,4.1,0.9
		c-1.3,0-2.4,0.1-2.4,0.4c2.8,0.4,5.7,0.7,9.7,0.8c0.6,0.9,5.9,0.6,8.9,0.9c0,0.2-1.1,0.1-0.8,0.4c4.3-0.2,9.7,0,14.1,0.3
		c1.7,1.2,10.7,0.9,11,2.1c1.9,0.1,4,0.2,4.9,0.6c-0.5,0.5-2,0.8-1.5,1.5c1.1,0.5,4.4,0.5,6.1,0.9c0.1-0.4,2.5-0.7,4-0.4
		c-0.3,0.2-1.2,0.2-1.6,0.4c1.6,0.6,1.3,1.1,2.5,1.7c1.3,0,3.4-0.2,3.6,0.3c-0.7,0.1-1.7-0.3-2,0c1.3,0,1.2,0.4,2.4,0.4
		c0-0.7,1.6,0,2.4,0c1.1-0.2-0.2-0.5,0.8-0.8c5-0.1,8.7,1.8,12.1,0.9c-0.5-0.1-1.8-0.1-2.8-0.1c-2.7-0.8-6.2-1.5-9.8-2.1
		c0.1-0.1,0.6-0.2,0.4-0.4c-1.4,0.1-2.1,0.3-3.6,0.3c-0.6-0.2-1.1-0.4-2.8-0.3c1.6-0.5-1.3-0.4-1.3-0.8c1.3-0.2,1.1-0.2,0.8-0.6
		c0.8,0,0.5-0.3,1.6-0.2c3.6,0.2,7.8,0.5,12.5,0.6c-1.8-0.7-5.7-0.8-8.5-1.2c0.5-0.9-1-1.2-3.3-1.8c-1.3-0.1-0.3,0.3-1.6,0.2
		c-1.2-1-5.1-1.8-4.2-3c5,0.1,4.9-1.1,10-1c0.1-0.4,1.6-0.5,2-0.9c-0.1-0.2-0.8-0.3-1.2-0.4c0.3-0.3,1.2-0.4,2-0.5
		c1.2-1.3-4-1-4.2-2c3.5-0.3,8.7-0.1,11.2-0.6c-1.6-0.1-2.2-0.8-0.9-1c-2.2-0.3-2.5-1.1-4.9-1.4c-4,0.5-3.7,1.7-8.3,2.1
		c-2.7-1.6-14.5-1.3-18.2-1.6c0.5,0,0.8,0.1,0.8,0.3c-1.9,0.1-2.9-0.1-4-0.2c0.3,0.4-2,0.2-2.4,0.4c0.6,0.1,1.3,0.1,1.2,0.4
		c-6.3,0-9.7,0.6-16.1,0.8c-0.1,0.1,0.1,0.3-0.4,0.3c-8.6-0.1-14.2,0.5-22.1,0.7c-0.1,0.1,0.1,0.3-0.4,0.3c-1.7-0.2-3.8-0.2-4.8-0.2
		c0.3,0,0.5,0.1,0.4,0.2c-6.2-0.1-14.4,0.4-15.8-1c0.6,0.1,1,0.1,1.2-0.1c-1.2-0.1-3.3-0.5-2.1-0.9c-2.1,0.1-3.4-0.5-2.5-0.8
		c-0.1-0.1-0.6-0.2-0.4-0.4c-1.3-0.1-0.8-0.1-1.6,0.1c0-0.1-0.2-0.2-0.4-0.3c0.6,0,1.4,0,1.2-0.2c-2.7,0.1-0.6-0.4-1.7-0.7
		c-1.5,0.1-1,0.6-3.2,0.5c0.9-0.2-0.2-0.4,0-0.7c0.2,0,1.6,0.2,1.6,0c-1,0-0.7-0.4-1.2-0.5c-0.7,0-1.3,0-1.6,0.1
		c1.4-0.4-2.1,0-1.2-0.5c2.7,0.3,4.9,0.1,7.6-0.1c1.1,0.7,5.8,0.4,6.9,1.1c-0.5,0.1-0.9,0.1-1.2,0.2c0.9,0.1,1,0.3,1.6,0.5
		c4.4-0.1,5,1.5,9.8,1.6c0.1-0.5,2.1-0.6,4-0.4c0-0.5,1.3-0.4,2.8-0.3c-0.9-0.9,3.4-1.1,1.9-1.8c0.5,0.1,1.5,0.1,1.6-0.1
		c-0.3-0.2-2,0-1.6-0.3c0.1-0.1,1-0.1,1.6-0.1c-0.3-1.1-4.9-1-6.5-1.7c6.3-0.6,9.4,0.9,14.5,0.5c0,0.1,0,0.3,0,0.4
		c4.9,0.3,4.7-1.3,8.8-1.1c2.1-0.6,4.8-1.1,8.4-1.3c-0.4-0.1,2.5-0.3,2.8-0.6c6.7,0,0-1.9,1-2.5c-1.3-0.4-3.1-0.6-3.7-1.2
		c1.5,0,1.2-0.2,0.4-0.3c0.5,0,1.1,0,1.6,0c-0.1-0.6,1.3-0.7-0.5-1c-3.9,0.3-7.6-0.1-9.3-1c0.6,0,0.3-0.3,1.2-0.2
		c0.3-0.5-2-0.2-2.1-0.6c2.8,0.1,3.1,0.9,5.7,1.1c-0.3-0.3,0.6-0.3,0.4-0.5c-0.8,0-0.9,0.1-1.6,0.1c0.8-0.2-0.8-0.3-0.8-0.6
		c-1.7,0-1.5-0.2-3.2-0.3c-0.2,0.2-2.3,0.3-2.8,0.1c2.5,0-0.7-0.3,1.2-0.4c-3.5-0.1-4.5-0.4-6.5-0.4c1.3-0.1,2.3-0.4,2.4-0.8
		c-1.1,0.1-0.8-0.2-1.2-0.3c-5.1-0.2-7.3-1.2-13.4-1.4c1.6-0.6,5.3-0.2,9.2-0.4c0.6-0.3,1.7-0.5,1.5-1c-4.3,0.1-9.8-0.7-14.5,0
		c-2.7-0.6-9,0.4-13.7,0.2c-1.8-0.1-6.2,0-7.2,0.6c-5.7,0-11.7,0.3-18.9,0.4c-0.5-0.3,1.2-0.4-0.4-0.4c-2,0.5-6.8,0.2-8.8,0.5
		c6.8,0.1,12.9,0.3,19.7,0.2c0.1,0.1,0.7,0.2,0.8,0.3c-4.3-0.2-10,1.3-9.2,0.5c-0.4,0.1-2.1-0.3-3.6-0.2c-0.9,0.9-4.2,0-6.8,0.1
		c0.1,0.3-1.6,0.1-1.2,0.4c0.1,0.3,1.6,0.3,1.6,0.6c-2.4,0.7-5.1,0.2-8.8,0.3c-0.2-0.1-0.5-0.2,0-0.3c-1,0.1-3.8,0.3-3.6-0.2
		c2-0.2,0.7,0,2,0.1c0.8-0.4-0.1-0.6-1.2-0.7c1.2-0.2,1.1-0.7,2.8-0.8c-0.8,0-1.4-0.1-1.6-0.2c0.3-0.2,1.5-0.2,1.6-0.5
		c-1.5,0.1-3.4,0.1-5.2-0.2c0.1,0.5-2.5,0.4-3.2,0.3c0.5-0.3,1.6-0.3,2.8-0.2c-0.8-0.5,1.6-0.1,1.2-0.5c-1.6-0.1-5.9,1.1-8,0.2
		c3.6,0.2,4.3-0.4,6.4-0.6c0.5-0.6-0.1-0.8-1.3-1c0,0.1,0,0.2,0,0.3c-0.8,0-1.1-0.1-1.6-0.1c0.2-0.1,0.5-0.2,0-0.2
		c0.1-0.3,0.7,0.1,1.5,0c-0.7-0.1-1.5-0.1-2.4-0.2c0.7-0.3,1.6-0.5,3.5-0.5c-0.1,0.1-0.6,0.2-0.8,0.3c2.1-0.1,4.4-0.3,4.8-0.5
		c1.9,0.2,1.5,0,2.8-0.1c2.1-0.1,5.4,0.2,6.4-0.3H809c1,0.1,2.3,0.3,3.1,0.1c0.2,0.1,0.5,0.2,0,0.3c3-0.6,5.2,0.6,8.9,0.3
		c-1.7-0.1,1.5-0.6-1.6-0.5c-0.5,0.2,1.1,0.4,0,0.4c0.1-0.6-3.3-0.5-4.5-1c-2.1,0.5-4.3,0.1-7.1,0c0.1,0,0.1-0.1,0.2-0.1
		c-0.2-0.1-0.6-0.1-1-0.1c-0.4-0.2-1-0.5-1.7-0.3c1.1,0,0.6,0.1,0.1,0.3c-1.3,0-2.6,0-2.7-0.3c0.8,0,1.6,0,2.4,0
		c0-0.3-2.1-0.3-0.8-0.6c-0.6,0.1-2.1-0.1-2,0.1c0.9,0,1.3,0.1,1.2,0.3c-0.6,0-1.7,0-2.7,0c-0.1-0.2-0.3-0.2-0.1-0.3
		c3.3-0.3,8.2-0.3,10.9-0.3c0.3-0.2,0.5-0.4,1.2-0.5c-1.9,0-3.7,0-1.6,0.2c-1.5,0-1.8-0.2-2.4-0.4c2.9-0.5,2.3,0.1,4.8,0
		c-1.4-0.1-2-0.2-0.8-0.5c-3.6-0.2-8.3-0.3-10.9-0.2c-0.9-0.5-3.7-0.3-5.9-0.3c0-0.1,0.1-0.2,0.4-0.3c-0.7,0-1.1,0.1-1.5,0.2
		c-0.9-0.1-1.6-0.2-1.8-0.5c-1.6,0-0.6,0.6-2.4,0.5c-1.3-0.1-2.3-0.4-3.7-0.5c-0.7,0.2-1.8,0.2-2.7,0.1l0,0c-0.3,0-0.5-0.1-0.4-0.2
		c-0.3,0-0.5,0-0.7,0c-0.1,0-0.2-0.1-0.2-0.1c0.5,0,0.4-0.1,0.7-0.2c0.2,0,0.3,0.1,0.3,0.2c0.6,0,1.3,0,1.8,0c1.8,0.1,4.2,0,5.3-0.2
		c-1.4,0-3.1-0.1-4.7-0.1l0,0l0,0c-1.6,0-3.2,0-4.5,0.1c0.5,0,1.1,0,1.2,0.1c-1.2,0-1.2,0.2-2.4,0.2c-0.2-0.2,0.7-0.3,0.1-0.3
		c0.3,0,0.6,0,0.8,0c-0.5,0-0.4-0.2-0.4-0.3c3,0,4,0,5.6-0.2c0,0.1-0.3,0.1-0.4,0.2c4.5-0.1,8.4-0.2,11.3,0c0.4-0.1,0.6-0.3,1.2-0.4
		c1,0.3,1.3,0.1,2-0.1c0.8,0.2,0.5,0.6,1.6,0.4c-1.4-0.3,1.6-0.3,2.4-0.4c0,0.2,1.1,0.1,0.8,0.4c0.1,0.2-1.2,0.1-1.2,0.3
		c2.7,0,2.6-0.3,2.8-0.8c-1-0.2-2.6-0.2-3.6-0.3c-0.7,0.6-5.1,0.2-6,0c0.5,0,0.4-0.2,0.8-0.2c0.1,0.1-0.1,0.3,0.4,0.3
		c2.3-0.6,4.8-0.3,8-0.2c-1-0.4,0.7-0.3,0.8-0.7c-3.2,0-6.4,0.1-9.3,0c1.3,0.2-1.2,0.3-1.6,0.4c-0.8-0.1-3.1-0.4-3.6-0.3
		c0.5,0,0.4,0.2,0.4,0.3c-1.7-0.4-4.2-0.2-6.5-0.4c2.5,0,1.3-0.2,3.2-0.3c-1.8-0.1-2.8-0.3-4,0.1c0-0.1,0-0.2,0-0.3
		c-3.8,0.3-9.7-0.3-14.5,0.1c-0.1-0.1,0-0.3-0.4-0.3c-4.2,0.4-10.4-0.3-12.5,0.1c-0.2-0.4,1.8-0.5,2.8-0.3c-0.3-0.7-2.6-0.2-3.6-0.1
		c0.1,0-0.1-0.2,0-0.2c-1.6,0.1-2.3,0.6-4,0.6c-2.2,0.1-2.8-0.5-5.7-0.3c0.9,0.5-3,0-4,0.3c4.3,0-4.8,0.5-4.8-0.2
		c1.3,0,1.5-0.2,2.4-0.3c-2.2,0-1.2-0.1-1.6-0.5c-1.8,0.1-2-0.2-3.2-0.2c0.2,0.3,1.8,0.3,2.4,0.5c-0.6,0-0.9,0.1-1.2,0.1
		c-0.9-0.1-1.6-0.6-2.4-0.2c0-0.2-0.1-0.3-0.4-0.4c6.5-0.3,8.8-0.4,14.9-0.1c3.6-0.3,7.5,0.3,11.3-0.2c0.1,0.2,1.3,0.1,1.2,0.3
		c5-0.3,10.4,0.7,14.5-0.1c-1.1,0-2.8,0.1-2.8-0.2c1.3,0,6.9-0.3,5.7,0.4c1-0.1,1.8-0.2,3.2-0.1c0.6-0.4-2.1,0-2-0.3
		c1.8-0.1,5.9-0.3,7.3,0.3c7.3,0,12.9-0.2,17.7,0.3c0.2-0.5,0.8,0.2,1.6,0.2c1-0.1-0.4-0.5,0.4-0.5c0.4,0,0.5-0.1,0.8-0.1
		c1.5-0.1,1.4,0.2,2.4,0.3c0.5-0.3,2.5-0.2,4-0.2c0.4,0.8,3.2,0.3,4.8,0.3c6.6,0.1,15.3,0.4,20.6,0.3c-4.1-0.3-5.5,0-8.9-0.5
		c-4.8,0.4-10.9-0.1-16.1,0c0-0.3-0.7-0.3-0.8-0.5c0.5-0.2,1.5-0.2,2-0.3c-1.6-0.2-5.8,0.4-8.5-0.2c-0.2,0.3-1.5,0.2-2.4,0.1
		c-1.3,0.7-7.3,0.7-9.6,0.5c0.1-0.2,3.7,0,2.4-0.2c-1.2,0-2.5,0-2.4-0.3c0.7-0.1,2.4,0.1,2.4-0.1c-1.3-0.1-3.9,0.1-3.3-0.6
		c-1.7-0.1,0.6,0.4-1.2,0.4c-0.1-0.1-0.3-0.1-0.8-0.1c-0.5-0.5,0.7-0.5,1.2-0.7c-1.8-0.3-1.9,0.2-2,0.3c-1.3-0.3,1-0.4,0-0.6
		c-1.7-0.2-3.6-0.2-4.4-0.2c0.5,0,0.6,0.1,0.8,0.2c-0.7-0.1-1.7,0.3-2,0c0.5,0,1.1,0,1.2-0.1c-2.3-0.3-5.9,0-7.3-0.5
		c-1,0.1,0.7,0.3-0.4,0.4c-2.3,0.2-2.1-0.3-3.6-0.4c-0.2,0.1,0.5,0.5-0.4,0.5c-1.4,0-3.9,0.2-3.6-0.3c0.4-0.1,3.1-0.1,2-0.2
		c-2.3,0.2-3.8,0-4.8,0.4c-1.6-0.1,0.3-0.5-1.2-0.6c-0.6,0.1,0,0.4-0.8,0.4c-0.5-0.2-4.8-0.6-2.8-0.2c-1.7-0.1-2-0.1-4.4-0.1
		c-0.1,0.1,0.2,0.4-0.4,0.4c-6.8-0.3-12.6,0.1-18.5-0.1c-0.1,0.2,0.6,0.3,0,0.3c-2.3-0.2-4.1-0.3-5.6,0.1c0-0.1,0.2-0.2,0.4-0.3
		c-1.6,0.2-3.8,0-5.2-0.2c1.1-0.4,3.2-0.1,3.6-0.7c-2.8,0.1-4,0.9-7.2,0.7c-0.5,0.2,1.1,0.4,0,0.4c-1.2-0.1-1.6-0.1-2.4,0.1
		c0-0.3-1.2-0.4-2-0.5c-3.2,0.4-6.3-0.3-9.2,0.3c-6.4-0.3-15.8-0.1-20.9,0.3c-0.4-0.2-2.3-0.1-2-0.5c-2.3,0.4-3.6-0.2-5.2,0.2
		c0.5,0,1,0,0.8,0.2c-1,0.1-1.1,0.1-2.8,0.1c-0.1-0.2,0-0.3-0.8-0.3c-1.3,0.7-4.5,0-6.4-0.1c-0.1,0.2,0.6,0.2,0.8,0.3
		c-1.6,0.1-4.5,0.1-4.9-0.4c1-0.1,1.4,0.4,2,0.1c-0.6,0-0.5-0.2-0.8-0.3c-4.3,0.6-10.4,0.4-13.3,0.4c-1,0-1.5,0.3-2,0.3
		c-1.3,0-2.3-0.5-4.4-0.3c0.4,0-0.6,0-1.6,0c-0.4,0-4.6,0.2-5.6-0.2c-0.2-0.3,3.1-0.2,2-0.3c-1.4,0-1.9,0.2-3.2,0
		c0.3,0.5-2.1,0.4-2.8,0.2c1.3-0.2,3.1-0.2,3.6-0.5c-2.5,0.2-7.1,0.6-6.9-0.3c0,0.1-0.7,0.1-0.8,0c1.6-0.3,1-0.5,2.4-0.7
		c-5.1,0.9-9.4-0.5-14,0.8c-0.1-0.2,0.4-0.2,0.4-0.4c-1.3,0-1.1,0.3-2.8,0.2c0.1-0.2-0.5-0.2-0.4-0.4c-1,0-2.2,0.1-2.8,0.2
		c1.8-0.1,2.6,0.2,2.9,0.5c-2.7-0.1-4,0.3-6.5-0.2c1.6,0.1,1.2-0.3,2.8-0.2c-0.4-0.2-0.2-0.6-1.6-0.6c-0.1,0.1,0.2,0.4-0.4,0.4
		c0.2-0.5-5-0.6-7.3-0.6c-0.4,0.4,1,0.3,0.8,0.6c-0.1,0-0.3-0.1-0.6-0.1v-0.1c-0.7,0-1,0-1.4-0.1c0.2-0.1,0-0.2-0.1-0.4
		c-1.3-0.1-0.5,0.3-1.6,0.3c0-0.4-2.1-0.2-2.4-0.5c-1.7,0.3-2.3,0.1-2-0.2c-1.5,0.3-2.1,0.2-3.2,0.5c-0.7-0.2,0-0.1,0-0.4
		c-1.7,0.1-1.5,0.1-2.8-0.1c-0.6,0.1-1,0.3-1.6,0.4c-0.7-0.2-1.6-0.1-0.4-0.3c-4.4-0.2-5.9,1-8,0.7c-0.1,0.4-0.7,0.5-1.4,0.5
		c-0.6-0.3-3-0.4-5.2-0.4c0.1,0,0.1-0.1,0.2-0.1c-0.9,0.2-2.2,0-2.4,0.1c0.1,0,0.3,0,0.4,0c-0.6,0-1.1,0.1-1.6,0.1l0,0
		c-2.2,0.4-4.9,0.3-7,0.3c0.3-0.1,0.9-0.2,0.8-0.2c-0.8-0.2-2,0.1-3.2-0.3c-0.1,0.2,0.5,0.2,0.4,0.4c-0.8,0-0.8-0.3-1.6-0.3
		c-1.2,0.2-2.5,0.4-3.9,0.4c-0.2,0-0.3,0-0.2,0c-0.3,0-0.6,0-0.9,0c-0.8-0.1-1.3-0.2-2-0.1c0.3,0,0.5,0,0.6,0.1c-0.1,0-0.3,0-0.4,0
		c-0.1-0.1-0.5-0.1-1-0.1c-0.1,0-0.2,0.1-0.3,0.1c-4.3,0-8.8-0.2-12.7,0.2l0,0c-0.1-0.1-0.2-0.1-0.3-0.2c3.2,0.4,5.3-0.9,7.2-0.1
		c0-0.6,1.4-0.2,3.2-0.4c-0.5-0.3,0.6-0.2,0.8-0.4c-1.9-0.1-1.1,0.1-1.6,0.2c-0.4-0.1-1.5,0-1.2-0.3c0.5,0,1.1,0,1.2-0.1
		c-1.7,0.1-2.5,0-2.8-0.3c-2.1,0.2-3.6,0-8,0.1c-0.7,0.2,0.6,0.3-0.8,0.4c-5.3-0.4-10,0.5-14.1,0.3c-0.5,0.2-0.1,0.3-0.1,0.5
		c-0.5,0-1,0-1.5,0c-0.3-0.1-0.1-0.3,0.1-0.5c-3.7,0.4-6.1-0.2-10.1-0.1c-1.6,0.9-7.2,0.1-9.6,0.7c0.3,0,0.5,0,0.8-0.1
		c-0.4,0.1-0.8,0.1-1.2,0.2v-0.1c-0.5,0.1-0.9,0.1-1.4,0.1c-0.4-0.1-1-0.1-1.7-0.1c-0.5,0-0.9-0.1-1.2,0c-0.3,0-0.6,0-0.9,0
		c-1.2-0.4-5-0.4-7.3-0.2c0.4,0-0.6-0.1-1.6-0.1c-5.3,0.1-11.9,0-16.9,0.5c-0.1-0.2,0-0.4-0.8-0.3c0,0.3,0,0.5-1.2,0.5
		c-0.3-0.2,1.1-0.3-0.4-0.3c-0.4,0.2-1.2,0.3-2,0.1c-0.9,0.1,0.5,0.2-0.4,0.3c-0.8,0-1.3-0.1-1.6-0.2c0-0.2,1-0.1,0.8-0.3
		c-1.5,0.2-1.8,0.1-3.6,0.3c0,0.2,0.5,0.2,0.9,0.2c-0.4,0.2-1.3,0.2-1.8,0.3c0-0.1-0.1-0.1-0.2-0.1c0.2-0.1,0-0.2-0.4-0.3
		c0,0,0.1,0,0.1-0.1c-0.1,0-0.2,0-0.3,0c-1-0.2-3-0.4-4-0.5c0.8,0,0.5-0.3,1.6-0.2c1.7,0.2,4,0.2,5.2-0.2c0.8,0.1,0.9,0.2,0.4,0.3
		c4.7-0.3,8.2-0.1,12.4-0.7c-1,0.4,4,0.2,2.8-0.1c5.5,0.3,14,0.1,18.9-0.6c-2,0.2-5.6-0.2-7.2,0.2c0.9-0.4-1.8-0.1-2,0.1
		c0-0.1,0-0.2,0-0.3c-17.3,0.1-36.5,0.4-51.5,0.3c-1.6,0.4-7.2-0.1-8.8,0.6c-2.2-0.2-3-0.3-5.2-0.1c0.9-0.6-2.5,0-2-0.5
		c-1.8,0.2-4-0.3-4.8,0.1c2.5,0.1,4.1-0.2,4.8,0.3c-2.4-0.1-4.9,0.2-6.5-0.3c-1.8,0.1-5.3,0.5-6.8,0.1c-0.2,0.5-2.2-0.1-3.2,0.2
		c-0.1,0.2,0.6,0.3,0,0.3c-1.6,0.2-3.5-0.2-4.8,0c0.5,0,1,0,0.8,0.2c-1.2,0.1-1.2-0.2-2.4-0.1c-0.1,0.3,1.8,0.2,2.4,0.3
		c0.8-0.3,5.4-0.4,6-0.1c-1.4,0.2-1.8,0.4-3.2,0.1c-0.3,0.3,0.8,0.2,0.8,0.4c1.3,0,1.4-0.3,2.8-0.3c-0.2,0.3-1.1,0.4-1.6,0.6
		c1.5,0,1.1-0.4,2.4-0.4c0.3,0.1-0.4,0.2-0.4,0.3c-1,0.1-2,0.2-2.9,0.2c-0.4-0.1-0.7-0.3-1.2-0.4c-1.8,0.4-3.3,0.2-4.9,0
		c0.6,0,1.2,0,1.8,0c0.6-0.3-2.4-0.3-2.1,0c-0.9-0.1-1.8-0.2-2.9-0.1c-0.1-0.3,1.6-0.1,1.2-0.4c-4.1,0.8-11.1,0.2-16.9,0.5
		c-0.1-0.3,2.3,0.1,1.6-0.3c-4.2,0.3-12,0-17.3,0.3c1.2-0.3-1.5-0.1-1.6-0.4c3.5-0.7,7.3-0.1,12-0.7c-0.2-0.1,0.4-0.5-0.4-0.5
		c-1.2,0.9-6.3,0.4-9.6,0.7c-0.2-0.2-1.3-0.1-0.8-0.4c-0.4,0.1-0.8,0.1-1.2,0.2c0-0.1-0.1-0.1-0.2-0.2c-0.4,0-0.8,0-1.2,0
		c-0.1,0.1,0.2,0.2,0.4,0.3c-0.5,0-1,0.1-1.6,0.1c-0.2-0.2-0.2-0.2,0-0.5c-2.5,0.3-6.2,0.1-7.1-0.3c0,0-0.1,0-0.1-0.1l0,0
		c0,0,0.1,0,0.1,0.1c0.3,0,0.7-0.6,1.7-0.3c-0.1,0-0.3,0.1-0.4,0.1c0.5-0.1,1.1-0.2,1.8-0.2c0.3,0.1,0.5,0.1,0.7,0.2
		c0.9,0,1.7-0.1,2.4-0.2c0,0.1,0,0.1,0.1,0.2c-1.1,0-2.5,0-3,0.1c1.9,0,3.2,0.1,4.4,0c-0.3,0-0.5-0.1-0.4-0.2
		c-0.2,0-0.4,0.1-0.7,0.1c0.1-0.3,1.2-0.2,2.1-0.1c-0.3,0-0.5,0.1-0.6,0.2c1.7-0.2,1.5,0.2,2.4,0c-0.5,0-0.3-0.1,0-0.2
		c-0.5,0-0.9,0-1.4,0c-0.4-0.1-1-0.2-1.5-0.2c0.2,0,0.3,0,0.5-0.1c-0.3,0-0.6,0-0.9,0c-0.6-0.1-1.1-0.2-1.4-0.3
		c-0.3,0.3-0.7,0.1-2,0.1c-0.1-0.1,0-0.2-0.3-0.3c0.5-0.1,1-0.3,0.9-0.4c-0.5-0.1-1.5-0.1-1.6,0.1c0.5,0,1,0,0.8,0.2
		c-0.3,0-0.5,0-0.8,0c0,0.1,0,0.1,0,0.1c-0.6,0-1.6-0.1-2.3,0.1c0.8,0.1,0.9,0.2,0.4,0.3c-2-0.1-4.3,0.2-6.5-0.3
		c-0.2,0.6-1.7,0.3-3.2,0.2c-0.1,0.1,0.1,0.4-0.3,0.4c-0.1,0-0.2,0-0.3,0c-0.5-0.1-0.6-0.2-0.8-0.3c2.3-0.1,3.8-0.4,6.1-0.4
		c-1.9-0.3-3-0.1-4.8-0.2c0-0.1,0.2-0.2,0.4-0.3c-5.8,0-9.7,0.1-14.1-0.5c-0.1,0.1,0.1,0.3-0.4,0.3c-2.6-0.4-7.4-0.2-10.1-0.2
		c0.5,0,1,0,0.8,0.2c-1.8,0-3.9,0.1-4-0.3c-0.9,0-0.4,0.4-1.6,0.4c-1.3-0.2-1.8-0.6-3.3-0.8c1.3,0.4-5.4,0.6-3.6-0.1
		c-2.5-0.1-3.9,0.2-5.7-0.3c-0.7,0.2-1.3,0.4-2.4,0.5c0.2,0.5,0,0.7-0.1,1c-1.5,0.1-3,0.1-3.3,0.4c1-0.2,2.6-0.1,3.1,0.1
		c0,0.1,0,0.2,0,0.4c2.1-0.2,3.7-0.3,4.4,0.3c0.4-0.3,3.7-0.3,4.4,0c2.7-0.6,6.5,0.2,10.9,0.1c-0.2,0.5,1.3,0.1,2,0.5
		c-1.5,0-2.7,0.1-4,0.2c0.6-0.3-0.1-0.4-0.8-0.6c-0.5,0.3-2.6,0.2-3.2,0c-0.5,0.4,1.7,0.2,2,0.4c-1.5,0.2-3.4,0.2-4.8,0.4
		c-0.8-0.6-3.8-0.5-5.7-0.3c-0.8-0.2-0.8-0.3,0-0.5c-3.7,0.5-8.3,0.3-10.9-0.1c-1,0.7-4.3-0.2-5.6,0c0.6,0.1,1,0.2,1.2,0.3
		c-1.2-0.1-1.2,0.2-2.4,0.1c0.1-0.4-1.5-0.4-2.4-0.5c-0.4,0.2,1.2,0.3,0,0.4c-3.4-0.1-4.7-0.2-7.2,0.1c-0.4-0.3,0-0.6-2.5-0.6
		c0,0.2-0.1,0.3-0.4,0.4l0,0c-1.3-0.1-2.4-0.2-3.7,0.1l0,0l0,0c-0.1,0-0.3,0.1-0.4,0.1c-0.6-0.1-1.6-0.1-1.2-0.4
		c0.8,0,0.3,0.4,1.6,0.3l0,0c-0.5-0.5,1.5-0.5,2.8-0.5c-2.6,0-4.2-1.1-5.3-0.4c-4-0.2-6.7-0.6-10.9-1c0.1-0.1,0.6-0.2,0.8-0.3
		c-2.1-0.2-3.4,0.5-3.6-0.1c2,0,4.3,0.1,5.2-0.2c-0.8,0-1.3-0.1-1.6-0.2c1.8,0.2,0.4-0.4,3.6-0.2c-0.3-0.4,1.2-0.3,1.2-0.6
		c-1-0.2-2.7-0.1-3.2-0.4c3.1-0.3,5-0.2,6.9,0.2c-0.6,0.1-2.1-0.1-2,0.1c2.2-0.1-1.4,0.4,0.8,0.3c1.2-0.4,2.6-0.4,4-0.6
		c-0.8,0.4,1.8-0.3,2.4,0.3c0.7-0.1,0.8-0.3,1.6-0.4c3.2,0.6,9.3,0.5,12.5,0.7c-0.6-0.1-1.8-0.1-1.6-0.4c0.4,0,0.5-0.1,0.8-0.1
		c1.3,0.4,3.9-0.1,4.5,0.5c2.1,0,2-0.1,3.2,0.1c0.3-0.2-0.2-0.5,2-0.4c-0.1,0.2-1.1,0.2-1.2,0.4c3.2,0,8.9-0.4,10.9,0.2
		c5.1-1.6,13.5,0.6,17.7-0.6c0,0.1,0.7,0.1,0.8,0.2c-1-0.1-1.4,0-1.2,0.3c2,0,2,0,4.8,0.2c-0.6-0.6-3.8-0.5-4.9-0.9
		c0.9-0.2,2.9-0.1,4.4-0.1c-0.5-0.3-4.2-0.3-5.3-0.3c-0.1,0-0.2,0.3-0.8,0.3c-0.6,0-1.1-0.3-1.6-0.3c-2.7-0.1-6.6,0.4-8.1-0.2
		c1.4,0.1,2.1-0.1,2.4-0.3c-6.7,0.2-10.9,0-18.5,0.1c0-0.1,0.3-0.1,0.4-0.2c-2.6,0.2-5.5-0.1-8.4,0.3c0.1-0.1,0.7-0.2,0.8-0.3
		c-1.7,0.1-3,0.3-4.4,0.4c0.8-0.2-1.4-0.3-1.6-0.6c0.1,0.2-0.3,0.3-1.2,0.3c-0.9-0.1,0.5-0.2-0.4-0.3c-2.1,0.1-4.4,0.2-6,0.4
		c0-0.2,2-0.3,0.8-0.5c-2.5,0.5-9.3-0.2-11.7-0.3c1.2,0.1-1.2,0.3-1.6,0.1c-0.5,0.3,1.6,0.3,0.4,0.4c-0.6-0.4-3.2-0.1-3.6-0.3
		c-0.6-0.4,1.4-0.1,1.2-0.3c-1.6-0.2-3.5-0.4-5.7-0.5c3.8-0.5,11.2,0.3,16.5-0.5c-0.4-0.2-1.8,0.1-2.4,0.1c-0.3-0.7-1.4-0.1-2.4-0.3
		c1-0.8,4.3,0,6-0.2c-0.5,0-1,0-0.8-0.2c0.4,0,0.5-0.1,0.8-0.1c2.5,0.1,7,0.4,7.2-0.1c2,0,3.5,0.7,5.3,0.5c-2.1-0.2-4-0.4-4.9-0.9
		c0-0.1,2.9-0.1,1.6-0.2c-2.9,0.3-4,0.3-6.8,0.3c0.3,0.2,2,0,1.6,0.3c-1.2,0-3.1,0.1-3.2-0.2c1.2-0.2-0.6-0.5-0.8-0.3
		c1.1,0.1-0.3,0.4-0.8,0.4c-0.1-0.1-1-0.1-1.6-0.1c0-0.2-0.1-0.3-0.4-0.4c-1.2,0-1.9,0.1-2.8,0.2c-5.1-0.5-12.3,0.6-17.2,0.3
		c-1,0.3-3,0-2.9,0.3c-0.5-0.1-2.7-0.3-2.8-0.1c0.3,0.2,1.9,0,2,0.2c-0.1,0.1-0.4,0.2-0.8,0.2c-1.1-0.3-1.2-0.1-2.4,0
		c-0.4-0.1-0.8-0.2-1.2-0.3c-2.5,0.2-3.6,0.1-6,0.2c0-0.1,0.2-0.2,0.4-0.3c-1.1,0.1-2,0.1-2.8-0.1c1.2-0.1,2-0.3,2.8-0.5
		c-1.8,0.2-4.6,0.1-5.2,0.5c0.7,0.1,1.7-0.3,2,0c-1.2,0.1-2.3,0.2-3.2,0.4c0-0.2-0.4-0.2-1.2-0.2c0.9-0.3-0.5-0.6-1.3-0.7
		c-0.2,0.4,0.9,0.4,0.9,0.7c-1.9-0.1-0.4,0.2-1.2,0.2c-2.1,0.1-2.3-0.4-4-0.4c0.5-0.3,2.1-0.4,2.8-0.6c-2.3-0.1-2.5,0.4-4.4,0.4
		c0-0.3,0.7-0.3-0.4-0.4c-2.5,0.6-7.7,0.4-10.8,0.5c0.6,0.2,1.2-0.2,1.6,0.1c-0.1,0.1-0.9,0.1-1.2,0.2c-0.2-0.2-1.6-0.2-1.2-0.6
		c-2.2,0.4-4.7,0.1-7.6,0.2c-0.4-0.1-1-0.7-2-0.4c0.5,0,1,0,0.8,0.2c-1.7,0.1-2.9,0.1-5.6,0.1c-0.3-0.7-3.6-0.6-5.3-1
		c-0.9,0.1,0.5,0.2-0.4,0.3c-4.2-0.5-6.7-0.4-12.1-0.7c2.6-0.2-2.5-0.1-0.8-0.4c-1.6,0.2-4.4,0.4-5.7,0.3c0.3,0.1,0.2,0.4-0.3,0.4
		c-0.8-0.2-0.1-0.4-1.6-0.2c0.2-0.4-0.2-0.6-1.2-0.6c-0.6,0.1,0,0.4-0.8,0.4c-1.3-0.2-1.6-0.1-2.4-0.2c0.6-0.1,1-0.2,1.2-0.3
		c-1.3,0.1-0.7-0.2-0.4-0.3c-1.2-0.1-2.5-0.2-3.2-0.4c0,0.5,1.1,0.7,0.1,1.1c1.3,0,1.1,0.5,1.6,0.7c-5.9,0.1-13.8-0.3-19-1
		c0.8-0.3,0.7-0.6-0.5-0.9c-2.3,1.9-10.1-0.3-15.3,0.6c-0.5,0.6,0.4,0.6,0.5,1.2c-3.2-0.1-3.9,0.5-5.2,0.8c-2.4,0.2-3.4,0.1-6,0.2
		c-0.1-0.1-0.1-0.2-0.8-0.2c-1.1,0.1,1.1,0.2,0.4,0.5c-2.7,0.1-3.4,1-6,0.8c0.8,0.5,0,0.9-0.3,1.1c0-0.1-1.1-0.1-1.2,0
		c0.6,0,0,0.1-0.8,0.1c0.9-0.2-2.1-0.8-2.4-0.3c1.4,0.2,4,0.4,2.9,0.9c1.4-0.1,2.1,0.1,2.4,0.3c-0.5,0.2-1,0.3-1.6,0.4
		c0.4,0.2,1.1,0.3,1.6,0.5c-1.8,0.3-6.4,0.6-8.5-0.1c-1.6,0.1-3.3,1-4.8,0.3c0.6,0,1.8-0.2,2.4-0.5c-1.6,0-3.6,0.6-4.8,0.1
		c3.3-0.7,8.5-1.1,13.2-0.9c-3-0.5-8.5-0.1-12.5,0.4c-1.7-0.2-5.5-0.1-7.6,0.2c-0.9-0.1-1.1-0.3-2-0.4c-3,0-9.9,1-9.7-0.2
		c-1.4-0.2-0.2,0.3-1.2,0.3c-0.7-0.1-1.4-0.2-1.2-0.5c3.9-0.9,9.4-1.4,13.5-2.3c-1.1-0.3-2.8-0.4-2.9-0.9c-8.9,0-12.1,2.4-21.2,2.4
		c1.4,0.9-2.4,1.4-0.3,2.2c-0.7,0-1.3,0-1.6,0.1c0.5,0.8,1.2,1.4-0.7,1.9c0,0.2,1.1,0.1,1.2,0.2c-1.4,0-1.1,0.4-1.6,0.6
		c0.3,0.1,1.5,0,1.6,0.2c1.8,2.2,4.3,3.3,8,5.7c3.2,0.5,4.6,1.4,7.8,1.9c-1,0.4,2,0.9,0.9,1.3c0.9,0,1.5,0,1.6,0.2
		c-0.9,0-1.5,0-1.6,0.2c2-0.1,0.8,0.5,0.8,0.5c1.2,0.8,4.5,1.4,5.4,2.3c-4.3,0.4-8.5-0.9-12.1-0.4c-1.4-0.3-3.8-0.3-4.1-0.9
		c1.3,0,2.4-0.1,2.4-0.4c-4.5,0.6-7.4,0.2-11.4,0.2c-0.6-0.9-5.9-0.6-8.9-0.9c0-0.2,1.1-0.1,0.8-0.4c-4.3,0.2-9.7,0-14.1-0.3
		c-1.7-1.2-10.7-0.9-11-2.1c-1.9-0.1-4-0.2-4.9-0.6c0.5-0.5,2-0.8,1.5-1.5c-1.1-0.5-4.4-0.5-6.1-0.9c-0.1,0.4-2.5,0.7-4,0.4
		c0.3-0.2,1.2-0.2,1.6-0.4c-1.6-0.6-1.3-1.1-2.5-1.7c-1.3,0-3.4,0.2-3.6-0.3c0.7-0.1,1.7,0.3,2,0c-1.3,0-1.2-0.4-2.4-0.4
		c0,0.7-1.6,0-2.4,0c-1.1,0.2,0.2,0.5-0.8,0.8c-5,0.1-8.7-1.8-12.1-0.9C0.4,14.3,1.7,14.3,2.7,14.3z M66.3,45.6c-0.3,0-0.5,0-0.8,0
		c0.1-0.3-1-0.5,0.8-0.5C66,45.4,67,45.4,66.3,45.6z M80.5,47.1c0.8-0.2,1.6,0,2.4,0.1C83.2,47.5,79.8,47.4,80.5,47.1z M86,33
		c0.3-0.1,0.8-0.2,1.6-0.2C87.5,33,87.9,33,88.4,33C88.3,33.2,86.3,33,86,33z M144.6,56.5c-0.4-0.5,2-0.2,2-0.3
		C147.8,56.3,145.8,56.5,144.6,56.5z M581.5,63.9c-0.3-0.1-0.6-0.1-0.9-0.2c0.3,0,0.5-0.1,0.8-0.1C581.4,63.8,582.4,63.9,581.5,63.9
		z M657.6,67.5c0.6-0.2,2.1-0.3,2.8-0.1C660.2,67.6,658.4,67.4,657.6,67.5z M678,65.7c0.3-0.1,0.4-0.2,0.4-0.4
		c1.2-0.1,0.8,0.3,2,0.2C680.4,65.7,679.1,65.7,678,65.7z M859.4,62.2c0.7,0,0.9,0.1,1.6,0.1c0.4,0.3-0.6,0.3-0.4,0.5
		C860.1,62.6,859.2,62.5,859.4,62.2z M854.2,62.8c0.1-0.8-1.4-1,0.3-1.5c1.5-0.1,1.9,0.2,2.8,0.3c0.4,0.9,0.2,0.9-0.7,1.6
		c-1.1,0.1-3.2,0-2.8,0.4c-0.5-0.1-1.5-0.1-2-0.2C851.4,62.9,853.3,63,854.2,62.8z M837.8,65.5c-1,0.2-4.5,0.4-4.8-0.1
		C834.9,65.6,837.3,65,837.8,65.5z M875.5,30.8c0.3,0,0.5,0,0.8,0c-0.1,0.3,1,0.5-0.8,0.5C875.8,31,874.8,31,875.5,30.8z
		 M861.3,29.3c-0.8,0.2-1.6,0-2.4-0.1C858.6,28.9,862,29,861.3,29.3z M855.8,43.4c-0.3,0.1-0.8,0.2-1.6,0.2c0.1-0.2-0.3-0.2-0.8-0.2
		C853.5,43.2,855.5,43.4,855.8,43.4z M825.2,30.4c0,0.2,0.5,0.2,0.4,0.4c-1,0-1.9,0-2.4-0.1C823,30.4,824,30.4,825.2,30.4z
		 M812.8,63.9c3-0.1,4.2,1.1,1.7,1.5c-1.6-0.3-4-0.3-4.1-1C811.7,64.3,813.5,64.3,812.8,63.9z M797.2,19.9c0.4,0.5-2,0.2-2,0.3
		C794,20.1,796,19.9,797.2,19.9z M360.3,12.5c0.3,0.1,0.6,0.1,0.9,0.2c-0.3,0-0.5,0.1-0.8,0.1C360.4,12.6,359.4,12.5,360.3,12.5z
		 M284.2,8.9c-0.6,0.2-2.1,0.3-2.8,0.1C281.6,8.8,283.4,9,284.2,8.9z M263.8,10.7c-0.3,0.1-0.4,0.2-0.4,0.4c-1.2,0.1-0.8-0.3-2-0.2
		C261.4,10.7,262.7,10.7,263.8,10.7z M426.8,15L426.8,15C426.9,15,426.8,15,426.8,15L426.8,15z M427.3,15.2c0.1,0,0.2,0,0.4,0
		C427.5,15.2,427.4,15.2,427.3,15.2L427.3,15.2z M460,15.1c0.1,0,0.3,0.1,0.6,0.1c0,0,0,0,0-0.1c0.4,0,0.8,0,1.4,0
		c-0.1,0-0.2,0.1-0.3,0.1c-1.3,0.1-2.9,0.2-4.7,0c0.1-0.1,0.4-0.2,0.4-0.3C458.3,15,458.9,15.1,460,15.1z M510,14.6
		c0.9-0.1,2.4,0,3.7,0.1c-1,0.2-2.6,0.3-3.7,0.2C510.1,14.7,510.8,14.6,510,14.6z M544.7,15.1c0.6-0.1,1.2-0.1,1.9-0.1
		c0.4,0,0.7,0,1.1,0c0.3,0.3-0.7,0.3-0.4,0.6c-0.6-0.2-2.8,0-2.4-0.4c-0.6,0.4-2.6,0-4,0c1.3,0,2.4-0.1,3.5-0.1
		C544.4,15.1,544.6,15.1,544.7,15.1z M554.6,14.7c-0.6,0-1.2,0-1.7,0C553.5,14.7,554,14.7,554.6,14.7z M578.2,14.8
		c2.1,0.1,2.9,0.3,4.4,0c0,0.2,0,0.3,0,0.5c-2.2-0.1-5.1,0.1-7.7-0.1C576,14.9,577.6,15.3,578.2,14.8z M594.6,13.9
		c-0.4,0-0.9,0-1.5-0.1C593.5,13.8,594.1,13.9,594.6,13.9z M614.6,13.8c0.2,0,0.4,0,0.6,0c0.3,0.4,0.3,0.4-0.4,0.7
		C614.3,14.3,613.7,14,614.6,13.8z M696.8,18.7c0.2,0,0.4,0,0.6,0C697.2,18.7,697,18.7,696.8,18.7L696.8,18.7z M515,61.4L515,61.4
		C514.9,61.4,515,61.4,515,61.4L515,61.4z M514.5,61.2c-0.1,0-0.2,0-0.4,0C514.3,61.2,514.4,61.2,514.5,61.2L514.5,61.2z
		 M481.8,61.3c-0.1,0-0.3-0.1-0.6-0.1c0,0,0,0,0,0.1c-0.4,0-0.8,0-1.4,0c0.1,0,0.2-0.1,0.3-0.1c1.3-0.1,2.9-0.2,4.7,0
		c-0.1,0.1-0.4,0.2-0.4,0.3C483.5,61.4,482.9,61.3,481.8,61.3z M431.8,61.8c-0.9,0.1-2.4,0-3.7-0.1c1-0.2,2.6-0.3,3.7-0.2
		C431.7,61.7,431,61.8,431.8,61.8z M397.1,61.3c-0.6,0.1-1.2,0.1-1.9,0.1c-0.4,0-0.7,0-1.1,0c-0.3-0.3,0.7-0.3,0.4-0.6
		c0.6,0.2,2.8,0,2.4,0.4c0.6-0.4,2.6,0,4,0c-1.3,0-2.4,0.1-3.5,0.1C397.4,61.3,397.2,61.3,397.1,61.3z M387.2,61.7
		c0.6,0,1.2,0,1.7,0C388.3,61.7,387.8,61.7,387.2,61.7z M363.6,61.6c-2.1-0.1-2.9-0.3-4.4,0c0-0.2,0-0.3,0-0.5
		c2.2,0.1,5.1-0.1,7.7,0.1C365.8,61.5,364.2,61.1,363.6,61.6z M347.2,62.5c0.4,0,0.9,0,1.5,0.1C348.3,62.6,347.7,62.5,347.2,62.5z
		 M327.2,62.6c-0.2,0-0.4,0-0.6,0c-0.3-0.4-0.3-0.4,0.4-0.7C327.5,62.1,328.1,62.4,327.2,62.6z M245,57.7c-0.2,0-0.4,0-0.6,0
		C244.6,57.7,244.8,57.7,245,57.7L245,57.7z M338,14.1c-0.2,0-0.5,0-0.7,0c-0.1-0.2,0.6-0.3,1.3-0.3C338.4,13.9,338.2,14,338,14.1z
		 M541.6,15.3c0.7,0.2,0.4,0.6-1.2,0.5c1.2-0.6-1.8,0.1-2-0.5C540,15.4,539.8,15.3,541.6,15.3z M584,16.3c0-0.3,2.3-0.2,2.8-0.1
		c-0.2,0.3-1.1,0.4-2.4,0.4C584.4,16.5,584.4,16.3,584,16.3z M603.8,62.3c0.2,0,0.5,0,0.7,0c0.1,0.2-0.6,0.3-1.3,0.3
		C603.4,62.5,603.6,62.4,603.8,62.3z M400.2,61.1c-0.7-0.2-0.4-0.6,1.2-0.5c-1.2,0.6,1.8-0.1,2,0.5C401.8,61,402,61.1,400.2,61.1z
		 M357.8,60.1c0,0.3-2.3,0.2-2.8,0.1c0.2-0.3,1.1-0.4,2.4-0.4C357.4,59.9,357.4,60.1,357.8,60.1z M228.1,57
		c-0.1-0.1,0.2-0.1,0.5-0.2c0.3,0,0.6,0,0.9,0C229.1,56.9,228.6,56.9,228.1,57z M232.6,56.7c-0.5,0-0.8,0-1.2,0
		c0.3-0.1,0.8-0.1,1-0.1C232.5,56.6,232.6,56.7,232.6,56.7z M416,59.8L416,59.8c-0.2,0.1-0.3,0.1-0.5,0.1
		C415.6,59.8,415.8,59.8,416,59.8z M525.8,16.6L525.8,16.6c0.2-0.1,0.3-0.1,0.5-0.1C526.2,16.6,526,16.6,525.8,16.6z M348.3,61.2
		c0,0.1,0,0.2,0,0.3c-0.7,0-1.3,0-2,0C346.1,61.2,347.6,61.3,348.3,61.2z M350.6,59.6c1.3,0.1,2.7,0.1,3.6,0.3
		c-0.3,0.4-1.6,0-3.2,0.1C351,59.8,350.5,59.8,350.6,59.6z M409,60.4c0.1,0.3-1.4,0.4-2,0.2C407.3,60.4,408,60.4,409,60.4z
		 M713.7,19.4c0.1,0.1-0.2,0.1-0.5,0.2c-0.3,0-0.6,0-0.9,0C712.7,19.5,713.2,19.5,713.7,19.4z M709.2,19.7c0.5,0,0.8,0,1.2,0
		c-0.3,0.1-0.8,0.1-1,0.1C709.3,19.8,709.2,19.7,709.2,19.7z M593.5,15.2c0-0.1,0-0.2,0-0.3c0.7,0,1.3,0,2,0
		C595.7,15.2,594.2,15.1,593.5,15.2z M591.2,16.8c-1.3-0.1-2.7-0.1-3.6-0.3c0.3-0.4,1.6,0,3.2-0.1C590.8,16.6,591.3,16.6,591.2,16.8
		z M532.8,16c-0.1-0.3,1.4-0.4,2-0.2C534.5,16,533.8,16,532.8,16z M207.1,57.5c2.3,0.1,2.8,0,5.2,0.1c-2.3-0.5,5-0.3,5.6,0
		c-3.8,0.4-9-0.1-11.6,0.4C206,57.7,207,57.7,207.1,57.5z M208.3,57.2c2.6-0.8,6.9-0.3,11-0.4c-0.5,0.1-1.3,0.1-1.2,0.3
		c0.3,0,0.6,0,1,0C216.1,57.2,211.9,57.1,208.3,57.2z M235.4,57.4c-0.1,0-0.1,0-0.2,0.1c-0.6,0-1.4,0-2-0.1
		C233.9,57.4,234.7,57.4,235.4,57.4z M335.1,62.5c0.1,0,0.2,0,0.4,0C335.4,62.5,335.3,62.5,335.1,62.5z M346.7,61.9
		c0.4-0.1,1-0.1,1.6-0.1c0.7,0.2,2.8,0,4.1-0.2C351,62,349.5,62.3,346.7,61.9z M350.7,61.5c0.2-0.1,0.3-0.2,0.4-0.3
		c3.4,0.1,6.1,0,7.7,0.2c-1.2,0.5-4.3,0.5-5.9,0.2c0.5-0.1,0.8-0.1,0.8-0.1C353,61.5,351.8,61.5,350.7,61.5z M479.6,60.7
		c-0.6,0-1.3,0-2,0.1C477.2,60.5,478.9,60.7,479.6,60.7L479.6,60.7z M580.7,62c1.5,0.2,1.9,0,3.2,0.1
		C583.8,62.4,580.5,62.4,580.7,62z M589.9,62.8L589.9,62.8L589.9,62.8L589.9,62.8z M589.3,63c-0.3,0.1-0.7,0.1-1,0.1
		C588.2,63,588.8,63,589.3,63z M606.2,62.7c0-0.1-0.2-0.1-0.4-0.1h-0.1c-0.1,0-0.2,0-0.3,0c-0.3,0-0.5-0.1-0.4-0.2
		c1,0,0.9-0.2,2-0.1c0.2,0.1,0.4,0.2,0.8,0.2c0,0.2-1,0.2-1.4,0.3C606.3,62.7,606.2,62.7,606.2,62.7z M609.9,62.7
		c0.3-0.1,1-0.1,1.1-0.3c0.5,0.1,0.7,0.2,0.8,0.3C611.2,62.7,610.6,62.7,609.9,62.7z M734.7,18.9c-2.3-0.1-2.8,0-5.2-0.1
		c2.3,0.5-5,0.3-5.6,0c3.8-0.4,9,0.1,11.6-0.4C735.8,18.7,734.8,18.7,734.7,18.9z M733.5,19.2c-2.6,0.8-6.9,0.3-11,0.4
		c0.5-0.1,1.3-0.1,1.2-0.3c-0.3,0-0.6,0-1,0C725.7,19.2,729.9,19.3,733.5,19.2z M706.4,19c0.1,0,0.1,0,0.2-0.1c0.6,0,1.4,0,2,0.1
		C707.9,19,707.1,19,706.4,19z M606.7,13.9c-0.1,0-0.2,0-0.4,0C606.4,13.9,606.5,13.9,606.7,13.9z M595.1,14.5
		c-0.4,0.1-1,0.1-1.6,0.1c-0.7-0.2-2.8,0-4.1,0.2C590.8,14.4,592.3,14.1,595.1,14.5z M591.1,14.9c-0.2,0.1-0.3,0.2-0.4,0.3
		c-3.4-0.1-6.1,0-7.7-0.2c1.2-0.5,4.3-0.5,5.9-0.2c-0.5,0.1-0.8,0.1-0.8,0.1C588.8,14.9,590,14.9,591.1,14.9z M462.2,15.7
		c0.6,0,1.3,0,2-0.1C464.6,15.9,462.9,15.7,462.2,15.7L462.2,15.7z M361.1,14.4c-1.5-0.2-1.9,0-3.2-0.1C358,14,361.3,14,361.1,14.4z
		 M351.9,13.6L351.9,13.6L351.9,13.6L351.9,13.6z M352.5,13.4c0.3-0.1,0.7-0.1,1-0.1C353.6,13.4,353,13.4,352.5,13.4z M335.6,13.7
		c0,0.1,0.2,0.1,0.4,0.1h0.1c0.1,0,0.2,0,0.3,0c0.3,0,0.5,0.1,0.4,0.2c-1,0-0.9,0.2-2,0.1c-0.2-0.1-0.4-0.2-0.8-0.2
		c0-0.2,1-0.2,1.4-0.3C335.5,13.7,335.6,13.7,335.6,13.7z M331.9,13.7c-0.3,0.1-1,0.1-1.1,0.3c-0.5-0.1-0.7-0.2-0.8-0.3
		C330.6,13.7,331.2,13.7,331.9,13.7z M150.8,49.9L150.8,49.9L150.8,49.9L150.8,49.9z M133.3,53.2c0-0.2,1.1-0.1,0.8-0.4
		c1.3-0.1,1.4,0.2,2.8,0.1c-0.1,0.1-0.7,0.1-1.2,0.1c-0.1,0.1,0.1,0.2,0.4,0.2C135.9,53.4,133.6,53.3,133.3,53.2z M163.2,54.9
		c0.6,0.1,1.3,0.1,2,0.2c-1.3,0-2.5,0.1-3.6,0.1C162.1,55.1,162.4,54.9,163.2,54.9z M159.2,57.4c0.1-0.6,1.3,0,2.8-0.1
		C161.9,57.5,160,57.4,159.2,57.4z M161.1,55.5c0-0.3,1.9-0.2,2.4-0.1C163.5,55.6,161.8,55.4,161.1,55.5z M190.6,57.5
		c0.4-0.1,0.9-0.1,1.6-0.1c0,0.1-0.1,0.3,0.4,0.3C192.3,57.9,190.1,57.8,190.6,57.5z M203.5,58c-0.3-0.3,0.8-0.2,0.8-0.4
		c-3.2-0.3-6.5,0-7.7-0.7c2.8,0.1,3.9-0.1,6-0.3c0.5,0.1,0.8,0.3,1.6,0.3c-0.6,0.2-1,0.2-2,0.1c0.4,0.4,1.5,0.6,3.3,0.6
		C205.8,57.9,204.9,58,203.5,58z M206,58.4c0.3-0.4,1.4-0.1,2,0C207.9,58.7,206.2,58.5,206,58.4z M233,59.3c0-0.1,0-0.2,0-0.3
		c-6.3,0.3-14.2,0.4-21.3,0c-0.4,0-0.3,0.2-0.8,0.2c-0.9,0-1.7-0.1-2.4-0.2c0.1-0.3,2-0.2,3.2-0.2c0-0.1,0-0.3-0.4-0.3
		c3.9-0.2,11,0,16.9-0.6c1.3,0.1,2.5,0.2,3.2,0.5c1.2-0.1-0.3-0.3,0-0.5c1-0.1,1.9,0.4,2.4,0.1c1.2,0.1,0.5,0.1,0.4,0.4
		c2-0.2,3.5-0.3,4.8-0.2c0.4-0.3-1.3-0.2-2-0.2c0.2-0.1,0.6-0.1,0.9-0.2c0.9,0,1.9,0,2.9,0c0.6,0,1.1,0.1,1.5,0.2
		c0.3,0.4-1.8,0.7,0.4,0.7c-1.8,0.4-6.4-0.3-7.2,0.1c3.1,0.2,8.5-0.1,10.1,0.5C241.2,59.7,237.6,59.1,233,59.3z M246,57.6
		c0.2,0,0.5,0,0.7-0.1c-1.2,0.4,1,0.1,1.2,0.1c0,0,0,0,0,0.1c-0.9,0.2-0.9,0.3-0.5,0.7C246,58,245.6,57.7,246,57.6z M251.9,58.3
		c0-0.2-0.4-0.2-0.4-0.4c0.4,0,0.7,0,1.1,0c0.5,0.1,0.7,0.2,1.7,0.2C253.9,58.2,252.6,58.2,251.9,58.3z M262.1,57.7
		c0.5,0,1.1,0,1.6,0c-0.2,0-0.4,0-0.5,0.1C262.7,57.7,262.4,57.7,262.1,57.7z M269.5,57.5c0.6-0.2,2-0.3,3,0l0,0
		C271.6,57.5,270.5,57.5,269.5,57.5z M299.5,60.1c0.5-0.5,1.9-0.1,3.2-0.3C302.6,60.1,300.5,60,299.5,60.1z M310.1,61.9
		c-1.4,0.5-0.3-0.3-1.6-0.2c0.1-0.1,1-0.1,1.6-0.1c0,0.1-0.1,0.3,0.4,0.3C310.4,62,310.1,61.9,310.1,61.9z M310.8,60.3
		c0.5,0,1.1,0,1.6,0c0,0.1,0,0.2,0,0.3C311.6,60.5,310.7,60.5,310.8,60.3z M312.8,60.1c0-0.3,1.3-0.2,2.4-0.2c0,0.1,0,0.2,0,0.3
		C314.2,60.3,313.2,60.3,312.8,60.1z M306.3,59.8c1.1-0.6,9.1-0.4,13.3-0.6C316.5,59.7,309.2,59.6,306.3,59.8z M329,62.5
		c-0.5,0-1-0.2-0.4-0.2c-0.3-0.1-0.9-0.1-0.8-0.3c0.4,0.1,0.7,0.1,0.8,0c0.4,0,0.3,0.2,0.8,0.2C329.2,62.3,329,62.4,329,62.5z
		 M334.7,63.1c0.1-0.1,1-0.1,1.6-0.1c-0.1-0.1-0.7-0.1-1.2-0.1c-0.3-0.1,0.3-0.2,0.4-0.3c0.2,0,0.3,0,0.4,0c0.5,0.1,1,0.3,1.2,0.4
		C335.7,63,336.1,63.3,334.7,63.1z M346.7,62.6L346.7,62.6L346.7,62.6L346.7,62.6z M348,62.8c0.1,0,0.2-0.1,0.3-0.1
		c0.4,0,0.8,0.1,1.5,0.1c0.1,0,0.2-0.1,0.3-0.1c0.1,0,0.3,0,0.4,0C350.3,62.9,348.7,62.8,348,62.8z M357.7,62.5
		c-0.1,0-0.3,0-0.4-0.1c0.1-0.2-1.1-0.3-0.1-0.3c1.1,0.2,2.1,0.2,3.6,0.1l0.1,0.1C359.1,62.3,357.7,62.3,357.7,62.5z M361.2,62.3
		L361.2,62.3c0.9,0,1.2-0.2,2.4-0.1v0.1C362.8,62.3,362,62.3,361.2,62.3z M372.1,62.1c0.4,0,0.7-0.1,0.9-0.1c0.5,0,1,0,1.2,0.1
		C373.4,62.2,372.7,62.2,372.1,62.1z M391.1,63.3c-0.5-0.1-1.8-0.1-2.8-0.1c0-0.2-0.3-0.3-0.8-0.3c0-0.2,1-0.2,2-0.2
		c-0.7,0.2,0.3,0.2-0.4,0.4C389.8,63.1,391.5,62.9,391.1,63.3z M393.1,63.1c1.1-0.3,1.6-0.1,2.8,0C394.8,63.3,394.3,63.1,393.1,63.1
		z M417.2,62c0.4,0,0.9,0,1.3,0c0.7,0.1,1.3,0.2,1.5,0.5C418.8,62.4,417.6,62.3,417.2,62z M429,62c0.8,0,1.5,0,2.3,0
		C430.5,62.1,429.7,62.1,429,62z M471.9,61.2h0.1v0.1C472,61.3,471.9,61.3,471.9,61.2z M475.1,61.3L475.1,61.3
		c0.3-0.1,0.5-0.1,0.5,0c-0.2,0-0.3,0-0.3,0.1C475.2,61.4,475.1,61.4,475.1,61.3z M476.6,61.5c-0.4-0.1-0.9-0.1-0.6-0.3
		c1,0,1.2-0.1,1.9-0.2h0.1c0.4,0.1,0.9,0.1,1.4,0.1C479.1,61.3,477.8,61.6,476.6,61.5z M483.6,62c0.5-0.4,2.3-0.3,3.2-0.1
		C487.4,62,485.1,61.9,483.6,62z M485.9,61.2c0.1,0,0.2-0.1,0.3-0.1c0.1,0,0.3,0.1,0.4,0.1c-0.1,0-0.1,0-0.1,0.1
		c0.1,0,0.1,0,0.2-0.1c1.1,0.2,2.3,0.3,3.7,0.2C489.8,62,486.4,61.6,485.9,61.2z M490.8,61.7c-0.4-0.4,1.8-0.4,2.4-0.2
		C492.7,61.6,491.8,61.7,490.8,61.7z M494,61.5c1.6,0,3.9-0.1,4.8,0.1C498,61.8,494.5,61.9,494,61.5z M500.5,61.3
		c-0.3,0-0.4-0.1-0.5-0.1c0.2,0,0.5,0,0.7,0C500.5,61.3,500.4,61.3,500.5,61.3z M502.7,61.2c0.1,0,0.2,0,0.3,0
		C502.9,61.2,502.9,61.2,502.7,61.2C502.8,61.2,502.8,61.2,502.7,61.2z M510.1,61.3c-2.6-0.1-2.9-0.1-5.2,0.1
		c0.1-0.1-0.2-0.2-0.3-0.3c1.8,0,3.5-0.1,5.3-0.1C510.1,61.1,510.3,61.2,510.1,61.3z M510.7,61.1c0.5,0,1,0,1.5,0
		c0,0.1-0.5,0.2-0.1,0.2l0,0C511.4,61.3,511,61.2,510.7,61.1z M513,61.8c0-0.1,0-0.3,0-0.4c0.2,0,0.4,0,0.7,0c-0.1,0-0.1,0-0.1,0.1
		c0.4,0,1,0,1.4,0.1c-0.2,0-0.3,0.1-0.3,0.1c0.4,0.1,0.7,0,1.1,0c0.1,0,0.2,0,0.2-0.1c0.5-0.1,1.2-0.3,2.3-0.2
		C516.9,61.7,515.1,62.2,513,61.8z M519.8,61.9c0.1-0.1,1-0.1,1.6-0.1c0,0.1,0,0.2,0,0.3C520.2,62.2,520.4,61.9,519.8,61.9z
		 M522.2,61.5c1.2-0.1,2.3,0.3,1.2,0.4c-0.9-0.3-1.7-0.1-3.2-0.3c0-0.1-0.3-0.1-0.4-0.2c1.9,0,1.6-0.6,0.4-0.1
		c-1.5-0.1-3.1-0.1-4.5-0.2c4.9-0.3,12.6-0.8,10.7,0.1c0.3,0,0.8,0,0.8,0.1c-0.3,0-0.6,0-0.9,0c-0.5-0.1-1-0.2-1.3-0.2
		C525.3,61.7,523,61.1,522.2,61.5z M527.5,61.1c0.2-0.1,0.3-0.1,0.3-0.1c0.9-0.1,1.1,0,2,0.1c0-0.2-1.1-0.3-2-0.4h0.1
		c1.5,0.1,2.3,0.2,3.2,0.2c0.2,0.1,0.4,0.2,0.7,0.2c0.1-0.1,0.2-0.1,0.3-0.2c0.4,0,0.8,0,1.3,0l0,0l0,0h0.1
		C532.7,61.3,529.6,61.1,527.5,61.1z M534.4,61c-0.1-0.1,0-0.2,0.2-0.2c0.5,0.1,1,0.1,1.2,0c0.5,0,0.9,0.1,1,0.1
		C536.5,61.1,535,61.2,534.4,61z M573.9,62.2c-0.1-0.2,0.4-0.2,0.4-0.3c1.3,0,1.7,0.2,3.2,0.1C577.4,62.3,574.8,62.3,573.9,62.2z
		 M576.3,62.5c1.1,0,2.3-0.1,3.5,0C578.5,62.6,577.1,62.8,576.3,62.5z M581.6,62.5c0.5,0,1,0,1.5,0.1c-0.3,0-0.6,0.1-0.8,0.1
		C582,62.6,581.8,62.5,581.6,62.5z M594,63.8c0.7,0.2,0.8,0,1.5-0.1c0.4,0,0.8,0.1,1.1,0.2c-1,0-1.8,0-2.5,0
		C594,63.9,594,63.8,594,63.8z M594.2,64.3c0.2,0,0.4-0.1,0.6-0.1c0.1,0,0.3,0,0.4,0c0.6,0,1.2,0,1.9,0
		C596.6,64.6,595.6,64.2,594.2,64.3z M597.8,64.5c0.4-0.2,1.2-0.2,2.4-0.2C600,64.5,598.7,64.7,597.8,64.5z M599.1,63
		c0.2,0,0.3-0.1,0.5-0.1c0.5,0,1.1,0.1,1.4,0.1C600.6,63.4,599.6,63.2,599.1,63z M611.5,65c-0.5,0.1-1.5,0.1-2,0
		C609.4,64.7,611.7,64.6,611.5,65z M610.6,62.9c0.3-0.1,0.7-0.1,1.2-0.1l0,0C611.5,62.9,611.1,62.9,610.6,62.9z M622.3,63.8
		c-0.1,0.2,0.3,0.2,0.8,0.2c-0.8,0.3-1.5-0.3-2.8,0c0.1-0.1-0.1-0.2-0.4-0.2C620.8,63.6,620.7,64,622.3,63.8z M659.3,63
		c0.6,0,1.1,0,1.6,0C660.1,63,659.6,63.3,659.3,63z M676.6,63.4c-1.3-0.3-2.3-0.2-3.6-0.3C673.7,62.9,677.4,62.8,676.6,63.4z
		 M672.2,69.8c0.3-0.2,1.9-0.3,2.4-0.2C674.3,69.8,673.4,69.8,672.2,69.8z M675.1,70.5c-0.5,0-1.1,0-1.6,0
		C673.1,70.1,675.4,70.1,675.1,70.5z M681.9,70.1c-2,0-3.6-0.4-5.2-0.2c-0.4-0.1-0.3-0.4-1.6-0.3c2.2-0.5,5.9,0,8-0.1
		C682.4,69.6,682,69.8,681.9,70.1z M679.1,64.8c0-0.1,0-0.2,0-0.3c2-0.2,3,0.1,5.2,0.2C682.8,64.9,681.1,64.6,679.1,64.8z
		 M694.1,65.1c-1.9-0.3-5.8-0.5-6.4-0.1c-0.7,0-0.9-0.2-0.8-0.4c-1.2,0.1-0.4,0.2-0.4,0.4c-1.2,0-1-0.4-2-0.5
		c3.4-0.3,6.1,0.3,10.1,0C694,64.8,694.3,64.7,694.1,65.1z M698.1,65c-0.9-0.2-1.6,0-2.8,0c0-0.4,1.7-0.4,3.2-0.4
		C698.5,64.8,698,64.8,698.1,65z M762.9,71.6c-1.1,0-0.3-0.4-1.6-0.3c1-0.4,2.1,0.1,3.6,0.1C765.1,71.7,762.7,71.3,762.9,71.6z
		 M783.4,70.6c-2,0.3-3.4,0.3-5.6,0.3c-0.5-0.1-0.5-0.4,0-0.5c-1.3-0.1-2.8-0.2-3.6-0.4c2.3-0.2,4.6,0.2,6.8-0.2
		c1.4,0,0.8,0.5,2.4,0.4C783.8,70.4,782.2,70.5,783.4,70.6z M791,26.5L791,26.5L791,26.5L791,26.5z M808.5,23.2
		c0,0.2-1.1,0.1-0.8,0.4c-1.3,0.1-1.4-0.2-2.8-0.1c0.1-0.1,0.7-0.1,1.2-0.1c0.1-0.1-0.1-0.2-0.4-0.2C805.9,23,808.2,23.1,808.5,23.2
		z M778.6,21.5c-0.6-0.1-1.3-0.1-2-0.2c1.3-0.1,2.5-0.1,3.6-0.1C779.7,21.3,779.4,21.5,778.6,21.5z M782.6,19
		c-0.1,0.6-1.3,0-2.8,0.1C779.9,18.9,781.8,19,782.6,19z M780.7,20.9c0,0.3-1.9,0.2-2.4,0.1C778.3,20.8,780,21,780.7,20.9z
		 M751.2,18.9c-0.4,0.1-0.9,0.1-1.6,0.1c0-0.1,0.1-0.3-0.4-0.3C749.5,18.5,751.7,18.6,751.2,18.9z M738.3,18.4
		c0.3,0.3-0.8,0.2-0.8,0.4c3.2,0.3,6.5,0,7.7,0.7c-2.8-0.1-3.9,0.1-6,0.3c-0.5-0.1-0.8-0.3-1.6-0.3c0.6-0.2,1-0.2,2-0.1
		c-0.4-0.4-1.5-0.6-3.3-0.6C736,18.5,736.9,18.4,738.3,18.4z M735.8,18c-0.3,0.4-1.4,0.1-2,0C733.9,17.7,735.6,17.9,735.8,18z
		 M708.8,17.1c0,0.1,0,0.2,0,0.3c6.3-0.3,14.2-0.4,21.3,0c0.4,0,0.3-0.2,0.8-0.2c0.9,0,1.7,0.1,2.4,0.2c-0.1,0.3-2,0.2-3.2,0.2
		c0,0.1,0,0.3,0.4,0.3c-3.9,0.2-11,0-16.9,0.6c-1.3-0.1-2.5-0.2-3.2-0.5c-1.2,0.1,0.3,0.3,0,0.5c-1,0.1-1.9-0.4-2.4-0.1
		c-1.2-0.1-0.5-0.1-0.4-0.4c-2,0.2-3.5,0.3-4.8,0.2c-0.4,0.3,1.3,0.2,2,0.2c-0.2,0.1-0.6,0.1-0.9,0.2c-0.9,0-1.9,0-2.9,0
		c-0.6,0-1.1-0.1-1.5-0.2c-0.3-0.4,1.8-0.7-0.4-0.7c1.8-0.4,6.4,0.3,7.2-0.1c-3.1-0.2-8.5,0.1-10.1-0.5
		C700.6,16.7,704.2,17.3,708.8,17.1z M695.8,18.8c-0.2,0-0.5,0-0.7,0.1c1.2-0.4-1-0.1-1.2-0.1c0,0,0,0,0-0.1
		c0.9-0.2,0.9-0.3,0.5-0.7C695.8,18.4,696.2,18.7,695.8,18.8z M689.9,18.1c0,0.2,0.4,0.2,0.4,0.4c-0.4,0-0.7,0-1.1,0
		c-0.5-0.1-0.7-0.2-1.7-0.2C687.9,18.2,689.2,18.2,689.9,18.1z M679.7,18.7c-0.5,0-1.1,0-1.6,0c0.2,0,0.4,0,0.5-0.1
		C679.1,18.7,679.4,18.7,679.7,18.7z M672.3,18.9c-0.6,0.2-2,0.3-3,0l0,0C670.2,18.9,671.3,18.9,672.3,18.9z M642.3,16.3
		c-0.5,0.5-1.9,0.1-3.2,0.3C639.2,16.3,641.3,16.4,642.3,16.3z M631.7,14.5c1.4-0.5,0.3,0.3,1.6,0.2c-0.1,0.1-1,0.1-1.6,0.1
		c0-0.1,0.1-0.3-0.4-0.3C631.4,14.4,631.7,14.5,631.7,14.5z M631,16.1c-0.5,0-1.1,0-1.6,0c0-0.1,0-0.2,0-0.3
		C630.2,15.9,631.1,15.9,631,16.1z M629,16.3c0,0.3-1.3,0.2-2.4,0.2c0-0.1,0-0.2,0-0.3C627.6,16.1,628.6,16.1,629,16.3z M635.5,16.6
		c-1.2,0.6-9.1,0.4-13.3,0.6C625.3,16.7,632.6,16.8,635.5,16.6z M612.8,13.9c0.5,0,1,0.2,0.4,0.2c0.3,0.1,0.9,0.1,0.8,0.3
		c-0.4-0.1-0.7-0.1-0.8,0c-0.4,0-0.3-0.2-0.8-0.2C612.6,14.1,612.8,14,612.8,13.9z M607.1,13.3c-0.1,0.1-1,0.1-1.6,0.1
		c0.1,0.1,0.7,0.1,1.2,0.1c0.3,0.1-0.3,0.2-0.4,0.3c-0.2,0-0.3,0-0.4,0c-0.5-0.1-1-0.3-1.2-0.4C606.1,13.4,605.7,13.1,607.1,13.3z
		 M595.1,13.8L595.1,13.8L595.1,13.8L595.1,13.8z M593.8,13.6c-0.1,0-0.2,0.1-0.3,0.1c-0.4,0-0.8-0.1-1.5-0.1
		c-0.1,0-0.2,0.1-0.3,0.1s-0.3,0-0.4,0C591.5,13.5,593.1,13.6,593.8,13.6z M584.1,13.9c0.1,0,0.3,0,0.4,0.1
		c-0.1,0.2,1.1,0.3,0.1,0.3c-1.1-0.2-2.1-0.2-3.6-0.1l-0.1-0.1C582.7,14.1,584.1,14.1,584.1,13.9z M580.6,14.1L580.6,14.1
		c-0.9,0-1.2,0.2-2.4,0.1v-0.1C579,14.1,579.8,14.1,580.6,14.1z M569.7,14.3c-0.4,0-0.7,0.1-0.9,0.1c-0.5,0-1,0-1.2-0.1
		C568.4,14.2,569.1,14.2,569.7,14.3z M550.7,13.1c0.5,0.1,1.8,0.1,2.8,0.1c0,0.2,0.3,0.3,0.8,0.3c0,0.2-1,0.2-2,0.2
		c0.7-0.2-0.3-0.2,0.4-0.4C552,13.3,550.3,13.5,550.7,13.1z M548.7,13.3c-1.1,0.3-1.6,0.1-2.8,0C547,13.1,547.5,13.3,548.7,13.3z
		 M524.6,14.4c-0.4,0-0.9,0-1.3,0c-0.7-0.1-1.3-0.2-1.5-0.5C523,14,524.2,14.1,524.6,14.4z M512.8,14.4c-0.8,0-1.5,0-2.3,0
		C511.3,14.3,512.1,14.3,512.8,14.4z M469.9,15.2h-0.1v-0.1C469.8,15.1,469.9,15.1,469.9,15.2z M466.7,15.1L466.7,15.1
		c-0.3,0.1-0.5,0.1-0.5,0c0.2,0,0.3,0,0.3-0.1C466.6,15,466.7,15,466.7,15.1z M465.2,14.9c0.4,0.1,0.9,0.1,0.6,0.3
		c-1,0-1.2,0.1-1.9,0.2h-0.1c-0.4-0.1-0.9-0.1-1.4-0.1C462.7,15.1,464,14.8,465.2,14.9z M458.2,14.4c-0.5,0.4-2.3,0.3-3.2,0.1
		C454.4,14.4,456.7,14.5,458.2,14.4z M455.9,15.2c-0.1,0-0.2,0.1-0.3,0.1c-0.1,0-0.3-0.1-0.4-0.1c0.1,0,0.1,0,0.1-0.1
		c-0.1,0-0.1,0-0.2,0.1c-1.1-0.2-2.3-0.3-3.7-0.2C452,14.4,455.4,14.8,455.9,15.2z M451,14.7c0.4,0.4-1.8,0.4-2.4,0.2
		C449.1,14.8,450,14.7,451,14.7z M447.8,14.9c-1.6,0-3.9,0.1-4.8-0.1C443.8,14.6,447.3,14.5,447.8,14.9z M441.3,15.1
		c0.3,0,0.4,0.1,0.5,0.1c-0.2,0-0.5,0-0.7,0C441.3,15.1,441.4,15.1,441.3,15.1z M439.1,15.2c-0.1,0-0.2,0-0.3,0
		C438.9,15.2,438.9,15.2,439.1,15.2C439,15.2,439,15.2,439.1,15.2z M431.7,15.1c2.6,0.1,2.9,0.1,5.2-0.1c-0.1,0.1,0.2,0.2,0.3,0.3
		c-1.8,0-3.5,0.1-5.3,0.1C431.7,15.3,431.5,15.2,431.7,15.1z M431.1,15.3c-0.5,0-1,0-1.5,0c0-0.1,0.5-0.2,0.1-0.2l0,0
		C430.4,15.1,430.8,15.2,431.1,15.3z M428.8,14.6c0,0.1,0,0.3,0,0.4c-0.2,0-0.4,0-0.7,0c0.1,0,0.1,0,0.1-0.1c-0.4,0-1,0-1.4-0.1
		c0.2,0,0.3-0.1,0.3-0.1c-0.4-0.1-0.7,0-1.1,0c-0.1,0-0.2,0-0.2,0.1c-0.5,0.1-1.2,0.3-2.3,0.2C424.9,14.7,426.7,14.2,428.8,14.6z
		 M422,14.5c-0.1,0.1-1,0.1-1.6,0.1c0-0.1,0-0.2,0-0.3C421.6,14.2,421.4,14.5,422,14.5z M419.6,14.9c-1.2,0.1-2.3-0.3-1.2-0.4
		c0.9,0.3,1.7,0.1,3.2,0.3c0,0.1,0.3,0.1,0.4,0.2c-1.9,0-1.6,0.6-0.4,0.1c1.5,0.1,3.1,0.1,4.5,0.2c-4.9,0.3-12.6,0.8-10.7-0.1
		c-0.3,0-0.8,0-0.8-0.1c0.3,0,0.6,0,0.9,0c0.5,0.1,1,0.2,1.3,0.2C416.5,14.7,418.8,15.3,419.6,14.9z M414.3,15.3
		c-0.2,0.1-0.3,0.1-0.3,0.1c-0.9,0.1-1.1,0-2-0.1c0,0.2,1.1,0.3,2,0.4h-0.1c-1.5-0.1-2.3-0.2-3.2-0.2c-0.2-0.1-0.4-0.2-0.7-0.2
		c-0.1,0.1-0.2,0.1-0.3,0.2c-0.4,0-0.8,0-1.3,0l0,0l0,0h-0.1C409.1,15.1,412.2,15.3,414.3,15.3z M407.4,15.4c0.1,0.1,0,0.2-0.2,0.2
		c-0.5-0.1-1-0.1-1.2,0c-0.5,0-0.9-0.1-1-0.1C405.3,15.3,406.8,15.2,407.4,15.4z M367.9,14.2c0.1,0.2-0.4,0.2-0.4,0.3
		c-1.3,0-1.7-0.2-3.2-0.1C364.4,14.1,367,14.1,367.9,14.2z M365.5,13.9c-1.1,0-2.3,0.1-3.5,0C363.3,13.8,364.7,13.6,365.5,13.9z
		 M360.2,13.9c-0.5,0-1,0-1.5-0.1c0.3,0,0.6-0.1,0.8-0.1C359.8,13.8,360,13.9,360.2,13.9z M347.8,12.6c-0.7-0.2-0.8,0-1.5,0.1
		c-0.4,0-0.8-0.1-1.1-0.2c1,0,1.8,0,2.5,0C347.8,12.5,347.8,12.6,347.8,12.6z M347.6,12.1c-0.2,0-0.4,0.1-0.6,0.1
		c-0.1,0-0.3,0-0.4,0c-0.6,0-1.2,0-1.9,0C345.2,11.8,346.2,12.2,347.6,12.1z M344,11.9c-0.4,0.2-1.2,0.2-2.4,0.2
		C341.8,11.9,343.1,11.7,344,11.9z M342.7,13.4c-0.2,0-0.3,0.1-0.5,0.1c-0.5,0-1.1-0.1-1.4-0.1C341.2,13,342.2,13.2,342.7,13.4z
		 M330.3,11.4c0.5-0.1,1.5-0.1,2,0C332.4,11.7,330.1,11.8,330.3,11.4z M331.2,13.5c-0.3,0.1-0.7,0.1-1.2,0.1l0,0
		C330.3,13.5,330.7,13.5,331.2,13.5z M319.5,12.6c0.1-0.2-0.3-0.2-0.8-0.2c0.8-0.3,1.5,0.3,2.8,0c-0.1,0.1,0.1,0.2,0.4,0.2
		C321,12.8,321.1,12.4,319.5,12.6z M282.5,13.4c-0.6,0-1.1,0-1.6,0C281.7,13.4,282.2,13.1,282.5,13.4z M265.2,13
		c1.3,0.3,2.3,0.2,3.6,0.3C268.1,13.5,264.4,13.6,265.2,13z M269.6,6.6c-0.3,0.2-1.9,0.3-2.4,0.2C267.5,6.6,268.4,6.6,269.6,6.6z
		 M266.7,5.9c0.5,0,1.1,0,1.6,0C268.7,6.3,266.4,6.3,266.7,5.9z M259.9,6.3c2,0,3.6,0.4,5.2,0.2c0.4,0.1,0.3,0.4,1.6,0.3
		c-2.2,0.5-5.9,0-8,0.1C259.4,6.8,259.8,6.6,259.9,6.3z M262.7,11.6c0,0.1,0,0.2,0,0.3c-2,0.2-3-0.1-5.2-0.2
		C259,11.5,260.7,11.8,262.7,11.6z M247.7,11.3c1.9,0.3,5.8,0.5,6.4,0.1c0.7,0,0.9,0.2,0.8,0.4c1.2-0.1,0.4-0.2,0.4-0.4
		c1.2,0,1,0.4,2,0.5c-3.4,0.3-6.1-0.3-10.1,0C247.8,11.6,247.5,11.7,247.7,11.3z M243.7,11.4c0.9,0.2,1.6,0,2.8,0
		c0,0.4-1.7,0.4-3.2,0.4C243.3,11.6,243.8,11.6,243.7,11.4z M178.9,4.8c1.1,0,0.3,0.4,1.6,0.3c-1,0.4-2.1-0.1-3.6-0.1
		C176.7,4.7,179.1,5.1,178.9,4.8z M158.4,5.8c2-0.3,3.4-0.3,5.6-0.3c0.5,0.1,0.5,0.4,0,0.5c1.3,0.1,2.8,0.2,3.6,0.4
		c-2.3,0.2-4.6-0.2-6.8,0.2c-1.4,0-0.8-0.5-2.4-0.4C158,6,159.6,5.9,158.4,5.8z M127.3,11c1.6,0.3,4,0.3,4.1,1
		c-1.3,0.1-3.1,0.1-2.4,0.5C126,12.6,124.8,11.4,127.3,11z M116.6,46c0-0.2-0.5-0.2-0.4-0.4c1,0,1.9,0,2.4,0.1
		C118.8,46,117.8,46,116.6,46z M108.8,11c-1.9-0.2-4.3,0.4-4.8-0.1C105,10.8,108.5,10.5,108.8,11z M82.4,14.2
		c-0.7,0-0.9-0.1-1.6-0.1c-0.4-0.3,0.6-0.3,0.4-0.5C81.7,13.8,82.6,13.9,82.4,14.2z M87.6,13.6c-0.1,0.8,1.4,1-0.3,1.5
		c-1.5,0.1-1.9-0.2-2.8-0.3c-0.4-0.9-0.2-0.9,0.7-1.6c1.1-0.1,3.2,0,2.8-0.4c0.5,0.1,1.5,0.1,2,0.2C90.4,13.5,88.5,13.4,87.6,13.6z"
		/>
	<path class="st0" d="M233,58.8C233,58.9,233,58.9,233,58.8c0.7,0.1,1.4,0,2,0C234.3,58.8,233.6,58.8,233,58.8z"/>
	<path class="st0" d="M811.9,26.4c-1.8,0-1.9,0.1-3.6,0C808.4,26.9,811.4,26.5,811.9,26.4z"/>
	<path class="st0" d="M538.8,62.9c0.1-0.3,1.6-0.3,2-0.6c-1.5,0.2-0.8-0.3-2-0.2C540.7,62.5,537.7,62.6,538.8,62.9z"/>
	<path class="st0" d="M496.9,11.1c-1.4-0.1-4.1-0.3-5.2-0.1C493.3,11.1,496.2,11.2,496.9,11.1z"/>
	<path class="st0" d="M471.2,11.3c1.5,0.1,2.9,0.3,4,0C473.7,11.4,471.7,11.1,471.2,11.3z"/>
	<path class="st0" d="M428.5,11.2c1.4-0.1,2.1-0.3,3.2-0.4c-0.2,0-0.5,0-0.4-0.1c-0.3,0-0.5,0-0.8,0
		C430.2,11.1,428.4,10.9,428.5,11.2z"/>
	<path class="st0" d="M401.1,10.9c0.7-0.3,2.5-0.1,3.6,0c1-0.2-0.9-0.5,0.8-0.6c2.6,0.3,6.8-0.3,8.1,0.3c-1.4,0.3-5.8-0.3-6.8,0.4
		c2.3,0,5.1-0.3,6.9,0.2c0.4-0.1,0.8-0.2,1.2-0.3c1.5,0.2-0.3,0.2,0.4,0.3c0.7-0.3,3.9,0.2,2-0.2c3.4,0.3,6.4,0.4,9.7,0.2
		c-2.7,0-2.9-0.2-4.5-0.4c2.7-0.3,4.3,0.4,6,0c-0.6,0-0.3-0.2,0-0.3c-1.1,0-2.4,0.1-2.4-0.2c0.4-0.2,3.3,0.2,3.6-0.2
		c-10.1,0.2-18.1,0.1-28.2,0.1c0.6,0.1,1.9,0.1,2.4,0.3c-0.3,0-0.8,0-0.8,0.1c0.3,0,0.8,0,0.8,0.1C402.4,10.5,400.1,10.7,401.1,10.9
		z M422,10.7c0.1,0.3-1.7,0.4-2.4,0.2C420,10.7,420.9,10.7,422,10.7z"/>
	<path class="st0" d="M402,13.1c-1.6,0.1-3.9,0-5.2,0.2C398.6,13.6,400.8,13.3,402,13.1z"/>
	<path class="st0" d="M399.6,12.9c-0.1-0.2,0.1-0.4-0.4-0.4c0,0.6-1.5,0.3-2.8,0.2C396.1,13.3,398.5,12.9,399.6,12.9z"/>
	<path class="st0" d="M384.2,10.5c-0.3,0-0.5-0.1-0.4-0.2c-1.5,0.2-3.1-0.1-4,0.1C381.1,10.6,382.8,10.8,384.2,10.5z"/>
	<path class="st0" d="M382.2,62.6c0.8,0.2,1.2,0.7,1.2,0.5C384.5,62.9,383.2,62.5,382.2,62.6z"/>
	<path class="st0" d="M375.9,13.4c1.7-0.1,2.3,0.1,3.2-0.3c-0.8,0-0.9-0.1-1.6-0.1C378,13.3,374.9,13.3,375.9,13.4z"/>
	<path class="st0" d="M359.2,62.7c-1.6,0-2.9-0.2-3.6,0.1c0.8,0.1,2.7,0.2,1.6,0.5c0.9-0.3,4.2,0.2,3.6,0
		C359.9,63.1,357.4,62.9,359.2,62.7z"/>
	<path class="st0" d="M356.2,73.1c-0.3,0.1-0.3,0.1-1.5,0.6c1.8-0.1,3.4-0.2,3.6-0.7C357.7,73,356.2,72.8,356.2,73.1z"/>
	<path class="st0" d="M343.9,10.2c-1.4,0.1-2.8-0.2-3.2,0C341.9,10.2,343.4,10.6,343.9,10.2z"/>
	<path class="st0" d="M308.2,64c-0.7,0-1-0.1-1.2,0c1.4,0.2-1.5,0.1-1.6,0.3c0.9,0.1,3.5,0.1,3.2-0.1
		C306.9,64.2,307.6,64.1,308.2,64z"/>
	<path class="st0" d="M261.8,63.5c-1.9,0.2-2.9-0.3-3.6-0.1c0.5,0.1,1.5,0.1,1.6,0.3c-1.9,0-4.8-0.5-4,0c0.7-0.2,2.4,0.1,2.8,0.3
		C259.1,63.8,263,63.4,261.8,63.5z"/>
	<path class="st0" d="M248.9,62.5c-0.2,0.5-1.9,0.9-0.3,1.2c-0.1-0.2,0.5-0.2,0.8-0.3c-1.2-0.2-0.8-0.8,1.6-0.7
		C251.3,62.4,249.7,62.6,248.9,62.5z"/>
	<path class="st0" d="M241.7,62.9c-0.8,0.1,0.8,0.4,0.4,0.7c-0.5,0-1.1,0-1.6,0c0-0.2,0-0.3,0-0.5c-1.3,0.3-3.7,0.2-2.8,0.6
		c-0.6-0.2-1.7-0.1-2,0.1c3.1,0.1,3.9-0.2,6.4,0c0-0.1,0.1-0.2,0.8-0.2C241.8,63.4,243.1,63,241.7,62.9z"/>
	<path class="st0" d="M223.9,67.7c0.7,0.1,2.7,0,2,0.5C228.8,68.2,224.8,67.4,223.9,67.7z"/>
	<path class="st0" d="M207.4,62.4c0.5,0,0.9,0.1,1.2,0.2C213.1,62.4,208.3,62.3,207.4,62.4z"/>
	<path class="st0" d="M205,62.9c0.4,0.3,2.2,0.4,3.2,0.3c-0.3-0.2-1.8-0.4-0.8-0.6c-2.2-0.1-3.4,0.1-4.8,0.2
		c1.2,0.3-1.1,0.4-0.4,0.5c0.5-0.1,1.9-0.1,2.4,0C205.2,63,204.4,63,205,62.9z"/>
	<path class="st0" d="M202.7,62.1c0.1,0,0.2,0,0.3-0.1C202.9,62,202.8,62,202.7,62.1z"/>
	<path class="st0" d="M199.4,62.1c0.1,0.3-0.6,0.3-1.2,0.4c-0.1-0.2-1.8,0-2-0.2c-0.4,0.1-0.1,0.4-1.2,0.3c-14,0-20.8-0.1-33-0.1
		c0.2,0.7-1.4-0.1-2,0.2c0.8,0.5,1.7,0.4,3.7,0.6c0.3-0.3-1.1-0.2-1.2-0.4c0.6,0,0.9-0.1,1.2-0.1c-0.5,0.4,2.1,0.3,0.8,0.6
		c5.8-0.2,12.7-0.6,21.3-0.4c0-0.2,0.3-0.3,0.8-0.3c1,0.2,1.1,0.1,2.8,0.1c-0.4,0.3-0.2,0.4,0.8,0.5c0.1-0.1-0.1-0.3,0.4-0.3
		c3.9,0,10.1-0.5,12.1-1C201.9,62.2,200.3,62,199.4,62.1z"/>
	<path class="st0" d="M159.3,0.8c0-0.2,0.1-0.3,0.4-0.4c-1.1,0-2.2,0-2-0.3c-1.4,0.1-2.1-0.3-2.4,0.1c0.6,0,0.5,0.2,0.8,0.3
		C157.6,0.3,158.8,0.4,159.3,0.8z"/>
	<path class="st0" d="M159.3,58.5c0-0.1-0.2-0.2-0.4-0.3c0.7,0,1-0.1,1.2-0.2c-2.4,0.1-3.7,0.1-6,0.2c2.6,0-0.2,0.3-0.8,0.4
		C155.2,58.4,157,58.2,159.3,58.5z"/>
	<path class="st0" d="M148.8,58.2c-0.7,0-1.3,0-1.6-0.1c-0.4,0.3,2,0.7,1.2,0.4C147.2,58.4,149,58.3,148.8,58.2z"/>
	<path class="st0" d="M146.1,60.9c0.2,0,0.5,0,0.4-0.1c-1-0.1-2.3,0-4-0.1c0-0.2,0-0.3-0.8-0.3c-0.4,0.7,3.9,0.2,4.5,0.7
		C146.1,61,146.1,61,146.1,60.9z"/>
	<path class="st0" d="M135.6,66.6c-0.7,0.3-1.4,0.1-2,0.4c0.7,0,1,0.1,1.2,0.2c-1.3,0.1-1.3,0-2.8,0c-0.1,0.2,0.5,0.2,0.4,0.4
		c-1.4-0.1-2.3,0.2-3.2,0.3c1.2,0,1.3,0.2,2.4,0.2c1.1-0.4,2.2-0.3,4.8-0.4c-0.1-0.2,0.5-0.2,0.8-0.3c-1,0-1.4-0.2-2-0.3
		C135.6,67,136.5,66.6,135.6,66.6z"/>
	<path class="st0" d="M134.4,46.8c0.2,0.2-3.1-0.3-2,0c1.1,0.1,1.6,0.3,2.8,0.4c0.1-0.2-0.6-0.2-0.8-0.3
		C134.6,46.9,134.8,46.8,134.4,46.8z"/>
	<path class="st0" d="M102.7,48.9c1.7-0.4,0.6,0.4,1.2,0.4c1.6-0.1,3.7,0.4,5.6,0.1c0.6,0.1,0.1,0.4,0.8,0.4
		c0.7-0.6,2.8,0.2,3.6-0.4c2.4,0.4,7.9,0.4,10.1,0.5c-0.6,0-1.3,0.1-2.2,0.2c2.9,0,6.3,0.1,7.6-0.3c-3,0.1-4,0-5.2,0.1
		c-0.1-0.1,0.3-0.3,0.6-0.4c1.3,0.3,5.1-0.4,3.6,0.1c1.5,0,1.8-0.2,2.4-0.4c-3.3,0.2-6.4,0-8.4,0.4c-2.1-0.8-8.4,0.3-7.7-0.8
		c-2,0.3-2.1,0.1-4.4,0c0.1,0.2-0.1,0.4-0.8,0.4c-1.6-0.2-2.7-0.3-4.4-0.2C104.9,48.7,102,48.5,102.7,48.9z"/>
	<path class="st0" d="M94.2,54.6c1.3,0.6,5.8,0.8,7.7,1.5c1.7,0,2.9,0.2,3.7,0.5c0.7,0,1.3,0,1.6-0.1c0.7,0.8,9.9,0.6,8.9,1.2
		c1.5-0.2,2.6-0.4,4.8-0.4c0.1-0.2-0.8-0.2-0.4-0.5c1.2,0,2,0,2.4-0.2c-2.5,0-2.8,0.5-4.8,0.5c0.3-0.4-0.9-0.5-1.6-0.3
		c-0.6,0.4,1.4,0.1,1.2,0.3c-0.6,0-0.3,0.3-1.2,0.2c0.8-0.6-3.4,0-4.5-0.4c0-0.2,0.2-0.3,0.8-0.4c2.9,0.1,1.5-0.2,2.8-0.4
		c1.3-0.1,1.1,0.3,2,0.3c0.2-0.5,2.4-0.5,4-0.4c3.4-0.3,6.2-1.3,9.2-1.4c-3.1-0.1-5.9,0.3-7.7-0.4c1.1-0.3,2.1,0.1,3.6,0
		c-0.3-0.3,0.8-0.2,0.8-0.4c-1.3,0.1-7,0.2-5.3-0.5c-1.5,0.1-2.2-0.2-2.8,0c-0.6,0.4,2.1,0,2,0.3c-2.8,0.3-3.1,0.7-5.2,1
		c2.8,0.2,3.9-0.5,5.2-0.3c-5.4,1.3-17.5,0-24.5,0.3C97.7,54.4,95.4,54.7,94.2,54.6z"/>
	<path class="st0" d="M126,48.4c-1.8,0-1.2-0.3-1.6-0.5c-0.6,0.2-0.8,0.2-0.4,0.5C125,48.3,126,48.6,126,48.4z"/>
	<path class="st0" d="M103.9,48.5c1.9,0.2,3.7,0.1,5.2,0.2C108.8,48.3,104.3,48.5,103.9,48.5z"/>
	<path class="st0" d="M109.4,53.1c-2.1-0.1-6.6-1-6.9-0.2C104.1,53.2,106.9,53.1,109.4,53.1z"/>
	<path class="st0" d="M94.2,29.3c0.5-0.4-3.3-0.6-2.4-0.5C93,28.9,92.6,29.3,94.2,29.3z"/>
	<path class="st0" d="M156,64.1c0.5,0.8-1,1.1-3.1,1.3c0.1-0.5-2.3-0.4-2.9-0.7c0.2,0.4-1.4,0.3-1.2,0.5c-0.2-0.1-0.6-0.2-1.2-0.3
		c0.1,0.5-2.5,0.3-4,0.4c0.1,0.4,0.5,0.3,0,0.6c1.9,0.3,5.9,0.3,7.3,0.5c3.6-0.6,8.9,0.8,13.7,0.6c3.2-0.2,4.9-1.1,3.5-2.3
		C165.7,64,160.2,63.4,156,64.1z"/>
</g>
</svg>
