<?xml version="1.0" encoding="utf-8"?>
<!-- Generator: Adobe Illustrator 22.1.0, SVG Export Plug-In . SVG Version: 6.00 Build 0)  -->
<svg version="1.1" id="Layer_1" xmlns="http://www.w3.org/2000/svg" xmlns:xlink="http://www.w3.org/1999/xlink" x="0px" y="0px"
	 viewBox="0 0 1280 125" style="enable-background:new 0 0 1280 125;" xml:space="preserve">
<style type="text/css">
	.st0{fill:#F83B3F;}
</style>
<g>
	<path class="st0" d="M364.4,37.6C364.4,37.6,364.5,37.6,364.4,37.6c0.1-0.3,0.1-0.6,0.1-0.9c0,0,0,0-0.1,0l0,0
		c-0.6,0.1-0.9,0.5-1.1,1l0,0l0,0C363.7,37.6,364.1,37.6,364.4,37.6L364.4,37.6z"/>
	<path class="st0" d="M366.4,42L366.4,42L366.4,42z"/>
	<path class="st0" d="M151.5,79.4c0.2,0.1,0.5,0.2,0.7,0.4C152.1,79.4,152.2,78.9,151.5,79.4z"/>
	<path class="st0" d="M640,19.8h-50.1c0,0-6.4-19.8-12.3-19.8c-6.9,0-47.9,18.3-51.1,19.7c0.1,0.3,0.2,0.5,0.3,0.8
		c0,0.1-0.4,0.3-0.4,0.3c-0.5-0.3-0.5-0.7-0.2-1H352.5c-0.5,0.3-1,0.3-1.5,0h-81.6c0,0.9,0,1.9,0,3.1c-0.8-1.6-1.2-2.3-1-3.1H0V125
		h105c0.1-0.2,0.2-0.3,0.4-0.4c0.2,0.2,0.3,0.3,0.3,0.4h19.1c0-0.1-0.1-0.2-0.1-0.3c0.3-0.2,0.6-0.4,0.8-0.6c0.7,0,1,0.4,1.1,0.9
		h151.1c0.2-0.4,0.5-0.9,0.7-1.3c1.1,0.1,1.1,0.8,0.8,1.3H640c3.8,0,7.5-1.1,11-3l0,0c0-0.1,0.1-0.4,0.2-0.4c0.2-0.1,0.3,0,0.4,0.1
		c12.6-7.4,21.6-26.7,21.6-49.3C673.1,43.4,658.2,19.8,640,19.8z M267.7,29.7l0.3,0.2l-0.4,0.1L267.7,29.7z M211.4,86.4
		c0.5,0.4,0.5,0.7,0,1.1C210.9,87.1,210.8,86.7,211.4,86.4z M173,53.2c0,0.1-0.3,0.3-0.3,0.3c-0.5-0.4-0.5-0.7,0-1.1
		C172.8,52.7,173,53,173,53.2z M172,40.9c0.1-0.1,0.3,0,0.5,0.1c0.1,0,0.1,0.2,0.1,0.3c-0.2,0.1-0.3,0.2-0.5,0.1
		C171.6,41.4,171.5,41.1,172,40.9z M152.6,69.2c0-0.1,0.2-0.1,0.3-0.1c0.1,0.1,0.2,0.3,0.1,0.4c-0.1,0.5-0.4,0.5-0.6,0.1
		C152.5,69.6,152.5,69.4,152.6,69.2z M148.2,61c0-0.1,0.2-0.1,0.4-0.1c0.1,0.1,0.2,0.3,0.2,0.4c-0.1,0.5-0.3,0.5-0.6,0.1
		C148,61.3,148.1,61.1,148.2,61z M148.5,69.1h-0.3l0.2-0.3L148.5,69.1z M145.6,64.4L145.6,64.4c0.2-0.2,0.4-0.4,0.4-0.4
		S145.8,64.2,145.6,64.4L145.6,64.4c-0.1,0.5-0.2,1-0.4,1.8C144.5,65.1,145,64.7,145.6,64.4z M127.5,108.1c-0.4,0.5-0.8,0.5-1.2,0
		C126.6,107.6,127,107.6,127.5,108.1z M108.7,59.5l0.1,0.3h-0.3L108.7,59.5z M105.2,25.6c0.3,0.9-0.5,1-1,1.3
		C103.5,25.8,104,25.5,105.2,25.6z M104.2,42.4c0.5,0.6,0.5,1.1,0,1.8C103.6,43.5,103.5,43,104.2,42.4z M104.5,56.3
		c0,0.1-0.2,0.2-0.3,0.2c-0.1-0.1-0.2-0.3-0.2-0.4c0-0.5,0.2-0.6,0.5-0.3C104.5,56,104.5,56.2,104.5,56.3z M103.3,61
		c0.1,0.1,0.1,0.3,0,0.5c0,0.1-0.2,0.2-0.4,0.2c-0.1-0.1-0.2-0.3-0.2-0.4C102.8,60.8,103.1,60.7,103.3,61z M103.1,63.9
		c0.4,0.4,0.4,0.7-0.1,1C102.7,64.6,102.6,64.2,103.1,63.9z M102,48.4c0.5,0.4,0.5,0.7,0,1.1C101.5,49.2,101.5,48.8,102,48.4z
		 M102,117.4c-0.4,0.4-0.8,0.5-1.2-0.1C101.2,116.8,101.6,116.8,102,117.4z M98.8,45.2v0.3l-0.3-0.2L98.8,45.2z M31.3,69.8l0.1,0.3
		h-0.3L31.3,69.8z M4.3,22.4c0.1,0,0.3,0.2,0.4,0.3c-0.1,0.1-0.3,0.2-0.4,0.3c-0.2,0-0.4-0.1-0.5-0.2C3.6,22.5,3.9,22.4,4.3,22.4z
		 M1.6,52.5l-0.2,0.2l-0.1-0.3L1.6,52.5z M0.4,59.9l-0.3-0.2l0.3-0.1V59.9z M1.2,66l0.2-0.3L1.6,66H1.2z M2.7,42.5
		c-0.2-0.1-0.3-0.5-0.5-0.8c0.2-0.5,0.5-0.9,1.1-0.7c0.2,0.1,0.5,0.5,0.5,0.8C3.8,42.4,3.3,42.7,2.7,42.5z M3.7,49.6
		c-0.1,0,0-0.3,0-0.3C4.1,49,4.6,49,4.8,49.5C4.5,49.8,4.1,49.9,3.7,49.6z M4.6,83.4l0.2-0.3l0.1,0.3H4.6z M7.1,74
		c-0.1,0-0.3,0-0.3,0c-0.1-0.1-0.1-0.3-0.1-0.4C6.9,73,7.1,73,7.3,73.5C7.3,73.7,7.2,73.8,7.1,74z M5.8,54.6
		c0.5-0.8,1.4-0.8,2.2-1.1C8.4,55.2,8.4,55.2,5.8,54.6z M7.9,107.1l0.2-0.3l0.2,0.4L7.9,107.1z M9.4,61.5c0,0.1-0.2,0.1-0.3,0.1
		C9,61.5,8.9,61.3,9,61.2c0.1-0.5,0.3-0.5,0.6-0.1C9.5,61.2,9.5,61.4,9.4,61.5z M10.5,35.3L10.5,35.3c0,0,0.2,0.1,0.3,0.3v0.1
		c0.5,0.1,1.1-0.1,1.4,0.6c-0.8,0.4-1.1,0-1.4-0.6h-0.1C10.7,35.4,10.6,35.3,10.5,35.3L10.5,35.3z M13,44.8L13,44.8
		c-0.6-0.1-1.3,0.1-1.8-0.5C12.1,43.5,12.5,44.1,13,44.8L13,44.8c0.2,0.1,0.4,0.3,0.4,0.3S13.2,45,13,44.8z M13.6,30.2
		c-0.7-0.8,0-0.7,0.5-0.8C14,29.6,13.8,29.9,13.6,30.2z M14.1,29.4c0.1-0.1,0.1-0.3,0.2-0.4c0.1-0.1,0.2-0.1,0.4-0.1
		C14.5,29.1,14.3,29.2,14.1,29.4z M15.9,106.2l-0.3-0.2l0.4-0.1L15.9,106.2z M15.7,94.8v-0.3l0.3,0.2L15.7,94.8z M17.7,99.5
		c-0.1-0.1,0-0.3,0.1-0.5c0-0.1,0.2-0.1,0.4-0.1c0.1,0.1,0.2,0.3,0.2,0.4C18.2,99.8,17.9,99.9,17.7,99.5z M18.1,32.1
		c0.9-1.6,0.9-1.6,2.2-0.1C19.3,32.6,18.7,32.7,18.1,32.1z M21.2,83.3c-0.1-0.3-0.3-0.5-0.4-0.8c0.2-0.1,0.5-0.2,0.7-0.2
		c0,0.3,0.1,0.6,0.1,0.8C21.6,83.2,21.4,83.2,21.2,83.3z M22.2,70.1c-0.1,0.1-0.7,0.2-0.9,0.1c-0.5-0.3-0.6-0.8-0.1-1.3
		C22,69.1,22.6,69.3,22.2,70.1z M22.1,39.8c-0.2,0.4-0.3,0.9-0.6,1.4c-1-0.8-0.4-1.3,0.2-1.7c0.1-0.9-0.4-1.9,0.9-2.5
		C23.4,38.1,23.4,39,22.1,39.8z M27,82.2c-0.3,0.1-0.5-0.1-0.4-0.6c0-0.1,0.2-0.2,0.3-0.2c0.1,0.1,0.2,0.3,0.2,0.4S27,82.2,27,82.2z
		 M27.4,73.6c-0.2-0.2-0.3-0.4-0.3-0.3C27.1,73.3,27.3,73.4,27.4,73.6c0.2,0.1,0.4,0.3,0.3,0.3C27.8,73.9,27.6,73.8,27.4,73.6z
		 M31.5,121.2c0,0.1-0.2,0.1-0.3,0.1c-0.1-0.1-0.2-0.3-0.1-0.4c0.1-0.5,0.3-0.5,0.6-0.1C31.6,120.9,31.6,121.1,31.5,121.2z
		 M34.5,69.2l-0.4-0.3c0.1-0.3,0.3-0.6,0.4-0.8C35.1,68.4,35.2,68.8,34.5,69.2z M36.6,99c-0.1,0.1-0.3,0.1-0.5,0.1
		c-0.5-0.2-0.5-0.4,0.1-0.5c0.1,0,0.3,0.1,0.5,0.1C36.6,98.8,36.6,99,36.6,99z M36.6,39c-0.6-1.2-0.1-1.4,1.4-1
		C37.6,38.8,37.3,39.1,36.6,39z M39.7,28c0-0.1,0.2-0.2,0.3-0.3c0.2,0.2,0.3,0.4,0.5,0.6c-0.2,0.2-0.4,0.3-0.5,0.5
		C39.9,28.5,39.7,28.3,39.7,28z M40.1,64.8c0.4-0.4,0.8-0.4,1.2,0.1C40.8,65.3,40.5,65.3,40.1,64.8z M43.8,34.3
		c-0.1,0-0.2-0.2-0.3-0.3c0.1-0.1,0.3-0.2,0.4-0.2c0.5,0,0.6,0.2,0.3,0.5C44.1,34.3,43.9,34.3,43.8,34.3z M44.6,122.3
		c-0.3,0.1-0.5-0.1-0.4-0.6c0-0.1,0.2-0.2,0.3-0.2c0.1,0.1,0.2,0.3,0.2,0.4C44.8,122.1,44.7,122.3,44.6,122.3z M47.2,72.7
		c-0.5-0.1-1-0.3-1.5-0.4C45.6,71.4,46,71.1,47,71c0.2,0.4,0.3,0.9,0.5,1.3c0.5,0.1,0.9,0.3,1.6,0.5C48.2,73.8,47.7,73.4,47.2,72.7z
		 M48.8,67.1v-0.2l0.2,0.2H48.8z M50.3,42.6c-0.1,0-0.3-0.3-0.3-0.3c0.4-0.5,0.8-0.5,1.2,0C50.9,42.4,50.6,42.5,50.3,42.6z M52.3,38
		c-0.5-0.2-0.6-0.6-0.3-1c0.1-0.1,0.3-0.1,0.3-0.1C52.8,37.3,52.8,37.7,52.3,38z M55.5,117.4l0.2-0.2l0.1,0.3L55.5,117.4z
		 M56.6,68.3c-0.1,0.1-0.2,0.1-0.4,0.1l-0.1,0.1H56c-0.1,0.2-0.2,0.4-0.4,0.6c-0.5-0.6,0.1-0.5,0.4-0.6c0,0,0-0.1,0.1-0.1h0.1h-0.1
		h0.1c0.2-0.2,0.3-0.3,0.5-0.5C56.7,68.1,56.7,68.2,56.6,68.3z M60.7,34.3c-0.1,0.1-0.3,0-0.5-0.1c0-0.1-0.1-0.3-0.1-0.3
		c0.1-0.1,0.3-0.2,0.5-0.2C61.1,33.8,61.2,34.1,60.7,34.3z M61.7,86C61.7,86,61.6,86,61.7,86c-0.3-0.3-0.4-0.5-0.4-0.4
		C61.3,85.6,61.5,85.7,61.7,86C61.7,86,61.7,86,61.7,86c0.2,0.1,0.4,0.2,0.7,0.3C61.7,86.9,61.8,86.3,61.7,86z M63.2,48.4l0.2-0.2
		l0.1,0.3L63.2,48.4z M64,30.7c0.1-0.3,0.2-0.5,0.3-0.8c0.2,0.2,0.5,0.4,0.5,0.6s-0.3,0.4-0.5,0.6C64.2,30.9,64,30.8,64,30.7z
		 M64.3,76.2c0.4-0.5,0.8-0.5,1.2,0C65.1,76.6,64.7,76.6,64.3,76.2z M66.5,97.9l0.2-0.2l0.1,0.3L66.5,97.9z M67.1,86.7
		c-0.5-0.1-0.6-0.3-0.1-0.5c0.1-0.1,0.3,0,0.5,0.1c0.1,0,0.1,0.2,0.1,0.3C67.4,86.6,67.3,86.8,67.1,86.7z M68.5,28.2
		c0.2-0.5,0.5-0.5,0.6,0.1c0,0.1-0.1,0.3-0.1,0.4c-0.1,0-0.3,0-0.4,0C68.6,28.5,68.5,28.3,68.5,28.2z M68.8,79.3
		c0.4-0.4,0.8-0.5,1.2,0.1C69.6,79.7,69.2,79.8,68.8,79.3z M71.3,96.4c0,0.1-0.2,0.2-0.3,0.2c-0.1-0.1-0.2-0.3-0.2-0.4
		c0-0.5,0.2-0.6,0.5-0.3C71.4,96.1,71.4,96.3,71.3,96.4z M71.4,77.6c-0.4-0.2-0.5-0.4-0.2-0.6c0.2-0.1,0.6-0.1,0.8,0
		c0.1,0,0.1,0.2,0.2,0.3C72,77.4,71.7,77.5,71.4,77.6z M72.1,21.6c0.4-0.5,0.8-0.5,1.2,0.1C72.9,22.1,72.4,22.2,72.1,21.6z
		 M73.2,79.3c0.4-0.4,0.8-0.4,1.2,0.1C73.9,79.7,73.5,79.8,73.2,79.3z M76.3,80.3c0.2-0.4,0.4-0.3,0.6,0.1c0,0-0.2,0.2-0.3,0.2
		C76.5,80.5,76.3,80.3,76.3,80.3z M76.5,109.1c0.3-0.1,0.5-0.2,0.8-0.3c0.1,0,0.3,0.3,0.3,0.3C77.3,109.5,76.9,109.6,76.5,109.1z
		 M78.2,48.7c-0.5-0.1-0.6-0.3-0.1-0.5c0.1-0.1,0.3,0,0.5,0.1c0.1,0,0.1,0.2,0.1,0.3C78.5,48.6,78.3,48.7,78.2,48.7z M78.8,25
		c-0.2-0.1-0.3-0.4-0.5-0.7h-0.1c-0.2-0.2-0.3-0.4-0.3-0.3c0,0,0.2,0.1,0.3,0.3c0,0,0,0,0,0.1c0.5,0.1,0.9,0.1,1.4,0.2
		C79.7,25.3,79.2,25.1,78.8,25z M79.8,120.5l0.2-0.2l0.1,0.3L79.8,120.5z M84,102.1c-0.1,0.1-0.3,0.1-0.5,0c-0.1,0-0.2-0.2-0.3-0.3
		c0.1-0.1,0.3-0.2,0.4-0.2C84.2,101.7,84.3,101.9,84,102.1z M84.9,39.4c-0.2,0-0.4-0.1-0.4-0.1c-0.2-0.3,0-0.5,0.5-0.4
		c0.1,0,0.3,0.2,0.4,0.3C85.2,39.3,85.1,39.4,84.9,39.4z M88.2,108.6c-0.2,0.1-0.4,0.3-0.4,0.3C87.8,108.9,88,108.7,88.2,108.6
		c0.1-0.2,0.3-0.3,0.3-0.3C88.5,108.3,88.4,108.4,88.2,108.6z M90.3,34.4c-0.2,0-0.4-0.3-0.6-0.4c0.1-0.1,0.3-0.3,0.3-0.3
		c0.3,0,0.6,0.2,0.9,0.3C90.7,34.1,90.5,34.4,90.3,34.4z M91.5,22.2c-0.2,0.1-0.4,0.3-0.4,0.3C91.2,22.5,91.3,22.3,91.5,22.2
		c0.1-0.2,0.3-0.3,0.3-0.3C91.8,21.9,91.7,22,91.5,22.2z M93.4,66.5c0,0.1-0.2,0.2-0.3,0.3c-0.1-0.1-0.2-0.3-0.3-0.4
		c0-0.1,0.1-0.4,0.2-0.4C93.3,65.9,93.5,66.1,93.4,66.5z M95.6,86.1c0,0.1-0.2,0.2-0.4,0.2C95.1,86.2,95,86,95,85.9
		c0-0.5,0.3-0.6,0.5-0.3C95.7,85.8,95.7,86,95.6,86.1z M97.6,107.8l0.1,0.3h-0.3L97.6,107.8z M97.7,120.3l-0.2,0.2l-0.1-0.3
		L97.7,120.3z M97.4,123.4c0.4-0.4,0.8-0.5,1.2,0.1C98.2,123.9,97.8,124,97.4,123.4z M98.4,114.9c-0.1-0.1,0-0.3,0.1-0.4
		c0-0.1,0.2-0.1,0.3-0.1c0.1,0.1,0.2,0.3,0.1,0.4C98.8,115.3,98.6,115.3,98.4,114.9z M101.1,97.7l-0.2,0.3l-0.1-0.3H101.1z
		 M102.9,123.6c-0.3,0.7-1.2,0.6-2.1-0.1c0.4-0.5,0.7-0.7,0.9-1C102.6,122.4,103.2,123,102.9,123.6z M104.2,116.2
		c-0.5-0.4-0.5-0.8,0-1.1C104.7,115.5,104.8,115.8,104.2,116.2z M101.7,112.3c0.5-0.9,0.9-1.2,1.6-1.1c1,0.3,1.5,1.1,2,2.1
		C103.7,114.2,103,112.7,101.7,112.3z M105.2,76.2l0.2-0.2l0.1,0.3L105.2,76.2z M106.5,32c-0.1-0.3,0.2-0.5,0.6-0.4
		c0.1,0,0.2,0.2,0.2,0.3c-0.1,0.1-0.3,0.1-0.4,0.2C106.8,32.2,106.6,32.1,106.5,32z M107.8,66.2c0.1,0.1,0,0.3-0.1,0.4
		c0,0.1-0.2,0.1-0.3,0.1c-0.1-0.1-0.2-0.3-0.1-0.4C107.4,65.9,107.6,65.9,107.8,66.2z M107.6,90.4v0.3l-0.3-0.2L107.6,90.4z
		 M107.3,120.4c1.4-0.3,1.4-0.3,1.4,0.9C107.9,121.4,107.5,121,107.3,120.4z M108.6,108.1c0.4-0.4,0.8-0.3,1.5,0.3
		c-0.3,0.3-0.7,0.6-1,0.8C108.3,108.8,108.2,108.4,108.6,108.1z M109.7,116.3c0.4-0.5,0.8-0.4,1.1,0
		C110.4,116.7,110,116.8,109.7,116.3z M110.9,52.7l-0.3-0.2l0.4-0.1L110.9,52.7z M111.8,38.3V38l0.2,0.2L111.8,38.3z M115,85.5
		l0.2-0.3l0.2,0.4L115,85.5z M121.6,106.8c0,0-0.2-0.1-0.3-0.2l0,0c-0.1-0.1-0.2-0.3-0.2-0.3l0,0l0,0l0,0l0,0c0,0,0.2,0.1,0.3,0.2
		C121.5,106.6,121.6,106.7,121.6,106.8L121.6,106.8L121.6,106.8C121.7,106.8,121.6,106.8,121.6,106.8L121.6,106.8z M124,78.3
		l0.2-0.2l0.1,0.3L124,78.3z M123.8,39.3c0.9-0.9,1.7-0.5,2.7-0.3C125.4,39.8,124.7,39.6,123.8,39.3z M126.6,112.3
		c-0.7-0.3-0.7-0.7-0.4-1.1c0.4-0.5,0.9-0.5,1.3,0.1C127.2,111.6,126.9,112,126.6,112.3z M131.8,122.7c-0.4-0.2-0.4-0.4,0-0.5
		c0.1,0,0.2,0.2,0.3,0.3C132,122.6,131.8,122.8,131.8,122.7z M132,86.2c0,0.1-0.2,0.1-0.3,0.1c-0.1-0.1-0.2-0.3-0.1-0.4
		c0.1-0.5,0.3-0.5,0.6-0.1C132.2,85.9,132.1,86.1,132,86.2z M132.8,26.9l0.2-0.3l0.1,0.3H132.8z M134.9,50.1c-0.1-0.1,0-0.3,0.1-0.4
		c0-0.1,0.2-0.1,0.3-0.1c0.1,0.1,0.2,0.3,0.1,0.4C135.3,50.5,135.1,50.5,134.9,50.1z M135.1,46.3c-0.1-0.3-0.2-0.5-0.3-0.8
		c0-0.1,0.2-0.2,0.3-0.3C135.6,45.6,135.6,46,135.1,46.3z M138.3,36.2v-0.4l0.4,0.2L138.3,36.2z M139.8,73.9c0,0.1-0.2,0.1-0.4,0.1
		c-0.1-0.1-0.2-0.3-0.2-0.4c0.1-0.5,0.4-0.5,0.6-0.1C139.9,73.5,139.8,73.8,139.8,73.9z M140.5,62.9l0.2-0.3l0.1,0.3H140.5z
		 M143.9,99.8c0.3-0.1,0.6-0.2,0.9-0.3c0.1,0,0.2,0.2,0.3,0.3c-0.3,0.1-0.6,0.2-0.9,0.3C144.1,100.1,144,99.9,143.9,99.8z
		 M144.6,117.9C144.6,117.9,144.5,117.9,144.6,117.9c-0.2-0.2-0.3-0.3-0.3-0.3l0,0l0,0C144.3,117.6,144.4,117.7,144.6,117.9
		C144.6,117.8,144.6,117.9,144.6,117.9c0.3,0.1,0.5,0.2,0.8,0.4C144.6,118.9,144.7,118.3,144.6,117.9z M155.1,82.6
		c-0.9-0.8-0.5-1.8-0.6-2.8h-0.1c0,0,0,0,0-0.1c-0.7,0-1.4,0-2.1,0.1c0.3,0.9,1.4,1.5,0.8,2.6c-0.8,0.6-1.7,0.4-2.8,0.1
		c-0.4-0.4-0.9-1.1-1.4-1.7c-0.5,0.2-1,0.3-1.8,0.6c-0.9-1.5-1.3-3.3-2.8-4.5c0.9-1.8,1.5-3.4,3.6-4.3c2.8,0.1,4.8,1.7,6.4,3.5
		c0.1,1.4-0.9,2.5,0,3.6h0.1c0,0,0,0,0,0.1c1.1,0.1,2.1,0.3,2.7,1.3C156.4,82.2,156.4,82.2,155.1,82.6z M158,59.7
		c-0.9-1.4-1.1-1.7-1.2-1.9c-0.1-0.8,0-1.6,0-2.4c0.5-0.4,1-0.6,1.7-1.1C158.7,56.3,157.3,57.2,158,59.7z M158.6,25.5
		c0,0.1-0.2,0.1-0.4,0.1c-0.1-0.1-0.2-0.3-0.2-0.4c0.1-0.5,0.4-0.5,0.6-0.1C158.7,25.2,158.7,25.4,158.6,25.5z M160.6,41.2
		c0.4-0.4,0.8-0.5,1.1,0.1C161.3,41.7,160.9,41.7,160.6,41.2z M163.7,71.1l0.2-0.3l0.1,0.3H163.7z M164.1,55.5
		c-0.3,0.5-0.9,0.6-1.3,0.1c0.1-0.5,0.5-0.9,1.1-0.9C163.9,54.6,164.2,55.3,164.1,55.5z M165.1,80.5l-0.4-0.2l0.4-0.1V80.5z
		 M168.1,110.2l0.2-0.3l0.1,0.3H168.1z M168.6,76.9c-1.1,0.7-2.4-0.1-3.2,0.8c-1.2-1.1-1.1-1.5,0-3.2c-0.1-1.5-0.1-2.9,0.3-4.8
		c1.4,3,1.4,3.1-0.1,5c0.7,1.5,1.8,0.3,2.7,0.4C168.9,75.6,168.8,76.2,168.6,76.9z M170.5,110.1c0.4-0.4,0.8-0.5,1.2,0.1
		C171.2,110.6,170.9,110.6,170.5,110.1z M171.7,117.5l-0.3-0.2l0.3-0.1V117.5z M171.5,113.2c0.4-0.5,0.9-0.5,1.2,0.1
		C172.3,113.7,171.9,113.8,171.5,113.2z M172.8,79.2c0.3-0.1,0.6-0.2,0.9-0.3c0.1,0,0.2,0.2,0.3,0.3
		C173.6,79.8,173.2,79.7,172.8,79.2z M175.4,96.3c0,0,0-0.1,0.1-0.1c0.2-0.1,0.4-0.3,0.3-0.3c0,0-0.1,0.1-0.3,0.3
		C175.5,96.3,175.4,96.3,175.4,96.3c-0.1,0.2-0.2,0.4-0.4,0.6C174.5,96.3,175.1,96.4,175.4,96.3z M175.5,119.7
		c-0.1-0.1-0.4-0.1-0.4-0.2c-0.1-0.3,0.2-0.4,0.6-0.4c0.1,0,0.2,0.2,0.2,0.3C175.8,119.5,175.6,119.6,175.5,119.7z M177,93.8v-0.3
		l0.2,0.2L177,93.8z M181.5,80.2c0,0-0.3-0.2-0.3-0.3c0.1-0.3,0.2-0.5,0.4-0.8C182.1,79.5,182.1,79.9,181.5,80.2z M184.6,73.8
		c-0.1-0.1,0-0.3,0.1-0.4c0-0.1,0.2-0.1,0.3-0.1c0.1,0.1,0.2,0.3,0.1,0.4C185,74.1,184.8,74.2,184.6,73.8z M185.9,33
		c1.1,0.4,1.9,0.8,1.2,2.1C186,34.8,185.3,34.2,185.9,33z M186.1,57.6v0.2l-0.2-0.2H186.1z M186.4,68.7c0.1,0,0.3,0.1,0.5,0.1
		c0,0.1,0,0.3,0,0.3c-0.1,0.1-0.3,0.1-0.5,0.1C185.8,69,185.9,68.8,186.4,68.7z M186,82.3c0.4-0.4,0.8-0.5,1.2,0.1
		C186.8,82.8,186.4,82.9,186,82.3z M187,117.3c-0.4-0.4-0.5-0.8,0.1-1.1C187.6,116.6,187.6,117,187,117.3z M188.1,95.9v-0.4l0.4,0.2
		L188.1,95.9z M190.2,53.8c0-0.1,0.2-0.1,0.3-0.1c0.1,0.1,0.2,0.3,0.1,0.4c-0.1,0.5-0.3,0.5-0.6,0.1
		C190.1,54.1,190.1,53.9,190.2,53.8z M190.7,63.5c0,0.1-0.2,0.2-0.3,0.2c-0.1-0.1-0.2-0.3-0.2-0.4c0-0.5,0.3-0.6,0.5-0.3
		C190.7,63.2,190.7,63.4,190.7,63.5z M191.5,112.2c0.3-0.1,0.5-0.2,0.8-0.3c0.1,0,0.3,0.3,0.3,0.3
		C192.3,112.6,191.9,112.6,191.5,112.2z M196.9,42.4v-0.3l0.3,0.2L196.9,42.4z M201.4,114.2c-0.5-0.7-0.6-1.4,0.1-2.1
		C202.1,112.8,202.1,113.5,201.4,114.2z M201.3,97.9v-0.3l0.2,0.2L201.3,97.9z M201.4,34c0.4-0.5,0.8-0.5,1.2,0.1
		C202.1,34.5,201.7,34.6,201.4,34z M208.9,90.6c1.6,0,1.9,1.2,3,2C209.4,92.8,209.4,92.8,208.9,90.6z M212.4,69.1v-0.3l0.2,0.2
		L212.4,69.1z M212.5,61.8c0.4-0.4,0.8-0.5,1.2,0.1C213.2,62.3,212.8,62.3,212.5,61.8z M214.6,57.6c-0.1-0.3-0.2-0.5-0.3-0.8
		c0.2-0.1,0.4-0.1,0.6-0.2c0,0.3,0.1,0.5,0,0.8C215,57.5,214.8,57.5,214.6,57.6z M216.4,67.2c-0.2,0-0.4-0.1-0.4-0.1
		c-0.2-0.3,0-0.5,0.5-0.4c0.1,0,0.3,0.2,0.4,0.3C216.7,67,216.6,67.1,216.4,67.2z M217.9,84.4c0.4-0.5,0.8-0.5,1.2,0.1
		C218.7,84.8,218.3,84.9,217.9,84.4z M221.2,31v-0.3l0.2,0.2L221.2,31z M222.4,107.1c-0.4-0.4-0.4-0.7,0.1-1.1
		C222.9,106.4,222.9,106.8,222.4,107.1z M223.5,92.7v-0.3l0.3,0.2L223.5,92.7z M223.5,42.3c-0.5-0.4-0.6-0.8,0.1-1.2
		C224.1,41.6,224.1,42,223.5,42.3z M226.5,56.9c-0.1,0.1-0.3,0-0.5,0c0-0.1-0.1-0.3-0.1-0.3c0.1-0.1,0.3-0.2,0.4-0.2
		C226.9,56.5,226.9,56.7,226.5,56.9z M227.8,48.5l0.2-0.2l0.1,0.3L227.8,48.5z M230,49.5l0.2-0.3l0.1,0.3H230z M232.5,41.1
		c-0.3,0.1-0.5-0.1-0.4-0.6c0-0.1,0.2-0.2,0.3-0.2c0.1,0.1,0.2,0.3,0.2,0.4C232.6,40.8,232.6,41,232.5,41.1z M234.5,84.5v-0.3
		l0.3,0.2L234.5,84.5z M238.8,109.3c-0.1,0.1-0.3,0.1-0.5,0.1c-0.5-0.2-0.5-0.4,0.1-0.5c0.1,0,0.3,0.1,0.5,0.1
		C238.8,109.1,238.8,109.2,238.8,109.3z M241.1,106.1l0.2-0.2l0.1,0.3L241.1,106.1z M242.2,122.5l0.2-0.2l0.1,0.3L242.2,122.5z
		 M245,57.1c-0.5,0.2-1.1,0.1-1.4-0.4c0.5-0.7,1.1-0.6,1.8-0.3C245.5,56.7,245.4,56.9,245,57.1z M255.9,93.3c0,0.1-0.2,0.2-0.3,0.3
		c-0.1-0.1-0.2-0.3-0.3-0.4c0-0.1,0.1-0.4,0.2-0.4C255.7,92.7,255.9,92.9,255.9,93.3z M262.3,62.9l-0.2-0.2l0.3-0.1L262.3,62.9z
		 M263.3,124.6c-0.5-0.4-0.5-0.8,0-1.1c0.1,0.3,0.3,0.5,0.3,0.8C263.7,124.4,263.4,124.6,263.3,124.6z M266.6,73.2v-0.3l0.2,0.2
		L266.6,73.2z M265.8,61.5c-1.1-1.6-1-1.8,0.9-2.6C267.4,60,266,60.6,265.8,61.5z M266.6,49.5c-0.1-0.3-0.3-0.5-0.3-0.8
		c0-0.1,0.3-0.3,0.3-0.3C267.2,48.8,267.1,49.1,266.6,49.5z M267.5,42.9c-0.1-0.1,0-0.3,0.1-0.4c0-0.1,0.2-0.1,0.3-0.1
		c0.1,0.1,0.2,0.3,0.1,0.4C267.9,43.3,267.7,43.3,267.5,42.9z M267.7,27.8c0.4-0.4,0.8-0.5,1.1,0.1
		C268.5,28.3,268.1,28.3,267.7,27.8z M272.2,20.4c0.5,0.4,0.5,0.8-0.1,1.2C271.7,21.2,271.6,20.8,272.2,20.4z M271.7,110.6
		L271.7,110.6c-0.2,0.2-0.4,0.4-0.4,0.4C271.3,111,271.4,110.8,271.7,110.6C271.6,110.6,271.6,110.6,271.7,110.6
		c0-0.5,0-1.1,0.5-1.6C272.8,109.9,272.3,110.2,271.7,110.6z M271.1,70c0.3-0.1,0.5-0.2,0.8-0.3c0.1,0,0.3,0.3,0.3,0.3
		C271.8,70.4,271.4,70.4,271.1,70z M271.2,46.5c-0.8-0.6-0.8-1.5-0.8-2.3c0-0.7-0.2-1.3-0.3-1.9c0.6-0.7,1.3-0.4,1.9-0.4
		c0.9,0.5,0.6,1.3,0.8,1.9c0.5,0.3,0.8,0.6,0.8,1.2C272.6,46.1,272.6,46.1,271.2,46.5z M276.3,108.9c0,0-0.2-0.1-0.3-0.3l0.1-0.1
		l-0.1,0.1c-0.2-0.2-0.3-0.4-0.3-0.3c-0.1,0,0.1,0.1,0.3,0.3C276.2,108.7,276.3,108.8,276.3,108.9L276.3,108.9L276.3,108.9
		C276.4,108.9,276.4,108.9,276.3,108.9C276.4,108.9,276.3,108.9,276.3,108.9z M276.5,59.7c0.8,0,1.2,0.4,1.4,1
		C276.4,61,276.4,61,276.5,59.7z M348.3,20.4l0.3,0.2l-0.4,0.1L348.3,20.4z M344,50.3l0.1,0.3h-0.3L344,50.3z M335.1,28.7l0.3,0.2
		L335,29L335.1,28.7z M335.3,39v0.3l-0.3-0.2L335.3,39z M287.8,39.1l-0.2,0.2l-0.1-0.3L287.8,39.1z M284.3,28.7
		c0.1,0.3,0.2,0.6,0.3,0.8c0,0.1-0.2,0.2-0.4,0.3C283.8,29.4,283.8,29.1,284.3,28.7z M280.7,85.1c-0.1-0.1,0-0.3,0.1-0.5
		c0-0.1,0.2-0.1,0.4-0.1c0.1,0.1,0.2,0.3,0.2,0.4C281.2,85.4,280.9,85.5,280.7,85.1z M283,48.4l0.3-0.1v0.3L283,48.4z M283.3,114.4
		c-0.1-0.8,0.3-1.1,1.1-1.2C284.9,114.4,284.6,114.7,283.3,114.4z M287.6,116.2c-0.1-0.3-0.4-0.6-0.3-0.8c0.2-0.5,0.6-0.5,0.7,0
		C288.1,115.6,287.8,115.9,287.6,116.2z M288.7,99.8c0,0,0.2-0.3,0.3-0.3c0.3,0.1,0.5,0.2,0.8,0.3C289.4,100.3,289,100.3,288.7,99.8
		z M289.6,70.7c-0.1-0.1,0-0.3,0.1-0.4c0-0.1,0.2-0.1,0.3-0.1c0.1,0.1,0.2,0.3,0.1,0.4C290,71,289.8,71.1,289.6,70.7z M292,74.2
		c-0.5-0.4-0.5-0.8,0.1-1.1C292.5,73.4,292.6,73.8,292,74.2z M294.2,77.2c-0.5-0.4-0.5-0.8,0.1-1.1
		C294.7,76.5,294.8,76.9,294.2,77.2z M299.8,44.9c0.1,2.1,0.1,2.1-2.1,2.7C297.6,46.1,298.9,45.8,299.8,44.9z M299.8,60.8
		c-0.3,0-0.6,0.1-0.9,0.1c-0.6-0.4-0.1-0.8-0.1-1.2s-0.4-0.9,0.2-1.2C300.3,59,300.3,59,299.8,60.8z M300.9,51.8
		c-0.1-0.1-0.3-0.3-0.3-0.4c0-0.1,0.2-0.2,0.4-0.3c0.1,0.1,0.3,0.3,0.3,0.4C301.2,51.6,301,51.7,300.9,51.8z M302,37.2
		c-0.5-0.4-0.4-0.8,0.1-1.1C302.5,36.5,302.5,36.9,302,37.2z M305.1,108.4c0.5-0.7,1-0.1,1.4,0c0.3,0.1,0.6,0.3,1.4,0.7
		C306.4,109.7,305.4,109.9,305.1,108.4z M308.5,105.5c-0.3,0-0.6-0.3-0.9-0.4c0.2-0.6,0.7-0.7,1.2-0.6c0.3,0,0.6,0.3,0.9,0.4
		C309.5,105.4,309,105.6,308.5,105.5z M309.7,66c-0.5-0.4-0.5-0.7,0-1.1c0.1,0.3,0.3,0.5,0.3,0.8C310.1,65.8,309.9,65.9,309.7,66z
		 M312.2,109.9c-0.1,0.2-0.6,0.5-0.8,0.4c-0.6-0.1-1-0.4-0.9-1c0.2-0.5,0.6-0.8,1.2-0.6C312.2,108.9,312.5,109.4,312.2,109.9z
		 M313,123.6v-0.3l0.3,0.2L313,123.6z M313.8,35.3c-0.1,0.1-0.3,0-0.5,0c0-0.1-0.1-0.3-0.1-0.3c0.1-0.1,0.3-0.2,0.4-0.2
		C314.1,34.9,314.2,35.1,313.8,35.3z M315.3,28.9c0.4,0.4,0.5,0.8-0.1,1.1C314.8,29.6,314.8,29.2,315.3,28.9z M316.4,120.7
		c-0.7-0.2-1.2-0.6-1.2-1.4C316.9,119.1,316.9,119.1,316.4,120.7z M317.5,91.9c-0.5-1.2-0.5-1.2,0.9-1.4
		C318.6,91.2,318.2,91.6,317.5,91.9z M318.1,39.4c-0.2,0-0.4-0.1-0.4-0.1c-0.2-0.3,0-0.5,0.5-0.4c0.1,0,0.3,0.2,0.4,0.3
		C318.4,39.3,318.2,39.4,318.1,39.4z M319.7,121.4c0.4-0.4,0.8-0.5,1.1,0.1C320.4,121.8,320,121.9,319.7,121.4z M321.1,50.3
		c-0.5-0.2-0.9-0.6-0.8-1.1c0-0.3,0.5-0.7,0.6-0.7c0.4,0.3,0.9,0.5,1.2,0.9c0.1,0.2,0,0.6-0.1,1.2C321.5,50.4,321.3,50.3,321.1,50.3
		z M322.5,115.8c-0.2,0.1-0.4,0.3-0.4,0.3C322.1,116.1,322.3,115.9,322.5,115.8c0.1-0.2,0.3-0.4,0.3-0.3
		C322.8,115.4,322.6,115.6,322.5,115.8z M323.8,48.1c-0.1-0.1,0-0.3,0.1-0.4c0-0.1,0.2-0.1,0.3-0.1c0.1,0.1,0.2,0.3,0.1,0.4
		C324.3,48.4,324,48.5,323.8,48.1z M325.1,82.5v-0.3l0.3,0.2L325.1,82.5z M328.5,47.4c0.4-0.4,0.8-0.5,1.1,0
		C329.3,47.8,328.9,47.8,328.5,47.4z M331.3,34.5C331.2,34.5,331.2,34.5,331.3,34.5c-0.6-0.2-1.2,0.1-1.5-0.6
		C330.6,33.5,330.9,33.9,331.3,34.5C331.2,34.5,331.3,34.5,331.3,34.5c0.2,0.1,0.4,0.3,0.3,0.2C331.7,34.8,331.5,34.7,331.3,34.5z
		 M336,105.8c0,0-0.2-0.1-0.3-0.2c0,0,0,0,0-0.1c-0.8-0.1-1.7,0-2.1-1h-0.1c0,0,0-0.1-0.1-0.1c-0.2-0.1-0.4-0.2-0.6-0.3
		c0.7-0.5,0.6,0.1,0.6,0.3c0,0,0.1,0,0.1,0.1c0,0,0,0,0,0.1c0.9,0,1.7,0.1,2.1,1h0.1C335.9,105.6,336,105.7,336,105.8L336,105.8
		L336,105.8L336,105.8L336,105.8z M336.3,93.9l-0.3-0.2l0.4-0.1L336.3,93.9z M337.4,124.7c-0.5-0.4-0.5-0.8,0-1.1
		c0,0,0.3,0.2,0.3,0.3C337.9,124.3,337.8,124.6,337.4,124.7z M337.9,109.4c-0.1-0.1-0.4-0.1-0.4-0.2c-0.1-0.3,0.2-0.5,0.6-0.4
		c0.1,0,0.2,0.2,0.2,0.3C338.2,109.2,338.1,109.3,337.9,109.4z M340.7,63l-0.1-0.4h0.4L340.7,63z M342.9,117.3
		c-0.5-0.4-0.5-0.7,0-1.1c0.1,0.3,0.2,0.5,0.3,0.8C343.2,117.1,342.9,117.4,342.9,117.3z M344,100.8c0,0,0.3,0.2,0.3,0.3
		c-0.1,0.3-0.2,0.5-0.4,0.8C343.5,101.5,343.5,101.1,344,100.8z M343.9,104.1c-0.1-0.1,0-0.3,0-0.3c0.5-0.4,0.9-0.2,1.2,0.2
		C344.7,104.4,344.3,104.6,343.9,104.1z M345,75.2c0.4-0.5,0.8-0.5,1.2,0C345.8,75.6,345.4,75.7,345,75.2z M347.5,100.7
		c-0.1,0-0.3,0-0.3,0c-0.1-0.1-0.1-0.3-0.1-0.4c0.2-0.5,0.4-0.5,0.6,0.1C347.6,100.4,347.5,100.6,347.5,100.7z M346.7,46.2
		c1.3-2.2,0.8-4.6,1.4-7.6c0.9,1.5,1.3,2.2,1.8,3c-0.2,0.6-0.5,1.2-0.8,2.1c0.2,0.7,0.6,1.7,0.9,2.6c0.1,1.3-0.6,2.3-1.3,3.2
		c-0.3,0-0.7,0-0.9-0.1C346.8,48.5,346.1,47.2,346.7,46.2z M348.1,35.7c0-0.1,0.1-0.4,0.2-0.4c0.3-0.2,0.5,0,0.4,0.5
		c0,0.1-0.2,0.2-0.3,0.4C348.3,35.9,348.2,35.8,348.1,35.7z M348.3,54.5c0.1-0.1,0.3,0,0.4,0c0.4,0.5,0.2,0.8-0.3,1.1
		C347.9,55.2,347.8,54.9,348.3,54.5z M348.3,117.4l0.2-0.3l0.1,0.3H348.3z M349.4,94.8v-0.3l0.3,0.2L349.4,94.8z M350.5,92.7
		l0.2-0.2l0.1,0.3L350.5,92.7z M350.1,67.4L350.1,67.4c-0.1,0.1-0.1,0.1-0.1,0.1c-0.1,0.8-0.1,1.6-0.2,3.3c-0.8-1.5-1.1-2.1-1.6-3
		c0.8-0.2,1.3-0.3,1.8-0.4c0,0,0,0,0-0.1C350.1,67.4,350.1,67.4,350.1,67.4c0.1-0.2,0.2-0.4,0.3-0.7c0.1,0.1,0.3,0.3,0.4,0.4
		C350.6,67.2,350.4,67.3,350.1,67.4z M350,30.2c-0.7,0.1-1.4,0.1-2.1,0.1c0,0,0,0,0,0.1c0,0,0,0-0.1,0.1c0,0.3,0,0.6,0,0.9
		c0,0,0,0,0.1,0.1c0.2,0.2,0.3,0.3,0.3,0.3s-0.2-0.1-0.4-0.3v-0.1c-0.2-0.1-0.4-0.3-0.6-0.4c0.2-0.1,0.4-0.3,0.6-0.4v-0.1h0.1
		c0.1-0.5,0.2-0.9,0.3-1.4c0.6,0,1.1,0,1.6,0c0.3,0,0.6-0.1,1-0.2C351.4,29.7,350.7,30.1,350,30.2z M517.4,69.9l0.3,0.2l-0.3,0.1
		V69.9z M511.7,24.7c1.9,1,1.2,2.7,1.4,4.1c0.1,0.8-0.7,1.7-1.2,2.6c-1.7-0.7-0.9-2.1-1.6-3C510.8,27.2,511.2,26,511.7,24.7z
		 M513.1,45.4c-0.1,0.1-0.3,0.2-0.4,0.3c-0.2-0.1-0.4-0.1-0.5-0.2c-0.2-0.3,0-0.5,0.5-0.4C512.8,45.1,512.9,45.3,513.1,45.4z
		 M512.1,72.9v0.4l-0.4-0.2L512.1,72.9z M484.1,35c0.1,0,0.3,0.1,0.4,0.1c0.1,0.1,0.2,0.3,0.2,0.4c0,0.6-0.4,0.9-0.9,0.9
		c-0.2,0-0.5-0.3-0.7-0.4C483.4,35.6,483.7,35.3,484.1,35z M453.6,72.3c0.1,0.1,0.1,0.3,0,0.4c0,0.1-0.2,0.2-0.3,0.2
		c-0.1-0.1-0.2-0.3-0.2-0.4C453.2,72.2,453.4,72,453.6,72.3z M431.3,56.3c0.1,0.1,0.3,0.2,0.3,0.3s-0.2,0.2-0.3,0.3
		c-0.1-0.1-0.2-0.2-0.3-0.3C431.1,56.5,431.2,56.4,431.3,56.3z M429.1,63.9c0.4,0.4,0.5,0.8-0.1,1.1c0,0-0.3-0.2-0.3-0.3
		C428.8,64.4,429,64.1,429.1,63.9z M423.3,100.1c0-0.1,0.2-0.1,0.3-0.1c0.1,0.1,0.2,0.3,0.1,0.4c-0.1,0.5-0.3,0.5-0.6,0.1
		C423.2,100.4,423.3,100.2,423.3,100.1z M418.1,64.7V65l-0.3-0.2L418.1,64.7z M415.7,23.5l0.4,0.2l-0.4,0.1V23.5z M388.2,76l0.1,0.3
		H388L388.2,76z M382.6,32.8l0.3,0.2l-0.3,0.1V32.8z M381.7,52.4v0.4l-0.4-0.2L381.7,52.4z M371.6,30.8c0.5,0.4,0.6,0.8,0,1.1
		C371.1,31.6,371.1,31.2,371.6,30.8z M367.1,35.9l0.3,0.2l-0.3,0.1V35.9z M365.3,28.1c0.1,0.2-0.2,0.5-0.3,0.8
		c-0.4-0.3-0.7-0.6-1.1-0.8C364.5,27.3,364.9,27.5,365.3,28.1z M362.9,33c-0.4,0.5-0.8,0.5-1.2,0c0.3-0.1,0.6-0.2,0.9-0.3
		C362.7,32.6,362.9,33,362.9,33z M361.9,29.1c0.1,0.1,0.1,0.3,0.1,0.5c0,0.1-0.2,0.2-0.4,0.2c-0.1-0.1-0.2-0.3-0.2-0.4
		C361.4,28.9,361.6,28.8,361.9,29.1z M352,24c0-0.1-0.1-0.3-0.1-0.3c0.1-0.1,0.3-0.2,0.5-0.2c0.5,0.1,0.6,0.3,0.1,0.6
		C352.4,24.1,352.2,24,352,24z M352.8,62.8c0,0-0.3-0.2-0.3-0.3c0.1-0.3,0.2-0.5,0.3-0.7C353.3,62.1,353.3,62.4,352.8,62.8z
		 M355,30.8l0.2,0.2l-0.3,0.1L355,30.8z M355.6,52.8c-0.5-0.1-0.6-0.3-0.1-0.5c0.1-0.1,0.3,0,0.5,0.1c0.1,0,0.1,0.2,0.1,0.3
		C355.9,52.7,355.7,52.8,355.6,52.8z M358.6,79c0,0.1-0.2,0.1-0.3,0.1c-0.1-0.1-0.2-0.3-0.1-0.4c0.1-0.5,0.3-0.5,0.6-0.1
		C358.7,78.7,358.7,78.9,358.6,79z M358.3,62.9c-0.5-0.4-0.5-0.7,0-1C358.8,62.2,358.9,62.6,358.3,62.9z M360,109.6L360,109.6
		L360,109.6c0,0,0-0.1-0.1-0.1c-0.2-0.1-0.4-0.2-0.7-0.3c0.7-0.5,0.6,0,0.7,0.3C360,109.5,360,109.6,360,109.6
		c0.2,0.1,0.4,0.3,0.3,0.3C360.4,109.9,360.2,109.8,360,109.6z M359.5,54.6c0.4,0.4,0.5,0.8-0.1,1.1C359,55.3,359,54.9,359.5,54.6z
		 M365,78.3c0.7-0.5,1.3-0.5,2-0.1C366.4,79,365.8,78.6,365,78.3z M364.8,61.8l0.3-0.1V62L364.8,61.8z M366,75.3V75l0.3,0.2
		L366,75.3z M366.4,46.4c-0.8,1.1-1.7,1-2.6,0.9c-0.6,1-1.2,2-1.8,3.1c-1.5,0-0.6-1.4-1.4-1.7c-0.8,0.6-1.1,1.9-2.4,2.2
		c-1,0.1-1.7-0.4-2.1-1.4c1.4-2.6,3.4-4.6,7-5c-0.5-0.9-0.9-1.6-1.2-2.3c-0.9,0.4-1.6,0.8-2.5,1.2c0.1-1.7,0.7-2.8,1.9-3.6
		c0.9-0.6,1.7-1.2,2.2-2.1l0,0c0,0,0,0,0-0.1c-1-0.3-1.2-1.1-1.1-2l0,0c-0.1-0.1-0.1-0.1-0.1-0.2l0,0l0,0c0,0-0.1,0-0.1-0.1l0,0
		c0,0,0,0,0.1,0.1c-0.1-0.1-0.1-0.1,0,0c0,0,0.1,0.1,0.2,0.1l0,0l0,0c1-0.1,1.7,0.2,2.1,1h0.1v0.1c0.2,0.1,0.4,0.3,0.6,0.4
		c-0.2,0.1-0.4,0.3-0.6,0.4v0.1l0,0c0.5,0.6,0.9,1.3,1.4,1.9c0.6,0.7,0.9,1.3,0.9,2.2l0,0c0.2,0.2,0.5,0.4,0.9,0.8
		C367.2,43.8,366.8,45.3,366.4,46.4z M369.4,94.6l0.3-0.3c0.3,0.1,0.6,0.2,0.8,0.3C370.1,95.1,369.7,95.2,369.4,94.6z M370.8,97.5
		c0,0.1-0.2,0.2-0.4,0.2c-0.1-0.1-0.2-0.3-0.2-0.4c0-0.5,0.3-0.6,0.5-0.3C370.8,97.1,370.8,97.3,370.8,97.5z M371.6,107
		c0.3-0.1,0.6-0.2,0.9-0.3c0.1,0,0.3,0.3,0.3,0.3C372.3,107.6,371.9,107.5,371.6,107z M370.7,58.9c-0.7-1.8-0.7-1.8,0.6-2.6
		c0.7,0.3,1.2,0.7,1.4,1.4C372.4,58.5,371.8,59.1,370.7,58.9z M374.3,25.2h0.1c0.1,0.1,0.2,0.3,0.2,0.3l0,0l0,0l0,0l0,0
		C374.6,25.5,374.5,25.4,374.3,25.2C374.3,25.3,374.3,25.2,374.3,25.2c-0.2-0.1-0.5-0.2-0.7-0.3C374.3,24.2,374.2,24.9,374.3,25.2z
		 M373.7,28.9c0.4-0.5,0.8-0.5,1.2,0C374.5,29.3,374.1,29.4,373.7,28.9z M379.3,82.5c-0.3,0.1-0.5-0.4-0.3-0.8
		c0.1-0.1,0.3-0.2,0.4-0.3C379.9,81.8,380,82.3,379.3,82.5z M380.4,58.9c-1.5-0.7-1.5-0.7-2.1-2.3c0.6-0.6,1.2-0.5,1.9-0.3
		C381.1,57.1,381.2,58,380.4,58.9z M381.7,116.4c-0.1,0.1-0.3,0-0.3,0c-0.3-0.4-0.3-0.8,0.3-1C382,115.6,382.2,116,381.7,116.4z
		 M382.6,70.2c-0.3,0.1-0.5-0.4-0.3-0.8c0.1-0.1,0.3-0.2,0.4-0.3C383.2,69.5,383.3,70,382.6,70.2z M385.1,99c-0.1,0,0.1,0.1,0.3,0.3
		c0.2,0.2,0.3,0.4,0.3,0.3c0,0-0.2-0.1-0.4-0.3C385.2,99.2,385.1,99,385.1,99z M386,113.3c-0.5-0.4-0.5-0.7,0-1.1
		C386.5,112.6,386.5,112.9,386,113.3z M388.2,102c-0.1-0.3-0.2-0.5-0.3-0.8c0-0.1,0.2-0.2,0.3-0.3
		C388.7,101.3,388.7,101.7,388.2,102z M390.2,117.5c-0.1,0.1-0.4,0.1-0.5,0.1c-0.5-0.2-0.5-0.4,0.1-0.6c0.1,0,0.3,0.1,0.5,0.1
		C390.2,117.3,390.2,117.5,390.2,117.5z M391.5,78.4l-0.1-0.3h0.3L391.5,78.4z M395.9,115.4v-0.3l0.3,0.2L395.9,115.4z M397.9,85.2
		c0,0-0.2-0.1-0.3-0.3c-0.2-0.2-0.3-0.4-0.3-0.3c0,0,0.2,0.1,0.3,0.3C397.7,85,397.9,85.2,397.9,85.2L397.9,85.2L397.9,85.2
		L397.9,85.2L397.9,85.2z M401.5,105.1l-0.3-0.2l0.3-0.1V105.1z M402.4,114.3l0.2-0.3l0.2,0.4L402.4,114.3z M405,60.5
		c0,0.1-0.2,0.1-0.4,0.1c-0.1-0.1-0.2-0.3-0.2-0.4c0.1-0.5,0.4-0.5,0.6-0.1C405.1,60.2,405.1,60.4,405,60.5z M407.2,91.6
		c-0.7-0.1-0.7-0.5-0.5-1c0.3-0.6,0.9-0.5,1.3-0.1C408.1,91.1,407.7,91.3,407.2,91.6z M407.8,85.1c-0.1-0.1,0-0.3,0.1-0.4
		c0-0.1,0.2-0.1,0.3-0.1c0.1,0.1,0.2,0.3,0.1,0.4C408.3,85.4,408,85.5,407.8,85.1z M409,79.3l0.2-0.3l0.1,0.3H409z M412.8,79.6
		c-0.1,0-0.2-0.2-0.3-0.3c0.3-0.1,0.6-0.2,0.8-0.3c0.1,0,0.2,0.2,0.3,0.3C413.4,79.4,413.1,79.5,412.8,79.6z M415.2,75.7
		c-0.1-0.1-0.2-0.3-0.3-0.3l0,0l0,0l0,0l0,0C415,75.4,415.2,75.5,415.2,75.7C415.3,75.7,415.3,75.7,415.2,75.7
		c0.9,0.3,1.5,0.7,1.6,1.6c-0.3,0.1-0.6,0.1-0.9,0.2C415.3,77,415.4,76.3,415.2,75.7C415.3,75.7,415.3,75.7,415.2,75.7z M415.8,81.3
		c0.4-0.4,0.8-0.4,1.1,0.1C416.6,81.8,416.2,81.8,415.8,81.3z M417.6,112.5c-0.2,0.1-0.5-0.3-0.8-0.4c0.3-0.4,0.6-0.8,1.1-1.4
		C418.8,111.8,418.4,112.2,417.6,112.5z M420.3,62.9l-0.2-0.2l0.3-0.1L420.3,62.9z M420.8,44.6c-0.2-0.1-0.4-0.1-0.4-0.2
		c-0.1-0.3,0.2-0.5,0.6-0.4c0.1,0,0.2,0.2,0.3,0.3C421.1,44.4,421,44.5,420.8,44.6z M424.6,122.5c-0.5-0.4-0.5-0.8,0.1-1.1
		C425.1,121.8,425.2,122.2,424.6,122.5z M425.3,116.3c0,1-0.1,2-0.2,2.9c-0.7,0.3-1.1,0-1.7-0.7c0.4-1.6,1.5-3.6-0.3-5.3
		c0.6-0.6,1-0.9,1.4-1.3c0.5,0.4,0.9,0.7,1.2,0.9C426.6,114.2,425.2,115.2,425.3,116.3z M424.7,108.5c-0.4-0.7,0.2-1.2,1.3-1.7
		c0.3,1.3,0.5,2.3,0.7,3.3C425.1,110.6,425.1,109.2,424.7,108.5z M430.3,118.2c-1.2,0.1-1.3-0.8-2.1-2.2
		C430.1,116.6,430.7,117.1,430.3,118.2z M433.2,73.9c0,0-0.2-0.1-0.3-0.3l0,0c-1.1,0.4-2.1,1.4-3.6,0.7c0.4-1.1,1.6-1,2.4-1.5
		c0.6,0,1,0.3,1.2,0.8h0.1C433.1,73.7,433.2,73.8,433.2,73.9L433.2,73.9L433.2,73.9C433.3,73.9,433.3,73.9,433.2,73.9
		C433.3,73.9,433.2,73.9,433.2,73.9z M435.6,97.7c0.3-0.1,0.6-0.2,0.9-0.3c0.1,0,0.3,0.3,0.3,0.3C436.4,98.3,436,98.3,435.6,97.7z
		 M437.9,103.5c-1-0.2-1.6-0.7-1.6-1.8c0.5-1.2,1.5-1.7,2.9-1.7C439.9,102.3,439.9,102.3,437.9,103.5z M443,46.8L443,46.8
		c-0.2,0.2-0.4,0.4-0.4,0.4C442.5,47.2,442.7,47,443,46.8C442.9,46.8,442.9,46.8,443,46.8c0.1-0.5,0.2-0.9,0.4-1.7
		C444,46.2,443.5,46.5,443,46.8z M447.9,82.3c-1.1-0.5-1.3-1.5-1.7-2.5c0.1-1.3-0.3-2.7,0.7-3.8c0.7-0.1,1.1,0.1,1.4,0.6
		c0.4,0.9-0.2,1.6-0.4,2.5c0.4,0.7,0.8,1.5,1.3,2.4C448.5,81.9,448.2,82.1,447.9,82.3z M448.8,63.7h0.4L449,64L448.8,63.7z
		 M449.6,53.1c-0.2,0.5,0.2,1.2-0.7,1.4C448.4,53.7,448.9,53.3,449.6,53.1c0-0.5,0.1-1,0.2-1.5c0.4,0,0.5-0.1,0.5-0.2
		c0-0.1,0-0.1,0,0c0,0,0,0.1,0.1,0.2C450.6,52.5,450.4,52.9,449.6,53.1z M452.2,70.1l0.2-0.2l0.1,0.3L452.2,70.1z M453.2,115.2
		c-0.2,0-0.4-0.6-0.3-0.8c0.4-0.7,0.9-0.7,1.5-0.2C454.3,114.9,454,115.4,453.2,115.2z M456.8,48.5l-0.3-0.2l0.3-0.1V48.5z
		 M458.9,70.3l-0.1-0.4h0.4L458.9,70.3z M468.6,104.6c-0.1-0.1,0-0.3,0.1-0.4c0-0.1,0.2-0.1,0.3-0.1c0.1,0.1,0.2,0.3,0.1,0.4
		C469,105,468.8,105,468.6,104.6z M468.7,99.9l0.2-0.2l0.1,0.3L468.7,99.9z M467.9,88.4c0.6-0.5,1.3-0.5,1.9,0
		C469.2,89.2,468.5,89.2,467.9,88.4z M469.9,75.4l-0.1-0.3h0.3L469.9,75.4z M475.5,34c-0.5-0.4-0.6-0.8,0-1.2
		C476.1,33.2,476.1,33.6,475.5,34z M477.7,94.7c0.4-0.4,0.8-0.4,1.1,0.1C478.5,95.1,478.1,95.1,477.7,94.7z M483.5,68.9
		c-0.3,0.5-0.8,0.5-1.4,0c0.3-0.3,0.5-0.7,0.8-1C483.7,68,483.7,68.5,483.5,68.9z M483.1,49.6v-0.2l0.2,0.2H483.1z M483.2,101.1
		c-0.4-0.3-0.5-0.7-0.1-1.1c0.1-0.1,0.3,0,0.3,0C483.8,100.4,483.7,100.8,483.2,101.1z M483.5,120.1c-0.3,0.2-0.5,0.1-0.6-0.3
		c-0.1-0.5-0.2-1,0.4-1.3C483.9,118.9,483.8,119.5,483.5,120.1z M483.5,112.6c-0.1-0.2-0.2-0.4-0.2-0.6c0.3,0,0.6-0.1,0.8,0
		c0.1,0,0.2,0.2,0.2,0.3C484,112.4,483.8,112.5,483.5,112.6z M484.6,40.1c-0.9,0.4-1.3,0.3-1.7-0.2c-0.2-1,0.3-1.6,1.4-1.8
		C485,38.6,484.8,39.2,484.6,40.1z M486.4,111.2l0.2-0.2l0.1,0.3L486.4,111.2z M487.6,30.1l-0.2-0.4h0.4L487.6,30.1z M488.5,41.6
		c0.2-0.5,0.4-0.5,0.6,0.1c0,0.1-0.1,0.3-0.1,0.4c-0.1,0-0.3,0-0.3,0C488.5,41.9,488.4,41.7,488.5,41.6z M489.5,106.3
		c-0.1,0.1-0.3,0-0.5,0c0-0.1-0.1-0.3-0.1-0.3c0.1-0.1,0.3-0.2,0.5-0.2C489.9,105.9,489.9,106.1,489.5,106.3z M490.9,112.3
		c-0.2-0.8,0.4-1.1,1-1.4C492.4,112.2,492.4,112.2,490.9,112.3z M492,23.8v-0.3l0.3,0.2L492,23.8z M494.2,106.2v-0.3l0.3,0.2
		L494.2,106.2z M494.3,99.8c0.4-0.4,0.8-0.5,1.1,0C495,100.3,494.7,100.3,494.3,99.8z M495.9,111.7c-0.2-0.2-0.3-0.4-0.3-0.3
		C495.6,111.4,495.8,111.5,495.9,111.7c0.2,0.1,0.4,0.3,0.3,0.3C496.3,112,496.1,111.8,495.9,111.7z M498.2,97.3
		c-0.2,0.1-0.4,0.3-0.4,0.3C497.8,97.6,498,97.4,498.2,97.3c0.1-0.2,0.3-0.4,0.3-0.3C498.5,96.9,498.3,97.1,498.2,97.3z
		 M504.1,106.1l0.2-0.3l0.1,0.3H504.1z M509.7,70.2l-0.1-0.3h0.3L509.7,70.2z M510.4,37.9c0-1-1.3-1.6-0.7-3c1-0.2,1.6,0.2,2.1,0.7
		c0.6,1.1-0.4,1.8-0.7,2.7C510.8,38.4,510.4,38.3,510.4,37.9z M511.7,121.8c-0.7,0.1-1.2-0.3-1.1-0.7c0.3-1.2,0.8-2.4,1.4-3.8
		c0.5,0.9,0.8,1.4,1.1,2C512.8,120.2,512.8,121.3,511.7,121.8z M513.7,53L513.7,53c-0.1,0.1-0.1,0.1-0.2,0.1
		c-0.1,0.2-0.2,0.4-0.3,0.6c-0.6-0.6,0-0.5,0.3-0.6c0,0,0-0.1,0.1-0.1H513.7c0.3-0.5,0.6-0.9,1.4-0.5
		C514.8,53.1,514.2,52.9,513.7,53z M517.3,123.7c0.9-0.3,1.1,0.3,1.4,0.8C517.6,125.1,517.2,124.7,517.3,123.7z M518.7,76.3
		l-0.3-0.2l0.3-0.1V76.3z M519.9,89.3c0,0.1-0.2,0.1-0.3,0.1c-0.1-0.1-0.2-0.3-0.1-0.4c0.1-0.5,0.3-0.5,0.6-0.1
		C520,89,520,89.2,519.9,89.3z M521.8,43.4v-0.3l0.2,0.2L521.8,43.4z M522.9,83.5v-0.3l0.3,0.2L522.9,83.5z M565,33.8l0.1,0.3h-0.3
		L565,33.8z M565.2,36l-0.2,0.3l-0.1-0.3H565.2z M563.9,40.2c-0.4,0.4-0.8,0.5-1.1,0C563.1,39.7,563.5,39.8,563.9,40.2z M535,79.2
		c0.4-0.4,0.8-0.4,1.2,0.1C535.8,79.7,535.4,79.8,535,79.2z M537.3,104.1v-0.3l0.2,0.2L537.3,104.1z M538.4,111.3V111l0.3,0.2
		L538.4,111.3z M542.8,78.2c0.4-0.4,0.8-0.5,1.2,0.1C543.6,78.7,543.2,78.8,542.8,78.2z M546.1,15.4c0.4-0.5,0.9-0.5,1.3,0.1
		C546.9,16,546.5,16,546.1,15.4z M547.9,88c-0.2,0.1-0.4,0.3-0.4,0.3S547.7,88.2,547.9,88c0.1-0.2,0.3-0.4,0.3-0.3
		C548.2,87.7,548.1,87.9,547.9,88z M552.7,16.6l0.2-0.2l0.1,0.3L552.7,16.6z M558.5,88.7l-0.3-0.2l0.3-0.1V88.7z M558.3,59.9v-0.3
		l0.3,0.2L558.3,59.9z M559.3,18.6l0.2-0.2l0.1,0.3L559.3,18.6z M560.5,91.6c0.4-0.4,0.8-0.5,1.2,0.1
		C561.3,92.1,560.9,92.2,560.5,91.6z M561.7,76.3l-0.2-0.2l0.3-0.1L561.7,76.3z M564.1,60.6c-0.9,0-1.2-0.6-1.7-1.4
		c0.4-0.8,0.8-1,1.4-0.8C564.5,59.1,564.5,59.9,564.1,60.6z M565.1,94.9l-0.3-0.2l0.3-0.1V94.9z M564.7,82.4c-0.1-0.2,0-0.8,0.1-0.8
		c0.8-0.3,1.1,0.2,1.2,0.9C565.5,82.8,565,82.9,564.7,82.4z M567.2,76.3l-0.1-0.3h0.3L567.2,76.3z M573.3,123.8
		c-0.1-0.1-0.4-0.1-0.4-0.2c-0.1-0.3,0.2-0.5,0.6-0.4c0.1,0,0.2,0.2,0.2,0.3C573.6,123.6,573.4,123.7,573.3,123.8z M573.7,29v-0.3
		l0.2,0.2L573.7,29z M576,49.5v-0.3l0.2,0.2L576,49.5z M576.9,69.7c-0.1-0.1,0-0.3,0.1-0.4c0-0.1,0.2-0.1,0.4-0.1
		c0.1,0.1,0.2,0.3,0.1,0.4C577.3,70,577.1,70.1,576.9,69.7z M576,43.6c0.9-1,1.2-0.3,1.5,0.2c0.1,0.3,0.1,0.6,0.2,0.9
		c0,0,0.1,0,0.1,0.1c0.2,0.2,0.3,0.4,0.3,0.3c0,0-0.2-0.1-0.4-0.3v-0.1C577.1,44.4,576.5,44,576,43.6z M578.6,109.8
		c0,0.1-0.2,0.2-0.3,0.2c-0.1-0.1-0.2-0.3-0.2-0.4c0-0.5,0.3-0.6,0.5-0.3C578.6,109.4,578.6,109.7,578.6,109.8z M579.3,124.5
		c-0.5-0.4-0.5-0.8,0.1-1.1c0,0,0.3,0.2,0.3,0.3C579.7,124,579.5,124.2,579.3,124.5z M579.9,2.4c-0.1-0.1-0.4-0.1-0.4-0.2
		c-0.1-0.3,0.2-0.5,0.6-0.4c0.1,0,0.2,0.2,0.2,0.3C580.2,2.2,580.1,2.3,579.9,2.4z M581.5,106.2v-0.3l0.3,0.2L581.5,106.2z
		 M582.5,48.5l0.2-0.2l0.1,0.3L582.5,48.5z M583.6,8.3l0.2-0.3l0.1,0.3H583.6z M661.1,37l0.3,0.2l-0.3,0.1V37z M619.3,31.8v0.3
		l-0.3-0.2L619.3,31.8z M613.7,27.6V28l-0.4-0.2L613.7,27.6z M611.8,54.3c0.1-0.1,0.3,0,0.5,0.1c0.1,0,0.1,0.2,0.1,0.3
		c-0.2,0-0.3,0.2-0.5,0.1C611.4,54.7,611.3,54.5,611.8,54.3z M590.3,92.8v-0.3l0.3,0.2L590.3,92.8z M591.2,36.8
		c-0.1-0.1,0-0.3,0.1-0.4c0-0.1,0.2-0.1,0.3-0.1c0.1,0.1,0.2,0.3,0.1,0.4C591.7,37.1,591.5,37.1,591.2,36.8z M592.7,23.9l-0.2-0.2
		l0.3-0.1L592.7,23.9z M594.7,102v-0.3l0.3,0.2L594.7,102z M599.8,82.8C599.8,82.8,599.8,82.9,599.8,82.8c-0.1,0.2-0.3,0.3-0.3,0.3
		l0,0l0,0l0,0l0,0C599.6,83.1,599.7,83,599.8,82.8L599.8,82.8c-0.2-0.8-0.3-1.6-0.5-2.5c0.4-0.6,1-0.6,2-0.2
		C601.3,81.2,601.1,82.2,599.8,82.8z M602.6,44.2c-0.5-0.4-0.5-0.7,0-1.1C603.1,43.5,603.1,43.9,602.6,44.2z M603.8,31.8
		c0.4,0.3,0.5,0.7,0.1,1.1c-0.1,0.1-0.3,0-0.3,0C603.1,32.5,603.2,32.1,603.8,31.8z M603.6,109.2c0.4-0.7,0.7-1.1,1.3-1
		C605.5,109.3,605,109.6,603.6,109.2z M604.8,45.3c-0.1-0.3-0.3-0.5-0.4-0.8c0-0.1,0.3-0.3,0.4-0.3
		C605.4,44.5,605.3,44.9,604.8,45.3z M606.7,99c-0.1,0.1-0.3,0.1-0.5,0c-0.1,0-0.2-0.2-0.3-0.3c0.1-0.1,0.3-0.2,0.4-0.2
		C606.9,98.6,607,98.8,606.7,99z M608.2,105.2c-0.9-0.5-1.1-1.4-1.1-2.3C608.8,103,608.8,103,608.2,105.2z M610,90.9
		c0.2-0.5,0.5-0.5,0.6,0.1c0,0.1-0.1,0.3-0.1,0.4c-0.1,0-0.3,0-0.4,0C610,91.3,610,91.1,610,90.9z M612.5,118.5v-0.2l0.2,0.2H612.5z
		 M613.7,115.3c-1.2-0.6-2.7-0.6-3.4-2.1c0.6-0.7,1.2-0.5,2-0.1c0.5-0.4,1-0.7,1.5-1.1c0.6-0.2,1,0.1,1.2,0.6
		C615,113.7,614.4,114.5,613.7,115.3z M615.3,100.4L615.3,100.4c-0.1,0.5-0.2,0.9-0.2,1.4c-0.9,0-0.8-0.5-0.6-0.9
		C614.6,100.7,615,100.6,615.3,100.4L615.3,100.4c0.1-0.1,0.2-0.2,0.2-0.3l0,0l0,0C615.5,100.2,615.4,100.3,615.3,100.4z
		 M615.8,88.5c0,0,0.2-0.3,0.3-0.3c0.3,0.1,0.5,0.2,0.8,0.3C616.5,89,616.1,89,615.8,88.5z M619,120.4c0.4-0.4,0.8-0.5,1.1,0
		C619.8,120.8,619.4,120.9,619,120.4z M628.2,110.4c-0.1,0-0.2-0.2-0.3-0.3c0.4-0.4,0.8-0.4,1.1,0
		C628.8,110.2,628.5,110.4,628.2,110.4z M640.9,116c-0.1-0.5,0.1-0.9,0.6-1.2c0.3,0,0.6-0.1,1-0.1c0.3,0.1,0.6,0.3,0.9,0.4
		C642.4,116.5,642.4,116.5,640.9,116z M640,110.9c-8.6,0-16.1-7.1-20.4-17.7c-0.5,0.1-1,0-1.5-0.5c0.1-0.5,0.3-0.8,0.9-1
		c-2.1-5.7-3.3-12.2-3.3-19.3c0-21.3,10.9-38.5,24.3-38.5c1.2,0,2.3,0.1,3.5,0.4c-0.1-0.1-0.2-0.2-0.3-0.3c0.1-0.1,0.2-0.2,0.3-0.3
		c0.1,0.1,0.3,0.2,0.3,0.3s-0.2,0.2-0.3,0.3c11.7,2.7,20.8,18.7,20.8,38.1C664.2,93.7,653.3,110.9,640,110.9z M669.7,82
		c-0.1-0.1,0-0.3,0.1-0.4c0-0.1,0.2-0.1,0.3-0.1c0.1,0.1,0.2,0.3,0.1,0.4C670.2,82.4,669.9,82.4,669.7,82z"/>
	<path class="st0" d="M149,78.8c0,0.6,0,1.3,0,1.9C150.2,79.9,150.2,79.8,149,78.8z"/>
</g>
</svg>
