<?xml version="1.0" encoding="utf-8"?>
<!-- Generator: Adobe Illustrator 22.1.0, SVG Export Plug-In . SVG Version: 6.00 Build 0)  -->
<svg version="1.1" id="Layer_1" xmlns="http://www.w3.org/2000/svg" xmlns:xlink="http://www.w3.org/1999/xlink" x="0px" y="0px"
	 viewBox="0 0 1280 125" style="enable-background:new 0 0 1280 125;" xml:space="preserve">
<style type="text/css">
	.st0{fill:#F83B3F;}
</style>
<g>
	<path class="st0" d="M915.6,37.6c0.3,0,0.7,0,1.1,0.1l0,0l0,0c-0.2-0.5-0.5-0.9-1.1-1l0,0c-0.1,0-0.1,0-0.1,0
		C915.5,37,915.5,37.3,915.6,37.6C915.5,37.6,915.6,37.6,915.6,37.6L915.6,37.6z"/>
	<path class="st0" d="M913.6,42L913.6,42L913.6,42z"/>
	<path class="st0" d="M1127.8,79.8c0.2-0.2,0.5-0.3,0.7-0.4C1127.8,78.9,1127.9,79.4,1127.8,79.8z"/>
	<path class="st0" d="M606.8,72.4c0,22.6,9,41.9,21.6,49.3c0.1-0.1,0.2-0.2,0.4-0.1c0.1,0,0.2,0.3,0.2,0.4l0,0c3.5,1.9,7.2,3,11,3
		h360.8c-0.3-0.5-0.3-1.2,0.8-1.3c0.2,0.4,0.5,0.9,0.7,1.3h151.1c0.1-0.5,0.4-0.9,1.1-0.9c0.2,0.2,0.5,0.4,0.8,0.6
		c0,0.1-0.1,0.2-0.1,0.3h19.1c0-0.1,0.1-0.2,0.3-0.4c0.2,0.1,0.3,0.2,0.4,0.4h105V19.8h-268.4c0.2,0.8-0.2,1.5-1,3.1
		c0-1.2,0-2.2,0-3.1H929c-0.5,0.3-1,0.3-1.5,0H753.8c0.3,0.3,0.3,0.7-0.2,1c0,0-0.4-0.2-0.4-0.3c0.1-0.3,0.2-0.5,0.3-0.8
		C750.3,18.3,709.3,0,702.4,0c-5.9,0-12.3,19.8-12.3,19.8H640C621.8,19.8,606.9,43.4,606.8,72.4z M1012.4,30l-0.4-0.1l0.3-0.2
		L1012.4,30z M1068.6,87.5c-0.5-0.4-0.5-0.7,0-1.1C1069.2,86.7,1069.1,87.1,1068.6,87.5z M1107.3,52.4c0.5,0.4,0.5,0.7,0,1.1
		c0,0-0.3-0.2-0.3-0.3C1107,53,1107.2,52.7,1107.3,52.4z M1107.9,41.4c-0.2,0.1-0.3,0-0.5-0.1c0-0.1,0-0.3,0.1-0.3
		c0.2-0.1,0.4-0.2,0.5-0.1C1108.5,41.1,1108.4,41.4,1107.9,41.4z M1127.6,69.6c-0.2,0.4-0.5,0.4-0.6-0.1c-0.1-0.1,0-0.3,0.1-0.4
		c0.1,0,0.3,0,0.3,0.1C1127.5,69.4,1127.5,69.6,1127.6,69.6z M1131.8,61.4c-0.3,0.4-0.5,0.4-0.6-0.1c0-0.1,0.1-0.3,0.2-0.4
		c0.2,0,0.4,0,0.4,0.1C1131.9,61.1,1132,61.3,1131.8,61.4z M1131.6,68.8l0.2,0.3h-0.3L1131.6,68.8z M1134.8,66.2
		c-0.2-0.8-0.3-1.3-0.4-1.8l0,0c-0.2-0.2-0.4-0.4-0.4-0.4s0.2,0.2,0.4,0.3v0.1C1135,64.7,1135.5,65.1,1134.8,66.2z M1153.7,108.1
		c-0.4,0.5-0.8,0.5-1.2,0C1153,107.6,1153.4,107.6,1153.7,108.1z M1171.5,59.8h-0.3l0.1-0.3L1171.5,59.8z M1175.8,26.9
		c-0.5-0.3-1.3-0.4-1-1.3C1176,25.5,1176.5,25.8,1175.8,26.9z M1175.8,44.2c-0.5-0.7-0.5-1.2,0-1.8
		C1176.5,43,1176.4,43.5,1175.8,44.2z M1175.5,55.8c0.3-0.3,0.5-0.2,0.5,0.3c0,0.1-0.1,0.3-0.2,0.4c-0.1,0-0.3-0.1-0.3-0.2
		S1175.5,56,1175.5,55.8z M1177.3,61.3c0,0.1-0.1,0.3-0.2,0.4c-0.2,0-0.4-0.1-0.4-0.2c-0.1-0.2-0.1-0.4,0-0.5
		C1176.9,60.7,1177.2,60.8,1177.3,61.3z M1177,64.9c-0.5-0.3-0.5-0.6-0.1-1C1177.4,64.2,1177.3,64.6,1177,64.9z M1178,49.5
		c-0.5-0.4-0.5-0.7,0-1.1C1178.5,48.8,1178.5,49.2,1178,49.5z M1179.2,117.3c-0.4,0.6-0.8,0.5-1.2,0.1
		C1178.4,116.8,1178.8,116.8,1179.2,117.3z M1181.5,45.3l-0.3,0.2v-0.3L1181.5,45.3z M1248.9,70.1h-0.3l0.1-0.3L1248.9,70.1z
		 M1276.2,22.8c-0.1,0.1-0.3,0.2-0.5,0.2c-0.1-0.1-0.3-0.2-0.4-0.3c0.1-0.1,0.3-0.3,0.4-0.3C1276.1,22.4,1276.4,22.5,1276.2,22.8z
		 M1278.7,52.4l-0.1,0.3l-0.2-0.2L1278.7,52.4z M1279.6,59.6l0.3,0.1l-0.3,0.2V59.6z M1278.4,66l0.2-0.3l0.2,0.3H1278.4z
		 M1276.2,41.8c0-0.3,0.3-0.7,0.5-0.8c0.6-0.2,0.9,0.2,1.1,0.7c-0.2,0.3-0.3,0.7-0.5,0.8C1276.7,42.7,1276.2,42.4,1276.2,41.8z
		 M1275.2,49.5c0.2-0.5,0.7-0.5,1.1-0.2c0,0,0.1,0.3,0,0.3C1275.9,49.9,1275.5,49.8,1275.2,49.5z M1275.1,83.4l0.1-0.3l0.2,0.3
		H1275.1z M1272.7,73.5c0.2-0.5,0.4-0.5,0.6,0.1c0,0.1,0,0.3-0.1,0.4c0,0-0.2,0-0.3,0C1272.8,73.8,1272.7,73.7,1272.7,73.5z
		 M1272,53.5c0.8,0.3,1.7,0.3,2.2,1.1C1271.6,55.2,1271.6,55.2,1272,53.5z M1271.7,107.2l0.2-0.4l0.2,0.3L1271.7,107.2z
		 M1270.4,61.1c0.3-0.4,0.5-0.4,0.6,0.1c0.1,0.1,0,0.3-0.1,0.4c-0.1,0-0.3,0-0.3-0.1C1270.5,61.4,1270.5,61.2,1270.4,61.1z
		 M1269.5,35.3c-0.1,0-0.2,0.1-0.2,0.4h-0.1c-0.3,0.6-0.6,1-1.4,0.6c0.3-0.7,0.9-0.5,1.4-0.6v-0.1
		C1269.3,35.4,1269.5,35.3,1269.5,35.3L1269.5,35.3L1269.5,35.3z M1266.6,45.1c0,0,0.2-0.2,0.4-0.3l0,0c0.5-0.7,0.9-1.3,1.8-0.5
		c-0.5,0.6-1.2,0.4-1.8,0.5l0,0C1266.8,45,1266.6,45.1,1266.6,45.1z M1265.9,29.4c0.5,0.1,1.2,0,0.5,0.8
		C1266.2,29.9,1266,29.6,1265.9,29.4z M1265.3,28.9c0.2,0,0.3,0,0.4,0.1c0.1,0.1,0.1,0.3,0.2,0.4
		C1265.7,29.2,1265.5,29.1,1265.3,28.9z M1264,105.9l0.4,0.1l-0.3,0.2L1264,105.9z M1264,94.7l0.3-0.2v0.3L1264,94.7z M1261.6,99.3
		c0-0.1,0.1-0.3,0.2-0.4c0.2,0,0.4,0,0.4,0.1c0.1,0.2,0.2,0.4,0.1,0.5C1262.1,99.9,1261.8,99.8,1261.6,99.3z M1259.7,32
		c1.3-1.5,1.3-1.5,2.2,0.1C1261.3,32.7,1260.7,32.6,1259.7,32z M1258.4,83.1c0-0.2,0.1-0.5,0.1-0.8c0.2,0,0.5,0.1,0.7,0.2
		c-0.1,0.3-0.3,0.5-0.4,0.8C1258.6,83.2,1258.4,83.2,1258.4,83.1z M1258.8,68.9c0.5,0.5,0.4,1-0.1,1.3c-0.2,0.1-0.8,0-0.9-0.1
		C1257.4,69.3,1258,69.1,1258.8,68.9z M1257.4,37c1.3,0.6,0.8,1.6,0.9,2.5c0.6,0.4,1.2,0.9,0.2,1.7c-0.3-0.5-0.4-1-0.6-1.4
		C1256.6,39,1256.6,38.1,1257.4,37z M1252.9,81.8c0-0.1,0.1-0.3,0.2-0.4c0.1,0,0.3,0.1,0.3,0.2c0.1,0.5-0.1,0.7-0.4,0.6
		C1253,82.2,1252.9,81.9,1252.9,81.8z M1252.3,73.9c-0.1,0,0.1-0.2,0.3-0.3c0.1-0.2,0.3-0.3,0.3-0.3c0-0.1-0.1,0.1-0.3,0.3
		C1252.4,73.8,1252.2,73.9,1252.3,73.9z M1248.3,120.8c0.3-0.4,0.5-0.4,0.6,0.1c0.1,0.1,0,0.3-0.1,0.4c-0.1,0-0.3,0-0.3-0.1
		C1248.4,121.1,1248.4,120.9,1248.3,120.8z M1245.5,68.1c0.1,0.2,0.3,0.5,0.4,0.8l-0.4,0.3C1244.8,68.8,1244.9,68.4,1245.5,68.1z
		 M1243.3,98.7c0.2,0,0.4-0.1,0.5-0.1c0.6,0.1,0.6,0.3,0.1,0.5c-0.2,0-0.4,0-0.5-0.1C1243.4,99,1243.4,98.8,1243.3,98.7z M1242,38
		c1.5-0.4,2-0.2,1.4,1C1242.7,39.1,1242.4,38.8,1242,38z M1240,28.8c-0.1-0.2-0.3-0.3-0.5-0.5c0.2-0.2,0.3-0.4,0.5-0.6
		c0.1,0.1,0.3,0.2,0.3,0.3C1240.3,28.3,1240.1,28.5,1240,28.8z M1238.7,64.9c0.4-0.5,0.8-0.5,1.2-0.1
		C1239.5,65.3,1239.2,65.3,1238.7,64.9z M1235.8,34.3c-0.3-0.3-0.2-0.5,0.3-0.5c0.1,0,0.3,0.1,0.4,0.2c-0.1,0.1-0.2,0.3-0.3,0.3
		C1236.1,34.3,1235.9,34.3,1235.8,34.3z M1235.3,121.9c0-0.1,0.1-0.3,0.2-0.4c0.1,0,0.3,0.1,0.3,0.2c0.1,0.5-0.1,0.7-0.4,0.6
		C1235.3,122.3,1235.2,122.1,1235.3,121.9z M1230.9,72.8c0.7-0.2,1.1-0.4,1.6-0.5c0.2-0.4,0.3-0.9,0.5-1.3c1,0.1,1.4,0.4,1.3,1.3
		c-0.5,0.1-1,0.3-1.5,0.4C1232.3,73.4,1231.8,73.8,1230.9,72.8z M1231,67.1l0.2-0.2v0.2H1231z M1228.8,42.3c0.4-0.5,0.8-0.5,1.2,0
		c0,0-0.2,0.3-0.3,0.3C1229.4,42.5,1229.1,42.4,1228.8,42.3z M1227.7,36.9c0,0,0.2,0,0.3,0.1c0.3,0.4,0.2,0.8-0.3,1
		C1227.2,37.7,1227.2,37.3,1227.7,36.9z M1224.2,117.5l0.1-0.3l0.2,0.2L1224.2,117.5z M1223.3,67.9c0.2,0.2,0.3,0.3,0.5,0.5h0.1
		h-0.1h0.1c0.1,0,0.1,0.1,0.1,0.1c0.3,0.1,0.9,0,0.4,0.6c-0.2-0.2-0.3-0.4-0.4-0.6h-0.1l-0.1-0.1c-0.2,0-0.3,0-0.4-0.1
		C1223.3,68.2,1223.3,68.1,1223.3,67.9z M1219.4,33.7c0.2,0,0.4,0.1,0.5,0.2c0,0-0.1,0.2-0.1,0.3c-0.2,0.1-0.4,0.2-0.5,0.1
		C1218.8,34.1,1218.9,33.8,1219.4,33.7z M1217.6,86.3c0.3-0.1,0.5-0.2,0.7-0.3c0,0,0,0,0.1-0.1c0.1-0.2,0.3-0.3,0.3-0.3
		c0-0.1-0.1,0.1-0.3,0.3c0,0.1-0.1,0.1-0.1,0.1C1218.2,86.3,1218.3,86.9,1217.6,86.3z M1216.5,48.5l0.1-0.3l0.2,0.2L1216.5,48.5z
		 M1215.7,31.1c-0.2-0.2-0.5-0.4-0.5-0.6s0.3-0.4,0.5-0.6c0.1,0.3,0.2,0.5,0.3,0.8C1216,30.8,1215.8,30.9,1215.7,31.1z M1214.5,76.2
		c0.4-0.5,0.8-0.5,1.2,0C1215.3,76.6,1214.9,76.6,1214.5,76.2z M1213.2,98l0.1-0.3l0.2,0.2L1213.2,98z M1212.4,86.6
		c0-0.1,0-0.3,0.1-0.3c0.2-0.1,0.4-0.2,0.5-0.1c0.5,0.2,0.4,0.4-0.1,0.5C1212.7,86.8,1212.6,86.6,1212.4,86.6z M1211.4,28.7
		c-0.1,0-0.3,0-0.4,0c0-0.1-0.1-0.3-0.1-0.4c0.1-0.6,0.4-0.6,0.6-0.1C1211.5,28.3,1211.4,28.5,1211.4,28.7z M1210,79.4
		c0.4-0.6,0.8-0.5,1.2-0.1C1210.8,79.8,1210.4,79.7,1210,79.4z M1208.7,95.9c0.3-0.3,0.5-0.2,0.5,0.3c0,0.1-0.1,0.3-0.2,0.4
		c-0.1,0-0.3-0.1-0.3-0.2C1208.6,96.3,1208.6,96.1,1208.7,95.9z M1207.8,77.3c0.1-0.1,0.1-0.3,0.2-0.3c0.2-0.1,0.6-0.1,0.8,0
		c0.3,0.2,0.2,0.4-0.2,0.6C1208.3,77.5,1208,77.4,1207.8,77.3z M1206.7,21.7c0.4-0.6,0.8-0.6,1.2-0.1
		C1207.6,22.2,1207.1,22.1,1206.7,21.7z M1205.6,79.4c0.4-0.5,0.8-0.5,1.2-0.1C1206.5,79.8,1206.1,79.7,1205.6,79.4z M1203.4,80.6
		c-0.1,0-0.3-0.2-0.3-0.2c0.2-0.4,0.4-0.5,0.6-0.1C1203.7,80.3,1203.5,80.5,1203.4,80.6z M1202.4,109.1c0,0,0.2-0.3,0.3-0.3
		c0.3,0.1,0.5,0.2,0.8,0.3C1203.1,109.6,1202.7,109.5,1202.4,109.1z M1201.3,48.6c0-0.1,0-0.3,0.1-0.3c0.2-0.1,0.4-0.2,0.5-0.1
		c0.5,0.2,0.4,0.4-0.1,0.5C1201.7,48.7,1201.5,48.6,1201.3,48.6z M1200.4,24.6c0.5-0.1,0.9-0.1,1.4-0.2c0-0.1,0-0.1,0-0.1
		c0.1-0.2,0.3-0.3,0.3-0.3c0-0.1-0.1,0.1-0.3,0.3h-0.1c-0.2,0.3-0.3,0.6-0.5,0.7C1200.8,25.1,1200.3,25.3,1200.4,24.6z
		 M1199.9,120.6l0.1-0.3l0.2,0.2L1199.9,120.6z M1196.4,101.6c0.1,0,0.3,0.1,0.4,0.2c-0.1,0.1-0.2,0.3-0.3,0.3
		c-0.2,0.1-0.4,0.1-0.5,0C1195.7,101.9,1195.8,101.7,1196.4,101.6z M1194.6,39.2c0.1-0.1,0.3-0.3,0.4-0.3c0.5-0.1,0.7,0.1,0.5,0.4
		c0,0-0.2,0.1-0.4,0.1C1194.9,39.4,1194.8,39.3,1194.6,39.2z M1191.5,108.3c0,0,0.2,0.1,0.3,0.3c0.2,0.1,0.4,0.3,0.4,0.3
		s-0.2-0.2-0.4-0.3C1191.6,108.4,1191.5,108.3,1191.5,108.3z M1189.1,34c0.3-0.1,0.6-0.3,0.9-0.3c0,0,0.2,0.2,0.3,0.3
		c-0.2,0.1-0.4,0.4-0.6,0.4C1189.5,34.4,1189.3,34.1,1189.1,34z M1188.2,21.9c0,0,0.2,0.1,0.3,0.3c0.2,0.1,0.3,0.3,0.4,0.3
		c0,0-0.2-0.2-0.4-0.3C1188.3,22,1188.2,21.9,1188.2,21.9z M1187,66c0.1,0,0.2,0.3,0.2,0.4c-0.1,0.1-0.2,0.3-0.3,0.4
		c-0.1-0.1-0.3-0.2-0.3-0.3C1186.5,66.1,1186.7,65.9,1187,66z M1184.5,85.6c0.2-0.3,0.5-0.2,0.5,0.3c0,0.1-0.1,0.3-0.2,0.4
		c-0.2,0-0.4-0.1-0.4-0.2C1184.3,86,1184.3,85.8,1184.5,85.6z M1182.6,108.1h-0.3l0.1-0.3L1182.6,108.1z M1182.6,120.2l-0.1,0.3
		l-0.2-0.2L1182.6,120.2z M1181.4,123.5c0.4-0.6,0.8-0.5,1.2-0.1C1182.2,124,1181.8,123.9,1181.4,123.5z M1181.1,114.8
		c-0.1-0.1,0-0.3,0.1-0.4c0.1,0,0.3,0,0.3,0.1c0.1,0.1,0.2,0.3,0.1,0.4C1181.4,115.3,1181.2,115.3,1181.1,114.8z M1179.2,97.7
		l-0.1,0.3l-0.2-0.3H1179.2z M1178.3,122.5c0.2,0.3,0.5,0.5,0.9,1c-0.9,0.7-1.8,0.8-2.1,0.1C1176.8,123,1177.4,122.4,1178.3,122.5z
		 M1175.8,115.1c0.5,0.3,0.5,0.7,0,1.1C1175.2,115.8,1175.3,115.5,1175.8,115.1z M1174.7,113.3c0.5-1,1-1.8,2-2.1
		c0.7-0.1,1.1,0.2,1.6,1.1C1177,112.7,1176.3,114.2,1174.7,113.3z M1174.5,76.3l0.1-0.3l0.2,0.2L1174.5,76.3z M1173.1,32.1
		c-0.1-0.1-0.3-0.1-0.4-0.2c0-0.1,0.1-0.3,0.2-0.3c0.4-0.1,0.7,0.1,0.6,0.4C1173.4,32.1,1173.2,32.2,1173.1,32.1z M1172.7,66.3
		c0.1,0.1,0,0.3-0.1,0.4c-0.1,0-0.3,0-0.3-0.1c-0.1-0.1-0.2-0.3-0.1-0.4C1172.4,65.9,1172.6,65.9,1172.7,66.3z M1172.7,90.5
		l-0.3,0.2v-0.3L1172.7,90.5z M1171.3,121.3c0-1.2,0-1.2,1.4-0.9C1172.5,121,1172.1,121.4,1171.3,121.3z M1170.9,109.2
		c-0.3-0.2-0.7-0.5-1-0.8c0.7-0.6,1.1-0.7,1.5-0.3C1171.8,108.4,1171.7,108.8,1170.9,109.2z M1169.2,116.3c0.3-0.4,0.7-0.5,1.1,0
		C1170,116.8,1169.6,116.7,1169.2,116.3z M1169,52.4l0.4,0.1l-0.3,0.2L1169,52.4z M1168,38.2l0.2-0.2v0.3L1168,38.2z M1164.6,85.6
		l0.2-0.4l0.2,0.3L1164.6,85.6z M1158.4,106.8C1158.4,106.8,1158.3,106.8,1158.4,106.8L1158.4,106.8L1158.4,106.8
		c0-0.1,0.1-0.2,0.2-0.3s0.3-0.2,0.3-0.2l0,0l0,0l0,0l0,0c0,0-0.1,0.2-0.2,0.3l0,0C1158.6,106.7,1158.4,106.8,1158.4,106.8
		L1158.4,106.8z M1155.7,78.4l0.1-0.3l0.2,0.2L1155.7,78.4z M1153.5,39c1-0.2,1.8-0.6,2.7,0.3C1155.3,39.6,1154.6,39.8,1153.5,39z
		 M1152.5,111.3c0.4-0.6,0.9-0.6,1.3-0.1c0.3,0.4,0.3,0.8-0.4,1.1C1153.1,112,1152.8,111.6,1152.5,111.3z M1147.9,122.5
		c0.1-0.1,0.2-0.3,0.3-0.3c0.4,0.1,0.4,0.3,0,0.5C1148.2,122.8,1148,122.6,1147.9,122.5z M1147.8,85.8c0.3-0.4,0.5-0.4,0.6,0.1
		c0.1,0.1,0,0.3-0.1,0.4c-0.1,0-0.3,0-0.3-0.1C1147.9,86.1,1147.8,85.9,1147.8,85.8z M1146.9,26.9l0.1-0.3l0.2,0.3H1146.9z
		 M1144.6,50c-0.1-0.1,0-0.3,0.1-0.4c0.1,0,0.3,0,0.3,0.1c0.1,0.1,0.2,0.3,0.1,0.4C1144.9,50.5,1144.7,50.5,1144.6,50z M1144.9,45.2
		c0.1,0.1,0.3,0.2,0.3,0.3c-0.1,0.3-0.2,0.5-0.3,0.8C1144.4,46,1144.4,45.6,1144.9,45.2z M1141.3,36l0.4-0.2v0.4L1141.3,36z
		 M1140.2,73.5c0.2-0.4,0.5-0.4,0.6,0.1c0,0.1-0.1,0.3-0.2,0.4c-0.2,0-0.4,0-0.4-0.1S1140.1,73.5,1140.2,73.5z M1139.2,62.9l0.1-0.3
		l0.2,0.3H1139.2z M1135.8,100.1c-0.3-0.1-0.6-0.2-0.9-0.3c0.1-0.1,0.2-0.3,0.3-0.3c0.3,0.1,0.6,0.2,0.9,0.3
		C1136,99.9,1135.9,100.1,1135.8,100.1z M1134.6,118.3c0.3-0.2,0.5-0.3,0.8-0.4c0,0,0-0.1,0,0c0.2-0.2,0.3-0.3,0.3-0.3l0,0l0,0
		c0,0-0.1,0.1-0.3,0.3c0.1,0,0,0,0,0C1135.3,118.3,1135.4,118.9,1134.6,118.3z M1122.9,81.1c0.6-1,1.6-1.2,2.7-1.3
		c0-0.1,0-0.1,0-0.1h0.1c0.9-1.1-0.1-2.2,0-3.6c1.6-1.8,3.6-3.4,6.4-3.5c2.1,0.9,2.7,2.5,3.6,4.3c-1.5,1.2-1.9,3-2.8,4.5
		c-0.8-0.3-1.3-0.4-1.8-0.6c-0.5,0.6-1,1.3-1.4,1.7c-1.1,0.3-2,0.5-2.8-0.1c-0.6-1.1,0.5-1.7,0.8-2.6c-0.7-0.1-1.4-0.1-2.1-0.1
		c0,0.1,0,0.1,0,0.1h-0.1c-0.1,1,0.3,2-0.6,2.8C1123.6,82.2,1123.6,82.2,1122.9,81.1z M1121.5,54.3c0.7,0.5,1.2,0.7,1.7,1.1
		c0,0.8,0.1,1.6,0,2.4c-0.1,0.2-0.3,0.5-1.2,1.9C1122.7,57.2,1121.3,56.3,1121.5,54.3z M1121.4,25.1c0.2-0.4,0.5-0.4,0.6,0.1
		c0,0.1-0.1,0.3-0.2,0.4c-0.2,0-0.4,0-0.4-0.1C1121.3,25.4,1121.3,25.2,1121.4,25.1z M1118.3,41.3c0.3-0.6,0.7-0.5,1.1-0.1
		C1119.1,41.7,1118.7,41.7,1118.3,41.3z M1116,71.1l0.1-0.3l0.2,0.3H1116z M1116.1,54.7c0.6,0,1,0.4,1.1,0.9c-0.4,0.5-1,0.4-1.3-0.1
		C1115.8,55.3,1116.1,54.6,1116.1,54.7z M1114.9,80.2l0.4,0.1l-0.4,0.2V80.2z M1111.6,110.2l0.1-0.3l0.2,0.3H1111.6z M1111.7,75.1
		c0.9-0.1,2,1.1,2.7-0.4c-1.5-1.9-1.5-2-0.1-5c0.4,1.9,0.4,3.3,0.3,4.8c1.1,1.7,1.2,2.1,0,3.2c-0.8-0.9-2.1-0.1-3.2-0.8
		C1111.2,76.2,1111.1,75.6,1111.7,75.1z M1108.3,110.2c0.4-0.6,0.8-0.5,1.2-0.1C1109.1,110.6,1108.8,110.6,1108.3,110.2z
		 M1108.3,117.2l0.3,0.1l-0.3,0.2V117.2z M1107.3,113.3c0.3-0.6,0.8-0.6,1.2-0.1C1108.1,113.8,1107.7,113.7,1107.3,113.3z
		 M1106,79.2c0.1-0.1,0.2-0.3,0.3-0.3c0.3,0.1,0.6,0.2,0.9,0.3C1106.8,79.7,1106.4,79.8,1106,79.2z M1105,96.9
		c-0.2-0.2-0.3-0.4-0.4-0.6c0,0-0.1,0-0.1-0.1c-0.2-0.2-0.3-0.3-0.3-0.3c-0.1,0,0.1,0.2,0.3,0.3c0.1,0,0.1,0.1,0.1,0.1
		C1104.9,96.4,1105.5,96.3,1105,96.9z M1104.1,119.4c0-0.1,0.1-0.3,0.2-0.3c0.4,0,0.7,0.1,0.6,0.4c0,0.1-0.3,0.1-0.4,0.2
		C1104.4,119.6,1104.2,119.5,1104.1,119.4z M1102.8,93.7l0.2-0.2v0.3L1102.8,93.7z M1098.4,79.1c0.2,0.3,0.3,0.5,0.4,0.8
		c0,0.1-0.3,0.3-0.3,0.3C1097.9,79.9,1097.9,79.5,1098.4,79.1z M1094.9,73.7c-0.1-0.1,0-0.3,0.1-0.4c0.1,0,0.3,0,0.3,0.1
		c0.1,0.1,0.2,0.3,0.1,0.4C1095.2,74.2,1095,74.1,1094.9,73.7z M1092.9,35.1c-0.7-1.3,0.1-1.7,1.2-2.1
		C1094.7,34.2,1094,34.8,1092.9,35.1z M1094.1,57.6l-0.2,0.2v-0.2H1094.1z M1093.6,69.2c-0.2,0-0.4,0-0.5-0.1c0,0,0-0.2,0-0.3
		c0.2,0,0.4-0.1,0.5-0.1C1094.1,68.8,1094.2,69,1093.6,69.2z M1092.8,82.4c0.4-0.6,0.8-0.5,1.2-0.1
		C1093.6,82.9,1093.2,82.8,1092.8,82.4z M1092.9,116.2c0.6,0.3,0.5,0.7,0.1,1.1C1092.4,117,1092.4,116.6,1092.9,116.2z M1091.5,95.7
		l0.4-0.2v0.4L1091.5,95.7z M1090,54.2c-0.3,0.4-0.5,0.4-0.6-0.1c-0.1-0.1,0-0.3,0.1-0.4c0.1,0,0.3,0,0.3,0.1
		C1089.9,53.9,1089.9,54.1,1090,54.2z M1089.3,63c0.2-0.3,0.5-0.2,0.5,0.3c0,0.1-0.1,0.3-0.2,0.4c-0.1,0-0.3-0.1-0.3-0.2
		S1089.3,63.2,1089.3,63z M1087.4,112.2c0,0,0.2-0.3,0.3-0.3c0.3,0.1,0.5,0.2,0.8,0.3C1088.1,112.6,1087.7,112.6,1087.4,112.2z
		 M1082.8,42.3l0.3-0.2v0.3L1082.8,42.3z M1078.5,112.1c0.7,0.7,0.6,1.4,0.1,2.1C1077.9,113.5,1077.9,112.8,1078.5,112.1z
		 M1078.5,97.8l0.2-0.2v0.3L1078.5,97.8z M1077.4,34.1c0.4-0.6,0.8-0.6,1.2-0.1C1078.3,34.6,1077.9,34.5,1077.4,34.1z M1068.1,92.6
		c1.1-0.8,1.4-2,3-2C1070.6,92.8,1070.6,92.8,1068.1,92.6z M1067.4,69l0.2-0.2v0.3L1067.4,69z M1066.3,61.9c0.4-0.6,0.8-0.5,1.2-0.1
		C1067.2,62.3,1066.8,62.3,1066.3,61.9z M1065.1,57.4c-0.1-0.3,0-0.5,0-0.8c0.2,0.1,0.4,0.1,0.6,0.2c-0.1,0.3-0.2,0.5-0.3,0.8
		C1065.2,57.5,1065,57.5,1065.1,57.4z M1063.1,67c0.1-0.1,0.3-0.3,0.4-0.3c0.5-0.1,0.7,0.1,0.5,0.4c0,0-0.2,0.1-0.4,0.1
		C1063.4,67.1,1063.3,67,1063.1,67z M1060.9,84.5c0.4-0.6,0.8-0.6,1.2-0.1C1061.7,84.9,1061.3,84.8,1060.9,84.5z M1058.6,30.9
		l0.2-0.2V31L1058.6,30.9z M1057.5,106c0.5,0.4,0.5,0.7,0.1,1.1C1057.1,106.8,1057.1,106.4,1057.5,106z M1056.2,92.6l0.3-0.2v0.3
		L1056.2,92.6z M1056.4,41.1c0.7,0.4,0.6,0.8,0.1,1.2C1055.9,42,1055.9,41.6,1056.4,41.1z M1053.7,56.4c0.1,0,0.3,0.1,0.4,0.2
		c0,0-0.1,0.2-0.1,0.3c-0.2,0-0.4,0.1-0.5,0C1053.1,56.7,1053.1,56.5,1053.7,56.4z M1051.9,48.6l0.1-0.3l0.2,0.2L1051.9,48.6z
		 M1049.7,49.5l0.1-0.3l0.2,0.3H1049.7z M1047.4,40.7c0-0.1,0.1-0.3,0.2-0.4c0.1,0,0.3,0.1,0.3,0.2c0.1,0.5-0.1,0.7-0.4,0.6
		C1047.4,41,1047.4,40.8,1047.4,40.7z M1045.2,84.4l0.3-0.2v0.3L1045.2,84.4z M1041.1,109c0.2,0,0.4-0.1,0.5-0.1
		c0.6,0.1,0.6,0.3,0.1,0.5c-0.2,0-0.4,0-0.5-0.1C1041.2,109.2,1041.2,109.1,1041.1,109z M1038.6,106.2l0.1-0.3l0.2,0.2L1038.6,106.2
		z M1037.5,122.6l0.1-0.3l0.2,0.2L1037.5,122.6z M1034.6,56.4c0.7-0.3,1.3-0.4,1.8,0.3c-0.3,0.5-0.9,0.6-1.4,0.4
		C1034.6,56.9,1034.5,56.7,1034.6,56.4z M1024.5,92.8c0.1,0,0.2,0.3,0.2,0.4c-0.1,0.1-0.2,0.3-0.3,0.4c-0.1-0.1-0.3-0.2-0.3-0.3
		C1024.1,92.9,1024.3,92.7,1024.5,92.8z M1017.6,62.6l0.3,0.1l-0.2,0.2L1017.6,62.6z M1016.4,124.3c0-0.3,0.2-0.5,0.3-0.8
		c0.5,0.3,0.5,0.7,0,1.1C1016.6,124.6,1016.3,124.4,1016.4,124.3z M1013.2,73.1l0.2-0.2v0.3L1013.2,73.1z M1013.3,58.9
		c1.9,0.8,2,1,0.9,2.6C1014,60.6,1012.6,60,1013.3,58.9z M1013.4,48.4c0,0,0.3,0.2,0.3,0.3c0,0.3-0.2,0.5-0.3,0.8
		C1012.9,49.1,1012.8,48.8,1013.4,48.4z M1012,42.8c-0.1-0.1,0-0.3,0.1-0.4c0.1,0,0.3,0,0.3,0.1c0.1,0.1,0.2,0.3,0.1,0.4
		C1012.3,43.3,1012.1,43.3,1012,42.8z M1011.2,27.9c0.3-0.6,0.7-0.5,1.1-0.1C1011.9,28.3,1011.5,28.3,1011.2,27.9z M1007.9,21.6
		c-0.6-0.4-0.6-0.8-0.1-1.2C1008.4,20.8,1008.3,21.2,1007.9,21.6z M1007.8,109c0.5,0.5,0.5,1.1,0.5,1.6c0.1,0,0.1,0,0,0
		c0.3,0.2,0.4,0.4,0.4,0.4c0,0-0.2-0.2-0.4-0.3v-0.1C1007.7,110.2,1007.2,109.9,1007.8,109z M1007.8,70c0,0,0.2-0.3,0.3-0.3
		c0.3,0.1,0.5,0.2,0.8,0.3C1008.6,70.4,1008.2,70.4,1007.8,70z M1006.4,45c0-0.6,0.3-0.9,0.8-1.2c0.2-0.6-0.1-1.4,0.8-1.9
		c0.6,0,1.3-0.3,1.9,0.4c-0.1,0.6-0.3,1.2-0.3,1.9c0,0.8,0,1.7-0.8,2.3C1007.4,46.1,1007.4,46.1,1006.4,45z M1003.7,108.9
		C1003.6,108.9,1003.6,108.9,1003.7,108.9L1003.7,108.9L1003.7,108.9c0-0.1,0.1-0.2,0.3-0.3c0.2-0.2,0.4-0.3,0.3-0.3
		c0-0.1-0.1,0.1-0.3,0.3l-0.1-0.1l0.1,0.1C1003.9,108.8,1003.7,108.9,1003.7,108.9S1003.6,108.9,1003.7,108.9z M1002.1,60.7
		c0.2-0.6,0.6-1,1.4-1C1003.6,61,1003.6,61,1002.1,60.7z M931.8,20.7l-0.4-0.1l0.3-0.2L931.8,20.7z M936.2,50.6h-0.3l0.1-0.3
		L936.2,50.6z M945,29l-0.4-0.1l0.3-0.2L945,29z M945,39.1l-0.3,0.2V39L945,39.1z M992.5,39l-0.1,0.3l-0.2-0.2L992.5,39z
		 M995.8,29.8c-0.2-0.1-0.4-0.2-0.4-0.3c0.1-0.2,0.2-0.5,0.3-0.8C996.2,29.1,996.2,29.4,995.8,29.8z M998.6,84.9
		c0-0.1,0.1-0.3,0.2-0.4c0.2,0,0.4,0,0.4,0.1c0.1,0.2,0.2,0.4,0.1,0.5C999.1,85.5,998.8,85.4,998.6,84.9z M996.7,48.6v-0.3l0.3,0.1
		L996.7,48.6z M995.6,113.2c0.8,0.1,1.2,0.4,1.1,1.2C995.4,114.7,995.1,114.4,995.6,113.2z M992,115.4c0.1-0.5,0.5-0.5,0.7,0
		c0.1,0.2-0.2,0.5-0.3,0.8C992.2,115.9,991.9,115.6,992,115.4z M990.2,99.8c0.3-0.1,0.5-0.2,0.8-0.3c0.1,0,0.3,0.3,0.3,0.3
		C991,100.3,990.6,100.3,990.2,99.8z M989.9,70.6c-0.1-0.1,0-0.3,0.1-0.4c0.1,0,0.3,0,0.3,0.1c0.1,0.1,0.2,0.3,0.1,0.4
		C990.2,71.1,990,71,989.9,70.6z M987.9,73.1c0.6,0.3,0.6,0.7,0.1,1.1C987.4,73.8,987.5,73.4,987.9,73.1z M985.7,76.1
		c0.6,0.3,0.6,0.7,0.1,1.1C985.2,76.9,985.3,76.5,985.7,76.1z M982.3,47.6c-2.2-0.6-2.2-0.6-2.1-2.7
		C981.1,45.8,982.4,46.1,982.3,47.6z M981,58.5c0.6,0.3,0.2,0.8,0.2,1.2s0.5,0.8-0.1,1.2c-0.3,0-0.6-0.1-0.9-0.1
		C979.7,59,979.7,59,981,58.5z M978.7,51.5c0-0.1,0.2-0.3,0.3-0.4c0.2,0.1,0.4,0.2,0.4,0.3c0,0.1-0.2,0.3-0.3,0.4
		C979,51.7,978.8,51.6,978.7,51.5z M977.9,36.1c0.5,0.3,0.6,0.7,0.1,1.1C977.5,36.9,977.5,36.5,977.9,36.1z M972.1,109.1
		c0.8-0.4,1.1-0.6,1.4-0.7c0.4-0.1,0.9-0.7,1.4,0C974.6,109.9,973.6,109.7,972.1,109.1z M970.3,104.9c0.3-0.1,0.6-0.4,0.9-0.4
		c0.5-0.1,1,0,1.2,0.6c-0.3,0.1-0.6,0.4-0.9,0.4C971,105.6,970.5,105.4,970.3,104.9z M970,65.7c0-0.3,0.2-0.5,0.3-0.8
		c0.5,0.4,0.5,0.7,0,1.1C970.1,65.9,969.9,65.8,970,65.7z M968.3,108.7c0.6-0.2,1,0.1,1.2,0.6c0.1,0.6-0.3,0.9-0.9,1
		c-0.2,0.1-0.7-0.2-0.8-0.4C967.5,109.4,967.8,108.9,968.3,108.7z M966.7,123.5l0.3-0.2v0.3L966.7,123.5z M966.4,34.8
		c0.1,0,0.3,0.1,0.4,0.2c0,0-0.1,0.2-0.1,0.3c-0.2,0-0.4,0.1-0.5,0C965.8,35.1,965.9,34.9,966.4,34.8z M964.8,30
		c-0.6-0.3-0.5-0.7-0.1-1.1C965.2,29.2,965.2,29.6,964.8,30z M964.8,119.3c0,0.8-0.5,1.2-1.2,1.4
		C963.1,119.1,963.1,119.1,964.8,119.3z M961.6,90.5c1.4,0.2,1.4,0.2,0.9,1.4C961.8,91.6,961.4,91.2,961.6,90.5z M961.4,39.2
		c0.1-0.1,0.3-0.3,0.4-0.3c0.5-0.1,0.7,0.1,0.5,0.4c0,0-0.2,0.1-0.4,0.1C961.8,39.4,961.6,39.3,961.4,39.2z M959.2,121.5
		c0.3-0.6,0.7-0.5,1.1-0.1C960,121.9,959.6,121.8,959.2,121.5z M958,50.6c-0.1-0.6-0.2-1-0.1-1.2c0.3-0.4,0.8-0.6,1.2-0.9
		c0.1,0,0.6,0.4,0.6,0.7c0.1,0.5-0.3,0.9-0.8,1.1C958.7,50.3,958.5,50.4,958,50.6z M957.2,115.5c0-0.1,0.2,0.1,0.3,0.3
		c0.2,0.1,0.4,0.3,0.4,0.3c0,0-0.2-0.2-0.4-0.3C957.4,115.6,957.2,115.4,957.2,115.5z M955.7,48c-0.1-0.1,0-0.3,0.1-0.4
		c0.1,0,0.3,0,0.3,0.1c0.1,0.1,0.2,0.3,0.1,0.4C956,48.5,955.7,48.4,955.7,48z M954.6,82.4l0.3-0.2v0.3L954.6,82.4z M950.4,47.4
		c0.3-0.5,0.7-0.4,1.1,0C951.1,47.8,950.7,47.8,950.4,47.4z M948.4,34.7c-0.1,0.1,0.1-0.1,0.3-0.2c0,0,0.1,0,0,0
		c0.4-0.6,0.7-1,1.5-0.6c-0.3,0.7-0.9,0.4-1.5,0.6c0.1,0,0.1,0,0,0C948.5,34.7,948.3,34.8,948.4,34.7z M944,105.8L944,105.8
		L944,105.8L944,105.8c0-0.1,0.1-0.2,0.3-0.2h0.1c0.4-0.9,1.2-1,2.1-1c0-0.1,0-0.1,0-0.1c0-0.1,0.1-0.1,0.1-0.1
		c0-0.2-0.1-0.8,0.6-0.3c-0.2,0.1-0.4,0.2-0.6,0.3c-0.1,0-0.1,0.1-0.1,0.1h-0.1c-0.4,1-1.3,0.9-2.1,1c0,0.1,0,0.1,0,0.1
		C944.2,105.7,944,105.8,944,105.8L944,105.8z M943.6,93.6l0.4,0.1l-0.3,0.2L943.6,93.6z M942.3,123.9c0-0.1,0.3-0.3,0.3-0.3
		c0.5,0.3,0.5,0.7,0,1.1C942.2,124.6,942.1,124.3,942.3,123.9z M941.7,109.1c0-0.1,0.1-0.3,0.2-0.3c0.4-0.1,0.7,0.1,0.6,0.4
		c0,0.1-0.3,0.1-0.4,0.2C941.9,109.3,941.8,109.2,941.7,109.1z M939,62.6h0.4l-0.1,0.4L939,62.6z M936.8,117
		c0.1-0.3,0.2-0.5,0.3-0.8c0.5,0.4,0.5,0.7,0,1.1C937.1,117.4,936.8,117.1,936.8,117z M936.1,101.9c-0.2-0.3-0.3-0.5-0.4-0.8
		c0-0.1,0.3-0.3,0.3-0.3C936.5,101.1,936.5,101.5,936.1,101.9z M934.9,104c0.3-0.4,0.7-0.6,1.2-0.2c0,0,0.1,0.2,0,0.3
		C935.7,104.6,935.3,104.4,934.9,104z M933.8,75.2c0.4-0.5,0.8-0.5,1.2,0C934.6,75.7,934.2,75.6,933.8,75.2z M932.3,100.4
		c0.2-0.6,0.4-0.6,0.6-0.1c0,0.1,0,0.3-0.1,0.4c0,0-0.2,0-0.3,0C932.5,100.6,932.4,100.4,932.3,100.4z M932.2,49.4
		c-0.2,0.1-0.6,0.1-0.9,0.1c-0.7-0.9-1.4-1.9-1.3-3.2c0.3-0.9,0.7-1.9,0.9-2.6c-0.3-0.9-0.6-1.5-0.8-2.1c0.5-0.8,0.9-1.5,1.8-3
		c0.6,3,0.1,5.4,1.4,7.6C933.9,47.2,933.2,48.5,932.2,49.4z M931.6,36.2c-0.1-0.2-0.3-0.3-0.3-0.4c-0.1-0.5,0.1-0.7,0.4-0.5
		c0.1,0,0.2,0.3,0.2,0.4C931.8,35.8,931.7,35.9,931.6,36.2z M931.6,55.6c-0.5-0.3-0.7-0.6-0.3-1.1c0.1,0,0.3-0.1,0.4,0
		C932.2,54.9,932.1,55.2,931.6,55.6z M931.4,117.4l0.1-0.3l0.2,0.3H931.4z M930.3,94.7l0.3-0.2v0.3L930.3,94.7z M929.2,92.8l0.1-0.3
		l0.2,0.2L929.2,92.8z M929.2,67.1c0.1-0.1,0.3-0.3,0.4-0.4c0.1,0.3,0.2,0.5,0.3,0.7c0,0,0,0,0.1-0.1c0,0.1,0,0.1,0,0.1
		c0.5,0.1,1,0.2,1.8,0.4c-0.5,0.9-0.8,1.5-1.6,3c-0.1-1.7-0.1-2.5-0.2-3.3c0,0,0,0-0.1-0.1l0,0C929.6,67.3,929.4,67.2,929.2,67.1z
		 M929.2,28.9c0.4,0.1,0.7,0.2,1,0.2c0.5,0,1,0,1.6,0c0.1,0.5,0.2,0.9,0.3,1.4h0.1v0.1c0.2,0.1,0.4,0.3,0.6,0.4
		c-0.2,0.1-0.4,0.3-0.6,0.4v0.1c-0.2,0.2-0.4,0.3-0.4,0.3s0.1-0.1,0.3-0.3c0.1-0.1,0.1-0.1,0.1-0.1c0-0.3,0-0.6,0-0.9
		c-0.1-0.1-0.1-0.1-0.1-0.1c0-0.1,0-0.1,0-0.1c-0.7,0-1.4,0-2.1-0.1S928.6,29.7,929.2,28.9z M762.6,70.2l-0.3-0.1l0.3-0.2V70.2z
		 M769.7,28.4c-0.7,0.9,0.1,2.3-1.6,3c-0.5-0.9-1.3-1.8-1.2-2.6c0.2-1.4-0.5-3.1,1.4-4.1C768.8,26,769.2,27.2,769.7,28.4z
		 M767.3,45.1c0.5-0.1,0.7,0.1,0.5,0.4c-0.1,0.1-0.3,0.1-0.5,0.2c-0.1-0.1-0.3-0.2-0.4-0.3C767.1,45.3,767.2,45.1,767.3,45.1z
		 M768.3,73.1l-0.4,0.2v-0.4L768.3,73.1z M796.9,36c-0.2,0.1-0.5,0.4-0.7,0.4c-0.5,0-0.9-0.3-0.9-0.9c0-0.1,0.1-0.3,0.2-0.4
		c0.1,0,0.3-0.1,0.4-0.1C796.3,35.3,796.6,35.6,796.9,36z M826.9,72.5c0,0.1-0.1,0.3-0.2,0.4c-0.1,0-0.3-0.1-0.3-0.2
		c-0.1-0.1-0.1-0.3,0-0.4C826.6,72,826.8,72.2,826.9,72.5z M849,56.6c-0.1,0.1-0.2,0.2-0.3,0.3c-0.1-0.1-0.3-0.2-0.3-0.3
		s0.2-0.2,0.3-0.3C848.8,56.4,848.9,56.5,849,56.6z M851.3,64.7c0,0.1-0.3,0.3-0.3,0.3c-0.6-0.3-0.5-0.7-0.1-1.1
		C851,64.1,851.2,64.4,851.3,64.7z M856.9,100.5c-0.3,0.4-0.5,0.4-0.6-0.1c-0.1-0.1,0-0.3,0.1-0.4c0.1,0,0.3,0,0.3,0.1
		S856.8,100.4,856.9,100.5z M862.2,64.8l-0.3,0.2v-0.3L862.2,64.8z M864.3,23.8l-0.4-0.1l0.4-0.2V23.8z M892,76.3h-0.3l0.1-0.3
		L892,76.3z M897.4,33.1l-0.3-0.1l0.3-0.2V33.1z M898.7,52.6l-0.4,0.2v-0.4L898.7,52.6z M908.4,31.9c-0.6-0.3-0.5-0.7,0-1.1
		C908.9,31.2,908.9,31.6,908.4,31.9z M912.9,36.2l-0.3-0.1l0.3-0.2V36.2z M916.1,28.1c-0.4,0.2-0.7,0.5-1.1,0.8
		c-0.1-0.3-0.4-0.6-0.3-0.8C915.1,27.5,915.5,27.3,916.1,28.1z M917.4,32.7c0.3,0.1,0.6,0.2,0.9,0.3c-0.4,0.5-0.8,0.5-1.2,0
		C917.1,33,917.3,32.6,917.4,32.7z M918.6,29.4c0,0.1-0.1,0.3-0.2,0.4c-0.2,0-0.4-0.1-0.4-0.2c0-0.2,0-0.4,0.1-0.5
		C918.4,28.8,918.6,28.9,918.6,29.4z M927.5,24.1c-0.5-0.3-0.4-0.5,0.1-0.6c0.2,0,0.4,0.1,0.5,0.2c0,0-0.1,0.2-0.1,0.3
		C927.8,24,927.6,24.1,927.5,24.1z M927.2,61.8c0.1,0.2,0.2,0.4,0.3,0.7c0,0.1-0.3,0.3-0.3,0.3C926.7,62.4,926.7,62.1,927.2,61.8z
		 M925.1,31.1l-0.3-0.1l0.2-0.2L925.1,31.1z M923.9,52.7c0-0.1,0-0.3,0.1-0.3c0.2-0.1,0.4-0.2,0.5-0.1c0.5,0.2,0.4,0.4-0.1,0.5
		C924.3,52.8,924.1,52.7,923.9,52.7z M921.2,78.6c0.3-0.4,0.5-0.4,0.6,0.1c0.1,0.1,0,0.3-0.1,0.4c-0.1,0-0.3,0-0.3-0.1
		C921.3,78.9,921.3,78.7,921.2,78.6z M921.7,61.9c0.5,0.3,0.5,0.6,0,1C921.1,62.6,921.2,62.2,921.7,61.9z M919.7,109.9
		c-0.1,0,0.1-0.2,0.3-0.3c0,0,0-0.1,0.1-0.1c0.1-0.3,0-0.8,0.7-0.3c-0.3,0.1-0.5,0.2-0.7,0.3c-0.1,0-0.1,0.1-0.1,0.1l0,0l0,0
		C919.8,109.8,919.6,109.9,919.7,109.9z M920.6,55.7c-0.6-0.3-0.5-0.7-0.1-1.1C921,54.9,921,55.3,920.6,55.7z M913,78.2
		c0.7-0.4,1.3-0.4,2,0.1C914.2,78.6,913.6,79,913,78.2z M914.9,62v-0.3l0.3,0.1L914.9,62z M913.7,75.2L914,75v0.3L913.7,75.2z
		 M912.1,42.4c0.4-0.4,0.7-0.6,0.9-0.8l0,0c0-0.9,0.3-1.5,0.9-2.2c0.5-0.6,0.9-1.3,1.4-1.9l0,0v-0.1c-0.2-0.1-0.4-0.3-0.6-0.4
		c0.2-0.1,0.4-0.3,0.6-0.4v-0.1h0.1c0.4-0.8,1.1-1.1,2.1-1l0,0l0,0c0.1,0,0.2-0.1,0.2-0.1c0.1-0.1,0.1-0.1,0,0
		c0.1-0.1,0.1-0.1,0.1-0.1l0,0c0,0.1-0.1,0.1-0.1,0.1l0,0l0,0c0,0.1,0,0.1-0.1,0.2l0,0c0.1,0.9-0.1,1.7-1.1,2c0,0.1,0,0.1,0,0.1l0,0
		c0.5,0.9,1.3,1.5,2.2,2.1c1.2,0.8,1.8,1.9,1.9,3.6c-0.9-0.4-1.6-0.8-2.5-1.2c-0.3,0.7-0.7,1.4-1.2,2.3c3.6,0.4,5.6,2.4,7,5
		c-0.4,1-1.1,1.5-2.1,1.4c-1.3-0.3-1.6-1.6-2.4-2.2c-0.8,0.3,0.1,1.7-1.4,1.7c-0.6-1.1-1.2-2.1-1.8-3.1c-0.9,0.1-1.8,0.2-2.6-0.9
		C913.2,45.3,912.8,43.8,912.1,42.4z M909.5,94.6c0.2-0.1,0.5-0.2,0.8-0.3l0.3,0.3C910.3,95.2,909.9,95.1,909.5,94.6z M909.3,97
		c0.2-0.3,0.5-0.2,0.5,0.3c0,0.1-0.1,0.3-0.2,0.4c-0.2,0-0.4-0.1-0.4-0.2C909.2,97.3,909.2,97.1,909.3,97z M907.2,107
		c0,0,0.2-0.3,0.3-0.3c0.3,0.1,0.6,0.2,0.9,0.3C908.1,107.5,907.7,107.6,907.2,107z M907.3,57.7c0.2-0.7,0.7-1.1,1.4-1.4
		c1.3,0.8,1.3,0.8,0.6,2.6C908.2,59.1,907.6,58.5,907.3,57.7z M906.4,24.9c-0.2,0.1-0.5,0.2-0.7,0.3c0,0,0,0.1,0,0
		c-0.2,0.2-0.3,0.3-0.3,0.3l0,0l0,0l0,0l0,0c0,0,0.1-0.2,0.2-0.3h0.1C905.8,24.9,905.7,24.2,906.4,24.9z M905.1,28.9
		c0.4-0.5,0.8-0.5,1.2,0C905.9,29.4,905.5,29.3,905.1,28.9z M900.6,81.4c0.1,0.1,0.3,0.2,0.4,0.3c0.2,0.4,0,0.9-0.3,0.8
		C900,82.3,900.1,81.8,900.6,81.4z M899.8,56.3c0.7-0.2,1.3-0.3,1.9,0.3c-0.6,1.6-0.6,1.6-2.1,2.3C898.8,58,898.9,57.1,899.8,56.3z
		 M898.3,115.4c0.6,0.2,0.6,0.6,0.3,1c0,0-0.2,0.1-0.3,0C897.8,116,898,115.6,898.3,115.4z M897.3,69.1c0.1,0.1,0.3,0.2,0.4,0.3
		c0.2,0.4,0,0.9-0.3,0.8C896.7,70,896.8,69.5,897.3,69.1z M894.7,99.3c-0.2,0.2-0.4,0.3-0.4,0.3c0,0.1,0.1-0.1,0.3-0.3
		c0.2-0.2,0.4-0.3,0.3-0.3C894.9,99,894.8,99.2,894.7,99.3z M894,112.2c0.5,0.4,0.5,0.7,0,1.1C893.5,112.9,893.5,112.6,894,112.2z
		 M891.8,100.9c0.1,0.1,0.3,0.2,0.3,0.3c-0.1,0.3-0.2,0.5-0.3,0.8C891.3,101.7,891.3,101.3,891.8,100.9z M889.7,117.1
		c0.2,0,0.4-0.1,0.5-0.1c0.6,0.2,0.6,0.4,0.1,0.6c-0.1,0-0.4,0-0.5-0.1C889.8,117.5,889.8,117.3,889.7,117.1z M888.3,78.1h0.3
		l-0.1,0.3L888.3,78.1z M883.8,115.3l0.3-0.2v0.3L883.8,115.3z M882.1,85.2L882.1,85.2L882.1,85.2L882.1,85.2c0,0,0.2-0.2,0.3-0.3
		c0.1-0.2,0.3-0.3,0.3-0.3c0-0.1-0.1,0.1-0.3,0.3C882.3,85.1,882.1,85.2,882.1,85.2L882.1,85.2z M878.5,104.8l0.3,0.1l-0.3,0.2
		V104.8z M877.2,114.4l0.2-0.4l0.2,0.3L877.2,114.4z M875,60.1c0.2-0.4,0.5-0.4,0.6,0.1c0,0.1-0.1,0.3-0.2,0.4c-0.2,0-0.4,0-0.4-0.1
		C874.9,60.4,874.9,60.2,875,60.1z M872,90.5c0.4-0.4,1-0.5,1.3,0.1c0.2,0.5,0.2,0.9-0.5,1C872.3,91.3,871.9,91.1,872,90.5z
		 M871.7,85c-0.1-0.1,0-0.3,0.1-0.4c0.1,0,0.3,0,0.3,0.1c0.1,0.1,0.2,0.3,0.1,0.4C872,85.5,871.7,85.4,871.7,85z M870.7,79.3
		l0.1-0.3l0.2,0.3H870.7z M866.4,79.3c0.1-0.1,0.2-0.3,0.3-0.3c0.2,0.1,0.5,0.2,0.8,0.3c-0.1,0.1-0.2,0.3-0.3,0.3
		C866.9,79.5,866.6,79.4,866.4,79.3z M864.8,75.7c-0.2,0.6-0.1,1.3-0.7,1.8c-0.3-0.1-0.6-0.1-0.9-0.2
		C863.3,76.4,863.9,76,864.8,75.7C864.7,75.7,864.7,75.7,864.8,75.7c0-0.2,0.2-0.3,0.3-0.3l0,0l0,0l0,0l0,0
		C865,75.4,864.9,75.6,864.8,75.7C864.7,75.7,864.7,75.7,864.8,75.7z M863.1,81.4c0.3-0.5,0.7-0.5,1.1-0.1
		C863.8,81.8,863.4,81.8,863.1,81.4z M862.1,110.7c0.5,0.6,0.8,1,1.1,1.4c-0.3,0.1-0.6,0.5-0.8,0.4
		C861.6,112.2,861.2,111.8,862.1,110.7z M859.6,62.6l0.3,0.1l-0.2,0.2L859.6,62.6z M858.7,44.3c0.1-0.1,0.2-0.3,0.3-0.3
		c0.4-0.1,0.7,0.1,0.6,0.4c0,0.1-0.2,0.1-0.4,0.2C859,44.5,858.9,44.4,858.7,44.3z M855.3,121.4c0.6,0.3,0.6,0.7,0.1,1.1
		C854.8,122.2,854.9,121.8,855.3,121.4z M854.3,112.8c0.3-0.2,0.7-0.5,1.2-0.9c0.4,0.4,0.8,0.7,1.4,1.3c-1.8,1.7-0.7,3.7-0.3,5.3
		c-0.6,0.7-1,1-1.7,0.7c-0.1-0.9-0.2-1.9-0.2-2.9C854.8,115.2,853.4,114.2,854.3,112.8z M853.3,110.1c0.2-1,0.4-2,0.7-3.3
		c1.1,0.5,1.7,1,1.3,1.7C854.9,109.2,854.9,110.6,853.3,110.1z M851.8,116c-0.8,1.4-0.9,2.3-2.1,2.2
		C849.3,117.1,849.9,116.6,851.8,116z M846.8,73.9C846.7,73.9,846.7,73.9,846.8,73.9L846.8,73.9L846.8,73.9c0-0.1,0.1-0.2,0.2-0.3
		h0.1c0.2-0.5,0.6-0.8,1.2-0.8c0.8,0.5,2,0.4,2.4,1.5c-1.5,0.7-2.5-0.3-3.6-0.7l0,0C847,73.8,846.8,73.9,846.8,73.9
		S846.7,73.9,846.8,73.9z M843.2,97.7c0,0,0.2-0.3,0.3-0.3c0.3,0.1,0.6,0.2,0.9,0.3C844,98.3,843.6,98.3,843.2,97.7z M840.8,100
		c1.4,0,2.4,0.5,2.9,1.7c0,1.1-0.6,1.6-1.6,1.8C840.1,102.3,840.1,102.3,840.8,100z M836.6,45.1c0.2,0.8,0.3,1.2,0.4,1.7
		c0.1,0,0.1,0,0,0c0.3,0.2,0.5,0.4,0.4,0.4c0,0-0.2-0.2-0.4-0.3v-0.1C836.5,46.5,836,46.2,836.6,45.1z M830.8,81.5
		c0.5-0.9,0.9-1.7,1.3-2.4c-0.2-0.9-0.8-1.6-0.4-2.5c0.3-0.5,0.7-0.7,1.4-0.6c1,1.1,0.6,2.5,0.7,3.8c-0.4,1-0.6,2-1.7,2.5
		C831.8,82.1,831.5,81.9,830.8,81.5z M831,64l-0.2-0.3h0.4L831,64z M829.6,51.6c0.1-0.1,0.1-0.2,0.1-0.2c0-0.1,0-0.1,0,0
		c0,0.1,0.1,0.2,0.5,0.2c0.1,0.5,0.2,1,0.2,1.5c0.7,0.2,1.2,0.6,0.7,1.4c-0.9-0.2-0.5-0.9-0.7-1.4C829.6,52.9,829.4,52.5,829.6,51.6
		z M827.5,70.2l0.1-0.3l0.2,0.2L827.5,70.2z M825.6,114.2c0.6-0.5,1.1-0.5,1.5,0.2c0.1,0.2-0.1,0.8-0.3,0.8
		C826,115.4,825.7,114.9,825.6,114.2z M823.2,48.2l0.3,0.1l-0.3,0.2V48.2z M820.8,69.9h0.4l-0.1,0.4L820.8,69.9z M810.9,104.5
		c-0.1-0.1,0-0.3,0.1-0.4c0.1,0,0.3,0,0.3,0.1c0.1,0.1,0.2,0.3,0.1,0.4C811.2,105,811,105,810.9,104.5z M811,100l0.1-0.3l0.2,0.2
		L811,100z M810.2,88.4c0.6-0.5,1.3-0.5,1.9,0C811.5,89.2,810.8,89.2,810.2,88.4z M809.9,75.1h0.3l-0.1,0.3L809.9,75.1z M804.5,32.8
		c0.6,0.4,0.5,0.8,0,1.2C803.9,33.6,803.9,33.2,804.5,32.8z M801.2,94.8c0.3-0.5,0.7-0.5,1.1-0.1C801.9,95.1,801.5,95.1,801.2,94.8z
		 M797.1,67.9c0.3,0.3,0.5,0.7,0.8,1c-0.6,0.5-1.1,0.5-1.4,0C796.3,68.5,796.3,68,797.1,67.9z M796.7,49.6l0.2-0.2v0.2H796.7z
		 M796.6,100c0,0,0.2-0.1,0.3,0c0.4,0.4,0.3,0.8-0.1,1.1C796.3,100.8,796.2,100.4,796.6,100z M796.7,118.5c0.6,0.3,0.5,0.8,0.4,1.3
		c-0.1,0.4-0.3,0.5-0.6,0.3C796.2,119.5,796.1,118.9,796.7,118.5z M795.7,112.3c0-0.1,0.1-0.3,0.2-0.3c0.2-0.1,0.5,0,0.8,0
		c0,0.2-0.1,0.4-0.2,0.6C796.2,112.5,796,112.4,795.7,112.3z M795.7,38.1c1.1,0.2,1.6,0.8,1.4,1.8c-0.4,0.5-0.8,0.6-1.7,0.2
		C795.2,39.2,795,38.6,795.7,38.1z M793.3,111.3l0.1-0.3l0.2,0.2L793.3,111.3z M792.2,29.7h0.4l-0.2,0.4L792.2,29.7z M791.3,42.1
		c0,0-0.2,0-0.3,0c0-0.1-0.1-0.3-0.1-0.4c0.2-0.6,0.4-0.6,0.6-0.1C791.6,41.7,791.5,41.9,791.3,42.1z M790.6,105.8
		c0.2,0,0.4,0.1,0.5,0.2c0,0-0.1,0.2-0.1,0.3c-0.2,0-0.4,0.1-0.5,0C790.1,106.1,790.1,105.9,790.6,105.8z M788.1,110.9
		c0.6,0.3,1.2,0.6,1,1.4C787.6,112.2,787.6,112.2,788.1,110.9z M787.7,23.7l0.3-0.2v0.3L787.7,23.7z M785.5,106.1l0.3-0.2v0.3
		L785.5,106.1z M784.6,99.8c0.3-0.5,0.7-0.4,1.1,0C785.3,100.3,785,100.3,784.6,99.8z M783.8,112c-0.1,0,0.1-0.2,0.3-0.3
		c0.1-0.2,0.3-0.3,0.3-0.3c0-0.1-0.1,0.1-0.3,0.3C783.9,111.8,783.7,112,783.8,112z M781.5,97c0-0.1,0.2,0.1,0.3,0.3
		c0.2,0.1,0.4,0.3,0.4,0.3c0,0-0.2-0.2-0.4-0.3C781.7,97.1,781.5,96.9,781.5,97z M775.6,106.1l0.1-0.3l0.2,0.3H775.6z M770.1,69.9
		h0.3l-0.1,0.3L770.1,69.9z M768.9,38.3c-0.3-0.9-1.3-1.6-0.7-2.7c0.5-0.5,1.1-0.9,2.1-0.7c0.6,1.4-0.7,2-0.7,3
		C769.6,38.3,769.2,38.4,768.9,38.3z M766.9,119.3c0.3-0.6,0.6-1.1,1.1-2c0.6,1.4,1.1,2.6,1.4,3.8c0.1,0.4-0.4,0.8-1.1,0.7
		C767.2,121.3,767.2,120.2,766.9,119.3z M764.9,52.5c0.8-0.4,1.1,0,1.4,0.5h0.1c0.1,0,0.1,0.1,0.1,0.1c0.3,0.1,0.9,0,0.3,0.6
		c-0.1-0.2-0.2-0.4-0.3-0.6c-0.1,0-0.1,0-0.2-0.1l0,0C765.8,52.9,765.2,53.1,764.9,52.5z M761.3,124.5c0.3-0.5,0.5-1.1,1.4-0.8
		C762.8,124.7,762.4,125.1,761.3,124.5z M761.3,76l0.3,0.1l-0.3,0.2V76z M759.9,88.9c0.3-0.4,0.5-0.4,0.6,0.1c0.1,0.1,0,0.3-0.1,0.4
		c-0.1,0-0.3,0-0.3-0.1C760,89.2,760,89,759.9,88.9z M758,43.3l0.2-0.2v0.3L758,43.3z M756.8,83.4l0.3-0.2v0.3L756.8,83.4z
		 M715.2,34.1h-0.3l0.1-0.3L715.2,34.1z M715.1,36l-0.1,0.3l-0.2-0.3H715.1z M717.2,40.2c-0.3,0.5-0.7,0.4-1.1,0
		C716.5,39.8,716.9,39.7,717.2,40.2z M743.8,79.3c0.4-0.5,0.8-0.5,1.2-0.1C744.6,79.8,744.2,79.7,743.8,79.3z M742.5,104l0.2-0.2
		v0.3L742.5,104z M741.3,111.2l0.3-0.2v0.3L741.3,111.2z M736,78.3c0.4-0.6,0.8-0.5,1.2-0.1C736.8,78.8,736.4,78.7,736,78.3z
		 M732.6,15.5c0.4-0.6,0.9-0.6,1.3-0.1C733.5,16,733.1,16,732.6,15.5z M731.8,87.7c0-0.1,0.2,0.1,0.3,0.3c0.2,0.2,0.4,0.3,0.4,0.3
		s-0.2-0.2-0.4-0.3C731.9,87.9,731.8,87.7,731.8,87.7z M727,16.7l0.1-0.3l0.2,0.2L727,16.7z M721.5,88.4l0.3,0.1l-0.3,0.2V88.4z
		 M721.4,59.8l0.3-0.2v0.3L721.4,59.8z M720.4,18.7l0.1-0.3l0.2,0.2L720.4,18.7z M718.3,91.7c0.4-0.6,0.8-0.5,1.2-0.1
		C719.1,92.2,718.7,92.1,718.3,91.7z M718.2,76l0.3,0.1l-0.2,0.2L718.2,76z M716.2,58.4c0.6-0.2,1,0,1.4,0.8
		c-0.5,0.8-0.8,1.4-1.7,1.4C715.5,59.9,715.5,59.1,716.2,58.4z M714.9,94.6l0.3,0.1l-0.3,0.2V94.6z M714,82.5
		c0.1-0.7,0.4-1.2,1.2-0.9c0.1,0,0.2,0.6,0.1,0.8C715,82.9,714.5,82.8,714,82.5z M712.6,76h0.3l-0.1,0.3L712.6,76z M706.3,123.5
		c0-0.1,0.1-0.3,0.2-0.3c0.4-0.1,0.7,0.1,0.6,0.4c0,0.1-0.3,0.1-0.4,0.2C706.6,123.7,706.4,123.6,706.3,123.5z M706.1,28.9l0.2-0.2
		V29L706.1,28.9z M703.8,49.4l0.2-0.2v0.3L703.8,49.4z M702.5,69.6c-0.1-0.1,0-0.3,0.1-0.4c0.2,0,0.4,0,0.4,0.1
		c0.1,0.1,0.2,0.3,0.1,0.4C702.9,70.1,702.7,70,702.5,69.6z M702.3,44.7L702.3,44.7c-0.2,0.3-0.4,0.4-0.4,0.4c0,0.1,0.1-0.1,0.3-0.3
		C702.2,44.7,702.3,44.7,702.3,44.7c0.1-0.3,0.1-0.6,0.2-0.9c0.3-0.5,0.6-1.2,1.5-0.2C703.5,44,702.9,44.4,702.3,44.7z M701.4,109.3
		c0.2-0.3,0.5-0.2,0.5,0.3c0,0.1-0.1,0.3-0.2,0.4c-0.1,0-0.3-0.1-0.3-0.2C701.4,109.7,701.4,109.4,701.4,109.3z M700.3,123.7
		c0-0.1,0.3-0.3,0.3-0.3c0.6,0.3,0.6,0.7,0.1,1.1C700.5,124.2,700.3,124,700.3,123.7z M699.7,2.1c0-0.1,0.1-0.3,0.2-0.3
		c0.4-0.1,0.7,0.1,0.6,0.4c0,0.1-0.3,0.1-0.4,0.2C699.9,2.3,699.8,2.2,699.7,2.1z M698.2,106.1l0.3-0.2v0.3L698.2,106.1z
		 M697.2,48.6l0.1-0.3l0.2,0.2L697.2,48.6z M696.1,8.3l0.1-0.3l0.2,0.3H696.1z M618.9,37.3l-0.3-0.1l0.3-0.2V37.3z M661,31.9
		l-0.3,0.2v-0.3L661,31.9z M666.7,27.8l-0.4,0.2v-0.4L666.7,27.8z M668.1,54.8c-0.2,0.1-0.3-0.1-0.5-0.1c0-0.1,0-0.3,0.1-0.3
		c0.2-0.1,0.4-0.2,0.5-0.1C668.7,54.5,668.6,54.7,668.1,54.8z M689.4,92.7l0.3-0.2v0.3L689.4,92.7z M688.3,36.7
		c-0.1-0.1,0-0.3,0.1-0.4c0.1,0,0.3,0,0.3,0.1c0.1,0.1,0.2,0.3,0.1,0.4C688.5,37.1,688.3,37.1,688.3,36.7z M687.2,23.6l0.3,0.1
		l-0.2,0.2L687.2,23.6z M685,101.9l0.3-0.2v0.3L685,101.9z M678.7,80.1c1-0.4,1.6-0.4,2,0.2c-0.2,0.9-0.3,1.7-0.5,2.5l0,0
		c0.1,0.2,0.2,0.3,0.3,0.3l0,0l0,0l0,0l0,0c0,0-0.2-0.1-0.3-0.3c0,0.1,0,0,0,0C678.9,82.2,678.7,81.2,678.7,80.1z M677.4,43.1
		c0.5,0.4,0.5,0.7,0,1.1C676.9,43.9,676.9,43.5,677.4,43.1z M676.4,32.9c0,0-0.2,0.1-0.3,0c-0.4-0.4-0.3-0.8,0.1-1.1
		C676.8,32.1,676.9,32.5,676.4,32.9z M675.1,108.2c0.6-0.1,0.9,0.3,1.3,1C675,109.6,674.5,109.3,675.1,108.2z M675.2,44.2
		c0.1,0,0.4,0.2,0.4,0.3c-0.1,0.3-0.3,0.5-0.4,0.8C674.7,44.9,674.6,44.5,675.2,44.2z M673.7,98.5c0.1,0,0.3,0.1,0.4,0.2
		c-0.1,0.1-0.2,0.3-0.3,0.3c-0.2,0.1-0.4,0.1-0.5,0C673,98.8,673.1,98.6,673.7,98.5z M672.9,102.9c0,0.9-0.2,1.8-1.1,2.3
		C671.2,103,671.2,103,672.9,102.9z M669.9,91.4c-0.1,0-0.3,0-0.4,0c0-0.1-0.1-0.3-0.1-0.4c0.1-0.6,0.4-0.6,0.6-0.1
		C670,91.1,670,91.3,669.9,91.4z M667.3,118.5l0.2-0.2v0.2H667.3z M665,112.6c0.2-0.5,0.6-0.8,1.2-0.6c0.5,0.4,1,0.7,1.5,1.1
		c0.8-0.4,1.4-0.6,2,0.1c-0.7,1.5-2.2,1.5-3.4,2.1C665.6,114.5,665,113.7,665,112.6z M664.5,100.1L664.5,100.1L664.5,100.1
		c0,0.1,0.1,0.2,0.2,0.3l0,0c0.3,0.2,0.7,0.3,0.8,0.5c0.2,0.4,0.3,0.9-0.6,0.9c0-0.5-0.1-0.9-0.2-1.4l0,0
		C664.6,100.3,664.5,100.2,664.5,100.1z M663.1,88.5c0.3-0.1,0.5-0.2,0.8-0.3c0.1,0,0.3,0.3,0.3,0.3C663.9,89,663.5,89,663.1,88.5z
		 M659.9,120.4c0.3-0.5,0.7-0.4,1.1,0C660.6,120.9,660.2,120.8,659.9,120.4z M651,110.1c0.3-0.4,0.7-0.4,1.1,0
		c-0.1,0.1-0.2,0.3-0.3,0.3C651.5,110.4,651.2,110.2,651,110.1z M636.6,115.1c0.3-0.1,0.6-0.3,0.9-0.4c0.4,0,0.7,0.1,1,0.1
		c0.5,0.3,0.7,0.7,0.6,1.2C637.6,116.5,637.6,116.5,636.6,115.1z M615.7,72.4c0-19.4,9.1-35.4,20.8-38.1c-0.1-0.1-0.3-0.2-0.3-0.3
		s0.2-0.2,0.3-0.3c0.1,0.1,0.2,0.2,0.3,0.3c-0.1,0.1-0.2,0.2-0.3,0.3c1.2-0.3,2.3-0.4,3.5-0.4c13.4,0,24.3,17.2,24.3,38.5
		c0,7.1-1.2,13.6-3.3,19.3c0.6,0.2,0.8,0.5,0.9,1c-0.5,0.5-1,0.6-1.5,0.5c-4.3,10.6-11.8,17.7-20.4,17.7
		C626.7,110.9,615.8,93.7,615.7,72.4z M609.8,81.9c-0.1-0.1,0-0.3,0.1-0.4c0.1,0,0.3,0,0.3,0.1c0.1,0.1,0.2,0.3,0.1,0.4
		C610.1,82.4,609.8,82.4,609.8,81.9z"/>
	<path class="st0" d="M1131,80.7c0-0.6,0-1.3,0-1.9C1129.8,79.8,1129.8,79.9,1131,80.7z"/>
</g>
</svg>
