<?xml version="1.0" encoding="utf-8"?>
<!-- Generator: Adobe Illustrator 22.1.0, SVG Export Plug-In . SVG Version: 6.00 Build 0)  -->
<svg version="1.1" id="Gunbarrel" xmlns="http://www.w3.org/2000/svg" xmlns:xlink="http://www.w3.org/1999/xlink" x="0px" y="0px"
	 viewBox="0 0 165.4 164.2" style="enable-background:new 0 0 165.4 164.2;" xml:space="preserve">
<style type="text/css">
	.st0{fill:#EFEBEC;}
</style>
<g id="Gunload">
	<path class="st0" d="M2,65c0,0-2,8-2,14.6s2.9,22.9,2.9,22.9c14.3,6.6,8.6,21.9,8.6,21.9c2.7,4.4,5.5,8.1,8.2,11.3
		c0-0.1,0-0.1,0.1-0.2c0.3-0.4,0.6-0.4,1-0.1c0,0.4-0.2,0.6-0.6,0.8c3.3,3.9,6.5,6.9,9.2,9.1c0.1,0,0.3,0,0.4-0.1
		c0,0.2,0.1,0.3,0.1,0.4c4.1,3.4,6.9,4.8,6.9,4.8C58,144.1,61,161.6,61,161.6s11.3,2.7,21.7,2.7c10.5,0,21.7-2.7,21.7-2.7
		s3-17.6,24.2-10.9c0,0,13.6-7.3,25.2-26.2c0,0-5.6-15.3,8.6-21.9c0,0,2.9-16.3,2.9-22.9s-2-14.6-2-14.6s-10.1-3.7-9.2-17
		c0,0-0.1,0-0.1,0c-0.1-0.2-0.2-0.4-0.3-0.6c0.1,0,0.3-0.1,0.4-0.1c0.1-1.6,0.4-3.4,1-5.3c0,0-10.2-18.2-27.3-29.2
		c0,0-17,2.1-19.9-9.6c0,0-13.9-3.2-25.3-3.2C71.4,0,57.4,3.2,57.4,3.2c-2.9,11.8-19.9,9.6-19.9,9.6C20.4,23.8,10.3,42,10.3,42
		C15.1,60.2,2,65,2,65z M163.3,76.5c0,0-0.2,0.1-0.2,0.2c-0.1-0.1-0.2-0.2-0.2-0.2C163,76.1,163.2,76.2,163.3,76.5z M159.5,79.6
		l0.1,0.2l-0.2,0L159.5,79.6z M13.8,97.5c-0.2-0.1-0.3-0.4-0.5-0.6c0,0-0.1,0-0.1,0c-0.1-0.1-0.2-0.2-0.2-0.2c0,0,0,0,0,0
		c0,0,0,0,0,0c0,0,0.1,0.1,0.3,0.2c0,0,0,0,0,0.1c0.4,0,0.8,0.1,1.2,0.1C14.6,97.7,14.1,97.6,13.8,97.5z M16.3,128.2l0-0.2l0.2,0.1
		L16.3,128.2z M17.1,104.4c-0.2,0.2-0.4,0.3-0.8,0.6c-0.4-0.7-0.1-1,0.2-1.2c0.1-0.1,0.3-0.1,0.4,0
		C17.3,103.9,17.4,104.1,17.1,104.4z M19.5,99.4c-0.1-0.1-0.2-0.2-0.2-0.3c0,0,0,0,0,0c0,0,0,0,0,0C19.3,99.2,19.4,99.2,19.5,99.4
		c0.2,0.1,0.3,0.2,0.3,0.2C19.8,99.6,19.7,99.5,19.5,99.4z M19.9,128.1l0.1-0.2l0.1,0.2L19.9,128.1z M20.8,121.5
		c0.3-0.4,0.7-0.4,1,0C21.5,121.9,21.1,121.9,20.8,121.5z M21.8,131.1c-0.6-0.9,0.7-1.5,0.1-2.5c1.3,0.7,1.3,1.7,1,2.7
		C22.5,131.5,22.2,131.4,21.8,131.1z M22.7,133.9c0.3-0.4,0.6-0.4,0.9,0C23.3,134.3,23,134.3,22.7,133.9z M23.4,120.6l0.1-0.2
		l0.1,0.2L23.4,120.6z M21.6,116.4c0-0.3,0-0.5,0-0.6c1-0.8,1.5-0.2,2,0.6C22.9,117.2,22.3,116.6,21.6,116.4z M31.8,144.5
		c0,0.1-0.2,0.1-0.3,0.1c0-0.1-0.1-0.2-0.1-0.3c0.1-0.4,0.3-0.4,0.5-0.1C31.9,144.3,31.8,144.4,31.8,144.5z M33.4,142.2
		c-0.4-0.3-0.4-0.6,0-0.9C33.8,141.6,33.8,141.9,33.4,142.2z M43.5,146.5c-0.1,0-0.3,0.1-0.3,0c-0.1-0.1-0.3-0.2-0.3-0.3
		c0.3-0.7,0.7-1.4,1.2-2.6C44.7,145.1,44.6,145.9,43.5,146.5z M56.6,132.2c0.3-0.3,0.6-0.4,0.9,0C57.2,132.6,56.9,132.6,56.6,132.2z
		 M58.3,125.5c-0.1,0.1-0.1,0.2-0.2,0.3c-0.5,3.5-2.1,6.8-4.7,9.5c-6.6,6.6-17.2,6.6-23.8,0c-5.7-5.7-6.4-14.4-2.3-20.9
		c-0.7,0-1.6-0.3-2.8-0.4c1.5-0.4,2.5-0.7,3.4-0.5c0.5-0.7,1.1-1.4,1.7-2c5.9-5.9,15.2-6.5,21.8-1.7c0.1-0.1,0.2-0.2,0.4-0.4
		c0,0,0-0.1,0-0.1c0.2-0.1,0.3-0.2,0.3-0.2c0,0-0.1,0.1-0.2,0.3c0,0,0,0-0.1,0.1c0,0.2,0,0.4,0,0.6c0.6,0.4,1.1,0.9,1.7,1.4
		c3.8,3.8,5.4,9,4.8,13.9C58.2,125.4,58.2,125.5,58.3,125.5z M27.8,103.3c0.4-0.5,0.9-0.5,1.4,0C28.5,104.3,28.5,104.3,27.8,103.3z
		 M29,107.4c-0.3,0.2-0.6,0.5-0.9,0.7c-0.1-0.2-0.2-0.6-0.2-0.7C28.2,107,28.5,106.9,29,107.4z M33.3,103c0.7,0.7,0.7,1.4,0,2
		c-0.5,0.1-0.8-0.1-1.1-0.5C31.9,103.7,32,103,33.3,103z M42.3,78.8c0.8,0.8,0.5,1.6-0.1,2.7C42,80.5,41.4,79.8,42.3,78.8z
		 M42.2,58.2l0.1-0.2l0.1,0.2L42.2,58.2z M43.3,83.2c-0.2,0.6-0.4,1.3-1,1.6c-0.6-0.2-0.9-0.6-1.1-1.1
		C42.1,82.6,42.1,82.6,43.3,83.2z M43.3,63.9c0.1,0.2,0.2,0.5,0.3,0.7c0,0.1-0.3,0.3-0.3,0.3C42.8,64.5,42.8,64.2,43.3,63.9z
		 M42.3,99.8c-0.4-0.3-0.4-0.6,0-0.9C42.7,99.3,42.8,99.6,42.3,99.8z M51,101.7c0.3,0.2,0.9,0.5,0.2,0.9c-0.1,0-0.4-0.3-0.6-0.5
		c-1.1-0.1-2-0.9-3.2-0.7c-0.3,0.1-0.6-0.5-0.5-1C48.6,100,50.1,100.1,51,101.7z M47,87.6c0.3-1,0.3-1,1.8-1.3
		C48.3,87.4,47.8,87.7,47,87.6z M52.6,90.2C52.6,90.2,52.6,90.2,52.6,90.2c0.2-0.2,0.3-0.4,0.4-0.6C53.6,90.2,53,90.1,52.6,90.2
		C52.7,90.2,52.6,90.2,52.6,90.2C52.6,90.2,52.6,90.2,52.6,90.2c0,0.7,0.2,1.3-0.3,1.9c-1.1,0.1-1.4-0.5-1.2-1.4
		C51.5,90.2,52.1,90.3,52.6,90.2C52.6,90.2,52.6,90.2,52.6,90.2z M53.4,77.9c0.1,0,0.3,0.1,0.4,0.1c0,0.1,0,0.2,0,0.3
		c-0.1,0.1-0.3,0.1-0.4,0.1C53,78.2,53,78,53.4,77.9z M51,99.2c-0.1,0-0.3,0-0.4,0c0-0.1-0.1-0.2-0.1-0.3c0.1-0.1,0.3-0.1,0.4-0.1
		C51.3,98.8,51.3,99,51,99.2z M55.8,62.3c-0.3,0.4-0.6,0.4-0.9,0C55.2,62,55.5,62,55.8,62.3z M55.5,56.9c0-0.4,0.2-0.5,0.4-0.2
		c0.1,0.1,0.1,0.3,0,0.4c0,0.1-0.2,0.1-0.3,0.2C55.7,57.1,55.5,57,55.5,56.9z M54.9,66.4c-0.2,0.1-0.3,0.2-0.5,0.4
		c-0.1-0.1-0.3-0.3-0.4-0.4c0.2-0.1,0.5-0.2,0.7-0.2C54.8,66.1,54.9,66.3,54.9,66.4z M57.4,110.7l0.2-0.2l0.1,0.2L57.4,110.7z
		 M58.3,112.3l0.3-0.1l0,0.3L58.3,112.3z M58.3,119.9l0-0.3l0.3,0.2L58.3,119.9z M61.5,128.5C61.5,128.5,61.6,128.5,61.5,128.5
		c-0.5-0.6-1.1-1.1-1.7-1.7c-0.1-1.4,0.6-2.6,1.1-3.7c0.9-0.3,1.3,0.1,1.4,0.7c0.1,1.1,0.2,2.1,1.3,2.7
		C63,127.2,62.3,127.8,61.5,128.5C61.6,128.5,61.6,128.5,61.5,128.5C61.6,128.5,61.6,128.5,61.5,128.5c0,0.5,0.1,1.1-0.8,1.4
		c-0.2-0.2-0.5-0.5-0.8-0.7C60.5,128.4,61,128.5,61.5,128.5C61.5,128.5,61.5,128.5,61.5,128.5z M61.2,139.1c-0.5,0.2-0.8,0-1.1-0.4
		c-0.3-1,0.4-1.7,1.2-2.7c0.5,0.3,0.7,0.4,0.9,0.5C62.2,137.5,61.8,138.4,61.2,139.1z M63.7,134.8l0.2-0.2l0.1,0.3L63.7,134.8z
		 M64.8,159.6c-0.1,0-0.3,0-0.3,0c-0.1-0.1-0.1-0.3-0.1-0.4c0.2-0.4,0.4-0.4,0.5,0C65,159.4,64.9,159.5,64.8,159.6z M66.1,121.2
		c0.1,0,0.2,0.2,0.3,0.3c-0.1,0.1-0.2,0.1-0.4,0.2c-0.1,0-0.3,0-0.4-0.1C65.6,121.3,65.7,121.2,66.1,121.2z M69.1,159l0-0.2l0.2,0.1
		L69.1,159z M71.9,155.4c-0.3,0.1-0.4-0.1-0.3-0.5c0-0.1,0.2-0.1,0.3-0.2c0.1,0.1,0.1,0.2,0.2,0.3C72,155.2,72,155.4,71.9,155.4z
		 M79,159.8c-0.6-0.5-0.5-1-0.1-1.6C79.7,158.7,79.3,159.2,79,159.8z M91.5,156.4c-0.5,0-0.7-0.3-0.8-0.7c0.4-0.5,0.9-0.5,1.1,0.1
		C91.9,155.9,91.6,156.4,91.5,156.4z M98.6,154.8l0.2-0.2l0.1,0.3L98.6,154.8z M82.7,157.3c-9.3,0-16.8-7.5-16.8-16.8
		c0-9.3,7.5-16.8,16.8-16.8c0.7,0,1.5,0.1,2.2,0.2c-0.1-0.6-0.7-1.1-0.3-1.7c0.8-0.2,1,0.3,1.2,0.7c0.3,0.5,0.7,0.8,1.2,1.3
		c0,0,0,0,0,0.1c7.2,1.9,12.5,8.4,12.5,16.2C99.5,149.8,92,157.3,82.7,157.3z M73.9,123.7C73.9,123.7,73.9,123.7,73.9,123.7
		C73.9,123.7,73.9,123.7,73.9,123.7c0,0,0.1-0.1,0.2-0.2c0,0,0,0,0,0c0.1-0.6,0.5-0.9,1.2-0.5c-0.1,0.7-0.7,0.5-1.2,0.5c0,0,0,0,0,0
		C74,123.6,74,123.6,73.9,123.7C73.9,123.7,73.9,123.7,73.9,123.7C73.9,123.7,73.9,123.7,73.9,123.7z M77.4,110.9
		c-0.1,0-0.2-0.2-0.3-0.3c0.1-0.2,0.2-0.5,0.4-0.6c0.2-0.1,0.5-0.1,0.7-0.2c0.1,0.2,0.3,0.5,0.2,0.7C78.2,110.9,77.8,111,77.4,110.9
		z M78.2,123.1c-0.2,0.1-0.5,0.2-0.7,0.2c-0.1,0-0.3-0.3-0.3-0.3C77.5,122.6,77.8,122.7,78.2,123.1z M81.9,114.7
		c-0.8,1-1.5,0.4-2.6,0c0.6-0.6,0.7-0.8,0.9-1C81,113.7,81.5,114.1,81.9,114.7z M81.4,110.8c0.1-0.3,0.4-0.4,0.5-0.2
		c0.1,0.2,0.1,0.4,0,0.6c0,0.1-0.2,0.1-0.3,0.2C81.5,111.2,81.5,111,81.4,110.8z M80.9,123l0,0.2l-0.2-0.1L80.9,123z M85.1,107.9
		C85.1,107.9,85.1,107.9,85.1,107.9C85.1,107.9,85.1,107.9,85.1,107.9c0,0-0.1-0.1-0.3-0.2c0,0,0,0,0-0.1c-0.4,0-0.7-0.1-1.1-0.1
		c0-0.6,0.4-0.5,0.7-0.4c0.2,0.1,0.3,0.3,0.4,0.5c0,0,0.1,0,0.1,0C84.9,107.8,85,107.9,85.1,107.9C85.1,107.9,85.1,107.9,85.1,107.9
		C85.1,107.9,85.1,107.9,85.1,107.9z M85.8,115.1c0.7,1.1-0.2,1.1-0.4,1.6C84.6,115.7,85.5,115.7,85.8,115.1z M84.3,119.8
		c-0.2,0.1-0.4,0.2-0.7,0.2c-0.1,0-0.2-0.2-0.3-0.2C83.7,119.4,84,119.4,84.3,119.8z M87.9,113.8l0.2,0l-0.1,0.2L87.9,113.8z
		 M93.2,122.3c-0.4-0.1-0.8-0.3-0.9-0.8c0.3-0.4,0.7-0.4,1-0.1C93.7,121.7,93.6,122,93.2,122.3z M93.9,111.2c0.1,0,0.2,0.2,0.3,0.3
		c-0.1,0.1-0.2,0.1-0.4,0.2c-0.1,0-0.3,0-0.4-0.1C93.3,111.3,93.5,111.2,93.9,111.2z M95,122.2l0.2-0.1l0,0.2L95,122.2z
		 M100.6,133.7c-0.7,0.3-0.9-0.3-1.1-0.7C100.4,132.6,100.7,132.8,100.6,133.7z M102.2,134.1l0-0.3l0.3,0.2L102.2,134.1z
		 M102.1,123.1l0.2-0.2l0.1,0.3L102.1,123.1z M102.7,114.4C102.7,114.3,102.7,114.3,102.7,114.4c-0.8-0.4-1.5-0.8-1.5-2
		c0.1-0.1,0.2-0.2,0.3-0.3C103.2,112.4,102.6,113.5,102.7,114.4C102.7,114.3,102.7,114.3,102.7,114.4L102.7,114.4
		c0.2,0.1,0.3,0.2,0.3,0.2C103,114.6,102.8,114.5,102.7,114.4L102.7,114.4z M107.5,147.3l0.1-0.2l0.1,0.2L107.5,147.3z M123,143.5
		c-0.2-0.3-0.4-0.5-0.5-0.7c-0.1-0.5,0.3-0.7,0.6-0.9c0.7,0,0.9,0.5,0.9,1.1C123.7,143.2,123.3,143.4,123,143.5z M112.1,135.3
		c-6.6-6.6-6.6-17.2,0-23.8c0.6-0.6,1.2-1.1,1.8-1.5c-0.1-0.1-0.2-0.2-0.2-0.2c0-0.1,0.2-0.1,0.2-0.2c0.1,0.1,0.2,0.2,0.2,0.2
		c0,0,0,0,0,0c3.3-2.4,7.3-3.5,11.2-3.2c0.2-0.2,0.5-0.3,0.8-0.4c0.1,0.2,0.1,0.4,0.1,0.5c3.5,0.5,7,2,9.7,4.8
		c6.6,6.6,6.6,17.2,0,23.8C129.3,141.9,118.6,141.9,112.1,135.3z M110.2,61.6l0-0.2l0.2,0.1L110.2,61.6z M115.6,69
		c-0.3-1.2-0.3-1.2,0.9-1C116.5,68.6,116.2,68.9,115.6,69z M116.7,70.7c0,0.1,0.1,0.2,0.1,0.3c-0.1,0.4-0.3,0.4-0.5,0.1
		c-0.1-0.1,0-0.3,0.1-0.4C116.4,70.8,116.6,70.8,116.7,70.7z M117.4,58.3l0-0.2l0.2,0.1L117.4,58.3z M118.1,85.4
		c0.1,0,0.2,0.2,0.2,0.2c-0.3,0.3-0.6,0.3-0.9,0C117.7,85.5,117.9,85.4,118.1,85.4z M123,72.9c0,0,0.1-0.1,0.2-0.3c0,0,0,0,0.1,0
		c0.2-0.5,0.5-0.8,1.2-0.5c-0.2,0.7-0.8,0.5-1.2,0.5c0,0,0,0,0,0.1C123.2,72.9,123,73,123,72.9z M126.4,94c0.3-0.4,0.7-0.4,1,0
		C127,94.3,126.7,94.4,126.4,94z M141.1,135.9c-0.2,0-0.3-0.2-0.5-0.3c0.1-0.1,0.2-0.3,0.3-0.2c0.2,0,0.5,0.1,0.7,0.2
		C141.4,135.7,141.3,135.9,141.1,135.9z M142.7,123.7c0,0.1-0.2,0.1-0.3,0.1c0-0.1-0.1-0.2-0.1-0.3c0.1-0.4,0.3-0.4,0.5-0.1
		C142.8,123.5,142.8,123.6,142.7,123.7z M150.7,120.5c-0.1,0-0.3,0-0.3,0c-0.1-0.1-0.1-0.3-0.1-0.4c0.2-0.4,0.4-0.4,0.5,0
		C150.9,120.2,150.8,120.4,150.7,120.5z M151.8,107.2c-0.2,0.4-0.6,0.5-1.2,0.1c0.3-0.5,0.5-0.9,1-0.8
		C151.7,106.6,151.8,107,151.8,107.2z M156.7,64.1c0-0.1,0.2-0.1,0.3-0.1c0.3,0.3,0.4,0.6,0,0.9C156.5,64.7,156.4,64.4,156.7,64.1z
		 M157.2,69.8c-1.2-0.6-0.7-1.1-0.8-1.8C157.6,68.6,157.1,69.1,157.2,69.8z M153.3,62.2c0.7,0.9,0.7,1.4,0,1.9
		C152,63.2,152,63.2,153.3,62.2z M153.5,66.2c0.3,0.6,0.4,0.8,0.6,1.1c-0.8,0.9-1.7,0.5-2.7-0.1C152.1,66.9,152.7,66.6,153.5,66.2z
		 M145,56.4c0.8,0.3,1.4,0.5,2.1,0.8c-0.7,0.6-1.3,0.6-2.1,0.2C145,57.1,145,56.9,145,56.4z M142.6,25.7c0.3,0.3,0.4,0.5,0.1,0.9
		c0,0-0.2,0-0.3,0C142.1,26.2,142.1,25.9,142.6,25.7z M158.6,82.6c0,9.3-7.5,16.8-16.8,16.8S125,91.9,125,82.6s7.5-16.8,16.8-16.8
		S158.6,73.3,158.6,82.6z M125.9,69.6c0.1,0,0.3,0.1,0.4,0.1c0,0.1,0,0.2,0,0.3c-0.1,0.1-0.3,0.1-0.4,0.1
		C125.4,69.8,125.4,69.7,125.9,69.6z M135.1,18.8c0.1,0,0.3,0.2,0.3,0.3c-0.3,0.4-0.6,0.4-1,0C134.7,18.9,134.9,18.8,135.1,18.8z
		 M125,21C125,21,125.1,21,125,21c0.2,0.2,0.3,0.3,0.3,0.3C125.4,21.3,125.2,21.2,125,21L125,21L125,21C125,21.1,125,21.1,125,21
		c-0.2-0.1-0.4-0.2-0.5-0.3C125,20.3,124.9,20.8,125,21z M114.6,13.5c0.2-0.4,0.4-0.4,0.4,0c0,0.1-0.1,0.2-0.1,0.3
		c-0.1,0-0.2,0-0.3,0C114.6,13.7,114.5,13.6,114.6,13.5z M113,16.5c-0.3,0.3-0.6,0.5-1,0.1c0-0.1,0-0.2,0-0.3
		C112.4,16,112.7,16.2,113,16.5z M112.1,13.9c0,0,0.3,0.2,0.2,0.3c-0.1,0.2-0.2,0.4-0.3,0.6C111.7,14.5,111.7,14.2,112.1,13.9z
		 M111.2,26.5c0.1,0.2,0.2,0.4,0.2,0.6c0,0.1-0.2,0.2-0.3,0.2C110.8,27,110.8,26.7,111.2,26.5z M112.1,29c6.6-6.6,17.2-6.6,23.8,0
		c6.6,6.6,6.6,17.2,0,23.8c-6.6,6.6-17.2,6.6-23.8,0S105.5,35.6,112.1,29z M109.5,58l0,0.2l-0.2-0.1L109.5,58z M107.8,55.7l-0.2,0
		l0.1-0.2L107.8,55.7z M107.3,20.5c0.1,0,0.1,0.2,0.2,0.3c-0.1,0.1-0.2,0.1-0.3,0.2c-0.1,0-0.3-0.1-0.3-0.1
		C106.8,20.5,107,20.4,107.3,20.5z M106.8,32.4c0,0,0.2,0.1,0.3,0.3c0.1,0.3,0,0.5-0.3,0.7C106.3,33,106.3,32.7,106.8,32.4z
		 M105.9,8.1l0,0.3l-0.3-0.2L105.9,8.1z M103.6,16.9C103.6,16.9,103.6,16.9,103.6,16.9c0.1,0.1,0.1,0.1,0.1,0.1
		c0.7,0,1.4,0.1,1.7,0.8c0,0,0.1,0,0.1,0c0.1,0.1,0.2,0.2,0.2,0.2v0c0,0,0,0,0,0c0,0,0,0,0,0c0,0,0,0,0,0c0,0-0.2-0.1-0.3-0.2
		c0,0,0,0,0-0.1c-0.7-0.1-1.4,0-1.7-0.8C103.6,17,103.6,17,103.6,16.9C103.6,16.9,103.6,16.9,103.6,16.9c-0.2-0.1-0.3-0.2-0.5-0.3
		C103.6,16.2,103.5,16.6,103.6,16.9z M102.9,40.4c0.4,0.1,0.4,0.4,0,0.5c-0.2,0-0.5-0.2-0.7-0.3C102.4,40.6,102.7,40.4,102.9,40.4z
		 M110,79.7c0,15.1-12.2,27.3-27.3,27.3c-15.1,0-27.3-12.2-27.3-27.3c0-15.1,12.2-27.3,27.3-27.3C97.8,52.4,110,64.6,110,79.7z
		 M57.5,68.2l0-0.2l0.2,0.1L57.5,68.2z M58.6,37.1c0,0,0.1-0.1,0.2-0.3c0.2-0.1,0.3-0.2,0.3-0.2c0,0-0.1,0.1-0.2,0.3
		C58.8,37,58.6,37.2,58.6,37.1z M68.2,34.1l0-0.2l0.2,0.1L68.2,34.1z M70.6,37.6c-0.1,0-0.3,0-0.4-0.1c-0.1-0.2,0-0.4,0.4-0.4
		c0.1,0,0.2,0.2,0.3,0.3C70.9,37.4,70.7,37.5,70.6,37.6z M71.1,52.3L71,52.5l-0.1-0.3L71.1,52.3z M77.8,43.8c0.1,0,0.2,0.2,0.3,0.2
		c-0.1,0.1-0.2,0.1-0.4,0.2c-0.1,0-0.3,0-0.4-0.1C77.2,43.9,77.4,43.7,77.8,43.8z M84.2,41.1c0-0.4,0.2-0.5,0.4-0.2
		c0.1,0.1,0.1,0.3,0,0.4c0,0.1-0.2,0.1-0.3,0.2C84.3,41.3,84.2,41.2,84.2,41.1z M85.2,44.1l0-0.2l0.2,0.1L85.2,44.1z M86.4,40.8
		L86.4,40.8C86.4,40.8,86.4,40.8,86.4,40.8c0,0,0.2,0.1,0.3,0.2v0c0.1,0.1,0.2,0.3,0.2,0.3c0,0-0.1-0.1-0.3-0.2
		C86.5,41,86.4,40.9,86.4,40.8C86.4,40.8,86.4,40.8,86.4,40.8C86.4,40.8,86.4,40.8,86.4,40.8z M95,51.5l0.2-0.2l0.1,0.3L95,51.5z
		 M97.5,53.8c0.1,0,0.2,0.2,0.3,0.2c-0.1,0.1-0.2,0.1-0.4,0.2c-0.1,0-0.3,0-0.4-0.1C96.9,53.9,97.1,53.7,97.5,53.8z M91.4,5.6
		c0.2,0.6-0.2,0.9-0.7,1.1C90.3,5.7,90.3,5.7,91.4,5.6z M67.6,12.9c0.2,0.1,0.4,0.2,0.6,0.3c-0.3,0.3-0.6,0.3-0.9-0.1
		C67.3,13.1,67.5,12.9,67.6,12.9z M82.7,7c9.3,0,16.8,7.5,16.8,16.8c0,9.3-7.5,16.8-16.8,16.8c-9.3,0-16.8-7.5-16.8-16.8
		C65.9,14.5,73.4,7,82.7,7z M63.9,24c0.4,0.9,0.1,1.2-0.9,0.9C62.9,24.3,63.2,24,63.9,24z M59.1,32.5c1,0.1,0.9,0.7,0.6,1.1
		c-0.3,0.5-0.7,0.9-1.4,0.3C58.6,33.4,58.8,33,59.1,32.5z M57.1,20.2c0.1,0.1,0.2,0.2,0.2,0.3c0,0,0,0,0,0c0,0,0,0,0,0c0,0,0,0,0,0
		c0,0,0,0,0,0C57.3,20.5,57.2,20.4,57.1,20.2L57.1,20.2L57.1,20.2C57,20.1,56.8,20,56.9,20C56.8,20,57,20.1,57.1,20.2z M53.5,21.9
		C53.5,21.9,53.5,21.9,53.5,21.9c0.1-0.5,0.1-0.9,0.5-1.3C54.5,21.3,54.1,21.6,53.5,21.9C53.6,21.9,53.6,21.9,53.5,21.9
		c-0.1,0.2-0.3,0.3-0.2,0.3C53.3,22.2,53.4,22,53.5,21.9z M29.6,29c6.6-6.6,17.2-6.6,23.8,0c6.6,6.6,6.6,17.2,0,23.8
		c-6.6,6.6-17.2,6.6-23.8,0C23,46.2,23,35.6,29.6,29z M35.8,58.4c-0.1,0-0.3,0-0.4,0c0-0.1-0.1-0.2-0.1-0.3c0.1-0.1,0.3-0.1,0.4-0.1
		C36.1,58,36.1,58.2,35.8,58.4z M33.7,58.3c-0.1,0.2-0.2,0.4-0.3,0.6c-0.4-0.3-0.4-0.6,0.1-0.9C33.5,58.1,33.7,58.3,33.7,58.3z
		 M25.4,51.5l-0.2,0l0.1-0.2L25.4,51.5z M23.6,49c-0.3,0.3-0.7,0.4-1-0.1C22.9,48.6,23.3,48.6,23.6,49z M16.5,56.3l0,0.2l-0.2-0.1
		L16.5,56.3z M23.6,65.8c0.5,0,1,0,1.5,0.1c0,0,0-0.1,0.1-0.1c0,0,0.2,0,0.3,0c0,0,0,0.1,0.1,0.1c8.4,1,14.9,8.1,14.9,16.7
		c0,9.3-7.5,16.8-16.8,16.8c-9.3,0-16.8-7.5-16.8-16.8S14.3,65.8,23.6,65.8z"/>
	<path class="st0" d="M57.4,79.7c0,14,11.3,25.3,25.3,25.3S108,93.6,108,79.7S96.7,54.4,82.7,54.4S57.4,65.7,57.4,79.7z M63.8,77.2
		l0.2,0.1l-0.3,0.1L63.8,77.2z M60.7,85.3C60.7,85.3,60.7,85.2,60.7,85.3c-0.1-0.1-0.1-0.1-0.1-0.1c-0.4-0.1-0.8-0.1-1.2-0.2
		c-0.1-0.7,0.4-0.5,0.7-0.4c0.2,0.1,0.3,0.4,0.5,0.6C60.6,85.2,60.7,85.2,60.7,85.3C60.7,85.2,60.7,85.2,60.7,85.3
		c0.2,0.1,0.4,0.2,0.6,0.3C60.7,86,60.8,85.5,60.7,85.3z M61.7,82.6C61.6,82.7,61.6,82.7,61.7,82.6c-0.2,0.2-0.4,0.3-0.3,0.3
		C61.3,83,61.4,82.8,61.7,82.6C61.6,82.7,61.6,82.6,61.7,82.6c0.1-0.2,0.2-0.3,0.3-0.5C62.4,82.6,61.9,82.6,61.7,82.6z M63.7,86.6
		l0-0.2l0.2,0.1L63.7,86.6z M63.8,83.2c-0.7-0.5-0.7-1.1-0.1-1.7c0.9,0.2,1.2,0.7,1.2,1.5C64.6,83.3,64.2,83.5,63.8,83.2z
		 M66.5,66.6l-0.2-0.1l0.2-0.1L66.5,66.6z M67.3,92.4l0-0.2l0.2,0.1L67.3,92.4z M68.3,85c-0.5-0.2-0.4-0.6-0.1-0.9
		c0.5,0,0.7,0.2,0.9,0.6C69,85.1,68.6,85.1,68.3,85z M71.8,88.2l0.1-0.2l0.1,0.2L71.8,88.2z M74.1,91.7c-0.4-0.1-0.5-0.3-0.1-0.4
		c0.1,0,0.3,0,0.4,0.1c0.1,0,0.1,0.2,0.1,0.3C74.3,91.6,74.2,91.7,74.1,91.7z M75.4,76.6l0-0.2l0.2,0.1L75.4,76.6z M106,78.7
		c0.2-0.1,0.5,0.2,0.7,0.3c-0.2,0.1-0.5,0.3-0.7,0.3C105.6,79.1,105.6,78.8,106,78.7z M84.4,95.7c-0.4-0.3-0.4-0.6,0.1-0.9
		C84.8,95.1,84.8,95.4,84.4,95.7z M100.5,91.4c-0.2,0.1-0.5,0.2-0.7,0.2c-0.1,0-0.3-0.2-0.3-0.3C99.9,91,100.2,91,100.5,91.4z
		 M97.8,84.6l0.1,0.2l-0.2,0L97.8,84.6z M97.9,86.2c0.3,1.3,0.3,1.3-1,1.1C96.9,86.7,97.3,86.4,97.9,86.2z M96.2,84.6
		c-0.7,0.3-0.9-0.2-1.2-0.6C95.8,83.5,96.1,83.8,96.2,84.6z M93.9,61.3c0.1,0,0.2,0.2,0.3,0.2c-0.1,0.1-0.2,0.1-0.4,0.2
		c-0.1,0-0.3,0-0.4-0.1C93.3,61.4,93.5,61.2,93.9,61.3z M92,101c0.1,0.1,0.2,0.3,0.2,0.3C92.3,101.3,92.1,101.2,92,101
		c-0.2-0.1-0.3-0.2-0.3-0.2C91.7,100.8,91.9,100.9,92,101z M89.8,72.2c0.3,0.3,0.4,0.6,0.1,0.9c0,0-0.2,0-0.3,0
		C89.3,72.8,89.4,72.5,89.8,72.2z M84.4,90.5c0.1,0.2,0.2,0.4,0.3,0.7c0,0.1-0.3,0.2-0.3,0.2C84,91.1,84,90.8,84.4,90.5z"/>
</g>
</svg>
