<?xml version="1.0" encoding="utf-8"?>
<!-- Generator: Adobe Illustrator 22.1.0, SVG Export Plug-In . SVG Version: 6.00 Build 0)  -->
<svg version="1.1" id="Layer_1" xmlns="http://www.w3.org/2000/svg" xmlns:xlink="http://www.w3.org/1999/xlink" x="0px" y="0px"
	 viewBox="0 0 162.3 81.5" style="enable-background:new 0 0 162.3 81.5;" xml:space="preserve">
<style type="text/css">
	.st0{fill:#17242E;}
</style>
<g>
	<path class="st0" d="M78.2,34.3c0,2.1,1.7,3.8,3.8,3.8l0,0c2.1,0,3.8-1.7,3.8-3.8s-1.7-3.9-3.8-3.9C79.9,30.5,78.2,32.2,78.2,34.3z
		 M80.1,21.5c0,0.3,0,0.6,0,0.9c0.6-0.1,1.3-0.2,2-0.2c0.8,0,1.5,0.1,2.3,0.2c0-0.3,0-0.6,0-0.9c0-5.2,3.7-9.6,8.5-10.6
		C89.4,9.3,85.7,8.5,82,8.5c-3.8,0-7.4,0.8-10.7,2.3C76.3,11.8,80.1,16.2,80.1,21.5z"/>
	<path class="st0" d="M82,0C37,0,1.7,15.1,1.7,34.3S37,68.7,82,68.7c45,0,80.3-15.1,80.3-34.3S127,0,82,0L82,0z M157.4,32h-15.4
		c-1-8.1-7.3-15.5-18-21c-1.7-0.9-3.5-1.7-5.2-2.4C140,13.3,155.3,22,157.4,32L157.4,32z M121.8,15.1c9,4.7,14.4,10.6,15.5,16.9
		h-21.7c-0.6-9.2-5-17.5-11.7-23.2C110.5,10.3,116.5,12.4,121.8,15.1L121.8,15.1z M45.4,8.5c-1.8,0.7-3.5,1.5-5.3,2.4
		c-10.7,5.6-17,13-18,21H6.7C8.7,22,24,13.3,45.4,8.5z M60.2,8.8c-6.6,5.7-11,13.9-11.7,23.2H26.8c1.1-6.3,6.5-12.2,15.5-16.9
		C47.5,12.4,53.6,10.3,60.2,8.8L60.2,8.8z M6.7,36.7h15.4c1,8.1,7.3,15.5,18,21c1.7,0.9,3.5,1.7,5.3,2.4C24,55.4,8.7,46.6,6.7,36.7
		L6.7,36.7z M42.3,53.5c-9-4.7-14.4-10.6-15.5-16.9h21.7c0.6,9.2,5,17.5,11.7,23.2C53.6,58.4,47.5,56.3,42.3,53.5L42.3,53.5z
		 M101,56.7c-5.1,4.4-11.7,7-19,7c-16.2,0-29.3-13.2-29.3-29.3S65.8,5,82,5s29.3,13.2,29.3,29.3c0,7.2-2.6,13.9-7,19
		C103.5,54.7,102.3,55.8,101,56.7L101,56.7z M115.5,36.7h21.7c-1.1,6.3-6.5,12.2-15.5,16.9c-5.2,2.7-11.3,4.8-17.9,6.3
		C110.5,54.1,114.9,45.9,115.5,36.7L115.5,36.7z M118.7,60.1c1.8-0.7,3.5-1.5,5.2-2.4c10.7-5.6,17-13,18-21h15.4
		C155.3,46.6,140,55.4,118.7,60.1L118.7,60.1z"/>
	<path class="st0" d="M107.8,34.3c0-3.6-0.8-7.1-2.1-10.2c-1.2,4.7-5.5,8.3-10.6,8.3c-0.4,0-0.8,0-1.2-0.1c0.1,0.6,0.2,1.3,0.2,2
		c0,0.8-0.1,1.6-0.2,2.3c0.4,0,0.8-0.1,1.3-0.1c5,0,9.3,3.4,10.5,8.1C107.1,41.4,107.8,37.9,107.8,34.3z M84.3,47.5
		c0-0.4,0-0.9,0.1-1.3c-0.7,0.1-1.5,0.2-2.3,0.2c-0.7,0-1.3-0.1-2-0.2c0,0.4,0.1,0.8,0.1,1.2c0,5.1-3.5,9.4-8.3,10.6
		c3.2,1.4,6.7,2.1,10.2,2.1c3.7,0,7.1-0.8,10.3-2.2C87.7,56.7,84.3,52.5,84.3,47.5L84.3,47.5z M70.2,36.6c-0.3-1.4-0.3-2.8-0.1-4.3
		c-0.3,0-0.6,0-0.9,0c-5.3,0-9.7-3.8-10.7-8.8c-1.5,3.4-2.3,7-2.3,10.7c0,3.8,0.9,7.5,2.4,10.8c1.1-4.9,5.4-8.5,10.6-8.5
		C69.5,36.6,69.8,36.6,70.2,36.6z M146.7,60.2c0-4.4,3.2-7,6.6-7c3.4,0,6.6,2.6,6.6,7c0,4.4-3.2,7-6.6,7
		C149.9,67.1,146.7,64.6,146.7,60.2z M153.3,54.9c-2.5,0-4.5,2.1-4.5,5.3c0,3.1,2,5.2,4.5,5.2c2.4,0,4.5-2.1,4.5-5.2
		C157.8,57.1,155.7,54.9,153.3,54.9z M152.3,63.9h-1.6v-7.6h2.6c1.8,0,2.9,0.5,2.9,2.3c0,1.4-0.7,1.9-1.9,2l1.8,3.3h-1.6l-1.6-3.2
		h-0.6L152.3,63.9L152.3,63.9z M153.6,59.4c0.6,0,0.9-0.2,0.9-0.8c0-0.7-0.3-0.8-0.9-0.8l-1.3,0v1.7L153.6,59.4L153.6,59.4
		L153.6,59.4z M69.3,28.9c4.1,0,7.4-3.3,7.4-7.4S73.4,14,69.3,14s-7.4,3.3-7.4,7.4C61.9,25.5,65.2,28.9,69.3,28.9z M95.2,28.9
		c4.1,0,7.4-3.3,7.4-7.4S99.3,14,95.2,14c-4.1,0-7.4,3.3-7.4,7.4C87.8,25.5,91.1,28.9,95.2,28.9z"/>
	<path class="st0" d="M69.3,54.9c4.1-0.1,7.3-3.4,7.3-7.5c-0.1-4-3.3-7.2-7.3-7.3c-4.1,0-7.4,3.3-7.4,7.4v0
		C61.9,51.6,65.2,54.9,69.3,54.9z M95.2,54.9c4.1,0,7.4-3.3,7.4-7.4c0-4.1-3.3-7.4-7.4-7.4c-4.1,0-7.4,3.3-7.4,7.4
		C87.8,51.6,91.1,54.9,95.2,54.9z M11.3,79.4c0,1.7-1,2.1-2.1,2.1s-2.1-0.5-2.1-2.1v-3.3c0-1.7,1-2.1,2.1-2.1s2.1,0.4,2.1,2.1V79.4z
		 M161.2,74.2l0.9,7.2h-1.7l-0.2-1.8h-0.9l-0.3,1.8h-1.4l1.2-7.2H161.2z M145.4,81.4v-7.2h1.7c1.6,0,2.6,0.2,2.6,1.7
		c0,0.9-0.4,1.5-1.3,1.6v0c0.8,0,1.3,0.3,1.3,1.4v1.5c0,0.3,0.1,0.7,0.3,1h-1.7c-0.2-0.3-0.2-0.7-0.2-1v-1.5c0-0.5-0.3-0.8-0.6-0.8
		h-0.3v3.3L145.4,81.4L145.4,81.4L145.4,81.4z M132.7,74.2l0.9,7.2H132l-0.2-1.8h-0.9l-0.3,1.8h-1.4l1.2-7.2H132.7L132.7,74.2z
		 M121.8,79.4c0,1.7-1,2.1-2.1,2.1s-2.1-0.5-2.1-2.1v-3.3c0-1.7,1-2.1,2.1-2.1c1.1,0,2.1,0.4,2.1,2.1V79.4z M108.8,79.4
		c0,1.7-1,2.1-2.1,2.1c-1.1,0-2.1-0.5-2.1-2.1v-3.3c0-1.7,1-2.1,2.1-2.1c1.1,0,2.1,0.4,2.1,2.1V79.4z M96.7,74.2l0.9,7.2h-1.7
		l-0.2-1.8h-0.9l-0.3,1.8h-1.4l1.2-7.2H96.7L96.7,74.2z M85.1,79.4c0,1.7-1,2.1-2.1,2.1c-1.1,0-2.1-0.5-2.1-2.1v-3.3
		c0-1.7,1-2.1,2.1-2.1c1.1,0,2.1,0.4,2.1,2.1V79.4z M69.3,74.2l0.9,7.2h-1.7l-0.2-1.8h-0.9l-0.3,1.8h-1.4l1.2-7.2H69.3z M54.1,81.4
		v-7.2h1.7c1.6,0,2.6,0.2,2.6,1.7c0,0.9-0.4,1.5-1.3,1.6v0c0.8,0,1.3,0.3,1.3,1.4v1.5c0,0.3,0.1,0.7,0.3,1h-1.7
		c-0.2-0.3-0.2-0.7-0.2-1v-1.5c0-0.5-0.3-0.8-0.6-0.8h-0.3v3.3L54.1,81.4L54.1,81.4z M32.1,81.4v-7.2h2.1c1.3,0,2.2,0.3,2.2,1.6V77
		c0,1.1-1,1.6-2,1.6h-0.6v2.8H32.1z M23.3,79.4c0,1.7-1,2.1-2.1,2.1c-1.1,0-2.1-0.5-2.1-2.1v-3.3c0-1.7,1-2.1,2.1-2.1
		c1.1,0,2.1,0.4,2.1,2.1V79.4z M1.3,81.4H0v-7.2h2.5l0.7,5.1h0l0.7-5.1h2.4v7.2H4.8v-6.2h0l-1,6.2H2.3l-1-6.2h0L1.3,81.4L1.3,81.4z
		 M160.2,78.5l-0.3-3.2h0l-0.3,3.2H160.2z M157,78.6v1c0,1.3-0.7,2-2.1,2c-1.1,0-2.1-0.5-2.1-2.1v-3.3c0-1.7,1-2.1,2.1-2.1
		c1.2,0,2.1,0.4,2.1,1.9v0.8h-1.7v-1c0-0.3-0.1-0.6-0.5-0.6c-0.3,0-0.4,0.3-0.4,0.6v4.1c0,0.3,0.1,0.6,0.4,0.6
		c0.4,0,0.5-0.3,0.5-0.6l0-1.2L157,78.6L157,78.6z M152.1,74.2v7.2h-1.7v-7.2H152.1z M147.1,77.1c0.8,0,0.9-0.3,0.9-0.9
		c0-0.7-0.1-0.9-0.9-0.9V77.1z M141.3,81.4v-7.2h3.5v1.1H143v1.6h1.7V78H143v2.3h1.8v1.1L141.3,81.4L141.3,81.4z M135.6,81.4h-1.4
		v-7.2h2.5l0.7,5.1h0l0.7-5.1h2.4v7.2h-1.5v-6.2h0l-1,6.2h-1.5l-1-6.2h0L135.6,81.4L135.6,81.4z M131.6,78.5l-0.3-3.2h0l-0.3,3.2
		H131.6z M122.5,81.4v-7.2h3.5v1.1h-1.8v1.6h1.7V78h-1.7v3.4L122.5,81.4L122.5,81.4L122.5,81.4z M119.2,79.8c0,0.3,0.1,0.6,0.4,0.6
		s0.4-0.3,0.4-0.6v-4.1c0-0.3-0.1-0.6-0.4-0.6s-0.4,0.3-0.4,0.6V79.8z M109.5,74.2h2.3l1.1,5.3h0v-5.3h1.3v7.2h-2.2l-1.2-6h0v6h-1.3
		L109.5,74.2L109.5,74.2z M106.2,79.8c0,0.3,0.1,0.6,0.4,0.6s0.4-0.3,0.4-0.6v-4.1c0-0.3-0.1-0.6-0.4-0.6s-0.4,0.3-0.4,0.6V79.8z
		 M103.8,74.2v7.2h-1.7v-7.2H103.8z M97.4,75.3v-1.1h4v1.1h-1.2v6.1h-1.7v-6.1H97.4z M95.6,78.5l-0.3-3.2h0L95,78.5H95.6L95.6,78.5z
		 M92.5,74.2v7.2h-1.7v-7.2H92.5z M90.1,78.6v1c0,1.3-0.7,2-2.1,2c-1.1,0-2.1-0.5-2.1-2.1v-3.3c0-1.7,1-2.1,2.1-2.1
		c1.2,0,2.1,0.4,2.1,1.9v0.8h-1.7v-1c0-0.3-0.1-0.6-0.5-0.6c-0.3,0-0.4,0.3-0.4,0.6v4.1c0,0.3,0.1,0.6,0.4,0.6
		c0.4,0,0.5-0.3,0.5-0.6l0-1.2L90.1,78.6L90.1,78.6z M82.6,79.8c0,0.3,0.1,0.6,0.4,0.6s0.4-0.3,0.4-0.6v-4.1c0-0.3-0.1-0.6-0.4-0.6
		s-0.4,0.3-0.4,0.6V79.8z M78.4,76.8v-1c0-0.4-0.1-0.6-0.4-0.6c-0.4,0-0.4,0.2-0.4,0.6c0,1.2,2.6,1.6,2.6,3.8c0,1.4-0.7,2-2.1,2
		c-1.1,0-2.1-0.4-2.1-1.6v-1.3h1.7v1.3c0,0.4,0.1,0.5,0.4,0.5c0.3,0,0.4-0.1,0.4-0.5c0-1.6-2.6-1.7-2.6-4c0-1.3,0.9-1.8,2.2-1.8
		c1.1,0,2.1,0.4,2.1,1.6v1.1L78.4,76.8L78.4,76.8z M73.4,76.8v-1c0-0.4-0.1-0.6-0.4-0.6c-0.4,0-0.4,0.2-0.4,0.6
		c0,1.2,2.6,1.6,2.6,3.8c0,1.4-0.7,2-2.1,2c-1.1,0-2.1-0.4-2.1-1.6v-1.3h1.7v1.3c0,0.4,0.1,0.5,0.4,0.5c0.3,0,0.4-0.1,0.4-0.5
		c0-1.6-2.6-1.7-2.6-4c0-1.3,0.9-1.8,2.2-1.8c1.1,0,2.1,0.4,2.1,1.6v1.1L73.4,76.8L73.4,76.8z M68.2,78.5l-0.3-3.2h0l-0.3,3.2H68.2
		L68.2,78.5z M59.1,81.4v-7.2h3.5v1.1h-1.8v1.6h1.7V78h-1.7v2.3h1.8v1.1L59.1,81.4L59.1,81.4z M55.8,77.1c0.8,0,0.9-0.3,0.9-0.9
		c0-0.7-0.1-0.9-0.9-0.9V77.1z M53.4,79.3c0,1.5-0.6,2.2-2.1,2.2c-2.1,0-2.1-1.5-2.1-2.4v-5h1.7v5.2c0,0.6,0,1,0.4,1
		c0.5,0,0.5-0.4,0.5-1v-5.2h1.7V79.3z M44.4,75.3v-1.1h4v1.1h-1.2v6.1h-1.7v-6.1H44.4L44.4,75.3z M43.8,78.6v1c0,1.3-0.7,2-2.1,2
		c-1.1,0-2.1-0.5-2.1-2.1v-3.3c0-1.7,1-2.1,2.1-2.1c1.2,0,2.1,0.4,2.1,1.9v0.8h-1.7v-1c0-0.3-0.1-0.6-0.5-0.6
		c-0.3,0-0.4,0.3-0.4,0.6v4.1c0,0.3,0.1,0.6,0.4,0.6c0.4,0,0.5-0.3,0.5-0.6l0-1.2L43.8,78.6L43.8,78.6z M38.8,74.2v7.2h-1.7v-7.2
		H38.8L38.8,74.2z M33.8,77.6h0.3c0.6,0,0.6-0.3,0.6-1.2c0-0.8,0-1.2-0.6-1.2h-0.3V77.6L33.8,77.6z M24,74.2h2.3l1.1,5.3h0v-5.3h1.3
		v7.2h-2.2l-1.2-6h0v6H24V74.2L24,74.2z M20.8,79.8c0,0.3,0.1,0.6,0.4,0.6s0.4-0.3,0.4-0.6v-4.1c0-0.3-0.1-0.6-0.4-0.6
		s-0.4,0.3-0.4,0.6V79.8z M18.4,74.2v7.2h-1.7v-7.2H18.4z M12,75.3v-1.1h4v1.1h-1.2v6.1h-1.7v-6.1H12L12,75.3z M8.8,79.8
		c0,0.3,0.1,0.6,0.4,0.6c0.3,0,0.4-0.3,0.4-0.6v-4.1c0-0.3-0.1-0.6-0.4-0.6c-0.4,0-0.4,0.3-0.4,0.6V79.8z"/>
</g>
</svg>
