<?xml version="1.0" encoding="utf-8"?>
<!-- Generator: Adobe Illustrator 22.1.0, SVG Export Plug-In . SVG Version: 6.00 Build 0)  -->
<svg version="1.1" id="Layer_1" xmlns="http://www.w3.org/2000/svg" xmlns:xlink="http://www.w3.org/1999/xlink" x="0px" y="0px"
	 viewBox="0 0 193.1 100.9" style="enable-background:new 0 0 193.1 100.9;" xml:space="preserve">
<style type="text/css">
	.st0{fill:#17242E;}
</style>
<g>
	<path class="st0" d="M174.3,72.6H3V3h171.2V72.6L174.3,72.6z M0,0v75.7h177.3V0H0z"/>
	<g>
		<path class="st0" d="M66.3,90.8c-0.1,0.4-0.2,0.9-0.4,1.3v0l-0.8,2h2.5l-0.8-1.9C66.6,91.6,66.4,91.2,66.3,90.8z"/>
		<path class="st0" d="M56.8,91.9c0-0.3-0.1-0.6-0.4-0.8c-0.3-0.2-0.7-0.3-1.2-0.3h-2.3h0v2.3H55c0.4,0,0.8,0,1-0.1
			C56.5,92.8,56.8,92.4,56.8,91.9z"/>
		<path class="st0" d="M95.5,92.1L95.5,92.1l0.4,0.4c0.4-0.2,0.7-0.4,0.8-0.6c0.1-0.2,0.2-0.3,0.2-0.5c0-0.2-0.1-0.4-0.2-0.6
			c-0.2-0.1-0.4-0.2-0.6-0.2c-0.2,0-0.4,0.1-0.6,0.2c-0.2,0.1-0.2,0.3-0.2,0.5c0,0.1,0,0.2,0.1,0.3S95.4,92,95.5,92.1z"/>
		<path class="st0" d="M94.5,94.3c-0.2,0.2-0.3,0.5-0.3,0.7c0,0.3,0.1,0.6,0.4,0.9c0.2,0.3,0.6,0.4,1,0.4c0.3,0,0.6-0.1,0.8-0.2
			c0.3-0.2,0.5-0.4,0.7-0.6l-1.7-1.9C95,93.8,94.7,94.1,94.5,94.3z"/>
		<path class="st0" d="M18.9,90.8c-0.1,0.4-0.2,0.9-0.4,1.3v0l-0.8,2h2.5l-0.8-1.9C19.2,91.6,19,91.2,18.9,90.8z"/>
		<path class="st0" d="M-0.2,86.2v14.6h177.5V86.2H-0.2z M9.6,96.4C9.1,96.8,8.5,97,7.7,97c-0.8,0-1.4-0.2-1.9-0.4
			c-0.5-0.3-0.9-0.8-1.1-1.3c-0.3-0.6-0.4-1.2-0.4-1.8c0-0.7,0.1-1.3,0.4-1.9C5,91,5.4,90.6,5.9,90.4c0.6-0.3,1.2-0.4,1.8-0.4
			c0.7,0,1.4,0.2,1.9,0.5c0.5,0.3,0.9,0.8,1,1.5l-1,0.2c-0.2-0.5-0.4-0.9-0.7-1.1c-0.3-0.2-0.7-0.3-1.2-0.3c-0.6,0-1,0.1-1.4,0.4
			c-0.4,0.2-0.7,0.6-0.8,1c-0.2,0.4-0.2,0.9-0.2,1.3c0,0.6,0.1,1.1,0.3,1.5c0.2,0.4,0.5,0.8,0.9,1c0.4,0.2,0.8,0.3,1.3,0.3
			c0.5,0,1-0.1,1.4-0.4c0.4-0.3,0.6-0.7,0.8-1.3l1,0.2C10.5,95.5,10.2,96,9.6,96.4z M21.3,96.9l-0.9-2.1h-3.1l-0.8,2.1h-1l2.8-6.8
			h1.1l3,6.8H21.3z M34.7,96.9h-0.9v-5.7l-2.1,5.7h-0.9l-2.1-5.8v5.8h-0.9v-6.8h1.5l1.7,4.8c0.2,0.4,0.3,0.8,0.4,1
			c0.1-0.2,0.2-0.6,0.4-1.1l1.8-4.7h1.3V96.9z M46.2,96.9h-5.5v-6.8H46v0.8h-4.4V93h4.1v0.8h-4.1v2.3h4.5V96.9z M57.2,96.9l-1-1.4
			c-0.3-0.4-0.5-0.7-0.7-0.9c-0.2-0.2-0.3-0.4-0.5-0.5c-0.1-0.1-0.3-0.1-0.4-0.2c-0.1,0-0.3,0-0.5,0h-1.1v3h-1v-6.8h3.3
			c0.7,0,1.2,0.1,1.5,0.2c0.3,0.1,0.6,0.3,0.8,0.6c0.2,0.3,0.3,0.7,0.3,1c0,0.5-0.2,0.9-0.5,1.2c-0.3,0.3-0.9,0.5-1.6,0.6
			c0.3,0.1,0.5,0.2,0.6,0.3c0.3,0.2,0.6,0.5,0.8,0.9l1.3,1.9H57.2z M68.8,96.9l-0.9-2.1h-3.1L64,96.9h-1l2.8-6.8h1.1l3,6.8H68.8z
			 M80.3,96c-0.2,0.3-0.5,0.6-1,0.7c-0.4,0.2-0.9,0.3-1.4,0.3c-0.7,0-1.2-0.1-1.7-0.3c-0.4-0.2-0.8-0.5-1.1-0.8s-0.4-0.8-0.4-1.2
			l0,0v0v0l0.9-0.1c0,0.3,0.1,0.6,0.3,0.8c0.2,0.2,0.4,0.4,0.7,0.5c0.3,0.1,0.7,0.2,1.1,0.2c0.4,0,0.7-0.1,1-0.2
			c0.3-0.1,0.5-0.2,0.6-0.4s0.2-0.4,0.2-0.6c0-0.2-0.1-0.4-0.2-0.6c-0.1-0.2-0.4-0.3-0.7-0.4c-0.2-0.1-0.6-0.2-1.3-0.3
			c-0.7-0.2-1.1-0.3-1.4-0.4c-0.4-0.2-0.6-0.4-0.8-0.6c-0.2-0.3-0.3-0.5-0.3-0.9c0-0.3,0.1-0.7,0.3-1c0.2-0.3,0.5-0.5,0.9-0.7
			c0.4-0.2,0.9-0.2,1.3-0.2c0.5,0,1,0.1,1.4,0.2c0.4,0.2,0.7,0.4,1,0.7c0.2,0.3,0.3,0.7,0.4,1.1l-0.9,0.1c-0.1-0.4-0.2-0.7-0.5-1
			c-0.3-0.2-0.7-0.3-1.3-0.3c-0.6,0-1,0.1-1.3,0.3c-0.3,0.2-0.4,0.4-0.4,0.7c0,0.2,0.1,0.4,0.3,0.6c0.2,0.2,0.7,0.3,1.5,0.5
			c0.8,0.2,1.3,0.3,1.6,0.4c0.4,0.2,0.7,0.4,1,0.7s0.3,0.6,0.3,1C80.6,95.3,80.5,95.7,80.3,96z M98.9,97.1c-0.4-0.2-0.7-0.5-1.1-1
			c-0.3,0.3-0.6,0.5-1,0.7C96.4,96.9,96,97,95.6,97c-0.8,0-1.4-0.2-1.8-0.7c-0.4-0.4-0.5-0.8-0.5-1.3c0-0.4,0.2-0.8,0.4-1.1
			c0.3-0.3,0.7-0.6,1.3-0.9c-0.3-0.4-0.6-0.6-0.7-0.9c-0.1-0.2-0.2-0.4-0.2-0.6c0-0.4,0.2-0.8,0.5-1.1c0.3-0.3,0.8-0.5,1.3-0.5
			c0.5,0,0.9,0.1,1.2,0.4c0.3,0.3,0.5,0.6,0.5,1c0,0.6-0.5,1.2-1.4,1.7l1.3,1.5c0.2-0.3,0.3-0.6,0.4-0.9l0.9,0.2
			c-0.2,0.6-0.4,1.1-0.7,1.5c0.3,0.4,0.7,0.8,1.2,1L98.9,97.1z M116.8,96.9h-4.6v-6.8h1v6h3.6V96.9z M127.9,96.9h-5.5v-6.8h5.3v0.8
			h-4.4V93h4.1v0.8h-4.1v2.3h4.5V96.9z M139.4,96.9h-1l-3.9-5.4v5.4h-0.9v-6.8h1l3.9,5.4v-5.4h0.9V96.9z M150.7,96
			c-0.2,0.3-0.5,0.6-1,0.7c-0.4,0.2-0.9,0.3-1.4,0.3c-0.7,0-1.2-0.1-1.7-0.3c-0.4-0.2-0.8-0.5-1.1-0.8c-0.3-0.4-0.4-0.8-0.4-1.2l0,0
			v0v0l0.9-0.1c0,0.3,0.1,0.6,0.3,0.8c0.2,0.2,0.4,0.4,0.7,0.5c0.3,0.1,0.7,0.2,1.1,0.2c0.4,0,0.7-0.1,1-0.2
			c0.3-0.1,0.5-0.2,0.6-0.4c0.1-0.2,0.2-0.4,0.2-0.6c0-0.2-0.1-0.4-0.2-0.6c-0.1-0.2-0.4-0.3-0.7-0.4c-0.2-0.1-0.6-0.2-1.3-0.3
			c-0.7-0.2-1.1-0.3-1.4-0.4c-0.4-0.2-0.6-0.4-0.8-0.6c-0.2-0.3-0.3-0.5-0.3-0.9c0-0.3,0.1-0.7,0.3-1c0.2-0.3,0.5-0.5,0.9-0.7
			c0.4-0.2,0.9-0.2,1.3-0.2c0.5,0,1,0.1,1.4,0.2c0.4,0.2,0.7,0.4,1,0.7c0.2,0.3,0.3,0.7,0.4,1.1l-0.9,0.1c-0.1-0.4-0.2-0.7-0.5-1
			c-0.3-0.2-0.7-0.3-1.3-0.3c-0.6,0-1,0.1-1.3,0.3c-0.3,0.2-0.4,0.4-0.4,0.7c0,0.2,0.1,0.4,0.3,0.6c0.2,0.2,0.7,0.3,1.5,0.5
			c0.8,0.2,1.3,0.3,1.6,0.4c0.4,0.2,0.7,0.4,1,0.7s0.3,0.6,0.3,1C151,95.3,150.9,95.7,150.7,96z M162.3,96.9h-5.5v-6.8h5.3v0.8h-4.4
			V93h4.1v0.8h-4.1v2.3h4.5V96.9z M173.3,96c-0.2,0.3-0.5,0.6-1,0.7c-0.4,0.2-0.9,0.3-1.4,0.3c-0.7,0-1.2-0.1-1.7-0.3
			c-0.4-0.2-0.8-0.5-1.1-0.8c-0.3-0.4-0.4-0.8-0.4-1.2l0,0v0v0l0.9-0.1c0,0.3,0.1,0.6,0.3,0.8c0.2,0.2,0.4,0.4,0.7,0.5
			c0.3,0.1,0.7,0.2,1.1,0.2c0.4,0,0.7-0.1,1-0.2c0.3-0.1,0.5-0.2,0.6-0.4c0.1-0.2,0.2-0.4,0.2-0.6c0-0.2-0.1-0.4-0.2-0.6
			s-0.4-0.3-0.7-0.4c-0.2-0.1-0.6-0.2-1.3-0.3c-0.7-0.2-1.1-0.3-1.4-0.4c-0.3-0.2-0.6-0.4-0.8-0.6c-0.2-0.3-0.3-0.5-0.3-0.9
			c0-0.3,0.1-0.7,0.3-1c0.2-0.3,0.5-0.5,0.9-0.7c0.4-0.2,0.9-0.2,1.3-0.2c0.5,0,1,0.1,1.4,0.2c0.4,0.2,0.7,0.4,1,0.7
			c0.2,0.3,0.3,0.7,0.4,1.1l-0.9,0.1c-0.1-0.4-0.2-0.7-0.5-1c-0.3-0.2-0.7-0.3-1.3-0.3c-0.6,0-1,0.1-1.3,0.3
			c-0.3,0.2-0.4,0.4-0.4,0.7c0,0.2,0.1,0.4,0.3,0.6c0.2,0.2,0.7,0.3,1.5,0.5c0.8,0.2,1.3,0.3,1.6,0.4c0.4,0.2,0.7,0.4,1,0.7
			s0.3,0.6,0.3,1C173.6,95.3,173.5,95.7,173.3,96z"/>
	</g>
	<path class="st0" d="M110.6,26.6c0-4.5-3.7-8.2-8.2-8.2H72.6c-4.5,0-8.2,3.7-8.2,8.2h3c0-2.9,2.3-5.2,5.2-5.2h29.8
		c2.9,0,5.2,2.3,5.2,5.2H110.6L110.6,26.6z M64.4,48.1c0,4.5,3.7,8.2,8.2,8.2h29.8c4.5,0,8.2-3.7,8.2-8.2h-3c0,2.9-2.3,5.2-5.2,5.2
		H72.6c-2.9,0-5.2-2.3-5.2-5.2H64.4L64.4,48.1z"/>
	<path class="st0" d="M38,26.8V12.7l98.6,0l0,13.7h3V9.7H34.9v17.1H38L38,26.8z M38,46.4v15.8l98.6,0l0-15.3h3v18.3H34.9V46.4H38
		L38,46.4z M181.6,10.8c0-3,2.2-5.2,5.1-5.2c2.8,0,5.1,2.2,5.1,5.2c0,3-2.2,5.2-5.1,5.2C183.9,16,181.6,13.8,181.6,10.8z M186.7,17
		c3.4,0,6.3-2.7,6.3-6.3c0-3.6-2.9-6.3-6.3-6.3c-3.5,0-6.4,2.7-6.4,6.3C180.4,14.4,183.3,17,186.7,17z M185.4,11.3h1.3l1.9,3.1h1.2
		l-2.1-3.2c1.1-0.1,1.9-0.7,1.9-2c0-1.4-0.8-2.1-2.6-2.1h-2.8v7.2h1.1L185.4,11.3L185.4,11.3L185.4,11.3z M185.4,10.3V8.1h1.5
		c0.8,0,1.6,0.2,1.6,1.1c0,1.1-0.8,1.2-1.8,1.2L185.4,10.3L185.4,10.3z M41.6,38.8l3.6-4.9l0.5,4.9H41.6z M48.7,29.8h-4.4L32.9,45.5
		h3.9l2.6-3.6H46l0.4,3.6h3.9L48.7,29.8L48.7,29.8z M66.1,45.5h-3.6l-4.1-9.4l-3,9.4h-3.6l5-15.7h3.6l4.1,9.5l3-9.5H71L66.1,45.5z
		 M76.4,38.8l3.4-4.9l0.4,4.9H76.4z M83.1,29.8h-4.2L68.1,45.5h3.7l2.5-3.6h6.4l0.4,3.6h3.7L83.1,29.8z M103.4,29.8L92.5,45.5h-4.2
		l-1.6-15.7h3.7l1.2,11.6l8-11.6L103.4,29.8L103.4,29.8z M104.2,45.5h-3.8l5.3-15.7h3.8L104.2,45.5L104.2,45.5z M122.5,43.3
		c-0.2,0.6-0.6,1.1-1.2,1.6c-0.6,0.4-1.3,0.7-1.9,0.7h-12.1l1-3.1h10.9l1.3-4.1H112c-0.7,0-1.2-0.2-1.5-0.7c-0.3-0.4-0.4-1-0.2-1.6
		l1.3-4c0.2-0.6,0.6-1.1,1.2-1.6c0.6-0.4,1.3-0.7,1.9-0.7h12.1l-1,3.1H115l-0.7,2.3h8.5c0.7,0,1.2,0.2,1.5,0.7
		c0.3,0.4,0.4,1,0.2,1.6L122.5,43.3L122.5,43.3z M129.3,45.5h-3.8l5.3-15.7h3.8L129.3,45.5L129.3,45.5z M138.4,42.4l2.9-9.4h6.9
		l-2.9,9.4H138.4z M152,32.1c0.2-0.6,0.1-1.1-0.2-1.6c-0.3-0.4-0.8-0.7-1.4-0.7h-9.3c-0.6,0-1.2,0.2-1.8,0.7c-0.6,0.4-1,1-1.2,1.6
		l-3.5,11.2c-0.2,0.6-0.1,1.1,0.2,1.6c0.3,0.4,0.8,0.7,1.4,0.7h9.3c0.6,0,1.2-0.2,1.8-0.7s1-1,1.2-1.6L152,32.1L152,32.1z
		 M165.3,45.5h-3.5l-4-9.4l-2.9,9.4h-3.5l4.9-15.7h3.5l4.1,9.5l2.9-9.5h3.5L165.3,45.5z M33.7,29H18.1l-2.7,7.9H9.2l-1.5,4H14
		l-1.6,4.7h4.7l1.9-4.7l11.7,0.1c0.9,0,1.7-0.3,2.4-0.9c0.8-0.6,1.3-1.3,1.5-2l1.5-6.1c0.2-0.8,0.1-1.5-0.3-2.1
		C35.2,29.3,34.6,29,33.7,29L33.7,29z M30,37h-9.7l1.2-3.9l9.7-0.1L30,37z"/>
</g>
</svg>
