<?xml version="1.0" encoding="utf-8"?>
<!-- Generator: Adobe Illustrator 22.1.0, SVG Export Plug-In . SVG Version: 6.00 Build 0)  -->
<svg version="1.1" id="Layer_1" xmlns="http://www.w3.org/2000/svg" xmlns:xlink="http://www.w3.org/1999/xlink" x="0px" y="0px"
	 viewBox="0 0 57.5 57.5" style="enable-background:new 0 0 57.5 57.5;" xml:space="preserve">
<style type="text/css">
	.st0{fill:#F83B3F;}
</style>
<g>
	<path class="st0" d="M55.9,57.5l0.2,0c0.1-0.1,0.3-0.3,0.2-0.3L55.9,57.5z"/>
	<path class="st0" d="M56,56.5c0-0.1,0.2-0.2,0.2-0.2c-0.3,0.1-0.7,0.3-0.9,0.6c0.4-0.2,0.3-0.1,0.8-0.4c0.1,0,0,0.3-0.1,0.4
		c0.1-0.1,0,0.2,0.3,0C56.5,56.6,56.3,56.5,56,56.5z"/>
	<path class="st0" d="M44.1,42.8c0,0,0.1,0,0.1,0C44.2,42.7,44.2,42.7,44.1,42.8z"/>
	<path class="st0" d="M43.7,41.5C43.7,41.6,43.7,41.6,43.7,41.5C43.7,41.6,43.7,41.5,43.7,41.5z"/>
	<path class="st0" d="M48.8,47.9l0-0.2C48.7,47.7,48.8,47.8,48.8,47.9z"/>
	<path class="st0" d="M54.3,56.1c0,0,0.1,0,0.2,0C54.4,56,54.4,56,54.3,56.1C54.3,56,54.3,56.1,54.3,56.1z"/>
	<path class="st0" d="M51.3,49.7L51.3,49.7c0.1,0,0.2,0,0.2-0.1L51.3,49.7z"/>
	<path class="st0" d="M52.5,51.7c0.1-0.1,0.2-0.1,0.3-0.1c0.1-0.1,0.1-0.1,0.2-0.2C53,51.3,52.7,51.6,52.5,51.7z"/>
	<path class="st0" d="M1.1,0.9L1.1,0.9c0.1,0,0.2-0.1,0.2-0.2L1.1,0.9z"/>
	<path class="st0" d="M42.5,39.6C42.5,39.6,42.5,39.6,42.5,39.6C42.6,39.6,42.6,39.6,42.5,39.6z"/>
	<path class="st0" d="M28.3,25.8c-0.1,0.4-0.6,0.1-0.7,0.6C27.7,26.3,28.3,26.2,28.3,25.8z"/>
	<path class="st0" d="M38.7,36.4c0,0,0.1-0.1,0.1-0.2C38.8,36.3,38.8,36.4,38.7,36.4z"/>
	<path class="st0" d="M37,35.3c0-0.1,0-0.1-0.1-0.1C37,35.2,37,35.3,37,35.3C37,35.2,37.1,35.2,37,35.3z"/>
	<path class="st0" d="M35.6,33.9C35.6,33.9,35.6,34,35.6,33.9c0,0.1,0,0.1,0,0.1L35.6,33.9z"/>
	<path class="st0" d="M6.2,8.2C6,8.4,5.7,8.3,6,8.5C6.1,8.4,6.1,8.3,6.2,8.2z"/>
	<path class="st0" d="M54.3,56C54.3,56,54.3,56,54.3,56c0.1,0,0.2,0,0.2-0.1C54.4,56,54.3,56,54.3,56z"/>
	<path class="st0" d="M33.7,36.7c0.1-0.1,0.1-0.2,0.1-0.3c0,0-0.1,0-0.1,0.1L33.7,36.7z"/>
	<path class="st0" d="M11,9.3C11,9.3,11,9.3,11,9.3C11,9.3,11,9.3,11,9.4C11,9.3,11,9.3,11,9.3C11.1,9.3,11,9.3,11,9.3z"/>
	<path class="st0" d="M48.9,48C48.9,48,48.8,48,48.9,48C48.8,48,48.8,48,48.9,48L48.9,48z"/>
	<polygon class="st0" points="15.6,18.3 15.7,18.3 15.6,18.3 	"/>
	<path class="st0" d="M51.1,52.4l0,0.2C51.1,52.5,51.1,52.4,51.1,52.4z"/>
	<path class="st0" d="M51.7,53.3c0.1,0,0.1-0.1,0.1-0.1c0,0,0,0,0,0L51.7,53.3z"/>
	<path class="st0" d="M39.1,41.4C39.1,41.4,39.1,41.4,39.1,41.4C38.9,41.4,39,41.4,39.1,41.4z"/>
	<path class="st0" d="M43.4,44.3c-0.1,0-0.2,0-0.3,0C43.2,44.5,43.3,44.5,43.4,44.3z"/>
	<path class="st0" d="M34.7,37.7C34.7,37.7,34.7,37.7,34.7,37.7C34.6,37.6,34.6,37.6,34.7,37.7L34.7,37.7z"/>
	<path class="st0" d="M43,44.2c0,0.1,0.1,0.2,0.2,0.2C43.2,44.3,43.1,44.2,43,44.2z"/>
	<path class="st0" d="M55,56.8C55,56.8,55,56.8,55,56.8L55,56.8L55,56.8z"/>
	<path class="st0" d="M55,56.8L55,56.8C55.1,56.8,55,56.8,55,56.8z"/>
	<path class="st0" d="M55.2,56.8l-0.2,0C55.1,56.8,55.1,56.9,55.2,56.8z"/>
	<path class="st0" d="M53.7,55.4c0,0.1,0,0.4,0.1,0.5l0.1-0.1C53.7,55.8,54,55.2,53.7,55.4z"/>
	<path class="st0" d="M53.7,52.7l0.2,0.3c0.1-0.2,0.2-0.4,0.3-0.3C54.2,52.1,54,53.1,53.7,52.7z"/>
	<path class="st0" d="M53.3,51.5c-0.2,0-0.2,0-0.2,0.2C53.3,51.8,53.3,51.6,53.3,51.5z"/>
	<path class="st0" d="M47.6,45.7c-0.1-0.1-0.1,0.1-0.3,0.3L47.6,45.7z"/>
	<polygon class="st0" points="44.8,46.2 44.7,46.5 45,46.3 	"/>
	<polygon class="st0" points="46,43.6 46.1,43.6 45.8,43.5 	"/>
	<path class="st0" d="M35.8,34.3c0.1,0,0.5-0.3,0.3-0.4L35.8,34.3z"/>
	<path class="st0" d="M31.6,30c0.1-0.2,0.1-0.4-0.1-0.3C31.5,29.8,31.5,30,31.6,30z"/>
	<polygon class="st0" points="19.6,16.8 19.4,16.7 19.4,16.8 	"/>
	<path class="st0" d="M0.3,56.1c0.1,0.1,0.3,0.3,0.3,0.2l-0.3-0.4L0.3,56.1z"/>
	<path class="st0" d="M0.9,55.3c0.2,0.4,0.1,0.3,0.4,0.8c0,0.1-0.3,0-0.4-0.1c0.1,0.1-0.2,0,0,0.3c0.4,0.2,0.5,0,0.4-0.3
		c0.1,0,0.2,0.2,0.2,0.2C1.4,55.9,1.2,55.5,0.9,55.3z"/>
	<path class="st0" d="M15.1,44.1c0,0,0,0.1,0,0.1C15.1,44.2,15.1,44.2,15.1,44.1z"/>
	<path class="st0" d="M16.3,43.7C16.3,43.7,16.2,43.7,16.3,43.7C16.3,43.7,16.3,43.7,16.3,43.7z"/>
	<path class="st0" d="M10.2,48.8c-0.1-0.1-0.2,0-0.2,0L10.2,48.8z"/>
	<path class="st0" d="M1.8,54.3c0,0,0,0.1,0,0.2C1.8,54.4,1.8,54.4,1.8,54.3C1.8,54.3,1.8,54.3,1.8,54.3z"/>
	<path class="st0" d="M8.1,51.3L8.1,51.3c0,0.1,0,0.2,0.1,0.2L8.1,51.3z"/>
	<path class="st0" d="M6.1,52.5c0.1,0.1,0.1,0.2,0.1,0.3c0.1,0.1,0.1,0.1,0.2,0.2C6.5,53,6.3,52.7,6.1,52.5z"/>
	<path class="st0" d="M56.9,1.1L56.9,1.1c0,0.1,0.1,0.2,0.2,0.2L56.9,1.1z"/>
	<path class="st0" d="M18.2,42.5C18.2,42.5,18.2,42.5,18.2,42.5C18.2,42.6,18.2,42.6,18.2,42.5z"/>
	<path class="st0" d="M32,28.3c-0.4-0.1-0.1-0.6-0.6-0.7C31.6,27.7,31.7,28.3,32,28.3z"/>
	<path class="st0" d="M21.4,38.7c0,0,0.1,0.1,0.2,0.1C21.5,38.8,21.4,38.8,21.4,38.7z"/>
	<path class="st0" d="M22.5,37c0.1,0,0.1,0,0.1-0.1C22.6,37,22.6,37,22.5,37C22.6,37,22.6,37.1,22.5,37z"/>
	<path class="st0" d="M23.9,35.6C23.9,35.6,23.9,35.6,23.9,35.6c-0.1,0-0.1,0-0.1,0L23.9,35.6z"/>
	<path class="st0" d="M49.3,6c0.1,0.1,0.2,0.1,0.3,0.2C49.4,6,49.5,5.7,49.3,6z"/>
	<path class="st0" d="M1.8,54.3C1.8,54.3,1.8,54.3,1.8,54.3c0,0.1,0,0.2,0.1,0.2C1.9,54.4,1.8,54.3,1.8,54.3z"/>
	<path class="st0" d="M21.1,33.7c0.1,0.1,0.2,0.1,0.3,0.1c0,0,0-0.1-0.1-0.1L21.1,33.7z"/>
	<path class="st0" d="M57.3,1.5c-0.1,0.1-0.3,0-0.4-0.1l0-0.2C56.4,0.6,56,0,55.3,0l0.1,0.5l-0.3-0.2l0.2-0.2
		c-0.3-0.1-0.2,0.2-0.1,0.4c-0.1-0.1-0.3-0.2-0.4-0.2L55,1.1c-0.2-0.2-0.3-0.5-0.5-0.4C54.6,0.9,55,0.9,55,1.3
		c-0.3-0.1-0.5-0.3-0.4,0c-0.1-0.1-0.2-0.2-0.2-0.3c0,0.3-0.2,0.4,0,0.7c-0.4-0.2-0.3,0.5-0.8,0c0.1,0.1,0.2,0.6,0.1,0.7
		c-0.4-0.8-0.4,0.4-1-0.3c0.4,0.6-0.3,0.7-0.3,1.3c0-0.1-0.1-0.2,0-0.2c-0.2,0.1-0.4,0-0.6,0c0.4,0.4,0.3,0.7,0.4,1.1
		c-0.6-0.2-0.4-0.6-0.8-0.9c0.3,0.3,0,0.6,0.4,0.9c-0.4-0.1-0.2,0-0.6-0.3c0.5,0.5,0,0.2,0.2,0.6c-0.4-0.1-0.5-0.4-0.6-0.1
		C50.4,4.4,50.4,4,50.4,4c-0.2,0.2,0.3,0.5,0.5,0.8c-0.1,0.4-0.4-0.2-0.7-0.3c-0.1,0.3,0.2,0.7,0,0.9c-0.1-0.1-0.1-0.1-0.2-0.2
		c0.1,0.5-0.5,0.5-0.3,1.1c0,0-0.1,0-0.1-0.1c0.2,0.2,0.4,0.4,0.6,0.5c-0.1,0.1,0.1,0.4-0.2,0.2c0.1-0.1,0-0.2-0.1-0.3l0,0.2
		c-0.5-0.3,0-0.3-0.3-0.5c-0.1,0.3,0,0.9-0.3,0.9c-0.4-0.3,0.2-0.5-0.3-0.6l0.4-0.1c-0.7-0.4,0.2-0.1-0.6-0.5
		c-0.4,0.2-0.2,0.5-0.6,0.7C48.5,7,48.6,7,48.8,7.3c-0.1,0.8-1.2-0.6-1.1,0.2c0.2,0.3,0.6,0.8,0.1,0.8l-0.3-0.5
		c-0.3,0.3,0.4,0.8-0.2,0.8c-0.1-0.2,0.1-0.4,0-0.4c-0.5-0.1,0.1,0.4-0.1,0.5l-0.4-0.3c-0.3,0.4-0.3,1-0.6,1.4
		c-0.1-0.1-0.1-0.3-0.3-0.3c-0.3,0.6-1,0.9-1.6,1.1l0.1,0.5c0,0-0.2-0.1-0.2-0.2c-0.3,0,0.2,0.2,0.2,0.4c-0.1,0.1-0.3-0.1-0.3-0.2
		c0,0.6-0.3,1.4-0.9,1.4l0-0.2c-0.4,0.1,0.4,0.9-0.1,0.8l0-0.1c-0.7,0.4-1,1.3-1.8,1.2c0.4,0.5-0.7,0.3-0.1,1c-0.6,0-0.6-0.2-1.3,0
		c-0.1,0.1,0.2,0.6,0.1,0.8l-0.3-0.3l0.2,0.5l-0.5-0.3l0,0.2c0.1,0,0.3,0,0.3,0.1c-0.1,0.4-0.7,0.3-0.9,0.1l-0.2,0.8
		c-0.1-0.1-0.1-0.3-0.1-0.4c0.1,0.6-0.4-0.3-0.3,0.2c0.1,0,0.2,0.2,0.2,0.3c-0.3-0.1-0.6,0.2-0.7,0.5l-0.2-0.3
		c-0.4,0.3-0.6,0.9-1,1.3c0.2,0,0.6,0.4,0.5,0.5L36.4,19c0.1,0.3,0.3,0,0.4,0.4c-0.2,0.1-0.5-0.3-0.5-0.5l-0.1,0.3
		c-0.1-0.1-0.1-0.2-0.2-0.3c0.1,0.3-0.7,0-0.4,0.4l-0.1-0.1c-0.4,0.4-0.5,0.7-0.8,1c0.3,0.3,0.1,0.4,0.2,0.7
		c-0.3,0.1-0.8,0.2-1.1,0.5c-0.1,0.4,0.2,0.3,0.3,0.6c-0.3-0.3-0.5,0.1-0.6-0.3c-0.3,0.4-0.4,0.5-0.6,1.2c0.2,0.1,0.3,0.1,0.3,0.2
		c0,0.1-0.3,0.1-0.4-0.1l0,0c-0.1,0.9-1.9,0.3-1.8,1.3l0,0l-0.1,0.7c-0.2,0.1-0.1-0.3-0.4-0.3c0,0.9-0.8,0.6-0.8,1.3
		c-0.6-0.3-0.8,0-1,0.4c-0.1-0.1-0.1-0.1-0.2-0.2c-0.5,0.8-0.2-0.1-0.8,0.6c-0.1-0.1-0.2-0.1-0.2-0.2c0,0,0,0,0,0c0,0,0,0,0,0l0-0.7
		c0.1-0.3,0.3,0,0.4-0.2c-0.2-0.3,0.2-0.4,0.2-0.7c-0.2,0.3-0.4,0.2-0.5,0l-0.1,0.5c-0.7,0,0.2-0.8-0.5-0.9l0.3-0.1
		c-0.3-0.1-0.7-0.7-1.4-0.3c0-0.1,0.2-0.3,0.3-0.3c-0.4-0.5-1.5-0.4-1.5-1.1l0.2-0.1c-0.1,0-0.4,0.2-0.4-0.1
		c0.1-0.1,0.2-0.1,0.2-0.2c-0.1,0-0.5,0.1-0.5-0.1l0.3-0.1c-0.2-0.6-1.1-0.2-1.5-0.5c0.5-0.5,0.3-0.9,0.2-1.2l0.1-0.1
		c-0.4-0.5-1.2-0.4-1.9-0.7c0.2-0.8-0.7-1.2-0.9-1.9c0,0.2-0.4,0.4-0.5,0.3c0-0.2-0.6,0-0.2-0.4l0,0c0.3-0.5,0-0.6-0.1-0.8l-0.6,0.5
		c0.4-1.3-1.5-0.9-1-1.8c-0.2,0-0.4-0.1-0.6-0.1l0.3-0.3c-0.2-0.4-0.3-0.6-0.8-0.9l0.3-0.1c-0.2-0.2-1.1,0.6-1.3,0.4l0.4-0.5
		c-0.4-0.4-0.3-1.1-1.1-1.1c0.1-0.1,0.2-0.2,0.3-0.1c-0.2-0.2-0.4-1-0.9-0.3c0.4-0.4-0.3-0.4-0.7-0.4l0.3-0.3
		c-0.5,0.2-0.7,0.3-1,0.2c0-0.1,0.2-0.3,0.2-0.1c0-0.3-0.4,0.1-0.5-0.2l0.3-0.1c-0.2-0.2-0.3-0.1-0.6,0c-0.2,0-0.3-0.4,0-0.7
		c-0.2,0.1-0.5,0.3-0.5,0.1c0.1-0.1,0.2-0.1,0.2-0.1c-0.1-0.5-0.8-0.1-0.7-0.6c0.1-0.1,0.1-0.2,0.1-0.2c0.2,0.3,0.4,0.5,0.4,0.5
		c0.3-0.3,0.1-0.5,0.7-0.7c-0.4,0-1.1,0.2-1.2-0.1c0,0,0-0.1,0.1-0.1l0.1,0c0-0.1-0.1-0.1-0.2-0.1c0-0.1,0-0.2-0.1-0.2
		c0.2-0.2-0.1-0.4-0.2-0.5C11.1,9,11,8.9,10.9,9.2c0,0,0.1,0,0.1,0c0,0,0,0,0.1,0c0,0,0,0,0,0c0.1,0.1,0.2,0.1,0.3,0.2
		c-0.2,0.1-0.4,0.1-0.4-0.2c-0.2,0.1-0.5,0.3-0.6,0.3c0.3-0.6,0.2-1,0.5-1.3C10.3,8.2,10,7.8,9.2,8.1C9,8.1,9.3,7.9,9.3,7.7
		c0.1,0,0.2,0.1,0.3,0c-0.3,0-0.6-0.5-1-0.1c0-0.4,0.5-0.2,0.1-0.5l0.2-0.1c0-1.2-2,0-1.8-1.4C7,5.7,7,5.8,7,5.9
		C6.6,4.8,5.1,4.7,4.9,3.3C4.8,3,4.5,3.3,4.2,3.3l0.3-0.4L3.9,3.1c-0.6,0,0.2-1.3-0.7-1.2L3.1,2.2C3,2,2.5,1.8,2.8,1.6
		c-0.1,0-0.3,0.2-0.2,0l0.2-0.2L2.1,1.4C1.9,1,2.8,0.8,2.4,0.3c-0.2-0.1-0.9,0.1-1,0.2c0.1,0.1,0,0.3-0.1,0.4L1.1,1
		C0.6,1.4,0,1.8,0,2.5l0.5-0.1L0.4,2.7L0.2,2.6C0,2.9,0.3,2.8,0.5,2.7C0.4,2.9,0.4,3,0.4,3.1l0.7-0.2C0.9,3,0.6,3.1,0.6,3.4
		c0.3-0.1,0.3-0.5,0.7-0.5c-0.1,0.3-0.3,0.5,0,0.4C1.1,3.4,1,3.5,0.9,3.5c0.3,0,0.4,0.2,0.7,0c-0.2,0.4,0.5,0.3,0,0.8
		c0.1-0.1,0.6-0.2,0.7-0.1C1.5,4.6,2.7,4.6,2,5.2c0.6-0.4,0.7,0.3,1.3,0.3c-0.1,0-0.2,0.1-0.2,0c0.1,0.2,0,0.4,0,0.6
		c0.4-0.4,0.7-0.3,1.1-0.4C4,6.2,3.6,6,3.3,6.5c0.3-0.3,0.6,0,0.9-0.4C4,6.5,4.2,6.3,3.9,6.7c0.5-0.5,0.2,0,0.6-0.2
		C4.5,7,4.1,7.1,4.4,7.1C4.4,7.4,4,7.4,4,7.4c0.2,0.2,0.5-0.3,0.8-0.5c0.4,0.1-0.2,0.4-0.3,0.7c0.3,0.1,0.7-0.2,0.9,0
		C5.3,7.7,5.3,7.7,5.2,7.8c0.5-0.1,0.5,0.5,1.1,0.3c0,0,0,0.1-0.1,0.1C6.4,8,6.6,7.7,6.7,7.6c0.1,0.1,0.4-0.1,0.2,0.2
		c-0.1-0.1-0.2,0-0.3,0.1l0.2,0c-0.3,0.5-0.3,0-0.5,0.3c0.3,0.1,0.9,0,0.9,0.3C6.9,8.8,6.8,8.2,6.6,8.7L6.5,8.3
		C6.2,9.1,6.4,8.2,6,8.9c0.2,0.4,0.5,0.2,0.7,0.6C7,9.4,7,9.2,7.3,9.1c0.8,0.1-0.6,1.2,0.2,1.1C7.8,10,8.3,9.6,8.3,10l-0.5,0.3
		c0.3,0.3,0.8-0.4,0.8,0.2c-0.2,0.1-0.4-0.1-0.4,0c-0.1,0.5,0.4-0.1,0.5,0.1L8.4,11c0.4,0.3,1,0.3,1.4,0.6c-0.1,0.1-0.3,0.1-0.3,0.3
		c0.6,0.3,0.9,1,1.1,1.6l0.5-0.1c0,0-0.1,0.2-0.2,0.2c0,0.3,0.2-0.2,0.4-0.2c0.1,0.1-0.1,0.3-0.2,0.3c0.6,0,1.4,0.3,1.4,0.9l-0.2,0
		c0.1,0.4,0.9-0.4,0.8,0.1l-0.1,0c0.4,0.7,1.3,1,1.2,1.8c0.5-0.4,0.3,0.7,1,0.1c0,0.6-0.2,0.6,0,1.3c0.1,0.1,0.6-0.2,0.8-0.1
		l-0.3,0.3l0.5-0.2l-0.3,0.5l0.2,0c0-0.1,0-0.3,0.1-0.3c0.4,0.1,0.3,0.7,0.1,0.9l0.8,0.2c-0.1,0.1-0.3,0.1-0.4,0.1
		c0.6-0.1-0.3,0.4,0.2,0.3c0-0.1,0.2-0.2,0.3-0.2c-0.1,0.3,0.2,0.6,0.5,0.7l-0.3,0.2c0.3,0.4,0.9,0.6,1.3,1c0-0.2,0.4-0.6,0.5-0.5
		L19,21.4c0.3-0.1,0-0.3,0.4-0.4c0.1,0.2-0.3,0.5-0.5,0.5l0.3,0.1c-0.1,0.1-0.2,0.1-0.3,0.2c0.3-0.1,0,0.7,0.4,0.4l-0.1,0.1
		c0.4,0.4,0.7,0.5,1,0.8c0.3-0.3,0.4-0.1,0.7-0.2c0.1,0.3,0.2,0.8,0.5,1.1c0.4,0.1,0.3-0.2,0.6-0.3c-0.3,0.3,0.1,0.5-0.3,0.6
		c0.4,0.3,0.5,0.4,1.2,0.6c0.1-0.2,0.1-0.3,0.2-0.3c0.1,0,0.1,0.3-0.1,0.4l0,0c0.9,0.1,0.3,1.9,1.3,1.8l0,0l0.7,0.1
		c0.1,0.2-0.3,0.1-0.3,0.4c0.9,0,0.6,0.8,1.3,0.8c-0.2,0.4-0.1,0.6,0,0.7c-0.3,0.1-0.6,0.3-0.8,0.5c-0.4,0.3,0.8,1.2,0,1.1l-0.2-0.5
		c-0.2,1-1.3,1.3-1.5,2.2c0-0.1-0.1-0.2-0.1-0.3c-0.4-0.1-0.5,0.5-0.3,0.7c-0.1,0.1-0.2-0.2-0.4-0.2c-0.3,0,0,0.7-0.3,0.5
		c-0.1,0,0-0.1,0-0.2c0,0.2-0.4,0.4-0.1,0.6c-0.4,0.1-0.3,0.6-0.7,0.6c0.2,0.4-0.6,0.2-0.1,0.7c-0.5-0.5-0.8,0-0.7,0.4
		c-0.1-0.2-0.3,0-0.4-0.3c-0.2,0.2-0.2,0.4,0.1,0.6c-0.9-0.3-0.2,1.1-1.1,0.5c-0.2,0.7-0.5,1.4-0.8,1.9c-0.5-0.5,0.4-0.5-0.1-1
		c-0.2,0.6-0.1,1.3-0.6,1.6c-0.2,0-0.1-0.3-0.2-0.4c-0.2,0.6-0.9,0.8-1,1.4c0,0-0.1-0.1-0.1-0.2c-0.1,0.1-0.2,0.1,0,0.3l0-0.1
		c0.4,0.2,0.4,1,0.5,1.1c-0.5-0.7-0.5,0.2-1.1-0.8c0,0.1,0,0.3,0.2,0.4c-0.1,0-0.2,0-0.3-0.3c-0.1,0.4,0.2,0.5-0.1,0.8
		c-0.1-0.1-0.1-0.2-0.2-0.3c0.1,0.3,0.2,0.7-0.1,0.8c-0.1-0.1-0.2-0.1-0.1-0.2c-0.3,0.4,0,1.1-0.6,1.3c-0.3-0.6-0.3,0-0.7-0.4
		L13.8,42l0.3,0.1c-0.2,0.2-0.1,0.6-0.3,0.6l0-0.3l-0.3,0.4l0.3,0c0,0.4,0.5,0.5,0.2,0.6c0-0.1-0.2,0.2-0.5,0c0,0,0,0,0,0
		c0,0.2,0.1,0.4-0.2,0.5c-0.2-0.1-0.4-0.5-0.5-0.5c0.2,0.4-0.3,0.5-0.1,1c0-0.1-0.3-0.3-0.3-0.4l0.2,0.3c-0.2,0-0.2,0-0.4-0.2
		c-0.3,0.2,0.6,0.4,0.1,0.5c0,0-0.1-0.1,0-0.2c-0.4,0.2-0.4,0.7-0.8,0.9C11,45,11.6,45,11.2,44.8c-0.3,0.5-0.3,1.3-0.8,1.6l0.1,0
		c0.5,0.6-0.6,0-0.5,0.5c0-0.1-0.3-0.4-0.2-0.3c-0.4,0.2-0.4,0.7-0.6,1.2l-0.1-0.2c-0.3,0-0.5,0.3-0.7,0.4c0.1,0.2,0,0.3,0.2,0.4
		c-1.3-0.3-0.5,1.4-1.7,1.2c0.1-0.1,0-0.3,0-0.2l-0.3,0.5c0.3,0.2,0.2,0.1,0.5,0.2c0.1,0.2,0.1,0.4,0,0.5c0-0.3-0.4-0.4-0.6-0.5
		c0.1,0.1,0.1,0.2,0.2,0.2c-0.6-0.2,0.5,0.5-0.1,0.5l-0.1-0.1c0,0.2,0,0.4-0.1,0.5c-0.3-0.2,0-0.2-0.2-0.5C6,51,6.4,51.6,6,51.5
		c0-0.1,0.1-0.2,0.1-0.4c-0.5-0.2-0.4-0.1-0.6,0l0,0L5,51.2l0.2,0c0.5,0.9-0.3,0.5,0,1.3c-0.2-0.7-0.2-0.3-0.5-0.6
		c-0.2,0-0.4,0-0.4-0.1c0.1,0.4-0.4,0-0.2,0.6c-0.1-0.1-0.1,0.1-0.4-0.2c-0.1,0.2,0.2,0.1,0.3,0.3c0.1,0.6-1,0.2-0.9,1
		c-0.1,0.5,0.2,0.9,0.1,1.4c-0.3-0.1-0.3-0.5-0.3-0.5c-0.3,0-0.4,0.2-0.4,0.4c-0.1-0.1-0.2-0.2-0.3-0.2C2,54.7,2.4,55,2.1,55
		c-0.1-0.1-0.2-0.4-0.3-0.5c0,0.2,0,0.6,0,0.8c-0.2-0.1-0.2-0.4-0.3-0.5c-0.1,0.2-0.3,0.6,0,0.9l0.2,0c0,0.1-0.3-0.2-0.3-0.3
		c-0.1-0.4,0.3-0.1,0.4,0l0,0.2C2.5,56,2.1,55,2.3,54.8l0.4,0.5l-0.2-0.6C2.7,54.8,3,55,2.9,55.2c0.4,0.1,0-0.3,0.3-0.2
		c0.1,0,0.1,0.1,0.1,0.1l0-0.3c0.1,0.1,0.3,0.3,0.2,0.3c0.5,0,0.1-0.8,0.5-0.5l0,0c0.2-0.5-0.3-0.4-0.4-1l1,0.6l-0.3-0.4
		c0,0,0.1-0.1,0.3,0.1c-0.1-0.4-0.2-0.1-0.3-0.4c0.5,0.1,0.4-0.6,0.9-0.2c-0.2-0.3-0.4,0-0.3-0.4c0.6,0.5,0.1-0.3,0.5-0.2
		c0.2,0.3-0.1,0.3,0.3,0.4c-0.4-0.6,0.4-0.2,0.5-0.4c-0.4-0.4,0.1-0.5,0.2-0.8c0.1,0.1,0.6-0.2,1-0.3l0.1,0.1
		c-0.3-0.4-0.1-0.6,0-0.8c0.2,0.2,0.3,0.4,0.3,0.6l0.2-0.2C8,51.2,7.9,51.1,8,50.9l0.3,0.3c0.2-0.2,0.1-0.8,0.5-0.8
		c-0.3-0.3-1-0.5-0.9-1c0.2,0.1,0.4,0.4,0.4,0.5c0,0,0-0.2,0.1-0.2l0.1,0.4c0.2,0-0.1-0.3,0-0.3C8.7,50,8.7,49.8,8.9,50
		c0,0-0.2,0-0.1,0.1c0.1-0.1,0.4-0.1,0.6,0c-0.1-0.1-0.3-0.3-0.2-0.4C9.3,49.6,9.4,50,9.7,50c-0.1-0.2,0.2-0.2-0.1-0.5
		c0.1-0.1,0.2,0.1,0.3,0.1c0-0.2,0.5-0.5,0-0.7l0,0c0,0,0,0,0,0c0-0.7,0.9-0.5,1.1-1l0.1,0.1c0.1-0.3,0.4-0.5,0.3-0.9
		c0.1-0.1,0.3,0,0.4,0.2c0.1-0.2,0-0.4,0.4-0.4c0,0.3,0.2,0.1,0,0.3c0.3-0.1,0.5,0,0.4-0.5c0.2,0.3,0.5,0.2,0.5,0l-0.3,0
		c0.1-0.1,0.2-0.2,0.3-0.3l0.3,0.4c0.8,0,0-1.5,1.1-1.1c-0.1-0.4-0.4,0.1-0.6-0.3c0.2-0.1,0.9,0.2,1,0.1c0.5-0.1-0.3-0.8,0.1-0.9
		c-0.2-0.1-0.5-0.4-0.4-0.7c0.2-0.1,0.8,0.3,0.7,0.5c0,0.1-0.1,0-0.1,0c0,0.1,0,0.2,0.2,0.3l-0.1-0.2c0.2,0,0.5-0.2,0.6,0
		c0-0.3-0.1-0.3-0.3-0.2c0.4-0.1,0.4-0.4,0.8-0.5c-0.1,0-0.3-0.1-0.3-0.2c0.5-0.2-0.1-0.4,0.1-0.7c0.3,0,0.4,0.5,0.5,0.1
		c0.3,0,0.4,0.3,0.4,0.5c0-0.5,0.6-0.3,0.8-0.4l0,0.2c0-0.1,0.1-0.2,0.1-0.2l-0.3-0.2c0.1,0,0.2-0.1,0.3,0c-0.1-0.2-0.5-0.4-0.6-0.7
		c0.2,0,0.2-0.4,0.5-0.1c-0.4,0.2,0.4,0.3,0.2,0.6c0-0.1,0.1-0.1,0.2-0.2c0,0,0.1,0.1,0.1,0.1c0.6,0-0.2-0.5,0.1-0.8
		c0.2,0.2,0.4,0.3,0.4,0.2c-0.1,0.1-0.4-0.3-0.4-0.5c0.3,0,0.1-0.3,0.2-0.4l-0.2,0c-0.1-0.2,0-0.3,0-0.5c0.2,0.1,0,0.2,0.1,0.2
		c-0.2-0.5,0.7,0,0.7-0.4c0.2,0,0.4,0.3,0.5,0.3c0-0.5,0.5,0,0.5-0.4c-0.3-0.2-0.3-0.1-0.3-0.5l-0.2,0.6l-0.1-0.6
		c-0.1,0.1-0.1,0.4-0.2,0.4c-0.1-0.3,0-0.3-0.3-0.4c0.5,0.2,0.1-0.5,0.5-0.5l0.6,0.6c0.6,0,0.2-0.8,0.7-1l-0.2,0
		c-0.2-0.3,0.2-0.3,0.2-0.5c0.2,0.2,0.3,0.2,0.5,0.3c-0.2-0.1,0.3-0.3-0.1-0.7l0.4,0.1c0.4-0.2-0.3-0.9,0.1-1.2
		c0.1,0.3,0.4,0.3,0.4,0.7c0.1-0.1,0.2-0.1,0.1-0.3c0.2,0.1,0-0.5,0.3-0.4c-0.1-0.1-0.3-0.4-0.1-0.5c0.1,0,0.1,0.1,0.1,0.1
		c-0.1-0.1,0-0.3-0.3-0.4c0.9,0.4,0.8-0.9,1.6-0.6c0.1-0.3,0.3-0.6,0.5-0.8c0.1,0.1,0.1,0.1,0,0.1c0.5-0.1-0.4-0.8,0.1-0.8
		c0.5,0.2,0,0.3,0.2,0.4c0.7,0.6,0.3-0.5,0.9-0.3l0,0.1c0.4,0.1,0.1-0.6,0.4-0.8c0,0,0,0.1,0.1,0.1c-0.2-0.5,0-1,0.2-1.3
		c0.2,0.3,0,0.3,0.4,0.5c0.1-0.1-0.5-0.4-0.3-0.7c0.2,0.1,0.5,0.1,0.8,0.3l-0.2,0.2c0.5,0.3,0.2-0.3,0.4-0.3l0.2,0.2
		c0.3-0.4-0.2-0.8,0.2-1.1l-0.2-0.1c-0.2-0.6,0.4,0.1,0.3-0.4l0.5,0.4c0-0.1,0-0.2,0-0.3c0.4,0.6,0.7,1.3,1.1,1.9
		c0.3,0.4,1.2-0.8,1.1,0L29.9,33c1,0.2,1.3,1.3,2.2,1.5c-0.1,0-0.2,0.1-0.3,0.1c-0.1,0.4,0.5,0.5,0.7,0.3c0.1,0.1-0.2,0.2-0.2,0.4
		c0,0.3,0.7,0,0.5,0.3c0,0.1-0.1,0-0.2,0c0.2,0,0.4,0.4,0.6,0.1c0.1,0.4,0.6,0.3,0.6,0.7c0.4-0.2,0.2,0.6,0.7,0.1
		c-0.5,0.5,0,0.8,0.4,0.7c-0.2,0.1,0,0.3-0.3,0.4c0.2,0.2,0.4,0.2,0.6-0.1c-0.3,0.9,1.1,0.2,0.5,1.1c0.7,0.2,1.4,0.5,1.9,0.8
		c-0.5,0.5-0.5-0.4-1,0.1c0.6,0.2,1.3,0.1,1.6,0.6c0,0.2-0.3,0.1-0.4,0.2c0.6,0.2,0.8,0.9,1.4,1c0,0-0.1,0.1-0.2,0.1
		c0.1,0.1,0.1,0.2,0.3,0l-0.1,0c0.2-0.4,1-0.4,1.1-0.5c-0.7,0.5,0.2,0.5-0.8,1.1c0.1,0,0.3,0,0.4-0.2c0,0.1,0,0.2-0.3,0.3
		c0.4,0.1,0.5-0.2,0.8,0.1c-0.1,0.1-0.2,0.1-0.3,0.2c0.3-0.1,0.7-0.2,0.8,0.1c-0.1,0.1-0.1,0.2-0.2,0.1c0.4,0.3,1.1,0,1.3,0.6
		c-0.6,0.3,0,0.3-0.4,0.7L42,44l0.1-0.3c0.2,0.2,0.6,0.1,0.6,0.3l-0.3,0l0.4,0.3l0-0.3c0.4,0,0.5-0.5,0.6-0.2c-0.1,0,0.2,0.2,0,0.5
		c0,0,0,0,0,0c0.2,0,0.4-0.1,0.5,0.2c-0.1,0.2-0.5,0.4-0.5,0.5c0.4-0.2,0.5,0.3,1,0.1c-0.1,0-0.3,0.3-0.4,0.3l0.3-0.2
		c0,0.2,0,0.2-0.2,0.4c0.2,0.3,0.4-0.6,0.5-0.1c0,0-0.1,0-0.2,0c0.2,0.4,0.7,0.4,0.9,0.8c-0.3,0.5-0.3-0.1-0.6,0.3
		c0.5,0.3,1.3,0.3,1.6,0.8l0-0.1c0.6-0.5,0,0.6,0.5,0.5c-0.1,0-0.4,0.3-0.3,0.2c0.2,0.4,0.7,0.4,1.2,0.6l-0.2,0.1
		c0,0.3,0.3,0.5,0.4,0.7c0.2-0.1,0.3,0,0.4-0.2c-0.3,1.3,1.4,0.5,1.2,1.7c-0.1-0.1-0.3,0-0.2,0l0.5,0.3c0.2-0.3,0.1-0.2,0.2-0.5
		c0.2-0.1,0.4-0.1,0.5,0c-0.3,0-0.4,0.4-0.5,0.6c0.1-0.1,0.2-0.1,0.2-0.2c-0.2,0.6,0.5-0.5,0.5,0.1l-0.1,0.1c0.2,0,0.4,0,0.5,0.1
		c-0.2,0.3-0.2,0-0.5,0.2c0.2,0.1,0.8-0.2,0.7,0.2c-0.1,0-0.2-0.1-0.4-0.1c-0.2,0.5-0.1,0.4,0,0.6l0,0l0.1,0.4l0-0.2
		c0.9-0.5,0.5,0.3,1.3,0c-0.7,0.2-0.3,0.2-0.6,0.5c0,0.2,0,0.4-0.1,0.4c0.4-0.1,0,0.4,0.6,0.2c-0.1,0.1,0.1,0.1-0.2,0.4
		c0.2,0.1,0.1-0.2,0.3-0.3c0.6-0.1,0.2,1,1,0.9c0.5,0.1,0.9-0.2,1.4-0.1C54.7,55,54.3,55,54.3,55c0,0.3,0.2,0.4,0.4,0.4
		c-0.1,0.1-0.2,0.2-0.2,0.3c0.1,0.1,0.5-0.3,0.5,0c-0.1,0.1-0.4,0.2-0.5,0.3c0.2,0,0.6,0,0.8,0c-0.1,0.2-0.4,0.2-0.5,0.3
		c0.2,0.1,0.6,0.3,0.9,0l0-0.2c0.1,0-0.2,0.3-0.3,0.3c-0.4,0.1-0.1-0.3,0-0.4l0.2,0c0.5-0.7-0.5-0.3-0.7-0.6l0.5-0.4l-0.6,0.2
		c0.1-0.2,0.3-0.4,0.5-0.4c0.1-0.4-0.3,0-0.2-0.3c0-0.1,0.1-0.1,0.1-0.1l-0.3,0c0.1-0.1,0.3-0.3,0.3-0.2c0-0.5-0.8-0.1-0.5-0.5l0,0
		c-0.5-0.2-0.4,0.3-1,0.4l0.6-1l-0.4,0.3c0,0-0.1-0.1,0.1-0.3c-0.4,0.1-0.1,0.2-0.4,0.3c0.1-0.5-0.6-0.4-0.2-0.9
		c-0.3,0.2,0,0.4-0.4,0.3c0.5-0.6-0.3-0.1-0.2-0.5c0.3-0.2,0.3,0.1,0.4-0.3c-0.6,0.4-0.2-0.4-0.4-0.5c-0.4,0.4-0.5-0.1-0.8-0.2
		c0.1-0.1-0.2-0.6-0.3-1l0.1-0.1c-0.4,0.3-0.6,0.1-0.8,0c0.2-0.2,0.4-0.3,0.6-0.3l-0.2-0.2c-0.2,0.1-0.3,0.1-0.4,0.1l0.3-0.3
		c-0.2-0.2-0.8-0.1-0.8-0.5c-0.3,0.3-0.5,1-1,0.9c0.1-0.2,0.4-0.4,0.5-0.4c0,0-0.2,0-0.2-0.1l0.4-0.1c0-0.2-0.3,0.1-0.3,0
		c0.2-0.2,0.1-0.2,0.3-0.4c0,0,0,0.2,0.1,0.1c-0.1-0.1-0.1-0.4,0-0.6c-0.1,0.1-0.3,0.3-0.4,0.2c-0.2-0.2,0.2-0.3,0.2-0.5
		c-0.2,0.1-0.2-0.2-0.5,0.1c-0.1-0.1,0.1-0.2,0.1-0.3c-0.2,0-0.5-0.5-0.7,0l0,0c0,0,0,0,0,0c-0.7,0-0.5-0.9-1-1.1l0.1-0.1
		c-0.3-0.1-0.5-0.4-0.9-0.3c-0.1-0.1,0-0.3,0.2-0.4c-0.2-0.1-0.4,0-0.4-0.4c0.3,0,0.1-0.2,0.3,0c-0.1-0.3,0-0.5-0.5-0.4
		c0.3-0.2,0.2-0.5,0-0.5l0,0.3c-0.1-0.1-0.2-0.2-0.3-0.3l0.4-0.3c0-0.8-1.5,0-1.1-1.1c-0.4,0.1,0.1,0.4-0.3,0.6
		c-0.1-0.2,0.2-0.9,0.1-1c-0.1-0.5-0.8,0.3-0.9-0.1c-0.1,0.2-0.4,0.5-0.7,0.4c-0.1-0.2,0.3-0.8,0.5-0.7c0.1,0,0,0.1,0,0.1
		c0.1,0,0.2,0,0.3-0.2l-0.2,0.1c0-0.2-0.2-0.5,0-0.6c-0.3,0-0.3,0.1-0.2,0.3c-0.1-0.4-0.4-0.4-0.5-0.8c0,0.1-0.1,0.3-0.2,0.3
		c-0.2-0.5-0.4,0.1-0.7-0.1c0-0.3,0.5-0.4,0.1-0.5c0-0.3,0.3-0.4,0.5-0.4c-0.5,0-0.3-0.6-0.4-0.8l0.2,0c-0.1,0-0.2-0.1-0.2-0.1
		l-0.2,0.3c0-0.1-0.1-0.2,0-0.3c-0.2,0.1-0.4,0.5-0.7,0.6c0-0.2-0.4-0.2-0.1-0.5c0.2,0.4,0.3-0.4,0.6-0.2c-0.1,0-0.1-0.1-0.2-0.2
		c0,0,0.1-0.1,0.1-0.1c0-0.6-0.5,0.2-0.8-0.1c0.2-0.2,0.3-0.4,0.2-0.4c0.1,0.1-0.3,0.4-0.5,0.4c0-0.3-0.3-0.1-0.4-0.2l0,0.2
		c-0.2,0.1-0.3,0-0.5,0c0.1-0.2,0.2,0,0.2-0.1c-0.5,0.2,0-0.7-0.4-0.7c0-0.2,0.3-0.4,0.3-0.5c-0.5,0,0-0.5-0.4-0.5
		c-0.2,0.3-0.1,0.3-0.5,0.3l0.6,0.2l-0.6,0.1c0.1,0.1,0.4,0.1,0.4,0.2c-0.3,0.1-0.3,0-0.4,0.3c0.2-0.5-0.5-0.1-0.5-0.5l0.6-0.6
		c0-0.6-0.8-0.2-1-0.7l0,0.2c-0.3,0.2-0.3-0.2-0.5-0.2c0.2-0.2,0.2-0.3,0.3-0.5c-0.1,0.2-0.3-0.3-0.7,0.1l0.1-0.4
		C38,35.7,37.2,36.4,37,36c0.3-0.1,0.3-0.4,0.7-0.4c-0.1-0.1-0.1-0.2-0.3-0.1c0.1-0.2-0.5,0-0.4-0.3c-0.1,0.1-0.4,0.3-0.5,0.1
		c0-0.1,0.1-0.1,0.1-0.1c-0.1,0.1-0.3,0-0.4,0.3c0.4-0.9-0.9-0.8-0.6-1.6c-0.3-0.1-0.6-0.3-0.8-0.5c0.1-0.1,0.1-0.1,0.1,0
		c-0.1-0.5-0.8,0.4-0.8-0.1c0.2-0.5,0.3,0,0.4-0.2c0.6-0.7-0.5-0.3-0.3-0.9l0.1,0c0.1-0.4-0.6-0.1-0.8-0.4c0,0,0.1,0,0.1-0.1
		c-0.5,0.2-1,0-1.3-0.2c0.3-0.2,0.3,0,0.5-0.4c-0.1-0.1-0.4,0.5-0.7,0.3c0.1-0.2,0.1-0.5,0.3-0.8l0.2,0.2c0.3-0.5-0.3-0.2-0.3-0.4
		l0.2-0.2c-0.4-0.3-0.8,0.2-1.1-0.2l-0.1,0.2c-0.6,0.2,0.1-0.4-0.4-0.3l0.4-0.5c-0.1,0-0.5,0-0.7-0.1c0-0.1,0.1-0.1,0.2-0.2
		c0.2,0,0.4,0,0.6,0c-0.1-0.1-0.2-0.2-0.3-0.2c0.3-0.2,0.6-0.3,0.8-0.6c-0.8-0.5,0.1-0.2-0.6-0.8c0.1-0.1,0.1-0.2,0.2-0.2
		c0,0,0,0,0,0c0,0,0,0,0,0l0.7,0c0.3,0.1,0,0.3,0.2,0.4c0.3-0.2,0.4,0.2,0.7,0.2c-0.3-0.2-0.2-0.4,0-0.5l-0.5-0.1
		c0-0.7,0.8,0.2,0.9-0.5l0.1,0.3c0.1-0.3,0.7-0.7,0.3-1.4c0.1,0,0.3,0.2,0.3,0.3c0.5-0.4,0.4-1.5,1.1-1.5l0.1,0.2
		c0-0.1-0.2-0.4,0.1-0.4c0.1,0.1,0.1,0.2,0.2,0.2c0-0.1-0.1-0.5,0.1-0.5l0.1,0.3c0.6-0.2,0.2-1.1,0.5-1.5c0.5,0.5,0.9,0.3,1.2,0.2
		l0.1,0.1c0.5-0.4,0.4-1.2,0.7-1.9c0.8,0.2,1.2-0.7,1.9-0.9c-0.2,0-0.4-0.4-0.3-0.5c0.2,0,0-0.6,0.4-0.2l0,0c0.5,0.3,0.6,0,0.8-0.1
		l-0.5-0.6c1.3,0.4,0.9-1.5,1.8-1c0-0.2,0.1-0.4,0.1-0.6l0.3,0.3c0.4-0.2,0.6-0.3,0.9-0.8l0.1,0.3c0.2-0.2-0.6-1.1-0.4-1.3l0.5,0.4
		c0.4-0.4,1.1-0.3,1.1-1.1c0.1,0.1,0.2,0.2,0.1,0.3c0.2-0.2,1-0.4,0.3-0.9c0.4,0.4,0.4-0.3,0.4-0.7l0.3,0.3c-0.2-0.5-0.3-0.7-0.2-1
		c0.1,0,0.3,0.2,0.1,0.2c0.3,0-0.1-0.4,0.2-0.5l0.1,0.3c0.2-0.2,0.1-0.3,0-0.6c0-0.2,0.4-0.3,0.7,0c-0.1-0.2-0.3-0.5-0.1-0.5
		c0.1,0.1,0.1,0.2,0.1,0.2c0.5-0.1,0.1-0.8,0.6-0.7c0.1,0.1,0.2,0.1,0.2,0.1c-0.3,0.2-0.5,0.4-0.5,0.4c0.3,0.3,0.5,0.1,0.7,0.7
		c0-0.4-0.2-1.1,0.1-1.2c0,0,0.1,0,0.1,0.1l0,0.1c0.1,0,0.1-0.1,0.1-0.2c0.1,0,0.2,0,0.2-0.1c0.2,0.2,0.4-0.1,0.5-0.2
		c-0.3-0.3-0.1-0.4-0.5-0.5c0,0,0,0.1,0,0.1c0,0,0,0,0,0.1c0,0,0,0,0,0c-0.1,0.1-0.1,0.2-0.2,0.3c-0.1-0.2-0.1-0.4,0.2-0.4
		c-0.1-0.2-0.3-0.5-0.3-0.6c0.6,0.3,1,0.2,1.3,0.5c0.1-0.5,0.6-0.8,0.2-1.6c0-0.2,0.3,0.1,0.4,0.1c0,0.1-0.1,0.2,0,0.3
		c0-0.3,0.5-0.6,0.1-1c0.4,0,0.2,0.5,0.5,0.1l0.1,0.2c1.2,0,0-2,1.4-1.8C52.1,7,52,7,52,7c1.1-0.4,1.2-1.9,2.5-2.1
		c0.3-0.1,0.1-0.4,0-0.7l0.4,0.3l-0.1-0.6c0-0.6,1.3,0.2,1.2-0.7l-0.3-0.2C55.9,3,56,2.5,56.2,2.8c0-0.1-0.2-0.3,0-0.2l0.2,0.2
		l0.1-0.6c0.4-0.1,0.6,0.7,1,0.3C57.6,2.2,57.4,1.5,57.3,1.5z M9.9,11.5c-0.1,0-0.1-0.1-0.1-0.1C9.8,11.5,9.9,11.5,9.9,11.5
		C9.9,11.5,9.9,11.5,9.9,11.5z M10.4,11.9c0-0.1-0.1-0.1-0.2-0.2c0.1-0.1,0.2-0.2,0.2-0.2C10.4,11.6,10.4,11.8,10.4,11.9z M11.4,9.1
		C11.4,9.1,11.4,9.1,11.4,9.1c0,0,0.1-0.1,0.1-0.1c0.1,0,0.1,0.1,0,0.2C11.5,9.1,11.5,9.1,11.4,9.1z M45.9,10.4
		c0.1,0,0.1-0.1,0.2-0.2c0.1,0.1,0.2,0.2,0.2,0.2C46.2,10.4,46,10.4,45.9,10.4z M46.3,9.9C46.3,9.9,46.3,9.9,46.3,9.9
		c0-0.1,0.1-0.1,0.1-0.1C46.4,9.8,46.3,9.9,46.3,9.9z M48.7,11.4c0.1,0.1,0.1,0.1,0.1,0.2c0,0.1-0.1,0.1-0.2,0
		C48.7,11.5,48.7,11.5,48.7,11.4C48.7,11.4,48.7,11.4,48.7,11.4z"/>
	<path class="st0" d="M48.6,11C48.6,11,48.6,11,48.6,11c0-0.1-0.1-0.1-0.1-0.1C48.5,11,48.5,11,48.6,11C48.6,11.1,48.6,11,48.6,11z"
		/>
	<path class="st0" d="M9.9,48.9C9.9,48.9,9.8,48.8,9.9,48.9C9.8,48.8,9.8,48.8,9.9,48.9L9.9,48.9z"/>
	<polygon class="st0" points="39.5,15.6 39.6,15.7 39.5,15.6 	"/>
	<path class="st0" d="M5.4,51.1l-0.2,0C5.3,51.1,5.4,51.1,5.4,51.1z"/>
	<path class="st0" d="M4.5,51.7c0,0.1,0.1,0.1,0.1,0.1c0,0,0,0,0,0L4.5,51.7z"/>
	<path class="st0" d="M16.5,39.1C16.5,39.1,16.5,39.1,16.5,39.1C16.5,38.9,16.5,39,16.5,39.1z"/>
	<path class="st0" d="M13.5,43.4c0-0.1,0-0.2,0-0.3C13.4,43.2,13.3,43.3,13.5,43.4z"/>
	<path class="st0" d="M20.2,34.7C20.2,34.7,20.2,34.7,20.2,34.7C20.2,34.6,20.2,34.6,20.2,34.7L20.2,34.7z"/>
	<path class="st0" d="M13.6,43c-0.1,0-0.2,0.1-0.2,0.2C13.5,43.2,13.6,43.1,13.6,43z"/>
	<path class="st0" d="M1,55C1,55,1,55,1,55L1,55L1,55z"/>
	<path class="st0" d="M1,55L1,55C1,55.1,1.1,55,1,55z"/>
	<path class="st0" d="M1,55.2l0-0.2C1,55.1,1,55.1,1,55.2z"/>
	<path class="st0" d="M2.5,53.7c-0.1,0-0.4,0-0.5,0.1l0.1,0.1C2,53.7,2.6,54,2.5,53.7z"/>
	<path class="st0" d="M5.1,53.7l-0.3,0.2c0.2,0.1,0.4,0.2,0.3,0.3C5.7,54.2,4.7,54,5.1,53.7z"/>
	<path class="st0" d="M6.1,53.1c-0.1,0.2,0.2,0.2,0.2,0.2C6.3,53.2,6.3,53.1,6.1,53.1z"/>
	<path class="st0" d="M12.2,47.6c0.1-0.1-0.1-0.1-0.3-0.3L12.2,47.6z"/>
	<polygon class="st0" points="11.6,44.8 11.4,44.7 11.6,45 	"/>
	<polygon class="st0" points="14.2,46.1 14.3,45.8 14.2,46 	"/>
	<path class="st0" d="M23.9,36.1l-0.4-0.3C23.5,36,23.9,36.4,23.9,36.1z"/>
	<path class="st0" d="M27.8,31.6c0.2,0.1,0.4,0.1,0.3-0.1C28,31.5,27.8,31.5,27.8,31.6z"/>
	<polygon class="st0" points="41.1,19.6 41.1,19.4 41,19.4 	"/>
</g>
</svg>
