<?xml version="1.0" encoding="utf-8"?>
<!-- Generator: Adobe Illustrator 22.1.0, SVG Export Plug-In . SVG Version: 6.00 Build 0)  -->
<svg version="1.1" id="Layer_1" xmlns="http://www.w3.org/2000/svg" xmlns:xlink="http://www.w3.org/1999/xlink" x="0px" y="0px"
	 viewBox="0 0 76 800" style="enable-background:new 0 0 76 800;" xml:space="preserve">
<style type="text/css">
	.st0{fill-rule:evenodd;clip-rule:evenodd;fill:#EFEBEC;}
</style>
<g>
	<path class="st0" d="M44,0.3C44.1-5.4,43.6-1.2,44,0.3L44,0.3z"/>
	<path class="st0" d="M26.4,11.5c0.2,1.9-0.2,4.8,0.2,6C26.8,14.9,27,12.7,26.4,11.5z"/>
	<path class="st0" d="M26,46.5c0,1.5,0.1,1.5,0,2.8C26.4,49.5,26.1,46.6,26,46.5z"/>
	<path class="st0" d="M24,62.3c-0.2-1.9,0.4-2.9,0.2-3.6C24,59.2,23.7,61.4,24,62.3z"/>
	<path class="st0" d="M24.2,64.7c-0.2-0.1-0.1-1.5-0.3-1.6c0,0.9,0,1.5-0.1,2C24,65.1,24.2,65.3,24.2,64.7z"/>
	<path class="st0" d="M26.6,63.4c-0.8,0.8-0.5,5-0.2,6.5C26.4,67.3,26.2,64.9,26.6,63.4z"/>
	<path class="st0" d="M4.4,68.4c0.1-0.3,0.2-2-0.1-1.6C4.1,67,4.4,72.1,4.4,68.4z"/>
	<path class="st0" d="M63.9,227.7c0,1.1-0.1,2.8,0.2,2.8C64,229.6,64.3,227.4,63.9,227.7z"/>
	<path class="st0" d="M10.7,389.3c0.1,1-0.1,2.9,0.1,3.2C10.9,391.4,11,389.8,10.7,389.3z"/>
	<path class="st0" d="M10.6,398.9c-0.3,0.9-0.1,1.6,0.1,2.4C11.1,400.8,10.7,400.1,10.6,398.9z"/>
	<path class="st0" d="M10.2,402.2c0,0.8-0.1,0.9-0.1,1.6c0.3,0.2,0.3-1,0.4-1.6C10.4,402.2,10.3,402.2,10.2,402.2z"/>
	<path class="st0" d="M10.9,410.6c0.1,1.2-0.2,1.2-0.1,2.4c0.1,0,0.2,0,0.3,0C10.8,412,11.3,410.7,10.9,410.6z"/>
	<path class="st0" d="M12.4,414.5c-0.5,0.9-0.2-3.2-0.4-2C11.9,414.4,12.2,416.5,12.4,414.5z"/>
	<path class="st0" d="M10.6,417.9c0,0.2-0.1,0.5-0.1,0c0-0.3,0-0.8-0.1-0.8c0,1.2,0,2.7,0.3,2.4C10.7,418.9,10.7,418,10.6,417.9z"/>
	<path class="st0" d="M12.5,422.6c-0.1,0-0.3,0-0.4,0c0.1,1,0,2.8,0.3,2.8C12.4,424.3,12.4,423.1,12.5,422.6z"/>
	<path class="st0" d="M10.4,436.8c-0.1-1.4-0.3-2.7-0.4-4C9.9,434.8,10,436.3,10.4,436.8z"/>
	<path class="st0" d="M10.5,474.2c-0.3,1.2-0.2-1.3,0.1-1.2c-0.1,0-0.3,0-0.4,0c0,1.4,0,2.6,0.2,3.2
		C10.3,475.2,10.8,474.8,10.5,474.2z"/>
	<path class="st0" d="M10.3,494.8c-0.1,1.3,0.1,1.7,0.2,2.8C10.5,496.3,10.5,495.2,10.3,494.8z"/>
	<path class="st0" d="M62.5,496.4c0.3,0.5,0.7-0.9,0.4-1.6c0,0.5-0.1,0.9-0.2,1.2c-0.2-0.2,0-1.9-0.2-2
		C62.3,494.7,62.6,495,62.5,496.4z"/>
	<path class="st0" d="M11.5,503.2c-0.1,0.6-0.2,3.5,0,4C11.7,506.6,11.7,503.7,11.5,503.2z"/>
	<path class="st0" d="M9.1,528.3c-0.3-1.2,0.2-2.7-0.1-3.6C9,526,8.5,528.3,9.1,528.3z"/>
	<path class="st0" d="M10.1,526.6c0-0.8,0.3-0.3,0.3-1.2c-0.3,0.5-0.1-1.3-0.4-0.8C10.1,525.9,9.8,526.3,10.1,526.6z"/>
	<path class="st0" d="M8.2,528.3c0.1-0.5,0.1-1.9,0.2-2.4C8,525.9,8,527.5,8.2,528.3z"/>
	<path class="st0" d="M10,531.8c0.1,1.3-0.3,0.6-0.3,1.6c0.5-1.1,0.4,4,0.1,2.4c0,0.9,0.1,1.7,0.3,2C10.4,537,10.3,533,10,531.8z"/>
	<path class="st0" d="M10.7,548.3c-0.1-1.4,0.4-0.5,0.3-2c-0.1,0-0.2,0-0.3,0C10.6,546.5,10.5,548.2,10.7,548.3z"/>
	<path class="st0" d="M9.7,553.6c0.2,0.9,0,3.4,0.3,3.6C9.8,555.9,10.3,553.9,9.7,553.6z"/>
	<path class="st0" d="M7.8,554.9c-0.1,0-0.2,0-0.3,0c0,0.8,0,1.6,0,2.4C7.9,557.7,7.6,555.2,7.8,554.9z"/>
	<path class="st0" d="M62.3,577.7c0-0.5,0-1,0.2-0.8c-0.1-1.8-0.1-3.5-0.3-3.6C62.4,574.8,62.2,576.8,62.3,577.7z"/>
	<path class="st0" d="M5.7,583.2c-0.1-0.7,0-2.7-0.2-3.2C5.4,581,5.4,583,5.7,583.2z"/>
	<path class="st0" d="M62.7,616.7c0-0.9-0.1-1.7-0.3-2C62.4,615.8,62.3,617.3,62.7,616.7z"/>
	<path class="st0" d="M63.4,652.5c0.1,3,0.1,4.5,0.2,6.8c0.2-2,0.3-4.7,0-6.4C63.6,653.6,63.5,652.8,63.4,652.5z"/>
	<path class="st0" d="M62.7,656.6c-0.3-0.9-0.3-2.4-0.6-3.2C62.2,655.3,62.2,656.3,62.7,656.6z"/>
	<path class="st0" d="M62.9,659.8c-0.3-0.8,0.3-1.7,0-2.8c-0.3-0.1-0.4,0.2-0.5,0.8c0.1,1.1,0.3,2.1,0.3,3.6
		c0.4-0.4,0.2-0.1,0.6-0.4c0,0.7,0.1,1.1,0.2,0.4c-0.3-0.5-0.2-2.3-0.5-2.8C62.9,659.1,63,659.7,62.9,659.8z"/>
	<path class="st0" d="M64,664.6c-0.1-0.9,0.2-2.3-0.2-2.8c0.1,1.8,0,2.8,0.2,4.4C64.6,664.1,64.1,666.1,64,664.6z"/>
	<path class="st0" d="M5.3,668.2c0.1,1-0.2,3.5,0.2,3.2C5.2,670,6,668.5,5.3,668.2z"/>
	<path class="st0" d="M64,678.7c0-1.3-0.1-4.8-0.2-4.4C63.8,676.1,63.8,677.7,64,678.7z"/>
	<path class="st0" d="M63.2,684.4c0-1-0.2-1.2,0-2C62.7,682,62.8,684.8,63.2,684.4z"/>
	<path class="st0" d="M61.5,686.5c-0.1,0.3-0.3,2.8,0.1,2.4C61.4,687.5,61.6,687.2,61.5,686.5z"/>
	<path class="st0" d="M3.6,698.1c-0.6,0.1-0.2,3.1,0.1,3.2C3.7,699.9,3.4,699.5,3.6,698.1z"/>
	<path class="st0" d="M58.2,721.7c0-0.5,0.1-0.6,0.2-0.8c-0.2-1.7-0.2-2.3-0.4-3.6c-0.1,1.8,0,2-0.1,3.2
		C58.2,719.9,57.9,721.9,58.2,721.7z"/>
	<path class="st0" d="M48.1,740.4c0-1.4,0-2.3,0.1-3.2c-0.9,0.2,0.3-3.5-0.5-4c0.1,0.9,0.3,3-0.2,2.8c-0.3-1.3,0.2-4.2-0.3-4
		c0.1,2.6,0.1,4.3-0.1,6.4c0.5-1.8,0.4,1.1,0.8-0.5C47.9,738.9,47.7,740.9,48.1,740.4z"/>
	<path class="st0" d="M4.1,743.6c-0.5-0.3,0.2-2.7-0.4-2.4c0,1.2-0.8,1.5-0.4,2.8C3.6,742.3,3.9,744.4,4.1,743.6z"/>
	<path class="st0" d="M5.9,755.1c-0.1-3.6-0.4-0.3-0.6-2.4c-0.2,1.4,0.1,1,0.1,2.4C5.5,755.2,5.7,755.2,5.9,755.1z"/>
	<path class="st0" d="M5.8,761.2c-0.1-2.9,1.1-4.1,0.6-6.1c-0.1,2.7-0.7,1.4-1,1.7c0.1,0.9,0.2,2.3,0.3,3.2c-0.1,0-0.1,0.5-0.3,0.4
		c-0.1-2.7-0.7-3.3-0.9-5.6c0,1.7-0.1,1.9,0.1,2.8c-0.2,0.4-0.4,1-0.4,2.4c0.2,1.1,0.5,1.9,0.7,2.8C5.1,761.9,5.4,761.2,5.8,761.2z"
		/>
	<path class="st0" d="M7,762.3c0-2.7,0.7,0,0.6-2.9c-0.4-0.2-0.4,1.2-0.9,0.9C6.7,761.2,6.9,761.6,7,762.3z"/>
	<path class="st0" d="M52,769.2c-0.1,2,0.5,0.9,0.7,1.6c0-0.8-0.1-0.9-0.1-1.6C52.3,769.5,52.3,770.3,52,769.2z"/>
	<path class="st0" d="M57.6,774.5c0.5,0.3,0.4-1.3,0.2-2C57.8,773.7,57.5,773.2,57.6,774.5z"/>
	<path class="st0" d="M59.9,788c-0.3-1-0.4,2.9-0.2,3.6c0.3-0.7,0.7-1,0.9-2.1c-0.2-0.3-0.5-0.2-0.6-1.2c0.1-0.4,0.2-4.3-0.1-4
		C59.8,785.6,59.9,786.7,59.9,788z"/>
	<path class="st0" d="M49.1,791.1c0,1-0.3,2.7-0.1,3.2c0.1-0.2,0.1-0.5,0.2-1c0,0.9-0.1,1.2-0.3,1.3c0.1,0.1,0.2,0.6,0.3,0.8
		c0.1-0.5,0.2-2.4,0-3C49.2,791.9,49.2,791.4,49.1,791.1z"/>
	<path class="st0" d="M23.1,2.4c0.2,2,0.5,0.2,0.3,3.6C23.8,5.7,23.7,2.1,23.1,2.4z"/>
	<path class="st0" d="M49.4,724.3C49.4,724.2,49.4,724.2,49.4,724.3C49.4,724.2,49.4,724.2,49.4,724.3
		C49.4,724.3,49.4,724.3,49.4,724.3z"/>
	<path class="st0" d="M58.6,637.9C58.7,637.9,58.7,637.9,58.6,637.9c0.1-0.7,0-1.4,0-2C58.6,636.6,58.6,637.3,58.6,637.9z"/>
	<path class="st0" d="M5.9,617c0,0,0-0.1,0-0.1c0,0,0,0,0,0C5.9,617,5.9,617,5.9,617z"/>
	<path class="st0" d="M4.4,696.9c0-0.1,0-0.2,0-0.4C4.4,696.6,4.4,696.7,4.4,696.9z"/>
	<path class="st0" d="M5.8,616.7c0,0.1,0.1,0.2,0.1,0.3C5.9,616.7,5.9,616.6,5.8,616.7z"/>
	<path class="st0" d="M26.2,59c0,1.8,0.1,1.9,0,3.6C26.7,62.5,26.3,59.5,26.2,59z"/>
	<path class="st0" d="M62.7,332.1c-0.3-0.1-0.3-1.6-0.6-2c0.2,1.5-0.3,0.8-0.2,2C62.3,330.2,62.4,333.2,62.7,332.1z"/>
	<path class="st0" d="M10.9,374c-0.1,1.4-0.3,4.1-0.1,5.2C10.9,377.6,11,374.7,10.9,374z"/>
	<path class="st0" d="M11.1,399.7c0.1-1.5,0.3-2.9,0-4C11.2,397.2,10.9,399.2,11.1,399.7z"/>
	<path class="st0" d="M11,442.4c-0.1-1.4-0.3-2.1-0.4-3.2c0,0.2,0,0.5-0.1,0.4c0,0.3,0,0.5,0,0.8C10.9,440.7,10.7,442.5,11,442.4z"
		/>
	<path class="st0" d="M10.7,469.8c-0.3-0.7-0.1-2.5,0-3.6c-0.2-1-0.5,0.9-0.6-0.8c0.3-2.6-0.3-6.8,0.3-8.1c0.3,1.4-0.3,5.8,0.4,6.8
		c0-2.3-0.3-5.1,0.2-6.9c-0.1-0.4-0.2-0.8-0.3-1.2c0.2-1.5,0.2,0.3,0.3-0.4c-0.3-0.7,0.2-3.9-0.2-2c0.3-3.4,0.4-6.4,0.2-9.7
		c0,2.7-0.2,2.9-0.4,4.5c-0.3-2.7,0.4-4.3,0-6c0,0.6-0.2,0.3-0.3,0c0,1.1,0.1,2.4-0.2,2.4c-0.2-0.4,0.2-3.3-0.2-3.6
		c0.2,10.1,0.1,18.1,0.1,28.2c0.1-0.6,0.1-1.9,0.3-2.4c0,0.3,0,0.8,0.1,0.8c0-0.3,0-0.8,0.1-0.8C10.3,468.5,10.5,470.8,10.7,469.8z
		 M10.5,448.9c0.3-0.1,0.4,1.7,0.2,2.4C10.5,450.9,10.5,450,10.5,448.9z"/>
	<path class="st0" d="M12.9,468.9c0.1,1.6,0,3.9,0.2,5.2C13.4,472.3,13.1,470.1,12.9,468.9z"/>
	<path class="st0" d="M12.7,471.3c-0.2,0.1-0.4-0.1-0.4,0.4c0.6,0,0.3,1.5,0.2,2.8C13.1,474.8,12.7,472.4,12.7,471.3z"/>
	<path class="st0" d="M10.3,486.7c0,0.3-0.1,0.5-0.2,0.4c0.2,1.5-0.1,3.1,0.1,4C10.4,489.8,10.6,488.1,10.3,486.7z"/>
	<path class="st0" d="M62.4,488.7c0.2-0.8,0.7-1.2,0.5-1.2C62.7,486.4,62.3,487.7,62.4,488.7z"/>
	<path class="st0" d="M13.2,495c-0.1-1.7,0.1-2.3-0.3-3.2c0,0.8-0.1,0.9-0.1,1.6C13.1,492.9,13.1,496,13.2,495z"/>
	<path class="st0" d="M62.5,511.7c0,1.6-0.2,2.9,0.1,3.6c0.1-0.8,0.2-2.7,0.5-1.6c-0.3-0.9,0.2-4.2,0-3.6
		C62.9,511,62.7,513.5,62.5,511.7z"/>
	<path class="st0" d="M72.9,514.7c0.1,0.3,0.1,0.3,0.6,1.6c-0.1-1.8-0.2-3.4-0.7-3.6C72.8,513.2,72.6,514.7,72.9,514.7z"/>
	<path class="st0" d="M10,527c0.1,1.4-0.2,2.8,0,3.2C10,529,10.4,527.5,10,527z"/>
	<path class="st0" d="M63.8,562.7c0,0.7-0.1,1,0,1.2c0.2-1.4,0.1,1.5,0.3,1.6c0.1-0.9,0.1-3.5-0.1-3.2C64,564,63.9,563.3,63.8,562.7
		z"/>
	<path class="st0" d="M63.3,609.1c0.2,1.9-0.3,2.9-0.1,3.6c0.1-0.5,0.1-1.5,0.3-1.6c0,1.9-0.5,4.8,0,4c-0.2-0.7,0.1-2.4,0.3-2.8
		C63.6,611.8,63.2,607.9,63.3,609.1z"/>
	<path class="st0" d="M62.3,622c0.5,0.2,0.9,1.9,1.2,0.3c-0.2,0.1-0.2-0.5-0.3-0.8c-0.2,1.2-0.8,0.8-0.7-1.6
		C62.2,619.6,62.4,621.2,62.3,622z"/>
	<path class="st0" d="M62.7,629.2c0.1,0.8,0.4-0.8,0.7-0.4c0,0.5,0,1.1,0,1.6c-0.2,0-0.3,0-0.5,0c0.3,1.3,0.2,3.7,0.6,2.8
		c-0.2,0.6-0.1,1.7,0.1,2c0.1-3.1-0.2-3.9,0-6.4c-0.1,0-0.2-0.1-0.2-0.8C63.2,629.1,62.8,627.8,62.7,629.2z"/>
	<path class="st0" d="M67.5,647c0.1-0.7,0-2.7,0.5-2C68,642.1,67.2,646.1,67.5,647z"/>
	<path class="st0" d="M62.2,663.5c0-0.5,0.1-0.9,0.2-1.2C62.2,657.8,62.1,662.6,62.2,663.5z"/>
	<path class="st0" d="M62.7,665.9c0.3-0.4,0.4-2.2,0.3-3.2c-0.2,0.3-0.4,1.8-0.6,0.8c-0.1,2.2,0.1,3.4,0.2,4.8
		c0.3-1.2,0.4,1.1,0.5,0.4c-0.1-0.5-0.1-1.9,0-2.4C62.8,665.7,62.8,666.5,62.7,665.9z"/>
	<path class="st0" d="M61.9,671.5c0.3-0.1,0.3,0.6,0.4,1.2c-0.2,0.1,0,1.8-0.2,2c0.1,0.4,0.4,0.1,0.3,1.2c0,14-0.1,20.8-0.1,33
		c0.7-0.2-0.1,1.4,0.2,2c0.5-0.8,0.4-1.7,0.6-3.7c-0.3-0.3-0.2,1.1-0.4,1.2c0-0.6-0.1-0.9-0.1-1.2c0.4,0.5,0.3-2.1,0.6-0.8
		c-0.2-5.8-0.6-12.7-0.4-21.3c-0.2,0-0.3-0.3-0.3-0.8c0.2-1,0.1-1.1,0.1-2.8c0.3,0.4,0.4,0.2,0.5-0.8c-0.1-0.1-0.3,0.1-0.3-0.4
		c0-3.9-0.5-10.1-1-12.1C62,669,61.8,670.6,61.9,671.5z"/>
	<path class="st0" d="M61.9,668.2c0-0.1,0-0.2-0.1-0.3C61.8,668,61.8,668.1,61.9,668.2z"/>
	<path class="st0" d="M0.6,711.6c-0.2,0-0.3-0.1-0.4-0.4c0,1.1,0,2.2-0.3,2c0.1,1.4-0.3,2.1,0.1,2.4c0-0.6,0.2-0.5,0.3-0.8
		C0.1,713.3,0.2,712.1,0.6,711.6z"/>
	<path class="st0" d="M58.3,711.6c-0.1,0-0.2,0.2-0.3,0.4c0-0.7-0.1-1-0.2-1.2c0.1,2.4,0.1,3.7,0.2,6c0-2.6,0.3,0.2,0.4,0.8
		C58.2,715.7,58,713.9,58.3,711.6z"/>
	<path class="st0" d="M58,722.1c0,0.7,0,1.3-0.1,1.6c0.3,0.4,0.7-2,0.4-1.2C58.2,723.7,58.1,721.9,58,722.1z"/>
	<path class="st0" d="M60.7,724.8c0-0.2,0-0.5-0.1-0.4c-0.1,1,0,2.3-0.1,4c-0.2,0-0.3,0-0.3,0.8c0.7,0.4,0.2-3.9,0.7-4.5
		C60.8,724.8,60.8,724.8,60.7,724.8z"/>
	<path class="st0" d="M66.4,735.3c0.3,0.7,0.1,1.4,0.4,2c0-0.7,0.1-1,0.2-1.2c0.1,1.3,0,1.3,0,2.8c0.2,0.1,0.2-0.5,0.4-0.4
		c-0.1,1.4,0.2,2.3,0.3,3.2c0-1.2,0.2-1.3,0.2-2.4c-0.4-1.1-0.3-2.2-0.4-4.8c-0.2,0.1-0.2-0.5-0.3-0.8c0,1-0.2,1.4-0.3,2
		C66.8,735.3,66.4,734.4,66.4,735.3z"/>
	<path class="st0" d="M46.6,736.5c0.2-0.2-0.3,3.1,0,2c0.1-1.1,0.3-1.6,0.4-2.8c-0.2-0.1-0.2,0.6-0.3,0.8
		C46.7,736.3,46.6,736.1,46.6,736.5z"/>
	<path class="st0" d="M48.7,768.2c-0.4-1.7,0.4-0.6,0.4-1.2c-0.1-1.6,0.4-3.7,0.1-5.6c0.1-0.6,0.4-0.1,0.4-0.8
		c-0.6-0.7,0.2-2.8-0.4-3.6c0.4-2.4,0.4-7.9,0.5-10.1c0,0.6,0.1,1.3,0.2,2.2c0-2.9,0.1-6.3-0.3-7.6c0.1,3,0,4,0.1,5.2
		c-0.1,0.1-0.3-0.3-0.4-0.6c0.3-1.3-0.4-5.1,0.1-3.6c0-1.5-0.2-1.8-0.4-2.4c0.2,3.3,0,6.4,0.4,8.4c-0.8,2.1,0.3,8.4-0.8,7.7
		c0.3,2,0.1,2.1,0,4.4c0.2-0.1,0.4,0.1,0.4,0.8c-0.2,1.6-0.3,2.7-0.2,4.4C48.5,766,48.3,768.9,48.7,768.2z"/>
	<path class="st0" d="M54.4,776.7c0.6-1.3,0.8-5.8,1.5-7.7c0-1.7,0.2-2.9,0.5-3.7c0-0.7,0-1.3-0.1-1.6c0.8-0.7,0.6-9.9,1.2-8.9
		c-0.2-1.5-0.4-2.6-0.4-4.8c-0.2-0.1-0.2,0.8-0.5,0.4c0-1.2,0-2-0.2-2.4c0,2.5,0.5,2.8,0.5,4.8c-0.4-0.3-0.5,0.9-0.3,1.6
		c0.4,0.6,0.1-1.4,0.3-1.2c0,0.6,0.3,0.3,0.2,1.2c-0.6-0.8,0,3.4-0.4,4.5c-0.2,0-0.3-0.2-0.4-0.8c0.1-2.9-0.2-1.5-0.4-2.8
		c-0.1-1.3,0.3-1.1,0.3-2c-0.5-0.2-0.5-2.4-0.4-4c-0.3-3.4-1.3-6.2-1.4-9.2c-0.1,3.1,0.3,5.9-0.4,7.7c-0.3-1.1,0.1-2.1,0-3.6
		c-0.3,0.3-0.2-0.8-0.4-0.8c0.1,1.3,0.2,7-0.5,5.3c0.1,1.5-0.2,2.2,0,2.8c0.4,0.6,0-2.1,0.3-2c0.3,2.8,0.7,3.1,1,5.2
		c0.2-2.8-0.5-3.9-0.3-5.2c1.3,5.4,0,17.5,0.3,24.5C54.2,773.2,54.5,775.5,54.4,776.7z"/>
	<path class="st0" d="M48.2,744.9c0,1.8-0.3,1.2-0.5,1.6c0.2,0.6,0.2,0.8,0.5,0.4C48.1,745.9,48.4,744.9,48.2,744.9z"/>
	<path class="st0" d="M48.3,767c0.2-1.9,0.1-3.7,0.2-5.2C48.1,762.1,48.3,766.6,48.3,767z"/>
	<path class="st0" d="M52.9,761.5c-0.1,2.1-1,6.6-0.2,6.9C53,766.8,52.9,764,52.9,761.5z"/>
	<path class="st0" d="M29.1,776.7c-0.4-0.5-0.6,3.3-0.5,2.4C28.7,777.9,29.1,778.3,29.1,776.7z"/>
	<path class="st0" d="M63.9,714.9c0.8-0.5,1.1,1,1.3,3.1c-0.5-0.1-0.4,2.3-0.7,2.9c0.4-0.2,0.3,1.4,0.5,1.2
		c-0.1,0.2-0.2,0.6-0.3,1.2c0.5-0.1,0.3,2.5,0.4,4c0.4-0.1,0.3-0.5,0.6,0c0.3-1.9,0.3-5.9,0.5-7.3c-0.6-3.6,0.8-8.9,0.6-13.7
		c-0.2-3.2-1.1-4.9-2.3-3.5C63.8,705.2,63.2,710.7,63.9,714.9z"/>
	<path class="st0" d="M32,799.7C31.9,805.4,32.4,801.2,32,799.7L32,799.7z"/>
	<path class="st0" d="M49.6,788.5c-0.2-1.9,0.2-4.8-0.2-6C49.2,785.1,49,787.3,49.6,788.5z"/>
	<path class="st0" d="M50,753.5c0-1.5-0.1-1.5,0-2.8C49.6,750.5,49.9,753.4,50,753.5z"/>
	<path class="st0" d="M52,737.7c0.2,1.9-0.4,2.9-0.2,3.6C52,740.8,52.3,738.6,52,737.7z"/>
	<path class="st0" d="M51.8,735.3c0.2,0.1,0.1,1.5,0.3,1.6c0-0.9,0-1.5,0.1-2C52,734.9,51.8,734.7,51.8,735.3z"/>
	<path class="st0" d="M49.4,736.6c0.8-0.8,0.5-5,0.2-6.5C49.6,732.7,49.8,735.1,49.4,736.6z"/>
	<path class="st0" d="M71.6,731.6c-0.1,0.3-0.2,2,0.1,1.6C71.9,733,71.6,727.9,71.6,731.6z"/>
	<path class="st0" d="M12.1,572.3c0-1.1,0.1-2.8-0.2-2.8C12,570.4,11.7,572.6,12.1,572.3z"/>
	<path class="st0" d="M65.3,410.7c-0.1-1,0.1-2.9-0.1-3.2C65.1,408.6,65,410.2,65.3,410.7z"/>
	<path class="st0" d="M65.4,401.1c0.3-0.9,0.1-1.6-0.1-2.4C64.9,399.2,65.3,399.9,65.4,401.1z"/>
	<path class="st0" d="M65.8,397.8c0-0.8,0.1-0.9,0.1-1.6c-0.3-0.2-0.3,1-0.4,1.6C65.6,397.8,65.7,397.8,65.8,397.8z"/>
	<path class="st0" d="M65.1,389.4c-0.1-1.2,0.2-1.2,0.1-2.4c-0.1,0-0.2,0-0.3,0C65.2,388,64.7,389.3,65.1,389.4z"/>
	<path class="st0" d="M63.6,385.5c0.5-0.9,0.2,3.2,0.4,2C64.1,385.6,63.8,383.5,63.6,385.5z"/>
	<path class="st0" d="M65.4,382.1c0-0.2,0.1-0.5,0.1,0c0,0.3,0,0.8,0.1,0.8c0-1.2,0-2.7-0.3-2.4C65.3,381.1,65.3,382,65.4,382.1z"/>
	<path class="st0" d="M63.5,377.4c0.1,0,0.3,0,0.4,0c-0.1-1,0-2.8-0.3-2.8C63.6,375.7,63.6,376.9,63.5,377.4z"/>
	<path class="st0" d="M65.6,363.2c0.1,1.4,0.3,2.7,0.4,4C66.1,365.2,66,363.7,65.6,363.2z"/>
	<path class="st0" d="M65.5,325.8c0.3-1.2,0.2,1.3-0.1,1.2c0.1,0,0.3,0,0.4,0c0-1.4,0-2.6-0.2-3.2C65.7,324.8,65.2,325.2,65.5,325.8
		z"/>
	<path class="st0" d="M65.7,305.2c0.1-1.3-0.1-1.7-0.2-2.8C65.5,303.7,65.5,304.8,65.7,305.2z"/>
	<path class="st0" d="M13.5,303.6c-0.3-0.5-0.7,0.9-0.4,1.6c0-0.5,0.1-0.9,0.2-1.2c0.2,0.2,0,1.9,0.2,2
		C13.7,305.3,13.4,305,13.5,303.6z"/>
	<path class="st0" d="M64.5,296.8c0.1-0.6,0.2-3.5,0-4C64.3,293.4,64.3,296.3,64.5,296.8z"/>
	<path class="st0" d="M66.9,271.7c0.3,1.2-0.2,2.7,0.1,3.6C67,274,67.5,271.7,66.9,271.7z"/>
	<path class="st0" d="M65.9,273.4c0,0.8-0.3,0.3-0.3,1.2c0.3-0.5,0.1,1.3,0.4,0.8C65.9,274.1,66.2,273.7,65.9,273.4z"/>
	<path class="st0" d="M67.8,271.7c-0.1,0.5-0.1,1.9-0.2,2.4C68,274.1,68,272.5,67.8,271.7z"/>
	<path class="st0" d="M66,268.2c-0.1-1.3,0.3-0.6,0.3-1.6c-0.5,1.1-0.4-4-0.1-2.4c0-0.9-0.1-1.7-0.3-2C65.6,263,65.7,267,66,268.2z"
		/>
	<path class="st0" d="M65.3,251.7c0.1,1.4-0.4,0.5-0.3,2c0.1,0,0.2,0,0.3,0C65.4,253.5,65.5,251.8,65.3,251.7z"/>
	<path class="st0" d="M66.3,246.4c-0.2-0.9,0-3.4-0.3-3.6C66.2,244.1,65.7,246.1,66.3,246.4z"/>
	<path class="st0" d="M68.2,245.1c0.1,0,0.2,0,0.3,0c0-0.8,0-1.6,0-2.4C68.1,242.3,68.4,244.8,68.2,245.1z"/>
	<path class="st0" d="M13.7,222.3c0,0.5,0,1-0.2,0.8c0.1,1.8,0.1,3.5,0.3,3.6C13.6,225.2,13.8,223.2,13.7,222.3z"/>
	<path class="st0" d="M70.3,216.8c0.1,0.7,0,2.7,0.2,3.2C70.6,219,70.6,217,70.3,216.8z"/>
	<path class="st0" d="M13.3,183.3c0,0.9,0.1,1.7,0.3,2C13.6,184.2,13.7,182.7,13.3,183.3z"/>
	<path class="st0" d="M12.6,147.5c-0.1-3-0.1-4.5-0.2-6.8c-0.2,2-0.3,4.7,0,6.4C12.4,146.4,12.5,147.2,12.6,147.5z"/>
	<path class="st0" d="M13.3,143.4c0.3,0.9,0.3,2.4,0.6,3.2C13.8,144.7,13.8,143.7,13.3,143.4z"/>
	<path class="st0" d="M13.1,140.2c0.3,0.8-0.3,1.7,0,2.8c0.3,0.1,0.4-0.2,0.5-0.8c-0.1-1.1-0.3-2.1-0.3-3.6
		c-0.4,0.4-0.2,0.1-0.6,0.4c0-0.7-0.1-1.1-0.2-0.4c0.3,0.5,0.2,2.3,0.5,2.8C13.1,140.9,13,140.3,13.1,140.2z"/>
	<path class="st0" d="M12,135.4c0.1,0.9-0.2,2.3,0.2,2.8c-0.1-1.8,0-2.8-0.2-4.4C11.4,135.9,11.9,133.9,12,135.4z"/>
	<path class="st0" d="M70.7,131.8c-0.1-1,0.2-3.5-0.2-3.2C70.8,130,70,131.5,70.7,131.8z"/>
	<path class="st0" d="M12,121.3c0,1.3,0.1,4.8,0.2,4.4C12.2,123.9,12.2,122.3,12,121.3z"/>
	<path class="st0" d="M12.8,115.6c0,1,0.2,1.2,0,2C13.3,118,13.2,115.2,12.8,115.6z"/>
	<path class="st0" d="M14.5,113.5c0.1-0.3,0.3-2.8-0.1-2.4C14.6,112.5,14.4,112.8,14.5,113.5z"/>
	<path class="st0" d="M72.4,101.9c0.6-0.1,0.2-3.1-0.1-3.2C72.3,100.1,72.6,100.5,72.4,101.9z"/>
	<path class="st0" d="M17.8,78.3c0,0.5-0.1,0.6-0.2,0.8c0.2,1.7,0.2,2.3,0.4,3.6c0.1-1.8,0-2,0.1-3.2C17.8,80.1,18.1,78.1,17.8,78.3
		z"/>
	<path class="st0" d="M27.9,59.6c0,1.4,0,2.3-0.1,3.2c0.9-0.2-0.3,3.5,0.5,4c-0.1-0.9-0.3-3,0.2-2.8c0.3,1.3-0.2,4.2,0.3,4
		c-0.1-2.6-0.1-4.3,0.1-6.4c-0.5,1.8-0.4-1.1-0.8,0.5C28.1,61.1,28.3,59.1,27.9,59.6z"/>
	<path class="st0" d="M71.9,56.4c0.5,0.3-0.2,2.7,0.4,2.4c0-1.2,0.8-1.5,0.4-2.8C72.4,57.7,72.1,55.6,71.9,56.4z"/>
	<path class="st0" d="M70.1,44.9c0.1,3.6,0.4,0.3,0.6,2.4c0.2-1.4-0.1-1-0.1-2.4C70.5,44.8,70.3,44.8,70.1,44.9z"/>
	<path class="st0" d="M70.2,38.8c0.1,2.9-1.1,4.1-0.6,6.1c0.1-2.7,0.7-1.4,1-1.7c-0.1-0.9-0.2-2.3-0.3-3.2c0.1,0,0.1-0.5,0.3-0.4
		c0.1,2.7,0.7,3.3,0.9,5.6c0-1.7,0.1-1.9-0.1-2.8c0.2-0.4,0.4-1,0.4-2.4c-0.2-1.1-0.5-1.9-0.7-2.8C70.9,38.1,70.6,38.8,70.2,38.8z"
		/>
	<path class="st0" d="M69,37.7c0,2.7-0.7,0-0.6,2.9c0.4,0.2,0.4-1.2,0.9-0.9C69.3,38.8,69.1,38.4,69,37.7z"/>
	<path class="st0" d="M24,30.8c0.1-2-0.5-0.9-0.7-1.6c0,0.8,0.1,0.9,0.1,1.6C23.7,30.5,23.7,29.7,24,30.8z"/>
	<path class="st0" d="M18.4,25.5c-0.5-0.3-0.4,1.3-0.2,2C18.2,26.3,18.5,26.8,18.4,25.5z"/>
	<path class="st0" d="M16.1,12c0.3,1,0.4-2.9,0.2-3.6c-0.3,0.7-0.7,1-0.9,2.1c0.2,0.3,0.5,0.2,0.6,1.2c-0.1,0.4-0.2,4.3,0.1,4
		C16.2,14.4,16.1,13.3,16.1,12z"/>
	<path class="st0" d="M26.9,8.9c0-1,0.3-2.7,0.1-3.2c-0.1,0.2-0.1,0.5-0.2,1c0-0.9,0.1-1.2,0.3-1.3c-0.1-0.1-0.2-0.6-0.3-0.8
		c-0.1,0.5-0.2,2.4,0,3C26.8,8.1,26.8,8.6,26.9,8.9z"/>
	<path class="st0" d="M52.9,797.6c-0.2-2-0.5-0.2-0.3-3.6C52.2,794.3,52.3,797.9,52.9,797.6z"/>
	<path class="st0" d="M70.2,183.3c0-0.1-0.1-0.2-0.1-0.3C70.1,183.3,70.1,183.4,70.2,183.3z"/>
	<path class="st0" d="M71.6,103.1c0,0.1,0,0.2,0,0.4C71.6,103.4,71.6,103.3,71.6,103.1z"/>
	<path class="st0" d="M26.6,75.7C26.6,75.8,26.6,75.8,26.6,75.7C26.6,75.8,26.6,75.8,26.6,75.7C26.6,75.7,26.6,75.7,26.6,75.7z"/>
	<path class="st0" d="M70.1,183c0,0,0,0.1,0,0.1c0,0,0,0,0,0C70.1,183,70.1,183,70.1,183z"/>
	<path class="st0" d="M61.9-68.2c-0.8,2.7-1.5,6.2-2.1,9.8c-0.1-0.1-0.2-0.6-0.4-0.4c0.1,1.4,0.3,2.1,0.3,3.6
		c-0.2,0.6-0.4,1.1-0.3,2.8c-0.5-1.6-0.4,1.3-0.8,1.3c-0.2-1.3-0.2-1.1-0.6-0.8c0-0.8-0.3-0.5-0.2-1.6c0.2-3.6,0.5-7.8,0.6-12.5
		c-0.7,1.8-0.8,5.7-1.2,8.5c-0.9-0.5-1.2,1-1.8,3.3c-0.1,1.3,0.3,0.3,0.2,1.6c-1,1.2-1.8,5.1-3,4.2c0.1-5-1.1-4.9-1-10
		c-0.4-0.1-0.5-1.6-0.9-2c-0.2,0.1-0.3,0.8-0.4,1.2c-0.3-0.3-0.4-1.2-0.5-2c-1.3-1.2-1,4-2,4.2c-0.3-3.5-0.1-8.7-0.6-11.2
		c-0.1,1.6-0.8,2.2-1,0.9c-0.3,2.2-1.1,2.5-1.4,4.9c0.5,4,1.7,3.7,2.1,8.3c-1.6,2.7-1.3,14.5-1.6,18.2c0-0.5,0.1-0.8,0.3-0.8
		c0.1,1.9-0.1,2.9-0.2,4c0.4-0.3,0.2,2,0.4,2.4c0.1-0.6,0.1-1.3,0.4-1.2c0,6.3,0.6,9.7,0.8,16.1c0.1,0.1,0.3-0.1,0.3,0.4
		C47.2-6.4,47.7-0.7,48,7.2c0.1,0.1,0.3-0.1,0.3,0.4c-0.2,1.7-0.2,3.8-0.2,4.8c0-0.3,0.1-0.5,0.2-0.4c-0.1,6.2,0.4,14.4-1,15.8
		c0.1-0.6,0.1-1-0.1-1.2c-0.1,1.2-0.5,3.2-0.9,2.1c0.1,2.1-0.5,3.4-0.8,2.5c-0.1,0.1-0.2,0.6-0.4,0.4c-0.1,1.3-0.1,0.8,0.1,1.6
		c-0.1,0-0.2,0.2-0.3,0.4c0-0.6,0-1.4-0.2-1.2c0.1,2.7-0.4,0.6-0.7,1.7c0.1,1.5,0.6,1,0.5,3.2c-0.2-0.9-0.4,0.2-0.7,0
		c0-0.2,0.2-1.6,0-1.6c0,1-0.4,0.7-0.5,1.2c0,0.7,0,1.3,0.1,1.6c-0.4-1.4,0,2.1-0.5,1.2c0.3-2.7,0.1-4.9-0.1-7.6
		c0.7-1.1,0.4-5.8,1.1-6.9c0.1,0.5,0.1,0.9,0.2,1.2c0.1-0.9,0.3-1,0.5-1.6c-0.1-4.4,1.5-5,1.6-9.8c-0.5-0.1-0.6-2.1-0.4-4
		c-0.5,0-0.4-1.3-0.3-2.8c-0.9,0.9-1.1-3.4-1.8-1.9c0.1-0.5,0.1-1.5-0.1-1.6c-0.2,0.3,0,2-0.3,1.6C43,6.2,43,5.3,43,4.7
		c-1.1,0.3-1,4.9-1.7,6.5c-0.6-6.3,0.9-9.4,0.5-14.5c0.1,0,0.3,0,0.4,0c0.3-4.9-1.3-4.7-1.1-8.8c-0.6-2.1-1.1-4.8-1.3-8.4
		c-0.1,0.4-0.3-2.5-0.6-2.8c0-6.7-1.9,0-2.5-1c-0.4,1.3-0.6,3.1-1.2,3.7c0-1.5-0.2-1.2-0.3-0.4c0-0.5,0-1.1,0-1.6
		c-0.6,0.1-0.7-1.3-1,0.5c0.3,3.9-0.1,7.6-1,9.3c0-0.6-0.3-0.3-0.2-1.2c-0.5-0.3-0.2,2-0.6,2.1c0.1-2.8,0.9-3.1,1.1-5.7
		c-0.3,0.3-0.3-0.6-0.5-0.4c0,0.8,0.1,0.9,0.1,1.6c-0.2-0.8-0.3,0.8-0.6,0.8c0,1.7-0.2,1.5-0.3,3.2c0.2,0.2,0.3,2.3,0.1,2.8
		c0-2.5-0.3,0.7-0.4-1.2c-0.1,3.5-0.4,4.5-0.4,6.5c-0.1-1.3-0.4-2.3-0.8-2.4c0.1,1.1-0.2,0.8-0.3,1.2C30.2-0.3,29.2,1.8,29,7.9
		c-0.6-1.6-0.2-5.3-0.4-9.2c-0.3-0.6-0.5-1.7-1-1.5c0.1,4.3-0.7,9.8,0,14.5c-0.6,2.7,0.4,9,0.2,13.7c-0.1,1.8,0,6.2,0.6,7.2
		c0,5.7,0.3,11.7,0.4,18.9c-0.3,0.5-0.4-1.2-0.4,0.4c0.5,2,0.2,6.8,0.5,8.8c0.1-6.8,0.3-12.9,0.2-19.7c0.1-0.1,0.2-0.7,0.3-0.8
		c-0.2,4.3,1.3,10,0.5,9.2c0.1,0.4-0.3,2.1-0.2,3.6c0.9,0.9,0,4.2,0.1,6.8c0.3-0.1,0.1,1.6,0.4,1.2c0.3-0.1,0.3-1.6,0.6-1.6
		c0.7,2.4,0.2,5.1,0.3,8.8c-0.1,0.2-0.2,0.5-0.3,0c0.1,1,0.3,3.8-0.2,3.6c-0.2-2,0-0.7,0.1-2c-0.4-0.8-0.6,0.1-0.7,1.2
		c-0.2-1.2-0.7-1.1-0.8-2.8c0,0.8-0.1,1.4-0.2,1.6c-0.2-0.3-0.2-1.5-0.5-1.6c0.1,1.5,0.1,3.4-0.2,5.2c0.5-0.1,0.4,2.5,0.3,3.2
		c-0.3-0.5-0.3-1.6-0.2-2.8c-0.5,0.8-0.1-1.6-0.5-1.2c-0.1,1.6,1.1,5.9,0.2,8c0.2-3.6-0.4-4.3-0.6-6.4c-0.6-0.5-0.8,0.1-1,1.3
		c0.1,0,0.2,0,0.3,0c0,0.8-0.1,1.1-0.1,1.6c-0.1-0.2-0.2-0.5-0.2,0c-0.3-0.1,0.1-0.7,0-1.5c-0.1,0.7-0.1,1.5-0.2,2.4
		c-0.3-0.7-0.5-1.6-0.5-3.5c0.1,0.1,0.2,0.6,0.3,0.8c-0.1-2.1-0.3-4.4-0.5-4.8c0.2-1.9,0-1.5-0.1-2.8c-0.1-2.1,0.2-5.4-0.3-6.4
		c0,0,0,0.1,0,0.1c0.1-1,0.3-2.3,0.1-3.1c0.1-0.2,0.2-0.5,0.3,0c-0.6-3,0.6-5.2,0.3-8.9c-0.1,1.7-0.6-1.5-0.5,1.6
		c0.2,0.5,0.4-1.1,0.4,0c-0.6-0.1-0.5,3.3-1,4.5c0.5,2.1,0.1,4.3,0,7.1c0-0.1-0.1-0.1-0.1-0.2c-0.1,0.2-0.1,0.6-0.1,1
		c-0.2,0.4-0.5,1-0.3,1.7c0-1.1,0.1-0.6,0.3-0.1c0,1.3,0,2.6-0.3,2.7c0-0.8,0-1.6,0-2.4c-0.3,0-0.3,2.1-0.6,0.8
		c0.1,0.6-0.1,2.1,0.1,2c0-0.9,0.1-1.3,0.3-1.2c0,0.6,0,1.7,0,2.7C24,70,24,70.1,23.9,70c-0.3-3.3-0.3-8.2-0.3-10.9
		c-0.2-0.3-0.4-0.5-0.5-1.2c0,1.9,0,3.7,0.2,1.6c0,1.5-0.2,1.8-0.4,2.4c-0.5-2.9,0.1-2.3,0-4.8c-0.1,1.4-0.2,2-0.5,0.8
		c-0.2,3.6-0.3,8.3-0.2,10.9c-0.5,0.9-0.3,3.7-0.3,5.9c-0.1,0-0.2-0.1-0.3-0.4c0,0.7,0.1,1.1,0.2,1.5c-0.1,0.9-0.2,1.6-0.5,1.8
		c0,1.6,0.6,0.6,0.5,2.4c-0.1,1.3-0.4,2.3-0.5,3.7c0.2,0.7,0.2,1.8,0.1,2.7c0,0,0,0,0,0c0,0.3-0.1,0.5-0.2,0.4c0,0.3,0,0.5,0,0.7
		c0,0.1-0.1,0.2-0.1,0.2c0-0.5-0.1-0.4-0.2-0.7c0-0.2,0.1-0.3,0.2-0.3c0-0.6,0-1.3,0-1.8c0.1-1.8,0-4.2-0.2-5.3
		c0,1.4-0.1,3.1-0.1,4.7c0,0,0,0,0,0c0,0,0,0,0,0c0,1.6,0,3.2,0.1,4.5c0-0.5,0-1.1,0.1-1.2c0,1.2,0.2,1.2,0.2,2.4
		c-0.2,0.2-0.3-0.7-0.3-0.1c0-0.3,0-0.6,0-0.8c0,0.5-0.2,0.4-0.3,0.4c0-3,0-4-0.2-5.6c0.1,0,0.1,0.3,0.2,0.4
		c-0.1-4.5-0.2-8.4,0-11.3c-0.1-0.4-0.3-0.6-0.4-1.2c0.3-1,0.1-1.3-0.1-2c0.2-0.8,0.6-0.5,0.4-1.6c-0.3,1.4-0.3-1.6-0.4-2.4
		c0.2,0,0.1-1.1,0.4-0.8c0.2-0.1,0.1,1.2,0.3,1.2c0-2.7-0.3-2.6-0.8-2.8c-0.2,1-0.2,2.6-0.3,3.6c0.6,0.7,0.2,5.1,0,6
		c0-0.5-0.2-0.4-0.2-0.8c0.1-0.1,0.3,0.1,0.3-0.4c-0.6-2.3-0.3-4.8-0.2-8c-0.4,1-0.3-0.7-0.7-0.8c0,3.2,0.1,6.4,0,9.3
		c0.2-1.3,0.3,1.2,0.4,1.6c-0.1,0.8-0.4,3.1-0.3,3.6c0-0.5,0.2-0.4,0.3-0.4c-0.4,1.7-0.2,4.2-0.4,6.5c0-2.5-0.2-1.3-0.3-3.2
		c-0.1,1.8-0.3,2.8,0.1,4c-0.1,0-0.2,0-0.3,0c0.3,3.8-0.3,9.7,0.1,14.5c-0.1,0.1-0.3,0-0.3,0.4c0.4,4.2-0.3,10.4,0.1,12.5
		c-0.4,0.2-0.5-1.8-0.3-2.8c-0.7,0.3-0.2,2.6-0.1,3.6c0-0.1-0.2,0.1-0.2,0c0.1,1.6,0.6,2.3,0.6,4c0.1,2.2-0.5,2.8-0.3,5.7
		c0.5-0.9,0,3,0.3,4c0-4.3,0.5,4.8-0.2,4.8c0-1.3-0.2-1.5-0.3-2.4c0,2.2-0.1,1.2-0.5,1.6c0.1,1.8-0.2,2-0.2,3.2
		c0.3-0.2,0.3-1.8,0.5-2.4c0,0.6,0.1,0.9,0.1,1.2c-0.1,0.9-0.6,1.6-0.2,2.4c-0.2,0-0.3,0.1-0.4,0.4c-0.3-6.5-0.4-8.8-0.1-14.9
		c-0.3-3.6,0.3-7.5-0.2-11.3c0.2-0.1,0.1-1.3,0.3-1.2c-0.3-5,0.7-10.4-0.1-14.5c0,1.1,0.1,2.8-0.2,2.8c0-1.3-0.3-6.9,0.4-5.7
		c-0.1-1-0.2-1.8-0.1-3.2c-0.4-0.6,0,2.1-0.3,2c-0.1-1.8-0.3-5.9,0.3-7.3c0-7.3-0.2-12.9,0.3-17.7c-0.5-0.2,0.2-0.8,0.2-1.6
		c-0.1-1-0.5,0.4-0.5-0.4c0-0.4-0.1-0.5-0.1-0.8c-0.1-1.5,0.2-1.4,0.3-2.4c-0.3-0.5-0.2-2.5-0.2-4c0.8-0.4,0.3-3.2,0.3-4.8
		c0.1-6.6,0.4-15.3,0.3-20.6c-0.3,4.1,0,5.5-0.5,8.9c0.4,4.8-0.1,10.9,0,16.1c-0.3,0-0.3,0.7-0.5,0.8c-0.2-0.5-0.2-1.5-0.3-2
		c-0.2,1.6,0.4,5.8-0.2,8.5c0.3,0.2,0.2,1.5,0.1,2.4c0.7,1.3,0.7,7.3,0.5,9.6c-0.2-0.1,0-3.7-0.2-2.4c0,1.2,0,2.5-0.3,2.4
		c-0.1-0.7,0.1-2.4-0.1-2.4c-0.1,1.3,0.1,3.9-0.6,3.3c-0.1,1.7,0.4-0.6,0.4,1.2c-0.1,0.1-0.1,0.3-0.1,0.8c-0.5,0.5-0.5-0.7-0.7-1.2
		c-0.3,1.8,0.2,1.9,0.3,2c-0.3,1.3-0.4-1-0.6,0c-0.2,1.7-0.2,3.6-0.2,4.4c0-0.5,0.1-0.6,0.2-0.8c-0.1,0.7,0.3,1.7,0,2
		c0-0.5,0-1.1-0.1-1.2c-0.3,2.3,0,5.9-0.5,7.3c0.1,1,0.3-0.7,0.4,0.4c0.2,2.3-0.3,2.1-0.4,3.6c0.1,0.2,0.5-0.5,0.5,0.4
		c0,1.4,0.2,3.9-0.3,3.6c-0.1-0.4-0.1-3.1-0.2-2c0.2,2.3,0,3.8,0.4,4.8c-0.1,1.6-0.5-0.3-0.6,1.2c0.1,0.6,0.4,0,0.4,0.8
		c-0.2,0.5-0.6,4.8-0.2,2.8c-0.1,1.7-0.1,2-0.1,4.4c0.1,0.1,0.4-0.2,0.4,0.4c-0.3,6.8,0.1,12.6-0.1,18.5c0.2,0.1,0.3-0.6,0.3,0
		c-0.2,2.3-0.3,4.1,0.1,5.6c-0.1,0-0.2-0.2-0.3-0.4c0.2,1.6,0,3.8-0.2,5.2c-0.4-1.1-0.1-3.2-0.7-3.6c0.1,2.8,0.9,4,0.7,7.2
		c0.2,0.5,0.4-1.1,0.4,0c-0.1,1.2-0.1,1.6,0.1,2.4c-0.3,0-0.4,1.2-0.5,2c0.4,3.2-0.3,6.3,0.3,9.2c-0.3,6.4-0.1,15.8,0.3,20.9
		c-0.2,0.4-0.1,2.3-0.5,2c0.4,2.3-0.2,3.6,0.2,5.2c0-0.5,0-1,0.2-0.8c0.1,1,0.1,1.1,0.1,2.8c-0.2,0.1-0.3,0-0.3,0.8
		c0.7,1.3,0,4.5-0.1,6.4c0.2,0.1,0.2-0.6,0.3-0.8c0.1,1.6,0.1,4.5-0.4,4.9c-0.1-1,0.4-1.4,0.1-2c0,0.6-0.2,0.5-0.3,0.8
		c0.6,4.3,0.4,10.4,0.4,13.3c0,1,0.3,1.5,0.3,2c0,1.3-0.5,2.3-0.3,4.4c0-0.4,0,0.6,0,1.6c0,0.4,0.2,4.6-0.2,5.6
		c-0.3,0.2-0.2-3.1-0.3-2c0,1.4,0.2,1.9,0,3.2c0.5-0.3,0.4,2.1,0.2,2.8c-0.2-1.3-0.2-3.1-0.5-3.6c0.2,2.5,0.6,7.1-0.3,6.9
		c0.1,0,0.1,0.7,0,0.8c-0.3-1.6-0.5-1-0.7-2.4c0.9,5.1-0.5,9.4,0.8,14c-0.2,0.1-0.2-0.4-0.4-0.4c0,1.3,0.3,1.1,0.2,2.8
		c-0.2-0.1-0.2,0.5-0.4,0.4c0,1,0.1,2.2,0.2,2.8c-0.1-1.8,0.2-2.6,0.5-2.9c-0.1,2.7,0.3,4-0.2,6.5c0.1-1.6-0.3-1.2-0.2-2.8
		c-0.2,0.4-0.6,0.2-0.6,1.6c0.1,0.1,0.4-0.2,0.4,0.4c-0.5-0.2-0.6,5-0.6,7.3c0.4,0.4,0.3-1,0.6-0.8c0,0.1-0.1,0.3-0.1,0.6
		c0,0-0.1,0-0.1,0c0,0.7,0,1-0.1,1.4c-0.1-0.2-0.2,0-0.4,0.1c-0.1,1.3,0.3,0.5,0.3,1.6c-0.4,0-0.2,2.1-0.5,2.4
		c0.3,1.7,0.1,2.3-0.2,2c0.3,1.5,0.2,2.1,0.5,3.2c-0.2,0.7-0.1,0-0.4,0c0.1,1.7,0.1,1.5-0.1,2.8c0.1,0.6,0.3,1,0.4,1.6
		c-0.2,0.7-0.1,1.6-0.3,0.4c-0.2,4.4,1,5.9,0.7,8c0.4,0.1,0.5,0.7,0.5,1.4c-0.3,0.6-0.4,3-0.4,5.2c0-0.1-0.1-0.1-0.1-0.2
		c0.2,0.9,0,2.2,0.1,2.4c0-0.1,0-0.3,0-0.4c0,0.6,0.1,1.1,0.1,1.6c0,0,0,0,0,0c0.4,2.2,0.3,4.9,0.3,7c-0.1-0.3-0.2-0.9-0.2-0.8
		c-0.2,0.8,0.1,2-0.3,3.2c0.2,0.1,0.2-0.5,0.4-0.4c0,0.8-0.3,0.8-0.3,1.6c0.2,1.2,0.4,2.5,0.4,3.9c0,0.2,0,0.3,0,0.2
		c0,0.3,0,0.6,0,0.9c-0.1,0.8-0.2,1.3-0.1,2c0-0.3,0-0.5,0.1-0.6c0,0.1,0,0.3,0,0.4c-0.1,0.1-0.1,0.5-0.1,1c0,0.1,0.1,0.2,0.1,0.3
		c0,4.3-0.2,8.8,0.2,12.7c0,0,0,0,0,0c-0.1,0.1-0.1,0.2-0.2,0.3c0.4-3.2-0.9-5.3-0.1-7.2c-0.6,0-0.2-1.4-0.4-3.2
		c-0.3,0.5-0.2-0.6-0.4-0.8c-0.1,1.9,0.1,1.1,0.2,1.6c-0.1,0.4,0,1.5-0.3,1.2c0-0.5,0-1.1-0.1-1.2c0.1,1.7,0,2.5-0.3,2.8
		c0.2,2.1,0,3.6,0.1,8c0.2,0.7,0.3-0.6,0.4,0.8c-0.4,5.3,0.5,10,0.3,14.1c0.2,0.5,0.3,0.1,0.5,0.1c0,0.5,0,1,0,1.5
		c-0.1,0.3-0.3,0.1-0.5-0.1c0.4,3.7-0.2,6.1-0.1,10.1c0.9,1.6,0.1,7.2,0.7,9.6c0-0.3,0-0.5-0.1-0.8c0.1,0.4,0.1,0.8,0.2,1.2
		c0,0-0.1,0-0.1,0c0.1,0.5,0.1,0.9,0.1,1.4c-0.1,0.4-0.1,1-0.1,1.7c0,0.5-0.1,0.9,0,1.2c0,0.3,0,0.6,0,0.9c-0.4,1.2-0.4,5-0.2,7.3
		c0-0.4-0.1,0.6-0.1,1.6c0.1,5.3,0,11.9,0.5,16.9c-0.2,0.1-0.4,0-0.3,0.8c0.3,0,0.5,0,0.5,1.2c-0.2,0.3-0.3-1.1-0.3,0.4
		c0.2,0.4,0.3,1.2,0.1,2c0.1,0.9,0.2-0.5,0.3,0.4c0,0.8-0.1,1.3-0.2,1.6c-0.2,0-0.1-1-0.3-0.8c0.2,1.5,0.1,1.8,0.3,3.6
		c0.2,0,0.2-0.5,0.2-0.9c0.2,0.4,0.2,1.3,0.3,1.8c-0.1,0-0.1,0.1-0.1,0.2c-0.1-0.2-0.2,0-0.3,0.4c0,0,0-0.1-0.1-0.1
		c0,0.1,0,0.2,0,0.3c-0.2,1-0.4,3-0.5,4c0-0.8-0.3-0.5-0.2-1.6c0.2-1.7,0.2-4-0.2-5.2c0.1-0.8,0.2-0.9,0.3-0.4
		c-0.3-4.7-0.1-8.2-0.7-12.4c0.4,1,0.2-4-0.1-2.8c0.3-5.5,0.1-14-0.6-18.9c0.2,2-0.2,5.6,0.2,7.2c-0.4-0.9-0.1,1.8,0.1,2
		c-0.1,0-0.2,0-0.3,0c0.1,17.3,0.4,36.5,0.3,51.5c0.4,1.6-0.1,7.2,0.6,8.8c-0.2,2.2-0.3,3-0.1,5.2c-0.6-0.9,0,2.5-0.5,2
		c0.2,1.8-0.3,4,0.1,4.8c0.1-2.5-0.2-4.1,0.3-4.8c-0.1,2.4,0.2,4.9-0.3,6.5c0.1,1.8,0.5,5.3,0.1,6.8c0.5,0.2-0.1,2.2,0.2,3.2
		c0.2,0.1,0.3-0.6,0.3,0c0.2,1.6-0.2,3.5,0,4.8c0-0.5,0-1,0.2-0.8c0.1,1.2-0.2,1.2-0.1,2.4c0.3,0.1,0.2-1.8,0.3-2.4
		c-0.3-0.8-0.4-5.4-0.1-6c0.2,1.4,0.4,1.8,0.1,3.2c0.3,0.3,0.2-0.8,0.4-0.8c0-1.3-0.3-1.4-0.3-2.8c0.3,0.2,0.4,1.1,0.6,1.6
		c0-1.5-0.4-1.1-0.4-2.4c0.1-0.3,0.2,0.4,0.3,0.4c0.1,1,0.2,2,0.2,2.9c-0.1,0.4-0.3,0.7-0.4,1.2c0.4,1.8,0.2,3.3,0,4.9
		c0-0.6,0-1.2,0-1.8c-0.3-0.6-0.3,2.4,0,2.1c-0.1,0.9-0.2,1.8-0.1,2.9c-0.3,0.1-0.1-1.6-0.4-1.2c0.8,4.1,0.2,11.1,0.5,16.9
		c-0.3,0.1,0.1-2.3-0.3-1.6c0.3,4.2,0,12,0.3,17.3c-0.3-1.2-0.1,1.5-0.4,1.6c-0.7-3.5-0.1-7.3-0.7-12c-0.1,0.2-0.5-0.4-0.5,0.4
		c0.9,1.2,0.4,6.3,0.7,9.6c-0.2,0.2-0.1,1.3-0.4,0.8c0.1,0.4,0.1,0.8,0.2,1.2c-0.1,0-0.1,0.1-0.2,0.2c0,0.4,0,0.8,0,1.2
		c0.1,0.1,0.2-0.2,0.3-0.4c0,0.5,0.1,1,0.1,1.6c-0.2,0.2-0.2,0.2-0.5,0c0.3,2.5,0.1,6.2-0.3,7.1c0,0,0,0.1-0.1,0.1c0,0,0,0,0,0
		c0,0,0-0.1,0.1-0.1c0-0.3-0.6-0.7-0.3-1.7c0,0.1,0.1,0.3,0.1,0.4c-0.1-0.5-0.2-1.1-0.2-1.8c0.1-0.3,0.1-0.5,0.2-0.7
		c0-0.9-0.1-1.7-0.2-2.4c0.1,0,0.1,0,0.2-0.1c0,1.1,0,2.5,0.1,3c0-1.9,0.1-3.2,0-4.4c0,0.3-0.1,0.5-0.2,0.4c0,0.2,0.1,0.4,0.1,0.7
		c-0.3-0.1-0.2-1.2-0.1-2.1c0,0.3,0.1,0.5,0.2,0.6c-0.2-1.7,0.2-1.5,0-2.4c0,0.5-0.1,0.3-0.2,0c0,0.5,0,0.9,0,1.4
		c-0.1,0.4-0.2,1-0.2,1.5c0-0.2,0-0.3-0.1-0.5c0,0.3,0,0.6,0,0.9c-0.1,0.6-0.2,1.1-0.3,1.4c0.3,0.3,0.1,0.7,0.1,2
		c-0.1,0.1-0.2,0-0.3,0.3c-0.1-0.5-0.3-1-0.4-0.9c-0.1,0.5-0.1,1.5,0.1,1.6c0-0.5,0-1,0.2-0.8c0,0.3,0,0.5,0,0.8c0.1,0,0.1,0,0.1,0
		c0,0.6-0.1,1.6,0.1,2.3c0.1-0.8,0.2-0.9,0.3-0.4c-0.1,2,0.2,4.3-0.3,6.5c0.6,0.2,0.3,1.7,0.2,3.2c0.1,0.1,0.4-0.1,0.4,0.3
		c0,0.1,0,0.2,0,0.3c-0.1,0.5-0.2,0.6-0.3,0.8c-0.1-2.3-0.4-3.8-0.4-6.1c-0.3,1.9-0.1,3-0.2,4.8c-0.1,0-0.2-0.2-0.3-0.4
		c0,5.8,0.1,9.7-0.5,14.1c0.1,0.1,0.3-0.1,0.3,0.4c-0.4,2.6-0.2,7.4-0.2,10.1c0-0.5,0-1,0.2-0.8c0,1.8,0.1,3.9-0.3,4
		c0,0.9,0.4,0.4,0.4,1.6c-0.2,1.3-0.6,1.8-0.8,3.3c0.4-1.3,0.6,5.4-0.1,3.6c-0.1,2.5,0.2,3.9-0.3,5.7c0.2,0.7,0.4,1.3,0.5,2.4
		c0.5-0.2,0.7,0,1,0.1c0.1,1.5,0.1,3,0.4,3.3c-0.2-1-0.1-2.6,0.1-3.1c0.1,0,0.2,0,0.4,0c-0.2-2.1-0.3-3.7,0.3-4.4
		c-0.3-0.4-0.3-3.7,0-4.4c-0.6-2.7,0.2-6.5,0.1-10.9c0.5,0.2,0.1-1.3,0.5-2c0,1.5,0.1,2.7,0.2,4c-0.3-0.6-0.4,0.1-0.6,0.8
		c0.3,0.5,0.2,2.6,0,3.2c0.4,0.5,0.2-1.7,0.4-2c0.2,1.5,0.2,3.4,0.4,4.8c-0.6,0.8-0.5,3.8-0.3,5.7c-0.2,0.8-0.3,0.8-0.5,0
		c0.5,3.7,0.3,8.3-0.1,10.9c0.7,1-0.2,4.3,0,5.6c0.1-0.6,0.2-1,0.3-1.2c-0.1,1.2,0.2,1.2,0.1,2.4c-0.4-0.1-0.4,1.5-0.5,2.4
		c0.2,0.4,0.3-1.2,0.4,0c-0.1,3.4-0.2,4.7,0.1,7.2c-0.3,0.4-0.6,0-0.6,2.5c0.2,0,0.3,0.1,0.4,0.4c0,0,0,0,0,0
		c-0.1,1.3-0.2,2.4,0.1,3.7c0,0,0,0,0,0c0,0,0,0,0,0c0,0.1,0.1,0.3,0.1,0.4c-0.1,0.6-0.1,1.6-0.4,1.2c0-0.8,0.4-0.3,0.3-1.6
		c0,0,0,0,0,0c-0.5,0.5-0.5-1.5-0.5-2.8c0,2.6-1.1,4.2-0.4,5.3c-0.2,4-0.6,6.7-1,10.9c-0.1-0.1-0.2-0.6-0.3-0.8
		c-0.2,2.1,0.5,3.4-0.1,3.6c0-2,0.1-4.3-0.2-5.2c0,0.8-0.1,1.3-0.2,1.6c0.2-1.8-0.4-0.4-0.2-3.6c-0.4,0.3-0.3-1.2-0.6-1.2
		c-0.2,1-0.1,2.7-0.4,3.2c-0.3-3.1-0.2-5,0.2-6.9c0.1,0.6-0.1,2.1,0.1,2c-0.1-2.2,0.4,1.4,0.3-0.8c-0.4-1.2-0.4-2.6-0.6-4
		c0.4,0.8-0.3-1.8,0.3-2.4c-0.1-0.7-0.3-0.8-0.4-1.6c0.6-3.2,0.5-9.3,0.7-12.5c-0.1,0.6-0.1,1.8-0.4,1.6c0-0.4-0.1-0.5-0.1-0.8
		c0.4-1.3-0.1-3.9,0.5-4.5c0-2.1-0.1-2,0.1-3.2c-0.2-0.3-0.5,0.2-0.4-2c0.2,0.1,0.2,1.1,0.4,1.2c0-3.2-0.4-8.9,0.2-10.9
		c-1.6-5.1,0.6-13.5-0.6-17.7c0.1,0,0.1-0.7,0.2-0.8c-0.1,1,0,1.4,0.3,1.2c0-2,0-2,0.2-4.8c-0.6,0.6-0.5,3.8-0.9,4.9
		c-0.2-0.9-0.1-2.9-0.1-4.4C9,539.3,9,542.9,9,544c0,0.1,0.3,0.2,0.3,0.8c0,0.6-0.3,1.1-0.3,1.6c-0.1,2.7,0.4,6.6-0.2,8.1
		c0.1-1.4-0.1-2.1-0.3-2.4c0.2,6.7,0,10.9,0.1,18.5c-0.1,0-0.1-0.3-0.2-0.4c0.2,2.6-0.1,5.5,0.3,8.4c-0.1-0.1-0.2-0.7-0.3-0.8
		c0.1,1.7,0.3,3,0.4,4.4c-0.2-0.8-0.3,1.4-0.6,1.6c0.2-0.1,0.3,0.3,0.3,1.2c-0.1,0.9-0.2-0.5-0.3,0.4c0.1,2.1,0.2,4.4,0.4,6
		c-0.2,0-0.3-2-0.5-0.8c0.5,2.5-0.2,9.3-0.3,11.7c0.1-1.2,0.3,1.2,0.1,1.6c0.3,0.5,0.3-1.6,0.4-0.4c-0.4,0.6-0.1,3.2-0.3,3.6
		c-0.4,0.6-0.1-1.4-0.3-1.2c-0.2,1.6-0.4,3.5-0.5,5.7c-0.5-3.8,0.3-11.2-0.5-16.5c-0.2,0.4,0.1,1.8,0.1,2.4
		c-0.7,0.3-0.1,1.4-0.3,2.4c-0.8-1,0-4.3-0.2-6c0,0.5,0,1-0.2,0.8c0-0.4-0.1-0.5-0.1-0.8c0.1-2.5,0.4-7-0.1-7.2c0-2,0.7-3.5,0.5-5.3
		c-0.2,2.1-0.4,4-0.9,4.9c-0.1,0-0.1-2.9-0.2-1.6c0.3,2.9,0.3,4,0.3,6.8c0.2-0.3,0-2,0.3-1.6c0,1.2,0.1,3.1-0.2,3.2
		c-0.2-1.2-0.5,0.6-0.3,0.8c0.1-1.1,0.4,0.3,0.4,0.8c-0.1,0.1-0.1,1-0.1,1.6c-0.2,0-0.3,0.1-0.4,0.4c0,1.2,0.1,1.9,0.2,2.8
		c-0.5,5.1,0.6,12.3,0.3,17.2c0.3,1,0,3,0.3,2.9c-0.1,0.5-0.3,2.7-0.1,2.8c0.2-0.3,0-1.9,0.2-2c0.1,0.1,0.2,0.4,0.2,0.8
		c-0.3,1.1-0.1,1.2,0,2.4c-0.1,0.4-0.2,0.8-0.3,1.2c0.2,2.5,0.1,3.6,0.2,6c-0.1,0-0.2-0.2-0.3-0.4c0.1,1.1,0.1,2-0.1,2.8
		c-0.1-1.2-0.3-2-0.5-2.8c0.2,1.8,0.1,4.6,0.5,5.2c0.1-0.7-0.3-1.7,0-2c0.1,1.2,0.2,2.3,0.4,3.2c-0.2,0-0.2,0.4-0.2,1.2
		c-0.3-0.9-0.6,0.5-0.7,1.3c0.4,0.2,0.4-0.9,0.7-0.9c-0.1,1.9,0.2,0.4,0.2,1.2c0.1,2.1-0.4,2.3-0.4,4c-0.3-0.5-0.4-2.1-0.6-2.8
		c-0.1,2.3,0.4,2.5,0.4,4.4c-0.3,0-0.3-0.7-0.4,0.4c0.6,2.5,0.4,7.7,0.5,10.8c0.2-0.6-0.2-1.2,0.1-1.6c0.1,0.1,0.1,0.9,0.2,1.2
		c-0.2,0.2-0.2,1.6-0.6,1.2c0.4,2.2,0.1,4.7,0.2,7.6c-0.1,0.4-0.7,1-0.4,2c0-0.5,0-1,0.2-0.8c0.1,1.7,0.1,2.9,0.1,5.6
		c-0.7,0.3-0.6,3.6-1,5.3c0.1,0.9,0.2-0.5,0.3,0.4c-0.5,4.2-0.4,6.7-0.7,12.1c-0.2-2.6-0.1,2.5-0.4,0.8c0.2,1.6,0.4,4.4,0.3,5.7
		c0.1-0.3,0.4-0.2,0.4,0.3c-0.2,0.8-0.4,0.1-0.2,1.6c-0.4-0.2-0.6,0.2-0.6,1.2c0.1,0.6,0.4,0,0.4,0.8c-0.2,1.3-0.1,1.6-0.2,2.4
		c-0.1-0.6-0.2-1-0.3-1.2c0.1,1.3-0.2,0.7-0.3,0.4c-0.1,1.2-0.2,2.5-0.4,3.2c0.5,0,0.7-1.1,1.1-0.1c0-1.3,0.5-1.1,0.7-1.6
		c0.1,5.9-0.3,13.8-1,19c-0.3-0.8-0.6-0.7-0.9,0.5c1.9,2.3-0.3,10.1,0.6,15.3c0.6,0.5,0.6-0.4,1.2-0.5c-0.1,3.2,0.5,3.9,0.8,5.2
		c0.2,2.4,0.1,3.4,0.2,6c-0.1,0.1-0.2,0.1-0.2,0.8c0.1,1.1,0.2-1.1,0.5-0.4c0.1,2.7,1,3.4,0.8,6c0.5-0.8,0.9,0,1.1,0.3
		c-0.1,0-0.1,1.1,0,1.2c0-0.6,0.1,0,0.1,0.8c-0.2-0.9-0.8,2.1-0.3,2.4c0.2-1.4,0.4-4,0.9-2.9c-0.1-1.4,0.1-2.1,0.3-2.4
		c0.2,0.5,0.3,1,0.4,1.6c0.2-0.4,0.3-1.1,0.5-1.6c0.3,1.8,0.6,6.4-0.1,8.5c0.1,1.6,1,3.3,0.3,4.8c0-0.6-0.2-1.8-0.5-2.4
		c0,1.6,0.6,3.6,0.1,4.8c-0.7-3.3-1.1-8.5-0.9-13.2c-0.5,3-0.1,8.5,0.4,12.5c-0.2,1.7-0.1,5.5,0.2,7.6c-0.1,0.9-0.3,1.1-0.4,2
		c0,3,1,9.9-0.2,9.7c-0.2,1.4,0.3,0.2,0.3,1.2c-0.1,0.7-0.2,1.4-0.5,1.2c-0.9-3.9-1.4-9.4-2.3-13.5c-0.3,1.1-0.4,2.8-0.9,2.9
		c0,8.9,2.4,12.1,2.4,21.2c0.9-1.4,1.4,2.4,2.2,0.3c0,0.7,0,1.3,0.1,1.6c0.8-0.5,1.4-1.2,1.9,0.7c0.2,0,0.1-1.1,0.2-1.2
		c0,1.4,0.4,1.1,0.6,1.6c0.1-0.3,0-1.5,0.2-1.6c2.2-1.8,3.3-4.3,5.7-8c0.5-3.2,1.4-4.6,1.9-7.8c0.4,1,0.9-2,1.3-0.9
		c0-0.9,0-1.5,0.2-1.6c0,0.9,0,1.5,0.2,1.6c-0.1-2,0.5-0.8,0.5-0.8c0.8-1.2,1.4-4.5,2.3-5.4c0.4,4.3-0.9,8.5-0.4,12.1
		c-0.3,1.4-0.3,3.8-0.9,4.1c0-1.3-0.1-2.4-0.4-2.4c-0.4,2.8-0.7,5.7-0.8,9.7c-0.9,0.6-0.6,5.9-0.9,8.9c-0.2,0-0.1-1.1-0.4-0.8
		c0.2,4.3,0,9.7-0.3,14.1c-1.2,1.7-0.9,10.7-2.1,11c-0.1,1.9-0.2,4-0.6,4.9c-0.5-0.5-0.8-2-1.5-1.5c-0.5,1.1-0.5,4.4-0.9,6.1
		c0.4,0.1,0.7,2.5,0.4,4c-0.2-0.3-0.2-1.2-0.4-1.6c-0.6,1.6-1.1,1.3-1.7,2.5c0,1.3,0.2,3.4-0.3,3.6c-0.1-0.7,0.3-1.7,0-2
		c0,1.3-0.4,1.2-0.4,2.4c0.7,0,0,1.6,0,2.4c0.2,1.1,0.5-0.2,0.8,0.8c0.1,5-1.8,8.7-0.9,12.1c0.1-0.5,0.1-1.8,0.1-2.8
		c0.8-2.7,1.5-6.2,2.1-9.8c0.1,0.1,0.2,0.6,0.4,0.4c-0.1-1.4-0.3-2.1-0.3-3.6c0.2-0.6,0.4-1.1,0.3-2.8c0.5,1.6,0.4-1.3,0.8-1.3
		c0.2,1.3,0.2,1.1,0.6,0.8c0,0.8,0.3,0.5,0.2,1.6c-0.2,3.6-0.5,7.8-0.6,12.5c0.7-1.8,0.8-5.7,1.2-8.5c0.9,0.5,1.2-1,1.8-3.3
		c0.1-1.3-0.3-0.3-0.2-1.6c1-1.2,1.8-5.1,3-4.2c-0.1,5,1.1,4.9,1,10c0.4,0.1,0.5,1.6,0.9,2c0.2-0.1,0.3-0.8,0.4-1.2
		c0.3,0.3,0.4,1.2,0.5,2c1.3,1.2,1-4,2-4.2c0.3,3.5,0.1,8.7,0.6,11.2c0.1-1.6,0.8-2.2,1-0.9c0.3-2.2,1.1-2.5,1.4-4.9
		c-0.5-4-1.7-3.7-2.1-8.3c1.6-2.7,1.3-14.5,1.6-18.2c0,0.5-0.1,0.8-0.3,0.8c-0.1-1.9,0.1-2.9,0.2-4c-0.4,0.3-0.2-2-0.4-2.4
		c-0.1,0.6-0.1,1.3-0.4,1.2c0-6.3-0.6-9.7-0.8-16.1c-0.1-0.1-0.3,0.1-0.3-0.4c0.1-8.6-0.5-14.2-0.7-22.1c-0.1-0.1-0.3,0.1-0.3-0.4
		c0.2-1.7,0.2-3.8,0.2-4.8c0,0.3-0.1,0.5-0.2,0.4c0.1-6.2-0.4-14.4,1-15.8c-0.1,0.6-0.1,1,0.1,1.2c0.1-1.2,0.5-3.3,0.9-2.1
		c-0.1-2.1,0.5-3.4,0.8-2.5c0.1-0.1,0.2-0.6,0.4-0.4c0.1-1.3,0.1-0.8-0.1-1.6c0.1,0,0.2-0.2,0.3-0.4c0,0.6,0,1.4,0.2,1.2
		c-0.1-2.7,0.4-0.6,0.7-1.7c-0.1-1.5-0.6-1-0.5-3.2c0.2,0.9,0.4-0.2,0.7,0c0,0.2-0.2,1.6,0,1.6c0-1,0.4-0.7,0.5-1.2
		c0-0.7,0-1.3-0.1-1.6c0.4,1.4,0-2.1,0.5-1.2c-0.3,2.7-0.1,4.9,0.1,7.6c-0.7,1.1-0.4,5.8-1.1,6.9c-0.1-0.5-0.1-0.9-0.2-1.2
		c-0.1,0.9-0.3,1-0.5,1.6c0.1,4.4-1.5,5-1.6,9.8c0.5,0.1,0.6,2.1,0.4,4c0.5,0,0.4,1.3,0.3,2.8c0.9-0.9,1.1,3.4,1.8,1.9
		c-0.1,0.5-0.1,1.5,0.1,1.6c0.2-0.3,0-2,0.3-1.6c0.1,0.1,0.1,1,0.1,1.6c1.1-0.3,1-4.9,1.7-6.5c0.6,6.3-0.9,9.4-0.5,14.5
		c-0.1,0-0.3,0-0.4,0c-0.3,4.9,1.3,4.7,1.1,8.8c0.6,2.1,1.1,4.8,1.3,8.4c0.1-0.4,0.3,2.5,0.6,2.8c0,6.7,1.9,0,2.5,1
		c0.4-1.3,0.6-3.1,1.2-3.7c0,1.5,0.2,1.2,0.3,0.4c0,0.5,0,1.1,0,1.6c0.6-0.1,0.7,1.3,1-0.5c-0.3-3.9,0.1-7.6,1-9.3
		c0,0.6,0.3,0.3,0.2,1.2c0.5,0.3,0.2-2,0.6-2.1c-0.1,2.8-0.9,3.1-1.1,5.7c0.3-0.3,0.3,0.6,0.5,0.4c0-0.8-0.1-0.9-0.1-1.6
		c0.2,0.8,0.3-0.8,0.6-0.8c0-1.7,0.2-1.5,0.3-3.2c-0.2-0.2-0.3-2.3-0.1-2.8c0,2.5,0.3-0.7,0.4,1.2c0.1-3.5,0.4-4.5,0.4-6.5
		c0.1,1.3,0.4,2.3,0.8,2.4c-0.1-1.1,0.2-0.8,0.3-1.2c0.2-5.1,1.2-7.3,1.4-13.4c0.6,1.6,0.2,5.3,0.4,9.2c0.3,0.6,0.5,1.7,1,1.5
		c-0.1-4.3,0.7-9.8,0-14.5c0.6-2.7-0.4-9-0.2-13.7c0.1-1.8,0-6.2-0.6-7.2c0-5.7-0.3-11.7-0.4-18.9c0.3-0.5,0.4,1.2,0.4-0.4
		c-0.5-2-0.2-6.8-0.5-8.8c-0.1,6.8-0.3,12.9-0.2,19.7c-0.1,0.1-0.2,0.7-0.3,0.8c0.2-4.3-1.3-10-0.5-9.2c-0.1-0.4,0.3-2.1,0.2-3.6
		c-0.9-0.9,0-4.2-0.1-6.8c-0.3,0.1-0.1-1.6-0.4-1.2c-0.3,0.1-0.3,1.6-0.6,1.6c-0.7-2.4-0.2-5.1-0.3-8.8c0.1-0.2,0.2-0.5,0.3,0
		c-0.1-1-0.3-3.8,0.2-3.6c0.2,2,0,0.7-0.1,2c0.4,0.8,0.6-0.1,0.7-1.2c0.2,1.2,0.7,1.1,0.8,2.8c0-0.8,0.1-1.4,0.2-1.6
		c0.2,0.3,0.2,1.5,0.5,1.6c-0.1-1.5-0.1-3.4,0.2-5.2c-0.5,0.1-0.4-2.5-0.3-3.2c0.3,0.5,0.3,1.6,0.2,2.8c0.5-0.8,0.1,1.6,0.5,1.2
		c0.1-1.6-1.1-5.9-0.2-8c-0.2,3.6,0.4,4.3,0.6,6.4c0.6,0.5,0.8-0.1,1-1.3c-0.1,0-0.2,0-0.3,0c0-0.8,0.1-1.1,0.1-1.6
		c0.1,0.2,0.2,0.5,0.2,0c0.3,0.1-0.1,0.7,0,1.5c0.1-0.7,0.1-1.5,0.2-2.4c0.3,0.7,0.5,1.6,0.5,3.5c-0.1-0.1-0.2-0.6-0.3-0.8
		c0.1,2.1,0.3,4.4,0.5,4.8c-0.2,1.9,0,1.5,0.1,2.8c0.1,2.1-0.2,5.4,0.3,6.4c0,0,0-0.1,0-0.1c-0.1,1-0.3,2.3-0.1,3.1
		c-0.1,0.2-0.2,0.5-0.3,0c0.6,3-0.6,5.2-0.3,8.9c0.1-1.7,0.6,1.5,0.5-1.6c-0.2-0.5-0.4,1.1-0.4,0c0.6,0.1,0.5-3.3,1-4.5
		c-0.5-2.1-0.1-4.3,0-7.1c0,0.1,0.1,0.1,0.1,0.2c0.1-0.2,0.1-0.6,0.1-1c0.2-0.4,0.5-1,0.3-1.7c0,1.1-0.1,0.6-0.3,0.1
		c0-1.3,0-2.6,0.3-2.7c0,0.8,0,1.6,0,2.4c0.3,0,0.3-2.1,0.6-0.8c-0.1-0.6,0.1-2.1-0.1-2c0,0.9-0.1,1.3-0.3,1.2c0-0.6,0-1.7,0-2.7
		c0.2-0.1,0.2-0.3,0.3-0.1c0.3,3.3,0.3,8.2,0.3,10.9c0.2,0.3,0.4,0.5,0.5,1.2c0-1.9,0-3.7-0.2-1.6c0-1.5,0.2-1.8,0.4-2.4
		c0.5,2.9-0.1,2.3,0,4.8c0.1-1.4,0.2-2,0.5-0.8c0.2-3.6,0.3-8.3,0.2-10.9c0.5-0.9,0.3-3.7,0.3-5.9c0.1,0,0.2,0.1,0.3,0.4
		c0-0.7-0.1-1.1-0.2-1.5c0.1-0.9,0.2-1.6,0.5-1.8c0-1.6-0.6-0.6-0.5-2.4c0.1-1.3,0.4-2.3,0.5-3.7c-0.2-0.7-0.2-1.8-0.1-2.7
		c0,0,0,0,0,0c0-0.3,0.1-0.5,0.2-0.4c0-0.3,0-0.5,0-0.7c0-0.1,0.1-0.2,0.1-0.2c0,0.5,0.1,0.4,0.2,0.7c0,0.2-0.1,0.3-0.2,0.3
		c0,0.6,0,1.3,0,1.8c-0.1,1.8,0,4.2,0.2,5.3c0-1.4,0.1-3.1,0.1-4.7c0,0,0,0,0,0c0,0,0,0,0,0c0-1.6,0-3.2-0.1-4.5
		c0,0.5,0,1.1-0.1,1.2c0-1.2-0.2-1.2-0.2-2.4c0.2-0.2,0.3,0.7,0.3,0.1c0,0.3,0,0.6,0,0.8c0-0.5,0.2-0.4,0.3-0.4c0,3,0,4,0.2,5.6
		c-0.1,0-0.1-0.3-0.2-0.4c0.1,4.5,0.2,8.4,0,11.3c0.1,0.4,0.3,0.6,0.4,1.2c-0.3,1-0.1,1.3,0.1,2c-0.2,0.8-0.6,0.5-0.4,1.6
		c0.3-1.4,0.3,1.6,0.4,2.4c-0.2,0-0.1,1.1-0.4,0.8c-0.2,0.1-0.1-1.2-0.3-1.2c0,2.7,0.3,2.6,0.8,2.8c0.2-1,0.2-2.6,0.3-3.6
		c-0.6-0.7-0.2-5.1,0-6c0,0.5,0.2,0.4,0.2,0.8c-0.1,0.1-0.3-0.1-0.3,0.4c0.6,2.3,0.3,4.8,0.2,8c0.4-1,0.3,0.7,0.7,0.8
		c0-3.2-0.1-6.4,0-9.3c-0.2,1.3-0.3-1.2-0.4-1.6c0.1-0.8,0.4-3.1,0.3-3.6c0,0.5-0.2,0.4-0.3,0.4c0.4-1.7,0.2-4.2,0.4-6.5
		c0,2.5,0.2,1.3,0.3,3.2c0.1-1.8,0.3-2.8-0.1-4c0.1,0,0.2,0,0.3,0c-0.3-3.8,0.3-9.7-0.1-14.5c0.1-0.1,0.3,0,0.3-0.4
		c-0.4-4.2,0.3-10.4-0.1-12.5c0.4-0.2,0.5,1.8,0.3,2.8c0.7-0.3,0.2-2.6,0.1-3.6c0,0.1,0.2-0.1,0.2,0c-0.1-1.6-0.6-2.3-0.6-4
		c-0.1-2.2,0.5-2.8,0.3-5.7c-0.5,0.9,0-3-0.3-4c0,4.3-0.5-4.8,0.2-4.8c0,1.3,0.2,1.5,0.3,2.4c0-2.2,0.1-1.2,0.5-1.6
		c-0.1-1.8,0.2-2,0.2-3.2c-0.3,0.2-0.3,1.8-0.5,2.4c0-0.6-0.1-0.9-0.1-1.2c0.1-0.9,0.6-1.6,0.2-2.4c0.2,0,0.3-0.1,0.4-0.4
		c0.3,6.5,0.4,8.8,0.1,14.9c0.3,3.6-0.3,7.5,0.2,11.3c-0.2,0.1-0.1,1.3-0.3,1.2c0.3,5-0.7,10.4,0.1,14.5c0-1.1-0.1-2.8,0.2-2.8
		c0,1.3,0.3,6.9-0.4,5.7c0.1,1,0.2,1.8,0.1,3.2c0.4,0.6,0-2.1,0.3-2c0.1,1.8,0.3,5.9-0.3,7.3c0,7.3,0.2,12.9-0.3,17.7
		c0.5,0.2-0.2,0.8-0.2,1.6c0.1,1,0.5-0.4,0.5,0.4c0,0.4,0.1,0.5,0.1,0.8c0.1,1.5-0.2,1.4-0.3,2.4c0.3,0.5,0.2,2.5,0.2,4
		c-0.8,0.4-0.3,3.2-0.3,4.8c-0.1,6.6-0.4,15.3-0.3,20.6c0.3-4.1,0-5.5,0.5-8.9c-0.4-4.8,0.1-10.9,0-16.1c0.3,0,0.3-0.7,0.5-0.8
		c0.2,0.5,0.2,1.5,0.3,2c0.2-1.6-0.4-5.8,0.2-8.5c-0.3-0.2-0.2-1.5-0.1-2.4c-0.7-1.3-0.7-7.3-0.5-9.6c0.2,0.1,0,3.7,0.2,2.4
		c0-1.2,0-2.5,0.3-2.4c0.1,0.7-0.1,2.4,0.1,2.4c0.1-1.3-0.1-3.9,0.6-3.3c0.1-1.7-0.4,0.6-0.4-1.2c0.1-0.1,0.1-0.3,0.1-0.8
		c0.5-0.5,0.5,0.7,0.7,1.2c0.3-1.8-0.2-1.9-0.3-2c0.3-1.3,0.4,1,0.6,0c0.2-1.7,0.2-3.6,0.2-4.4c0,0.5-0.1,0.6-0.2,0.8
		c0.1-0.7-0.3-1.7,0-2c0,0.5,0,1.1,0.1,1.2c0.3-2.3,0-5.9,0.5-7.3c-0.1-1-0.3,0.7-0.4-0.4c-0.2-2.3,0.3-2.1,0.4-3.6
		c-0.1-0.2-0.5,0.5-0.5-0.4c0-1.4-0.2-3.9,0.3-3.6c0.1,0.4,0.1,3.1,0.2,2c-0.2-2.3,0-3.8-0.4-4.8c0.1-1.6,0.5,0.3,0.6-1.2
		c-0.1-0.6-0.4,0-0.4-0.8c0.2-0.5,0.6-4.8,0.2-2.8c0.1-1.7,0.1-2,0.1-4.4c-0.1-0.1-0.4,0.2-0.4-0.4c0.3-6.8-0.1-12.6,0.1-18.5
		c-0.2-0.1-0.3,0.6-0.3,0c0.2-2.3,0.3-4.1-0.1-5.6c0.1,0,0.2,0.2,0.3,0.4c-0.2-1.6,0-3.8,0.2-5.2c0.4,1.1,0.1,3.2,0.7,3.6
		c-0.1-2.8-0.9-4-0.7-7.2c-0.2-0.5-0.4,1.1-0.4,0c0.1-1.2,0.1-1.6-0.1-2.4c0.3,0,0.4-1.2,0.5-2c-0.4-3.2,0.3-6.3-0.3-9.2
		c0.3-6.4,0.1-15.8-0.3-20.9c0.2-0.4,0.1-2.3,0.5-2c-0.4-2.3,0.2-3.6-0.2-5.2c0,0.5,0,1-0.2,0.8c-0.1-1-0.1-1.1-0.1-2.8
		c0.2-0.1,0.3,0,0.3-0.8c-0.7-1.3,0-4.5,0.1-6.4c-0.2-0.1-0.2,0.6-0.3,0.8c-0.1-1.6-0.1-4.5,0.4-4.9c0.1,1-0.4,1.4-0.1,2
		c0-0.6,0.2-0.5,0.3-0.8c-0.6-4.3-0.4-10.4-0.4-13.3c0-1-0.3-1.5-0.3-2c0-1.3,0.5-2.3,0.3-4.4c0,0.4,0-0.6,0-1.6
		c0-0.4-0.2-4.6,0.2-5.6c0.3-0.2,0.2,3.1,0.3,2c0-1.4-0.2-1.9,0-3.2c-0.5,0.3-0.4-2.1-0.2-2.8c0.2,1.3,0.2,3.1,0.5,3.6
		c-0.2-2.5-0.6-7.1,0.3-6.9c-0.1,0-0.1-0.7,0-0.8c0.3,1.6,0.5,1,0.7,2.4c-0.9-5.1,0.5-9.4-0.8-14c0.2-0.1,0.2,0.4,0.4,0.4
		c0-1.3-0.3-1.1-0.2-2.8c0.2,0.1,0.2-0.5,0.4-0.4c0-1-0.1-2.2-0.2-2.8c0.1,1.8-0.2,2.6-0.5,2.9c0.1-2.7-0.3-4,0.2-6.5
		c-0.1,1.6,0.3,1.2,0.2,2.8c0.2-0.4,0.6-0.2,0.6-1.6c-0.1-0.1-0.4,0.2-0.4-0.4c0.5,0.2,0.6-5,0.6-7.3c-0.4-0.4-0.3,1-0.6,0.8
		c0-0.1,0.1-0.3,0.1-0.6c0,0,0.1,0,0.1,0c0-0.7,0-1,0.1-1.4c0.1,0.2,0.2,0,0.4-0.1c0.1-1.3-0.3-0.5-0.3-1.6c0.4,0,0.2-2.1,0.5-2.4
		c-0.3-1.7-0.1-2.3,0.2-2c-0.3-1.5-0.2-2.1-0.5-3.2c0.2-0.7,0.1,0,0.4,0c-0.1-1.7-0.1-1.5,0.1-2.8c-0.1-0.6-0.3-1-0.4-1.6
		c0.2-0.7,0.1-1.6,0.3-0.4c0.2-4.4-1-5.9-0.7-8c-0.4-0.1-0.5-0.7-0.5-1.4c0.3-0.6,0.4-3,0.4-5.2c0,0.1,0.1,0.1,0.1,0.2
		c-0.2-0.9,0-2.2-0.1-2.4c0,0.1,0,0.3,0,0.4c0-0.6-0.1-1.1-0.1-1.6c0,0,0,0,0,0c-0.4-2.2-0.3-4.9-0.3-7c0.1,0.3,0.2,0.9,0.2,0.8
		c0.2-0.8-0.1-2,0.3-3.2c-0.2-0.1-0.2,0.5-0.4,0.4c0-0.8,0.3-0.8,0.3-1.6c-0.2-1.2-0.4-2.5-0.4-3.9c0-0.2,0-0.3,0-0.2
		c0-0.3,0-0.6,0-0.9c0.1-0.8,0.2-1.3,0.1-2c0,0.3,0,0.5-0.1,0.6c0-0.1,0-0.3,0-0.4c0.1-0.1,0.1-0.5,0.1-1c0-0.1-0.1-0.2-0.1-0.3
		c0-4.3,0.2-8.8-0.2-12.7c0,0,0,0,0,0c0.1-0.1,0.1-0.2,0.2-0.3c-0.4,3.2,0.9,5.3,0.1,7.2c0.6,0,0.2,1.4,0.4,3.2
		c0.3-0.5,0.2,0.6,0.4,0.8c0.1-1.9-0.1-1.1-0.2-1.6c0.1-0.4,0-1.5,0.3-1.2c0,0.5,0,1.1,0.1,1.2c-0.1-1.7,0-2.5,0.3-2.8
		c-0.2-2.1,0-3.6-0.1-8c-0.2-0.7-0.3,0.6-0.4-0.8c0.4-5.3-0.5-10-0.3-14.1c-0.2-0.5-0.3-0.1-0.5-0.1c0-0.5,0-1,0-1.5
		c0.1-0.3,0.3-0.1,0.5,0.1c-0.4-3.7,0.2-6.1,0.1-10.1c-0.9-1.6-0.1-7.2-0.7-9.6c0,0.3,0,0.5,0.1,0.8c-0.1-0.4-0.1-0.8-0.2-1.2
		c0,0,0.1,0,0.1,0c-0.1-0.5-0.1-0.9-0.1-1.4c0.1-0.4,0.1-1,0.1-1.7c0-0.5,0.1-0.9,0-1.2c0-0.3,0-0.6,0-0.9c0.4-1.2,0.4-5,0.2-7.3
		c0,0.4,0.1-0.6,0.1-1.6c-0.1-5.3,0-11.9-0.5-16.9c0.2-0.1,0.4,0,0.3-0.8c-0.3,0-0.5,0-0.5-1.2c0.2-0.3,0.3,1.1,0.3-0.4
		c-0.2-0.4-0.3-1.2-0.1-2c-0.1-0.9-0.2,0.5-0.3-0.4c0-0.8,0.1-1.3,0.2-1.6c0.2,0,0.1,1,0.3,0.8c-0.2-1.5-0.1-1.8-0.3-3.6
		c-0.2,0-0.2,0.5-0.2,0.9c-0.2-0.4-0.2-1.3-0.3-1.8c0.1,0,0.1-0.1,0.1-0.2c0.1,0.2,0.2,0,0.3-0.4c0,0,0,0.1,0.1,0.1
		c0-0.1,0-0.2,0-0.3c0.2-1,0.4-3,0.5-4c0,0.8,0.3,0.5,0.2,1.6c-0.2,1.7-0.2,4,0.2,5.2c-0.1,0.8-0.2,0.9-0.3,0.4
		c0.3,4.7,0.1,8.2,0.7,12.4c-0.4-1-0.2,4,0.1,2.8c-0.3,5.5-0.1,14,0.6,18.9c-0.2-2,0.2-5.6-0.2-7.2c0.4,0.9,0.1-1.8-0.1-2
		c0.1,0,0.2,0,0.3,0c-0.1-17.3-0.4-36.5-0.3-51.5c-0.4-1.6,0.1-7.2-0.6-8.8c0.2-2.2,0.3-3,0.1-5.2c0.6,0.9,0-2.5,0.5-2
		c-0.2-1.8,0.3-4-0.1-4.8c-0.1,2.5,0.2,4.1-0.3,4.8c0.1-2.4-0.2-4.9,0.3-6.5c-0.1-1.8-0.5-5.3-0.1-6.8c-0.5-0.2,0.1-2.2-0.2-3.2
		c-0.2-0.1-0.3,0.6-0.3,0c-0.2-1.6,0.2-3.5,0-4.8c0,0.5,0,1-0.2,0.8c-0.1-1.2,0.2-1.2,0.1-2.4c-0.3-0.1-0.2,1.8-0.3,2.4
		c0.3,0.8,0.4,5.4,0.1,6c-0.2-1.4-0.4-1.8-0.1-3.2c-0.3-0.3-0.2,0.8-0.4,0.8c0,1.3,0.3,1.4,0.3,2.8c-0.3-0.2-0.4-1.1-0.6-1.6
		c0,1.5,0.4,1.1,0.4,2.4c-0.1,0.3-0.2-0.4-0.3-0.4c-0.1-1-0.2-2-0.2-2.9c0.1-0.4,0.3-0.7,0.4-1.2c-0.4-1.8-0.2-3.3,0-4.9
		c0,0.6,0,1.2,0,1.8c0.3,0.6,0.3-2.4,0-2.1c0.1-0.9,0.2-1.8,0.1-2.9c0.3-0.1,0.1,1.6,0.4,1.2c-0.8-4.1-0.2-11.1-0.5-16.9
		c0.3-0.1-0.1,2.3,0.3,1.6c-0.3-4.2,0-12-0.3-17.3c0.3,1.2,0.1-1.5,0.4-1.6c0.7,3.5,0.1,7.3,0.7,12c0.1-0.2,0.5,0.4,0.5-0.4
		c-0.9-1.2-0.4-6.3-0.7-9.6c0.2-0.2,0.1-1.3,0.4-0.8c-0.1-0.4-0.1-0.8-0.2-1.2c0.1,0,0.1-0.1,0.2-0.2c0-0.4,0-0.8,0-1.2
		c-0.1-0.1-0.2,0.2-0.3,0.4c0-0.5-0.1-1-0.1-1.6c0.2-0.2,0.2-0.2,0.5,0c-0.3-2.5-0.1-6.2,0.3-7.1c0,0,0-0.1,0.1-0.1c0,0,0,0,0,0
		c0,0,0,0.1-0.1,0.1c0,0.3,0.6,0.7,0.3,1.7c0-0.1-0.1-0.3-0.1-0.4c0.1,0.5,0.2,1.1,0.2,1.8c-0.1,0.3-0.1,0.5-0.2,0.7
		c0,0.9,0.1,1.7,0.2,2.4c-0.1,0-0.1,0-0.2,0.1c0-1.1,0-2.5-0.1-3c0,1.9-0.1,3.2,0,4.4c0-0.3,0.1-0.5,0.2-0.4c0-0.2-0.1-0.4-0.1-0.7
		c0.3,0.1,0.2,1.2,0.1,2.1c0-0.3-0.1-0.5-0.2-0.6c0.2,1.7-0.2,1.5,0,2.4c0-0.5,0.1-0.3,0.2,0c0-0.5,0-0.9,0-1.4
		c0.1-0.4,0.2-1,0.2-1.5c0,0.2,0,0.3,0.1,0.5c0-0.3,0-0.6,0-0.9c0.1-0.6,0.2-1.1,0.3-1.4c-0.3-0.3-0.1-0.7-0.1-2
		c0.1-0.1,0.2,0,0.3-0.3c0.1,0.5,0.3,1,0.4,0.9c0.1-0.5,0.1-1.5-0.1-1.6c0,0.5,0,1-0.2,0.8c0-0.3,0-0.5,0-0.8c-0.1,0-0.1,0-0.1,0
		c0-0.6,0.1-1.6-0.1-2.3c-0.1,0.8-0.2,0.9-0.3,0.4c0.1-2-0.2-4.3,0.3-6.5c-0.6-0.2-0.3-1.7-0.2-3.2c-0.1-0.1-0.4,0.1-0.4-0.3
		c0-0.1,0-0.2,0-0.3c0.1-0.5,0.2-0.6,0.3-0.8c0.1,2.3,0.4,3.8,0.4,6.1c0.3-1.9,0.1-3,0.2-4.8c0.1,0,0.2,0.2,0.3,0.4
		c0-5.8-0.1-9.7,0.5-14.1c-0.1-0.1-0.3,0.1-0.3-0.4c0.4-2.6,0.2-7.4,0.2-10.1c0,0.5,0,1-0.2,0.8c0-1.8-0.1-3.9,0.3-4
		c0-0.9-0.4-0.4-0.4-1.6c0.2-1.3,0.6-1.8,0.8-3.3c-0.4,1.3-0.6-5.4,0.1-3.6c0.1-2.5-0.2-3.9,0.3-5.7c-0.2-0.7-0.4-1.3-0.5-2.4
		c-0.5,0.2-0.7,0-1-0.1c-0.1-1.5-0.1-3-0.4-3.3c0.2,1,0.1,2.6-0.1,3.1c-0.1,0-0.2,0-0.4,0c0.2,2.1,0.3,3.7-0.3,4.4
		c0.3,0.4,0.3,3.7,0,4.4c0.6,2.7-0.2,6.5-0.1,10.9c-0.5-0.2-0.1,1.3-0.5,2c0-1.5-0.1-2.7-0.2-4c0.3,0.6,0.4-0.1,0.6-0.8
		c-0.3-0.5-0.2-2.6,0-3.2c-0.4-0.5-0.2,1.7-0.4,2c-0.2-1.5-0.2-3.4-0.4-4.8c0.6-0.8,0.5-3.8,0.3-5.7c0.2-0.8,0.3-0.8,0.5,0
		c-0.5-3.7-0.3-8.3,0.1-10.9c-0.7-1,0.2-4.3,0-5.6c-0.1,0.6-0.2,1-0.3,1.2c0.1-1.2-0.2-1.2-0.1-2.4c0.4,0.1,0.4-1.5,0.5-2.4
		c-0.2-0.4-0.3,1.2-0.4,0c0.1-3.4,0.2-4.7-0.1-7.2c0.3-0.4,0.6,0,0.6-2.5c-0.2,0-0.3-0.1-0.4-0.4c0,0,0,0,0,0
		c0.1-1.3,0.2-2.4-0.1-3.7c0,0,0,0,0,0c0,0,0,0,0,0c0-0.1-0.1-0.3-0.1-0.4c0.1-0.6,0.1-1.6,0.4-1.2c0,0.8-0.4,0.3-0.3,1.6
		c0,0,0,0,0,0c0.5-0.5,0.5,1.5,0.5,2.8c0-2.6,1.1-4.2,0.4-5.3c0.2-4,0.6-6.7,1-10.9c0.1,0.1,0.2,0.6,0.3,0.8
		c0.2-2.1-0.5-3.4,0.1-3.6c0,2-0.1,4.3,0.2,5.2c0-0.8,0.1-1.3,0.2-1.6c-0.2,1.8,0.4,0.4,0.2,3.6c0.4-0.3,0.3,1.2,0.6,1.2
		c0.2-1,0.1-2.7,0.4-3.2c0.3,3.1,0.2,5-0.2,6.9c-0.1-0.6,0.1-2.1-0.1-2c0.1,2.2-0.4-1.4-0.3,0.8c0.4,1.2,0.4,2.6,0.6,4
		c-0.4-0.8,0.3,1.8-0.3,2.4c0.1,0.7,0.3,0.8,0.4,1.6c-0.6,3.2-0.5,9.3-0.7,12.5c0.1-0.6,0.1-1.8,0.4-1.6c0,0.4,0.1,0.5,0.1,0.8
		c-0.4,1.3,0.1,3.9-0.5,4.5c0,2.1,0.1,2-0.1,3.2c0.2,0.3,0.5-0.2,0.4,2c-0.2-0.1-0.2-1.1-0.4-1.2c0,3.2,0.4,8.9-0.2,10.9
		c1.6,5.1-0.6,13.5,0.6,17.7c-0.1,0-0.1,0.7-0.2,0.8c0.1-1,0-1.4-0.3-1.2c0,2,0,2-0.2,4.8c0.6-0.6,0.5-3.8,0.9-4.9
		c0.2,0.9,0.1,2.9,0.1,4.4c0.3-0.5,0.3-4.2,0.3-5.3c0-0.1-0.3-0.2-0.3-0.8c0-0.6,0.3-1.1,0.3-1.6c0.1-2.7-0.4-6.6,0.2-8.1
		c-0.1,1.4,0.1,2.1,0.3,2.4c-0.2-6.7,0-10.9-0.1-18.5c0.1,0,0.1,0.3,0.2,0.4c-0.2-2.6,0.1-5.5-0.3-8.4c0.1,0.1,0.2,0.7,0.3,0.8
		c-0.1-1.7-0.3-3-0.4-4.4c0.2,0.8,0.3-1.4,0.6-1.6c-0.2,0.1-0.3-0.3-0.3-1.2c0.1-0.9,0.2,0.5,0.3-0.4c-0.1-2.1-0.2-4.4-0.4-6
		c0.2,0,0.3,2,0.5,0.8c-0.5-2.5,0.2-9.3,0.3-11.7c-0.1,1.2-0.3-1.2-0.1-1.6c-0.3-0.5-0.3,1.6-0.4,0.4c0.4-0.6,0.1-3.2,0.3-3.6
		c0.4-0.6,0.1,1.4,0.3,1.2c0.2-1.6,0.4-3.5,0.5-5.7c0.5,3.8-0.3,11.2,0.5,16.5c0.2-0.4-0.1-1.8-0.1-2.4c0.7-0.3,0.1-1.4,0.3-2.4
		c0.8,1,0,4.3,0.2,6c0-0.5,0-1,0.2-0.8c0,0.4,0.1,0.5,0.1,0.8c-0.1,2.5-0.4,7,0.1,7.2c0,2-0.7,3.5-0.5,5.3c0.2-2.1,0.4-4,0.9-4.9
		c0.1,0,0.1,2.9,0.2,1.6c-0.3-2.9-0.3-4-0.3-6.8c-0.2,0.3,0,2-0.3,1.6c0-1.2-0.1-3.1,0.2-3.2c0.2,1.2,0.5-0.6,0.3-0.8
		c-0.1,1.1-0.4-0.3-0.4-0.8c0.1-0.1,0.1-1,0.1-1.6c0.2,0,0.3-0.1,0.4-0.4c0-1.2-0.1-1.9-0.2-2.8c0.5-5.1-0.6-12.3-0.3-17.2
		c-0.3-1,0-3-0.3-2.9c0.1-0.5,0.3-2.7,0.1-2.8c-0.2,0.3,0,1.9-0.2,2c-0.1-0.1-0.2-0.4-0.2-0.8c0.3-1.1,0.1-1.2,0-2.4
		c0.1-0.4,0.2-0.8,0.3-1.2c-0.2-2.5-0.1-3.6-0.2-6c0.1,0,0.2,0.2,0.3,0.4c-0.1-1.1-0.1-2,0.1-2.8c0.1,1.2,0.3,2,0.5,2.8
		c-0.2-1.8-0.1-4.6-0.5-5.2c-0.1,0.7,0.3,1.7,0,2c-0.1-1.2-0.2-2.3-0.4-3.2c0.2,0,0.2-0.4,0.2-1.2c0.3,0.9,0.6-0.5,0.7-1.3
		c-0.4-0.2-0.4,0.9-0.7,0.9c0.1-1.9-0.2-0.4-0.2-1.2c-0.1-2.1,0.4-2.3,0.4-4c0.3,0.5,0.4,2.1,0.6,2.8c0.1-2.3-0.4-2.5-0.4-4.4
		c0.3,0,0.3,0.7,0.4-0.4c-0.6-2.5-0.4-7.7-0.5-10.8c-0.2,0.6,0.2,1.2-0.1,1.6c-0.1-0.1-0.1-0.9-0.2-1.2c0.2-0.2,0.2-1.6,0.6-1.2
		c-0.4-2.2-0.1-4.7-0.2-7.6c0.1-0.4,0.7-1,0.4-2c0,0.5,0,1-0.2,0.8c-0.1-1.7-0.1-2.9-0.1-5.6c0.7-0.3,0.6-3.6,1-5.3
		c-0.1-0.9-0.2,0.5-0.3-0.4c0.5-4.2,0.4-6.7,0.7-12.1c0.2,2.6,0.1-2.5,0.4-0.8c-0.2-1.6-0.4-4.4-0.3-5.7c-0.1,0.3-0.4,0.2-0.4-0.3
		c0.2-0.8,0.4-0.1,0.2-1.6c0.4,0.2,0.6-0.2,0.6-1.2c-0.1-0.6-0.4,0-0.4-0.8c0.2-1.3,0.1-1.6,0.2-2.4c0.1,0.6,0.2,1,0.3,1.2
		c-0.1-1.3,0.2-0.7,0.3-0.4c0.1-1.2,0.2-2.5,0.4-3.2c-0.5,0-0.7,1.1-1.1,0.1c0,1.3-0.5,1.1-0.7,1.6c-0.1-5.9,0.3-13.8,1-19
		c0.3,0.8,0.6,0.7,0.9-0.5c-1.9-2.3,0.3-10.1-0.6-15.3c-0.6-0.5-0.6,0.4-1.2,0.5c0.1-3.2-0.5-3.9-0.8-5.2c-0.2-2.4-0.1-3.4-0.2-6
		c0.1-0.1,0.2-0.1,0.2-0.8c-0.1-1.1-0.2,1.1-0.5,0.4c-0.1-2.7-1-3.4-0.8-6c-0.5,0.8-0.9,0-1.1-0.3c0.1,0,0.1-1.1,0-1.2
		c0,0.6-0.1,0-0.1-0.8c0.2,0.9,0.8-2.1,0.3-2.4c-0.2,1.4-0.4,4-0.9,2.9c0.1,1.4-0.1,2.1-0.3,2.4c-0.2-0.5-0.3-1-0.4-1.6
		c-0.2,0.4-0.3,1.1-0.5,1.6c-0.3-1.8-0.6-6.4,0.1-8.5c-0.1-1.6-1-3.3-0.3-4.8c0,0.6,0.2,1.8,0.5,2.4c0-1.6-0.6-3.6-0.1-4.8
		c0.7,3.3,1.1,8.5,0.9,13.2c0.5-3,0.1-8.5-0.4-12.5c0.2-1.7,0.1-5.5-0.2-7.6c0.1-0.9,0.3-1.1,0.4-2c0-3-1-9.9,0.2-9.7
		c0.2-1.4-0.3-0.2-0.3-1.2c0.1-0.7,0.2-1.4,0.5-1.2c0.9,3.9,1.4,9.4,2.3,13.5c0.3-1.1,0.4-2.8,0.9-2.9c0-8.9-2.4-12.1-2.4-21.2
		c-0.9,1.4-1.4-2.4-2.2-0.3c0-0.7,0-1.3-0.1-1.6c-0.8,0.5-1.4,1.2-1.9-0.7c-0.2,0-0.1,1.1-0.2,1.2c0-1.4-0.4-1.1-0.6-1.6
		c-0.1,0.3,0,1.5-0.2,1.6c-2.2,1.8-3.3,4.3-5.7,8c-0.5,3.2-1.4,4.6-1.9,7.8c-0.4-1-0.9,2-1.3,0.9c0,0.9,0,1.5-0.2,1.6
		c0-0.9,0-1.5-0.2-1.6c0.1,2-0.5,0.8-0.5,0.8c-0.8,1.2-1.4,4.5-2.3,5.4c-0.4-4.3,0.9-8.5,0.4-12.1c0.3-1.4,0.3-3.8,0.9-4.1
		c0,1.3,0.1,2.4,0.4,2.4C52.5,2.9,52.9,0,52.9-4c0.9-0.6,0.6-5.9,0.9-8.9c0.2,0,0.1,1.1,0.4,0.8c-0.2-4.3,0-9.7,0.3-14.1
		c1.2-1.7,0.9-10.7,2.1-11c0.1-1.9,0.2-4,0.6-4.9c0.5,0.5,0.8,2,1.5,1.5c0.5-1.1,0.5-4.4,0.9-6.1c-0.4-0.1-0.7-2.5-0.4-4
		c0.2,0.3,0.2,1.2,0.4,1.6c0.6-1.6,1.1-1.3,1.7-2.5c0-1.3-0.2-3.4,0.3-3.6c0.1,0.7-0.3,1.7,0,2c0-1.3,0.4-1.2,0.4-2.4
		c-0.7,0,0-1.6,0-2.4c-0.2-1.1-0.5,0.2-0.8-0.8c-0.1-5,1.8-8.7,0.9-12.1C61.9-70.5,61.9-69.2,61.9-68.2z M30.6-4.6
		c0-0.3,0-0.5,0-0.8c0.3,0.1,0.5-1,0.5,0.8C30.8-4.9,30.8-3.9,30.6-4.6z M29.1,9.6c0.2,0.8,0,1.6-0.1,2.4
		C28.7,12.3,28.8,8.9,29.1,9.6z M43.2,15.1c0.1,0.3,0.2,0.8,0.2,1.6c-0.2-0.1-0.2,0.3-0.2,0.8C43,17.4,43.2,15.4,43.2,15.1z
		 M19.7,73.7c0.5-0.4,0.2,2,0.3,2C19.9,76.9,19.7,74.9,19.7,73.7z M12.3,510.6c0.1-0.3,0.1-0.6,0.2-0.9c0,0.3,0.1,0.5,0.1,0.8
		C12.4,510.5,12.3,511.5,12.3,510.6z M8.7,586.7c0.2,0.6,0.3,2.1,0.1,2.8C8.6,589.3,8.8,587.5,8.7,586.7z M10.5,607.1
		c0.1,0.3,0.2,0.4,0.4,0.4c0.1,1.2-0.3,0.8-0.2,2C10.5,609.5,10.5,608.2,10.5,607.1z M14,788.5c0,0.7-0.1,0.9-0.1,1.6
		c-0.3,0.4-0.3-0.6-0.5-0.4C13.6,789.2,13.7,788.3,14,788.5z M13.4,783.3c0.8,0.1,1-1.4,1.5,0.3c0.1,1.5-0.2,1.9-0.3,2.8
		c-0.9,0.4-0.9,0.2-1.6-0.7c-0.1-1.1,0-3.2-0.4-2.8c0.1-0.5,0.1-1.5,0.2-2C13.3,780.5,13.2,782.4,13.4,783.3z M10.7,766.9
		c-0.2-1-0.4-4.5,0.1-4.8C10.6,764,11.2,766.4,10.7,766.9z M45.4,804.6c0,0.3,0,0.5,0,0.8c-0.3-0.1-0.5,1-0.5-0.8
		C45.2,804.9,45.2,803.9,45.4,804.6z M46.9,790.4c-0.2-0.8,0-1.6,0.1-2.4C47.3,787.7,47.2,791.1,46.9,790.4z M32.8,784.9
		c-0.1-0.3-0.2-0.8-0.2-1.6c0.2,0.1,0.2-0.3,0.2-0.8C33,782.6,32.8,784.6,32.8,784.9z M45.8,754.3c-0.2,0-0.2,0.5-0.4,0.4
		c0-1,0-1.9,0.1-2.4C45.8,752.1,45.8,753.1,45.8,754.3z M12.3,741.9c0.1,3-1.1,4.2-1.5,1.7c0.3-1.6,0.3-4,1-4.1
		C11.9,740.8,11.9,742.6,12.3,741.9z M56.3,726.3c-0.5,0.4-0.2-2-0.3-2C56.1,723.1,56.3,725.1,56.3,726.3z M63.7,289.4
		c-0.1,0.3-0.1,0.6-0.2,0.9c0-0.3-0.1-0.5-0.1-0.8C63.6,289.5,63.7,288.5,63.7,289.4z M67.3,213.3c-0.2-0.6-0.3-2.1-0.1-2.8
		C67.4,210.7,67.2,212.5,67.3,213.3z M65.5,192.9c-0.1-0.3-0.2-0.4-0.4-0.4c-0.1-1.2,0.3-0.8,0.2-2
		C65.5,190.5,65.5,191.8,65.5,192.9z M61.2,355.9C61.2,355.9,61.2,355.9,61.2,355.9C61.2,356,61.2,355.9,61.2,355.9
		C61.2,355.9,61.2,355.9,61.2,355.9z M61,356.4c0,0.1,0,0.2,0,0.4C61,356.6,61,356.5,61,356.4C61,356.4,61,356.4,61,356.4z
		 M61.1,389.1c0,0.1-0.1,0.3-0.1,0.6c0,0,0,0,0.1,0c0,0.4,0,0.8,0,1.4c0-0.1-0.1-0.2-0.1-0.3c-0.1-1.3-0.2-2.9,0-4.7
		c0.1,0.1,0.2,0.4,0.3,0.4C61.2,387.4,61.1,388,61.1,389.1z M61.6,439.1c0.1,0.9,0,2.4-0.1,3.7c-0.2-1-0.3-2.6-0.2-3.7
		C61.5,439.2,61.6,439.9,61.6,439.1z M61.1,473.8c0.1,0.6,0.1,1.2,0.1,1.9c0,0.4,0,0.7,0,1.1c-0.3,0.3-0.3-0.7-0.6-0.4
		c0.2-0.6,0-2.8,0.4-2.4c-0.4-0.6,0-2.6,0-4c0,1.3,0.1,2.4,0.1,3.5C61.1,473.5,61.1,473.7,61.1,473.8z M61.5,483.7
		c0-0.6,0-1.2,0-1.7C61.5,482.6,61.5,483.1,61.5,483.7z M61.4,507.3c-0.1,2.1-0.3,2.9,0,4.4c-0.2,0-0.3,0-0.5,0
		c0.1-2.2-0.1-5.1,0.1-7.7C61.3,505.1,60.9,506.7,61.4,507.3z M62.3,523.7c0-0.4,0-0.9,0.1-1.5C62.4,522.6,62.3,523.2,62.3,523.7z
		 M62.4,543.7c0,0.2,0,0.4,0,0.6c-0.4,0.3-0.4,0.3-0.7-0.4C61.9,543.4,62.2,542.8,62.4,543.7z M57.5,625.9c0,0.2,0,0.4,0,0.6
		C57.5,626.3,57.5,626.1,57.5,625.9C57.5,625.9,57.5,625.9,57.5,625.9z M14.8,444.1C14.8,444.1,14.8,444.1,14.8,444.1
		C14.8,444,14.8,444.1,14.8,444.1C14.8,444.1,14.8,444.1,14.8,444.1z M15,443.6c0-0.1,0-0.2,0-0.4C15,443.4,15,443.5,15,443.6
		C15,443.6,15,443.6,15,443.6z M14.9,410.9c0-0.1,0.1-0.3,0.1-0.6c0,0,0,0-0.1,0c0-0.4,0-0.8,0-1.4c0,0.1,0.1,0.2,0.1,0.3
		c0.1,1.3,0.2,2.9,0,4.7c-0.1-0.1-0.2-0.4-0.3-0.4C14.8,412.6,14.9,412,14.9,410.9z M14.4,360.9c-0.1-0.9,0-2.4,0.1-3.7
		c0.2,1,0.3,2.6,0.2,3.7C14.5,360.8,14.4,360.1,14.4,360.9z M14.9,326.2c-0.1-0.6-0.1-1.2-0.1-1.9c0-0.4,0-0.7,0-1.1
		c0.3-0.3,0.3,0.7,0.6,0.4c-0.2,0.6,0,2.8-0.4,2.4c0.4,0.6,0,2.6,0,4c0-1.3-0.1-2.4-0.1-3.5C14.9,326.5,14.9,326.3,14.9,326.2z
		 M14.5,316.3c0,0.6,0,1.2,0,1.7C14.5,317.4,14.5,316.9,14.5,316.3z M14.6,292.7c0.1-2.1,0.3-2.9,0-4.4c0.2,0,0.3,0,0.5,0
		c-0.1,2.2,0.1,5.1-0.1,7.7C14.7,294.9,15.1,293.3,14.6,292.7z M13.7,276.3c0,0.4,0,0.9-0.1,1.5C13.6,277.4,13.7,276.8,13.7,276.3z
		 M13.6,256.3c0-0.2,0-0.4,0-0.6c0.4-0.3,0.4-0.3,0.7,0.4C14.1,256.6,13.8,257.2,13.6,256.3z M18.5,174.1c0-0.2,0-0.4,0-0.6
		C18.5,173.7,18.5,173.9,18.5,174.1C18.5,174.1,18.5,174.1,18.5,174.1z M62.1,267.1c0-0.2,0-0.5,0-0.7c0.2-0.1,0.3,0.6,0.3,1.3
		C62.3,267.5,62.2,267.3,62.1,267.1z M60.9,470.7c-0.2,0.7-0.6,0.4-0.5-1.2c0.6,1.2-0.1-1.8,0.5-2C60.8,469.1,60.9,468.9,60.9,470.7
		z M59.9,513.1c0.3,0,0.2,2.3,0.1,2.8c-0.3-0.2-0.4-1.1-0.4-2.4C59.7,513.5,59.9,513.5,59.9,513.1z M13.9,532.9c0,0.2,0,0.5,0,0.7
		c-0.2,0.1-0.3-0.6-0.3-1.3C13.7,532.5,13.8,532.7,13.9,532.9z M15.1,329.3c0.2-0.7,0.6-0.4,0.5,1.2c-0.6-1.2,0.1,1.8-0.5,2
		C15.2,330.9,15.1,331.1,15.1,329.3z M16.1,286.9c-0.3,0-0.2-2.3-0.1-2.8c0.3,0.2,0.4,1.1,0.4,2.4C16.3,286.5,16.1,286.5,16.1,286.9
		z M19.2,157.2c0.1-0.1,0.1,0.2,0.2,0.5c0,0.3,0,0.6,0,0.9C19.3,158.2,19.3,157.7,19.2,157.2z M19.5,161.7c0-0.5,0-0.8,0-1.2
		c0.1,0.3,0.1,0.8,0.1,1C19.6,161.6,19.5,161.7,19.5,161.7z M16.4,345.1C16.4,345.1,16.4,345.1,16.4,345.1c-0.1-0.2-0.1-0.3-0.1-0.5
		C16.4,344.7,16.4,344.9,16.4,345.1z M59.6,454.9C59.6,454.9,59.6,454.9,59.6,454.9c0.1,0.2,0.1,0.3,0.1,0.5
		C59.6,455.3,59.6,455.1,59.6,454.9z M15,277.4c-0.1,0-0.2,0-0.3,0c0-0.7,0-1.3,0-2C15,275.2,14.9,276.7,15,277.4z M16.6,279.7
		c-0.1,1.3-0.1,2.7-0.3,3.6c-0.4-0.3,0-1.6-0.1-3.2C16.4,280.1,16.4,279.6,16.6,279.7z M15.8,338.1c-0.3,0.1-0.4-1.4-0.2-2
		C15.8,336.4,15.8,337.1,15.8,338.1z M56.8,642.8c-0.1,0.1-0.1-0.2-0.2-0.5c0-0.3,0-0.6,0-0.9C56.7,641.8,56.7,642.3,56.8,642.8z
		 M56.5,638.3c0,0.5,0,0.8,0,1.2c-0.1-0.3-0.1-0.8-0.1-1C56.4,638.4,56.5,638.3,56.5,638.3z M61,522.6c0.1,0,0.2,0,0.3,0
		c0,0.7,0,1.3,0,2C61,524.8,61.1,523.3,61,522.6z M59.4,520.3c0.1-1.3,0.1-2.7,0.3-3.6c0.4,0.3,0,1.6,0.1,3.2
		C59.6,519.9,59.6,520.4,59.4,520.3z M60.2,461.9c0.3-0.1,0.4,1.4,0.2,2C60.2,463.6,60.2,462.9,60.2,461.9z M18.7,136.2
		c-0.1,2.3,0,2.8-0.1,5.2c0.5-2.3,0.3,5,0,5.6c-0.4-3.8,0.1-9-0.4-11.6C18.5,135.1,18.5,136.1,18.7,136.2z M19,137.4
		c0.8,2.6,0.3,6.9,0.4,11c-0.1-0.5-0.1-1.3-0.3-1.2c0,0.3,0,0.6,0,1C19,145.2,19.1,141,19,137.4z M18.8,164.5c0-0.1,0-0.1-0.1-0.2
		c0-0.6,0-1.4,0.1-2C18.8,163,18.8,163.8,18.8,164.5z M13.7,264.2c0,0.1,0,0.2,0,0.4C13.7,264.5,13.7,264.4,13.7,264.2z M14.3,275.8
		c0.1,0.4,0.1,1,0.1,1.6c-0.2,0.7,0,2.8,0.2,4.1C14.2,280.1,13.9,278.6,14.3,275.8z M14.7,279.8c0.1,0.2,0.2,0.3,0.3,0.4
		c-0.1,3.4,0,6.1-0.2,7.7c-0.5-1.2-0.5-4.3-0.2-5.9c0.1,0.5,0.1,0.8,0.1,0.8C14.7,282.1,14.7,280.9,14.7,279.8z M15.5,408.7
		c0-0.6,0-1.3-0.1-2c0.3-0.4,0.1,1.3,0.2,2C15.5,408.7,15.5,408.7,15.5,408.7z M14.2,509.8c-0.2,1.5,0,1.9-0.1,3.2
		C13.8,512.9,13.8,509.6,14.2,509.8z M13.4,519C13.4,519,13.4,519,13.4,519C13.4,519,13.4,519,13.4,519C13.4,519,13.4,519,13.4,519z
		 M13.2,518.4c-0.1-0.3-0.1-0.7-0.1-1C13.2,517.3,13.2,517.9,13.2,518.4z M13.5,535.3c0.1,0,0.1-0.2,0.1-0.4c0,0,0-0.1,0-0.1
		c0-0.1,0-0.2,0-0.3c0-0.3,0.1-0.5,0.2-0.4c0,1,0.2,0.9,0.1,2c-0.1,0.2-0.2,0.4-0.2,0.8c-0.2,0-0.2-1-0.3-1.4
		C13.5,535.4,13.5,535.3,13.5,535.3z M13.5,539c0.1,0.3,0.1,1,0.3,1.1c-0.1,0.5-0.2,0.7-0.3,0.8C13.5,540.3,13.5,539.7,13.5,539z
		 M57.3,663.8c0.1-2.3,0-2.8,0.1-5.2c-0.5,2.3-0.3-5,0-5.6c0.4,3.8-0.1,9,0.4,11.6C57.5,664.9,57.5,663.9,57.3,663.8z M57,662.6
		c-0.8-2.6-0.3-6.9-0.4-11c0.1,0.5,0.1,1.3,0.3,1.2c0-0.3,0-0.6,0-1C57,654.8,56.9,659,57,662.6z M57.2,635.5c0,0.1,0,0.1,0.1,0.2
		c0,0.6,0,1.4-0.1,2C57.2,637,57.2,636.2,57.2,635.5z M62.3,535.8c0-0.1,0-0.2,0-0.4C62.3,535.5,62.3,535.6,62.3,535.8z M61.7,524.2
		c-0.1-0.4-0.1-1-0.1-1.6c0.2-0.7,0-2.8-0.2-4.1C61.8,519.9,62.1,521.4,61.7,524.2z M61.3,520.2c-0.1-0.2-0.2-0.3-0.3-0.4
		c0.1-3.4,0-6.1,0.2-7.7c0.5,1.2,0.5,4.3,0.2,5.9c-0.1-0.5-0.1-0.8-0.1-0.8C61.3,517.9,61.3,519.1,61.3,520.2z M60.5,391.3
		c0,0.6,0,1.3,0.1,2c-0.3,0.4-0.1-1.3-0.2-2C60.5,391.3,60.5,391.3,60.5,391.3z M61.8,290.2c0.2-1.5,0-1.9,0.1-3.2
		C62.2,287.1,62.2,290.4,61.8,290.2z M62.6,281C62.6,281,62.6,281,62.6,281C62.6,281,62.6,281,62.6,281C62.6,281,62.6,281,62.6,281z
		 M62.8,281.6c0.1,0.3,0.1,0.7,0.1,1C62.8,282.7,62.8,282.1,62.8,281.6z M62.5,264.7c-0.1,0-0.1,0.2-0.1,0.4c0,0,0,0.1,0,0.1
		c0,0.1,0,0.2,0,0.3c0,0.3-0.1,0.5-0.2,0.4c0-1-0.2-0.9-0.1-2c0.1-0.2,0.2-0.4,0.2-0.8c0.2,0,0.2,1,0.3,1.4
		C62.5,264.6,62.5,264.7,62.5,264.7z M62.5,261c-0.1-0.3-0.1-1-0.3-1.1c0.1-0.5,0.2-0.7,0.3-0.8C62.5,259.7,62.5,260.3,62.5,261z
		 M26.3,79.9C26.3,79.9,26.3,79.9,26.3,79.9C26.3,79.9,26.3,79.9,26.3,79.9C26.3,79.9,26.3,79.9,26.3,79.9z M23,62.4
		c0.2,0,0.1,1.1,0.4,0.8c0.1,1.3-0.2,1.4-0.1,2.8c-0.1-0.1-0.1-0.7-0.1-1.2c-0.1-0.1-0.2,0.1-0.2,0.4C22.8,65,22.9,62.7,23,62.4z
		 M21.3,92.3c-0.1,0.6-0.1,1.3-0.2,2C21.1,93,21,91.8,21,90.7C21.1,91.2,21.3,91.5,21.3,92.3z M18.8,88.3c0.6,0.1,0,1.3,0.1,2.8
		C18.7,91,18.8,89.1,18.8,88.3z M20.7,90.2c0.3,0,0.2,1.9,0.1,2.4C20.6,92.6,20.8,90.9,20.7,90.2z M18.7,119.7
		c0.1,0.4,0.1,0.9,0.1,1.6c-0.1,0-0.3-0.1-0.3,0.4C18.3,121.4,18.4,119.2,18.7,119.7z M18.2,132.6c0.3-0.3,0.2,0.8,0.4,0.8
		c0.3-3.2,0-6.5,0.7-7.7c-0.1,2.8,0.1,3.9,0.3,6c-0.1,0.5-0.3,0.8-0.3,1.6c-0.2-0.6-0.2-1-0.1-2c-0.4,0.4-0.6,1.5-0.6,3.3
		C18.3,134.9,18.2,134,18.2,132.6z M17.8,135.1c0.4,0.3,0.1,1.4,0,2C17.5,137,17.7,135.3,17.8,135.1z M16.9,162.1c0.1,0,0.2,0,0.3,0
		c-0.3-6.3-0.4-14.2,0-21.3c0-0.4-0.2-0.3-0.2-0.8c0-0.9,0.1-1.7,0.2-2.4c0.3,0.1,0.2,2,0.2,3.2c0.1,0,0.3,0,0.3-0.4
		c0.2,3.9,0,11,0.6,16.9c-0.1,1.3-0.2,2.5-0.5,3.2c0.1,1.2,0.3-0.3,0.5,0c0.1,1-0.4,1.9-0.1,2.4c-0.1,1.2-0.1,0.5-0.4,0.4
		c0.2,2,0.3,3.5,0.2,4.8c0.3,0.4,0.2-1.3,0.2-2c0.1,0.2,0.1,0.6,0.2,0.9c0,0.9,0,1.9,0,2.9c0,0.6-0.1,1.1-0.2,1.5
		c-0.4,0.3-0.7-1.8-0.7,0.4c-0.4-1.8,0.3-6.4-0.1-7.2c-0.2,3.1,0.1,8.5-0.5,10.1C16.5,170.3,17.1,166.7,16.9,162.1z M18.6,175.1
		c0,0.2,0,0.5,0.1,0.7c-0.4-1.2-0.1,1-0.1,1.2c0,0,0,0-0.1,0c-0.2-0.9-0.3-0.9-0.7-0.5C18.2,175.1,18.5,174.7,18.6,175.1z M17.9,181
		c0.2,0,0.2-0.4,0.4-0.4c0,0.4,0,0.7,0,1.1c-0.1,0.5-0.2,0.7-0.2,1.7C18,183,18,181.7,17.9,181z M18.5,191.2c0,0.5,0,1.1,0,1.6
		c0-0.2,0-0.4-0.1-0.5C18.5,191.8,18.5,191.5,18.5,191.2z M18.7,198.6c0.2,0.6,0.3,2,0,3c0,0,0,0,0,0
		C18.7,200.7,18.7,199.6,18.7,198.6z M16.1,228.6c0.5,0.5,0.1,1.9,0.3,3.2C16.1,231.7,16.2,229.6,16.1,228.6z M14.3,239.2
		c-0.5-1.4,0.3-0.3,0.2-1.6c0.1,0.1,0.1,1,0.1,1.6c-0.1,0-0.3-0.1-0.3,0.4C14.2,239.5,14.3,239.2,14.3,239.2z M15.9,239.9
		c0,0.5,0,1.1,0,1.6c-0.1,0-0.2,0-0.3,0C15.7,240.7,15.7,239.8,15.9,239.9z M16.1,241.9c0.3,0,0.2,1.3,0.2,2.4c-0.1,0-0.2,0-0.3,0
		C15.9,243.3,15.9,242.3,16.1,241.9z M16.4,235.4c0.6,1.1,0.4,9.1,0.6,13.3C16.5,245.6,16.6,238.3,16.4,235.4z M13.7,258.1
		c0-0.5,0.2-1,0.2-0.4c0.1-0.3,0.1-0.9,0.3-0.8c-0.1,0.4-0.1,0.7,0,0.8c0,0.4-0.2,0.3-0.2,0.8C13.9,258.3,13.8,258.1,13.7,258.1z
		 M13.1,263.8c0.1,0.1,0.1,1,0.1,1.6c0.1-0.1,0.1-0.7,0.1-1.2c0.1-0.3,0.2,0.3,0.3,0.4c0,0.2,0,0.3,0,0.4c-0.1,0.5-0.3,1-0.4,1.2
		C13.2,264.8,12.9,265.2,13.1,263.8z M13.6,275.8C13.6,275.8,13.6,275.8,13.6,275.8C13.6,275.8,13.6,275.8,13.6,275.8
		C13.6,275.8,13.6,275.8,13.6,275.8z M13.4,277.1c0,0.1,0.1,0.2,0.1,0.3c0,0.4-0.1,0.8-0.1,1.5c0,0.1,0.1,0.2,0.1,0.3
		c0,0.1,0,0.3,0,0.4C13.3,279.4,13.4,277.8,13.4,277.1z M13.7,286.8c0-0.1,0-0.3,0.1-0.4c0.2,0.1,0.3-1.1,0.3-0.1
		c-0.2,1.1-0.2,2.1-0.1,3.6c0,0-0.1,0.1-0.1,0.1C13.9,288.2,13.9,286.8,13.7,286.8z M13.9,290.3C13.9,290.3,13.9,290.3,13.9,290.3
		c0,0.9,0.2,1.2,0.1,2.4c0,0-0.1,0-0.1,0C13.9,291.9,13.9,291.1,13.9,290.3z M14.1,301.2c0,0.4,0.1,0.7,0.1,0.9c0,0.5,0,1-0.1,1.2
		C14,302.5,14,301.8,14.1,301.2z M12.9,320.2c0.1-0.5,0.1-1.8,0.1-2.8c0.2,0,0.3-0.3,0.3-0.8c0.2,0,0.2,1,0.2,2
		c-0.2-0.7-0.2,0.3-0.4-0.4C13.1,318.9,13.3,320.6,12.9,320.2z M13.1,322.2c0.3,1.1,0.1,1.6,0,2.8C12.9,323.9,13.1,323.4,13.1,322.2
		z M14.2,346.3c0,0.4,0,0.9,0,1.3c-0.1,0.7-0.2,1.3-0.5,1.5C13.8,347.9,13.9,346.7,14.2,346.3z M14.2,358.1c0,0.8,0,1.5,0,2.3
		C14.1,359.6,14.1,358.8,14.2,358.1z M15,401c0,0,0,0.1,0,0.1c0,0-0.1,0-0.1,0C14.9,401.1,14.9,401,15,401z M14.9,404.2
		C14.9,404.2,14.9,404.2,14.9,404.2c0.1,0.3,0.1,0.5,0,0.5c0-0.2,0-0.3-0.1-0.3C14.8,404.3,14.8,404.2,14.9,404.2z M14.7,405.7
		c0.1-0.4,0.1-0.9,0.3-0.6c0,1,0.1,1.2,0.2,1.9c0,0,0,0.1,0,0.1c-0.1,0.4-0.1,0.9-0.1,1.4C14.9,408.2,14.6,406.9,14.7,405.7z
		 M14.2,412.7c0.4,0.5,0.3,2.3,0.1,3.2C14.2,416.5,14.3,414.2,14.2,412.7z M15,415c0,0.1,0.1,0.2,0.1,0.3c0,0.1-0.1,0.3-0.1,0.4
		c0-0.1,0-0.1-0.1-0.1c0,0.1,0,0.1,0.1,0.2c-0.2,1.1-0.3,2.3-0.2,3.7C14.2,418.9,14.6,415.5,15,415z M14.5,419.9
		c0.4-0.4,0.4,1.8,0.2,2.4C14.6,421.8,14.5,420.9,14.5,419.9z M14.7,423.1c0,1.6,0.1,3.9-0.1,4.8C14.4,427.1,14.3,423.6,14.7,423.1z
		 M14.9,429.6c0-0.3,0.1-0.4,0.1-0.5c0,0.2,0,0.5,0,0.7C14.9,429.6,14.9,429.5,14.9,429.6z M15,431.8c0,0.1,0,0.2,0,0.3
		c0-0.1,0-0.1,0-0.2C15,431.9,15,431.9,15,431.8z M14.9,439.2c0.1-2.6,0.1-2.9-0.1-5.2c0.1,0.1,0.2-0.2,0.3-0.3
		c0,1.8,0.1,3.5,0.1,5.3C15.1,439.2,15,439.4,14.9,439.2z M15.1,439.8c0,0.5,0,1,0,1.5c-0.1,0-0.2-0.5-0.2-0.1c0,0,0,0,0,0
		C14.9,440.5,15,440.1,15.1,439.8z M14.4,442.1c0.1,0,0.3,0,0.4,0c0,0.2,0,0.4,0,0.7c0-0.1,0-0.1-0.1-0.1c0,0.4,0,1-0.1,1.4
		c0-0.2-0.1-0.3-0.1-0.3c-0.1,0.4,0,0.7,0,1.1c0,0.1,0,0.2,0.1,0.2c0.1,0.5,0.3,1.2,0.2,2.3C14.5,446,14,444.2,14.4,442.1z
		 M14.3,448.9c0.1,0.1,0.1,1,0.1,1.6c-0.1,0-0.2,0-0.3,0C14,449.3,14.3,449.5,14.3,448.9z M14.7,451.3c0.1,1.2-0.3,2.3-0.4,1.2
		c0.3-0.9,0.1-1.7,0.3-3.2c0.1,0,0.1-0.3,0.2-0.4c0,1.9,0.6,1.6,0.1,0.4c0.1-1.5,0.1-3.1,0.2-4.5c0.3,4.9,0.8,12.6-0.1,10.7
		c0,0.3,0,0.8-0.1,0.8c0-0.3,0-0.6,0-0.9c0.1-0.5,0.2-1,0.2-1.3C14.5,454.4,15.1,452.1,14.7,451.3z M15.1,456.6
		c0.1,0.2,0.1,0.3,0.1,0.3c0.1,0.9,0,1.1-0.1,2c0.2,0,0.3-1.1,0.4-2c0,0,0,0.1,0,0.1c-0.1,1.5-0.2,2.3-0.2,3.2
		c-0.1,0.2-0.2,0.4-0.2,0.7c0.1,0.1,0.1,0.2,0.2,0.3c0,0.4,0,0.8,0,1.3c0,0,0,0,0,0c0,0,0,0,0,0c0,0,0,0.1,0,0.1
		C14.9,461.8,15.1,458.7,15.1,456.6z M15.2,463.5c0.1-0.1,0.2,0,0.2,0.2c-0.1,0.5-0.1,1,0,1.2c0,0.5-0.1,0.9-0.1,1
		C15.1,465.6,15,464.1,15.2,463.5z M14,503c0.2-0.1,0.2,0.4,0.3,0.4c0,1.3-0.2,1.7-0.1,3.2C13.9,506.5,13.9,503.9,14,503z
		 M13.7,505.4c0,1.1,0.1,2.3,0,3.5C13.6,507.6,13.4,506.2,13.7,505.4z M13.7,510.7c0,0.5,0,1-0.1,1.5c0-0.3-0.1-0.6-0.1-0.8
		C13.6,511.1,13.7,510.9,13.7,510.7z M12.4,523.1c-0.2,0.7,0,0.8,0.1,1.5c0,0.4-0.1,0.8-0.2,1.1c0-1,0-1.8,0-2.5
		C12.3,523.1,12.4,523.1,12.4,523.1z M11.9,523.3c0,0.2,0.1,0.4,0.1,0.6c0,0.1,0,0.3,0,0.4c0,0.6,0,1.2,0,1.9
		C11.6,525.7,12,524.7,11.9,523.3z M11.7,526.9c0.2,0.4,0.2,1.2,0.2,2.4C11.7,529.1,11.5,527.8,11.7,526.9z M13.2,528.2
		c0,0.2,0.1,0.3,0.1,0.5c0,0.5-0.1,1.1-0.1,1.4C12.8,529.7,13,528.7,13.2,528.2z M11.2,540.6c-0.1-0.5-0.1-1.5,0-2
		C11.5,538.5,11.6,540.8,11.2,540.6z M13.3,539.7c0.1,0.3,0.1,0.7,0.1,1.2c0,0,0,0,0,0C13.3,540.6,13.3,540.2,13.3,539.7z
		 M12.4,551.4c-0.2-0.1-0.2,0.3-0.2,0.8c-0.3-0.8,0.3-1.5,0-2.8c0.1,0.1,0.2-0.1,0.2-0.4C12.6,549.9,12.2,549.8,12.4,551.4z
		 M13.2,588.4c0,0.6,0,1.1,0,1.6C13.2,589.2,12.9,588.7,13.2,588.4z M12.8,605.7c0.3-1.3,0.2-2.3,0.3-3.6
		C13.3,602.8,13.4,606.5,12.8,605.7z M6.4,601.3c0.2,0.3,0.3,1.9,0.2,2.4C6.4,603.4,6.4,602.5,6.4,601.3z M5.7,604.2
		c0-0.5,0-1.1,0-1.6C6.1,602.2,6.1,604.5,5.7,604.2z M6.1,611c0-2,0.4-3.6,0.2-5.2c0.1-0.4,0.4-0.3,0.3-1.6c0.5,2.2,0,5.9,0.1,8
		C6.6,611.5,6.4,611.1,6.1,611z M11.4,608.2c0.1,0,0.2,0,0.3,0c0.2,2-0.1,3-0.2,5.2C11.3,611.9,11.6,610.2,11.4,608.2z M11.1,623.2
		c0.3-1.9,0.5-5.8,0.1-6.4c0-0.7,0.2-0.9,0.4-0.8c-0.1-1.2-0.2-0.4-0.4-0.4c0-1.2,0.4-1,0.5-2c0.3,3.4-0.3,6.1,0,10.1
		C11.4,623.1,11.5,623.4,11.1,623.2z M11.2,627.2c0.2-0.9,0-1.6,0-2.8c0.4,0,0.4,1.7,0.4,3.2C11.4,627.6,11.4,627.1,11.2,627.2z
		 M4.6,692c0-1.1,0.4-0.3,0.3-1.6c0.4,1-0.1,2.1-0.1,3.6C4.5,694.2,4.9,691.8,4.6,692z M5.6,712.5c-0.3-2-0.3-3.4-0.3-5.6
		c0.1-0.5,0.4-0.5,0.5,0c0.1-1.3,0.2-2.8,0.4-3.6c0.2,2.3-0.2,4.6,0.2,6.8c0,1.4-0.5,0.8-0.4,2.4C5.8,712.9,5.7,711.3,5.6,712.5z
		 M49.7,720.1C49.7,720.1,49.7,720.1,49.7,720.1C49.7,720.1,49.7,720.1,49.7,720.1C49.7,720.1,49.7,720.1,49.7,720.1z M53,737.6
		c-0.2,0-0.1-1.1-0.4-0.8c-0.1-1.3,0.2-1.4,0.1-2.8c0.1,0.1,0.1,0.7,0.1,1.2c0.1,0.1,0.2-0.1,0.2-0.4C53.2,735,53.1,737.3,53,737.6z
		 M54.7,707.7c0.1-0.6,0.1-1.3,0.2-2c0.1,1.3,0.1,2.5,0.1,3.6C54.9,708.8,54.7,708.5,54.7,707.7z M57.2,711.7
		c-0.6-0.1,0-1.3-0.1-2.8C57.3,709,57.2,710.9,57.2,711.7z M55.3,709.8c-0.3,0-0.2-1.9-0.1-2.4C55.4,707.4,55.2,709.1,55.3,709.8z
		 M57.3,680.3c-0.1-0.4-0.1-0.9-0.1-1.6c0.1,0,0.3,0.1,0.3-0.4C57.7,678.6,57.6,680.8,57.3,680.3z M57.8,667.4
		c-0.3,0.3-0.2-0.8-0.4-0.8c-0.3,3.2,0,6.5-0.7,7.7c0.1-2.8-0.1-3.9-0.3-6c0.1-0.5,0.3-0.8,0.3-1.6c0.2,0.6,0.2,1,0.1,2
		c0.4-0.4,0.6-1.5,0.6-3.3C57.7,665.1,57.8,666,57.8,667.4z M58.2,664.9c-0.4-0.3-0.1-1.4,0-2C58.5,663,58.3,664.7,58.2,664.9z
		 M59.1,637.9c-0.1,0-0.2,0-0.3,0c0.3,6.3,0.4,14.2,0,21.3c0,0.4,0.2,0.3,0.2,0.8c0,0.9-0.1,1.7-0.2,2.4c-0.3-0.1-0.2-2-0.2-3.2
		c-0.1,0-0.3,0-0.3,0.4c-0.2-3.9,0-11-0.6-16.9c0.1-1.3,0.2-2.5,0.5-3.2c-0.1-1.2-0.3,0.3-0.5,0c-0.1-1,0.4-1.9,0.1-2.4
		c0.1-1.2,0.1-0.5,0.4-0.4c-0.2-2-0.3-3.5-0.2-4.8c-0.3-0.4-0.2,1.3-0.2,2c-0.1-0.2-0.1-0.6-0.2-0.9c0-0.9,0-1.9,0-2.9
		c0-0.6,0.1-1.1,0.2-1.5c0.4-0.3,0.7,1.8,0.7-0.4c0.4,1.8-0.3,6.4,0.1,7.2c0.2-3.1-0.1-8.5,0.5-10.1
		C59.5,629.7,58.9,633.3,59.1,637.9z M57.4,624.9c0-0.2,0-0.5-0.1-0.7c0.4,1.2,0.1-1,0.1-1.2c0,0,0,0,0.1,0c0.2,0.9,0.3,0.9,0.7,0.5
		C57.8,624.9,57.5,625.3,57.4,624.9z M58.1,619c-0.2,0-0.2,0.4-0.4,0.4c0-0.4,0-0.7,0-1.1c0.1-0.5,0.2-0.7,0.2-1.7
		C58,617,58,618.3,58.1,619z M57.5,608.8c0-0.5,0-1.1,0-1.6c0,0.2,0,0.4,0.1,0.5C57.5,608.2,57.5,608.5,57.5,608.8z M57.3,601.4
		c-0.2-0.6-0.3-2,0-3c0,0,0,0,0,0C57.3,599.3,57.3,600.4,57.3,601.4z M59.9,571.4c-0.5-0.5-0.1-1.9-0.3-3.2
		C59.9,568.3,59.8,570.4,59.9,571.4z M61.7,560.8c0.5,1.4-0.3,0.3-0.2,1.6c-0.1-0.1-0.1-1-0.1-1.6c0.1,0,0.3,0.1,0.3-0.4
		C61.8,560.5,61.7,560.8,61.7,560.8z M60.1,560.1c0-0.5,0-1.1,0-1.6c0.1,0,0.2,0,0.3,0C60.3,559.3,60.3,560.2,60.1,560.1z
		 M59.9,558.1c-0.3,0-0.2-1.3-0.2-2.4c0.1,0,0.2,0,0.3,0C60.1,556.7,60.1,557.7,59.9,558.1z M59.6,564.6c-0.6-1.2-0.4-9.1-0.6-13.3
		C59.5,554.4,59.4,561.7,59.6,564.6z M62.3,541.9c0,0.5-0.2,1-0.2,0.4c-0.1,0.3-0.1,0.9-0.3,0.8c0.1-0.4,0.1-0.7,0-0.8
		c0-0.4,0.2-0.3,0.2-0.8C62.1,541.7,62.2,541.9,62.3,541.9z M62.9,536.2c-0.1-0.1-0.1-1-0.1-1.6c-0.1,0.1-0.1,0.7-0.1,1.2
		c-0.1,0.3-0.2-0.3-0.3-0.4c0-0.2,0-0.3,0-0.4c0.1-0.5,0.3-1,0.4-1.2C62.8,535.2,63.1,534.8,62.9,536.2z M62.4,524.2
		C62.4,524.2,62.4,524.2,62.4,524.2C62.4,524.2,62.4,524.2,62.4,524.2C62.4,524.2,62.4,524.2,62.4,524.2z M62.6,522.9
		c0-0.1-0.1-0.2-0.1-0.3c0-0.4,0.1-0.8,0.1-1.5c0-0.1-0.1-0.2-0.1-0.3c0-0.1,0-0.3,0-0.4C62.7,520.6,62.6,522.2,62.6,522.9z
		 M62.3,513.2c0,0.1,0,0.3-0.1,0.4c-0.2-0.1-0.3,1.1-0.3,0.1c0.2-1.1,0.2-2.1,0.1-3.6c0,0,0.1-0.1,0.1-0.1
		C62.1,511.8,62.1,513.2,62.3,513.2z M62.1,509.7C62.1,509.7,62.1,509.7,62.1,509.7c0-0.9-0.2-1.2-0.1-2.4c0,0,0.1,0,0.1,0
		C62.1,508.1,62.1,508.9,62.1,509.7z M61.9,498.8c0-0.4-0.1-0.7-0.1-0.9c0-0.5,0-1,0.1-1.2C62,497.5,62,498.2,61.9,498.8z
		 M63.1,479.8c-0.1,0.5-0.1,1.8-0.1,2.8c-0.2,0-0.3,0.3-0.3,0.8c-0.2,0-0.2-1-0.2-2c0.2,0.7,0.2-0.3,0.4,0.4
		C62.9,481.1,62.7,479.4,63.1,479.8z M62.9,477.8c-0.3-1.1-0.1-1.6,0-2.8C63.1,476.1,62.9,476.6,62.9,477.8z M61.8,453.7
		c0-0.4,0-0.9,0-1.3c0.1-0.7,0.2-1.3,0.5-1.5C62.2,452.1,62.1,453.3,61.8,453.7z M61.8,441.9c0-0.8,0-1.5,0-2.3
		C61.9,440.4,61.9,441.2,61.8,441.9z M61,399c0,0,0-0.1,0-0.1c0,0,0.1,0,0.1,0C61.1,398.9,61.1,399,61,399z M61.1,395.8
		C61.1,395.8,61.1,395.8,61.1,395.8c-0.1-0.3-0.1-0.5,0-0.5c0,0.2,0,0.3,0.1,0.3C61.2,395.7,61.2,395.8,61.1,395.8z M61.3,394.3
		c-0.1,0.4-0.1,0.9-0.3,0.6c0-1-0.1-1.2-0.2-1.9c0,0,0-0.1,0-0.1c0.1-0.4,0.1-0.9,0.1-1.4C61.1,391.8,61.4,393.1,61.3,394.3z
		 M61.8,387.3c-0.4-0.5-0.3-2.3-0.1-3.2C61.8,383.5,61.7,385.8,61.8,387.3z M61,385c0-0.1-0.1-0.2-0.1-0.3c0-0.1,0.1-0.3,0.1-0.4
		c0,0.1,0,0.1,0.1,0.1c0-0.1,0-0.1-0.1-0.2c0.2-1.1,0.3-2.3,0.2-3.7C61.8,381.1,61.4,384.5,61,385z M61.5,380.1
		c-0.4,0.4-0.4-1.8-0.2-2.4C61.4,378.2,61.5,379.1,61.5,380.1z M61.3,376.9c0-1.6-0.1-3.9,0.1-4.8C61.6,372.9,61.7,376.4,61.3,376.9
		z M61.1,370.4c0,0.3-0.1,0.4-0.1,0.5c0-0.2,0-0.5,0-0.7C61.1,370.4,61.1,370.5,61.1,370.4z M61,368.2c0-0.1,0-0.2,0-0.3
		c0,0.1,0,0.1,0,0.2C61,368.1,61,368.1,61,368.2z M61.1,360.8c-0.1,2.6-0.1,2.9,0.1,5.2c-0.1-0.1-0.2,0.2-0.3,0.3
		c0-1.8-0.1-3.5-0.1-5.3C60.9,360.8,61,360.6,61.1,360.8z M60.9,360.2c0-0.5,0-1,0-1.5c0.1,0,0.2,0.5,0.2,0.1c0,0,0,0,0,0
		C61.1,359.5,61,359.9,60.9,360.2z M61.6,357.9c-0.1,0-0.3,0-0.4,0c0-0.2,0-0.4,0-0.7c0,0.1,0,0.1,0.1,0.1c0-0.4,0-1,0.1-1.4
		c0,0.2,0.1,0.3,0.1,0.3c0.1-0.4,0-0.7,0-1.1c0-0.1,0-0.2-0.1-0.2c-0.1-0.5-0.3-1.2-0.2-2.3C61.5,354,62,355.8,61.6,357.9z
		 M61.7,351.1c-0.1-0.1-0.1-1-0.1-1.6c0.1,0,0.2,0,0.3,0C62,350.7,61.7,350.5,61.7,351.1z M61.3,348.7c-0.1-1.2,0.3-2.3,0.4-1.2
		c-0.3,0.9-0.1,1.7-0.3,3.2c-0.1,0-0.1,0.3-0.2,0.4c0-1.9-0.6-1.6-0.1-0.4c-0.1,1.5-0.1,3.1-0.2,4.5c-0.3-4.9-0.8-12.6,0.1-10.7
		c0-0.3,0-0.8,0.1-0.8c0,0.3,0,0.6,0,0.9c-0.1,0.5-0.2,1-0.2,1.3C61.5,345.6,60.9,347.9,61.3,348.7z M60.9,343.4
		c-0.1-0.2-0.1-0.3-0.1-0.3c-0.1-0.9,0-1.1,0.1-2c-0.2,0-0.3,1.1-0.4,2c0,0,0-0.1,0-0.1c0.1-1.5,0.2-2.3,0.2-3.2
		c0.1-0.2,0.2-0.4,0.2-0.7c-0.1-0.1-0.1-0.2-0.2-0.3c0-0.4,0-0.8,0-1.3c0,0,0,0,0,0c0,0,0,0,0,0c0,0,0-0.1,0-0.1
		C61.1,338.2,60.9,341.3,60.9,343.4z M60.8,336.5c-0.1,0.1-0.2,0-0.2-0.2c0.1-0.5,0.1-1,0-1.2c0-0.5,0.1-0.9,0.1-1
		C60.9,334.4,61,335.9,60.8,336.5z M62,297c-0.2,0.1-0.2-0.4-0.3-0.4c0-1.3,0.2-1.7,0.1-3.2C62.1,293.5,62.1,296.1,62,297z
		 M62.3,294.6c0-1.1-0.1-2.3,0-3.5C62.4,292.4,62.6,293.8,62.3,294.6z M62.3,289.3c0-0.5,0-1,0.1-1.5c0,0.3,0.1,0.6,0.1,0.8
		C62.4,288.9,62.3,289.1,62.3,289.3z M63.6,276.9c0.2-0.7,0-0.8-0.1-1.5c0-0.4,0.1-0.8,0.2-1.1c0,1,0,1.8,0,2.5
		C63.7,276.9,63.6,276.9,63.6,276.9z M64.1,276.7c0-0.2-0.1-0.4-0.1-0.6c0-0.1,0-0.3,0-0.4c0-0.6,0-1.2,0-1.9
		C64.4,274.3,64,275.3,64.1,276.7z M64.3,273.1c-0.2-0.4-0.2-1.2-0.2-2.4C64.3,270.9,64.5,272.2,64.3,273.1z M62.8,271.8
		c0-0.2-0.1-0.3-0.1-0.5c0-0.5,0.1-1.1,0.1-1.4C63.2,270.3,63,271.3,62.8,271.8z M64.8,259.4c0.1,0.5,0.1,1.5,0,2
		C64.5,261.5,64.4,259.2,64.8,259.4z M62.7,260.3c-0.1-0.3-0.1-0.7-0.1-1.2c0,0,0,0,0,0C62.7,259.4,62.7,259.8,62.7,260.3z
		 M63.6,248.6c0.2,0.1,0.2-0.3,0.2-0.8c0.3,0.8-0.3,1.5,0,2.8c-0.1-0.1-0.2,0.1-0.2,0.4C63.4,250.1,63.8,250.2,63.6,248.6z
		 M62.8,211.6c0-0.6,0-1.1,0-1.6C62.8,210.8,63.1,211.3,62.8,211.6z M63.2,194.3c-0.3,1.3-0.2,2.3-0.3,3.6
		C62.7,197.2,62.6,193.5,63.2,194.3z M69.6,198.7c-0.2-0.3-0.3-1.9-0.2-2.4C69.6,196.6,69.6,197.5,69.6,198.7z M70.3,195.8
		c0,0.5,0,1.1,0,1.6C69.9,197.8,69.9,195.5,70.3,195.8z M69.9,189c0,2-0.4,3.6-0.2,5.2c-0.1,0.4-0.4,0.3-0.3,1.6
		c-0.5-2.2,0-5.9-0.1-8C69.4,188.5,69.6,188.9,69.9,189z M64.6,191.8c-0.1,0-0.2,0-0.3,0c-0.2-2,0.1-3,0.2-5.2
		C64.7,188.1,64.4,189.8,64.6,191.8z M64.9,176.8c-0.3,1.9-0.5,5.8-0.1,6.4c0,0.7-0.2,0.9-0.4,0.8c0.1,1.2,0.2,0.4,0.4,0.4
		c0,1.2-0.4,1-0.5,2c-0.3-3.4,0.3-6.1,0-10.1C64.6,176.9,64.5,176.6,64.9,176.8z M64.8,172.8c-0.2,0.9,0,1.6,0,2.8
		c-0.4,0-0.4-1.7-0.4-3.2C64.6,172.4,64.6,172.9,64.8,172.8z M71.4,108c0,1.1-0.4,0.3-0.3,1.6c-0.4-1,0.1-2.1,0.1-3.6
		C71.5,105.8,71.1,108.2,71.4,108z M70.4,87.5c0.3,2,0.3,3.4,0.3,5.6c-0.1,0.5-0.4,0.5-0.5,0c-0.1,1.3-0.2,2.8-0.4,3.6
		c-0.2-2.3,0.2-4.6-0.2-6.8c0-1.4,0.5-0.8,0.4-2.4C70.2,87.1,70.3,88.7,70.4,87.5z M65.2,56.4c-0.3,1.6-0.3,4-1,4.1
		c-0.1-1.3-0.1-3.1-0.5-2.4C63.6,55.1,64.8,53.9,65.2,56.4z M30.2,45.7c0.2,0,0.2-0.5,0.4-0.4c0,1,0,1.9-0.1,2.4
		C30.2,47.9,30.2,46.9,30.2,45.7z M65.2,37.9c0.2-1.9-0.4-4.3,0.1-4.8C65.4,34.1,65.7,37.6,65.2,37.9z M62,11.5
		c0-0.7,0.1-0.9,0.1-1.6c0.3-0.4,0.3,0.6,0.5,0.4C62.4,10.8,62.3,11.7,62,11.5z M62.6,16.7c-0.8-0.1-1,1.4-1.5-0.3
		c-0.1-1.5,0.2-1.9,0.3-2.8c0.9-0.4,0.9-0.2,1.6,0.7c0.1,1.1,0,3.2,0.4,2.8c-0.1,0.5-0.1,1.5-0.2,2C62.7,19.5,62.8,17.6,62.6,16.7z"
		/>
	<path class="st0" d="M17.4,162.1C17.3,162.1,17.3,162.1,17.4,162.1c-0.1,0.7,0,1.4,0,2C17.4,163.4,17.4,162.7,17.4,162.1z"/>
	<path class="st0" d="M49.8,741c0-1.8-0.1-1.9,0-3.6C49.3,737.5,49.7,740.5,49.8,741z"/>
	<path class="st0" d="M13.3,467.9c0.3,0.1,0.3,1.6,0.6,2c-0.2-1.5,0.3-0.8,0.2-2C13.7,469.8,13.6,466.8,13.3,467.9z"/>
	<path class="st0" d="M65.1,426c0.1-1.4,0.3-4.1,0.1-5.2C65.1,422.4,65,425.3,65.1,426z"/>
	<path class="st0" d="M64.9,400.3c-0.1,1.5-0.3,2.9,0,4C64.8,402.8,65.1,400.8,64.9,400.3z"/>
	<path class="st0" d="M65,357.6c0.1,1.4,0.3,2.1,0.4,3.2c0-0.2,0-0.5,0.1-0.4c0-0.3,0-0.5,0-0.8C65.1,359.3,65.3,357.5,65,357.6z"/>
	<path class="st0" d="M65.3,330.2c0.3,0.7,0.1,2.5,0,3.6c0.2,1,0.5-0.9,0.6,0.8c-0.3,2.6,0.3,6.8-0.3,8.1c-0.3-1.4,0.3-5.8-0.4-6.8
		c0,2.3,0.3,5.1-0.2,6.9c0.1,0.4,0.2,0.8,0.3,1.2c-0.2,1.5-0.2-0.3-0.3,0.4c0.3,0.7-0.2,3.9,0.2,2c-0.3,3.4-0.4,6.4-0.2,9.7
		c0-2.7,0.2-2.9,0.4-4.5c0.3,2.7-0.4,4.3,0,6c0-0.6,0.2-0.3,0.3,0c0-1.1-0.1-2.4,0.2-2.4c0.2,0.4-0.2,3.3,0.2,3.6
		c-0.2-10.1-0.1-18.1-0.1-28.2c-0.1,0.6-0.1,1.9-0.3,2.4c0-0.3,0-0.8-0.1-0.8c0,0.3,0,0.8-0.1,0.8C65.7,331.5,65.5,329.2,65.3,330.2
		z M65.5,351.1c-0.3,0.1-0.4-1.7-0.2-2.4C65.5,349.1,65.5,350,65.5,351.1z"/>
	<path class="st0" d="M63.1,331.1c-0.1-1.6,0-3.9-0.2-5.2C62.6,327.7,62.9,329.9,63.1,331.1z"/>
	<path class="st0" d="M63.3,328.7c0.2-0.1,0.4,0.1,0.4-0.4c-0.6,0-0.3-1.5-0.2-2.8C62.9,325.2,63.3,327.6,63.3,328.7z"/>
	<path class="st0" d="M65.7,313.3c0-0.3,0.1-0.5,0.2-0.4c-0.2-1.5,0.1-3.1-0.1-4C65.6,310.2,65.4,311.9,65.7,313.3z"/>
	<path class="st0" d="M13.6,311.3c-0.2,0.8-0.7,1.2-0.5,1.2C13.3,313.6,13.7,312.3,13.6,311.3z"/>
	<path class="st0" d="M62.8,305c0.1,1.7-0.1,2.3,0.3,3.2c0-0.8,0.1-0.9,0.1-1.6C62.9,307.1,62.9,304,62.8,305z"/>
	<path class="st0" d="M13.5,288.3c0-1.6,0.2-2.9-0.1-3.6c-0.1,0.8-0.2,2.7-0.5,1.6c0.3,0.9-0.2,4.2,0,3.6
		C13.1,289,13.3,286.5,13.5,288.3z"/>
	<path class="st0" d="M3.1,285.3C3,285,3,285,2.5,283.8c0.1,1.8,0.2,3.4,0.7,3.6C3.2,286.8,3.4,285.3,3.1,285.3z"/>
	<path class="st0" d="M66,273c-0.1-1.4,0.2-2.8,0-3.2C66,271,65.6,272.5,66,273z"/>
	<path class="st0" d="M12.2,237.3c0-0.7,0.1-1,0-1.2c-0.2,1.4-0.1-1.5-0.3-1.6c-0.1,0.9-0.1,3.5,0.1,3.2
		C12,236,12.1,236.7,12.2,237.3z"/>
	<path class="st0" d="M12.7,190.9c-0.2-1.9,0.3-2.9,0.1-3.6c-0.1,0.5-0.1,1.5-0.3,1.6c0-1.9,0.5-4.8,0-4c0.2,0.7-0.1,2.4-0.3,2.8
		C12.4,188.2,12.8,192.1,12.7,190.9z"/>
	<path class="st0" d="M13.7,178c-0.5-0.2-0.9-1.9-1.2-0.3c0.2-0.1,0.2,0.5,0.3,0.8c0.2-1.2,0.8-0.8,0.7,1.6
		C13.8,180.4,13.6,178.8,13.7,178z"/>
	<path class="st0" d="M13.3,170.8c-0.1-0.8-0.4,0.8-0.7,0.4c0-0.5,0-1.1,0-1.6c0.2,0,0.3,0,0.5,0c-0.3-1.3-0.2-3.7-0.6-2.8
		c0.2-0.6,0.1-1.7-0.1-2c-0.1,3.1,0.2,3.9,0,6.4c0.1,0,0.2,0.1,0.2,0.8C12.8,170.9,13.2,172.2,13.3,170.8z"/>
	<path class="st0" d="M8.5,153c-0.1,0.7,0,2.7-0.5,2C8,157.9,8.8,153.9,8.5,153z"/>
	<path class="st0" d="M13.8,136.5c0,0.5-0.1,0.9-0.2,1.2C13.8,142.2,13.9,137.4,13.8,136.5z"/>
	<path class="st0" d="M13.3,134.1c-0.3,0.4-0.4,2.2-0.3,3.2c0.2-0.3,0.4-1.8,0.6-0.8c0.1-2.2-0.1-3.4-0.2-4.8
		c-0.3,1.2-0.4-1.1-0.5-0.4c0.1,0.5,0.1,1.9,0,2.4C13.2,134.3,13.2,133.5,13.3,134.1z"/>
	<path class="st0" d="M14.1,131.8c0,0.1,0,0.2,0.1,0.3C14.2,132,14.2,131.9,14.1,131.8z"/>
	<path class="st0" d="M14.1,128.5c-0.3,0.1-0.3-0.6-0.4-1.2c0.2-0.1,0-1.8,0.2-2c-0.1-0.4-0.4-0.1-0.3-1.2c0-14,0.1-20.8,0.1-33
		c-0.7,0.2,0.1-1.4-0.2-2c-0.5,0.8-0.4,1.7-0.6,3.7c0.3,0.3,0.2-1.1,0.4-1.2c0,0.6,0.1,0.9,0.1,1.2c-0.4-0.5-0.3,2.1-0.6,0.8
		c0.2,5.8,0.6,12.7,0.4,21.3c0.2,0,0.3,0.3,0.3,0.8c-0.2,1-0.1,1.1-0.1,2.8c-0.3-0.4-0.4-0.2-0.5,0.8c0.1,0.1,0.3-0.1,0.3,0.4
		c0,3.9,0.5,10.1,1,12.1C14,131,14.2,129.4,14.1,128.5z"/>
	<path class="st0" d="M75.4,88.4c0.2,0,0.3,0.1,0.4,0.4c0-1.1,0-2.2,0.3-2c-0.1-1.4,0.3-2.1-0.1-2.4c0,0.6-0.2,0.5-0.3,0.8
		C75.9,86.7,75.8,87.9,75.4,88.4z"/>
	<path class="st0" d="M17.7,88.4c0.1,0,0.2-0.2,0.3-0.4c0,0.7,0.1,1,0.2,1.2c-0.1-2.4-0.1-3.7-0.2-6c0,2.6-0.3-0.2-0.4-0.8
		C17.8,84.3,18,86.1,17.7,88.4z"/>
	<path class="st0" d="M18,77.9c0-0.7,0-1.3,0.1-1.6c-0.3-0.4-0.7,2-0.4,1.2C17.8,76.3,17.9,78.1,18,77.9z"/>
	<path class="st0" d="M15.3,75.2c0,0.2,0,0.5,0.1,0.4c0.1-1,0-2.3,0.1-4c0.2,0,0.3,0,0.3-0.8c-0.7-0.4-0.2,3.9-0.7,4.5
		C15.2,75.2,15.2,75.2,15.3,75.2z"/>
	<path class="st0" d="M9.6,64.7c-0.3-0.7-0.1-1.4-0.4-2c0,0.7-0.1,1-0.2,1.2c-0.1-1.3,0-1.3,0-2.8c-0.2-0.1-0.2,0.5-0.4,0.4
		c0.1-1.4-0.2-2.3-0.3-3.2c0,1.2-0.2,1.3-0.2,2.4c0.4,1.1,0.3,2.2,0.4,4.8c0.2-0.1,0.2,0.5,0.3,0.8c0-1,0.2-1.4,0.3-2
		C9.2,64.7,9.6,65.6,9.6,64.7z"/>
	<path class="st0" d="M29.4,63.5c-0.2,0.2,0.3-3.1,0-2c-0.1,1.1-0.3,1.6-0.4,2.8c0.2,0.1,0.2-0.6,0.3-0.8
		C29.3,63.7,29.4,63.9,29.4,63.5z"/>
	<path class="st0" d="M27.3,31.8c0.4,1.7-0.4,0.6-0.4,1.2c0.1,1.6-0.4,3.7-0.1,5.6c-0.1,0.6-0.4,0.1-0.4,0.8
		c0.6,0.7-0.2,2.8,0.4,3.6c-0.4,2.4-0.4,7.9-0.5,10.1c0-0.6-0.1-1.3-0.2-2.2c0,2.9-0.1,6.3,0.3,7.6c-0.1-3,0-4-0.1-5.2
		c0.1-0.1,0.3,0.3,0.4,0.6c-0.3,1.3,0.4,5.1-0.1,3.6c0,1.5,0.2,1.8,0.4,2.4c-0.2-3.3,0-6.4-0.4-8.4c0.8-2.1-0.3-8.4,0.8-7.7
		c-0.3-2-0.1-2.1,0-4.4c-0.2,0.1-0.4-0.1-0.4-0.8c0.2-1.6,0.3-2.7,0.2-4.4C27.5,34,27.7,31.1,27.3,31.8z"/>
	<path class="st0" d="M21.6,23.3c-0.6,1.3-0.8,5.8-1.5,7.7c0,1.7-0.2,2.9-0.5,3.7c0,0.7,0,1.3,0.1,1.6c-0.8,0.7-0.6,9.9-1.2,8.9
		c0.2,1.5,0.4,2.6,0.4,4.8c0.2,0.1,0.2-0.8,0.5-0.4c0,1.2,0,2,0.2,2.4c0-2.5-0.5-2.8-0.5-4.8c0.4,0.3,0.5-0.9,0.3-1.6
		c-0.4-0.6-0.1,1.4-0.3,1.2c0-0.6-0.3-0.3-0.2-1.2c0.6,0.8,0-3.4,0.4-4.5c0.2,0,0.3,0.2,0.4,0.8c-0.1,2.9,0.2,1.5,0.4,2.8
		c0.1,1.3-0.3,1.1-0.3,2c0.5,0.2,0.5,2.4,0.4,4c0.3,3.4,1.3,6.2,1.4,9.2c0.1-3.1-0.3-5.9,0.4-7.7c0.3,1.1-0.1,2.1,0,3.6
		c0.3-0.3,0.2,0.8,0.4,0.8c-0.1-1.3-0.2-7,0.5-5.3c-0.1-1.5,0.2-2.2,0-2.8c-0.4-0.6,0,2.1-0.3,2c-0.3-2.8-0.7-3.1-1-5.2
		c-0.2,2.8,0.5,3.9,0.3,5.2c-1.3-5.4,0-17.5-0.3-24.5C21.8,26.8,21.5,24.5,21.6,23.3z"/>
	<path class="st0" d="M27.8,55.1c0-1.8,0.3-1.2,0.5-1.6c-0.2-0.6-0.2-0.8-0.5-0.4C27.9,54.1,27.6,55.1,27.8,55.1z"/>
	<path class="st0" d="M27.7,33c-0.2,1.9-0.1,3.7-0.2,5.2C27.9,37.9,27.7,33.4,27.7,33z"/>
	<path class="st0" d="M23.1,38.5c0.1-2.1,1-6.6,0.2-6.9C23,33.2,23.1,36,23.1,38.5z"/>
	<path class="st0" d="M46.9,23.3c0.4,0.5,0.6-3.3,0.5-2.4C47.3,22.1,46.9,21.7,46.9,23.3z"/>
	<path class="st0" d="M12.1,85.1c-0.8,0.5-1.1-1-1.3-3.1c0.5,0.1,0.4-2.3,0.7-2.9c-0.4,0.2-0.3-1.4-0.5-1.2c0.1-0.2,0.2-0.6,0.3-1.2
		c-0.5,0.1-0.3-2.5-0.4-4c-0.4,0.1-0.3,0.5-0.6,0c-0.3,1.9-0.3,5.9-0.5,7.3c0.6,3.6-0.8,8.9-0.6,13.7c0.2,3.2,1.1,4.9,2.3,3.5
		C12.2,94.8,12.8,89.3,12.1,85.1z"/>
</g>
</svg>
