<?xml version="1.0" encoding="utf-8"?>
<!-- Generator: Adobe Illustrator 22.1.0, SVG Export Plug-In . SVG Version: 6.00 Build 0)  -->
<svg version="1.1" id="Layer_1" xmlns="http://www.w3.org/2000/svg" xmlns:xlink="http://www.w3.org/1999/xlink" x="0px" y="0px"
	 viewBox="0 0 1280 570" style="enable-background:new 0 0 1280 570;" xml:space="preserve">
<style type="text/css">
	.st0{fill:#EFEBEC;}
	.st1{fill:#17242E;}
</style>
<g id="laag2_5_">
	<g id="Bos2_5_">
		<path class="st0" d="M652.3,268.3l4.9-9.1v-3.5h1.6l5.3-5.9l4.8-7.4l-6.4,5.1l0.6-2.9l5.8-7l1.8-4.3l-5.4,3l3.5-4.5l1.9-4.5
			l-3.9,4.5l1.1-2.4l-2.5,1.9l2.6-4l-7.7,3.3c0,0,8.2-6,9.9-8c1.7-2,4.4-5.8,4.4-5.8l-2.4,2l2.4-3.8v-1.9l-1.6,1l4.6-6.9l-3.1,1.1
			l0.8-2.2l-2.2,1.3l0.9-1.3l-2.6,0.4l4.9-2.7l2.2-2.6l-5.5,3.2l3.8-4.5l-2.7,0.4l5.7-6.1l0.3-2.4l1.9,0.6l-0.4-2.6l-1.1,0.3
			l3.6-5.4l-1.9,0.9l4.8-5.3l-4.5,2.9l3.6-4.1l-4.7,2.4c0,0,3.9-2.9,4.8-4l-4.9,2.6l2-1.9l-2.6,0.2c0,0,4.3-1.9,6.7-5.1l0.7-1.9
			l1.1-0.5v-2.6l-2.2,2.1l-1.4,0.5c0,0,1.1-3.2,2.6-5.7c1.5-2.5,3.3-6.8,3.7-10.8l-1.9,3.1l-1.3,0.3l-1,1.5l3.6-9.2l0.1-2.1
			l-3.7,4.6l2.8-5.3l1.1-4.2l1.2-1.4l0.3-3l-2.4,2.5l-2.1-0.2c0,0,3.1-2.2,4.1-4.1l0.1-2.7l0.8-1.2l0.5-9.4l0.9,0.7
			c0,0,0.4,9.1,1.6,11.7c1.2,2.5,2.6,4.1,1.9,4.6c-0.7,0.5-3-3.4-3-3.4l1.8,4l-1.3-0.6l0.6,2.2l0.8,0.7l2.2,5.2l2.1,4l-1.8-1.4
			c0,0,0.3,4.6,1.2,6.6c0,0-2.5-2-2.8-3.4c0,0-0.4,1.8,0.7,3.9c1.1,2,6.3,8.8,6.3,8.8l-4.4-3.6l2,3.5l0.5,1.9l2.6,4.4l-2.8-2l-1-1.1
			v2.8c0,0,1.8,3.6,3.8,5.5c1.9,1.9,3.9,3.7,3.9,3.7l-3-1c0,0,0.4,1.8,2,3.2c0,0-3-1.4-4.3-3.3l1.3,6.7l3.1,5.1l0.7,3.1l3.3,5.7
			l-1.7-0.9l5.4,5.9l0.8,4l-3-1.7c0,0,0.7,5.6,2.3,8.1l-2.6-2l0.4,3.1l6,6.4l-2.8-1.5l5.9,9.3l1.6,1.4l-4.3-2l-4.9-5.4l5.1,9
			l0.2,3.2l1.6,3c0,0,3.4,0.3,3.3,2.1c-0.1,1.7,3.1,8,3.1,8l-4.9-5.2l2.1,7.3l6.1,9.2l-3.7-1.9l7.1,8.2l4.5,2.5c0,0-6.5,0.6-8.8-1.3
			l8.1,12.9h-97.7L652.3,268.3z"/>
		<path class="st0" d="M470.2,229.8l4.9-9.1v-3.5h1.6l5.3-5.9l4.8-7.4l-6.4,5.1l0.6-2.9l5.8-7l1.8-4.3l-5.4,3l3.5-4.5l1.9-4.5
			l-3.9,4.5l1.1-2.4l-2.5,1.9l2.6-4l-7.7,3.3c0,0,8.2-6,9.9-8s4.4-5.8,4.4-5.8l-2.4,2l2.4-3.8v-1.9l-1.6,1l4.6-6.9l-3.1,1.1l0.8-2.2
			L491,169l0.9-1.3l-2.6,0.4l4.9-2.7l2.2-2.6l-5.5,3.2l3.8-4.5l-2.7,0.4l5.7-6.1l0.3-2.4l1.9,0.6l-0.4-2.6l-1.1,0.3l3.6-5.4
			l-1.9,0.9l4.8-5.3l-4.5,2.9l3.6-4.1l-4.7,2.4c0,0,3.9-2.9,4.8-4l-4.9,2.6l2-1.9l-2.6,0.2c0,0,4.3-1.9,6.7-5.1l0.7-1.9l1.1-0.5V130
			l-2.2,2.1l-1.4,0.5c0,0,1.1-3.2,2.6-5.7c1.5-2.5,3.3-6.8,3.7-10.8l-1.9,3.1l-1.3,0.3l-1,1.5l3.6-9.2l0.1-2.1l-3.7,4.6l2.8-5.3
			l1.1-4.2l1.2-1.4l0.3-3l-2.4,2.5l-2.1-0.2c0,0,3.1-2.2,4.1-4.1l0.1-2.7l0.8-1.2l0.5-9.4l0.9,0.7c0,0,0.4,9.1,1.6,11.7
			c1.2,2.5,2.6,4.1,1.9,4.6s-3-3.4-3-3.4l1.8,4l-1.3-0.6l0.6,2.2l0.8,0.7l2.2,5.2l2.1,4l-1.8-1.4c0,0,0.3,4.6,1.2,6.6
			c0,0-2.5-2-2.8-3.4c0,0-0.4,1.8,0.7,3.9c1.1,2,6.3,8.8,6.3,8.8l-4.4-3.6l2,3.5l0.5,1.9l2.6,4.4l-2.8-2l-1-1.1v2.8
			c0,0,1.8,3.6,3.8,5.5c1.9,1.9,3.9,3.7,3.9,3.7l-3-1c0,0,0.4,1.8,2,3.2c0,0-3-1.4-4.3-3.3l1.3,6.7l3.1,5.1l0.7,3.1l3.3,5.7
			l-1.7-0.9l5.4,5.9l0.8,4l-3-1.7c0,0,0.7,5.6,2.3,8.1l-2.6-2l0.4,3.1l6,6.4l-2.8-1.5l5.9,9.3l1.6,1.4l-4.3-2l-4.9-5.4l5.1,9
			l0.2,3.2l1.6,3c0,0,3.4,0.3,3.3,2.1c-0.1,1.7,3.1,8,3.1,8l-4.9-5.2l2.1,7.3l6.1,9.2l-3.7-1.9l7.1,8.2l4.5,2.5c0,0-6.5,0.6-8.8-1.3
			l8.1,12.9h-97.7L470.2,229.8z"/>
		<path class="st0" d="M258.9,178.3l4-9.7v-3.7h1.3l4.4-6.3l3.9-7.9l-5.3,5.5l0.5-3.1l4.7-7.5l1.4-4.6l-4.5,3.3l2.9-4.8l1.6-4.9
			l-3.2,4.8l0.9-2.6l-2,2.1l2.2-4.3l-6.4,3.6c0,0,6.7-6.4,8.1-8.5c1.4-2.1,3.6-6.3,3.6-6.3l-2,2.1l2-4v-2.1l-1.3,1l3.8-7.4l-2.6,1.2
			l0.7-2.4l-1.8,1.4l0.7-1.4l-2.2,0.4l4-2.9l1.8-2.8l-4.5,3.5l3.1-4.8l-2.2,0.4l4.6-6.5l0.2-2.5l1.5,0.7l-0.3-2.8l-0.9,0.3l3-5.7
			l-1.5,1l3.9-5.7l-3.7,3.1l3-4.4l-3.9,2.6c0,0,3.2-3.1,3.9-4.3l-4.1,2.8l1.6-2.1l-2.2,0.3c0,0,3.5-2.1,5.5-5.5l0.6-2l0.9-0.6v-2.8
			l-1.8,2.2l-1.2,0.5c0,0,0.9-3.5,2.2-6.1c1.3-2.7,2.7-7.3,3.1-11.6l-1.6,3.3l-1.1,0.3l-0.8,1.6l3-9.9l0.1-2.3l-3.1,4.9l2.3-5.7
			l0.9-4.5l1-1.5l0.2-3.2l-1.9,2.7l-1.7-0.2c0,0,2.6-2.4,3.3-4.4l0-2.9l0.7-1.3l0.4-10.1l0.7,0.8c0,0,0.3,9.8,1.3,12.5
			c1,2.7,2.2,4.4,1.6,4.9s-2.5-3.7-2.5-3.7l1.5,4.3l-1.1-0.7l0.5,2.3l0.7,0.7l1.8,5.5l1.7,4.3l-1.5-1.5c0,0,0.2,4.9,1,7.1
			c0,0-2.1-2.1-2.3-3.7c0,0-0.3,2,0.6,4.1c0.9,2.1,5.2,9.5,5.2,9.5l-3.6-3.9l1.6,3.8l0.4,2l2.2,4.7l-2.3-2.1l-0.8-1.2v3
			c0,0,1.5,3.9,3.1,5.9c1.6,2,3.2,4,3.2,4l-2.5-1c0,0,0.3,1.9,1.6,3.4c0,0-2.5-1.5-3.6-3.6l1.1,7.2l2.5,5.5l0.5,3.3l2.7,6.1l-1.4-1
			l4.4,6.4l0.7,4.2l-2.4-1.9c0,0,0.5,6,1.9,8.7l-2.1-2.1l0.3,3.4l5,6.9l-2.3-1.6l4.9,10l1.4,1.5l-3.5-2.1l-4-5.8l4.2,9.6l0.2,3.4
			l1.4,3.2c0,0,2.8,0.4,2.7,2.2c-0.1,1.9,2.6,8.6,2.6,8.6l-4.1-5.6l1.7,7.8l5,9.8l-3.1-2l5.9,8.8l3.7,2.7c0,0-5.4,0.6-7.3-1.4
			l6.7,13.8h-80.4L258.9,178.3z"/>
		<path class="st0" d="M649.3,280.8l-6.1-11.4v-4.3h-2l-6.6-7.3l-6-9.2l8,6.4l-0.8-3.6l-7.2-8.8l-2.2-5.4l6.8,3.8l-4.4-5.6l-2.4-5.7
			l4.8,5.6l-1.4-3l3.1,2.4l-3.3-5l9.7,4.2c0,0-10.2-7.5-12.3-9.9c-2.1-2.5-5.4-7.3-5.4-7.3l3,2.5l-3-4.7v-2.4l2,1.2l-5.8-8.7
			l3.9,1.4l-1-2.8l2.8,1.6l-1.1-1.6l3.3,0.5l-6.1-3.4l-2.7-3.3l6.9,4l-4.7-5.6l3.4,0.4l-7.1-7.6l-0.4-2.9l-2.4,0.8l0.5-3.3l1.4,0.4
			l-4.5-6.7l2.4,1.2l-6-6.6l5.6,3.6l-4.5-5.1l5.9,3c0,0-4.9-3.6-6-5l6.2,3.3l-2.5-2.4l3.3,0.3c0,0-5.4-2.4-8.3-6.4l-0.9-2.4
			l-1.4-0.7v-3.3l2.7,2.6l1.8,0.6c0,0-1.4-4-3.3-7.1c-1.9-3.1-4.1-8.5-4.6-13.5l2.4,3.8l1.6,0.4l1.2,1.8l-4.6-11.5l-0.1-2.6l4.6,5.7
			l-3.5-6.6l-1.3-5.2l-1.5-1.8l-0.4-3.7l2.9,3.2l2.6-0.2c0,0-3.9-2.8-5.1-5.1l-0.1-3.4l-1-1.5l-0.6-11.8l-1.1,0.9
			c0,0-0.4,11.4-2,14.6c-1.5,3.2-3.3,5.1-2.4,5.7s3.7-4.3,3.7-4.3l-2.2,5l1.6-0.8l-0.7,2.7l-1,0.8l-2.8,6.4l-2.6,5l2.3-1.7
			c0,0-0.3,5.8-1.5,8.3c0,0,3.1-2.5,3.5-4.3c0,0,0.4,2.3-0.9,4.8c-1.3,2.5-7.9,11-7.9,11l5.5-4.6l-2.4,4.4l-0.6,2.4l-3.3,5.5
			l3.5-2.4l1.2-1.4v3.5c0,0-2.3,4.6-4.7,6.9s-4.9,4.6-4.9,4.6l3.7-1.2c0,0-0.5,2.2-2.5,4c0,0,3.7-1.8,5.4-4.2l-1.6,8.4l-3.8,6.4
			l-0.8,3.8l-4.1,7.1l2.2-1.1l-6.7,7.4l-1,4.9l3.7-2.2c0,0-0.8,7-2.9,10.1l3.2-2.5l-0.5,3.9l-7.5,8l3.5-1.9l-7.4,11.6l-2.1,1.8
			l5.4-2.5l6.1-6.8l-6.4,11.2l-0.3,4l-2.1,3.7c0,0-4.2,0.4-4.1,2.6s-3.9,10-3.9,10l6.2-6.5l-2.6,9.1l-7.6,11.5l4.6-2.4l-8.9,10.3
			l-5.6,3.1c0,0,8.1,0.7,11-1.6l-10.1,16.1h122L649.3,280.8z"/>
		<g>
			<path class="st0" d="M1171,261.1c0,0-0.6-99.7-1.4-121.2c-0.8-21.6-0.1-82.3,0-104.9c0-1.1-0.6-3.3,0.3-4.4
				c0.9-1.1,0.6-2.7-0.5-2.7c-1.2,0,0.1-3.2-0.9-3.4c-1-0.1-1,0.9-0.3,4.7c0.7,3.8,0.2,4.3,0,5.7c-0.4,2.5-2.6,98.2-2.2,131.3
				c0.4,33.1,0,92.9,0,92.9L1171,261.1z"/>
			<path class="st0" d="M1169.6,45c0,0,4.2-3.6,4.4-5.8s3,0.3-2.2,6.7c0,0,3.2-4.3,4-3.8c0.7,0.5-3.3,7.1-6.2,8.2V45z"/>
			<path class="st0" d="M1169.5,55.8c0,0,1.9-1.3,3.2-3.6c1.3-2.3,1.8-0.2,0.4,1.8c-1.4,2-3.5,3.6-3.5,3.6L1169.5,55.8z"/>
			<path class="st0" d="M1169.5,63c0,0,3.6-1,7.1-5.4s4.1-6.4,5.1-6.1c1,0.3-2.1,5-2.1,5s1.9-1.6,2.6-2.7c0.7-1.1,2.4-0.4,0,3.8
				c0,0,2-0.8,0.2,2.1c-1.8,2.9-8.1,8.5-12.9,10.3L1169.5,63z"/>
			<path class="st0" d="M1169.4,70.1l1.3,2.6c0,0,5-5.2,5.6-4.8c0.7,0.4-4.7,5.8-4.7,5.8s8-5.5,10.7-8.8c2.7-3.3,3.3-0.4,0.9,2.1
				c0,0,2.5-1.1,0.8,1.3c-1.7,2.4-8.2,6.4-8.2,6.4l-0.3,2.6c0,0,4.6-1.4,5-0.5c0.3,0.8-3.1,4.8-11.1,5.7V70.1z"/>
			<path class="st0" d="M1169.3,87.3c0,0,4.8-0.4,7.1-3.6c2.3-3.2,1.1,0.6,1.1,0.6s7.9-7.2,11-11.1c3.1-3.9,2.3,0.7-2.7,5.5
				c0,0,5.5-4.4,8.4-8.1c2.9-3.7,0.1,3.9-5.6,8.6c0,0,2.5-0.9,4.1-2.5c1.6-1.7,1.8-0.1-0.7,2.6c-2.4,2.8-12.3,9.7-12.3,9.7
				s8.9-4.1,10.6-4.8c1.7-0.7-3.5,4.7-9.9,8.1l0.2,1.5c0,0,8.9-5.7,14.3-11.4c5.4-5.7,5.2-1.7-3.9,6c0,0,4.1-2.2,7.5-5.1
				c3.5-2.9,5.1,1.2-6.5,8.1c0,0,3.3,0,6.9-2.9c3.6-2.9,5.5,3.2-9.7,4.9c0,0,1.1,0.5,2.7,0.4c1.6-0.1-0.5,1.7-4.1,1.8
				c-3.5,0.1-6.5,3.7-11.2,5.3c-4.7,1.6-7.4,1.7-7.4,1.7L1169.3,87.3z"/>
			<path class="st0" d="M1172.6,100.5c0,0,6.6,2.8,13.2-0.7c6.6-3.5,8.3-5.2,9-4.1c0.7,1.1-5.6,8.1-13.1,9c-7.5,1-12.4,0.4-12.4,0.4
				l0-5.2L1172.6,100.5z"/>
			<path class="st0" d="M1171.5,105.2c0,0,0.9,2.8-2.2,4.5c0,0,8.6,1.3,13.7-1.5s7.7-3.6,4.1-0.6c-3.6,3-11.4,4.8-17.8,4.7
				c0,0,6,1.8,8.7-0.9c0,0,4.8-1.5,4.9-0.5c0.1,1-4.8,4-4.8,4s5.7,0.3,11.1-1.7c5.5-2,14-7.1,10.4-3.1c-3.6,4-3.6,4-3.6,4
				s4.9-3.1,5.5-2.4s-2.9,2.9-2.9,2.9s4-1.8,2.9,0.3c-1.1,2.2-10.9,6.1-17.5,5.8s-11.4-1.5-11.4-1.5s11.2,4,21.2,1.5
				c10-2.4-3.4,5.4-13.1,3.5c-9.7-2-11.3-1-11.3-1V105l2.8-1.2L1171.5,105.2z"/>
			<path class="st0" d="M1169.4,126.5c0,0,7.4,2,14.1,0.5c6.6-1.5,8-3.9,8.5-2.8c0.5,1.1-4.9,4.5-4.9,4.5s9.4-2.2,14.1-5.2
				c4.7-3,3.9,2.8-3.8,5.8c-7.7,3-15.5,4.8-27.9,0.9L1169.4,126.5z"/>
			<path class="st0" d="M1169.4,130.1c0,0,6.2,5.3,16,4c9.9-1.3,24.5-7.7,14.9-0.3c-9.6,7.4-23.9,3.2-23.9,3.2s6.6,3.5,12.7,2.2
				c6.1-1.3,9.8-3.7,9.5-2.4c-0.3,1.4-3.2,4.8-6.6,6.5c0,0,4.8-2.3,5.1-1.2c0.3,1.1-0.5,3-0.5,3s3.4,0,4.2,1.7c0,0,5.5-3.3,6.2-2.2
				c0.7,1.1-3.1,4.3-10.3,5.9c-7.2,1.6-18.9,3.7-26.8-0.4l-0.2-6.7c0,0,7.1,3.5,13.6,3s6.4-2.8,1.6-1.8c-4.9,1-12.7-1.8-15.2-3.2
				L1169.4,130.1z"/>
			<path class="st0" d="M1173.2,200.4c0,0,1.1,3.2-2.6,5.1c0,0,9.9,1.5,15.8-1.7c5.9-3.2,8.9-4.2,4.7-0.7
				c-4.2,3.5-13.2,5.5-20.5,5.4c0,0,7,2,10-1c0,0,5.6-1.7,5.6-0.6c0.1,1.1-5.6,4.6-5.6,4.6s6.6,0.3,12.8-2c6.3-2.3,16.1-8.1,12-3.6
				c-4.2,4.6-4.2,4.6-4.2,4.6s5.6-3.6,6.3-2.7c0.7,0.8-3.3,3.3-3.3,3.3s4.6-2.1,3.3,0.4c-1.3,2.5-12.6,7-20.2,6.7
				c-7.6-0.3-13.1-1.7-13.1-1.7s12.9,4.6,24.4,1.8c11.5-2.8-3.9,6.3-15.1,4c-11.2-2.3-13-1.1-13-1.1v-21l3.2-1.4L1173.2,200.4z"/>
			<path class="st0" d="M1170.7,225c0,0,8.5,2.3,16.2,0.6c7.6-1.7,9.2-4.5,9.8-3.3s-5.6,5.1-5.6,5.1s10.8-2.5,16.3-6
				c5.5-3.5,4.5,3.3-4.4,6.7c-8.9,3.4-17.8,5.5-32.2,1L1170.7,225z"/>
			<path class="st0" d="M1170.8,229.1c0,0,7.1,6.1,18.5,4.6c11.4-1.5,28.2-8.9,17.2-0.4s-27.6,3.6-27.6,3.6s7.6,4,14.6,2.5
				c7-1.5,11.3-4.3,10.9-2.7c-0.4,1.6-3.7,5.5-7.6,7.5c0,0,5.5-2.7,5.9-1.4c0.4,1.3-0.6,3.4-0.6,3.4s3.9,0,4.8,2
				c0,0,6.3-3.8,7.1-2.6s-3.6,4.9-11.9,6.8c-8.3,1.9-21.8,4.2-30.9-0.5l-0.2-7.7c0,0,8.1,4,15.6,3.5s7.4-3.3,1.8-2.1
				c-5.6,1.1-14.6-2-17.5-3.7L1170.8,229.1z"/>
			<path class="st0" d="M1170,152.4c0,0,4.3,2.8,11.2,1.6s8.2-4,8.2-4h4.5c0,0-1.6,5.2-8,6.4c0,0,10.8-2.6,7,2.4l3.7,1.4
				c0,0-3.5,5.5-11.5,5.4s-14.9-3.2-14.9-3.2L1170,152.4z"/>
			<path class="st0" d="M1170.2,167.5c0,0,3.5-0.5,5.4,0.7c0,0,10.4,0.7,14.8-0.4c4.4-1.1,0.4,3.2-4.1,4c0,0,7.2-0.1,12.2-1.6
				c5-1.4,1,2.4-6.2,3.5s-11.3,0.7-11.3,0.7s5.1,2,10.1,1.2s9.3-2.2,4.5,0.2c-4.7,2.4-14.8,1.4-19.3,0c0,0-2.2,1.5-3.1-0.3
				c-0.9-1.8-0.7-2.7-0.7-2.7l-2.3,0.3L1170.2,167.5z"/>
			<path class="st0" d="M1170.3,177.3c0,0,3.1-0.8,4.9,0.6h10.3c0,0,0.8,1.8-1.4,2.4c0,0,7.4,0.3,13.3-2.2c6-2.4,3,2-3.4,3.7
				s-18.6,1-18.6,1l0.8,1.6c0,0,4.8-1.2,8.3,0s10.5,0.1,14.8-2.4s1.6,4.5-2,7.6c-3.7,3-12,0.7-18,3.6c0,0,13,2.4,19.3,0.7
				c6.3-1.7-1.6,5.9-11.6,4.2c-10-1.7-11.7-4.6-15.1-3.2c0,0,1.8,5.3,11.4,5.3c9.5-0.1,17.1-1.2,12,1.7c-5.1,2.9-24.8,0-24.8,0
				L1170.3,177.3z"/>
			<path class="st0" d="M1169.6,41.2c0,0,2.2-2.3,2.2-4.3c0-2-1.4,0.8-2.2,1.5L1169.6,41.2z"/>
			<path class="st0" d="M1167.9,45.5c0,0-1.1-0.6-2.5-2.2c-1.3-1.6-2.9-0.8,0.6,2.5c0,0-2.7-1.6-3.2-0.4c-0.6,1.2,4.1,2.4,5,4.8
				L1167.9,45.5z"/>
			<path class="st0" d="M1167.5,61.3c0,0-2.4-0.2-4.5-2s-4.7-4.5-2.1,0.7c0,0-4.6-1.7-7.1-5.6c-2.5-3.8-2.7-10.6-2.8-3.2
				c0,0-2.7-3.1-4.7-6.1c-2-3,0.2,3.5,3.6,8.1c0,0-3.5-0.6,3,5.9c0,0-1.7-0.3-2.9-1.4c-1.2-1.1-4-2,1,2.8s16.3,7.9,16.3,7.9
				L1167.5,61.3z"/>
			<path class="st0" d="M1167.3,69.2c0,0-2.4,0.6-4.6-0.2c-2.1-0.8-3.5,0.7,0,2c3.5,1.2,4.5,2,4.5,2L1167.3,69.2z"/>
			<path class="st0" d="M1167.2,74.7c0,0-2.8-0.6-5.3-2.5c-2.5-1.9-2.2,0-2.2,0s-3.6-1.9-6.3-5c-2.7-3.1-5.2-4-1.4,1.5
				c3.8,5.5,10.8,7.5,10.8,7.5s-8-2-11-5.1c-3-3.1-1.1,1.4,5.9,4.8s9.4,4.3,9.4,4.3L1167.2,74.7z"/>
			<path class="st0" d="M1167,81.9c0,0-2.1-0.5-4-1.4s-3.5-0.9-0.4,1.4c3.1,2.3,4.4,3.2,4.4,3.2L1167,81.9z"/>
			<path class="st0" d="M1167,86.1c0,0-1.4,0.6-3.6-0.6c-2.2-1.2-8.3-5.2-9.3-5.2c-1,0,2.4,3.7,5.8,5.7c0,0-7.2-1-10.7-5.9
				c-3.5-4.9-3.5-2.5,0,2.2c0,0-5.1-2.6-8.1-7.3c-3-4.7-1.5,0-0.4,1.8c1.1,1.8,3.5,5.1,3.5,5.1s-2.2-1.1-4.1-3.7
				c-1.9-2.6-1.7,0.4,0.7,3.6s12.9,6.1,15.9,8.4c3,2.2,4.2,4.4,4.2,4.4s-4-4.5-7.6-4.5c-3.7,0-1.2,0.7-1.2,2.9c0,0-2.1,0.6-6.8-4.6
				c-4.8-5.2-4.9-4.7-0.7,1.8c0,0-2.5-1.1-5-4.8s-1.9-0.7-0.4,1.9c1.5,2.6,2.9,3.7,2.9,3.7s-3.6-1.3-7.5-7.7
				c-3.9-6.5-3.9-2.5,0.9,4.6c4.8,7.2,11.3,10.1,16.9,10.8c5.6,0.7,6.3,3,6.3,3s-5.8-1.6-7.5,0.3c0,0-7.3-0.5-10.9-3.3
				c-3.6-2.8,2.2,4.4,10.6,7.3c0,0-1.5-0.4-1.5,0c0,0.4,4.1,3.3,9.3,1.2s8-2.4,8-2.4L1167,86.1z"/>
			<path class="st0" d="M1166.6,106.1c0,0-2.6-1.9-3.8-1.5c-1.1,0.4,3.7,2.9,3.7,4.3s-1.1-1.5-3.1-1.1c-2,0.4,2.5,2.1-2.7,2
				c-5.2-0.1-8.9-2.5-9.6-2c-0.8,0.5,4.4,3.2,4.4,3.2s-4,0.1-7.5-2.6s-0.2,2.5,6.1,4.4c6.4,1.9,10.9-0.8,12.4-0.9L1166.6,106.1z"/>
			<path class="st0" d="M1166.5,113.2c0,0-2,2.9-7.7,2.9c-5.7-0.1-5.2-1.5-8.4-1.9c-3.2-0.4-6.4-4.2-7.2-4c-0.8,0.3,5.3,5.9,5.3,5.9
				s-6.1-0.6-9-4.5s-2.7-6.6-3.7-6.7c-1-0.2,0,4.8,0,4.8s-2.4-1.2-3.2-5c-0.9-3.8-2.2-2.1-2.2,0s-0.5-2.2-1.9-1.7s3,6.7,3,6.7
				s-4.6-2.2-8.5-7.1c-3.8-4.8-2.5-0.2,1.6,4.7c4.1,4.9,18.7,13.5,18.7,13.5l-2.1-2.3c0,0,5.7,4.8,14.6,4.8c0,0-1.7,2-7.8,1.2
				c-6.1-0.8,4.5,3.2,9.5,1.3c5-1.9,8.8-1.7,8.8-1.7L1166.5,113.2z"/>
			<path class="st0" d="M1166.3,125.5c0,0-1.3,2.1-7.4,2.1c-6,0-6.4,1.2-9,0c-2.6-1.2-4-3-5.5-2.1c-1.5,0.9,5.8,5.2,8.9,4.4
				s8.6-1.9,10,1.2c0,0-8.6,3.2-14.9,0.8c-6.4-2.4-12.8-7.7-9-2.4c0,0-2,0.7-4.8-1.9c-2.8-2.7-2.5,0.8,2.9,4.3s13.1,5.6,18.6,5.1
				c0,0-3.2,0.6-3.1,1.7c0.2,1,4.3,1.7,8-0.4c3.7-2.1,5.3-1.3,5.3-1.3L1166.3,125.5z"/>
			<path class="st0" d="M1166.2,138.8c0,0-4.5,2.9-13.3,2.5c-8.8-0.4-17.5-2.8-20.6-5.5c-3-2.7-3.4,2.1,6.3,5.5
				c0,0-5.2,0.5-10.9-3.8s4.6,6.4,4.6,6.4s-3.6-0.5-6.9-3.1s-1.9,1.9,10.1,7.9c12,5.9,25.2,3.8,25.2,3.8s-9.3,2.7-18,2.1
				c-8.7-0.6,4.1,2.3,11.1,1.5c7-0.8,11.5-1.7,11.5-1.7s-6.5,3.7-11.7,3.6s-13.2-2.3-4.1,1.9c0,0-6.2,0-12.3-3.2
				c-6.1-3.2-3.8,1.3,5.2,4c0,0-6.5-0.1-13-5c-6.4-5-9.7-7.7-6.6-1.9c3,5.8,15,13,26.3,12.8c0,0-0.5,0.6-0.5,1.1
				c0,0.5,12.1,2,17.4-1.7L1166.2,138.8z"/>
			<path class="st0" d="M1150.8,144.8c0,0-5.6,1.5-9.1,0.5c-3.5-1-6.7-2.5-6.7-2.5s5.8-0.2,7.9,0.5
				C1145.1,144.1,1147.4,144.9,1150.8,144.8z"/>
			<path class="st0" d="M1166.1,167.4c0,0-3.5,4-9.7,3.6c-6.2-0.4-8.3-3.5-9.2-2.9c-0.9,0.6,1.6,4.2,4,4.9c0,0-8.8-0.8-11.7-4.3
				s-3.5-0.6,2.5,4.3c0,0-10-1.8-15.4-6.3c-5.4-4.4-7.9-4,0.4,4.8c0,0-2.6,0.8-7.1-3.5s-2.7,4.8,8.5,6.4l3.1,6.2c0,0-5-2.5-7.9-5.4
				c-2.9-2.9,0.2,5.4,5.9,7.4c5.8,2,10.4,1.9,10.4,1.9s-4,1.3-10.9-0.4c-6.9-1.7-11.6-4.4-9.8-1.7s9.4,6.7,21.2,7.1
				c11.8,0.4,15.2-1.5,19.4-4.2c4.1-2.7,5.2,0.1,5.2-0.2s-3.3,3.4-11.4,5.9c-8.2,2.4-12.4,4.7-18.2,2.8c-5.8-1.9-10.5-6.4-9.7-4.1
				c0.8,2.3,4.6,3.9,4.6,3.9s-5.9-0.9-9.7-4c-3.7-3.1-2.7,0.1,0.3,2.7c0,0-2.5-0.6,0,1.9c2.5,2.5,7.2,2.3,7.2,2.3s-2.7-0.3-2.4,1.4
				c0.2,1.7,6.7,3.9,13.3,2.8c6.6-1.1,7.9,0.3,7.9,0.3s-0.8,2.3-6.1,2.2c-5.3-0.1-6.3-1.5-11.1-1.4c-4.8,0.1-6.5-1.2-9.8-1.5
				c-3.3-0.3,0.5,4.8,5.2,4.6c4.7-0.2,9.9,1.1,9.2,3c-0.7,2-2.1,0.2-2.7,1.7c-0.5,1.4,4.9,2.9,11.1,1.1s14.9-5.3,20.8-11.9l-0.2,3.5
				c0,0-6.8,0.9-8.6,4.7c-1.8,3.8-8.1,6.4-16.5,6.6s-19.7,0-17.2,1.7s18.2,0,18.2,0s-8.5,3.3-15.7,2.6c-7.2-0.7,0.5,1.7,2.3,2.6
				s0.1,4.3,8.6,3.3c0,0-5.6,2.7-11.4,2.3c-5.8-0.3,3.9,3.3,8.9,2.6c0,0-1.8,0.6-0.8,2.3c1.1,1.7,13.4,2,19-3.7
				c5.6-5.7,12.5-10.2,12.5-10.2s-6.5,10.6-11.4,14.7c-4.9,4.2-16.9,0.8-18.2,3.6c-1.3,2.8,2.4,3.2,2.4,3.2s-2.4,2.3-11.4,2.3
				s-0.7,8.1,10.2,6.4c10.9-1.7,25.6-18.1,25.6-18.1l0.1,2.6c0,0-12.5,9.5-14.2,13.9c0,0-4.3-1.3-7.7,2.7s-5.2,0.4-10.6,4.1
				c-5.5,3.7,12.6,10.1,22.4,4.8c9.7-5.3,16.4-7.6,16.4-7.6L1166.1,167.4z"/>
		</g>
		<g>
			<path class="st0" d="M1252.8,287.5c0,0,0.5-87.5,1.2-106.4c0.7-18.9,0.1-72.3,0-92.1c0-1,0.5-2.9-0.3-3.8
				c-0.8-0.9-0.6-2.3,0.4-2.3s-0.1-2.8,0.8-3c0.9-0.1,0.9,0.8,0.2,4.2c-0.6,3.3-0.2,3.8,0,5c0.3,2.2,2.2,86.2,1.9,115.3
				c-0.3,29.1,0,81.5,0,81.5L1252.8,287.5z"/>
			<path class="st0" d="M1254,97.7c0,0-3.7-3.2-3.9-5.1c-0.2-1.9-2.6,0.3,1.9,5.9c0,0-2.9-3.8-3.5-3.3s2.9,6.3,5.4,7.2V97.7z"/>
			<path class="st0" d="M1254.1,107.2c0,0-1.7-1.2-2.8-3.2c-1.1-2-1.6-0.2-0.4,1.6c1.2,1.8,3.1,3.2,3.1,3.2L1254.1,107.2z"/>
			<path class="st0" d="M1254.1,113.5c0,0-3.2-0.9-6.2-4.7s-3.6-5.6-4.5-5.3c-0.9,0.3,1.8,4.4,1.8,4.4s-1.6-1.4-2.2-2.4
				c-0.6-1-2.1-0.4,0,3.4c0,0-1.8-0.7-0.2,1.9c1.6,2.6,7.1,7.4,11.3,9.1L1254.1,113.5z"/>
			<path class="st0" d="M1254.2,119.8l-1.2,2.3c0,0-4.4-4.6-4.9-4.2c-0.6,0.4,4.1,5.1,4.1,5.1s-7-4.8-9.4-7.8
				c-2.4-2.9-2.9-0.3-0.8,1.8c0,0-2.2-1-0.7,1.2c1.5,2.1,7.2,5.6,7.2,5.6l0.3,2.2c0,0-4.1-1.2-4.4-0.5c-0.3,0.7,2.7,4.2,9.8,5V119.8
				z"/>
			<path class="st0" d="M1254.2,134.8c0,0-4.2-0.3-6.2-3.1s-1,0.5-1,0.5s-7-6.3-9.6-9.7c-2.7-3.4-2,0.6,2.4,4.8c0,0-4.8-3.9-7.4-7.1
				c-2.6-3.2-0.1,3.4,4.9,7.6c0,0-2.2-0.7-3.6-2.2c-1.4-1.5-1.5-0.1,0.6,2.3s10.8,8.5,10.8,8.5s-7.8-3.6-9.3-4.2s3.1,4.2,8.7,7.1
				l-0.2,1.3c0,0-7.8-5-12.5-10c-4.7-5-4.6-1.5,3.5,5.3c0,0-3.6-1.9-6.6-4.5s-4.5,1.1,5.7,7.1c0,0-2.9,0-6.1-2.6
				c-3.2-2.6-4.8,2.8,8.5,4.3c0,0-0.9,0.4-2.3,0.4c-1.4-0.1,0.5,1.5,3.6,1.6c3.1,0.1,5.7,3.2,9.8,4.6c4.1,1.4,6.5,1.5,6.5,1.5
				L1254.2,134.8z"/>
			<path class="st0" d="M1251.4,146.4c0,0-5.8,2.4-11.6-0.6c-5.8-3-7.3-4.6-7.9-3.6c-0.6,1,4.9,7.1,11.5,7.9
				c6.6,0.9,10.9,0.3,10.9,0.3l0-4.5L1251.4,146.4z"/>
			<path class="st0" d="M1252.3,150.6c0,0-0.8,2.4,1.9,3.9c0,0-7.5,1.1-12.1-1.3c-4.5-2.4-6.8-3.2-3.6-0.5s10,4.2,15.6,4.1
				c0,0-5.3,1.5-7.6-0.8c0,0-4.2-1.3-4.3-0.4c-0.1,0.9,4.2,3.5,4.2,3.5s-5,0.2-9.8-1.5c-4.8-1.7-12.3-6.2-9.1-2.7s3.2,3.5,3.2,3.5
				s-4.3-2.7-4.8-2.1s2.6,2.5,2.6,2.5s-3.5-1.6-2.6,0.3c1,1.9,9.6,5.4,15.4,5.1s10-1.3,10-1.3s-9.8,3.5-18.6,1.3
				c-8.8-2.1,3,4.8,11.5,3c8.5-1.7,9.9-0.9,9.9-0.9v-16l-2.4-1L1252.3,150.6z"/>
			<path class="st0" d="M1254.2,169.3c0,0-6.5,1.8-12.3,0.5c-5.8-1.3-7-3.4-7.4-2.5c-0.4,0.9,4.3,3.9,4.3,3.9s-8.3-1.9-12.4-4.6
				c-4.2-2.7-3.4,2.5,3.3,5.1c6.8,2.6,13.6,4.2,24.5,0.8L1254.2,169.3z"/>
			<path class="st0" d="M1254.2,172.5c0,0-5.4,4.7-14.1,3.5s-21.5-6.8-13.1-0.3s21,2.8,21,2.8s-5.8,3.1-11.1,1.9
				c-5.4-1.2-8.6-3.3-8.3-2.1c0.3,1.2,2.8,4.2,5.8,5.7c0,0-4.2-2-4.5-1c-0.3,1,0.5,2.6,0.5,2.6s-3,0-3.7,1.5c0,0-4.8-2.9-5.4-2
				c-0.6,0.9,2.7,3.8,9.1,5.2c6.3,1.4,16.6,3.2,23.5-0.3l0.1-5.9c0,0-6.2,3.1-11.9,2.7s-5.7-2.5-1.4-1.6c4.3,0.9,11.1-1.5,13.3-2.8
				L1254.2,172.5z"/>
			<path class="st0" d="M1250.9,234.2c0,0-0.9,2.8,2.2,4.5c0,0-8.7,1.3-13.9-1.5c-5.2-2.8-7.8-3.6-4.1-0.6s11.6,4.8,18,4.8
				c0,0-6.1,1.8-8.8-0.9c0,0-4.9-1.5-4.9-0.5c-0.1,1,4.9,4,4.9,4s-5.8,0.3-11.3-1.7c-5.5-2-14.2-7.2-10.5-3.1c3.7,4,3.7,4,3.7,4
				s-4.9-3.1-5.5-2.4c-0.6,0.7,2.9,2.9,2.9,2.9s-4.1-1.8-2.9,0.3c1.1,2.2,11,6.2,17.7,5.9c6.6-0.3,11.5-1.5,11.5-1.5
				s-11.3,4-21.4,1.5c-10.1-2.5,3.5,5.5,13.3,3.5c9.8-2,11.5-1,11.5-1V234l-2.8-1.2L1250.9,234.2z"/>
			<path class="st0" d="M1253,255.7c0,0-7.5,2.1-14.2,0.5c-6.7-1.5-8.1-3.9-8.6-2.9s4.9,4.5,4.9,4.5s-9.5-2.2-14.3-5.3
				c-4.8-3.1-3.9,2.9,3.9,5.9c7.8,3,15.6,4.9,28.3,0.9L1253,255.7z"/>
			<path class="st0" d="M1253,259.4c0,0-6.3,5.4-16.2,4.1c-10-1.3-24.8-7.8-15.1-0.3c9.7,7.4,24.2,3.2,24.2,3.2s-6.6,3.5-12.8,2.2
				c-6.2-1.3-9.9-3.8-9.6-2.4c0.3,1.4,3.3,4.9,6.6,6.6c0,0-4.9-2.3-5.2-1.2s0.5,3,0.5,3s-3.5,0-4.3,1.7c0,0-5.5-3.3-6.2-2.3
				c-0.7,1.1,3.1,4.3,10.4,6c7.3,1.7,19.1,3.7,27.1-0.4l0.2-6.8c0,0-7.1,3.5-13.7,3.1c-6.6-0.5-6.5-2.9-1.6-1.9
				c4.9,1,12.8-1.8,15.4-3.3L1253,259.4z"/>
			<path class="st0" d="M1253.7,192c0,0-3.8,2.5-9.8,1.4s-7.2-3.5-7.2-3.5h-3.9c0,0,1.4,4.6,7,5.7c0,0-9.5-2.3-6.2,2.1l-3.2,1.2
				c0,0,3.1,4.8,10.1,4.7c7-0.1,13.1-2.8,13.1-2.8L1253.7,192z"/>
			<path class="st0" d="M1253.5,205.3c0,0-3-0.5-4.7,0.6c0,0-9.1,0.6-13-0.4c-3.9-1-0.3,2.8,3.6,3.5c0,0-6.3-0.1-10.7-1.4
				s-0.9,2.1,5.4,3.1c6.3,1,9.9,0.6,9.9,0.6s-4.4,1.8-8.8,1.1c-4.4-0.7-8.1-1.9-4,0.2c4.2,2.1,13,1.2,16.9,0c0,0,2,1.3,2.7-0.3
				s0.6-2.4,0.6-2.4l2.1,0.3L1253.5,205.3z"/>
			<path class="st0" d="M1253.4,213.9c0,0-2.8-0.7-4.3,0.5h-9c0,0-0.7,1.6,1.2,2.1c0,0-6.5,0.2-11.7-1.9s-2.7,1.8,3,3.2
				c5.7,1.4,16.3,0.9,16.3,0.9l-0.7,1.4c0,0-4.2-1.1-7.3,0c-3.1,1.1-9.2,0.1-13-2.1s-1.4,4,1.8,6.6c3.2,2.7,10.5,0.6,15.8,3.2
				c0,0-11.4,2.1-17,0.6c-5.5-1.5,1.4,5.2,10.2,3.7c8.8-1.5,10.3-4,13.3-2.8c0,0-1.6,4.7-10,4.6c-8.4-0.1-15-1-10.6,1.5
				c4.4,2.5,21.7,0,21.7,0L1253.4,213.9z"/>
			<path class="st0" d="M1254,94.3c0,0-2-2-2-3.8s1.2,0.7,1.9,1.4L1254,94.3z"/>
			<path class="st0" d="M1255.5,98.2c0,0,1-0.5,2.2-2c1.2-1.4,2.6-0.7-0.5,2.2c0,0,2.4-1.4,2.9-0.4c0.5,1-3.6,2.1-4.4,4.2
				L1255.5,98.2z"/>
			<path class="st0" d="M1255.9,112c0,0,2.1-0.2,3.9-1.8c1.8-1.6,4.1-3.9,1.8,0.6c0,0,4-1.5,6.3-4.9c2.2-3.4,2.4-9.3,2.5-2.8
				c0,0,2.4-2.7,4.1-5.3s-0.1,3.1-3.2,7.1c0,0,3.1-0.5-2.7,5.2c0,0,1.5-0.3,2.6-1.3s3.5-1.7-0.8,2.4c-4.4,4.2-14.3,6.9-14.3,6.9
				L1255.9,112z"/>
			<path class="st0" d="M1256,118.9c0,0,2.1,0.5,4-0.2s3,0.6,0,1.7c-3,1.1-3.9,1.8-3.9,1.8L1256,118.9z"/>
			<path class="st0" d="M1256.1,123.8c0,0,2.5-0.5,4.7-2.2s1.9,0,1.9,0s3.2-1.6,5.6-4.4c2.4-2.7,4.5-3.5,1.2,1.3
				c-3.4,4.8-9.5,6.6-9.5,6.6s7.1-1.8,9.7-4.5c2.6-2.7,0.9,1.3-5.2,4.2c-6.1,2.9-8.3,3.8-8.3,3.8L1256.1,123.8z"/>
			<path class="st0" d="M1256.3,130.1c0,0,1.9-0.5,3.5-1.2c1.7-0.8,3.1-0.8,0.4,1.2c-2.7,2-3.8,2.8-3.8,2.8L1256.3,130.1z"/>
			<path class="st0" d="M1256.3,133.8c0,0,1.2,0.5,3.2-0.6c2-1,7.3-4.6,8.2-4.6s-2.1,3.2-5.1,5c0,0,6.3-0.9,9.4-5.2
				c3.1-4.3,3.1-2.2,0,2c0,0,4.5-2.3,7.1-6.4c2.6-4.1,1.4,0,0.3,1.6c-1,1.6-3.1,4.4-3.1,4.4s1.9-1,3.6-3.2c1.7-2.2,1.5,0.3-0.7,3.2
				c-2.2,2.9-11.3,5.4-14,7.3c-2.7,2-3.7,3.9-3.7,3.9s3.5-4,6.7-3.9c3.2,0,1,0.7,1.1,2.5c0,0,1.8,0.5,6-4s4.3-4.1,0.7,1.6
				c0,0,2.2-1,4.4-4.3c2.2-3.2,1.7-0.6,0.3,1.7s-2.6,3.2-2.6,3.2s3.2-1.1,6.6-6.8c3.4-5.7,3.4-2.2-0.8,4c-4.2,6.3-10,8.9-14.9,9.5
				c-4.9,0.6-5.5,2.7-5.5,2.7s5.1-1.4,6.6,0.3c0,0,6.4-0.5,9.5-2.9c3.1-2.5-1.9,3.9-9.3,6.4c0,0,1.3-0.4,1.3,0c0,0.4-3.6,2.9-8.2,1
				s-7-2.1-7-2.1L1256.3,133.8z"/>
			<path class="st0" d="M1256.7,151.4c0,0,2.3-1.7,3.3-1.3s-3.3,2.6-3.3,3.7c0,1.2,1-1.3,2.7-1c1.7,0.3-2.2,1.9,2.4,1.8
				c4.6-0.1,7.8-2.2,8.5-1.8c0.7,0.4-3.8,2.8-3.8,2.8s3.5,0,6.6-2.3c3.1-2.4,0.2,2.2-5.4,3.9s-9.6-0.7-10.9-0.8L1256.7,151.4z"/>
			<path class="st0" d="M1256.8,157.6c0,0,1.8,2.6,6.8,2.5s4.5-1.3,7.4-1.7c2.8-0.4,5.6-3.7,6.3-3.5s-4.7,5.2-4.7,5.2s5.3-0.6,7.9-4
				c2.6-3.4,2.4-5.8,3.3-5.9c0.9-0.1,0,4.2,0,4.2s2.1-1.1,2.8-4.4c0.8-3.3,1.9-1.9,1.9,0s0.5-1.9,1.7-1.5c1.2,0.4-2.6,5.9-2.6,5.9
				s4.1-1.9,7.4-6.2s2.2-0.1-1.4,4.2s-16.4,11.8-16.4,11.8l1.8-2c0,0-5,4.3-12.9,4.2c0,0,1.5,1.7,6.9,1.1c5.3-0.7-4,2.8-8.3,1.1
				c-4.3-1.7-7.7-1.5-7.7-1.5L1256.8,157.6z"/>
			<path class="st0" d="M1256.9,168.3c0,0,1.2,1.8,6.5,1.8c5.3,0,5.6,1,7.9,0c2.3-1,3.5-2.6,4.8-1.8c1.3,0.8-5.1,4.6-7.8,3.8
				c-2.7-0.8-7.5-1.7-8.7,1c0,0,7.5,2.8,13.1,0.7c5.6-2.1,11.2-6.8,7.9-2.1c0,0,1.7,0.7,4.2-1.7c2.5-2.3,2.2,0.7-2.5,3.8
				c-4.7,3-11.5,4.9-16.3,4.4c0,0,2.8,0.6,2.7,1.5s-3.8,1.5-7-0.4c-3.2-1.8-4.6-1.1-4.6-1.1L1256.9,168.3z"/>
			<path class="st0" d="M1257,180.1c0,0,3.9,2.5,11.7,2.2c7.7-0.3,15.4-2.5,18.1-4.9c2.7-2.4,3,1.8-5.5,4.9c0,0,4.6,0.4,9.6-3.3
				c5-3.8-4.1,5.6-4.1,5.6s3.1-0.4,6.1-2.7c2.9-2.3,1.7,1.7-8.9,6.9c-10.5,5.2-22.2,3.3-22.2,3.3s8.1,2.4,15.8,1.8
				c7.7-0.5-3.6,2-9.7,1.3c-6.1-0.7-10.1-1.5-10.1-1.5s5.7,3.2,10.3,3.2c4.6,0,11.6-2,3.6,1.7c0,0,5.5,0,10.8-2.8
				c5.4-2.8,3.4,1.2-4.6,3.5c0,0,5.7-0.1,11.4-4.4c5.7-4.4,8.5-6.8,5.8-1.7s-13.1,11.4-23.1,11.2c0,0,0.4,0.5,0.4,1
				s-10.6,1.8-15.3-1.5L1257,180.1z"/>
			<path class="st0" d="M1270.5,185.3c0,0,4.9,1.3,8,0.5c3.1-0.8,5.9-2.2,5.9-2.2s-5.1-0.1-6.9,0.5
				C1275.6,184.7,1273.5,185.4,1270.5,185.3z"/>
			<path class="st0" d="M1257.1,205.2c0,0,3.1,3.5,8.5,3.2c5.4-0.3,7.3-3.1,8.1-2.5c0.8,0.6-1.4,3.7-3.5,4.3c0,0,7.7-0.7,10.3-3.8
				s3.1-0.5-2.2,3.8c0,0,8.8-1.6,13.5-5.5c4.8-3.9,7-3.5-0.3,4.2c0,0,2.3,0.7,6.2-3c3.9-3.7,2.3,4.2-7.5,5.6l-2.7,5.4
				c0,0,4.4-2.2,6.9-4.8c2.5-2.5-0.1,4.8-5.2,6.5s-9.2,1.7-9.2,1.7s3.5,1.1,9.6-0.3s10.2-3.9,8.6-1.5c-1.6,2.4-8.2,5.9-18.6,6.2
				c-10.4,0.3-13.4-1.3-17-3.7s-4.6,0.1-4.6-0.1c0-0.2,2.9,3,10,5.2c7.2,2.1,10.9,4.1,16,2.5s9.2-5.6,8.5-3.6c-0.7,2-4,3.4-4,3.4
				s5.2-0.8,8.5-3.5c3.3-2.7,2.4,0.1-0.3,2.3c0,0,2.2-0.5,0,1.7c-2.2,2.2-6.3,2-6.3,2s2.3-0.3,2.1,1.2c-0.2,1.5-5.9,3.4-11.7,2.5
				s-6.9,0.2-6.9,0.2s0.7,2,5.4,1.9c4.6,0,5.6-1.3,9.8-1.2c4.2,0.1,5.7-1.1,8.6-1.3c2.9-0.3-0.4,4.2-4.6,4c-4.1-0.2-8.7,0.9-8.1,2.7
				s1.9,0.2,2.3,1.5c0.5,1.3-4.3,2.5-9.7,1c-5.4-1.5-13.1-4.7-18.3-10.5l0.2,3.1c0,0,6,0.8,7.6,4.1c1.6,3.3,7.1,5.6,14.5,5.8
				c7.4,0.1,17.3,0,15.1,1.5c-2.2,1.5-16,0-16,0s7.4,2.9,13.8,2.3c6.4-0.6-0.4,1.5-2,2.3c-1.6,0.8-0.1,3.8-7.6,2.9c0,0,4.9,2.3,10,2
				c5.1-0.3-3.4,2.9-7.8,2.2c0,0,1.6,0.5,0.7,2c-0.9,1.5-11.8,1.8-16.7-3.3c-4.9-5-11-9-11-9s5.7,9.3,10,12.9
				c4.3,3.7,14.8,0.7,16,3.2c1.2,2.5-2.1,2.8-2.1,2.8s2.1,2,10,2s0.6,7.1-9,5.6s-22.4-15.9-22.4-15.9l-0.1,2.3c0,0,11,8.3,12.5,12.2
				c0,0,3.7-1.2,6.8,2.3c3,3.5,4.6,0.4,9.3,3.6c4.8,3.3-11.1,8.9-19.6,4.2s-14.4-6.7-14.4-6.7L1257.1,205.2z"/>
		</g>
		<g>
			<path class="st0" d="M813.5,244c0,0-0.5-87.5-1.2-106.4c-0.7-18.9-0.1-72.3,0-92.1c0-1-0.5-2.9,0.3-3.8c0.8-0.9,0.6-2.3-0.4-2.3
				s0.1-2.8-0.8-3c-0.9-0.1-0.9,0.8-0.2,4.2c0.6,3.3,0.2,3.8,0,5c-0.3,2.2-2.2,86.2-1.9,115.3c0.3,29.1,0,81.5,0,81.5L813.5,244z"/>
			<path class="st0" d="M812.3,54.2c0,0,3.7-3.2,3.9-5.1c0.2-1.9,2.6,0.3-1.9,5.9c0,0,2.9-3.8,3.5-3.3c0.6,0.5-2.9,6.3-5.4,7.2V54.2
				z"/>
			<path class="st0" d="M812.2,63.7c0,0,1.7-1.2,2.8-3.2c1.1-2,1.6-0.2,0.4,1.6c-1.2,1.8-3.1,3.2-3.1,3.2L812.2,63.7z"/>
			<path class="st0" d="M812.1,70c0,0,3.2-0.9,6.2-4.7c3-3.8,3.6-5.6,4.5-5.3c0.9,0.3-1.8,4.4-1.8,4.4s1.6-1.4,2.2-2.4
				s2.1-0.4,0,3.4c0,0,1.8-0.7,0.2,1.9c-1.6,2.6-7.1,7.4-11.3,9.1L812.1,70z"/>
			<path class="st0" d="M812.1,76.3l1.2,2.3c0,0,4.4-4.6,4.9-4.2c0.6,0.4-4.1,5.1-4.1,5.1s7-4.8,9.4-7.8c2.4-2.9,2.9-0.3,0.8,1.8
				c0,0,2.2-1,0.7,1.2s-7.2,5.6-7.2,5.6l-0.3,2.2c0,0,4.1-1.2,4.4-0.5s-2.7,4.2-9.8,5V76.3z"/>
			<path class="st0" d="M812,91.3c0,0,4.2-0.3,6.2-3.1c2-2.8,1,0.5,1,0.5s7-6.3,9.6-9.7c2.7-3.4,2,0.6-2.4,4.8c0,0,4.8-3.9,7.4-7.1
				s0.1,3.4-4.9,7.6c0,0,2.2-0.7,3.6-2.2c1.4-1.5,1.5-0.1-0.6,2.3s-10.8,8.5-10.8,8.5s7.8-3.6,9.3-4.2c1.5-0.6-3.1,4.2-8.7,7.1
				l0.2,1.3c0,0,7.8-5,12.5-10s4.6-1.5-3.5,5.3c0,0,3.6-1.9,6.6-4.5s4.5,1.1-5.7,7.1c0,0,2.9,0,6.1-2.6c3.2-2.6,4.8,2.8-8.5,4.3
				c0,0,0.9,0.4,2.3,0.4c1.4-0.1-0.5,1.5-3.6,1.6c-3.1,0.1-5.7,3.2-9.8,4.6s-6.5,1.5-6.5,1.5L812,91.3z"/>
			<path class="st0" d="M814.9,102.9c0,0,5.8,2.4,11.6-0.6s7.3-4.6,7.9-3.6s-4.9,7.1-11.5,7.9c-6.6,0.9-10.9,0.3-10.9,0.3l0-4.5
				L814.9,102.9z"/>
			<path class="st0" d="M814,107.1c0,0,0.8,2.4-1.9,3.9c0,0,7.5,1.1,12.1-1.3c4.5-2.4,6.8-3.2,3.6-0.5c-3.2,2.6-10,4.2-15.6,4.1
				c0,0,5.3,1.5,7.6-0.8c0,0,4.2-1.3,4.3-0.4c0.1,0.9-4.2,3.5-4.2,3.5s5,0.2,9.8-1.5c4.8-1.7,12.3-6.2,9.1-2.7
				c-3.2,3.5-3.2,3.5-3.2,3.5s4.3-2.7,4.8-2.1s-2.6,2.5-2.6,2.5s3.5-1.6,2.6,0.3c-1,1.9-9.6,5.4-15.4,5.1c-5.8-0.2-10-1.3-10-1.3
				s9.8,3.5,18.6,1.3c8.8-2.1-3,4.8-11.5,3c-8.5-1.7-9.9-0.9-9.9-0.9v-16l2.4-1L814,107.1z"/>
			<path class="st0" d="M812.1,125.8c0,0,6.5,1.8,12.3,0.5s7-3.4,7.4-2.5c0.4,0.9-4.3,3.9-4.3,3.9s8.3-1.9,12.4-4.6
				c4.2-2.7,3.4,2.5-3.3,5.1c-6.8,2.6-13.6,4.2-24.5,0.8L812.1,125.8z"/>
			<path class="st0" d="M812.1,129c0,0,5.4,4.7,14.1,3.5c8.7-1.2,21.5-6.8,13.1-0.3c-8.4,6.5-21,2.8-21,2.8s5.8,3.1,11.1,1.9
				s8.6-3.3,8.3-2.1c-0.3,1.2-2.8,4.2-5.8,5.7c0,0,4.2-2,4.5-1c0.3,1-0.5,2.6-0.5,2.6s3,0,3.7,1.5c0,0,4.8-2.9,5.4-2
				c0.6,0.9-2.7,3.8-9.1,5.2c-6.3,1.4-16.6,3.2-23.5-0.3l-0.1-5.9c0,0,6.2,3.1,11.9,2.7c5.7-0.4,5.7-2.5,1.4-1.6
				c-4.3,0.9-11.1-1.5-13.3-2.8L812.1,129z"/>
			<path class="st0" d="M815.4,190.7c0,0,0.9,2.8-2.2,4.5c0,0,8.7,1.3,13.9-1.5s7.8-3.6,4.1-0.6c-3.6,3-11.6,4.8-18,4.8
				c0,0,6.1,1.8,8.8-0.9c0,0,4.9-1.5,4.9-0.5s-4.9,4-4.9,4s5.8,0.3,11.3-1.7c5.5-2,14.2-7.2,10.5-3.1c-3.7,4-3.7,4-3.7,4
				s4.9-3.1,5.5-2.4c0.6,0.7-2.9,2.9-2.9,2.9s4.1-1.8,2.9,0.3c-1.1,2.2-11,6.2-17.7,5.9c-6.6-0.3-11.5-1.5-11.5-1.5s11.3,4,21.4,1.5
				s-3.5,5.5-13.3,3.5c-9.8-2-11.5-1-11.5-1v-18.4l2.8-1.2L815.4,190.7z"/>
			<path class="st0" d="M813.3,212.2c0,0,7.5,2.1,14.2,0.5c6.7-1.5,8.1-3.9,8.6-2.9c0.5,1.1-4.9,4.5-4.9,4.5s9.5-2.2,14.3-5.3
				c4.8-3.1,3.9,2.9-3.9,5.9c-7.8,3-15.6,4.9-28.3,0.9L813.3,212.2z"/>
			<path class="st0" d="M813.3,215.9c0,0,6.3,5.4,16.2,4.1s24.8-7.8,15.1-0.3c-9.7,7.4-24.2,3.2-24.2,3.2s6.6,3.5,12.8,2.2
				s9.9-3.8,9.6-2.4c-0.3,1.4-3.3,4.9-6.6,6.6c0,0,4.9-2.3,5.2-1.2c0.3,1.1-0.5,3-0.5,3s3.5,0,4.3,1.7c0,0,5.5-3.3,6.2-2.3
				s-3.1,4.3-10.4,6c-7.3,1.7-19.1,3.7-27.1-0.4l-0.2-6.8c0,0,7.1,3.5,13.7,3.1s6.5-2.9,1.6-1.9c-4.9,1-12.8-1.8-15.4-3.3
				L813.3,215.9z"/>
			<path class="st0" d="M812.6,148.6c0,0,3.8,2.5,9.8,1.4c6.1-1,7.2-3.5,7.2-3.5h3.9c0,0-1.4,4.6-7,5.7c0,0,9.5-2.3,6.2,2.1l3.2,1.2
				c0,0-3.1,4.8-10.1,4.7s-13.1-2.8-13.1-2.8L812.6,148.6z"/>
			<path class="st0" d="M812.8,161.8c0,0,3-0.5,4.7,0.6c0,0,9.1,0.6,13-0.4s0.3,2.8-3.6,3.5c0,0,6.3-0.1,10.7-1.4
				c4.4-1.3,0.9,2.1-5.4,3.1c-6.3,1-9.9,0.6-9.9,0.6s4.4,1.8,8.8,1.1c4.4-0.7,8.1-1.9,4,0.2s-13,1.2-16.9,0c0,0-2,1.3-2.7-0.3
				c-0.8-1.6-0.6-2.4-0.6-2.4l-2.1,0.3L812.8,161.8z"/>
			<path class="st0" d="M812.9,170.4c0,0,2.8-0.7,4.3,0.5h9c0,0,0.7,1.6-1.2,2.1c0,0,6.5,0.2,11.7-1.9c5.3-2.1,2.7,1.8-3,3.2
				c-5.7,1.4-16.3,0.9-16.3,0.9l0.7,1.4c0,0,4.2-1.1,7.3,0c3.1,1.1,9.2,0.1,13-2.1c3.8-2.3,1.4,4-1.8,6.6
				c-3.2,2.7-10.5,0.6-15.8,3.2c0,0,11.4,2.1,17,0.6s-1.4,5.2-10.2,3.7c-8.8-1.5-10.3-4-13.3-2.8c0,0,1.6,4.7,10,4.6
				c8.4-0.1,15-1,10.6,1.5c-4.4,2.5-21.7,0-21.7,0L812.9,170.4z"/>
			<path class="st0" d="M812.3,50.9c0,0,2-2,2-3.8c0-1.7-1.2,0.7-1.9,1.4L812.3,50.9z"/>
			<path class="st0" d="M810.8,54.7c0,0-1-0.5-2.2-2c-1.2-1.4-2.6-0.7,0.5,2.2c0,0-2.4-1.4-2.9-0.4c-0.5,1,3.6,2.1,4.4,4.2
				L810.8,54.7z"/>
			<path class="st0" d="M810.4,68.5c0,0-2.1-0.2-3.9-1.8c-1.8-1.6-4.1-3.9-1.8,0.6c0,0-4-1.5-6.3-4.9c-2.2-3.4-2.4-9.3-2.5-2.8
				c0,0-2.4-2.7-4.1-5.3s0.1,3.1,3.2,7.1c0,0-3.1-0.5,2.7,5.2c0,0-1.5-0.3-2.6-1.3c-1.1-1-3.5-1.7,0.8,2.4
				c4.4,4.2,14.3,6.9,14.3,6.9L810.4,68.5z"/>
			<path class="st0" d="M810.3,75.5c0,0-2.1,0.5-4-0.2s-3,0.6,0,1.7c3,1.1,3.9,1.8,3.9,1.8L810.3,75.5z"/>
			<path class="st0" d="M810.2,80.4c0,0-2.5-0.5-4.7-2.2s-1.9,0-1.9,0s-3.2-1.6-5.6-4.4c-2.4-2.7-4.5-3.5-1.2,1.3
				c3.4,4.8,9.5,6.6,9.5,6.6s-7.1-1.8-9.7-4.5c-2.6-2.7-0.9,1.3,5.2,4.2c6.1,2.9,8.3,3.8,8.3,3.8L810.2,80.4z"/>
			<path class="st0" d="M810,86.7c0,0-1.9-0.5-3.5-1.2s-3.1-0.8-0.4,1.2c2.7,2,3.8,2.8,3.8,2.8L810,86.7z"/>
			<path class="st0" d="M810,90.3c0,0-1.2,0.5-3.2-0.6s-7.3-4.6-8.2-4.6c-0.9,0,2.1,3.2,5.1,5c0,0-6.3-0.9-9.4-5.2
				c-3.1-4.3-3.1-2.2,0,2c0,0-4.5-2.3-7.1-6.4c-2.6-4.1-1.4,0-0.3,1.6c1,1.6,3.1,4.4,3.1,4.4s-1.9-1-3.6-3.2
				c-1.7-2.2-1.5,0.3,0.7,3.2s11.3,5.4,14,7.3c2.7,2,3.7,3.9,3.7,3.9s-3.5-4-6.7-3.9c-3.2,0-1,0.7-1.1,2.5c0,0-1.8,0.5-6-4
				c-4.2-4.6-4.3-4.1-0.7,1.6c0,0-2.2-1-4.4-4.3c-2.2-3.2-1.7-0.6-0.3,1.7s2.6,3.2,2.6,3.2s-3.2-1.1-6.6-6.8c-3.4-5.7-3.4-2.2,0.8,4
				c4.2,6.3,10,8.9,14.9,9.5s5.5,2.7,5.5,2.7s-5.1-1.4-6.6,0.3c0,0-6.4-0.5-9.5-2.9c-3.1-2.5,1.9,3.9,9.3,6.4c0,0-1.3-0.4-1.3,0
				c0,0.4,3.6,2.9,8.2,1s7-2.1,7-2.1L810,90.3z"/>
			<path class="st0" d="M809.6,107.9c0,0-2.3-1.7-3.3-1.3s3.3,2.6,3.3,3.7c0,1.2-1-1.3-2.7-1s2.2,1.9-2.4,1.8s-7.8-2.2-8.5-1.8
				c-0.7,0.4,3.8,2.8,3.8,2.8s-3.5,0-6.6-2.3c-3.1-2.4-0.2,2.2,5.4,3.9c5.6,1.7,9.6-0.7,10.9-0.8L809.6,107.9z"/>
			<path class="st0" d="M809.5,114.2c0,0-1.8,2.6-6.8,2.5c-5,0-4.5-1.3-7.4-1.7c-2.8-0.4-5.6-3.7-6.3-3.5c-0.7,0.2,4.7,5.2,4.7,5.2
				s-5.3-0.6-7.9-4c-2.6-3.4-2.4-5.8-3.3-5.9c-0.9-0.1,0,4.2,0,4.2s-2.1-1.1-2.8-4.4c-0.8-3.3-1.9-1.9-1.9,0c0,1.9-0.5-1.9-1.7-1.5
				c-1.2,0.4,2.6,5.9,2.6,5.9s-4.1-1.9-7.4-6.2s-2.2-0.1,1.4,4.2c3.6,4.3,16.4,11.8,16.4,11.8l-1.8-2c0,0,5,4.3,12.9,4.2
				c0,0-1.5,1.7-6.9,1.1c-5.3-0.7,4,2.8,8.3,1.1s7.7-1.5,7.7-1.5L809.5,114.2z"/>
			<path class="st0" d="M809.4,124.9c0,0-1.2,1.8-6.5,1.8c-5.3,0-5.6,1-7.9,0s-3.5-2.6-4.8-1.8s5.1,4.6,7.8,3.8
				c2.7-0.8,7.5-1.7,8.7,1c0,0-7.5,2.8-13.1,0.7s-11.2-6.8-7.9-2.1c0,0-1.7,0.7-4.2-1.7c-2.5-2.3-2.2,0.7,2.5,3.8
				c4.7,3,11.5,4.9,16.3,4.4c0,0-2.8,0.6-2.7,1.5c0.1,0.9,3.8,1.5,7-0.4s4.6-1.1,4.6-1.1L809.4,124.9z"/>
			<path class="st0" d="M809.2,136.6c0,0-3.9,2.5-11.7,2.2c-7.7-0.3-15.4-2.5-18.1-4.9c-2.7-2.4-3,1.8,5.5,4.9c0,0-4.6,0.4-9.6-3.3
				c-5-3.8,4.1,5.6,4.1,5.6s-3.1-0.4-6.1-2.7c-2.9-2.3-1.6,1.7,8.9,6.9c10.5,5.2,22.2,3.3,22.2,3.3s-8.1,2.4-15.8,1.8
				c-7.7-0.5,3.6,2,9.7,1.3c6.1-0.7,10.1-1.5,10.1-1.5s-5.7,3.2-10.3,3.2s-11.6-2-3.6,1.7c0,0-5.5,0-10.8-2.8
				c-5.4-2.8-3.4,1.2,4.6,3.5c0,0-5.7-0.1-11.4-4.4c-5.7-4.4-8.5-6.8-5.8-1.7s13.1,11.4,23.1,11.2c0,0-0.4,0.5-0.4,1
				c0,0.5,10.6,1.8,15.3-1.5L809.2,136.6z"/>
			<path class="st0" d="M795.8,141.9c0,0-4.9,1.3-8,0.5c-3.1-0.8-5.9-2.2-5.9-2.2s5.1-0.1,6.9,0.5
				C790.7,141.3,792.8,141.9,795.8,141.9z"/>
			<path class="st0" d="M809.2,161.7c0,0-3.1,3.5-8.5,3.2c-5.4-0.3-7.3-3.1-8.1-2.5c-0.8,0.6,1.4,3.7,3.5,4.3c0,0-7.7-0.7-10.3-3.8
				c-2.6-3.1-3.1-0.5,2.2,3.8c0,0-8.8-1.6-13.5-5.5c-4.8-3.9-7-3.5,0.3,4.2c0,0-2.3,0.7-6.2-3s-2.3,4.2,7.5,5.6l2.7,5.4
				c0,0-4.4-2.2-6.9-4.8s0.1,4.8,5.2,6.5c5.1,1.7,9.2,1.7,9.2,1.7s-3.5,1.1-9.6-0.3c-6.1-1.5-10.2-3.9-8.6-1.5
				c1.6,2.4,8.2,5.9,18.6,6.2c10.4,0.3,13.4-1.3,17-3.7c3.6-2.3,4.6,0.1,4.6-0.1c0-0.2-2.9,3-10,5.2c-7.2,2.1-10.9,4.1-16,2.5
				c-5.1-1.7-9.2-5.6-8.5-3.6c0.7,2,4,3.4,4,3.4s-5.2-0.8-8.5-3.5c-3.3-2.7-2.4,0.1,0.3,2.3c0,0-2.2-0.5,0,1.7c2.2,2.2,6.3,2,6.3,2
				s-2.3-0.3-2.1,1.2s5.9,3.4,11.7,2.5s6.9,0.2,6.9,0.2s-0.7,2-5.4,1.9s-5.6-1.3-9.8-1.2c-4.2,0.1-5.7-1.1-8.6-1.3
				c-2.9-0.3,0.4,4.2,4.6,4c4.1-0.2,8.7,0.9,8.1,2.7c-0.6,1.7-1.9,0.2-2.3,1.5c-0.5,1.3,4.3,2.5,9.7,1c5.4-1.5,13.1-4.7,18.3-10.5
				l-0.2,3.1c0,0-6,0.8-7.6,4.1c-1.6,3.3-7.1,5.6-14.5,5.8c-7.4,0.1-17.3,0-15.1,1.5c2.2,1.5,16,0,16,0s-7.4,2.9-13.8,2.3
				c-6.4-0.6,0.4,1.5,2,2.3s0.1,3.8,7.6,2.9c0,0-4.9,2.3-10,2c-5.1-0.3,3.4,2.9,7.8,2.2c0,0-1.6,0.5-0.7,2
				c0.9,1.5,11.8,1.8,16.7-3.3c4.9-5,11-9,11-9s-5.7,9.3-10,12.9c-4.3,3.7-14.8,0.7-16,3.2c-1.2,2.5,2.1,2.8,2.1,2.8s-2.1,2-10,2
				c-7.9,0-0.6,7.1,9,5.6s22.4-15.9,22.4-15.9l0.1,2.3c0,0-11,8.3-12.5,12.2c0,0-3.7-1.2-6.8,2.3c-3,3.5-4.6,0.4-9.3,3.6
				s11.1,8.9,19.6,4.2s14.4-6.7,14.4-6.7L809.2,161.7z"/>
		</g>
		<g>
			<path class="st0" d="M630,266.8c0,0,0.4-59.4,0.8-72.3c0.5-12.9,0-49.1,0-62.6c0-0.7,0.4-2-0.2-2.6c-0.6-0.6-0.4-1.6,0.3-1.6
				c0.7,0,0-1.9,0.6-2c0.6-0.1,0.6,0.6,0.2,2.8c-0.4,2.3-0.1,2.5,0,3.4c0.2,1.5,1.5,58.6,1.3,78.3c-0.2,19.7,0,55.4,0,55.4
				L630,266.8z"/>
			<path class="st0" d="M630.9,137.8c0,0-2.5-2.2-2.6-3.4c-0.1-1.3-1.8,0.2,1.3,4c0,0-1.9-2.6-2.4-2.2s2,4.2,3.7,4.9V137.8z"/>
			<path class="st0" d="M631,144.3c0,0-1.2-0.8-1.9-2.2s-1.1-0.1-0.2,1.1c0.8,1.2,2.1,2.2,2.1,2.2L631,144.3z"/>
			<path class="st0" d="M631,148.6c0,0-2.2-0.6-4.2-3.2c-2.1-2.6-2.4-3.8-3-3.6c-0.6,0.2,1.2,3,1.2,3s-1.1-1-1.5-1.6
				c-0.4-0.7-1.4-0.2,0,2.3c0,0-1.2-0.5-0.1,1.3c1.1,1.7,4.8,5.1,7.7,6.2L631,148.6z"/>
			<path class="st0" d="M631,152.8l-0.8,1.6c0,0-3-3.1-3.4-2.9c-0.4,0.2,2.8,3.5,2.8,3.5s-4.8-3.3-6.4-5.3s-2-0.2-0.5,1.3
				c0,0-1.5-0.7-0.5,0.8c1,1.4,4.9,3.8,4.9,3.8l0.2,1.5c0,0-2.8-0.8-3-0.3s1.8,2.9,6.6,3.4V152.8z"/>
			<path class="st0" d="M631.1,163.1c0,0-2.8-0.2-4.2-2.1s-0.7,0.4-0.7,0.4s-4.7-4.3-6.6-6.6c-1.8-2.3-1.4,0.4,1.6,3.3
				c0,0-3.3-2.6-5-4.8c-1.7-2.2-0.1,2.3,3.3,5.1c0,0-1.5-0.5-2.5-1.5s-1.1-0.1,0.4,1.6c1.4,1.7,7.3,5.8,7.3,5.8s-5.3-2.4-6.3-2.9
				c-1-0.4,2.1,2.8,5.9,4.9l-0.1,0.9c0,0-5.3-3.4-8.5-6.8c-3.2-3.4-3.1-1,2.3,3.6c0,0-2.4-1.3-4.5-3.1s-3,0.7,3.9,4.8
				c0,0-2,0-4.1-1.8c-2.1-1.8-3.3,1.9,5.8,2.9c0,0-0.6,0.3-1.6,0.2c-1,0,0.3,1,2.4,1.1c2.1,0.1,3.9,2.2,6.7,3.1c2.8,1,4.4,1,4.4,1
				L631.1,163.1z"/>
			<path class="st0" d="M629.1,170.9c0,0-4,1.6-7.9-0.4c-3.9-2.1-4.9-3.1-5.4-2.4c-0.4,0.7,3.3,4.8,7.8,5.4c4.5,0.6,7.4,0.2,7.4,0.2
				l0-3.1L629.1,170.9z"/>
			<path class="st0" d="M629.7,173.8c0,0-0.6,1.6,1.3,2.7c0,0-5.1,0.8-8.2-0.9c-3.1-1.6-4.6-2.1-2.4-0.4c2.1,1.8,6.8,2.8,10.6,2.8
				c0,0-3.6,1-5.2-0.5c0,0-2.9-0.9-2.9-0.3c0,0.6,2.9,2.4,2.9,2.4s-3.4,0.2-6.6-1s-8.3-4.2-6.2-1.9c2.2,2.4,2.2,2.4,2.2,2.4
				s-2.9-1.8-3.3-1.4c-0.3,0.4,1.7,1.7,1.7,1.7s-2.4-1.1-1.7,0.2c0.7,1.3,6.5,3.6,10.4,3.5c3.9-0.2,6.8-0.9,6.8-0.9
				s-6.7,2.4-12.6,0.9c-6-1.5,2,3.2,7.8,2.1c5.8-1.2,6.8-0.6,6.8-0.6v-10.9l-1.7-0.7L629.7,173.8z"/>
			<path class="st0" d="M631,186.5c0,0-4.4,1.2-8.4,0.3s-4.8-2.3-5.1-1.7c-0.3,0.6,2.9,2.7,2.9,2.7s-5.6-1.3-8.4-3.1
				c-2.8-1.8-2.3,1.7,2.3,3.4c4.6,1.8,9.2,2.9,16.7,0.5L631,186.5z"/>
			<path class="st0" d="M631,188.6c0,0-3.7,3.2-9.6,2.4c-5.9-0.8-14.6-4.6-8.9-0.2c5.7,4.4,14.3,1.9,14.3,1.9s-3.9,2.1-7.6,1.3
				c-3.6-0.8-5.8-2.2-5.6-1.4c0.2,0.8,1.9,2.9,3.9,3.9c0,0-2.9-1.4-3.1-0.7c-0.2,0.7,0.3,1.8,0.3,1.8s-2,0-2.5,1c0,0-3.3-2-3.7-1.3
				s1.8,2.5,6.2,3.5c4.3,1,11.3,2.2,16-0.2l0.1-4c0,0-4.2,2.1-8.1,1.8c-3.9-0.3-3.8-1.7-0.9-1.1s7.5-1,9.1-1.9L631,188.6z"/>
			<path class="st0" d="M628.8,230.6c0,0-0.6,1.9,1.5,3.1c0,0-5.9,0.9-9.4-1s-5.3-2.5-2.8-0.4c2.5,2.1,7.8,3.3,12.2,3.2
				c0,0-4.1,1.2-6-0.6c0,0-3.3-1-3.4-0.3c0,0.7,3.3,2.7,3.3,2.7s-3.9,0.2-7.7-1.2c-3.7-1.4-9.6-4.9-7.1-2.1s2.5,2.7,2.5,2.7
				s-3.4-2.1-3.8-1.6c-0.4,0.5,2,2,2,2s-2.8-1.2-2,0.2c0.8,1.5,7.5,4.2,12,4c4.5-0.2,7.8-1,7.8-1s-7.7,2.7-14.5,1
				c-6.9-1.7,2.3,3.7,9,2.4s7.8-0.7,7.8-0.7v-12.5l-1.9-0.8L628.8,230.6z"/>
			<path class="st0" d="M630.2,245.2c0,0-5.1,1.4-9.7,0.4c-4.6-1-5.5-2.7-5.8-1.9c-0.3,0.7,3.3,3.1,3.3,3.1s-6.5-1.5-9.7-3.6
				c-3.3-2.1-2.7,1.9,2.6,4c5.3,2,10.6,3.3,19.2,0.6L630.2,245.2z"/>
			<path class="st0" d="M630.2,247.7c0,0-4.3,3.7-11,2.8s-16.8-5.3-10.3-0.2c6.6,5.1,16.4,2.2,16.4,2.2s-4.5,2.4-8.7,1.5
				c-4.2-0.9-6.7-2.6-6.5-1.6s2.2,3.3,4.5,4.5c0,0-3.3-1.6-3.5-0.8s0.4,2,0.4,2s-2.3,0-2.9,1.2c0,0-3.7-2.3-4.2-1.5
				c-0.5,0.7,2.1,2.9,7.1,4.1c5,1.1,13,2.5,18.4-0.3l0.1-4.6c0,0-4.8,2.4-9.3,2.1s-4.4-1.9-1.1-1.3c3.3,0.7,8.7-1.2,10.4-2.2
				L630.2,247.7z"/>
			<path class="st0" d="M630.7,201.9c0,0-2.6,1.7-6.7,1c-4.1-0.7-4.9-2.4-4.9-2.4h-2.7c0,0,1,3.1,4.8,3.8c0,0-6.4-1.5-4.2,1.5
				l-2.2,0.8c0,0,2.1,3.3,6.9,3.2c4.8,0,8.9-1.9,8.9-1.9L630.7,201.9z"/>
			<path class="st0" d="M630.5,211c0,0-2.1-0.3-3.2,0.4c0,0-6.2,0.4-8.8-0.2c-2.6-0.7-0.2,1.9,2.4,2.4c0,0-4.3-0.1-7.3-0.9
				c-3-0.9-0.6,1.4,3.7,2.1c4.3,0.7,6.7,0.4,6.7,0.4s-3,1.2-6,0.7c-3-0.5-5.5-1.3-2.7,0.1c2.8,1.4,8.8,0.8,11.5,0
				c0,0,1.3,0.9,1.8-0.2c0.5-1.1,0.4-1.6,0.4-1.6l1.4,0.2L630.5,211z"/>
			<path class="st0" d="M630.5,216.8c0,0-1.9-0.5-2.9,0.4h-6.1c0,0-0.5,1.1,0.8,1.5c0,0-4.4,0.2-8-1.3c-3.6-1.5-1.8,1.2,2,2.2
				c3.8,1,11.1,0.6,11.1,0.6l-0.5,1c0,0-2.9-0.7-5,0c-2.1,0.7-6.2,0.1-8.8-1.5c-2.6-1.5-1,2.7,1.2,4.5c2.2,1.8,7.1,0.4,10.7,2.2
				c0,0-7.8,1.5-11.5,0.4c-3.8-1,0.9,3.5,6.9,2.5s7-2.7,9-1.9c0,0-1.1,3.2-6.8,3.1s-10.2-0.7-7.2,1s14.8,0,14.8,0L630.5,216.8z"/>
			<path class="st0" d="M630.9,135.6c0,0-1.3-1.4-1.3-2.5s0.8,0.5,1.3,0.9L630.9,135.6z"/>
			<path class="st0" d="M631.9,138.2c0,0,0.7-0.4,1.5-1.3c0.8-1,1.7-0.5-0.4,1.5c0,0,1.6-1,1.9-0.3c0.3,0.7-2.4,1.4-3,2.8
				L631.9,138.2z"/>
			<path class="st0" d="M632.2,147.6c0,0,1.4-0.1,2.7-1.2c1.2-1.1,2.8-2.7,1.2,0.4c0,0,2.7-1,4.2-3.3c1.5-2.3,1.6-6.3,1.7-1.9
				c0,0,1.6-1.8,2.8-3.6c1.2-1.8-0.1,2.1-2.2,4.8c0,0,2.1-0.4-1.8,3.5c0,0,1-0.2,1.7-0.9c0.7-0.7,2.4-1.2-0.6,1.7
				c-3,2.8-9.7,4.7-9.7,4.7L632.2,147.6z"/>
			<path class="st0" d="M632.3,152.3c0,0,1.4,0.3,2.7-0.1c1.3-0.5,2.1,0.4,0,1.2c-2.1,0.7-2.7,1.2-2.7,1.2L632.3,152.3z"/>
			<path class="st0" d="M632.3,155.6c0,0,1.7-0.4,3.2-1.5s1.3,0,1.3,0s2.2-1.1,3.8-3c1.6-1.9,3.1-2.4,0.8,0.9
				c-2.3,3.3-6.4,4.5-6.4,4.5s4.8-1.2,6.6-3c1.8-1.8,0.6,0.9-3.5,2.9c-4.2,2-5.6,2.6-5.6,2.6L632.3,155.6z"/>
			<path class="st0" d="M632.4,159.9c0,0,1.3-0.3,2.4-0.8c1.1-0.5,2.1-0.5,0.3,0.8c-1.8,1.4-2.6,1.9-2.6,1.9L632.4,159.9z"/>
			<path class="st0" d="M632.5,162.4c0,0,0.8,0.3,2.2-0.4c1.3-0.7,5-3.1,5.6-3.1c0.6,0-1.4,2.2-3.4,3.4c0,0,4.3-0.6,6.4-3.5
				c2.1-2.9,2.1-1.5,0,1.3c0,0,3-1.6,4.8-4.3c1.8-2.8,0.9,0,0.2,1.1c-0.7,1.1-2.1,3-2.1,3s1.3-0.7,2.4-2.2c1.1-1.5,1,0.2-0.4,2.2
				s-7.7,3.7-9.5,5c-1.8,1.3-2.5,2.7-2.5,2.7s2.4-2.7,4.5-2.7c2.2,0,0.7,0.4,0.7,1.7c0,0,1.2,0.4,4.1-2.7s2.9-2.8,0.4,1.1
				c0,0,1.5-0.7,3-2.9c1.5-2.2,1.1-0.4,0.2,1.1c-0.9,1.6-1.7,2.2-1.7,2.2s2.2-0.8,4.5-4.6c2.3-3.9,2.3-1.5-0.5,2.7
				c-2.9,4.3-6.8,6-10.1,6.4c-3.3,0.4-3.7,1.8-3.7,1.8s3.5-1,4.5,0.2c0,0,4.4-0.3,6.5-2s-1.3,2.6-6.3,4.4c0,0,0.9-0.3,0.9,0
				c0,0.3-2.5,2-5.5,0.7c-3.1-1.3-4.8-1.4-4.8-1.4L632.5,162.4z"/>
			<path class="st0" d="M632.7,174.3c0,0,1.6-1.1,2.2-0.9s-2.2,1.7-2.2,2.5c0,0.8,0.6-0.9,1.8-0.7c1.2,0.2-1.5,1.3,1.6,1.2
				c3.1-0.1,5.3-1.5,5.7-1.2s-2.6,1.9-2.6,1.9s2.4,0,4.5-1.6c2.1-1.6,0.1,1.5-3.7,2.6c-3.8,1.1-6.5-0.5-7.4-0.5L632.7,174.3z"/>
			<path class="st0" d="M632.8,178.6c0,0,1.2,1.7,4.6,1.7c3.4,0,3.1-0.9,5-1.1c1.9-0.2,3.8-2.5,4.3-2.4c0.5,0.2-3.2,3.5-3.2,3.5
				s3.6-0.4,5.4-2.7c1.7-2.3,1.6-3.9,2.2-4c0.6-0.1,0,2.9,0,2.9s1.4-0.7,1.9-3c0.5-2.3,1.3-1.3,1.3,0c0,1.3,0.3-1.3,1.1-1
				c0.8,0.3-1.8,4-1.8,4s2.8-1.3,5-4.2c2.3-2.9,1.5-0.1-1,2.8c-2.4,2.9-11.2,8-11.2,8l1.3-1.3c0,0-3.4,2.9-8.7,2.9
				c0,0,1,1.2,4.7,0.7c3.6-0.4-2.7,1.9-5.6,0.8c-3-1.2-5.3-1-5.3-1L632.8,178.6z"/>
			<path class="st0" d="M632.9,185.9c0,0,0.8,1.2,4.4,1.2c3.6,0,3.8,0.7,5.4,0c1.6-0.7,2.4-1.8,3.3-1.2c0.9,0.5-3.5,3.1-5.3,2.6
				c-1.8-0.5-5.1-1.2-5.9,0.7c0,0,5.1,1.9,8.9,0.5s7.6-4.6,5.4-1.4c0,0,1.2,0.4,2.9-1.1c1.7-1.6,1.5,0.5-1.7,2.6s-7.8,3.3-11.1,3
				c0,0,1.9,0.4,1.8,1c-0.1,0.6-2.6,1-4.8-0.3c-2.2-1.3-3.1-0.8-3.1-0.8L632.9,185.9z"/>
			<path class="st0" d="M633,193.8c0,0,2.7,1.7,7.9,1.5c5.3-0.2,10.5-1.7,12.3-3.3c1.8-1.6,2,1.2-3.8,3.3c0,0,3.1,0.3,6.5-2.3
				s-2.8,3.8-2.8,3.8s2.1-0.3,4.1-1.8c2-1.6,1.1,1.2-6,4.7c-7.2,3.5-15.1,2.3-15.1,2.3s5.5,1.6,10.7,1.3c5.2-0.4-2.4,1.4-6.6,0.9
				c-4.2-0.5-6.9-1-6.9-1s3.9,2.2,7,2.2c3.1,0,7.9-1.4,2.4,1.1c0,0,3.7,0,7.4-1.9c3.6-1.9,2.3,0.8-3.1,2.4c0,0,3.9,0,7.7-3
				c3.8-3,5.8-4.6,4-1.2c-1.8,3.4-8.9,7.8-15.7,7.6c0,0,0.3,0.4,0.3,0.7s-7.2,1.2-10.4-1L633,193.8z"/>
			<path class="st0" d="M642.1,197.4c0,0,3.3,0.9,5.4,0.3s4-1.5,4-1.5s-3.4-0.1-4.7,0.3C645.5,197,644.1,197.4,642.1,197.4z"/>
			<path class="st0" d="M633,210.9c0,0,2.1,2.4,5.8,2.2s5-2.1,5.5-1.7c0.5,0.4-1,2.5-2.4,2.9c0,0,5.2-0.5,7-2.6
				c1.8-2.1,2.1-0.4-1.5,2.6c0,0,6-1.1,9.2-3.7c3.2-2.6,4.7-2.4-0.2,2.9c0,0,1.5,0.5,4.2-2.1c2.7-2.5,1.6,2.9-5.1,3.8l-1.9,3.7
				c0,0,3-1.5,4.7-3.2c1.7-1.7-0.1,3.2-3.5,4.4c-3.5,1.2-6.2,1.1-6.2,1.1s2.4,0.8,6.5-0.2c4.1-1,6.9-2.6,5.8-1
				c-1.1,1.6-5.6,4-12.6,4.2c-7,0.2-9.1-0.9-11.5-2.5c-2.5-1.6-3.1,0-3.1-0.1s2,2,6.8,3.5c4.9,1.5,7.4,2.8,10.9,1.7
				c3.5-1.1,6.3-3.8,5.8-2.5c-0.5,1.4-2.7,2.3-2.7,2.3s3.5-0.5,5.8-2.4c2.2-1.9,1.6,0-0.2,1.6c0,0,1.5-0.4,0,1.1
				c-1.5,1.5-4.3,1.4-4.3,1.4s1.6-0.2,1.5,0.8c-0.1,1-4,2.3-8,1.7c-4-0.6-4.7,0.2-4.7,0.2s0.5,1.3,3.6,1.3c3.1,0,3.8-0.9,6.6-0.8
				s3.9-0.7,5.8-0.9c2-0.2-0.3,2.9-3.1,2.7s-5.9,0.6-5.5,1.8c0.4,1.2,1.3,0.1,1.6,1s-2.9,1.7-6.6,0.7c-3.7-1-8.9-3.2-12.4-7.1
				l0.1,2.1c0,0,4,0.5,5.1,2.8c1.1,2.3,4.8,3.8,9.9,3.9c5,0.1,11.8,0,10.3,1c-1.5,1-10.9,0-10.9,0s5,2,9.4,1.5
				c4.3-0.4-0.3,1-1.4,1.5s0,2.6-5.1,2c0,0,3.3,1.6,6.8,1.4c3.5-0.2-2.3,2-5.3,1.5c0,0,1.1,0.3,0.5,1.4s-8,1.2-11.4-2.2
				c-3.3-3.4-7.5-6.1-7.5-6.1s3.9,6.3,6.8,8.8c2.9,2.5,10.1,0.5,10.9,2.2c0.8,1.7-1.4,1.9-1.4,1.9s1.4,1.3,6.8,1.3s0.4,4.8-6.1,3.8
				c-6.5-1-15.2-10.8-15.2-10.8l-0.1,1.5c0,0,7.5,5.7,8.5,8.3c0,0,2.5-0.8,4.6,1.6c2.1,2.4,3.1,0.2,6.4,2.5c3.3,2.2-7.5,6-13.3,2.9
				c-5.8-3.2-9.8-4.5-9.8-4.5L633,210.9z"/>
		</g>
		<g>
			<path class="st0" d="M561.5,255.9c0,0-0.2-40.4-0.6-49.1c-0.3-8.7,0-33.4,0-42.5c0-0.4-0.2-1.3,0.1-1.8c0.4-0.4,0.3-1.1-0.2-1.1
				c-0.5,0,0-1.3-0.4-1.4c-0.4-0.1-0.4,0.4-0.1,1.9c0.3,1.5,0.1,1.7,0,2.3c-0.2,1-1,39.8-0.9,53.2c0.1,13.4,0,37.6,0,37.6
				L561.5,255.9z"/>
			<path class="st0" d="M560.9,168.3c0,0,1.7-1.5,1.8-2.3c0.1-0.9,1.2,0.1-0.9,2.7c0,0,1.3-1.7,1.6-1.5c0.3,0.2-1.3,2.9-2.5,3.3
				V168.3z"/>
			<path class="st0" d="M560.9,172.7c0,0,0.8-0.5,1.3-1.5c0.5-0.9,0.7-0.1,0.2,0.7s-1.4,1.5-1.4,1.5L560.9,172.7z"/>
			<path class="st0" d="M560.9,175.6c0,0,1.5-0.4,2.9-2.2s1.6-2.6,2.1-2.5c0.4,0.1-0.8,2-0.8,2s0.8-0.7,1-1.1s1-0.2,0,1.6
				c0,0,0.8-0.3,0.1,0.9c-0.7,1.2-3.3,3.4-5.2,4.2L560.9,175.6z"/>
			<path class="st0" d="M560.9,178.5l0.5,1.1c0,0,2-2.1,2.3-2c0.3,0.2-1.9,2.4-1.9,2.4s3.2-2.2,4.4-3.6c1.1-1.3,1.3-0.1,0.4,0.8
				c0,0,1-0.4,0.3,0.5c-0.7,1-3.3,2.6-3.3,2.6l-0.1,1c0,0,1.9-0.6,2-0.2c0.1,0.3-1.2,1.9-4.5,2.3V178.5z"/>
			<path class="st0" d="M560.8,185.5c0,0,1.9-0.1,2.9-1.4c0.9-1.3,0.4,0.2,0.4,0.2s3.2-2.9,4.5-4.5c1.2-1.6,0.9,0.3-1.1,2.2
				c0,0,2.2-1.8,3.4-3.3c1.2-1.5,0,1.6-2.3,3.5c0,0,1-0.3,1.7-1s0.7-0.1-0.3,1.1c-1,1.1-5,3.9-5,3.9s3.6-1.6,4.3-1.9
				c0.7-0.3-1.4,1.9-4,3.3l0.1,0.6c0,0,3.6-2.3,5.8-4.6c2.2-2.3,2.1-0.7-1.6,2.4c0,0,1.6-0.9,3.1-2.1c1.4-1.2,2.1,0.5-2.6,3.3
				c0,0,1.4,0,2.8-1.2c1.5-1.2,2.2,1.3-3.9,2c0,0,0.4,0.2,1.1,0.2c0.6,0-0.2,0.7-1.6,0.7s-2.7,1.5-4.5,2.1c-1.9,0.6-3,0.7-3,0.7
				L560.8,185.5z"/>
			<path class="st0" d="M562.2,190.8c0,0,2.7,1.1,5.4-0.3c2.7-1.4,3.3-2.1,3.6-1.7s-2.3,3.3-5.3,3.7c-3,0.4-5,0.1-5,0.1l0-2.1
				L562.2,190.8z"/>
			<path class="st0" d="M561.7,192.7c0,0,0.4,1.1-0.9,1.8c0,0,3.5,0.5,5.6-0.6c2.1-1.1,3.1-1.5,1.7-0.2c-1.5,1.2-4.6,1.9-7.2,1.9
				c0,0,2.4,0.7,3.5-0.4c0,0,2-0.6,2-0.2c0,0.4-2,1.6-2,1.6s2.3,0.1,4.5-0.7c2.2-0.8,5.7-2.9,4.2-1.3s-1.5,1.6-1.5,1.6s2-1.3,2.2-1
				c0.2,0.3-1.2,1.2-1.2,1.2s1.6-0.7,1.2,0.1c-0.5,0.9-4.4,2.5-7.1,2.4c-2.7-0.1-4.6-0.6-4.6-0.6s4.5,1.6,8.6,0.6
				c4-1-1.4,2.2-5.3,1.4c-3.9-0.8-4.6-0.4-4.6-0.4v-7.4l1.1-0.5L561.7,192.7z"/>
			<path class="st0" d="M560.9,201.4c0,0,3,0.8,5.7,0.2c2.7-0.6,3.2-1.6,3.4-1.1c0.2,0.4-2,1.8-2,1.8s3.8-0.9,5.7-2.1
				c1.9-1.2,1.6,1.1-1.5,2.3c-3.1,1.2-6.3,1.9-11.3,0.3L560.9,201.4z"/>
			<path class="st0" d="M560.9,202.8c0,0,2.5,2.2,6.5,1.6c4-0.5,9.9-3.1,6-0.1c-3.9,3-9.7,1.3-9.7,1.3s2.7,1.4,5.1,0.9
				c2.5-0.5,4-1.5,3.8-1c-0.1,0.6-1.3,1.9-2.7,2.6c0,0,1.9-0.9,2.1-0.5c0.1,0.5-0.2,1.2-0.2,1.2s1.4,0,1.7,0.7c0,0,2.2-1.3,2.5-0.9
				c0.3,0.4-1.3,1.7-4.2,2.4s-7.7,1.5-10.9-0.2l-0.1-2.7c0,0,2.9,1.4,5.5,1.2c2.6-0.2,2.6-1.1,0.6-0.7c-2,0.4-5.1-0.7-6.2-1.3
				L560.9,202.8z"/>
			<path class="st0" d="M562.4,231.3c0,0,0.4,1.3-1,2.1c0,0,4,0.6,6.4-0.7s3.6-1.7,1.9-0.3s-5.3,2.2-8.3,2.2c0,0,2.8,0.8,4.1-0.4
				c0,0,2.3-0.7,2.3-0.2c0,0.5-2.2,1.9-2.2,1.9s2.7,0.1,5.2-0.8c2.5-0.9,6.5-3.3,4.8-1.5c-1.7,1.8-1.7,1.8-1.7,1.8s2.3-1.4,2.6-1.1
				s-1.4,1.4-1.4,1.4s1.9-0.8,1.4,0.2c-0.5,1-5.1,2.8-8.2,2.7c-3.1-0.1-5.3-0.7-5.3-0.7s5.2,1.9,9.9,0.7s-1.6,2.5-6.1,1.6
				s-5.3-0.5-5.3-0.5v-8.5l1.3-0.6L562.4,231.3z"/>
			<path class="st0" d="M561.4,241.3c0,0,3.5,0.9,6.6,0.2c3.1-0.7,3.7-1.8,4-1.3c0.2,0.5-2.3,2.1-2.3,2.1s4.4-1,6.6-2.4
				c2.2-1.4,1.8,1.3-1.8,2.7c-3.6,1.4-7.2,2.2-13,0.4L561.4,241.3z"/>
			<path class="st0" d="M561.4,242.9c0,0,2.9,2.5,7.5,1.9c4.6-0.6,11.4-3.6,7-0.2c-4.5,3.4-11.2,1.5-11.2,1.5s3.1,1.6,5.9,1
				s4.6-1.7,4.4-1.1c-0.2,0.6-1.5,2.2-3.1,3c0,0,2.2-1.1,2.4-0.6c0.2,0.5-0.2,1.4-0.2,1.4s1.6,0,2,0.8c0,0,2.5-1.5,2.9-1
				s-1.4,2-4.8,2.8s-8.8,1.7-12.5-0.2l-0.1-3.1c0,0,3.3,1.6,6.3,1.4c3-0.2,3-1.3,0.7-0.9s-5.9-0.8-7.1-1.5L561.4,242.9z"/>
			<path class="st0" d="M561.1,211.9c0,0,1.7,1.1,4.5,0.7c2.8-0.5,3.3-1.6,3.3-1.6h1.8c0,0-0.7,2.1-3.2,2.6c0,0,4.4-1,2.8,1l1.5,0.6
				c0,0-1.4,2.2-4.7,2.2c-3.2,0-6-1.3-6-1.3L561.1,211.9z"/>
			<path class="st0" d="M561.2,218c0,0,1.4-0.2,2.2,0.3c0,0,4.2,0.3,6-0.2c1.8-0.4,0.2,1.3-1.7,1.6c0,0,2.9-0.1,5-0.6s0.4,1-2.5,1.4
				s-4.6,0.3-4.6,0.3s2.1,0.8,4.1,0.5c2-0.3,3.8-0.9,1.8,0.1c-1.9,1-6,0.6-7.8,0c0,0-0.9,0.6-1.3-0.1s-0.3-1.1-0.3-1.1l-0.9,0.1
				L561.2,218z"/>
			<path class="st0" d="M561.2,221.9c0,0,1.3-0.3,2,0.3h4.2c0,0,0.3,0.7-0.5,1c0,0,3,0.1,5.4-0.9s1.2,0.8-1.4,1.5s-7.5,0.4-7.5,0.4
				l0.3,0.7c0,0,1.9-0.5,3.4,0c1.4,0.5,4.2,0.1,6-1c1.8-1,0.7,1.8-0.8,3.1c-1.5,1.2-4.8,0.3-7.3,1.5c0,0,5.3,1,7.8,0.3
				c2.6-0.7-0.6,2.4-4.7,1.7c-4-0.7-4.7-1.9-6.1-1.3c0,0,0.7,2.2,4.6,2.1s6.9-0.5,4.9,0.7c-2.1,1.2-10,0-10,0L561.2,221.9z"/>
			<path class="st0" d="M561,166.8c0,0,0.9-0.9,0.9-1.7s-0.6,0.3-0.9,0.6L561,166.8z"/>
			<path class="st0" d="M560.3,168.6c0,0-0.5-0.3-1-0.9c-0.5-0.7-1.2-0.3,0.2,1c0,0-1.1-0.7-1.3-0.2c-0.2,0.5,1.6,1,2,1.9
				L560.3,168.6z"/>
			<path class="st0" d="M560.1,174.9c0,0-1-0.1-1.8-0.8c-0.8-0.7-1.9-1.8-0.8,0.3c0,0-1.9-0.7-2.9-2.3s-1.1-4.3-1.1-1.3
				c0,0-1.1-1.2-1.9-2.5s0.1,1.4,1.5,3.3c0,0-1.4-0.3,1.2,2.4c0,0-0.7-0.1-1.2-0.6c-0.5-0.5-1.6-0.8,0.4,1.1c2,1.9,6.6,3.2,6.6,3.2
				L560.1,174.9z"/>
			<path class="st0" d="M560,178.1c0,0-1,0.2-1.8-0.1s-1.4,0.3,0,0.8c1.4,0.5,1.8,0.8,1.8,0.8L560,178.1z"/>
			<path class="st0" d="M560,180.4c0,0-1.1-0.2-2.2-1c-1-0.8-0.9,0-0.9,0s-1.5-0.8-2.6-2c-1.1-1.3-2.1-1.6-0.6,0.6
				c1.5,2.2,4.4,3,4.4,3s-3.3-0.8-4.5-2.1c-1.2-1.2-0.4,0.6,2.4,1.9c2.8,1.4,3.8,1.7,3.8,1.7L560,180.4z"/>
			<path class="st0" d="M559.9,183.3c0,0-0.9-0.2-1.6-0.6c-0.8-0.4-1.4-0.4-0.2,0.6s1.8,1.3,1.8,1.3L559.9,183.3z"/>
			<path class="st0" d="M559.9,185c0,0-0.6,0.2-1.5-0.3c-0.9-0.5-3.4-2.1-3.8-2.1s1,1.5,2.3,2.3c0,0-2.9-0.4-4.3-2.4
				c-1.4-2-1.4-1,0,0.9c0,0-2.1-1.1-3.3-2.9c-1.2-1.9-0.6,0-0.2,0.7c0.5,0.7,1.4,2.1,1.4,2.1s-0.9-0.5-1.6-1.5
				c-0.8-1-0.7,0.1,0.3,1.5c1,1.3,5.2,2.5,6.4,3.4c1.2,0.9,1.7,1.8,1.7,1.8s-1.6-1.8-3.1-1.8c-1.5,0-0.5,0.3-0.5,1.2
				c0,0-0.8,0.2-2.8-1.9c-1.9-2.1-2-1.9-0.3,0.7c0,0-1-0.5-2-2c-1-1.5-0.8-0.3-0.2,0.8c0.6,1.1,1.2,1.5,1.2,1.5s-1.5-0.5-3-3.1
				c-1.6-2.6-1.6-1,0.4,1.9c2,2.9,4.6,4.1,6.9,4.4s2.5,1.2,2.5,1.2s-2.4-0.7-3,0.1c0,0-3-0.2-4.4-1.4c-1.4-1.1,0.9,1.8,4.3,3
				c0,0-0.6-0.2-0.6,0c0,0.2,1.7,1.3,3.8,0.5s3.2-1,3.2-1L559.9,185z"/>
			<path class="st0" d="M559.7,193.1c0,0-1.1-0.8-1.5-0.6c-0.5,0.2,1.5,1.2,1.5,1.7c0,0.5-0.4-0.6-1.2-0.5s1,0.9-1.1,0.8
				c-2.1,0-3.6-1-3.9-0.8c-0.3,0.2,1.8,1.3,1.8,1.3s-1.6,0-3-1.1c-1.4-1.1-0.1,1,2.5,1.8s4.4-0.3,5-0.3L559.7,193.1z"/>
			<path class="st0" d="M559.7,196c0,0-0.8,1.2-3.1,1.2s-2.1-0.6-3.4-0.8c-1.3-0.2-2.6-1.7-2.9-1.6c-0.3,0.1,2.2,2.4,2.2,2.4
				s-2.5-0.3-3.6-1.8c-1.2-1.6-1.1-2.7-1.5-2.7s0,1.9,0,1.9s-1-0.5-1.3-2c-0.3-1.5-0.9-0.9-0.9,0c0,0.9-0.2-0.9-0.8-0.7
				c-0.5,0.2,1.2,2.7,1.2,2.7s-1.9-0.9-3.4-2.9s-1-0.1,0.7,1.9c1.7,2,7.6,5.5,7.6,5.5l-0.9-0.9c0,0,2.3,2,5.9,1.9
				c0,0-0.7,0.8-3.2,0.5c-2.5-0.3,1.8,1.3,3.8,0.5c2-0.8,3.6-0.7,3.6-0.7L559.7,196z"/>
			<path class="st0" d="M559.6,200.9c0,0-0.5,0.8-3,0.8s-2.6,0.5-3.7,0s-1.6-1.2-2.2-0.8c-0.6,0.4,2.4,2.1,3.6,1.8
				c1.2-0.3,3.5-0.8,4,0.5c0,0-3.5,1.3-6,0.3c-2.6-1-5.2-3.1-3.7-1c0,0-0.8,0.3-1.9-0.8c-1.1-1.1-1,0.3,1.2,1.7
				c2.2,1.4,5.3,2.3,7.5,2.1c0,0-1.3,0.3-1.2,0.7c0.1,0.4,1.7,0.7,3.2-0.2c1.5-0.9,2.1-0.5,2.1-0.5L559.6,200.9z"/>
			<path class="st0" d="M559.6,206.3c0,0-1.8,1.2-5.4,1c-3.6-0.2-7.1-1.1-8.3-2.2c-1.2-1.1-1.4,0.8,2.6,2.2c0,0-2.1,0.2-4.4-1.5
				c-2.3-1.7,1.9,2.6,1.9,2.6s-1.4-0.2-2.8-1.3c-1.4-1.1-0.8,0.8,4.1,3.2c4.9,2.4,10.2,1.5,10.2,1.5s-3.8,1.1-7.3,0.9
				c-3.5-0.2,1.7,0.9,4.5,0.6c2.8-0.3,4.7-0.7,4.7-0.7s-2.6,1.5-4.8,1.5c-2.1,0-5.3-0.9-1.7,0.8c0,0-2.5,0-5-1.3
				c-2.5-1.3-1.6,0.5,2.1,1.6c0,0-2.6,0-5.2-2c-2.6-2-3.9-3.1-2.7-0.8s6.1,5.3,10.7,5.2c0,0-0.2,0.3-0.2,0.5c0,0.2,4.9,0.8,7.1-0.7
				L559.6,206.3z"/>
			<path class="st0" d="M553.3,208.8c0,0-2.3,0.6-3.7,0.2s-2.7-1-2.7-1s2.3-0.1,3.2,0.2C551,208.5,552,208.8,553.3,208.8z"/>
			<path class="st0" d="M559.5,217.9c0,0-1.4,1.6-3.9,1.5c-2.5-0.2-3.4-1.4-3.7-1.2c-0.4,0.3,0.6,1.7,1.6,2c0,0-3.6-0.3-4.8-1.8
				c-1.2-1.4-1.4-0.2,1,1.8c0,0-4-0.7-6.2-2.5s-3.2-1.6,0.2,1.9c0,0-1.1,0.3-2.9-1.4c-1.8-1.7-1.1,2,3.5,2.6l1.3,2.5
				c0,0-2-1-3.2-2.2c-1.2-1.2,0.1,2.2,2.4,3c2.3,0.8,4.2,0.8,4.2,0.8s-1.6,0.5-4.4-0.2c-2.8-0.7-4.7-1.8-4-0.7
				c0.7,1.1,3.8,2.7,8.6,2.9s6.2-0.6,7.8-1.7s2.1,0,2.1-0.1c0-0.1-1.3,1.4-4.6,2.4c-3.3,1-5,1.9-7.4,1.1c-2.3-0.8-4.3-2.6-3.9-1.7
				c0.3,0.9,1.9,1.6,1.9,1.6s-2.4-0.4-3.9-1.6c-1.5-1.3-1.1,0,0.1,1.1c0,0-1-0.2,0,0.8c1,1,2.9,0.9,2.9,0.9s-1.1-0.1-1,0.6
				c0.1,0.7,2.7,1.6,5.4,1.1c2.7-0.4,3.2,0.1,3.2,0.1s-0.3,0.9-2.5,0.9c-2.1,0-2.6-0.6-4.5-0.6c-1.9,0-2.6-0.5-4-0.6
				c-1.3-0.1,0.2,1.9,2.1,1.9c1.9-0.1,4,0.4,3.7,1.2c-0.3,0.8-0.9,0.1-1.1,0.7s2,1.2,4.5,0.5c2.5-0.7,6.1-2.2,8.4-4.8l-0.1,1.4
				c0,0-2.7,0.4-3.5,1.9c-0.7,1.5-3.3,2.6-6.7,2.7c-3.4,0.1-8,0-7,0.7c1,0.7,7.4,0,7.4,0s-3.4,1.3-6.4,1.1c-2.9-0.3,0.2,0.7,0.9,1
				c0.7,0.4,0,1.7,3.5,1.3c0,0-2.3,1.1-4.6,0.9c-2.3-0.1,1.6,1.3,3.6,1c0,0-0.7,0.2-0.3,0.9s5.4,0.8,7.7-1.5
				c2.3-2.3,5.1-4.2,5.1-4.2s-2.6,4.3-4.6,6c-2,1.7-6.8,0.3-7.4,1.5c-0.5,1.1,1,1.3,1,1.3s-1,0.9-4.6,0.9s-0.3,3.3,4.2,2.6
				s10.4-7.3,10.4-7.3l0.1,1.1c0,0-5.1,3.8-5.8,5.6c0,0-1.7-0.5-3.1,1.1c-1.4,1.6-2.1,0.2-4.3,1.7c-2.2,1.5,5.1,4.1,9.1,1.9
				c3.9-2.2,6.6-3.1,6.6-3.1L559.5,217.9z"/>
		</g>
		<path class="st0" d="M2041,83.3l-10,4V90l-9.2,1.8l-9.9,7.1l-32.1,18.6l-16.3,7.4l-21.6,12.4l-11.9,4.2l-1.8,2.5
			c0,0-4.8,1.4-6.5,3.8c-1.7,2.4-5.2,2.6-5.2,2.6l-1.2,2.2c0,0-6.8,3-7.3,3.7c-0.5,0.7,0,7.2,0,7.2s-3.3,3.5-3.3,4.8
			c0,1.3,1.2,5.5,1.2,5.5s-10.7-0.1-14.2,0.7s-13.2,2.5-13.2,2.5l-8-6.1l-3.8-4.2l-1.3-0.5v-1.6l-5.7,0.1l-4.8-3.8l-6-0.7l-3.5-6.7
			c0,0-2.7-9.1-4.1-10.8c-1.3-1.7-12.3-10.2-12.3-10.2l-39.3-5.5l-11.2-1.1l-11.8,1.1c0,0,1.2-17.9-1.1-18
			c-2.2-0.1-1.8,22.3-1.8,22.3l-2.2-0.4c0,0,0-18.8-0.7-18.8s-2,23.7-2,23.7l-7.7,4.1l-15.3,5.9l-8.7,5.6l-5.3,0.3l0.9,3.4l-3,5.3
			c0,0-0.2,2.7-1.2,3.4c-0.9,0.6-15.7,4.2-15.7,4.2l-28.2,21.6l-64.4,11.8l-39.8,5l-32.7,10l-72.1,29.7l-41.9,39l-89.6,15.9
			l-78.2-3.6L801,304.6l-104.1-27.1l-95.3-32.8L546,211.4h-3.6l-50.4-40.1l-23.6,6.1l-12-0.6l3.9-6.8l-5.6,5.8l1.4-8.2l-2.5,3.3
			l-1.6-4.1v9.5l-2.5-7.8l-1.7,3.5l1.9,5c0,0-2.3,1-1.9,3.3l-1.7,5l-5.2,2.5c0,0-0.6-2.5-4.2-2s-13,3.3-13,3.3l-7.1-0.1
			c0,0-1.3-7.2-3.2-9.9s-8.4-11.7-9.9-11.7c-1.5,0-10.3,2.6-10.3,2.6s-2.8-2.3-6.3-2.3s-10.2,1.8-10.2,1.8s-3.2-4.9-4.5-5
			c-1.3-0.1-7.2,2.3-7.2,2.3l-14.2-13.4l-3.9,0.2c0,0-3.9-0.7-6.5,0.2c0,0-4.9-2.3-6.6-2.3s-5.1,1.4-5.1,1.4l-25.5-1.5l-25.1-12
			l-17.9,8.6l-20.4-10.1l-14.6-8.1l-2.3-8.3l-4.3-6.6l-8.8-5l-1.3-6.8c0,0,1.3-2,1.3-3.4c0-1.4-6.5-0.8-6.5-0.8l-4.4-2.7
			c0,0-12.7,0.1-17.4-1.1c-4.7-1.3-23.8-9.9-23.8-9.9h-3.3c0,0-4.1-6.2-5.8-6.7c-1.7-0.4-13.4,0-13.4,0l-10.3-11l-6.4-8.6
			c0,0,0.4-3.3-1-3.3s-7.5,0-7.5,0s-3.5-4.7-6.9-4.8c-3.4-0.1-22.1-5-22.1-5l-9.1-1.3c0,0-4.2-2.4-6.4-2.3s-3.7,5.4-3.7,5.4l-4-0.3
			c0,0,4-15,2.4-15s-4.1,13.9-4.1,13.9l-2.5-0.1c0,0-1.6-46.3-3.3-46.6c-1.7-0.3-0.7,46.4-0.7,46.4l-11.2,0.1c0,0-6.8-3.1-10.6-1
			S22.2,53,22.2,53l-2.5,0.4l-16.3,17c0,0-5.5-2.5-7.9,4.7l-9.6,0.4l-8.8-1.1c0,0-3.8-4.1-6.4,0.3c0,0-13.3,0.4-15.1,1.1
			s-7.8,5.9-7.8,5.9L-66.3,90l-3.7,1.5V570h2111V83.3z"/>
	</g>
	<path id="berg2_9_" class="st0" d="M1616.6,384.3L1515,341.5l-140.9-62.6l-12.7-11.1l-42.6,16.8v7.7c0,0-13.6-10.6-27.1-12.4
		c-13.5-1.7-32.2,9.3-32.2,9.3l-59.3-18.8l-43-36.2l-20.2-27.5h-7.7l-18.1-8.4l-64.5,7.7l-37.4-6.8l-82.1,0.7l-47.1,2.9l-36.3,0.9
		c0,0-13.3,2.6-23.6,1.7c-10.3-0.9-26.6,1.7-26.6,1.7l-6.8,6.1l-0.7,6.6L540.4,318l-80,28.8l-142.5,84.1l77,106.9h1284.6l17.3-95.2
		l-59.6-21l17.7-8.8L1616.6,384.3z"/>
	<g id="huis_5_">
		<g>
			<path class="st1" d="M1144.4,126.6c0,0-12.7-9.2-18.5-13.5c-5.8-4.3-15.5-17.1-19.4-23.4c-3.9-6.2-8.6-15.1-8.6-15.1h1
				c-4-5.1-5.9-4.1-9.6-3.9c-3.7,0.3-27.8,0.3-34.4,0.3s-17.2-1.4-17.2-1.4s-5.1-5.7-5.6-5.7s-6.4,5.3-6.4,5.3h-18.9
				c0,0-28.2-1.3-45.1-2.6c-17-1.3-45.5,1.9-63.8-0.9s-46.9-3.7-47.3-3.3c-0.4,0.4-0.6,3.7-0.1,3.7c0.4,0,1.1,0,1.1,0l-4.7,14.8v1.3
				l-1.2,1l-0.1,2.5l-0.8,3.5l-1.3,0.9l-0.2,2.9l-4.8,6v2l-2.7,3.4l0.1,1.5l-0.9,1.3l-0.1,1.3l-4.6,10c-1.6,0-7.8,6.9-7.8,6.9
				s-9.1-0.1-9.8,0c-0.8,0.1-13,16.6-14.3,17c-1.4,0.4-1.1,3.7-1.1,3.7h6.5c0,1.4,1.2,2.6,1.2,2.6c-1.8,1,0.3,3.2,0.3,3.2v54.5
				h326.9v-69.6l0.5,5.4l0.7-6.2c0.1,0,0.2-0.1,0.3-0.1l0.7,5.9v-6.4c0.6-0.6,0.9-1.3,1-1.7l0.2,1l0.2-1.6c0.2,0,0.4,0,0.6-0.1
				l0.3,1.2l0.1-1.2c0.1,0,0.3-0.1,0.4-0.2l0.4,3.3l0.2-3.5c0.2-0.1,0.3-0.2,0.5-0.3l0.4,1.8v-2.1c1.1-1,1.7-2.1,1.7-2.1l0.8,3.4
				l0.5-3.2l0.7,5.2l0.3-5.1l0.6,12l0.4-12.9l0.7,2.7l0.4-1.8c0,0,0.7,14.8,0.7,15s0.3-5.9,0.3-5.9l0.4-6.1l0.2,5.6l-0.1,7.4
				l0.8-6.7l-0.1-8.4l0.5-1l0.5,6.5l0-6.5l0.5,1.5v-1.7C1147.8,127.4,1144.4,126.6,1144.4,126.6z"/>
		</g>
		<g>
			<path class="st0" d="M1037.7,69.6c0,0,10.6,1.3,17.2,1.4c6.6,0.1,30.7,0,34.4-0.3s5.7-1.2,9.6,3.9h-1c0,0,4.7,8.9,8.6,15.1
				c3.9,6.2,13.6,19.1,19.4,23.4c5.8,4.3,18.5,13.5,18.5,13.5s0.6,0.1,1.4,0.5l-21.1-0.3l-11.4,0.3l-1.1,8.3V128l-0.4,3.1l-3.3-4.4
				h-13.9l-1.6,6.7l-0.3-4.6l-1.4,10.1l-0.3-11l-1.3,13.3l-0.2-12.1l-0.8,3.9v-6.2h-0.6l-1.1,5.2l-0.4-2.6l-1,9.2l-0.3-8.9l-0.6,8.9
				v-13.8l-4-4.7h2c0,0,0.7,0.9,2.7,0.9s1.6-3.4,1.6-3.4h2.7c0,0-10.4-8-10.4-7.8c0,0.3-0.3-2-0.3-2l-3.9-1.1v-2.1l-3.9-2.5l-11-10
				l-1,3v-4.8l-8-7.1L1037.7,69.6z"/>
			<path class="st0" d="M1025.7,69.1h-18.9c0,0-28.2-1.3-45.1-2.6c-17-1.3-45.5,1.9-63.8-0.9c-16.1-2.5-40-3.5-45.9-3.4
				c0,0,3.9,7.6,5.2,12.3c1.2,4.7,5.3,12.3,5.3,12.3c3.5,7.1,8.9,15.5,8.9,15.5l0.9,2.4l4.5,2.8l0.7,3.4h3v2.6l3.5,3l6.9,6.4v21.9
				l1.4-21.7l1.1,11.7l0.7-11.8l2.6,0.1l-0.6,5.2l2.4-5.1l2.7,0.1v7.7l1.3-7.9l0.8,9.8l1.1-8.7l0.4,17.6l1.6-18.3h3.8v10.7l1.6-10.7
				h6.8V135l1.8-11.7h3.8l-0.4,7.9l1.4-5.3v13.8l1.5-16.1l23.4,0.9l12.9,0.7l2.8-1.8l-4.5-6.9l12.2-2.9l16.1-13.1l26.1-21l3.2-4.1
				l2-0.8L1025.7,69.1z"/>
		</g>
		<g>
			<path class="st0" d="M813.5,244c0,0-0.5-87.5-1.2-106.4c-0.7-18.9-0.1-72.3,0-92.1c0-1-0.5-2.9,0.3-3.8c0.8-0.9,0.6-2.3-0.4-2.3
				s0.1-2.8-0.8-3c-0.9-0.1-0.9,0.8-0.2,4.2c0.6,3.3,0.2,3.8,0,5c-0.3,2.2-2.2,86.2-1.9,115.3c0.3,29.1,0,81.5,0,81.5L813.5,244z"/>
			<path class="st0" d="M812.3,54.2c0,0,3.7-3.2,3.9-5.1c0.2-1.9,2.6,0.3-1.9,5.9c0,0,2.9-3.8,3.5-3.3c0.6,0.5-2.9,6.3-5.4,7.2V54.2
				z"/>
			<path class="st0" d="M812.2,63.7c0,0,1.7-1.2,2.8-3.2c1.1-2,1.6-0.2,0.4,1.6c-1.2,1.8-3.1,3.2-3.1,3.2L812.2,63.7z"/>
			<path class="st0" d="M812.1,70c0,0,3.2-0.9,6.2-4.7c3-3.8,3.6-5.6,4.5-5.3c0.9,0.3-1.8,4.4-1.8,4.4s1.6-1.4,2.2-2.4
				s2.1-0.4,0,3.4c0,0,1.8-0.7,0.2,1.9c-1.6,2.6-7.1,7.4-11.3,9.1L812.1,70z"/>
			<path class="st0" d="M812.1,76.3l1.2,2.3c0,0,4.4-4.6,4.9-4.2c0.6,0.4-4.1,5.1-4.1,5.1s7-4.8,9.4-7.8c2.4-2.9,2.9-0.3,0.8,1.8
				c0,0,2.2-1,0.7,1.2s-7.2,5.6-7.2,5.6l-0.3,2.2c0,0,4.1-1.2,4.4-0.5s-2.7,4.2-9.8,5V76.3z"/>
			<path class="st0" d="M812,91.3c0,0,4.2-0.3,6.2-3.1c2-2.8,1,0.5,1,0.5s7-6.3,9.6-9.7c2.7-3.4,2,0.6-2.4,4.8c0,0,4.8-3.9,7.4-7.1
				s0.1,3.4-4.9,7.6c0,0,2.2-0.7,3.6-2.2c1.4-1.5,1.5-0.1-0.6,2.3s-10.8,8.5-10.8,8.5s7.8-3.6,9.3-4.2c1.5-0.6-3.1,4.2-8.7,7.1
				l0.2,1.3c0,0,7.8-5,12.5-10s4.6-1.5-3.5,5.3c0,0,3.6-1.9,6.6-4.5s4.5,1.1-5.7,7.1c0,0,2.9,0,6.1-2.6c3.2-2.6,4.8,2.8-8.5,4.3
				c0,0,0.9,0.4,2.3,0.4c1.4-0.1-0.5,1.5-3.6,1.6c-3.1,0.1-5.7,3.2-9.8,4.6s-6.5,1.5-6.5,1.5L812,91.3z"/>
			<path class="st0" d="M814.9,102.9c0,0,5.8,2.4,11.6-0.6s7.3-4.6,7.9-3.6s-4.9,7.1-11.5,7.9c-6.6,0.9-10.9,0.3-10.9,0.3l0-4.5
				L814.9,102.9z"/>
			<path class="st0" d="M814,107.1c0,0,0.8,2.4-1.9,3.9c0,0,7.5,1.1,12.1-1.3c4.5-2.4,6.8-3.2,3.6-0.5c-3.2,2.6-10,4.2-15.6,4.1
				c0,0,5.3,1.5,7.6-0.8c0,0,4.2-1.3,4.3-0.4c0.1,0.9-4.2,3.5-4.2,3.5s5,0.2,9.8-1.5c4.8-1.7,12.3-6.2,9.1-2.7
				c-3.2,3.5-3.2,3.5-3.2,3.5s4.3-2.7,4.8-2.1s-2.6,2.5-2.6,2.5s3.5-1.6,2.6,0.3c-1,1.9-9.6,5.4-15.4,5.1c-5.8-0.2-10-1.3-10-1.3
				s9.8,3.5,18.6,1.3c8.8-2.1-3,4.8-11.5,3c-8.5-1.7-9.9-0.9-9.9-0.9v-16l2.4-1L814,107.1z"/>
			<path class="st0" d="M812.1,125.8c0,0,6.5,1.8,12.3,0.5s7-3.4,7.4-2.5c0.4,0.9-4.3,3.9-4.3,3.9s8.3-1.9,12.4-4.6
				c4.2-2.7,3.4,2.5-3.3,5.1c-6.8,2.6-13.6,4.2-24.5,0.8L812.1,125.8z"/>
			<path class="st0" d="M812.1,129c0,0,5.4,4.7,14.1,3.5c8.7-1.2,21.5-6.8,13.1-0.3c-8.4,6.5-21,2.8-21,2.8s5.8,3.1,11.1,1.9
				s8.6-3.3,8.3-2.1c-0.3,1.2-2.8,4.2-5.8,5.7c0,0,4.2-2,4.5-1c0.3,1-0.5,2.6-0.5,2.6s3,0,3.7,1.5c0,0,4.8-2.9,5.4-2
				c0.6,0.9-2.7,3.8-9.1,5.2c-6.3,1.4-16.6,3.2-23.5-0.3l-0.1-5.9c0,0,6.2,3.1,11.9,2.7c5.7-0.4,5.7-2.5,1.4-1.6
				c-4.3,0.9-11.1-1.5-13.3-2.8L812.1,129z"/>
			<path class="st0" d="M815.4,190.7c0,0,0.9,2.8-2.2,4.5c0,0,8.7,1.3,13.9-1.5s7.8-3.6,4.1-0.6c-3.6,3-11.6,4.8-18,4.8
				c0,0,6.1,1.8,8.8-0.9c0,0,4.9-1.5,4.9-0.5s-4.9,4-4.9,4s5.8,0.3,11.3-1.7c5.5-2,14.2-7.2,10.5-3.1c-3.7,4-3.7,4-3.7,4
				s4.9-3.1,5.5-2.4c0.6,0.7-2.9,2.9-2.9,2.9s4.1-1.8,2.9,0.3c-1.1,2.2-11,6.2-17.7,5.9c-6.6-0.3-11.5-1.5-11.5-1.5s11.3,4,21.4,1.5
				s-3.5,5.5-13.3,3.5c-9.8-2-11.5-1-11.5-1v-18.4l2.8-1.2L815.4,190.7z"/>
			<path class="st0" d="M813.3,212.2c0,0,7.5,2.1,14.2,0.5c6.7-1.5,8.1-3.9,8.6-2.9c0.5,1.1-4.9,4.5-4.9,4.5s9.5-2.2,14.3-5.3
				c4.8-3.1,3.9,2.9-3.9,5.9c-7.8,3-15.6,4.9-28.3,0.9L813.3,212.2z"/>
			<path class="st0" d="M813.3,215.9c0,0,6.3,5.4,16.2,4.1s24.8-7.8,15.1-0.3c-9.7,7.4-24.2,3.2-24.2,3.2s6.6,3.5,12.8,2.2
				s9.9-3.8,9.6-2.4c-0.3,1.4-3.3,4.9-6.6,6.6c0,0,4.9-2.3,5.2-1.2c0.3,1.1-0.5,3-0.5,3s3.5,0,4.3,1.7c0,0,5.5-3.3,6.2-2.3
				s-3.1,4.3-10.4,6c-7.3,1.7-19.1,3.7-27.1-0.4l-0.2-6.8c0,0,7.1,3.5,13.7,3.1s6.5-2.9,1.6-1.9c-4.9,1-12.8-1.8-15.4-3.3
				L813.3,215.9z"/>
			<path class="st0" d="M812.6,148.6c0,0,3.8,2.5,9.8,1.4c6.1-1,7.2-3.5,7.2-3.5h3.9c0,0-1.4,4.6-7,5.7c0,0,9.5-2.3,6.2,2.1l3.2,1.2
				c0,0-3.1,4.8-10.1,4.7s-13.1-2.8-13.1-2.8L812.6,148.6z"/>
			<path class="st0" d="M812.8,161.8c0,0,3-0.5,4.7,0.6c0,0,9.1,0.6,13-0.4s0.3,2.8-3.6,3.5c0,0,6.3-0.1,10.7-1.4
				c4.4-1.3,0.9,2.1-5.4,3.1c-6.3,1-9.9,0.6-9.9,0.6s4.4,1.8,8.8,1.1c4.4-0.7,8.1-1.9,4,0.2s-13,1.2-16.9,0c0,0-2,1.3-2.7-0.3
				c-0.8-1.6-0.6-2.4-0.6-2.4l-2.1,0.3L812.8,161.8z"/>
			<path class="st0" d="M812.9,170.4c0,0,2.8-0.7,4.3,0.5h9c0,0,0.7,1.6-1.2,2.1c0,0,6.5,0.2,11.7-1.9c5.3-2.1,2.7,1.8-3,3.2
				c-5.7,1.4-16.3,0.9-16.3,0.9l0.7,1.4c0,0,4.2-1.1,7.3,0c3.1,1.1,9.2,0.1,13-2.1c3.8-2.3,1.4,4-1.8,6.6
				c-3.2,2.7-10.5,0.6-15.8,3.2c0,0,11.4,2.1,17,0.6s-1.4,5.2-10.2,3.7c-8.8-1.5-10.3-4-13.3-2.8c0,0,1.6,4.7,10,4.6
				c8.4-0.1,15-1,10.6,1.5c-4.4,2.5-21.7,0-21.7,0L812.9,170.4z"/>
			<path class="st0" d="M812.3,50.9c0,0,2-2,2-3.8c0-1.7-1.2,0.7-1.9,1.4L812.3,50.9z"/>
			<path class="st0" d="M810.8,54.7c0,0-1-0.5-2.2-2c-1.2-1.4-2.6-0.7,0.5,2.2c0,0-2.4-1.4-2.9-0.4c-0.5,1,3.6,2.1,4.4,4.2
				L810.8,54.7z"/>
			<path class="st0" d="M810.4,68.5c0,0-2.1-0.2-3.9-1.8c-1.8-1.6-4.1-3.9-1.8,0.6c0,0-4-1.5-6.3-4.9c-2.2-3.4-2.4-9.3-2.5-2.8
				c0,0-2.4-2.7-4.1-5.3s0.1,3.1,3.2,7.1c0,0-3.1-0.5,2.7,5.2c0,0-1.5-0.3-2.6-1.3c-1.1-1-3.5-1.7,0.8,2.4
				c4.4,4.2,14.3,6.9,14.3,6.9L810.4,68.5z"/>
			<path class="st0" d="M810.3,75.5c0,0-2.1,0.5-4-0.2s-3,0.6,0,1.7c3,1.1,3.9,1.8,3.9,1.8L810.3,75.5z"/>
			<path class="st0" d="M810.2,80.4c0,0-2.5-0.5-4.7-2.2s-1.9,0-1.9,0s-3.2-1.6-5.6-4.4c-2.4-2.7-4.5-3.5-1.2,1.3
				c3.4,4.8,9.5,6.6,9.5,6.6s-7.1-1.8-9.7-4.5c-2.6-2.7-0.9,1.3,5.2,4.2c6.1,2.9,8.3,3.8,8.3,3.8L810.2,80.4z"/>
			<path class="st0" d="M810,86.7c0,0-1.9-0.5-3.5-1.2s-3.1-0.8-0.4,1.2c2.7,2,3.8,2.8,3.8,2.8L810,86.7z"/>
			<path class="st0" d="M810,90.3c0,0-1.2,0.5-3.2-0.6s-7.3-4.6-8.2-4.6c-0.9,0,2.1,3.2,5.1,5c0,0-6.3-0.9-9.4-5.2
				c-3.1-4.3-3.1-2.2,0,2c0,0-4.5-2.3-7.1-6.4c-2.6-4.1-1.4,0-0.3,1.6c1,1.6,3.1,4.4,3.1,4.4s-1.9-1-3.6-3.2
				c-1.7-2.2-1.5,0.3,0.7,3.2s11.3,5.4,14,7.3c2.7,2,3.7,3.9,3.7,3.9s-3.5-4-6.7-3.9c-3.2,0-1,0.7-1.1,2.5c0,0-1.8,0.5-6-4
				c-4.2-4.6-4.3-4.1-0.7,1.6c0,0-2.2-1-4.4-4.3c-2.2-3.2-1.7-0.6-0.3,1.7s2.6,3.2,2.6,3.2s-3.2-1.1-6.6-6.8c-3.4-5.7-3.4-2.2,0.8,4
				c4.2,6.3,10,8.9,14.9,9.5s5.5,2.7,5.5,2.7s-5.1-1.4-6.6,0.3c0,0-6.4-0.5-9.5-2.9c-3.1-2.5,1.9,3.9,9.3,6.4c0,0-1.3-0.4-1.3,0
				c0,0.4,3.6,2.9,8.2,1s7-2.1,7-2.1L810,90.3z"/>
			<path class="st0" d="M809.6,107.9c0,0-2.3-1.7-3.3-1.3s3.3,2.6,3.3,3.7c0,1.2-1-1.3-2.7-1s2.2,1.9-2.4,1.8s-7.8-2.2-8.5-1.8
				c-0.7,0.4,3.8,2.8,3.8,2.8s-3.5,0-6.6-2.3c-3.1-2.4-0.2,2.2,5.4,3.9c5.6,1.7,9.6-0.7,10.9-0.8L809.6,107.9z"/>
			<path class="st0" d="M809.5,114.2c0,0-1.8,2.6-6.8,2.5c-5,0-4.5-1.3-7.4-1.7c-2.8-0.4-5.6-3.7-6.3-3.5c-0.7,0.2,4.7,5.2,4.7,5.2
				s-5.3-0.6-7.9-4c-2.6-3.4-2.4-5.8-3.3-5.9c-0.9-0.1,0,4.2,0,4.2s-2.1-1.1-2.8-4.4c-0.8-3.3-1.9-1.9-1.9,0c0,1.9-0.5-1.9-1.7-1.5
				c-1.2,0.4,2.6,5.9,2.6,5.9s-4.1-1.9-7.4-6.2s-2.2-0.1,1.4,4.2c3.6,4.3,16.4,11.8,16.4,11.8l-1.8-2c0,0,5,4.3,12.9,4.2
				c0,0-1.5,1.7-6.9,1.1c-5.3-0.7,4,2.8,8.3,1.1s7.7-1.5,7.7-1.5L809.5,114.2z"/>
			<path class="st0" d="M809.4,124.9c0,0-1.2,1.8-6.5,1.8c-5.3,0-5.6,1-7.9,0s-3.5-2.6-4.8-1.8s5.1,4.6,7.8,3.8
				c2.7-0.8,7.5-1.7,8.7,1c0,0-7.5,2.8-13.1,0.7s-11.2-6.8-7.9-2.1c0,0-1.7,0.7-4.2-1.7c-2.5-2.3-2.2,0.7,2.5,3.8
				c4.7,3,11.5,4.9,16.3,4.4c0,0-2.8,0.6-2.7,1.5c0.1,0.9,3.8,1.5,7-0.4s4.6-1.1,4.6-1.1L809.4,124.9z"/>
			<path class="st0" d="M809.2,136.6c0,0-3.9,2.5-11.7,2.2c-7.7-0.3-15.4-2.5-18.1-4.9c-2.7-2.4-3,1.8,5.5,4.9c0,0-4.6,0.4-9.6-3.3
				c-5-3.8,4.1,5.6,4.1,5.6s-3.1-0.4-6.1-2.7c-2.9-2.3-1.6,1.7,8.9,6.9c10.5,5.2,22.2,3.3,22.2,3.3s-8.1,2.4-15.8,1.8
				c-7.7-0.5,3.6,2,9.7,1.3c6.1-0.7,10.1-1.5,10.1-1.5s-5.7,3.2-10.3,3.2s-11.6-2-3.6,1.7c0,0-5.5,0-10.8-2.8
				c-5.4-2.8-3.4,1.2,4.6,3.5c0,0-5.7-0.1-11.4-4.4c-5.7-4.4-8.5-6.8-5.8-1.7s13.1,11.4,23.1,11.2c0,0-0.4,0.5-0.4,1
				c0,0.5,10.6,1.8,15.3-1.5L809.2,136.6z"/>
			<path class="st0" d="M795.8,141.9c0,0-4.9,1.3-8,0.5c-3.1-0.8-5.9-2.2-5.9-2.2s5.1-0.1,6.9,0.5
				C790.7,141.3,792.8,141.9,795.8,141.9z"/>
			<path class="st0" d="M809.2,161.7c0,0-3.1,3.5-8.5,3.2c-5.4-0.3-7.3-3.1-8.1-2.5c-0.8,0.6,1.4,3.7,3.5,4.3c0,0-7.7-0.7-10.3-3.8
				c-2.6-3.1-3.1-0.5,2.2,3.8c0,0-8.8-1.6-13.5-5.5c-4.8-3.9-7-3.5,0.3,4.2c0,0-2.3,0.7-6.2-3s-2.3,4.2,7.5,5.6l2.7,5.4
				c0,0-4.4-2.2-6.9-4.8s0.1,4.8,5.2,6.5c5.1,1.7,9.2,1.7,9.2,1.7s-3.5,1.1-9.6-0.3c-6.1-1.5-10.2-3.9-8.6-1.5
				c1.6,2.4,8.2,5.9,18.6,6.2c10.4,0.3,13.4-1.3,17-3.7c3.6-2.3,4.6,0.1,4.6-0.1c0-0.2-2.9,3-10,5.2c-7.2,2.1-10.9,4.1-16,2.5
				c-5.1-1.7-9.2-5.6-8.5-3.6c0.7,2,4,3.4,4,3.4s-5.2-0.8-8.5-3.5c-3.3-2.7-2.4,0.1,0.3,2.3c0,0-2.2-0.5,0,1.7c2.2,2.2,6.3,2,6.3,2
				s-2.3-0.3-2.1,1.2s5.9,3.4,11.7,2.5s6.9,0.2,6.9,0.2s-0.7,2-5.4,1.9s-5.6-1.3-9.8-1.2c-4.2,0.1-5.7-1.1-8.6-1.3
				c-2.9-0.3,0.4,4.2,4.6,4c4.1-0.2,8.7,0.9,8.1,2.7c-0.6,1.7-1.9,0.2-2.3,1.5c-0.5,1.3,4.3,2.5,9.7,1c5.4-1.5,13.1-4.7,18.3-10.5
				l-0.2,3.1c0,0-6,0.8-7.6,4.1c-1.6,3.3-7.1,5.6-14.5,5.8c-7.4,0.1-17.3,0-15.1,1.5c2.2,1.5,16,0,16,0s-7.4,2.9-13.8,2.3
				c-6.4-0.6,0.4,1.5,2,2.3s0.1,3.8,7.6,2.9c0,0-4.9,2.3-10,2c-5.1-0.3,3.4,2.9,7.8,2.2c0,0-1.6,0.5-0.7,2
				c0.9,1.5,11.8,1.8,16.7-3.3c4.9-5,11-9,11-9s-5.7,9.3-10,12.9c-4.3,3.7-14.8,0.7-16,3.2c-1.2,2.5,2.1,2.8,2.1,2.8s-2.1,2-10,2
				c-7.9,0-0.6,7.1,9,5.6s22.4-15.9,22.4-15.9l0.1,2.3c0,0-11,8.3-12.5,12.2c0,0-3.7-1.2-6.8,2.3c-3,3.5-4.6,0.4-9.3,3.6
				s11.1,8.9,19.6,4.2s14.4-6.7,14.4-6.7L809.2,161.7z"/>
		</g>
	</g>
	<path id="berg2_8_" class="st0" d="M1137,206.8h-7.7l-18.1-8.4l-64.5,7.7l-37.4-6.8l-82.1,0.7l-47.1,2.9l-36.3,0.9
		c0,0-13.3,2.6-23.6,1.7c-10.3-0.9-26.6,1.7-26.6,1.7l6.4,7.3l13.2,1.4l278.3,4L1137,206.8z"/>
	<g id="mensen_5_">
		<path class="st1" d="M989.9,385.4l3-5.1c0,0,1.5,0.7,1.7,1.3c0.2,0.6,1.5,1.9,2.1,2.7s1.4,1.8,2.2,1.7s1-1.3,0.8-2.4
			c-0.2-1.1,0.3-2.6,0.1-3.8c-0.2-1.2-0.5-3.7-0.4-4.9c0.1-1.1-0.1-3.6-0.8-5.1c0,0-0.1-2.5-0.5-3.5c-0.4-1-0.5-4-0.5-4
			s0.9,0.9,1.3,0.3c0.4-0.6,0.3-2.9-0.3-4.1s-1.5-4-1.8-5.1s0.6-3.3,0.4-4.4s-0.7-2.1-0.7-2.1l0.1-1.4c0,0,0.9,0,1.3-0.4
			c0,0,0.1-1-0.1-1.3s-0.5-0.6-0.4-1.8c0,0,5.7,0,8.2-2.5s0.3-1.7,6-5.9c5.7-4.2,6.7-6.4,6.7-6.4s-0.3-0.5-0.8-0.6
			c0,0-1.4-1.6-2.5-3.5c-1.1-1.9-3-4.2-3-4.2s0.8-2,0.7-2.7c0,0-0.3-0.5-1.3-0.8c0,0,0.1-0.9-1.2-1.8l0-3c0,0,0.4-0.6,0.9-1
			c0.5-0.4,1-0.9,0.8-1.5s-0.8-1.2-0.8-1.2s0-0.6-0.7-1.1c0,0,0-0.9-0.2-1.1c-0.1-0.3-0.8-0.6-1-0.6c-0.2,0-0.7,0.4-0.7,0.4
			s0.4-1.2,0.3-1.7c-0.1-0.4-0.8-0.7-1.1-0.4c-0.3,0.2-0.4,0.5-0.4,0.5h-0.1l-0.1-0.9l-1.1-0.5l0-0.4l-0.2-0.1l0.6-5.8
			c0,0-0.6-0.2-0.8-0.2c-0.2,0-0.6,0.2-0.6,0.2l0,0.4c0,0-0.3,0-0.4,0.2s0.3,0.4,0.3,0.4l-0.6,4.6l-0.3,0.3l-0.4,3.3
			c0,0,0.4,0.5,0.4,0.9c0,0.4-0.6,0.4-0.6,1h0.2c0,0,0.2-0.3,0.5-0.4c0.4-0.1,0.6-0.3,0.6-0.3s-0.3,0.7-0.3,1.2c0,0.6,0,1.9,0,1.9
			s-0.1,0-0.2,0.1c0,0-0.4,1-0.5,2c0,0-1.3-1.2-1.9-1.2c-0.7,0-0.8,0.2-1.6-0.5c-0.8-0.7-2.2-2-4.1-3l-0.2-0.5c0,0,0.3,0.3,0.3,0
			s-0.3-1.2-1.9-1.7c-1.6-0.5-3.5-1.2-3.5-1.2s-0.3-0.5-0.7-0.7c-0.4-0.2-0.6-0.7-1-1.1c-0.4-0.4-1-0.9-1.1-1.3s-0.1-0.6-0.1-0.6
			s2.7-0.1,4.2-1c1.5-0.9,2.5-2,1.7-3c-0.8-0.9-3.5-1.6-6.1-1.9c0,0,0.4-3.7-0.1-4.6c-0.4-0.8-2-1.9-4.9-2.3
			c-2.8-0.4-3.9,0.4-4.2,0.7c-0.3,0.3-1.3,4.5-1.3,4.5s-6.4-0.3-6.9,2.2c-0.6,2.9,5,2.6,5,2.6s-0.2,0.6-0.2,1.2
			c0,0.5-0.3,1.4-0.3,1.4s-1.6,0.8-1.9,1.6c-0.3,0.7,0.2,0.4,0.2,0.4l-0.1,0.4c0,0-2.1,0.6-2.7,1.3s-1.1,0.6-1.7,0.8
			c-0.6,0.2-3,1.1-3.3,2l-0.9,0.6c0,0,0-0.4-0.4-0.5s0.7-0.7,0.8-1.1c0-0.4,0.3-2.8,0.3-2.8l-0.1-0.4l0.4-5c0,0-0.4-0.4-0.8,0
			l-0.1,0.7c0,0-0.4-0.1-0.4,0.1c0,0.2,0.4,0.4,0.4,0.4l-0.5,3.4l-0.3,0v0.4c0,0-0.4,0-0.6,0.3c0,0-0.4,0-0.9,0.5
			c0,0-0.7-0.2-1.3,0.1c-0.5,0.3-1.3,2.3-1.3,2.3s-1.1-0.1-1.6,1c0,0-0.8,0-0.9,1.1c0,0-0.5,0.1-0.5,0.8s0.4,1.6,0.4,1.6l-0.2,0.1
			l-0.1,0.8c0,0-0.3,0.3-0.3,0.8l0.1,0.3c0,0-0.9,0.1-2.5,0.5c-1.7,0.4-2.5,0.9-3.4,1.4s-2.9,2-3.9,2.5c-1,0.5-1.5,1.1-1.5,1.1
			s-0.4,1.3,0.1,2.5s1,2,1.7,3.1c0.8,1.1,1.1,2.4,1.1,3.8c0,1.5-0.4,2.1-0.3,3.4c0.1,1.3,0,2.9,0.9,4.3c0.9,1.4,0.4,2.5,1.7,3.7
			s2.7,2.7,6.1,4.1c2.3,0.9,4.4,0.8,4.4,0.8s0,0.7-0.2,1.1c-0.2,0.4-0.6,1.1-0.7,2.2c-0.1,1-0.1,1.5-0.4,3s-0.8,3.8-0.8,5.3
			c0,1.5-0.3,0.9-0.3,3.1c0,2.2-0.7,0.9-1.3,4.6c-0.7,3.8-2.1,11-2.1,12.4c0,1.4,0.8,2,0.8,2s-0.6,0.5,0.5,0.7
			c1.1,0.2,2.8-0.3,4.3-0.2s5.6,0.7,6.6-0.5c0,0,0.8-5.3,1.2-6.3l0.1,0.4c0,0,0.9-0.5,2.4-0.5s3.1,0.2,3.1,0.2s0,0.4,0.3,0.7
			c0,0-0.3,0.7-0.3,1.5c0,0.7,0,1.4,0,1.9c-0.1,0.6,0.2,1,0.2,1s-0.3,0.1-0.6,0.1c0,0,0,0.2,0.3,0.6c0,0-0.5,0.5-0.5,1.5
			c0,0-0.8,0.3-0.3,1.6c0,0-0.6,0.4-0.3,2c0,0-0.5,0.1-0.4,0.4s0.4,0.2,0.4,1.1c0,0.9-0.1,3.8,0.5,6.1s0.6,5.1,1.1,7.3
			s1.9,3.1,1.9,3.1l1.6,0.2l0.3-0.5l0.8,0l0.5-0.9l-0.3,0l0.5-0.4l-0.1-0.5l0.5,0l0.4-0.5l-0.2-0.4l0.5-0.3c0,0,0.6-1.8,0.2-3.2
			c0,0,0.3-3.8,0.2-6.3s-0.4-5.3,0.1-6l-0.2-0.2c0,0,0.7-1.2,1-1.4c0.3-0.2-0.2-0.4,0.1-0.9c0.2-0.5,0.3-0.8,0.2-1.4
			c-0.2-0.6,0.1-1.5,0.1-1.8c0-0.3-0.2-1.2-0.2-1.2s2.6,2,4.4,2.9c0,0,0.8-0.4,0.8,0.2s-1.2,1.2-1.6,2.3c0,0-0.9,0.5-1,1.2
			c0,0-1-0.1-1.5,2.3c-0.4,2.5-0.5,3.6,0.5,4.9c0,0,0.4,1.5-0.1,2.5c-0.5,1-1.8,3.6,0.4,5.9c2.2,2.3,4.3,1.9,5.1-0.9
			c0.8-2.8,0.4-4.7,0.4-6C989.7,386.6,990.1,386,989.9,385.4z"/>
		<g>
			<path class="st1" d="M1093.6,315.3c-0.5-0.5,0-0.6-0.3-1.3c-0.3-0.7-0.4-2.2-0.8-4.1c-0.3-1.9-0.9-3.1-2-5.9
				c-1-2.8-2.2-6.2-3.2-7.7c-1.1-1.4-0.7-2-1.2-4.2s-3.3-6.6-3.3-6.6c-0.1-1.6-2.5-3.7-3.1-4.4c-0.6-0.7-2.3-1.9-2.3-1.9
				c2.4-5.9-5.2-7.9-9.1-6.3c-3.9,1.6-4.2,5.4-4.2,5.4l-0.4,0.7l-0.5,1l-1.2,0.6l-1.4,1.6c-1.9-0.4-4.2,0.5-4.2,0.5l-3.1-0.1
				c-0.5-0.9-2.3-1.2-2.3-1.2v-0.4l-0.4-0.2c-0.5-1-1.7-0.7-2.1-1c-0.5-0.3-1.5-0.5-1.5-0.1c0,0.4,0.9,0.7,0.9,0.7l0.5,0.2
				c0,0-1.7,0.3-2.6,0.6c-0.9,0.3-1,0.5-0.8,0.8c0.2,0.2,1.4,0,1.4,0c0,0.4,0.4,0.5,0.4,0.5c-0.1,0.6,0.3,0.9,0.3,0.9s0,0.5,0.4,0.7
				c0.4,0.2,2.2,0.3,2.2,0.3s2.3,2.5,3,2.8c0.7,0.3,0.7-0.3,1-0.5c0.3-0.2,1,0.5,2.3,1c1.2,0.5,3.8,0.7,3.8,0.7
				c1.4,4.5,3.1,6.7,3.1,6.7l-0.1,4.6c-0.9,1.3-0.1,2.9-0.1,4c0,1.1-2.3,6-1.8,6.3c0.5,0.3,1-0.2,1-0.2l-0.7,5.3
				c-1,1.6-1.1,9.9-0.2,10.2c0.9,0.3,3.1-2.4,4.2-3.6c1.2-1.3,3.3-2.3,3.3-2.3s0,0.9-0.3,1.5c-0.4,0.6,0,0.9,0,0.9s-0.3,1.1-0.2,1.5
				c0.1,0.4,4.7,4.8,4.7,4.8c0,0.8,0.4,1.4,0.4,1.4l1.8,1.8l0.5,2.1c0.3,1.5,1.3,2.5,1.3,2.5c0.8,1,2.8,1.3,3.9,0.7
				c1.1-0.6,0-3.7-0.7-4.7c-0.7-0.9-1.1-2.5-1.1-2.5h0.4l2,0.2l0.8,0.8l0.9,0.1c0,0,0.7-7.7,0.7-8.6c0-0.9-0.3-1.3-0.3-1.9
				s-1.1-0.6-1.1-0.6v-0.7l-0.6,0l-0.1-1.1l0.2-0.4l0.2-2.7c1-0.2,1.7,0.1,1.7,0.1s0.6,1.2,1,1.8c0.4,0.7,0.2,2.4,0.2,2.4
				c1.1,1,3.7,0.3,5.2,0.3c1.5,0,1.8,0.3,2.9,0.1C1094,319,1094.1,315.8,1093.6,315.3z M1078.1,327.3c0,0-0.3-1.3-1.2-1.4l-1.2-2.3
				l-0.7-1.3l0.1-1.2c0,0-0.3-0.3-0.7-0.3l0.4-1.2l-0.4-0.3c0,0,0.7-0.9,0.7-1.1c0-0.2-0.6-0.6-0.6-1.8c0,0,0.7-0.9,1.5-0.9
				c0,0,0.1,2.4,0.2,3.3c0.1,0.9,0.7,1.9,0.7,1.9s-0.2,0.9,0.3,1.2c0.4,0.3,0.5,1.1,0.5,1c0-0.1,0,2.2,0,2.2l1.4,2.2H1078.1z"/>
			<path class="st1" d="M1049.8,298.7l-0.1-0.6l1.7-0.1l-2-10.7c0.2-0.1,0.4-0.4,0.4-0.6c0-0.2-0.1-0.4-0.1-0.5
				c-0.1-0.1-0.1-0.2-0.1-0.4c0-0.1,0-0.2,0-0.3c0.1-0.2,0.2-0.6,0-1.7c-0.2-1.7-1.5-2.4-4.1-2.4c-2.6,0-3,2.1-3,3.3
				c0,0.8,0.2,1.2,0.3,1.4c0.1,0.1,0.1,0.2,0.1,0.4c0,0.1,0,0.2-0.1,0.3c-0.1,0.3-0.1,0.5,0.2,1l-0.2,10.8l1.7-0.1v0.5
				c0,0-0.4,0.2-0.2,0.8c0,0-0.4,0.5,0,0.5c0.4,0,2.1,0,2.8,0c0.7,0,2.1-0.2,2.7-0.2c0.6,0,0.2-0.7,0.2-0.7
				S1050.2,298.7,1049.8,298.7z M1042.9,284.5c0-1.3,0.5-2.9,2.7-2.9c2.4,0,3.5,0.6,3.7,2.1c0.1,1,0,1.3,0,1.5
				c0,0.1-0.1,0.3-0.1,0.5c0,0.3,0.1,0.4,0.2,0.5c0.1,0.1,0.1,0.2,0.1,0.3c0,0.1-0.2,0.3-0.3,0.4l-2.3,0.2v-0.3l-1,0.1v0.3l-2.4,0.1
				c-0.2-0.3-0.2-0.4-0.1-0.5c0-0.1,0.1-0.3,0.1-0.5c0-0.2-0.1-0.4-0.2-0.6C1043.1,285.6,1042.9,285.3,1042.9,284.5z M1046.6,298.4
				h-1.3l0-0.5l-1.7,0.1l0.2-10.3h2l0.2,1.6l-0.5,0.5l-1,0.1c0,0-1.1,4.5-0.3,7.1c0.2,0.6,2.4,0.5,2.4,0.5V298.4z M1049.3,298.1
				h-1.8v-0.6h0.6v-0.6l1.3-0.1l0.5-0.9c0.1-3-1.2-6.2-1.2-6.2h-1.3l-0.6-0.3v-1.9l2.1-0.2l1.8,10.1l-1.5,0V298.1z"/>
		</g>
		<g>
			<path class="st1" d="M914.2,332.1c0,0-0.1,0.1-0.2,0.1c0,0,0,0.1,0,0.1C913.7,332.5,914.2,332.1,914.2,332.1z"/>
			<path class="st1" d="M915.8,304.6c-0.4-1.3-1.4-4.7-2.2-6.8c-0.8-2.1-1.1-4.1-1.5-5.5c-0.4-1.4-1.2-2.6-1.2-2.6l-1.2,0.4l0.8-0.7
				c0,0,0.1-0.2-0.1-1.2c-0.1-1-0.9-2-0.9-2c2.8-0.1,5.1-1.5,5.1-1.5c-1.1,0.4-2.7,0.5-2.7,0.5l0.4-0.9c-1,1.3-2.8,1.3-2.8,1.3
				c-0.3-0.9-0.8-1.3-0.8-1.3c0.5-1.9-0.5-3.8-0.9-4.6c-0.5-0.8-1.1-1.3-2.8-1.6c-1.7-0.4-2.5,0.4-3.7,1.4c-1.2,1-1,3.2-1,4.1
				c0,0.9-0.3,1.6-0.3,1.6c-0.8,0.5-2.2,0.1-2.2,0.1l0.9,0.5l-1.3,0.1c0.6,0.8,2.1,0.4,2.1,0.4s-1.9,0.8-2.2,1.6
				c-0.3,0.9-1.7,2.5-1.7,2.5c-0.4-3.6-2.6-4.4-3.7-6.6c-1.1-2.2-3.6-4.3-3.6-4.3c-0.4-1.8-2-2-2-2c2.2-3.3,0.3-5.2-0.9-5.8
				c-1.2-0.6-0.4-1.8-3.7-1.8s-4.9,2.4-5,3.1c-0.2,0.7,0,4.3,0,4.3c-2.2,0.1-3.5,2.3-3.5,2.3c-1.6,0.6-3.2,2.9-3.6,4
				s-1.8,1.9-1.8,1.9l-6.4-11.4c-0.4-0.1-0.7,0.3-0.7,0.3l6.3,11.9c0,0-0.7,1.2-2,2.6c-1.3,1.4-1,4.2,0,5.8c1,1.7,4.5,1.6,4.5,1.6
				c1,1.2,0.3,3.5-0.1,6.1c-0.4,2.6-1.4,8.6-2.1,10.9c-0.7,2.3-1.6,6.2-1.6,6.2c3.3,2.7,5.4,2.7,5.4,2.7l-0.1,4l-0.7,1.6l0.5,0.9
				l0.8-0.4l0.9,0.7l0.6-1.1h2.2c-0.4-0.8,0.2-1,0.2-1l0.3-2.7l4-0.1l-0.2,3.4l0.5,0.7v1.6c-0.7,1-0.5,3.3-0.5,3.3
				c2.3,0.3,5.9-0.7,5.9-0.7c-0.1-0.6-0.7-2.1-0.7-2.1h0.4l0.5-5.8c3,0.4,4.8-1,4.8-1s0.2-1.9,0.4-3.4c0.1-1.5,0-6,0-6l-0.2-7.6
				c0.4-0.2,1.1-1.3,1.1-1.3s0.1,1.5,0.1,2c0,0.5-1,1.9-0.7,2.2c0.1,0.1,0.4,0,0.8-0.2c0,0,0,0,0,0.1c0,0.3,0.2,0.5,0.5,0.6v0.1
				c-0.2,0.1-0.4,0.3-0.4,0.6c0,0.3,0.2,0.5,0.4,0.6l0,0.2c-0.2,0.1-0.3,0.3-0.3,0.7c0,0.3,0.1,0.6,0.3,0.7l-0.1,0.3
				c-0.1,0-0.1,0.1-0.2,0.1c-0.1,0.1-0.1,0.2-0.1,0.4c0,0.2,0.2,0.4,0.4,0.4l0,0.5c-0.1,0-0.1,0.1-0.2,0.1c-0.1,0.1-0.1,0.2-0.1,0.4
				c0,0.2,0.2,0.4,0.4,0.4l0.1,0.1c0,0,0,0,0,0c-0.1,0.1-0.1,0.2-0.1,0.3c0,0.2,0.2,0.3,0.3,0.3l0,0.1c0,0,0,0,0,0
				c0,0-0.1,0.1-0.1,0.1c0,0.1,0,0.1,0.1,0.2c0,0,0.1,0.1,0.2,0.1c0,0,0,0,0,0c0.1,0,0.1,0,0.2-0.1c0,0,0.1-0.1,0.1-0.1
				c0-0.1,0-0.1,0-0.2c0,0,0,0,0,0l0,0l0-0.7c0,0,0.1,0,0.1,0c0,0,0.1,0,0.1,0c0.1,0,0.2-0.1,0.2-0.2c0.1-0.1,0.1-0.3,0-0.4l0.1-0.1
				l0,0c0,0,0,0,0.1,0c0.1,0,0.3-0.1,0.3-0.2c0.1-0.1,0-0.2,0-0.3l0.1-0.1c0.1,0,0.1,0.1,0.2,0.1c0,0,0,0,0,0c0,0,0.1,0,0.1-0.1
				c-0.5,2.2-1.4,5.9-1.4,6.7c0,1.2-0.5,1.7-0.9,2.8c-0.4,1.1-1.4,2.3-2.2,3.1c-0.8,0.7,0.3,0.8,0.3,0.8c-1.1,1-1.5,3.3-1.5,3.3
				s0.9,0.9,1.7,1.1c0.7,0.2,2.5,0.4,2.5,0.4s-0.3,0.6,1.6,0.3c1.9-0.3,2.7,0.1,5,0.1c2.4,0,2.3-0.6,3.9-0.7c1.5-0.1,1,0.9,2.1,1
				c1.2,0.2,2.1,0,4.2,0.3c1.7,0.2,3.4-0.7,4.1-1.1c0.2-0.6-0.9-7.6-1.1-12.1c-0.2-4.6-1.8-9.7-2.1-11.1s-0.1-2.6-0.9-4.1
				c-0.8-1.5-2.2-5.5-2.2-5.5v-1.1c0.6-0.6,0.8-1.4,0.8-1.4l1.5,2.6c0,0,0,1.3,1,2.8c1,1.5,1.6,2.1,1.6,3.3c0,1.2,0.9,1.6,1.2,2.5
				c0.3,0.9-0.2,0.8-0.2,1.1s0.6,0.4,0.6,0.4c-0.1,0.5,0.5,1.6,0.5,1.6l1.5,0.1c0,0,0.1-1.9,0.1-2.6
				C916.4,308,916.1,305.9,915.8,304.6z M892,309.1c0-0.1,0-0.2,0.1-0.3c0,0,0.1-0.1,0.1-0.1c0.1,0,0.1-0.1,0.2-0.1
				c0.2,0,0.4,0.2,0.4,0.4c0,0.2-0.2,0.4-0.4,0.4C892.2,309.5,892,309.3,892,309.1z M892.1,310.4c0-0.2,0.1-0.4,0.3-0.4
				c0.2,0,0.3,0.2,0.3,0.4c0,0.2-0.1,0.4-0.3,0.4C892.3,310.8,892.1,310.7,892.1,310.4z M892.2,311.9c0-0.3,0.1-0.5,0.2-0.5
				s0.2,0.2,0.2,0.5s-0.1,0.5-0.2,0.5S892.2,312.2,892.2,311.9z M892,313.3c0-0.1,0-0.2,0.1-0.3c0,0,0.1-0.1,0.1-0.1c0,0,0,0,0,0
				c0.1,0,0.2,0.1,0.3,0.3c0,0.2-0.1,0.3-0.2,0.4c0,0,0,0,0,0C892.2,313.6,892.1,313.4,892,313.3z M892.1,314.7c0-0.1,0-0.2,0.1-0.3
				c0,0,0.1-0.1,0.1-0.1c0,0,0,0,0,0c0.1,0,0.1,0,0.1,0c0.1,0.1,0.1,0.1,0.1,0.2c0,0.1,0,0.2,0,0.3c0,0.1-0.1,0.1-0.2,0.1
				C892.3,315,892.2,314.9,892.1,314.7z M892.5,315.6c0-0.1,0-0.2,0-0.2c0,0,0.1-0.1,0.1-0.1c0,0,0,0,0,0c0,0,0.1,0,0.1,0
				c0.1,0,0.1,0.1,0.1,0.2c0,0.2-0.1,0.3-0.2,0.3c0,0,0,0,0,0C892.6,315.8,892.5,315.7,892.5,315.6z M893.1,316.3c0,0-0.1,0.1-0.2,0
				c-0.1,0-0.1,0-0.1-0.1c0,0,0-0.1,0-0.1c0,0,0-0.1,0-0.1c0,0,0.1,0,0.1,0c0,0,0,0,0,0c0.1,0,0.1,0,0.2,0.1
				C893.1,316.2,893.1,316.2,893.1,316.3C893.1,316.3,893.1,316.3,893.1,316.3z M892.9,316C892.9,316,892.9,316,892.9,316l-0.1-0.1
				c0,0,0.1-0.1,0.1-0.1L892.9,316C893,316,893,316,892.9,316z M893.5,315.1c0,0.1-0.1,0.1-0.1,0.2c-0.1,0-0.1,0-0.2,0
				c-0.1,0-0.1-0.2-0.1-0.3c0.1-0.1,0.1-0.2,0.2-0.2c0,0,0,0,0.1,0C893.5,314.8,893.6,314.9,893.5,315.1z M894,314.4
				c-0.1,0.1-0.2,0.2-0.3,0.2c-0.1,0-0.1-0.2-0.1-0.3c0.1-0.1,0.1-0.2,0.2-0.2c0,0,0,0,0.1,0C894,314.1,894,314.2,894,314.4z
				 M894.4,314C894.4,314,894.4,314,894.4,314c-0.2,0-0.3-0.1-0.3-0.3c0-0.2,0.1-0.3,0.2-0.4c0,0,0,0,0,0c0.1,0,0.2,0.1,0.3,0.3
				c0,0.1,0,0.2,0,0.3C894.5,313.9,894.4,313.9,894.4,314z M894.7,313.3L894.7,313.3c-0.2-0.1-0.3-0.2-0.4-0.2
				c-0.2,0-0.4,0.3-0.3,0.5c0,0.1,0,0.2,0.1,0.2l-0.1,0c0,0,0,0,0,0c-0.2-0.1-0.4,0-0.5,0.2c-0.1,0.1-0.1,0.3,0,0.4l-0.1,0.1l0,0
				c-0.1,0-0.3,0.1-0.4,0.2c-0.1,0.1,0,0.3,0,0.4l0,0l0,0.1c0-0.1-0.1-0.1-0.1-0.2c-0.1,0-0.1-0.1-0.2-0.1c0,0,0,0,0,0l-0.1-0.1
				c0.1,0,0.1-0.1,0.1-0.1c0.1-0.1,0.1-0.2,0.1-0.3c0-0.1-0.1-0.3-0.2-0.3c0,0-0.1-0.1-0.2-0.1l0-0.5c0.2-0.1,0.3-0.3,0.2-0.5
				c0-0.2-0.2-0.4-0.3-0.4l0.1-0.2c0.2-0.1,0.3-0.3,0.3-0.7c0-0.3-0.1-0.6-0.3-0.7l0-0.2c0.2,0,0.4-0.3,0.4-0.6
				c0-0.3-0.2-0.5-0.4-0.6v-0.1c0.3,0,0.5-0.3,0.5-0.6c0-0.3-0.2-0.6-0.5-0.6c0.2-0.2,0.4-0.4,0.6-0.6c0.7-0.8,1.2-3.3,1.2-3.3
				l0.4,1.8c-1.2,0.4-1.1,2.3-0.9,3.2c0.2,1,1.1,2.7,1.1,2.7S894.8,312.7,894.7,313.3z"/>
		</g>
		<path class="st1" d="M930.5,241.4c0,0,0.4,1,0.2,2.9c-0.2,1.9-0.2,2.6-0.2,2.6l-0.8,3.8l0.5,0.6l0.5-0.4l0.5,0.4l1.1-0.6
			c0,0,0.9-2,0.9-3.6c0,0,0.7,0.5,0.9,0.6c0.2,0.1,2.2,0.1,2.6,0c0,0-0.3-3.3-0.8-4.9c-0.6-1.6-0.6-4.9-0.6-4.9s1.2-1.1,1.2-2
			s-0.4-6.6-1.5-7.6c-1.1-1-2.9-1.7-2.9-1.7v-0.4c0,0,0.1,0.2,0.3,0.2c0,0-0.4-0.4-0.3-0.8c0.1-0.4-0.2-1.3-0.2-1.3s0.9-0.1,1.1-0.3
			c0.3-0.2-0.8-0.3-1.6-0.4c0,0,0.1-0.8,0-1c-0.1-0.2-2.9,0-3.1,0.2c-0.2,0.2,0,1.2,0,1.2s-1.5,0.1-1.5,0.4s1.4,0.3,1.4,0.3
			s-0.3,0.3-0.3,0.7c0,0.4-0.2,0.8-0.2,0.8s-0.9,0-1.4,1.7c0,0-1.1,0.3-1.2,1.4c-0.2,1.1,0.2,1.5-0.6,3.1c-0.8,1.6-1.8,5.7-1.8,6.4
			s0.7,1.5,0.7,1.5l-0.7,3.1c0,0,0.2,0.1,0.4,0.1l1.2-4l0.2,0l0-0.4l-0.3-0.1c0,0,0.1-0.5,0-0.8c0,0,0.4-1.2,0.8-1.6
			c0,0,0.1,0.2,0,0.7c-0.2,0.5-0.3,0.5-0.3,1.9c0,1.4-0.8,2.7-1,4.5c-0.2,1.8-0.5,3.7-0.5,3.7s1.5,0.7,3.3,0.4l0.1,3.8l0.5,0.5
			l0.2-0.4l0.9,0.5h0.6l0.4-0.7l-0.3-4.6c0,0,0.3,0,0.5,0c0,0,0.5-1.6,0.5-3.1C930.4,242.2,930.5,241.4,930.5,241.4z"/>
		<path class="st1" d="M842.8,251.6l0.4,0.2l0.5-0.4l1,0.2v-3.7c0,0,1.7,0.2,2.9-0.3c0.8-0.3,0.8-0.2,0.8-0.2c0,0.4,0.1,4,0.1,4
			l1.1-0.2l0.6,0.2l0.8-0.1l-0.3-3.3c0,0,0.6,0.5,1.6,0.3c1-0.2,3.2-1.3,3.2-1.3s-0.5-2.9-1.8-3.7c-1.2-0.8-2.5-1.9-2.3-3.4
			c0.2-1.6,1.3-1.3,1.3-3.6s-1.4-4.7-1.4-4.7s0.1-2.4,0-2.9c-0.1-0.4-1.7-0.4-1.7-0.4s-0.6-0.7-1.2-0.9l-0.1-0.6
			c0,0,1.2-0.2,1.2-1.3c0-1.1-1.4-0.9-1.4-0.9l-0.5-0.5c0,0-0.3-0.6-0.4-0.6c-0.1,0-1.6,0.1-1.7,0.2c-0.1,0.1-0.3,0.6-0.3,0.6
			s-1.6,0.1-1.7,1.1c-0.1,1,1.3,1.3,1.3,1.3l-0.1,0.5c0,0-2.2,0.1-2.8,0.9c-0.6,0.8-0.2,2-0.2,2s-0.9,0.5-1.5,2.9s0.4,4.1,0.4,4.1
			s0.1,0.9-0.9,2.8c-1,1.9-1.7,3.3-1.8,4.7s-0.6,3.4-0.5,3.8s1.3-0.7,2.7-0.2s2.7,0.3,2.7,0.3L842.8,251.6z"/>
		<path class="st1" d="M1143.1,253c-0.5-0.9-0.4-1.8-0.1-3.2s-0.4-5-1-7.1s0.1-4.3,0-4.9c-0.1-0.5-2.3-0.9-2.3-0.9
			c-0.2-1-1.2-1.7-1.2-1.7c0.1-0.4,0.4-0.9,0.4-0.9s0.7,0,0.8-0.5c0.1-0.5-0.8-0.8-0.8-0.8s0.2-1.3,0-1.7c-0.2-0.4-2.1-0.5-2.4-0.2
			c-0.3,0.3-0.4,1.6-0.4,1.6s-1.2-0.1-1.2,0.4c0,0.5,0.4,0.7,0.4,0.7c0.1,0.6,0.4,1.3,0.4,1.3c-0.4,0.6-3.7,1.3-3.9,1.6
			c-0.3,0.3,0,2.2,0,2.2s-1.1,2.5-1.5,4c-0.5,1.6,0,4.9,0,4.9c-0.6,1.8-0.4,5.1-0.4,5.1c1-0.8,2-1.2,2-1.2l0.9,1.9
			c0,0,0.2,2.6,0.4,3.2c0.2,0.7,1.6,2.1,1.6,2.1l0.5-0.5l1-0.2l0.6,0.6l0.6-0.5l0.8,0.5c0,0,0.2-1.2,0.4-2.6c0.3-1.4,0-2.9,0-2.9
			s0.7-0.2,2.2-0.2C1142.3,253.1,1143.5,253.9,1143.1,253z M1135.8,256.9c0,0-0.7-2.4-0.7-3.2c0-0.8,0.7-1.7,0.7-1.7V256.9z"/>
		<path class="st1" d="M1044.7,252.3l-0.9-0.3l-0.8,0.3c0,0-0.6-1.5-0.6-2c0,0-0.5-1-0.5-1.8c0-0.8-0.2-3.1-0.2-3.1h-0.5v3v3.9
			l-0.7-0.2l-0.7,0.2h-0.7c0,0-0.3-1.2-0.2-1.5c0,0-0.5-0.5-0.5-1.5c0-1,0-4,0-4s-0.9-0.1-1-0.2c-0.1-0.1,0.4-2.7,0.4-3.8
			c0,0-0.6-0.4-0.6-1.4c0-1,0.2-3.1,0.6-4.2s0.7-2.1,1.1-2.2s1-0.4,1-0.4s-0.2-0.8-0.2-1.3s0.7-1.7,1.3-1.7s1.1,0.6,1.1,0.9
			c0,0,0.4,0,0.4,0.5s-0.3,1.7-0.3,1.7s1.7,0.5,1.9,1c0.2,0.5,0.4,1.2,0.7,1.9s0.9,1.5,0.7,2.6c-0.2,1.1-0.3,2-0.9,2
			c0,0,0.6,3.3,0.6,3.8s-0.5,0.4-0.5,0.4s0.2,2.1,0.2,3.1S1044.7,252.3,1044.7,252.3z"/>
	</g>
</g>
</svg>
