<?xml version="1.0" encoding="utf-8"?>
<!-- Generator: Adobe Illustrator 22.1.0, SVG Export Plug-In . SVG Version: 6.00 Build 0)  -->
<svg version="1.1" id="Layer_1" xmlns="http://www.w3.org/2000/svg" xmlns:xlink="http://www.w3.org/1999/xlink" x="0px" y="0px"
	 viewBox="0 0 345.6 191.2" style="enable-background:new 0 0 345.6 191.2;" xml:space="preserve">
<style type="text/css">
	.st0{fill:#EFEBEC;}
</style>
<g id="eight">
	<path class="st0" d="M127.9,190.1v-7.4h2.9V145h-2.9v-7.5H158v14.8h-8.9V145h-6.6v14.6h9.6v7.5h-9.6v15.5h6.6v-7.4h8.9v14.8H127.9z
		"/>
	<path class="st0" d="M203.6,190.1v-2.4c-1,1.2-2.1,2-3.2,2.6c-1.2,0.6-2.5,0.9-3.9,0.9c-3.8,0-6.5-1.2-8.1-3.7
		c-1.6-2.5-2.5-6.7-2.5-12.6v-22.9c0-5.1,0.9-8.9,2.6-11.5c1.8-2.6,4.4-3.8,7.8-3.8c1.7,0,3.2,0.3,4.5,0.9c1.3,0.6,2.6,1.5,3.8,2.8
		v-2.7h8.4v14.3h-9.4V149c0-1.2-0.3-2.2-0.9-2.8c-0.6-0.7-1.4-1-2.4-1c-1.1,0-1.8,0.4-2.2,1.2c-0.4,0.8-0.6,2.5-0.6,5.1v25.1
		c0,2.6,0.2,4.3,0.7,5.1c0.4,0.8,1.2,1.2,2.4,1.2c0.9,0,1.6-0.4,2.2-1.1c0.5-0.7,0.8-1.6,0.8-2.8v-5.5h-3.1v-7.6h13.4v24.2H203.6z"
		/>
	<g>
		<path class="st0" d="M180.7,137.5v7.5h-2.9v37.6h2.9v7.4h-17.9v-7.4h2.9V145h-2.9v-7.5H180.7z"/>
	</g>
	<path class="st0" d="M240,158.5V145h-2.3v-7.5h16.8v7.5h-2.8v37.6h2.8v7.4h-16.8v-7.4h2.3v-16.5h-6.8v16.5h2.3v7.4h-17v-7.4h2.9
		V145h-2.9v-7.5h17v7.5h-2.3v13.5H240z"/>
	<path class="st0" d="M280.4,145v37.6h3v7.4h-17.7v-7.4h3V145H266v7.3H258v-14.8h33.2v14.8H283V145H280.4z"/>
</g>
<g id="hateful">
	<path class="st0" d="M30.5,87.3V68.1h-3.2V57.5h23.9v10.7h-4v53.5h4v10.6H27.3v-10.6h3.2V98.2h-9.7v23.5h3.3v10.6H0v-10.6h4.1V68.1
		H0V57.5h24.1v10.7h-3.3v19.2H30.5z"/>
	<path class="st0" d="M56.2,132.3v-10.6h3.2L68,68.1h-3.2V57.5h33.9v10.7h-3.3l9.1,53.5h3.3v10.6h-22v-10.6h3.3l-2.3-14.4h-13
		L72,121.7h3.3v10.6H56.2z M75.3,96.7H85l-4.6-28.5h-0.6L75.3,96.7z"/>
	<path class="st0" d="M138.2,68.1v53.5h4.2v10.6h-25.2v-10.6h4.2V68.1h-3.6v10.4h-11.5V57.5h47.2v21.1h-11.6V68.1H138.2z"/>
	<path class="st0" d="M158.1,132.3v-10.6h4.1V68.1h-4.1V57.5h42.8v21.1h-12.7V68.1h-9.3v20.8h13.7v10.7h-13.7v22h9.3v-10.5h12.7
		v21.1H158.1z"/>
	<path class="st0" d="M207.7,132.3v-10.6h4.1V68.1h-4.1V57.5h42.8v21.1h-12.7V68.1h-9.3v20.8h13.7v10.7h-13.7v22h4.2v10.6H207.7z"/>
	<path class="st0" d="M277.1,57.5v10.7h-2.6v48.1c0,2,0.4,3.5,1.1,4.6c0.7,1,1.8,1.5,3.2,1.5c1.5,0,2.5-0.5,3.2-1.5
		c0.7-1,1-2.5,1-4.6V68.1h-2.6V57.5h20.9v10.7h-4.2v43.5c0,7.6-1.6,13.2-4.8,16.8c-3.2,3.6-8.1,5.5-14.8,5.5
		c-6.2,0-11.1-1.7-14.6-5.2c-3.5-3.5-5.2-8.3-5.2-14.6V68.1h-4.2V57.5H277.1z"/>
	<path class="st0" d="M306.5,132.3v-10.6h4.1V68.1h-4.1V57.5h25v10.7h-4.2v53.5h5.2v-12.8h13.1v23.4H306.5z"/>
</g>
<g id="the">
	<path class="st0" d="M49.4,7.5v37.6h3v7.4H34.7v-7.4h3V7.5h-2.5v7.3H27V0h33.2v14.8H52V7.5H49.4z"/>
	<path class="st0" d="M84.9,21V7.5h-2.3V0h16.8v7.5h-2.8v37.6h2.8v7.4H82.6v-7.4h2.3V28.6H78v16.5h2.3v7.4h-17v-7.4h2.9V7.5h-2.9V0
		h17v7.5H78V21H84.9z"/>
	<path class="st0" d="M103.4,52.6v-7.4h2.9V7.5h-2.9V0h30.1v14.8h-8.9V7.5H118v14.6h9.6v7.5H118v15.5h6.6v-7.4h8.9v14.8H103.4z"/>
</g>
</svg>
